<?xml version="1.0" encoding="utf-8"?>
<svg version="1.1" id="Layer_1" xmlns="http://www.w3.org/2000/svg"
     xmlns:xlink="http://www.w3.org/1999/xlink"
     x="0px" y="0px" viewBox="0 0 504 504"

     xml:space="preserve">
    <style type="text/css">.st0{fill-rule:evenodd;clip-rule:evenodd;}</style>
    <g>
            <path fill="#1A1A1A" d="M448.202,251.507c-0.196-2.4-0.98-4.637-2.433-6.563c-1.791-2.388-2.909-3.559-3.118-3.82
		c-5.793-6.392-6.568-9.822-10.237-16.98c-6.689-13.127-5.769-16.996-10.514-25.323c-3.02-5.458-5.828-7.862-10.237-13.943
		c-1.089-1.497-1.58-3.107-1.665-4.898c-0.031-1.026-0.142-2.314-0.457-4.098c-0.563-3.247-2.183-5.655-4.849-7.461
		c-2.237-1.502-4.653-2.498-7.331-2.661c-4.114-0.261-7.755,0.816-10.286,4.31c-0.586,0.854-1.403,1.329-2.449,1.306
		c-1.247,0-2.482-0.042-4.163-0.653c-1.029-0.343-2.024-0.816-2.971-1.42c-4.277-2.735-7.324-3.205-9.274-3.771
		c-6.058-1.795-7.704-3.515-13.6-5.91l-0.016-0.016c-1.274-0.539-2.563-1.045-3.853-1.518c-0.016,0-0.049-0.016-0.065-0.016
		c-25.933-9.665-27.57-15.133-42.449-18.71c-1.395-0.332-4.268-0.849-5.241-0.849c-1.812-0.147-3.624,0.016-5.126,1.127
		c-0.016,0-0.016,0.016-0.033,0.016c-1.061,0.767-2.172,0.947-3.396,0.8c-0.033,0-0.082-0.016-0.114-0.016
		c-1.27-0.146-7.407-0.426-9.127-0.294c-4.923,0.138-10.396,1.547-13.388,2.122c-14.473,2.924-16.83,0.607-22.613,2.71h-0.016
		c-1.682,0.588-3.412,0.751-5.175,0.359c-0.166-0.055-1.796-0.359-3.102-0.686c-2.329-0.533-7.881-2.396-15.445-4.686
		c-16.163-4.85-24.237-3.69-36.555-3.69c-10.616,0.169-16.972-0.395-25.535,0.702c-8.284,0.979-22.221,3.892-28.849,8.865
		c-6.999,5.091-11.721,5.174-20.18,11.886c-7.24,5.698-18.687,11.846-29.143,24.637c-5.829,7.046-10.007,15.008-14.074,23.2
		c-1.241,2.514-2.204,5.176-3.167,7.82c-0.065,0.196-0.147,0.376-0.212,0.571c-0.784,2.122-0.898,4.326-0.163,6.514
		c0.408,1.208,0.294,2.416,0.131,3.624c-1.119,8.138-1.36,19.186,2.367,26.547c3.238,6.477,3.484,11.908,7.086,18.596
		c0.457,0.882,0.8,1.812,1.176,2.727c0.996,2.449,1.094,4.947,0.098,7.38c-3.028,7.519-3.948,8.202-8.425,15.804
		c-1.351,2.163-2.375,4.229-5.469,6.874c-5.095,4.343-8.356,11.06-8.18,19.167c0.219,15.035-2.599,21.738,2.269,32.31
		c1.143,2.476,2.578,4.712,2.988,5.225c0.751,1.094,1.698,2.008,2.89,2.612c2.661,1.388,5.551,1.845,8.523,1.861
		c0.147,0,0.294-0.033,0.441-0.065c4.091-0.702,7.19-3.903,7.853-7.935c0.158-0.921,0.191-1.911,0.49-2.808
		c0.902-2.454,1.302-5.006,1.159-7.641c-0.131-2.329-0.343-4.292-0.62-6.269c-0.18-1.306,0.098-2.4,0.849-3.363
		c0.487-0.609,1.334-1.438,1.959-1.861c5.248-3.548,3.892-2.616,7.086-4.441c7.439-4.393,10.139-7.53,12.914-9.796
		c5.448-4.564,9.445-6.444,12.751-9.878c0.182-0.201,0.39-0.326,0.653-0.457c0.686-0.326,1.257-0.163,1.682,0.474
		c0.163,0.261,0.294,0.539,0.441,0.8c9.042,19.224,6.98,40.166,15.641,50.27c3.608,4.212,8.212,6.237,13.796,5.682
		c2.251-0.222,6.377-0.807,9.6-1.143c0.016-0.016,0.049-0.016,0.065-0.016c6.864-0.738,8.854-0.4,16.751,0.669
		c2.547,0.343,4.947-0.065,7.167-1.355c0.735-0.425,1.453-0.572,2.286-0.474c4.343,0.573,7.788-0.335,7.788-4.735
		c0-1.407-0.803-4.017-1.306-5.322c-1.845-4.256-4.341-7.386-9.208-9.469c-0.696-0.279-5.425-2.424-6.057-2.71
		c-0.391-0.147-1.54-0.712-2.302-1.241c-2.218-1.517-3.384-3.6-3.559-5.878c-0.176-2.026,0.021-3.235,0.979-9.388
		c3.309-21.67,2.429-18.414,2.645-32.849c0.117-4.807,0.253-7.293,1.175-11.135c0.294-1.274,0.555-1.388,1.878-1.241
		c4.224,0.514,14.401,2.638,24.653,2.874c6.17,0.144,20.24,0.253,24.392,0.278c0.065,0.278,0.147,0.441,0.163,0.637
		c0.282,2.256,0.757,5.38,0.882,7.494c0.554,9.978,0.106,17.867,2.024,27.021c1.625,8.138,0.274,13.164,4.588,17.976
		c3.761,4.133,4.245,9.149,10.759,17.11c2.172,2.661,4.931,4.343,8.278,4.98c1.96,0.372,2.891,0.349,8.8,0.931
		c2.074,0.212,4.147,0.408,6.221,0.571c1.845,0.163,3.723,0.376,5.584,0.278c2.911-0.153,5.317-1.477,6.808-3.853
		c0.864-1.364,1.68-1.741,2.612-2.302c2.651-1.473,2.891-4.097,1.796-6.874c-0.379-1.136-1.674-3.45-3.396-5.306
		c-2.877-3.008-7.856-5.645-11.445-7.608c-2.22-1.224-3.82-3.02-4.882-5.306c-1.071-2.203-2.047-5.004-2.612-7.918
		c-0.565-2.735-0.23-5.541,1.208-8.082c2.84-4.991,12.461-20.577,13.698-22.433c2.531-3.755,5.388-7.265,8.604-10.482
		c0.474-0.473,0.963-0.996,1.535-1.355c2.465-1.567,4.082-1.159,5.372,0.914c1.274,2.041,2.596,4.049,3.869,6.09
		c2.283,3.603,4.531,7.024,7.461,10.106c0.087,0.175,4.084,4.318,5.437,5.6c7.481,7.147,10.297,13.59,13.355,18.27
		c0.02,0.031,3.881,5.962,3.902,5.992c1.747,2.596,4.13,4.49,6.873,5.943c4.116,2.187,6.043,4.716,8.098,6.678
		c3.019,2.874,6.302,5.496,10.008,7.363c1.078,0.539,2.188,1.061,3.396,0.849c1.731-0.294,3.021,0.343,4.212,1.469
		c0.277,0.278,0.604,0.473,0.898,0.718c4.287,3.56,7.1,4.364,10.188,5.453c7.773,2.696,10.919,7.354,19.004,10.498
		c8.608,3.378,17.666,4.206,27.021,3.331c5.323-0.484,10.377-3.144,11.2-8.49c0.434-2.428,0.077-3.923-0.098-5.323
		c-0.498-3.78-0.361-5.031-1.339-6.922c-0.523-1.012-1.257-1.91-2.204-2.678c-1.208-0.996-2.465-1.927-3.886-2.547
		c-0.155-0.116-7.667-3.184-8.816-3.641c-9.513-3.737-18.322-13.083-24.947-20.898c-14.829-17.751-20.619-33.643-21.568-53.633
		c-0.118-2.316,0.292-4.934,0.849-6.792c0.392-1.339,0.931-1.731,2.318-1.747c0.539-0.016,1.077,0.033,1.6,0.131
		c8.018,1.56,17.556,3.44,24.555,6.318c6.433,2.476,17.53,8.246,25.42,10.367c3.225,0.865,6.406,1.178,9.633,0.816
		c3.848-0.462,6.961-2.148,9.257-5.273c0.359-0.506,0.767-0.963,1.061-1.502c2.099-3.853,4.89-6.064,5.779-7.233
		C447.761,256.503,448.447,254.135,448.202,251.507z M418.308,203.196c-1.241,1.502-2.482,3.02-3.723,4.523
		c-0.343,0.424-0.653,0.767-1.29,0.767c-2.629-0.049-5.273-0.033-7.902-0.033c-0.114,0-0.212-0.049-0.539-0.114
		c0.326-0.392,0.539-0.702,0.784-0.98c12.525-15.242,7.43-8.924,8.653-10.514c0.016-0.016,0.016-0.033,0.033-0.049
		C415.876,198.804,417.214,200.943,418.308,203.196z M387.826,176.127c1.175-0.343,2.22-1.029,2.873-2.139
		c1.567-2.694,4.033-3.298,6.89-2.922c1.339,0.18,2.547,0.735,3.722,1.404c1.698,0.98,2.71,2.4,3.07,4.245
		c-5.03-0.021-10.286-0.016-20.115-0.016C385.475,176.682,386.651,176.47,387.826,176.127z M390.324,193.041
		c-0.412-0.618-7.885-9.545-8.98-11.004c1.897-0.165-1.834-0.02,9.094-0.082c0.523-0.016,0.931,0.082,1.29,0.522
		c11.539,14.077,9.509,11.428,10.057,12.343c-1.484,1.943-4.946,6.038-10.498,12.833c-0.441,0.555-0.898,0.816-1.633,0.8
		c-2.58-0.049-5.176-0.016-7.771-0.033c-0.326,0-0.669-0.049-1.208-0.082c1.029-1.31,9.385-11.375,9.649-11.772
		C391.108,195.425,391.124,194.168,390.324,193.041z M315.989,147.473c-0.033,0.571-0.082,1.159-0.131,1.731
		c-0.18,2.204,0.947,3.559,3.151,3.51c2.155-0.049,4.294-0.131,6.433-0.229c2.71,1.453,5.453,2.824,8.229,4.147
		c-6.971-0.18-13.943-0.359-21.078-0.539c0-2.088,0.473-9.362,0.473-9.812C314.063,146.624,315.026,147.033,315.989,147.473z
		 M289.23,145.335c0.121,3.718,0.158,5.248,0.392,5.976c0.736,2.487,4.264,2.323,4.849-0.016c0.294-1.115,0.149-2.704,0.033-5.6
		c1.139,0.103,2.139,0.169,3.314-0.163c-0.033,5.225-0.098,9.812-0.212,10.22c-3.69,0-7.396,0.049-11.2,0.016
		c-0.278-3.51-0.539-6.971-0.816-10.416C287.32,145.255,288.576,145.322,289.23,145.335z M243.662,150.559
		c0.261,1.388,1.339,2.188,2.988,2.155c2.857-0.049,5.714-0.18,8.571-0.31c1.584-0.082,2.596-1.061,2.808-2.661
		c0.016-0.196,0.033-0.392,0.049-0.588c1.192-0.016,2.384-0.065,3.559-0.163v7.641c-7.151-0.18-14.22-0.359-21.322-0.539
		c-0.047-0.842-0.133,0.53,0.277-6.106C241.605,150.216,242.65,150.396,243.662,150.559z M217.262,151.033
		c0.497,2.767,4.623,2.8,5.045-0.114c0.091-0.566,0.068-1.194-0.131-6.465c0.55,0.152,3.162,0.92,3.282,0.98v10.171
		c-1.175,0.245-10.482,0.229-11.347-0.033c-0.31-4.376-0.702-8.751-1.012-13.143c1.257,0.212,2.531,0.457,3.788,0.735
		C217.106,149.581,217.093,149.965,217.262,151.033z M180.413,141.498c-0.091,2.113,0.002,1.407-0.294,5.731
		c-1.322,0.114-2.563,0.163-3.869,0.114c0.163-1.975,0.31-3.935,0.473-5.878C177.964,141.465,179.189,141.482,180.413,141.498z
		 M171.466,141.58c-0.196,2.514-0.392,5.045-0.604,7.576c-0.196,2.286,0.963,3.624,3.216,3.559c2.792-0.065,5.567-0.18,8.359-0.31
		c1.584-0.065,2.531-0.947,2.825-2.482c0.123-0.706,0.166-1.698,0.392-8.376c1.094,0.016,2.171,0.016,3.249,0.016v15.069
		c-7.151-0.18-14.188-0.359-21.323-0.539c0-1.756,0.648-11.892,0.767-14.335C169.393,141.678,170.438,141.612,171.466,141.58z
		 M144.282,146.706c0.146,3.073,0.099,3.787,0.31,4.555c0.758,2.561,4.294,2.383,4.898-0.033c0.147-0.604,0.163-1.273,0.147-1.91
		c-0.033-1.437-0.098-2.857-0.163-4.278c1.078-0.31,2.172-0.604,3.265-0.849v11.51h-11.331c-0.196-2.498-0.392-4.996-0.588-7.478
		C141.948,147.653,143.091,147.163,144.282,146.706z M117.425,161.906c0.261,0,0.539,0.016,0.8,0.016
		c2.351,0.065,3.575-0.98,3.69-3.167c1.812-1.127,3.723-2.106,5.665-3.037c0.145,2.955,0.15,3.457,0.343,4.229
		c0.756,2.808,4.747,2.472,5.045-0.392c0.055-0.656-0.013-1.637-0.278-6.318c1.061-0.571,2.122-1.176,3.086-1.91
		c0.016,0,0.016-0.016,0.033-0.033c0.18,2.253,0.359,4.522,0.555,6.775c0.163,1.665,1.241,2.71,2.89,2.89
		c0.595,0.078-0.059,0.053,15.331,0c0.425,0,0.849,0,1.257-0.065c1.241-0.163,1.992-0.963,2.09-2.188
		c0.032-0.31,0.016-0.62,0.016-0.914c0.016-4.898,0.033-9.812,0.049-14.71c1.682-0.31,3.363-0.571,5.061-0.784
		c-0.23,4.21-0.728,12.171-0.914,15.869c-0.082,1.78,0.898,2.89,2.678,3.086c0.375,0.049,0.751,0.033,1.143,0.049
		c8.163,0.212,16.327,0.392,24.49,0.637c2.008,0.049,3.951-0.898,3.739-3.641c-0.019-0.166,0.016-16.61,0.016-16.8
		c2.229,0,3.214-0.114,5.257-0.114c0.009,0.161,0.935,16.919,1.11,18.237c0.418,2.922,4.573,3.122,5.094,0.033
		c0.12-0.842-0.954-18.001-0.963-18.155c1.029,0.049,2.057,0.131,3.086,0.228c0.425,5.404,0.833,10.825,1.273,16.245
		c0.147,1.878,1.372,3.004,3.363,3.02c5.192,0.016,10.384,0,15.576-0.049c1.829-0.016,2.612-0.865,2.694-2.694
		c0.1-2.502,0.054-4.252,0.065-11.167c1.551,0.473,3.118,0.947,4.67,1.404c-0.098,1.506-0.463,7.555-0.539,9.959
		c-0.033,1.518,0.865,2.514,2.351,2.759c0.582,0.104-0.889,0.06,25.976,0.702c1.504,0.054,2.874-0.352,3.428-1.763
		c0.376-0.955,0.31-1.462,0.31-11.739c1.714-0.229,3.429-0.522,5.143-0.865c0.699,12.259,0.616,11.589,0.816,12.425
		c0.732,2.745,4.662,2.473,5.029-0.31c0.124-1.072-0.119-2.736-0.669-13.176c1.029-0.212,2.073-0.392,3.102-0.571
		c0.319,3.873,0.64,8.352,0.996,12.245c0.131,1.355,1.029,2.416,2.27,2.71c0.902,0.197,1.18,0.148,16.032,0.098
		c0.408,0,0.833,0,1.257-0.065c1.159-0.196,1.894-0.98,1.992-2.171c0.052-0.473,0.049-1.384,0.049-14.971
		c0.232,0,3.358,0.615,4.947,0.996c-0.026,0.428-0.734,12.141-0.784,13.453c-0.065,1.731,0.898,2.824,2.596,3.053
		c0.581,0.055-1.151-0.034,25.976,0.669c1.845,0.065,3.216-0.931,3.445-2.792c8.552,3.684,10.559,3.897,15.853,6.4
		c-30.974-0.014-201.222-0.255-242.207-0.314C113.047,165.042,116.993,162.214,117.425,161.906z M105.49,170.51
		c0.016,0,0.016-0.016,0.033-0.033c186.737,0.177,230.644,0.228,261.83,0.228c0.327,0.098,0.653,0.18,0.98,0.261
		c2.286,0.571,4.392,1.518,6.384,2.776c2.927,1.86,6.499,2.879,9.159,2.955c-95.249-0.082-190.499-0.163-285.748-0.229
		C100.478,174.38,102.927,172.388,105.49,170.51z M366.814,192.829c-0.994-1.272-7.161-8.631-8.849-10.825
		c1.138-0.103-0.533-0.065,8.327-0.065c0.474,0,0.865,0.033,1.208,0.457c3.363,4.114,6.743,8.196,10.188,12.376
		c-1.503,1.922-5.351,6.479-10.514,12.816c-0.474,0.588-0.963,0.849-1.731,0.833c-2.286-0.049-4.588-0.016-6.873-0.016
		c-0.326-0.016-0.669-0.049-1.224-0.065c1.192-1.59,9.15-11.132,9.502-11.608C367.794,195.441,367.81,194.119,366.814,192.829z
		 M343.826,193.041c-0.516-0.741-7.476-9.067-9.012-11.004c1.566-0.204-1.188-0.068,8.065-0.131c0.522,0,0.931,0.082,1.29,0.539
		c3.282,4.016,6.596,8.016,9.894,12.033c0.065,0.082,0.114,0.18,0.229,0.375c-5.576,6.779-9.969,12.089-10.514,12.784
		c-0.408,0.522-0.849,0.767-1.535,0.767c-2.596-0.049-5.192-0.016-8.049-0.016c1.229-1.676,9.237-11.227,9.633-11.82
		C344.61,195.425,344.61,194.168,343.826,193.041z M320.087,192.535c-5.361-6.517-6.586-7.943-8.669-10.547
		c1.632-0.196-0.738-0.038,8.343-0.098c0.539,0,0.931,0.131,1.29,0.571c4.22,5.174,9.496,11.494,10.09,12.343
		c-0.898,1.22-5.647,6.877-10.433,12.751c-0.49,0.604-0.98,0.833-1.747,0.816c-3.508-0.075-4.64,0.037-8.098-0.065
		c1.594-2.08,8.158-9.896,9.208-11.233C321.393,195.425,321.41,194.168,320.087,192.535z M295.744,192.323
		c-9.188-11.177-7.363-8.869-8.457-10.367c2.002-0.148,2.282-0.04,9.028-0.082c0.571,0,0.996,0.131,1.388,0.604
		c4.218,5.155,9.359,11.321,10.09,12.327c-2.532,3.165-5.971,7.251-10.465,12.767c-0.457,0.555-0.914,0.8-1.633,0.784
		c-2.645-0.049-5.273-0.016-7.902-0.033c-0.31,0-0.62-0.049-1.078-0.098c1.541-1.869,8.443-10.24,8.996-10.923
		C297.263,195.425,297.279,194.184,295.744,192.323z M273.132,192.992c-0.357-0.499-3.472-4.213-9.061-11.069
		c1.397-0.168-0.4-0.025,8.212-0.082c0.49,0,0.849,0.147,1.175,0.555c10.81,13.153,9.92,12.004,10.106,12.376
		c-0.835,1.311,1.759-2.037-10.498,12.898c-0.294,0.359-0.571,0.669-1.127,0.653c-2.71-0.033-5.42-0.016-8.326-0.016
		c1.268-1.79,8.98-10.951,9.502-11.69C273.932,195.457,273.948,194.135,273.132,192.992z M249.442,192.551
		c-2.595-3.101-7.284-8.832-8.816-10.694c1.665-0.111-1.18-0.049,8.359-0.049c0.539-0.016,0.947,0.098,1.306,0.539
		c10.819,13.218,9.825,11.812,10.155,12.474c-0.981,1.374-3.621,4.405-10.4,12.735c-0.457,0.555-0.931,0.784-1.649,0.767
		c-3.053-0.063-6.684,0.021-8.131-0.082c6.542-8.267,9.49-11.224,9.943-12.506C250.618,194.543,250.242,193.498,249.442,192.551z
		 M225.246,192.519c-2.773-3.335-8.046-9.77-8.751-10.612c1.438-0.25-0.724-0.057,9.094-0.131c0.539-0.016,0.947,0.098,1.306,0.539
		c3.347,4.098,6.726,8.18,10.09,12.278c0.016,0.033,0.033,0.065,0.082,0.196c-0.752,1.128,1.586-1.82-10.417,12.784
		c-0.424,0.522-0.865,0.751-1.535,0.735c-2.939-0.033-5.861-0.016-9.061-0.016c1.771-2.287,4.496-5.462,9.127-11.167
		c0.441-0.555,0.8-1.224,0.963-1.894C226.405,194.184,225.899,193.319,225.246,192.519z M202.013,192.698
		c-0.796-1.007-6.787-8.176-8.964-10.939c3.144,0,5.801,0.003,8.343-0.016c0.523,0,0.931,0.082,1.306,0.522
		c3.331,4.082,6.678,8.131,10.025,12.196c0.082,0.098,0.114,0.196,0.212,0.359c-3.011,3.76-4.233,5.174-10.416,12.719
		c-0.408,0.506-0.849,0.767-1.535,0.751c-2.661-0.033-5.339,0-8.049,0c-0.033-0.539,0.359-0.8,0.604-1.094
		c2.068-2.517,7.921-9.603,8.506-10.335C203.14,195.441,203.14,194.119,202.013,192.698z M178.764,192.551
		c-3.003-3.681-7.438-8.929-8.833-10.808c2.988,0,5.698,0,8.392,0.016c0.294,0.016,0.686,0.18,0.882,0.392
		c3.461,4.18,6.906,8.359,10.384,12.572c-0.163,0.245-0.277,0.473-0.441,0.669c-3.347,4.065-6.694,8.147-10.073,12.196
		c-0.229,0.294-0.637,0.637-0.98,0.637c-2.743,0.065-5.486,0.033-8.49,0.033c0.343-0.441,0.523-0.751,0.751-1.012
		c0.256-0.311,8.214-9.97,8.376-10.171C180.054,195.425,180.07,194.168,178.764,192.551z M155.499,192.698
		c-2.062-2.609-7.32-8.803-8.898-10.906c0.987-0.082,1.906-0.023,8.343-0.065c0.539,0,0.914,0.131,1.274,0.571
		c4.082,4.996,9.436,11.406,10.237,12.506c-1.271,1.633-4.571,5.568-10.4,12.686c-0.408,0.506-0.833,0.784-1.535,0.767
		c-3.17-0.065-6.688,0.022-8.196-0.082c0.294-0.408,0.474-0.702,0.702-0.98c3.177-3.865,8.004-9.686,8.523-10.335
		C156.642,195.441,156.642,194.119,155.499,192.698z M131.564,192.992c-0.794-1.067-7.826-9.465-9.192-11.265
		c0.076,0,9.029,0.002,9.257,0c0.49-0.016,0.849,0.114,1.175,0.522c4.932,6.02,9.939,12.015,10.253,12.539
		c-0.42,0.653,0.455-0.428-10.384,12.719c-0.327,0.392-0.62,0.718-1.208,0.718c-10.113-0.114-8.198,0.086-9.306-0.147
		c1.477-1.845,9.115-11.052,9.404-11.461C132.364,195.457,132.397,194.135,131.564,192.992z M106.552,190.968
		c-8.819-10.737-1.925-2.312-7.543-9.208c1.176-0.081,0.47-0.049,8.31-0.049c0.506-0.016,0.93,0.049,1.306,0.506
		c3.347,4.098,6.727,8.196,10.106,12.294c0.049,0.049,0.065,0.131,0.147,0.278c-0.578,0.942,0.238-0.283-10.286,12.621
		c-0.457,0.571-0.931,0.8-1.649,0.784c-2.335-0.049-4.653-0.016-6.988-0.033c-0.327,0-0.637-0.049-1.127-0.082
		c1.291-1.684,8.874-10.832,9.012-10.988C109.131,195.474,108.447,193.214,106.552,190.968z M84.511,197.302
		c0.359-0.441,0.751-0.914,0.947-1.42c0.474-1.225,0.131-2.302-0.686-3.298c-0.098-0.131-0.212-0.245-0.31-0.375
		c1.306-2.024,2.726-3.951,4.212-5.812c3.274,4.053,6.053,7.245,6.857,8.359c-0.66,1.056-2.996,3.682-10.253,12.588
		c-0.474,0.604-0.98,0.849-1.731,0.833c-3.201-0.07-5.815,0.033-7.837-0.098C75.822,207.855,74.967,208.895,84.511,197.302z
		 M77.066,350.005c0,0.158-0.663,1.613-0.767,3.445h-4.49v-6.923h5.943C77.719,347.138,77.408,348.999,77.066,350.005z
		 M89.572,324.291c-3.971-2.818-9.878,0.012-9.878,5.159c0,0.506,0.049,0.996,0.18,1.469c-2.384,2.531-3.265,5.616-2.596,9.355
		c0.065,0.327,0.114,0.653,0.163,0.963c-5.486,0-10.971,0-16.457-0.016c-0.161-2.574,0.074-4.097,0.246-7.165
		c4.013,3.749,10.575,0.91,10.583-4.562c0.008-5.213-6.008-8.281-10.209-4.921c0.025-3.61-0.064-3.72,0.131-5.605
		c11.82,0.016,23.625,0.033,35.445,0.049C94.78,320.993,92.249,322.723,89.572,324.291z M138.193,353.483
		c-1.029-2.022-1.909-4.683-2.465-6.857h10.465v6.857H138.193z M176.593,360.16c-10.806-1.512-9.568-1.269-22.319,0
		c-4.762,0.468-8.035,1.473-11.853-1.339c13.306,0,26.596,0.016,39.902,0.033C181.22,359.337,180.099,360.647,176.593,360.16z
		 M174.846,346.724c0.016,1.11,0.033,2.237,0.049,3.363v3.445h-11.739v-6.71C164.021,346.528,173.262,346.462,174.846,346.724z
		 M167.303,323.262c-3.119,0.408-5.47,3.02-5.486,6.22c0,2.841,1.861,5.241,4.408,6.057c0.343,2.073,1.159,4.016,2.465,5.812
		c-11.38-0.016-22.776-0.033-34.155-0.049c-0.459-2.295-0.836-4.629-1.763-9.176c1.171-2.441,0.583-5.544-1.633-7.412
		c-0.441-1.894-0.931-3.788-1.469-5.665c4.252,0.012,38.097,0.033,38.253,0.033C167.728,320.487,167.515,321.874,167.303,323.262z
		 M169.376,307.115c-0.065,0.049-0.131,0.114-0.196,0.18c-2.203,2.098-2.823,4.125-3.543,5.747c-0.91-2-1.818-4.508-4.865-6.71
		c-6.084-4.427-14.264-1.747-17.045,6.041c-0.114,0.343-0.245,0.686-0.376,0.996c-0.114-0.016-0.179-0.016-0.179-0.033
		c-0.131-0.31-0.261-0.62-0.392-0.947c-3.197-8.109-11.827-10.536-17.698-5.714c-0.049,0.049-0.098,0.082-0.147,0.131
		c-0.261-0.506-0.555-1.012-0.849-1.518c-0.457-0.784-1.012-1.551-1.649-2.188c-1.486-1.469-3.51-1.698-5.224-0.522
		c-1.703,1.172-2.689,2.395-3.004,2.71c-2.955-1.469-6.09-1.502-9.371,0.098c-2.645,1.29-4.408,3.478-5.568,6.155
		c-0.163,0.408-0.343,0.816-0.571,1.355c-0.212-0.473-0.359-0.8-0.523-1.143c-3.514-7.921-12.364-9.912-18.025-4.539
		c-2.157,2.033-2.812,3.948-3.624,5.845c-0.245-0.555-0.392-0.931-0.571-1.322c-1.549-3.5-4.2-5.811-6.857-6.792
		c3.574-3.426,4.828-6.256,7.004-9.78c126.847,0.158,84.892,0.086,93.617,0.114C169.703,295.899,169.862,302.583,169.376,307.115z
		 M249.524,349.646c-0.114-0.147-0.228-0.278-0.326-0.424v-2.498h11.755v6.759C256.251,352.989,252.567,353.484,249.524,349.646z
		 M280.871,349.221c-1.157,0.609-2.141,1.016-2.923,2.024v-4.506h1.747C280.267,347.556,280.626,348.324,280.871,349.221z
		 M261.116,330.756c3.081,6.588,7.694,7.725,12.49,10.678c-9.812-0.016-19.608-0.016-29.421-0.016
		c-6.336-12.499-6.899-8.283-7.559-13.959c-0.3-2.478-0.474-5.898-0.931-8.31c7.38,0.016,14.759,0.016,22.139,0.016
		C258.027,322.819,259.544,327.4,261.116,330.756z M263.222,304.307c-4.156,0.534-7.473,3.486-9.094,7.478
		c-0.147,0.375-0.31,0.767-0.523,1.273c-1.061-2.428-2.085-4.771-4.833-6.694c-3.494-2.465-7.233-2.906-11.135-1.012
		c-1.437,0.702-2.628,1.665-3.608,2.857c-0.216-3.034-0.296-7.559-0.49-12.898c11.739,0.016,23.461,0.016,35.184,0.033
		C266.863,298.331,265.05,301.319,263.222,304.307z M368.332,346.789h7.249v2.922C372.406,348.306,371.656,348.658,368.332,346.789z
		 M415.32,362.462c-4.653,0.261-9.322,0.261-13.927-0.604c-3.396-0.653-6.71-1.518-9.845-2.841c10.547,0,21.11,0.016,31.658,0.016
		C422.2,361.587,418.058,362.293,415.32,362.462z M392.578,353.679v-6.678c0.8-0.278,10.09-0.343,11.673-0.065v6.743H392.578z
		 M422.896,351.181c0.016,0.849,0.147,1.698,0.278,2.531h-4.8v-5.894C419.517,348.585,422.863,349.711,422.896,351.181z
		 M388.496,326.315c-2.438,4.085,0.408,9.459,5.29,9.551c1.339,0.033,2.58-0.375,3.624-1.078c2.61,2.35,6.393,5.029,10.024,6.759
		c-0.211,0-46.219-0.049-46.4-0.049c-1.274-0.751-2.678-1.11-4.31-0.8c-0.669,0.131-1.257-0.065-1.861-0.376
		c-8.84-4.645-10.648-9.918-16.718-13.143c-0.882-2.122-2.89-3.673-5.273-3.886c-1.309-1.409-1.661-2.27-2.857-4.065
		c17.453,0.016,34.906,0.033,52.343,0.049C384.3,321.711,386.357,324.062,388.496,326.315z M372.3,304.813
		c-2.909,1.039-5.534,3.397-7.004,7.102c-0.114,0.278-0.245,0.555-0.375,0.865c-0.277-0.237-0.048,0.047-0.588-1.094
		c-4.584-10.098-17.052-9.859-21.094,0.098c-0.147,0.375-0.31,0.751-0.523,1.273c-0.229-0.522-0.392-0.898-0.555-1.273
		c-3.76-8.478-13.504-10.057-18.971-3.625c-4.588-7.01-8.77-10.566-10.988-12.784c10.316,0,50.901,0.023,55.2,0.049
		C368.822,298.658,370.488,301.776,372.3,304.813z M442.096,253.743c-1.224-1.078-2.776-0.98-3.869,0.212
		c-1.205,1.328-0.697,2.717-0.816,6.71c-1.859,2.704-1.389,2.581-3.265,4.555c-0.882,0.947-1.992,1.518-3.265,1.796
		c-1.42,0.31-2.841,0.441-4.261,0.375c-0.212-0.343-0.49-0.718-0.849-1.143c-0.465-0.55-10.18-12.023-10.71-12.522
		c-1.224-1.061-2.776-0.963-3.87,0.245c-0.637,0.702-0.816,1.518-0.816,2.433c0.016,1.943,0.016,3.902,0.016,5.845
		c-8.762-3.815-15.054-7.378-29.11-10.4c-9.412-2.002-11.336-2.588-13.959-2.106c-2.531,0.473-4.376,1.796-5.257,4.131
		c-1.897-1.9-4.833-0.536-4.833,2.482c0.101,23.48-0.077,22.989,0.212,24.147c0.326,1.306,1.518,2.09,2.857,1.927
		c1.127-0.117,1.814-0.636,2.547-1.371c0.686,3.069,1.518,6.122,2.547,9.127c-19.314-0.016-38.629-0.033-57.943-0.065
		c-5.993-7.3-6.113-9.504-10.318-15.037c-1.551-2.041-3.706-3.069-6.269-3.004c-0.154,0-0.099,0.004-0.205,0.016
		c2.296-2.318,3.092-3.257,0.865-5.877c-11.144-13.102-10.368-12.197-10.727-12.508c-1.188-1.028-2.702-0.935-3.79,0.204
		c-0.679,0.711-0.865,1.57-0.862,2.523c0.022,7.554,0.026,15.108,0.049,22.662c0.004,1.266,0.259,2.311,1.327,2.972
		c-0.111,0.159-3.011,3.689-5.547,8.014c-7.51-0.016-15.02-0.016-22.531-0.033c0,0.016,0,0.016,0,0.016h-16.114
		c-0.147-2.727-0.441-5.453-1.045-8.147c-0.348-1.453-0.824-2.768-2.186-3.623c7.5-7.554,7.163-7.188,7.515-7.615
		c1.027-1.246,1.058-2.475,0.102-3.753c-0.576-0.769-8.942-10.515-10.75-12.638c-0.854-1.002-1.868-1.582-3.102-1.169
		c-1.099,0.368-1.806,1.126-2.02,2.273c-0.101,0.543-0.079,0.03-0.079,12.468c0.017,0,0.034,0,0.051,0c0,3.2,0,6.4,0.002,9.599
		c-5.893-0.049-11.803-0.082-17.712-0.212c6.063-6.113,6.223-6.195,6.661-6.808c0.784-1.045,0.816-2.204,0.082-3.282
		c-0.276-0.414-10.529-12.417-10.661-12.572c-0.947-1.167-1.988-1.971-3.412-1.437c-1.094,0.392-1.78,1.159-1.976,2.302
		c-0.08,0.478-0.082,0.285-0.065,12.359h0.049v8.931c-5.62-0.593-11.713-1.688-14.247-2.056c4.892-4.921,4.058-3.881,4.812-5.924
		c-0.073-0.905-0.525-1.556-1.054-2.177c-3.463-4.065-6.922-8.133-10.385-12.198c-0.882-1.035-1.867-1.7-3.172-1.272
		c-1.101,0.361-1.809,1.118-2.034,2.262c-0.087,0.444-0.079,0.911-0.078,1.368c0.027,15.469,0.023,22.809,0.092,23.343
		c0.14,1.08,0.816,1.869,1.726,2.189c-0.029,0.283-0.494,2.952-0.656,7.723c-30.172-0.016-60.359-0.049-90.531-0.082
		c1.728-2.88,3.359-6.274,4.392-9.616c0.979-3.167,0.963-6.335-0.163-9.453c-0.49-1.355-1.012-2.71-1.665-4
		c-3.653-7.144-3.449-11.334-7.118-18.71c-0.535-1.047-0.747-1.755-0.974-2.388c0.967-0.171,1.788-0.871,2.053-1.912
		c0.317-1.247-0.009-6.149-0.027-19.652c0-0.419,0.004-0.842-0.052-1.255c-0.179-1.315-1.182-2.243-2.447-2.297
		c-0.093-0.004-0.173,0.028-0.264,0.032c-0.078-0.471-0.105-0.874-0.362-1.621c-0.721-2.08,0.137-3.581,0.882-5.665
		c268.34,0.268,258.295,0.182,348.736,0.327c0.929,2.641,1.973,5.233,3.097,7.776c-0.691,1.137-0.496,1.439-0.297,20.853
		c0.003,0.341,0.01,0.691,0.083,1.022c0.605,2.746,4.398,2.831,5.044,0.043c0.161-0.695,0.131-1.115,0.015-11.866
		c4.698,10.005,7.662,11.547,11.225,16.327c1.232,1.588,2.121,4.414,1.224,6.449C442.472,254.119,442.292,253.923,442.096,253.743z"
            />
        <path fill="#1A1A1A" d="M253.808,253.746c-1.216-1.079-2.77-0.984-3.872,0.212c-0.635,0.689-0.824,1.512-0.821,2.424
		c0.013,3.777,0.005,7.554,0.005,11.331c0.012,0,0.023,0,0.035,0c0,11.076-0.064,11.739,0.15,12.69
		c0.489,2.174,3.191,2.922,5.359,0.726c3.217-3.258,6.455-6.494,9.673-9.751c1.914-1.938,1.949-3.05,0.191-5.118
		C253.699,253.521,254.163,254.061,253.808,253.746z"/>
        <path fill="#1A1A1A" d="M118.805,253.675c-1.164-0.98-2.634-0.891-3.707,0.196c-0.689,0.698-0.907,1.549-0.904,2.506
		c0.014,3.777,0.006,7.554,0.006,11.331c0.012,0,0.024,0,0.035,0c0,11.397-0.068,11.828,0.175,12.802
		c0.524,2.099,3.207,2.778,5.332,0.623c3.215-3.26,6.454-6.495,9.672-9.752c1.917-1.939,1.953-3.052,0.197-5.118
		C119.003,253.785,119.233,254.035,118.805,253.675z"/>
        <path fill="#1A1A1A" d="M91.821,253.714c-1.187-1.031-2.701-0.941-3.791,0.196c-0.68,0.71-0.87,1.568-0.867,2.521
		c0.015,3.777,0.006,7.554,0.006,11.331c0.012,0,0.024,0,0.035,0c0,11.092-0.068,11.715,0.161,12.689
		c0.497,2.111,3.163,2.896,5.383,0.644c3.188-3.232,6.399-6.442,9.592-9.67c1.969-1.991,2.007-3.084,0.205-5.203
		C91.493,253.226,92.176,254.022,91.821,253.714z"/>
        <path fill="#1A1A1A" d="M335.232,254.466c-0.918-1.078-1.899-1.794-3.253-1.339c-1.099,0.369-1.806,1.127-2.019,2.274
		c-0.097,0.524-0.079-0.032-0.079,12.353c0.017,0,0.034,0,0.051,0c0,12.483-0.016,11.876,0.047,12.357
		c0.318,2.414,3.212,3.258,5.374,1.07c5.516-5.581,9.993-10.011,10.449-10.586c0.929-1.169,0.959-2.374,0.096-3.571
		C345.695,266.737,346.698,267.924,335.232,254.466z"/>
        <path fill="#1A1A1A" d="M307.655,253.873c-0.802-0.772-1.729-1.124-2.819-0.707c-1.078,0.413-1.759,1.192-1.926,2.352
		c-0.075,0.523-0.058-0.011-0.058,12.241c0.017,0,0.034,0,0.051,0c0,12.414-0.016,11.875,0.048,12.357
		c0.318,2.392,3.199,3.264,5.377,1.06c9.504-9.616,9.96-9.944,10.519-10.677c0.834-1.095,0.861-2.265,0.085-3.388
		C318.7,266.776,308.085,254.287,307.655,253.873z"/>
        <path fill="#1A1A1A" d="M146.348,253.831c-0.778-0.729-1.675-1.063-2.725-0.682c-1.088,0.395-1.781,1.164-1.966,2.318
		c-0.086,0.532-0.067-0.009-0.067,12.355c0.017,0,0.034,0,0.051,0c0,11.862-0.021,11.846,0.055,12.356
		c0.343,2.3,3.157,3.242,5.415,0.955c9.501-9.624,9.93-9.905,10.511-10.684c0.786-1.055,0.81-2.214,0.077-3.294
		C157.474,266.824,146.822,254.274,146.348,253.831z"/>
        <path fill="#1A1A1A" d="M260.521,243.497c0.176,1.345,1.25,2.32,2.546,2.33c1.331,0.01,2.429-1.017,2.571-2.424
		c0.072-0.718-0.102-16.138-0.059-19.431c0.014-1.085-0.38-2.006-0.894-2.895c-0.124-0.214-0.472-0.361-0.742-0.413
		c-0.366-0.071-0.757-0.038-1.136-0.021c-1.431,0.067-2.505,1.01-2.491,3.195c0.037,6.211,0.096,12.421,0.151,18.632
		C260.471,242.813,260.477,243.158,260.521,243.497z"/>
        <path fill="#1A1A1A" d="M146.705,243.674c0.22,1.263,1.338,2.182,2.583,2.153c1.201-0.028,2.265-0.935,2.466-2.153
		c0.132-0.795,0.05-1.282-0.043-19.549c-0.003-0.529-0.046-1.072-0.176-1.582c-0.629-2.459-4.135-2.602-4.898-0.111
		c-0.24,0.784-0.201-0.215-0.013,20.102C146.628,242.915,146.64,243.301,146.705,243.674z"/>
        <path fill="#1A1A1A" d="M164.165,222.663c-0.68-2.856-4.62-2.611-5.048,0.208c-0.155,1.021,0.09,12.849,0.104,19.546
		c0.001,0.418,0.013,0.842,0.083,1.253c0.216,1.264,1.333,2.183,2.579,2.157c1.201-0.026,2.261-0.932,2.472-2.147
		c0.092-0.528,0.099,0.359-0.043-19.66C164.309,223.567,164.269,223.103,164.165,222.663z"/>
        <path fill="#1A1A1A" d="M113.485,222.449c-0.64-2.317-4.046-2.473-4.827-0.128c-0.164,0.493-0.217,1.045-0.214,1.569
		c0.005,0.825,0.1,18.959,0.235,19.773c0.21,1.267,1.324,2.186,2.572,2.164c1.202-0.022,2.27-0.924,2.476-2.141
		c0.124-0.734,0.07-0.888-0.042-19.545C113.683,223.575,113.635,222.991,113.485,222.449z"/>
        <path fill="#1A1A1A" d="M96.084,243.688c0.225,1.258,1.354,2.176,2.595,2.139c1.203-0.036,2.258-0.946,2.454-2.167
		c0.116-0.718,0.068-1.002-0.047-19.549c-0.004-0.565-0.056-1.15-0.209-1.691c-0.63-2.229-3.95-2.468-4.785-0.185
		c-0.349,0.955-0.279,0.175-0.092,20.315C96.004,242.93,96.018,243.316,96.084,243.688z"/>
        <path fill="#1A1A1A" d="M202.159,222.542c-0.296-1.156-1.254-1.879-2.414-1.905c-1.465-0.034-2.667,0.966-2.654,3.147
		c0.133,19.44,0.139,19.324,0.238,19.891c0.221,1.262,1.34,2.181,2.585,2.151c1.201-0.029,2.264-0.936,2.465-2.154
		c0.131-0.795,0.05-1.282-0.043-19.549C202.333,223.596,202.29,223.052,202.159,222.542z"/>
        <path fill="#1A1A1A" d="M214.732,222.447c-0.641-2.316-4.048-2.469-4.827-0.123c-0.304,0.916-0.245,0.202-0.064,19.975
		c0.004,0.456,0.012,0.919,0.087,1.367c0.211,1.266,1.327,2.185,2.574,2.161c1.201-0.023,2.269-0.926,2.474-2.143
		c0.123-0.733,0.068-0.926-0.042-19.545C214.93,223.573,214.882,222.989,214.732,222.447z"/>
        <path fill="#1A1A1A" d="M253.001,243.681c0.123-0.733,0.07-0.926-0.043-19.549c-0.003-0.566-0.052-1.15-0.203-1.692
		c-0.634-2.274-4.03-2.5-4.824-0.118c-0.302,0.905-0.248,0.047-0.064,19.978c0.004,0.456,0.012,0.919,0.087,1.367
		c0.212,1.266,1.33,2.185,2.577,2.159C251.731,245.803,252.798,244.898,253.001,243.681z"/>
        <path fill="#1A1A1A" d="M417.279,222.302c-0.3-1.251-1.353-2.068-2.559-2.036c-1.236,0.033-2.296,0.981-2.489,2.273
		c-0.148,0.995,0.093,13.018,0.107,19.546c0.001,0.418,0.012,0.843,0.084,1.253c0.489,2.81,4.58,2.825,5.054-0.019
		c0.088-0.527,0.096,0.415-0.047-19.66C417.426,223.205,417.385,222.741,417.279,222.302z"/>
        <path fill="#1A1A1A" d="M404.623,222.082c-0.63-2.245-3.942-2.506-4.784-0.2c-0.352,0.963-0.282,0.187-0.097,20.313
		c0.004,0.38,0.016,0.766,0.081,1.139c0.496,2.83,4.596,2.814,5.053-0.012c0.116-0.714,0.067-1.087-0.047-19.548
		C404.825,223.208,404.775,222.623,404.623,222.082z"/>
        <path fill="#1A1A1A" d="M366.612,222.126c-0.686-2.431-4.136-2.487-4.866-0.07c-0.403,1.335-0.074,3.316-0.031,19.981
		c0.001,0.456,0.013,0.92,0.098,1.366c0.517,2.718,4.527,2.747,5.032-0.038c0.088-0.488,0.114,0.606-0.041-19.774
		C366.8,223.101,366.744,222.596,366.612,222.126z"/>
        <path fill="#1A1A1A" d="M354.031,222.204c-0.626-2.472-4.136-2.642-4.896-0.121c-0.14,0.464-0.176,0.975-0.173,1.463
		c0.113,17.155,0.119,19.07,0.236,19.775c0.473,2.833,4.584,2.835,5.051,0.012c0.132-0.797,0.048-1.429-0.043-19.548
		C354.204,223.257,354.161,222.713,354.031,222.204z"/>
        <path fill="#1A1A1A" d="M311.172,243.315c0.475,2.835,4.563,2.845,5.053,0.025c0.065-0.372,0.067-0.759,0.065-1.139
		c-0.1-20.036-0.063-19.067-0.254-19.878c-0.295-1.258-1.333-2.077-2.541-2.058c-1.235,0.02-2.307,0.961-2.507,2.251
		c-0.141,0.907,0.091,14.048,0.102,19.546C311.092,242.48,311.104,242.904,311.172,243.315z"/>
        <path fill="#1A1A1A" d="M303.582,223.791c-0.003-0.566-0.052-1.15-0.202-1.692c-0.63-2.285-4.015-2.541-4.823-0.128
		c-0.165,0.493-0.219,1.044-0.216,1.568c0.001,0.156,0.108,18.878,0.216,19.663c0.419,3.02,4.759,3.01,5.1-0.089
		C303.704,242.698,303.671,238.583,303.582,223.791z"/>
        <path fill="#1A1A1A" d="M392.01,222.417c-0.222-1.219-1.283-2.118-2.478-2.153c-1.197-0.035-2.276,0.803-2.547,2.046
		c-0.199,0.91-0.174,0.149,0.033,19.881c0.004,0.417,0.011,0.846,0.108,1.247c0.642,2.664,4.365,2.723,5.009-0.002
		c0.264-1.117-0.026-10.224-0.046-19.653C392.088,223.328,392.091,222.863,392.01,222.417z"/>
        <path fill="#1A1A1A" d="M336.541,243.551c0.702,2.551,4.271,2.539,4.938-0.009c0.329-1.256,0.015-6.252-0.013-19.762
		c-0.001-0.456,0.002-0.921-0.08-1.367c-0.224-1.218-1.287-2.116-2.481-2.148c-1.197-0.033-2.274,0.806-2.544,2.05
		c-0.193,0.891-0.18,0.135,0.036,19.882C336.401,242.649,336.422,243.118,336.541,243.551z"/>
        <path fill="#1A1A1A" d="M328.786,222.41c-0.225-1.218-1.279-2.105-2.485-2.145c-1.19-0.04-2.267,0.801-2.539,2.048
		c-0.112,0.515-0.143,1.058-0.139,1.588c0.154,19.495,0.132,18.97,0.319,19.651c0.699,2.54,4.268,2.552,4.938-0.011
		c0.329-1.256,0.016-6.258-0.014-19.764C328.866,223.32,328.868,222.855,328.786,222.41z"/>
        <path fill="#1A1A1A" d="M290.765,222.432c-0.217-1.221-1.27-2.124-2.466-2.166c-1.195-0.043-2.28,0.794-2.56,2.032
		c-0.108,0.478-0.146,0.982-0.142,1.473c0.16,20.185,0.155,19.151,0.276,19.656c0.644,2.679,4.358,2.736,5.01,0.025
		c0.304-1.263-0.013-5.275-0.041-19.652C290.841,223.342,290.844,222.878,290.765,222.432z"/>
        <path fill="#1A1A1A" d="M278.181,222.513c-0.197-1.277-1.262-2.212-2.513-2.248c-1.191-0.035-2.262,0.807-2.532,2.057
		c-0.111,0.516-0.141,1.058-0.137,1.588c0.155,19.464,0.131,18.964,0.322,19.65c0.704,2.533,4.272,2.542,4.938-0.028
		c0.122-0.471,0.143-0.978,0.145-1.468c0.012-3.087-0.155-15.209-0.16-18.182C278.243,223.425,278.25,222.962,278.181,222.513z"/>
        <path fill="#1A1A1A" d="M379.411,222.419c-0.222-1.22-1.27-2.109-2.477-2.155c-1.191-0.045-2.272,0.792-2.547,2.038
		c-0.2,0.909-0.175,0.175,0.032,19.884c0.004,0.417,0.01,0.846,0.106,1.247c0.638,2.667,4.362,2.73,5.009,0.007
		c0.104-0.438,0.116-0.905,0.118-1.359c0.01-3.087-0.156-15.285-0.162-18.296C379.489,223.33,379.492,222.865,379.411,222.419z"/>
        <path fill="#1A1A1A" d="M227.551,222.826c-0.459-2.791-4.447-3.005-5.046-0.126c-0.107,0.517-0.134,1.059-0.129,1.589
		c0.144,18.136,0.12,18.837,0.297,19.54c0.663,2.635,4.294,2.672,4.974,0.017c0.32-1.252,0.001-4.54-0.027-19.652
		C227.619,223.738,227.625,223.274,227.551,222.826z"/>
        <path fill="#1A1A1A" d="M176.904,222.702c-0.253-1.24-1.282-2.057-2.53-2.064c-1.437-0.009-2.641,1.004-2.623,3.322
		c0.161,20.359,0.118,19.397,0.414,20.206c0.368,1.005,1.358,1.663,2.382,1.663c1.07,0,2.085-0.705,2.411-1.776
		c0.43-1.413,0.076-3.321,0.037-19.985C176.994,223.611,176.994,223.145,176.904,222.702z"/>
        <path fill="#1A1A1A" d="M121.423,243.826c0.672,2.639,4.293,2.674,4.975,0.024c0.112-0.435,0.134-0.903,0.135-1.356
		c0.002-0.544-0.124-19.023-0.229-19.664c-0.454-2.785-4.434-3.016-5.047-0.134c-0.194,0.913-0.16,0.553,0.044,19.885
		C121.306,242.998,121.321,243.427,121.423,243.826z"/>
        <path fill="#1A1A1A" d="M138.893,222.769c-0.501-2.763-4.422-2.88-5.027-0.115c-0.113,0.515-0.143,1.058-0.139,1.587
		c0.152,19.327,0.142,18.963,0.28,19.54c0.649,2.709,4.364,2.727,5.009,0.007c0.267-1.126-0.026-9.918-0.046-19.652
		C138.97,223.68,138.974,223.215,138.893,222.769z"/>
        <path fill="#1A1A1A" d="M189.517,222.769c-0.501-2.763-4.422-2.88-5.027-0.115c-0.113,0.515-0.143,1.058-0.139,1.587
		c0.153,19.327,0.142,18.963,0.28,19.54c0.649,2.709,4.363,2.727,5.009,0.007c0.267-1.124-0.026-9.899-0.045-19.652
		C189.593,223.68,189.598,223.215,189.517,222.769z"/>
        <path fill="#1A1A1A" d="M88.374,243.848c0.112-0.435,0.133-0.903,0.135-1.356c0.002-0.532-0.124-19.015-0.229-19.661
		c-0.458-2.829-4.454-2.98-5.048-0.127c-0.194,0.934-0.162,0.414,0.044,19.767c0.005,0.454,0.015,0.922,0.125,1.358
		C84.062,246.46,87.693,246.505,88.374,243.848z"/>
        <path fill="#1A1A1A" d="M240.153,222.848c-0.447-2.839-4.435-3.003-5.048-0.16c-0.103,0.479-0.136,0.982-0.132,1.474
		c0.158,19.773,0.137,19.099,0.327,19.761c0.734,2.554,4.262,2.534,4.939-0.058c0.331-1.266,0.006-4.345-0.021-19.648
		C240.218,223.76,240.224,223.296,240.153,222.848z"/>
        <path fill="#1A1A1A" d="M373.389,335.868c3.488-0.023,6.314-2.904,6.273-6.395c-0.041-3.448-2.867-6.217-6.328-6.201
		c-3.516,0.016-6.301,2.849-6.263,6.372C367.108,333.085,369.955,335.89,373.389,335.868z"/>
        <path fill="#1A1A1A" d="M141.267,329.502c0.008,3.434,2.825,6.268,6.26,6.299c3.448,0.031,6.291-2.751,6.335-6.198
		c0.045-3.537-2.714-6.366-6.234-6.392C144.12,323.186,141.259,326.015,141.267,329.502z"/>
        <path fill="#1A1A1A" d="M352.729,335.862c3.441,0.055,6.314-2.721,6.376-6.158c0.063-3.541-2.685-6.397-6.19-6.434
		c-3.518-0.037-6.382,2.758-6.402,6.249C346.494,332.948,349.297,335.807,352.729,335.862z"/>
        <path fill="#1A1A1A" d="M250.119,335.836c3.433,0.033,6.296-2.769,6.339-6.204c0.044-3.535-2.723-6.368-6.238-6.388
		c-3.475-0.019-6.301,2.726-6.352,6.172C243.816,332.904,246.638,335.802,250.119,335.836z"/>
        </g>
</svg>
