<?xml version="1.0" encoding="utf-8"?>
<svg version="1.1" id="Layer_1" xmlns="http://www.w3.org/2000/svg"
     xmlns:xlink="http://www.w3.org/1999/xlink"
     x="0px" y="0px" viewBox="0 0 504 504"

     xml:space="preserve">
    <style type="text/css">.st0{fill-rule:evenodd;clip-rule:evenodd;}</style>
    <g>
            <path fill="#1A1A1A" d="M473.941,75.462c-3.676-1.969-16.797-2.485-21.02-2.514c-30.737-0.213-38.845-1.371-83.017,2.578
		c-42.855,3.831-85.295,27.959-120.008,53.381c-18.192,13.323-19.443,16.924-22.218,18.831c-0.747-1.972-1.241-2.882-1.019-3.844
		c2.983-12.937,5.038-14.225,6.402-22.213c0.155-0.91,0.367-1.825,0.042-2.856c-5.028,0.838-8.867,3.721-12.398,6.997
		c-0.182-0.085-0.27-0.097-0.289-0.14c-1.191-2.75-3.434-10.816-10.743-23.778c-4.641-8.231-10.694-15.273-17.947-21.314
		c-17.424-14.512-40.803-17.25-62.336-11.251c-11.084,3.088-15.466,9.179-16.982,10.369C87.009,68.26,58.086,65.934,31.188,70.035
		c-1.168,0.178-2.329,0.408-3.479,0.678c-0.243,0.057-0.558,0.37-0.597,0.605c-0.066,0.402,0.267,0.678,0.651,0.785
		c0.296,0.082,0.613,0.093,0.921,0.13c22.369,2.659,32.726,4.074,59.839,14.374c15.448,5.868,28.881,18.34,33.368,21.025
		c0.812,0.486,1.349,1.047,1.563,1.952c0.274,1.158,7.527,19.658,10.624,43.058c0.301,2.277,0.54,4.562,0.809,6.85
		c-5.319,3.967-6.434,7.729-8.048,12.13c-0.793-5.051-1.255-9.185-3.857-14.008c-2.806-5.2-6.928-8.898-12.512-10.908
		c-0.924-0.332-1.853-0.776-2.933-0.37c-0.517,1.755-0.333,4.658-0.035,6.456c1.471,8.86,6.868,11.893,11.475,15.308
		c3.757,2.786,4.637,6.582,5.609,10.636c0.05,0.207,0.235,0.455-0.18,0.659c-3.88-3.209-5.56-3.147-11.438-3.274
		c-2.339-0.05-4.568-0.515-6.652-1.606c-0.251-0.132-0.511-0.371-0.878-0.044c-0.097,0.644,0.032,1.303,0.25,1.957
		c1.576,4.735,4.818,7.043,9.503,7.884c4.776,0.858,7.466,0.366,9.706,3.773c1.492,2.269,1.616,3.6,2.531,7.548
		c0.045,0.195,0.146,0.5-0.29,0.601c-2.372-1.768-4.463-2.893-8.103-2.024c-3.299,0.788-7.937,3.462-12.854,1.434
		c-0.179-0.074-0.419,0.002-0.737,0.011c0.694,1.923,1.65,3.506,2.959,4.871c6.706,6.989,17.379-1.599,19.804,3.318
		c0.665,1.349,0.977,2.838,1.834,6.639c0.047,0.209-0.044,0.449-0.075,0.713c-8.637-2.182-9.307,0.836-15.161,2.847
		c-1.901,0.653-3.843,1.043-5.87,0.666c-0.213-0.04-0.448,0.037-0.75,0.067c0.346,1.406,0.99,2.527,1.927,3.468
		c4.188,4.205,8.228,1.497,13.392-1.174c7.649-3.957,5.641-3.365,13.135,7.874c-7.09,2.88-13.841,3.035-11.836,7.63
		c2.631,6.027,5.97,9.599,9.409,11.799c0.194,0.124,0.457,0.244,0.27,0.683c-1.828,0.575-9.262,2.107-10.388,2.539
		c-1.758,0.675-3.118,2.696-1.114,4.758c2.514,2.587,7.165,4.713,9.982,6.113c-0.217,0.174-0.346,0.321-0.508,0.401
		c-3.662,1.825-6.725,4.471-9.795,7.113c-1.633,1.405-2.364,2.807-0.002,4.965c1.631,1.49,3.559,2.067,5.658,2.847
		c-0.317,0.482-0.602,0.82-0.784,1.206c-1.531,3.243-3.261,5.752-0.528,7.904c1.284,1.011,2.121,1.23,4.591,1.948
		c0.702,0.204,1.466,0.192,2.152,0.564c-0.191,0.816-0.634,2.485-0.666,3.521c-0.118,3.741,3.355,2.309,6.989,1.378
		c0.281-0.072,0.574-0.286,0.887,0.118c-0.652,2.66-1.101,4.157-0.769,8.236c0.386,4.736,8.007,2.219,9.331,2.715
		c-0.283,0.977-0.821,2.668-0.879,2.996c-0.179,1.006,0.377,1.683,1.386,1.801c2.439,0.285,9.258-3.634,11.242-4.441
		c-0.388,2.397-1.319,3.763-0.448,9.605c0.464,3.109,2.977,2.98,5.922,1.886c3.264-1.212,4.943-2.515,7.339-4.082
		c0.914,2.062,1.997,4.272,2.544,5.32c0.314,0.602,0.709,1.178,1.154,1.691c0.801,0.924,1.734,1.067,2.866,0.566
		c1.515-0.671,1.871-1.613,5.751-7.919c0.155-0.252,0.299-0.568,0.727-0.426c0.035,0.168,0.097,0.344,0.106,0.522
		c0.321,6.02,4.201,7.876,5.104,13.095c0.292,1.685,0.129,3.321-0.548,4.838c-0.569,0.182-1.065,0.278-1.504,0.492
		c-3.75,1.827-1.285,7.333,2.526,5.993c1.639-0.577,2.531-2.409,1.959-4.105c-0.175-0.52-0.468-1-0.685-1.452
		c1.236-4.132,0.922-3.757,1.012-5.921c0.027-0.636-0.373-1.256-0.137-2.09c4.161,2.822,7.442,6.057,8.254,11.099
		c-0.438,0.732-1.725,2.269-0.713,4.226c1.409,2.723,5.371,2.106,6.08-0.602c0.363-1.385,0.063-2.608-1.074-3.529
		c-0.426-0.345-0.949-0.572-1.48-0.883c-0.65-2.854-1.013-5.02-3.1-7.455c-4.946-5.772-12.274-8.082-11.483-15.731
		c0.02-0.198,0.175-0.382,0.33-0.701c5.487,5.819,6.824,8.966,9.109,6.863c1.084-0.997,0.95-2.035,1.44-4.344
		c0.056-0.263,0.235-0.5,0.392-0.818c1.322,0.94,2.529,1.798,3.756,2.67c0,0.272,0.012,0.515-0.002,0.756
		c-0.226,3.919,2.692,6.314,6.174,8.084c0.974,0.495,1.545,1.223,1.544,2.349c-0.001,2.594,0.992,4.101,2.42,4.959
		c0.638,0.383,0.967,0.89,1.216,1.559c1.133,3.037,3.306,5.054,6.269,6.282c5.977,2.478,12.652-1.362,15.04,0.222
		c-0.056,0.357-0.101,0.659-0.152,0.961c-0.461,2.755,0.311,5.047,2.55,6.785c1.287,1,2.382,2.183,3.396,3.454
		c2.46,3.081,4.906,3.637,7.737,4.493c0,0.496,0.05,0.926-0.008,1.341c-1.382,9.867,6.953,12.798,11.047,20.938
		c0.074,0.146,0.249,0.242,0.498,0.473c1.609-9.721,3.853-14.459,1.841-20.665c-0.067-0.206-0.25-0.449,0.081-0.721
		c2.114,0.345,4.172,0.873,6.01-1.515c0.914-1.187,1.453-2.441,3.497-2.374c0.488,0.016,0.979-0.166,1.473-0.226
		c0.269-0.033,0.546,0.002,0.977,0.009c-1.308,2.942-4.406,2.862-5.437,5.152c-0.626,1.389,0.234,2.907,2.533,2.755
		c2.861-0.19,3.677-2.081,5.711-4.527c0.601,1.321,1.164,2.5,1.675,3.7c1.185,2.788-3.136,2.913-6.476,3.626
		c-2.439,0.52-3.861,3.181-1.757,4.56c1.772,1.162,4.667,1.211,6.909-0.761c1.565-1.376,2.178-2.636,3.033-4.197
		c0.25,0.201,0.427,0.287,0.522,0.429c2.45,3.646,4.664,5.993,2.217,9.732c-1.216,1.859-3.034,3.025-3.594,4.716
		c-0.749,2.26,2.123,2.935,4.44,0.975c2.316-1.958,2.787-4.139,3.359-6.131c1.517,1.629,3.075,5.145,3.172,7.084
		c0.092,1.849-0.795,3.205-2.589,3.868c-1.749,0.646-3.374,0.761-4.353,1.977c-0.984,1.223-0.704,2.572,0.735,3.204
		c2.871,1.26,5.384-0.327,7.059-2.929c0.16-0.248,0.283-0.575,0.719-0.378c0.232,1.225,0.218,2.47,0.015,3.702
		c-0.775,4.703-4.173,3.826-6.069,5.621c-1.016,0.962-0.797,2.299,0.442,2.917c2.243,1.118,5.343-0.683,6.673-2.796
		c0.249-0.396,0.499-0.791,0.87-1.379c1.244,3.274,0.111,8.008,1.486,10.811c1.092,2.226,4.201,2.297,5.507-0.901
		c1.423-3.484-1.233-6.734-3.923-14.262c-0.108-0.301-0.016-0.674-0.016-1.151c1.713,1.007,2.978,1.899,4.871,2.087
		c2.449,0.243,4.585-0.47,6.101-2.482c1.292-1.715,0.414-3.585-1.723-3.732c-3.539-0.244-7.874,2.14-10.798-2.259
		c-0.612-0.92-0.999-1.993-1.455-3.012c-0.113-0.252-0.244-0.584,0.029-0.75c1.266,0.35,2.452,0.711,3.656,0.999
		c1.868,0.447,4.693-0.745,5.192-3.2c0.319-1.568-0.394-2.436-1.972-2.38c-0.944,0.033-2.998,0.508-3.849,0.703
		c-4.071,0.933-7.235-2.609-8.932-6.424c3.851-0.693,3.197-0.73,5.322-2.33c0.703,0.267,1.458,0.535,2.199,0.841
		c3.504,1.445,4.981-1.543,6.421-3.599c0.168-0.24,0.234-0.603,0.702-0.412c0.284,3.688,1.024,7.586,4.344,9.867
		c0.61,0.419,0.904,0.999,1.202,1.616c4.587,9.491,21.968,46.901,29.397,53.747c2.019,1.861,4.899,0.703,5.452-3.163
		c0.308-2.155,0.701-4.317,0.754-6.485c0.315-12.787,0.013-19.466-0.314-26.882c0.111-0.042,0.222-0.084,0.332-0.126
		c4.643,5.818,5.218,8.116,23.391,35.954c3.069,4.702,7.435,9.872,11.789,13.426c2.085,1.702,4.393,2.299,5.378-0.208
		c0.803-2.043-0.24-6.592-0.736-8.639c-4.254-17.543-3.554-13.943-3.782-15.933c4.282,4.57,20.431,25.067,28.76,27.157
		c1.492,0.374,2.785-0.275,3.253-1.73c1-3.108-1.742-9.472-3.108-12.444c-15.662-34.073-13.608-29.493-14.054-30.843
		c6.56-4.543-1.711-9.525-21.181-36.134c-0.155-0.211-0.453-0.424-0.216-0.881c1.087,0.427,29.393,13.486,47.794,16.592
		c0.852,0.144,1.734,0.214,2.595,0.17c2.288-0.116,3.635-3.544,0.564-6.664c-9.614-9.769-18.736-14.86-56.442-40.683
		c-0.545-0.373-1.195-0.66-1.515-1.346c1.313-1.768,2.848-3.325,4.095-5.29c-18.069-5.531-15.717-7.184-29.436-20.873
		c-2.897-2.891-5.461-3.745-7.401-4.714c0.097-0.297,0.156-0.528,0.246-0.746c2.414-5.812-8.972-12.772-10.217-17.383
		c0.236-0.272,0.472-0.544,0.73-0.841c6.918,2.551,11.745,4.553,19.632,2.525c2.743-0.705,5.266-1.896,7.494-3.661
		c0.465-0.368,1.07-0.675,1.107-1.476c-5.977-1.333-9.486-4.152-15.314-6.761c-4.783-2.141-7.756-1.726-10.117-1.726
		c-0.063-0.223-0.146-0.35-0.121-0.449c0.865-3.349,1.814-4.406,5.042-5.627c3.615-1.367,11.802-3.329,16.625-2.68
		c0.306,0.454,0.545,0.896,0.865,1.268c1.047,1.219,2.955,1.411,4.222,0.454c1.311-0.99,1.626-2.781,0.732-4.17
		c-0.873-1.357-2.681-1.815-4.113-1.013c-0.428,0.24-0.81,0.564-1.053,0.736c-9.015,0.214-7.725,0.254-8.129-0.029
		c4.349-5.222,9.428-12.347,15.071-13.877c1.191-0.323,2.386-0.711,3.691-0.478c0.118,0.572,0.188,1.127,0.349,1.655
		c0.464,1.518,1.824,2.455,3.393,2.383c3.431-0.159,4.307-5.081,1.308-6.551c-0.698-0.342-1.449-0.431-2.185-0.238
		c-0.803,0.21-1.585,0.174-2.396,0.099c-7.715-0.712-11.199,4.554-12.316,4.174c1.947-4.551,8.034-11.39,11.733-13.196
		c0.443,0.219,0.87,0.493,1.336,0.647c1.291,0.428,2.702-0.004,3.546-1.032c1.785-2.174,0.18-5.385-2.644-5.292
		c-1.314,0.043-2.331,0.665-2.789,1.847c-0.821,2.118-2.014,1.353-6.928,6.056c-5.167,4.945-6.844,9.045-8.022,9.767
		c-0.041-2.579-0.521-4.915-1.509-7.106c0.201-0.446,0.421-0.828,0.548-1.238c0.766-2.493-1.311-4.655-3.577-4.382
		c-3.159,0.382-4.027,4.783-1.163,6.258c0.541,0.279,1.15,0.427,1.79,0.657c2.834,7.355-2,16.206-8.375,20.845
		c-0.168,0.122-0.419,0.13-0.851,0.253c0.929-3.179,2.184-6.104,1.988-12.981c-0.142-4.995-0.02-13.637-0.075-15.317
		c-0.047-1.416-0.764-2.349-2.104-2.751c-0.891-0.267-1.802-0.516-2.721-0.634c-10.222-1.31-13.833-7.998-22.233-9.206
		c-0.229-0.033-0.444-0.165-0.867-0.329c3.477-1.822,6.455-3.043,10.027-6.914c1.423-1.542,2.327-3.369,2.609-5.478
		c0.056-0.418,0.208-0.823,0.317-1.242c1.504-0.249,9.369-1.295,13.731-1.965c11.346-1.743,16.131-8.359,15.776-13.81
		c-0.027-0.41,0.041-0.825,0.067-1.264c3.692-0.837,25.382-1.449,22.044-13.172c-0.112-0.392-0.419-0.765-0.19-1.309
		c6.138-1.383,15.088-1.491,24.81-8.278c0.923-0.644,1.646-1.511,2.261-2.463c1.228-1.903,1.445-3.938,0.818-6.084
		c-0.599-2.051-1.712-3.56-2.917-5.367c0.894-0.85,1.13,0.115,12.9-2.05c8.836-1.625,21.076-6.759,25.604-13.984
		c2.195-3.504,0.974-6.046-0.104-8.576c5.513-1.344,10.09-2.336,15.868-5.102c4.139-1.981,7.96-4.259,10.684-7.919
		c1.154-1.55,1.277-3.335,0.764-5.167c-0.741-2.646-2.136-3.96-5.466-7.306c3.518-1.402,7.965-2.51,13.242-6.556
		c1.645-1.261,3.073-2.73,4.041-4.592C477.662,79.581,476.877,77.036,473.941,75.462z M132.67,120.41
		c-1.412-4.516-2.981-8.926-4.527-16.349c-1.815-8.715,3.713-13.169-0.727-17.244c-2.256-2.07-4.117-2.886-7.654-4.747
		c-0.201-0.557,0.155-0.794,0.373-1.065c5.513-6.848,14.585-9.33,23.356-9.937c15.455-1.069,29.702,2.16,41.895,11.418
		c7.783,5.909,14.198,13.034,19.13,21.474c6.849,11.722,12.044,25.804,12.212,27.021c-0.06,0.144-0.115,0.324-0.206,0.483
		c-9.12,15.917-5.395,37.528-14.095,50.883c-5.181,7.952-4.005,6.292-4.722,7.094c-0.418-0.369-0.18-0.75-0.213-1.089
		c-0.054-0.551,0.119-3.413-0.442-5.568c-1.024-3.934-3.17-5.583-7.301-10.02c-0.636,0.717-0.764,1.523-0.952,2.277
		c-1.417,5.658,0.076,9.824,1.644,14.601c1.59,4.843,1.561,5.754,1.554,9.883c0,0.219-0.133,0.437-0.267,0.847
		c-2.8-3.867-4.522-8.143-5.979-11.129c-0.751-1.538-3.222-1.875-4.378-0.243c-1.318,1.862-1.892,3.836-2.73,6.229
		c-3.854-1.831-5.446-3.154-7.658-3.415c-2.255-0.265-3.544,0.687-4.245,2.522c-1.703,4.462-1.926,6.83-2.328,9.693
		c-0.279-0.127-9.619-4.969-13.142-5.263c-2.051-0.171-3.937,0.522-3.978,2.584c-0.011,0.558-0.016,1.13,0.086,1.675
		c1.963,10.491,1.752,8.755,2.963,12.955c-0.116,0.04-0.29,0.169-0.422,0.135c-2.22-0.58-4.417-1.238-6.605-2.027
		c-0.815-5.612-1.011-11.204-1.073-16.802c-0.041-3.648-0.209-7.296-0.245-11.01c5.637,1.863,5.402,1.398,9.459,0.24
		c0.343,0.362,0.716,0.765,1.098,1.159c9.204,9.497,18.507,6.372,19.104-5.508c0.055-1.086-0.7-1.645-1.441-1.464
		c-2.701,0.659-1.732,2.969-3.246,7.043c-0.809,2.177-3.475,1.505-5.566,0.476c-2.48-1.221-4.629-2.895-6.57-4.812
		c2.563-6.115,1.71-3.579,3.264-9.737c0.365-0.04,0.665-0.091,0.967-0.102c2.276-0.086,3.842-1.29,4.941-3.181
		c1.403-2.413,1.268-4.475,1.67-8.719c0.045-0.471-0.113-0.981,0.254-1.533c2.982,1.644,5.965,3.402,9.744,3.29
		c2.514-0.075,4.379-1.246,5.64-3.396c1.858-3.168,1.148-7.734,0.19-11.289c-0.286-1.059-1.182-1.406-2.207-0.966
		c-3.398,1.46,0.204,6.066-0.996,10.485c-0.241,0.89-0.554,1.122-1.468,1.088c-3.029-0.112-8.796-3.084-9.677-4.406
		c0.036-0.603,1.772-2.015,0.96-6.856c-0.569-3.391-1.753-6.607-2.98-9.805c-0.544-1.419-1.73-1.301-2.57-0.793
		c-1.024,0.62-1.392,1.539-1.042,2.724c0.126,0.428,3.805,10.068,2.616,12.197c-2.91-0.616-7.55-4.172-10.697-8.16
		c0.22-1.005,0.591-2.018,0.633-3.043c0.162-3.942-0.209-8.229-2.716-14.752c-0.111-0.289-0.215-0.605-0.411-0.83
		c-1.201-1.377-3.498,0.13-3.285,1.778c0.19,1.465,2.52,5.553,2.52,13.688c0,0.287-0.12,0.573-0.213,0.982
		c-4.055-1.608-7.983-4.702-10.761-8.52C136.297,129.546,134.149,125.14,132.67,120.41z M311.528,241.811
		c-0.618-2.26-1.914-3.363-1.843-4.989c0.059-1.357-0.038-2.721-0.071-4.082c0.11,0,0.253-0.043,0.349,0.006
		c6.263,3.226,7.312,8.215,6.861,15.398c-0.477,7.603-0.657,10.089-0.782,10.798c-0.225,1.283-0.846,2.354-1.945,3.067
		c-7.583,4.92-7.697,2.389-18.499,11.082c-2.787,2.243-5.882,2.516-9.15,1.365c-1.163-0.41-2.328-0.921-3.353-1.597
		c-5.851-3.86-10.892-9.627-12.191-12.181c0.264,0.015,0.405-0.021,0.461,0.032c3.519,3.336,7.811,5.263,12.332,6.766
		c5.259,1.749,11.214,1.289,15.107-2.808c3.348-3.523,5.083-7.65,11.005-14.118C312.147,247.998,312.394,244.979,311.528,241.811z
		 M270.18,302.072c-3.405,3.053-4.751,6.939-14.514,11.526c-0.219,0.103-0.456,0.17-1.006,0.372
		c0.924-3.814,0.518-7.445,0.946-11.019c0.343-2.863,1.403-5.261,2.182-6.272c0.071-0.093,0.193-0.147,0.377-0.281
		c3.771,1.229,6.916,2.487,12.293,0.942c0.952-0.273,1.767-0.249,2.67,0.221c1.698,0.885,3.462,1.645,5.21,2.461
		c-0.05,0.808-0.475,1.438-0.821,2.086c-3.263,6.121-9.377,10.964-15.66,13.846c-1.337,0.613-1.804,0.985-2.527-0.015
		c3.432-2.887,7.652-4.814,10.324-11.362C269.953,303.847,270.313,303.103,270.18,302.072z M246.663,311.126
		c-0.943-0.122-1.524-0.631-1.824-1.313c-3.502-7.97-6.976-14.376-4.141-22.803c0.073-0.217,0.197-0.417,0.367-0.768
		c0.402,0.394,0.722,0.66,0.985,0.973c4.233,5.032,8.036,4.797,12.273,7.295c0,0.204,0.045,0.345-0.006,0.424
		c-4.388,6.771-1.728,14.444-3.297,17.44c-0.883-1.082-1.055-2.399-1.502-3.582c-1.96-5.176-2.042-9.105-2.26-11.696
		c-0.288,0.441-0.454,0.612-0.524,0.816C244.56,304.263,246.501,308.027,246.663,311.126z M238.874,313.977
		c-0.357,0-0.593,0.037-0.814-0.005c-5.622-1.07-10.918-2.962-15.595-6.338c-1.307-0.943-2.508-2.034-3.739-3.079
		c-0.332-0.281-0.574-0.636-0.556-1.128c0.167-4.588,0.153-3.352-0.511-7.33c2.418,0.216,10.042,1.98,11.002,2.023
		c1.825,0.082,3.133-1.16,3.029-2.979c-0.1-1.731-0.649-3.361-2.376-9.508c0.856-0.406-0.624-0.158,7-1.29
		c0.17-0.025,0.347-0.003,0.604-0.003c0.194,0.733-0.21,1.344-0.406,1.957c-2.692,8.42,0.266,14.21,3.935,21.826
		C239.36,309.849,238.746,311.769,238.874,313.977z M165.707,255.907c0.121-1.077,0.522-2.044,1.338-2.798
		c0.639-0.59,1.306-1.14,2.25-1.483c0.404,0.851,0.401,0.771,0.31,0.942c-1.191,2.241-0.882,4.435,0.216,6.595
		C169.231,260.619,165.352,259.063,165.707,255.907z M169.79,262.423c-0.097,1.218-0.183,2.297-0.275,3.447
		c-1.893,0.319-4.014-1.346-3.557-3.683C168.523,262.498,167.534,262.423,169.79,262.423z M144.1,161.297
		c2.195,4.759,5.634,8.167,9.837,10.903c0.041,0.174,0.133,0.358,0.117,0.531c-0.311,3.208-1.047,6.644-2.848,9.336
		c-1.261,1.885-3.175,1.95-5.325,1.198c-1.535-0.537-2.925-1.337-4.173-2.378c-0.461-7.023-0.919-14.014-1.385-21.118
		C141.671,160.081,142.734,160.999,144.1,161.297z M140.009,154.056c-0.423-0.35-0.522-0.797-0.595-1.308
		c-2.34-16.282-2.563-14.092-2.07-14.941c4.494,4.788,5.837,5.789,11.128,8.258c0.065,0.227,0.171,0.458,0.192,0.697
		c0.225,2.614,0.746,9.084-0.909,11.123c-0.764,0.123-1.411-0.083-2.053-0.321C143.572,156.771,141.744,155.492,140.009,154.056z
		 M149.136,161.104c0.303-0.651,2.849-1.58,3.401-7.028c0.075-0.742,0.089-1.49,0.158-2.232c0.021-0.223,0.134-0.438,0.229-0.728
		c3.299,2.572,5.155,4.349,8.458,5.343c0.996,2.826,0.575,10.308-0.709,13.107c-0.642,0.366-1.316,0.233-1.951-0.028
		c-0.801-0.33-1.617-0.661-2.346-1.121c-2.825-1.781-5.106-4.142-7.061-6.83C149.212,161.445,149.187,161.248,149.136,161.104z
		 M141.805,217.113c14.579,4.728,23.678,7.129,27.578,16.224c-0.326,0.118-0.536,0.221-0.758,0.27
		c-2.686,0.595-4.649,2.007-5.45,4.761c-0.049,0.169-0.175,0.315-0.324,0.573c-9.319-2.053-18.132-13.197-22.095-22.093
		C141.351,216.998,141.583,217.041,141.805,217.113z M165.872,244.283c0.923-0.506,1.336-0.562,2.693-0.376
		c-0.359,0.854-0.843,1.67-1.03,2.55c-0.176,0.825-0.038,1.716-0.038,2.644c-0.883,0.571-1.606,1.039-2.314,1.496
		C162.875,248.437,163.419,245.627,165.872,244.283z M169.074,240.321c-0.648,0.448-1.396,0.31-2.205,0.378
		c-0.755-1.246-0.514-2.413,0.249-3.469c0.765-1.059,1.794-1.661,3.258-1.28C169.187,238.62,169.527,237.473,169.074,240.321z
		 M160.451,219.877c-3.841-1.867-4.976-1.13-6.608-4.052c-1.53-2.737-1.688-4.805-3.094-12.984c-0.04-0.235-0.005-0.482-0.005-1.027
		c12.101,4.678,17.887,7.05,23.731,26.647c-0.868,0.726-1.711,1.43-2.527,2.113c-0.021-0.041-0.177-0.308-0.302-0.589
		C169.151,224.413,165.264,222.217,160.451,219.877z M181.744,226.637c0.244,0.344,0.472,0.7,0.789,1.173
		c-1.689-0.184-3.201-0.348-4.813-0.524c-2.099-7.117-4.105-15.359-10.033-20.619c-0.182-0.161-0.328-0.362-0.535-0.594
		c0.149-3.83,1.209-7.417,2.915-10.96c1.244,0.224,6.491,3.496,7.61,4.174c-0.245,1.944-0.495,3.664-0.672,5.391
		C176.037,214.12,178.309,221.8,181.744,226.637z M194.671,233.678c-1.357,0.247-2.572,0.467-3.899,0.709
		c-0.4-1.293-0.809-2.616-1.247-4.032c1.183-0.7,2.465-0.975,3.765-0.159C194.516,230.964,194.987,232.103,194.671,233.678z
		 M194.909,242.11c-1.007,0.163-1.92,0.312-2.892,0.469c-0.755-0.558-1.208-1.306-1.341-2.292c-0.098-0.728-0.316-1.44-0.485-2.175
		c0.891-0.839,1.958-1.186,3.064-1.308C195.505,236.555,196.881,238.525,194.909,242.11z M193.546,226.037
		c-0.069,0.23-0.226,0.435-0.356,0.678c-3.466,0.465-2.054,0.104-5.316,1.334c-0.273-0.191-0.654-0.394-0.955-0.679
		c-8.141-7.721-7.783-23.081-3.558-34.408c0.234,0.146,0.449,0.2,0.503,0.325c3.149,7.346,8.956,14.918,10.32,22.244
		C194.843,219.08,194.585,222.586,193.546,226.037z M175.686,237.889c1.568,0.735,2.681,1.904,3.268,3.647
		c-0.856,0.487-1.646,0.937-2.341,1.333c-1.306-0.256-2.51-0.491-3.826-0.749c-0.301-1.193-0.112-2.362,0.558-3.461
		C173.952,237.662,174.649,237.403,175.686,237.889z M174.232,233.953c0.184-1.379,1.028-2.252,2.094-2.909
		c1.303-0.803,2.698-0.762,4.239-0.209c-1.051,2.675-0.692,1.58-1.306,4.158C176.24,234.103,177.553,234.375,174.232,233.953z
		 M179.124,245.314c0.864-1.151,2.658-0.187,3.839,0.64c0,5.029,0.24,3.948,0.241,5.591
		C179.125,251.279,177.235,247.832,179.124,245.314z M182.146,241.459c-0.257-0.667,0.086-1.149,0.409-1.571
		c0.37-0.483,0.795-0.97,1.299-1.295c1.194-0.771,2.577,0.719,2.83,2.136c-0.709,0.536-1.387,1.049-2.114,1.599
		C183.754,242.036,182.949,241.748,182.146,241.459z M185.579,231.723c1.166,0.829,1.53,2.418,1.199,3.737
		c-1.558,0.015-3.119-0.129-4.591,0.688C181.371,234.168,183.676,230.37,185.579,231.723z M186.344,246.053
		c0.363-1.393,0.534-1.684,1.477-2.467c1.49,1.466-0.21,4.467-1.537,6.083C185.927,248.708,185.959,247.531,186.344,246.053z
		 M170.908,246.269c0.681-1.567,2.185-0.933,3.59-0.277c0.254,0.865-0.008,1.721,0.05,2.682c-1.027,0.503-1.906,0.934-2.828,1.385
		C170.641,248.916,170.29,247.69,170.908,246.269z M174.239,252.569c0.502-0.356,1.024-0.714,1.667-0.683
		c1.204,0.794,2.387,1.574,3.762,2.482c-1.8,1.219-3.247,2.562-3.779,4.471c-0.624,0.37-1.099,0.234-1.556,0.021
		C172.299,257.911,171.819,254.283,174.239,252.569z M173.881,261.71c0.538,0,1.076,0,1.711,0c0.507,1.686,1.647,2.811,3.482,3.379
		C175.96,269.481,171.337,266.499,173.881,261.71z M179.686,268.89c0.502,1.441,1.003,2.881,1.504,4.322
		c-1.085,0.552-1.835,0.602-2.938,0.084c-1.255-0.589-2.307-1.389-2.616-2.907C177.012,269.88,178.329,269.392,179.686,268.89z
		 M179.335,260.779c-0.255-2.878,2.194-4.294,4.981-5.025c0.053,0.269,0.134,0.448,0.114,0.614
		c-0.277,2.223-1.441,4.242-2.898,5.413C180.395,262.696,179.439,261.948,179.335,260.779z M183.64,266.219
		c3.464,3.279,5.044,3.234,7.645,3.027c0.359,1.246-0.069,2.292-0.892,3.182C188.139,274.864,182.835,272.22,183.64,266.219z
		 M187.209,264.84c-0.765-0.734-1.279-1.656-1.64-2.775c0.631-0.992,1.192-1.873,1.752-2.753c0.925,0.577,1.741,1.261,2.681,1.625
		c0.957,0.37,2.036,0.425,3.183,0.64c0.931,1.219-0.093,3.823-1.574,4.688C190.05,267.176,188.527,266.106,187.209,264.84z
		 M191.601,258.222c-1.621-0.86-1.926-2.169-2.919-4.483c1.204-0.727,2.309-0.803,3.421-0.653c1.872,0.254,3.045,2.307,2.361,4.047
		C193.975,258.377,192.78,258.847,191.601,258.222z M190.453,249.991c0.7-1.576,1.373-3.088,2.129-4.791
		c1.158-0.924,5.171,1.01,2.321,4.791C193.428,249.991,191.957,249.991,190.453,249.991z M195.767,269.597
		c3.696-0.475,3.091-0.172,7.111-2.139c0.107,4.155-3.68,6.324-7.744,4.319C195.346,271.046,195.564,270.294,195.767,269.597z
		 M196.428,260.139c1.155-1.186,0.694-0.699,1.966-2.126c1.887,1.3,2.868,2.898,2.779,5.086c-0.069,1.713-1.617,2.729-3.316,2.966
		c-0.54,0.076-1.119,0.143-1.633-0.385c0.231-0.84,0.628-1.71,0.669-2.597C196.936,262.186,196.624,261.273,196.428,260.139z
		 M199.605,236.036c4.483-1.163,5.801,4.497,3.649,6.591c-2.641-0.598-1.675-0.401-3.882-0.746c0.218-1.027,0.548-1.964,0.583-2.912
		C199.99,238.001,199.734,237.023,199.605,236.036z M199.63,244.874c1.952,0.443,3.014,1.683,3.561,3.342
		c0.811,2.46-1.744,4.707-4.184,5.604c-0.67-0.412-0.739-1.211-1.093-1.657C200.666,246.741,199.961,248.704,199.63,244.874z
		 M202.511,255.767c0.999-0.703,1.947-1.371,2.946-2.074c1.45,1.442,1.762,4.46,0.093,6.417
		C203.9,257.173,204.7,258.311,202.511,255.767z M207.572,247.989c-0.333-0.92-0.674-1.837-1.078-2.938
		c0.439-0.704,0.886-1.42,1.336-2.142c3.094,2.308,2.243,6.835,0.138,8.231c-0.11,0.073-0.32-0.007-0.584-0.021
		C207.403,250.039,207.947,249.026,207.572,247.989z M209.594,260.649c0.059,0.01,0.137-0.001,0.179,0.033
		c5.813,4.72,13.899,5.977,23.564,11.515c2.962,1.697,5.263,4.136,7.433,6.889c-0.26,0.213-0.45,0.45-0.697,0.559
		c-4.11,1.824-7.152,2.227-11.215,2.524c-1.205,0.088-1.399-0.724-1.754-1.372c-3.384-6.172-8.557-10.079-15.27-12.011
		c-1.542-0.444-2.233-0.467-4.628-1.14c-0.222-1.42-0.43-2.757-0.644-4.13C207.541,262.59,208.567,261.62,209.594,260.649z
		 M233.89,232.922c9.854-1.352,9.24-1.28,9.848-0.913c-0.422,3.319-1.724,6.18-4.216,8.479c-1.458,1.345-2.315,0.35-6.625-0.122
		c-7.948-0.87-14.028,1.752-19.475,3.691c-0.507-0.559-0.741-1.254-1.066-1.845c0.07-0.127,0.086-0.2,0.13-0.228
		c3.563-2.274,7.079-4.621,10.973-6.33C226.798,234.188,230.304,233.414,233.89,232.922z M224.498,231.343
		c0.041-0.604-0.543,0.609,4.197-8.092c3.092-0.348,6.099-0.711,9.265-0.507c-0.026,0.475,0,0.832-0.071,1.168
		c-0.326,1.538-1.036,2.912-1.805,4.27c-0.478,0.844-1.14,1.191-2.084,1.326c-2.333,0.334-4.656,0.753-6.975,1.179
		C226.186,230.841,225.367,231.113,224.498,231.343z M213.859,247.533c7.359-3.015,13.509-5.233,21.184-3.52
		c4.448,0.993,9.574,2.853,13.21,5.612c-0.33,0.289-0.56,0.567-0.853,0.736c-12.217,7.022-14.681,8.741-19.531,9.923
		c-6.955,1.694-12.973-1.401-17.457-6.692C213.062,250.112,212.139,251.714,213.859,247.533z M240.122,258.397
		c0.173-0.458-0.785,0.152,6.361-4.105c0.141-0.084,0.342-0.067,0.51-0.095c0.607,1.754,0.678,4.721,0.175,6.739
		C246.69,260.998,247.808,261.368,240.122,258.397z M245.709,264.608c-0.332,2.167-3.726,5.59-5.724,7.024
		c-1.154-0.775-2.205-1.534-3.309-2.208c-5.114-3.12-8.882-4.211-11.034-5.317c2.872-0.694,5.144-1.168,8.204-2.693
		c2.881-1.436,6.131,0.495,11.05,2.681C245.166,264.216,245.403,264.413,245.709,264.608z M252.416,289.479
		c-4.117-1.25-6.849-4.112-9.405-7.489c0.607-0.508,1.056-0.839,1.453-1.224c2.601-2.522-0.178-3.972-2.012-6.78
		c4.022-3.628,3.891-3.597,6.541-6.719c3.004,3.489,6.49,6.297,9.768,9.455c-0.086,0.38-0.156,0.803-0.278,1.209
		c-1.383,4.611-0.851,8.689,2.514,12.102c1.724,1.749,3.727,2.906,5.843,4.227c-0.099,0.525-0.457,0.404-0.733,0.393
		c-3.165-0.121-5.461-1.609-8.215-2.838C256.078,291.005,254.304,290.052,252.416,289.479z M251.908,247.801
		c0.622-1.072,1.255-2.068,1.796-3.112c5.587-10.791,0.984-16.992,14.125-19.342c0.042,0.366,0.116,0.65,0.099,0.928
		c-0.32,5.254,1.122,4.637-0.094,6.349c-3.42,4.816-2.071,9.201-1.067,13.106c-0.217,0.38-0.454,0.814-0.707,1.238
		c-3.46,5.787-1.651,11.499,2.314,16.988c2.973,4.115,6.503,7.699,10.507,10.812c1.021,0.793,2.134,1.468,3.328,2.281
		c-4.3,4.08-11.318,3.042-16.219-0.514c-5.185-3.762-8.036-6.584-11.111-9.397c-6.283-5.748-1.244-6.51-3.749-14.484
		c-0.074-0.236-0.116-0.483-0.214-0.9C252.207,250.628,252.921,249.396,251.908,247.801z M274.665,240.729
		c1.668,5.838,6.333,10.555,12.949,10.868c0.325,0.015,0.15-0.002,1.631-0.002c0.202,0.435-0.062,0.652-0.275,0.856
		c-1.909,1.827-3.498,3.627-6.664,2.57c-0.118-0.039-0.245-0.057-0.356-0.111c-5.72-2.787-10.134-6.729-11.591-13.239
		c-1.549-6.922,1.863-11.461,6.78-12.183c0.094-0.014,0.204,0.087,0.386,0.171c-0.399,0.557-0.81,1.092-1.179,1.653
		C274.445,234.21,273.702,237.359,274.665,240.729z M287.455,239.962c-0.406-2.424,1.76-3.472,3.079-2.276
		c2.211,2.005,2.828,4.793,2.379,6.297C292.05,246.879,288.264,244.79,287.455,239.962z M290.786,248.032
		c-1.518,0.877-2.98,0.467-4.408,0.047c-2.189-0.643-3.658-1.721-4.908-3.454c0.384-1.934,1.483-4.01,2.901-5.379
		c0.096,0.467,0.193,0.855,0.253,1.249c0.479,3.111,2.311,6.441,5.391,7.158c0.181,0.042,0.357,0.104,0.532,0.168
		C290.598,247.839,290.635,247.896,290.786,248.032z M287.394,233.836c-2.974,0.708-5.265,2.43-6.719,5.185
		c-0.213,0.403-0.275,0.957-0.95,1.165c-0.943-3.754-0.851-8.003,2.325-10.182c1.926-1.321,4.022-1.861,6.359-1.447
		c5.987,1.062,8.569,5.527,7.738,8.121c-0.032,0.101-0.169,0.168-0.315,0.303c-0.187-0.214-0.397-0.432-0.583-0.668
		C293.194,233.699,290.449,233.109,287.394,233.836z M300.024,257.005c0.416-0.324,0.863-0.608,1.303-0.915
		c0.093,0.168,0.154,0.239,0.141,0.259c-1.383,1.991-2.709,4.028-4.178,5.954c-2.775,3.64-7.157,3.436-11.471,2.015
		c-6.405-2.11-12.921-5.076-14.848-11.533c0.531-0.205,0.724,0.197,0.961,0.401c3.289,2.839,7.886,5.488,12.135,4.745
		c0.812-0.142,1.438,0.09,2.076,0.548C289.793,261.095,294.421,261.364,300.024,257.005z M270.493,259.88l-0.078,0.125l-0.05-0.15
		L270.493,259.88z M277.706,320.697c2.573-0.865,8.777-3.075,10.424-5.259c-2.017,0.387-3.674,1.099-5.415,1.466
		c-10.201,2.147-12.005,1.528-16.209,1.663c0.076-0.609,0.433-0.658,0.68-0.776c4.797-2.294,7.797-5.154,12.096-8.654
		c2.434-1.981,4.737,0.626,9.887-1.783c0.668-0.313,1.396-0.498,2.125-0.751c0.196,0.236,0.436,0.399,0.492,0.611
		c1.577,5.997,2.107,11.992-2.667,15.902c-2.393,1.96-5.179,2.976-8.222,3.153c-5.534,0.32-10.897-0.598-16.085-2.543
		c-0.163-0.061-0.303-0.183-0.594-0.364C265.84,322.453,267.296,324.196,277.706,320.697z M279.712,295.969
		c-4.346-1.867-8.53-4.053-12.525-6.589c-3.634-2.306-5.749-5.369-4.99-9.582c0.008-0.042,0.095-0.07,0.209-0.147
		c0.561-0.056,0.944,0.414,1.4,0.687c7.014,4.2,14.834,4.232,20.961-1.071c0.326-0.282,0.643-0.575,1.029-0.922
		c0.832,0.099,1.514,0.155,2.188,0.264c5.178,0.839,9.12-2.525,13.064-5.52c1.563,2.311,2.943,4.533,6.384,5.468
		c2.996,0.814,4.253-0.114,8.441-1.273c0.381,0.331,0.172,0.618,0.084,0.897c-2.105,6.697-4.39,17.321-13.945,17.198
		c-4.316-0.056-6.075-1.52-8.839-1.042c-3.887,0.673-4.792,3.527-8.624,2.974C282.872,297.072,281.255,296.632,279.712,295.969z
		 M304.978,249.236c-5.828,4.05-7.716,5.994-10.566,7.318c-1.536,0.714-3.782,0.67-5.243-0.684c0.166-0.557-0.532,0.353,3.753-4.09
		c4.342-4.503,10.105-5.617,13.829-9.072c0.082-0.076,0.226-0.085,0.411-0.149c0.093,0.213,0.248,0.424,0.274,0.65
		C307.717,245.661,307.152,247.725,304.978,249.236z M297.86,245.244c0.201-1.813-0.334,0.609,1.996-6.941
		c0.837-2.711,1.332-4.804-0.269-7.149c-2.927-4.285-8.434-6.799-14.597-5.74c-1.192,0.205-3.737,1.371-4.772,1.467
		c-2.867,0.266-5.656,0.804-8.266,2.082c-0.101,0.05-0.235,0.033-0.354,0.047c-0.956-2.902,0.171-7.548,4.026-10.371
		c2.463-1.804,5.205-2.876,8.289-2.99c6.668-0.247,12.122,2.124,16.278,7.421c3.246,4.137,5.505,9.029,5.948,14.236
		C306.371,240.043,302.013,243.139,297.86,245.244z M297.009,215.113c-1.861-0.539-3.766-1.784-8.753-2.251
		c-7.879-0.737-15.984,2.6-19.331,9.521c-7.458,1.769-13.922,2.816-15.952,10.863c-1.108,4.391-1.528,7.503-3.924,11.895
		c-0.511,0.221,0.298,0.46-6.28-2.553c0.322-0.961,4.979-4.02,5.504-10.887c0.178-2.319-1.255-1.696-0.631-3.711
		c0.336-1.085,0.859-2.064,1.53-2.973c3.184-4.312,5.267-3.13,11.692-11.968c2.275-3.13,2.914-4.571,5.7-7.608
		c0.671-0.732,1.5-0.926,2.54-0.763c17.125,2.687,23.778,0.32,30.582,2.834c2.061,0.762,3.949,2.025,5.196,3.935
		C301.979,212.273,299.288,213.341,297.009,215.113z M269.044,202.119c-6.775-0.689-9.292,8.272-16.026,15.348
		c1.676-5.408,3.26-10.682,3.563-16.274c3.33-1.636,8.242-2.959,12.996-3.181c0.552-0.026,0.958,0.224,1.23,0.688
		c0.627,1.07,1.082,2.207,1.447,3.557C271.05,202.36,271.977,202.417,269.044,202.119z M256.357,193.79
		c3.483-1.423,6.971-2.677,10.474-3.95c1.196,1.195,1.896,2.56,2.509,3.975c-1.229,2.988-4.078,0.924-11.916,4.319
		c-0.162,0.07-0.354,0.07-0.636,0.121C256.304,196.814,256.466,195.337,256.357,193.79z M255.958,189.189
		c-0.101,0.032-0.234-0.039-0.506-0.092c-0.334-1.229-0.687-2.524-1.056-3.882c4.287-2.812,20.2-10.318,28.731-13.873
		c1.105-0.461,2.097-0.528,3.23-0.151c5.652,1.877,6.524,2.778,8.718,4.36c-0.33,0.333-0.529,0.674-0.823,0.806
		c-2.926,1.312-2.37,1.33-16.097,5.234C266.112,185.015,258.764,188.294,255.958,189.189z M252.892,180.887
		c-0.716-1.286-1.402-2.52-2.153-3.869c0.204-0.205,0.42-0.494,0.7-0.691c1.73-1.216,3.432-2.481,5.223-3.602
		c25.723-16.116,29.603-17.127,36.447-20.787c0.889-0.476,1.713-0.493,2.679-0.265c6.636,1.563,9.602,3.381,11.311,4.277
		c-0.925,0.602-2.19,1.708-7.053,3.721C272.722,170.979,280.837,166.898,252.892,180.887z M249.482,171.978
		c-0.359-0.736-0.317-1.254,0.128-1.715c3.602-3.732,7.849-7.435,12.012-10.637c16.819-12.938,23.553-18.218,39.252-26.076
		c2.429-1.216,9.737-4.747,12.246-5.813c2.76,0.722,6.19,2.721,7.858,4.578c-0.315,0.77-0.954,1.288-1.619,1.727
		c-1.347,0.891-2.691,1.809-4.127,2.535c-3.273,1.655-6.571,3.267-9.912,4.779C279.629,152.988,272.35,157.721,249.482,171.978z
		 M273.194,145.155c-38.717,28.85-20.694,20.56-34.905,23.812c21.13-23.424,58.062-45.98,86.115-60.331
		c0.474-0.242,0.951-0.284,1.441-0.092c2.203,0.863,4.369,1.806,6.35,3.12c0.098,0.065,0.153,0.193,0.263,0.338
		c-0.477,0.745-1.269,1.138-1.98,1.598C315.07,123.579,295.939,128.207,273.194,145.155z M246.754,179.178
		c0.644,0.429,0.838,1.038,1.092,1.597c3.255,7.161,4.747,14.652,4.019,22.512c-0.346,3.734-1.899,10.171-4.84,16.579
		c-1.333,2.903-3.167,5.489-4.967,8.1c-0.266,0.386-0.595,0.636-1.101,0.365c-0.169-0.399,0.162-0.668,0.272-0.991
		c0.402-1.173,0.938-2.316,1.195-3.519c0.475-2.227-0.682-3.747-2.964-4.065c-2.685-0.374-6.665,0.441-9.034,0.32
		c0.148-0.379,0.23-0.728,0.407-1.02c1.541-2.546,4.854-7.91,4.951-8.122c0.944-2.065-1.037-3.323-3.331-3.406
		c-1.803-0.066-2.725,0.388-5.073,0.659c0-2.196,0.057-4.026-0.457-6.387c-0.597-2.746-2.895-3.659-5.054-3.163
		c-3.81,0.876-5.785,1.937-8.296,3.13c-0.414-1.536-0.518-2.989-0.601-4.527c5.999-5.865,9.284-6.719,31.821-17.136
		C245.464,179.794,246.13,179.473,246.754,179.178z M213.8,205.446c1.941-1.518,5.746-3.101,8.511-3.54
		c0.587,1.659,0.848,5.43,0.567,7.951c-6.782,3.564-4.076,1.991-10.372,6.039c-0.341-0.11-0.23-0.398-0.172-0.59
		C213.309,212.071,213.896,208.778,213.8,205.446z M232.479,210.079c-1.276,3.196-1.788,1.167-10.128,16.12
		c-3.215,5.764-5.312,9.694-11.433,12.262c-2.213,0.928-1.527,0.709-2.203,0.791c-1.019-3.176-0.609-3.531-4.143-6.003
		c0.135-1.898,2.642-6.469,4.993-9.246C216.358,215.982,228.267,210.079,232.479,210.079z M200.171,230.388
		c-0.196,0.31-0.46,0.578-0.779,0.971c-0.785-1.524-1.666-2.855-3.109-3.697c0.024-0.229-0.004-0.427,0.068-0.576
		c3.094-6.369,2.144-13.197-0.918-19.612c-0.185-0.388-0.33-0.796-0.491-1.19c0.687-1.61,1.72-2.938,2.83-4.194
		c1.465-1.657,8.748-8.614,10.468-9.976c0.094,0.385,0.195,0.61,0.197,0.835c0.033,3.87,0.635,7.69,1,11.531
		C210.487,215.528,205.707,221.641,200.171,230.388z M130.371,188.322c-0.22-0.144-0.376-0.188-0.396-0.267
		c-0.842-3.334-0.653-6.656,0.229-9.942c0.784-2.92,2.778-5.32,5.805-6.188c0.042,3.17,0.421,6.057,0.4,9.053
		C133.455,182.652,131.616,185.253,130.371,188.322z M136.68,216.177c-0.176,0.016-0.467,0.109-0.507,0.045
		c-2.856-4.56-4.151-13.372-4.32-14.007c-0.433-1.63-0.224-3.223,0.201-4.793c0.586-2.164,2.057-3.485,4.186-4.099
		c0.102-0.03,0.235,0.046,0.459,0.096c0.251,3.085,0.41,16.153,0.671,18.375c0.118,1.003,0.203,1.941-0.535,2.811
		c-0.345,0.406-0.477,1.017-0.148,1.579C136.527,216.682,136.522,216.707,136.68,216.177z M128.024,231.21
		c0.963-0.622-1.011,0.023,10.387-3.371c1.193-0.355,2.402-0.621,3.768-0.603c0.2,0.219,0.475,0.464,0.683,0.756
		c3.946,5.53,8.579,9.501,11.443,11.081c-0.06,0.121-0.121,0.241-0.181,0.362c-4.869,0.881-5.705,0.871-11.99,3.154
		c-0.525,0.191-1.069,0.334-1.583,0.548c-1.368,0.569-3.934-0.823-5.107-1.735C132.022,238.743,129.626,235.333,128.024,231.21z
		 M127.791,251.169c-0.501-0.3-1.107-0.521-1.432-1.214c1.066-0.442,2.102-0.555,3.111-0.755
		c14.363-2.841,22.949-9.281,31.324-5.414c0.162,0.075,0.299,0.206,0.482,0.336c-1.423,4.595-1.374,4.008,1.078,8.171
		c-0.477,0.887-1.317,1.516-2.202,2.09c-2.241,1.454-4.748,2.144-7.369,2.408C143.833,257.695,135.501,255.791,127.791,251.169z
		 M126.512,269.232c-0.471-0.262-0.874-0.647-1.389-1.035c2.333-2.918,6.29-5.881,9.625-7.693c1.838-0.999,1.84-1.002,3.868-0.553
		c7.731,1.712,16.992,1.669,23.364-3.085c0.361,0.356,0.224,0.332,1.097,2.867c-0.587,0.145-1.114,0.31-1.653,0.402
		c-8.912,1.533-15.871,6.362-22.355,9.471c-1.586,0.76-3.297,1.14-5.03,1.287C131.376,271.12,128.851,270.532,126.512,269.232z
		 M135.108,281.934c-1.696,0.069-3.185-0.443-4.606-1.238c-0.764-0.427-0.979-1.079-0.803-1.892
		c0.345-1.591,0.937-3.076,1.888-4.397c6.107-0.763,3.635-0.295,9.527-1.971C138.575,275.573,136.689,278.624,135.108,281.934z
		 M138.917,288.044c-0.679,0.214-1.364,0.6-2.237,0.425c0.009-2.036,3.63-10.266,9.864-16.193c4.126-3.924,10.393-6.226,15.948-7.48
		c1.851,3.205,1.403,2.635,5.918,4.48c-0.976,1.108,1.673-1.021-16.924,12.34C147.618,284.396,143.465,286.611,138.917,288.044z
		 M151.166,297.356c-1.93,0.63-3.827,0.894-5.755,0.92c-1,0.013-1.326-0.296-1.452-1.305c-0.329-2.633-0.019-5.208,0.765-7.735
		c0.139-0.447,0.409-0.757,0.83-0.946c7.678-3.439,9.348-5.471,11.263-6.432C154.495,286.964,153.068,292.257,151.166,297.356z
		 M164.854,310.447c-0.564-1.179-0.484-2.257-0.546-3.289c-0.397-6.575,2.958-8.947,7.456-12.925
		c0.119-0.106,0.326-0.112,0.617-0.204c-0.465,4.844-0.705,4.661,0.612,11.828C170.494,307.607,167.985,309.401,164.854,310.447z
		 M154.039,302.16c-0.267,0.111-0.558,0.164-0.82,0.239c-0.288-0.484,0.003-0.799,0.128-1.105
		c9.222-22.524,8.52-21.997,18.899-29.157c0.611,0.825,1.084,1.628,1.718,2.274c1.755,1.791,3.238,1.986,4.633,2.469
		c0,0.144,0.042,0.285-0.006,0.383C172.88,289.003,168.041,296.317,154.039,302.16z M180.274,312.86
		c-1.736-3.808-2.887-7.557-3.674-11.636c-1.104-5.721,1.019-12.944,3.88-17.478c0.513,7.13,3.321,12.788,7.439,17.991
		C178.814,314.191,182.66,310.124,180.274,312.86z M200.522,297.904c-1.09,12.683-0.911,10.579-1.243,11.986
		c-1.544-1.586-7.484-9.261-8.401-10.463c-4.788-6.278-7.259-14.804-4.968-22.786c3.908-0.199,2.291,0.106,6.199-1.173
		c2.892,2.341,4.979,5.375,6.34,8.729C200.233,288.595,200.928,293.171,200.522,297.904z M200.099,276.123
		c-0.062-0.166-0.06-0.357-0.106-0.655c2.911-1.478,2.854-0.979,5.806-4.413c0.946-0.22,1.836,0.176,2.73,0.376
		c6.959,1.551,12.594,5.534,15.908,12.139c1.513,3.015,3.588,8.287,3.956,11.344c-0.377,0-0.679,0.055-0.953-0.008
		C213.281,291.673,204.981,289.126,200.099,276.123z M203.077,303.396c0.84-8.652,0.625-5.061,0.808-13.74
		c0.343,0.19,0.564,0.28,0.747,0.419c6.158,4.699,8.079,3.187,8.833,5.718c1.112,3.73,1.064,7.468,0.171,11.219
		c-0.199,0.835-0.477,1.651-0.712,2.452C210.184,309.255,205.432,306.301,203.077,303.396z M218.674,324.433
		c-0.681-0.137-1.067-0.595-1.098-1.32c-0.308-7.354-8.136-6.127-7.717-10.383c0.294-0.316,0.594-0.222,0.88-0.094
		c2.467,1.096,5.01,0.15,5.906-2.992c0.151-0.531,0.362-1.045,0.621-1.781c16.321,12.467,22.616,6.809,23.106,10.862
		c-0.783,0.325-1.628,0.447-2.482,0.49c-8.755,0.442-12.269-0.621-17.088-1.746c0.036,0.477,0.371,0.607,0.641,0.771
		c7.036,4.291,15.361,3.829,16.366,4.075c-0.232,0.174-0.348,0.312-0.494,0.364c-4.668,1.65-9.433,2.806-14.429,2.488
		C221.473,325.077,220.073,324.714,218.674,324.433z M240.15,332.211c-6.433-2.455-10.595,1.866-16.084-0.93
		c-1.138-0.579-1.997-1.414-2.649-2.708c0.35-0.103,0.47-0.176,0.582-0.166c8.625,0.795,15.341-2.237,22.875-5.74
		c0.879,1.821,2.381,2.702,4.36,3.079c-0.185,0.365-0.281,0.652-0.454,0.882c-1.59,2.113-3.606,3.756-5.791,5.211
		C242.102,332.431,241.147,332.591,240.15,332.211z M258.043,346.979c-2.733,0.62-5.424,0.413-8.075-0.465
		c-2.861-0.948-2.829-3.237-7.247-6.291c-1.538-1.063-1.243-2.87-1.243-4.952c0.437-0.123,0.667-0.227,0.903-0.246
		c2.888-0.231,6.541-4.248,8.519-6.329c0.046,0.089,9.03,17.593,9.088,17.707C259.325,346.602,258.694,346.832,258.043,346.979z
		 M278.18,342.757c-0.528,1.153-1.409,1.686-2.58,1.87c-0.798,0.126-1.599,0.258-2.404,0.313c-2.521,0.172-3.049,1.988-4.016,3.22
		c-1.537,1.958-3.499,1.138-5.158-0.719c-2.74-3.067-6.76-11.865-11.057-20.475c-0.129-0.259-0.21-0.543-0.315-0.821
		c1.11-0.55,1.444,0.287,2.213,1.266c4.718,6.008,10.515,9.437,14.444,10.287c0.255-0.479-0.141-0.596-0.334-0.763
		c-2.869-2.489-6.333-5.013-10.384-10.404c-0.443-0.589-0.929-1.162-1.121-1.886c0.389-0.43,0.701-0.124,1.007,0.043
		c13.451,7.359,28.824,3.988,26.751,9.497c-0.38,1.009-1.008,1.859-1.759,2.611C281.222,339.044,279.335,340.235,278.18,342.757z
		 M291.971,348.299c-2.192,4.219-1.485,6.01-0.508,8.513c-0.769,0.452-1.484,0.236-2.161-0.04c-1.241-0.506-2.241-1.351-2.904-2.508
		c-1.238-2.16-2.169-4.454-2.656-6.904c-0.127-0.639-0.268-1.318-0.03-1.963c0.607-0.073,0.827,0.371,1.081,0.682
		c1.686,2.064,3.797,2.361,6.195,1.556c0.398-0.134,0.805-0.243,1.205-0.363C292.461,347.745,292.123,348.006,291.971,348.299z
		 M290.225,343.737c-1.115,0.289-2.064,0.11-2.885-0.774c-0.717-0.772-1.521-1.463-2.435-2.332c1.352-1.473,2.602-2.711,3.464-4.664
		c1.129-2.556,0.429-4.807-1.938-6.283c-0.469-0.292-0.966-0.539-1.546-0.86c0.877-0.834,0.898,0.101,6.201-2.931
		c3.515,2.003,7.254,7.245,10.275,11.129c-1.044,0.978,0.732-0.229-8.064,5.395C292.345,343.027,291.319,343.453,290.225,343.737z
		 M300.189,329.696c2.968,1.025,5.381,2.405,11.565,3.817c8.007,1.828,13.838,0.65,20.541-1.975
		c4.133,4.792,4.832,7.26,10.015,18.815c0.148,0.331,0.242,0.686,0.378,1.081c-0.254,0.081-0.422,0.193-0.573,0.174
		c-9.273-1.175-14.772-1.451-22.969-5.177c-7.834-3.561-13.154-9.309-18.575-16.062C300.457,330.228,300.388,330.05,300.189,329.696
		z M303.05,356.928c-0.267,0.433-0.689,0.539-1.138,0.367c-5.941-2.269-5.563-2.046-7.164-3.416
		c-1.181-1.011-0.859-2.399,0.014-3.699c2.955-4.401,4.821-5.584,9.278-9.91c1.27,1.318,2.383,2.474,3.488,3.621
		C306.201,348.563,304.949,353.845,303.05,356.928z M314.461,364.335c-0.8-0.229-1.457-0.69-2.01-1.302
		c-1.639-1.814-2.268-3.772-2.533-6.098c-0.266-2.327-0.05-7.733,0.43-10.504c0.474,0.302,0.789,0.478,1.077,0.689
		c5.751,4.237,7.29,3.191,8.316,5.411c1.702,3.681,1.779,3.417,2.048,5.169c0.18,1.172-0.586,1.518-1.686,2.176
		C315.927,362.375,316.332,364.869,314.461,364.335z M342.305,408.492c-0.132,0.755-0.803,1.022-1.392,0.546
		c-4.288-3.467-11.694-19.888-13.924-24.77c-3.779-8.268-6.18-13.067-8.751-18.794c1.154-2.478,2.786-2.955,4.066-4.009
		c2.583-2.128,2.143-4.061,1.739-6.217c0.73,0.053,0.988,0.612,1.327,1.008c12.37,14.458,9.883,11.762,14.618,17.701
		c0.517,0.649,0.817,1.337,0.948,2.175C342.305,384.881,343.579,401.175,342.305,408.492z M382.28,424.256
		c-0.382-0.089-0.797-0.067-1.023-0.263c-0.654-0.568-1.307-1.166-1.824-1.855c-3.255-4.342-4.302-5.758-13.975-20.974
		c-19.675-30.949-29.201-39.935-33.822-46.382c8.596,0.837,13.396,2.259,14.534-1.919c0.078-0.286,0.213-0.557,0.361-0.937
		c2.361,1.654,3.938,3.076,9.639,7.518c0.857,0.668,1.47,1.462,1.964,2.433c8.571,16.86,19.313,41.738,23.999,60.241
		C382.298,422.774,382.479,423.436,382.28,424.256z M405.985,421.676c0.345,0.73,0.698,1.459,0.998,2.208
		c0.63,1.573-0.334,2.455-1.239,1.92c-2.775-1.644-12.55-13.331-20.094-21.764c-5.356-5.987-6.598-6.104-7.473-8.456
		c-6.928-18.636-8.979-21.679-10.804-26.357c0.077-0.063,0.153-0.126,0.23-0.188c1.582,1.184,13.442,11.381,15.07,12.795
		c0.876,0.76,1.597,1.743,2.237,2.723C392.304,395.871,400.134,409.298,405.985,421.676z M366.188,328.145
		c0.192,0.096,0.487,0.188,0.714,0.366c13.49,10.5,42.772,28.828,46.186,33.246c0.318,0.411,0.05,1.143-0.459,1.167
		c-0.734,0.035-1.508,0.052-2.206-0.14c-7.948-2.189-31.776-13.086-38.733-16.132c-0.96-0.42-1.654-1.009-2.224-1.874
		c-3.892-5.901-6.376-9.444-8.379-12.651C362.865,330.74,364.478,329.48,366.188,328.145z M347.114,333.512
		c2.967,0.908,5.95,1.269,9.058,0.493c0.478,0.706,0.898,1.313,1.305,1.929c22.156,33.57,28.23,37.178,26.835,38.649
		c-1.722,1.816-9.602-8.262-35.899-28.219c-7.957-6.038-5.802-3.145-8.544-8.905c-1.076-2.26-2.403-4.357-4.089-6.217
		c-0.198-0.219-0.365-0.467-0.569-0.732c0.576-0.52-0.34-0.064,4.066-1.997C341.638,330.659,344.055,332.575,347.114,333.512z
		 M341.082,323.171c-0.234,0.148-0.429,0.306-0.65,0.405c-9.44,4.207-14.998,7.516-24.151,6.345
		c-8.375-1.072-16.598-4.813-21.202-8.412c0-0.213-0.039-0.349,0.006-0.447c1.977-4.317,1.34-7.993,0.606-13.017
		c-0.088-0.604-0.303-1.215-0.58-1.762c-1.222-2.418-3.46-2.774-6.107-2.101c-2.835,0.722-3.837,1.996-7.19,1.05
		c0.399-0.34,0.642-0.602,0.934-0.788c2.105-1.339,4.477-1.826,6.908-2.052c8.933-0.829,13.387,4.93,26.767,11.266
		C331.746,320.913,340.296,322.289,341.082,323.171z M335.043,290.43c-0.319,0.349-0.552,0.637-0.819,0.889
		c-6.275,5.949-6.75,12.324-15.552,14.586c-0.739,0.19-1.311,0.089-1.912-0.352c-6.548-4.802-9.868-5.873-12.206-7.059
		c3.61-1.643,6.534-2.807,9.567-7.559c3.116-4.883,3.266-8.559,5.471-14.372c0.974-0.391,1.924-0.238,2.838-0.355
		c0.917-0.117,1.832-0.258,2.74-0.387c0.154,0.213,0.3,0.343,0.358,0.504C327.803,282.63,333.737,286.027,335.043,290.43z
		 M318.822,218.524c6.556,4.453,10.394,4.604,14.007,5.568c0.578,3.887-0.409-2.652,0.734,15.425
		c0.172,2.726,0.985,6.879-1.495,13.401c-2.596,6.828-4.812,10.469-5.817,17.461c-0.095,0.664-0.303,1.313-0.438,1.877
		c-1.452,0.853-5.314-0.456-12.875,2.5c-2.382,0.931-4.383,0.343-6.188-1.293c-0.874-0.792-1.716-1.618-2.445-2.705
		c8.059-4.464,15.545-5.889,16.136-13.157c0.535-6.579,0.789-10.085,0.644-14.535c-0.212-6.514-5.427-12.093-11.495-13.563
		c-0.668-0.162-1.084-0.419-1.319-1.111c-2.648-7.776-8.23-10.786-8.52-11.901C306.744,211.439,312.239,214.052,318.822,218.524z
		 M315.084,200.304c-4.935,4.083-5.255,3.72-10.894,6.484c-0.265-0.06-0.404-0.058-0.503-0.12
		c-5.991-3.748-12.213-2.699-18.857-3.337c3.532-1.134,28.907-5.211,31.807-5.104C316.223,199.188,315.693,199.801,315.084,200.304z
		 M469.048,80.13c-2.224,3.549-8.29,6.457-12.264,7.759c-17.868,5.853-48.937,4.67-77.878,11.17
		c-10.652,2.392-23.522,8.523-29.1,12.668c-0.086,0.064-0.127,0.187-0.198,0.297c0.547,0.192,0.963-0.173,1.389-0.356
		c27.894-11.964,54.972-10.97,84.092-14.037c17.412-1.833,18.236-3.296,19.296-2.358c1.492,1.322,2.938,2.697,4.095,4.336
		c0.705,1,0.752,1.448-0.066,2.319c-14.364,15.292-52.8,14.164-81.491,17.292c-18.275,1.992-40.605,8.962-43.409,11.153
		c7.688-1.672,12.218-3.605,39.179-6.49c16.529-1.768,36.689-0.696,60.146-3.975c2.754,2.095-2.04,6.076-4.903,7.993
		c-27.847,18.647-64.54,0.654-109.728,21.785c-0.549,0.257-1.342,0.244-1.571,1.016c7.99-1.05,15.786-6.73,76.819-6.73
		c1.108,1.153,2.036,2.53,2.766,4.06c0.436,0.913,0.301,1.708-0.358,2.403c-0.928,0.98-1.707,1.706-4.425,3.043
		c-23.657,11.634-43.831,2.258-82.718,15.125c-0.401,0.133-0.78,0.329-1.117,0.69c11.864-1.8,21.157-3.442,46.991-2.823
		c4.901,0.117,9.504-0.148,14.443-0.148c1.797,1.95-1.99,4.821-5.483,5.632c-2.967,0.689-5.935,1.429-8.942,1.879
		c-14.528,2.174-41.036,4.15-60.512,13.726c-0.38,0.187-0.751,0.394-1.08,0.707c3.899-0.426,13.984-3.9,40.432-6.368
		c0.523-0.049,11.592-1.072,13.599-0.952c0.108,0.82-0.311,1.387-0.673,1.946c-1.104,1.703-2.557,3.045-4.344,4.014
		c-10.973,5.952-37.319,4.542-59.218,15.855c-1.641,0.848-2.038,0.631-6.245,0.228c-0.886-2.513-1.551-5.092-3.749-6.792
		c0.444-2.96-1.166-5.048-2.822-7.101c0.166-0.553,0.629-0.579,1.022-0.695c21.679-6.414,23.111-6.655,25.864-8.37
		c2.31-1.439,2.723-3.654,1.228-5.937c-2.015-3.079-6.923-4.375-8.271-5.097c-0.045-0.024-0.057-0.107-0.119-0.231
		c12.293-5.151,17.328-6.705,20.203-9.418c2.721-2.567,0.842-6.017-2.298-7.651c-3.102-1.614-5.345-2.041-7.756-2.606
		c0.34-0.657,0.949-0.734,1.429-0.955c16.59-7.665,26.038-10.964,22.614-16.958c-1.486-2.602-3.638-3.419-6.772-4.962
		c0.189-0.656,0.76-0.703,1.182-0.893c5.02-2.265,11.635-5.729,15.803-8.784c3.892-2.853,3.124-6.478-0.946-8.357
		c-1.742-0.804-1.933-0.621-4.11-1.656c0.575-0.313,0.928-0.532,1.303-0.705c23.283-10.721,41.495-15.423,61.341-17.971
		c10.412-1.337,14.991-0.478,17.324-0.836c1.3-0.2,0.866-2.076-0.656-2.445c-6.51-1.578-13.297-1.339-20.044-0.542
		c-31.381,3.704-62.297,17.27-89.506,33.574c-21.881,13.111-58.856,36.902-70.784,58.984c-0.899,1.665-0.056,3.187,1.195,2.702
		c3.003-1.164,2.876-2.051,9.553-7.078c1.064-0.802,2.25-1.396,3.58-1.321c1.599,0.09,2.22,2.062,1.291,3.683
		c-1.255,2.191-2.766,4.131-5.173,5.184c-20.166,8.821-19.22,8.843-25.691,14.134c-0.504-0.671-0.357-1.385-0.457-2.046
		c-0.395-2.606-0.224-3.965-1.984-4.707c-0.804-0.339-1.591-0.305-2.286,0.259c-0.394,0.319-2.339,2.222-11.1,10.549
		c-0.11,0.105-0.286,0.139-0.615,0.292c0.845-2.353,3.48-7.077,4.918-9.362c2.188-3.476,4.935-6.397,8.423-8.601
		c6.008-3.797,9.954-9.357,11.685-14.786c0.353-1.107,0.94-1.978,1.76-2.787c22.949-22.655,47.317-39.063,78.206-56.778
		C324.926,92.4,355.801,83.029,377.72,80.4c19.995-2.399,34.161-3.963,81.48-2.931c3.021,0.066,7.561,0.381,10.397,1.431
		C469.388,79.377,469.265,79.783,469.048,80.13z"/>
        <path fill="#1A1A1A" d="M316.622,150.75c0.004-0.017,0.01-0.031,0.015-0.047c-0.016,0.002-0.033,0.004-0.049,0.006L316.622,150.75z
		"/>
        <path fill="#1A1A1A" d="M155.705,100.64c4.529,0.066,8.684-3.892,8.626-8.74c-0.066-5.497-4.661-8.308-8.222-8.142
		c-5.06-0.08-8.586,4.714-8.537,8.632C147.63,96.96,151.162,100.574,155.705,100.64z M160.204,87.58
		c0.997-0.001,1.903,0.901,1.913,1.907c0.01,1.024-0.855,1.877-1.906,1.878c-1.06,0.001-1.91-0.834-1.905-1.872
		C158.311,88.473,159.196,87.581,160.204,87.58z M153.864,89.142c1.635-0.019,3.23,1.203,3.261,3.149
		c0.044,1.872-1.376,3.412-3.185,3.453c-1.754,0.04-3.227-1.37-3.279-3.139C150.607,90.781,152.069,89.163,153.864,89.142z"/>
        <path fill="#1A1A1A" d="M189.516,168.501c8.04,3.416,13.871-0.445,13.875-7.223c-0.126-2.679-1.507-5.728-3.027-8.729
		c-0.513-1.012-2.598-1.243-3.933,0.554c-0.64,0.861-0.493,1.712,0,2.609c1.293,2.352,2.488,5.211,2.438,7.919
		c-0.09,4.878-7.028,0.292-9.633,3.049C188.601,167.351,188.687,168.149,189.516,168.501z"/>
        <path fill="#1A1A1A" d="M168.882,117.433c3.919,1.445,5.358,3.266,7.174,4.963c-0.035-0.539,0.005-0.841-0.081-1.102
		c-3.234-9.765-13.275-5.678-24.659-15.899c-2.215-1.988-3.82-3.821-5.298-4.984c0,0.282-0.027,0.406,0.005,0.513
		C149.327,112.102,160.909,114.492,168.882,117.433z"/>
        <path fill="#1A1A1A" d="M180.967,168.761c-0.017,0-0.035,0-0.052,0c0,1.644,0.244,2.013-0.655,4.547
		c-0.228,0.644-0.739,0.996-1.45,0.926c-5.907-0.588-8.192-4.937-10.057-2.534c-0.426,0.549-0.411,1.197,0.007,1.731
		c0.494,0.631,1.02,1.266,1.643,1.759c1.729,1.371,3.711,2.274,5.879,2.664c6.433,1.159,9.533-5.808,8.403-12.37
		c-0.164-0.95-0.864-1.339-1.799-1.053C180.583,165.136,180.967,167.317,180.967,168.761z"/>
        <path fill="#1A1A1A" d="M159.829,105.725c10.955,3.601,18.617-4.925,10.259-15.428c-0.043-0.054-0.199-0.018-0.397-0.03
		c0.141,0.87,0.429,2.624,0.492,3.493c0.268,3.73-1.184,6.636-4.234,8.783c-1.589,1.119-3.305,1.961-5.155,2.539
		C160.449,105.188,160.042,105.178,159.829,105.725z"/>
        </g>
</svg>
