<?xml version="1.0" encoding="utf-8"?>
<svg version="1.1" id="Layer_1" xmlns="http://www.w3.org/2000/svg"
     xmlns:xlink="http://www.w3.org/1999/xlink"
     x="0px" y="0px" viewBox="0 0 512 512"

     xml:space="preserve">
    <style type="text/css">.st0{fill-rule:evenodd;clip-rule:evenodd;}</style>
    <g>
            <path fill="#1A1A1A" d="M451.735,84.315c-0.083-1.745-0.183-3.492-0.36-5.23c-0.305-2.993-0.662-5.98-1.024-8.967
		c-0.492-4.053-1.282-8.048-2.393-11.977c-0.701-2.481-1.574-4.903-2.859-7.145c-0.575-1.005-1.253-1.963-1.98-2.866
		c-0.707-0.879-1.637-1.504-2.729-1.867c-1.812-0.602-3.378-0.183-4.536,1.338c-0.495,0.65-0.925,1.378-1.237,2.131
		c-0.463,1.117-0.848,2.272-1.172,3.438c-1.367,4.919-2.1,9.964-2.924,14.99c-0.848,5.17-1.673,10.345-2.604,15.501
		c-1.331,7.366-3.311,14.565-5.847,21.609c-5.22,14.499-12.846,27.585-22.983,39.207c-8.387,9.616-18.267,17.21-29.981,22.361
		c-6.324,2.78-12.871,4.876-19.58,6.494c-5.908,1.425-11.895,2.361-17.949,2.848c-4.164,0.335-8.341,0.378-12.516,0.4
		c-0.188,0.001-0.377-0.056-0.568-0.087c-2.099-3.025-5.023-4.82-8.49-5.806c-1.072-0.305-2.143-0.632-3.234-0.852
		c-4.588-0.925-8.984-2.416-13.234-4.365c-1.498-0.687-3.015-1.339-4.551-1.936c-1.716-0.666-3.436-1.35-5.203-1.852
		c-5.82-1.656-11.758-1.896-17.75-1.29c-1.352,0.137-2.7,0.32-4.055,0.404c-2.037,0.127-4.064,0.293-6.049,0.797
		c-1.768,0.449-3.539,0.484-5.341,0.203c-1.244-0.194-2.51-0.248-3.767-0.366c-0.579-0.054-1.164-0.078-1.737-0.173
		c-3.356-0.559-6.738-0.855-10.135-0.988c-2.969-0.116-5.916,0.15-8.856,0.523c-3.091,0.392-6.125,1.034-9.018,2.212
		c-3.009,1.225-5.998,2.499-8.989,3.768c-2.819,1.196-5.705,2.167-8.699,2.84c-2.079,0.468-4.145,1.015-6.185,1.633
		c-3.057,0.926-5.605,2.63-7.496,5.248c-0.084,0.116-0.199,0.21-0.322,0.337c-1.342,0-2.698,0.01-4.055-0.002
		c-5.93-0.051-11.828-0.479-17.691-1.4c-7.883-1.239-15.57-3.228-23.056-5.983c-13.078-4.812-24.374-12.278-33.808-22.58
		c-7.962-8.695-14.498-18.346-19.658-28.921c-5.526-11.323-9.187-23.267-11.379-35.657c-1.158-6.544-2.153-13.118-3.234-19.676
		c-0.576-3.497-1.313-6.959-2.308-10.363c-0.41-1.403-0.936-2.761-1.769-3.973c-1.405-2.043-3.37-2.525-5.595-1.404
		c-1.02,0.514-1.859,1.256-2.505,2.176c-0.667,0.95-1.286,1.943-1.828,2.969c-1.322,2.502-2.171,5.184-2.881,7.915
		c-0.978,3.764-1.597,7.59-2.126,11.44c-0.689,5.007-1.13,10.034-1.326,15.078c-0.25,6.454-0.294,12.912,0.27,19.356
		c0.195,2.224,0.357,4.456,0.685,6.661c0.564,3.79,1.187,7.573,1.89,11.34c1.85,9.914,4.803,19.497,8.936,28.696
		c5.089,11.326,11.798,21.624,19.982,30.96c5.199,5.931,10.859,11.372,17.193,16.094c16.712,12.46,37.753,20.067,52.363,22.527
		c6.052,1.019,12.13,1.51,18.263,1.389c0.677-0.013,1.355-0.002,2.072-0.002c0.404,0.764,0.763,1.561,1.228,2.29
		c0.492,0.772,1.086,1.479,1.646,2.227c-1.093,1.222-2.199,2.441-3.285,3.677c-1.166,1.327-2.521,2.413-4.062,3.272
		c-1.017,0.567-2.051,1.107-3.042,1.716c-1.032,0.634-2.075,1.269-3.02,2.022c-2.027,1.614-3.443,3.671-4.14,6.189
		c-0.416,1.503-0.647,3.032-0.687,4.595c-0.046,1.804,0.141,3.587,0.422,5.363c0.395,2.494,0.691,4.995,0.783,7.524
		c0.132,3.637,0.29,7.274,0.516,10.907c0.163,2.629,0.745,5.185,1.728,7.636c0.885,2.206,1.734,4.43,2.715,6.593
		c2.082,4.59,4.774,8.778,8.467,12.264c1.024,0.966,2.054,1.926,3.086,2.884c1.638,1.522,3.22,3.102,4.584,4.876
		c2.189,2.847,4.341,5.724,6.505,8.591c1.979,2.62,3.438,5.504,4.437,8.632c0.871,2.729,1.93,5.388,3.099,8.003
		c0.654,1.462,1.278,2.936,1.924,4.401c1.592,3.612,2.776,7.349,3.447,11.242c0.552,3.203,1.107,6.406,1.617,9.616
		c0.517,3.258,1.023,6.519,1.313,9.81c0.226,2.562,0.503,5.12,0.811,7.673c0.192,1.588,0.419,3.177,0.746,4.742
		c0.581,2.779,1.71,5.352,3.147,7.794c0.738,1.254,1.474,2.511,2.178,3.785c1.1,1.989,1.635,4.146,1.767,6.402
		c0.194,3.295,0.417,6.59,0.521,9.888c0.122,3.856,0.768,7.618,1.722,11.343c0.806,3.148,1.59,6.302,2.331,9.466
		c0.725,3.099,1.848,6.017,3.567,8.709c1.619,2.536,3.148,5.129,4.776,7.66c1.207,1.877,2.44,3.744,3.781,5.526
		c2.194,2.915,4.948,5.184,8.275,6.732c0.767,0.357,1.55,0.505,2.397,0.476c1.088-0.038,2.115-0.281,3.084-0.757
		c0.696-0.342,1.37-0.729,2.055-1.094c1.37-0.73,2.716-1.507,4.115-2.176c3.196-1.528,2.486-1.253,5.708-1.276
		c1.793-0.013,3.328,0.507,4.72,1.587c0.767,0.595,1.539,1.185,2.339,1.735c2.616,1.8,5.281,1.998,8.022,0.24
		c2.223-1.426,4.253-3.068,5.9-5.143c0.784-0.988,1.554-1.994,2.234-3.054c2.279-3.554,4.492-7.15,6.774-10.702
		c1.728-2.688,2.851-5.608,3.594-8.7c0.77-3.207,1.578-6.404,2.369-9.606c0.698-2.829,1.341-5.673,1.526-8.587
		c0.243-3.827,0.436-7.658,0.594-11.489c0.129-3.118,0.871-6.035,2.52-8.707c0.688-1.115,1.344-2.25,1.984-3.393
		c1.385-2.474,2.436-5.087,2.861-7.897c0.435-2.877,0.745-5.773,1.084-8.663c0.277-2.361,0.473-4.733,0.786-7.089
		c0.39-2.934,0.83-5.861,1.31-8.782c0.456-2.776,0.936-5.551,1.507-8.305c0.741-3.577,2.004-6.989,3.498-10.318
		c1.748-3.896,3.464-7.805,4.767-11.879c0.91-2.846,2.274-5.46,4.059-7.853c1.857-2.49,3.739-4.962,5.593-7.455
		c1.745-2.346,3.721-4.479,5.871-6.455c0.679-0.624,1.35-1.257,2.035-1.875c4.178-3.773,7.234-8.343,9.503-13.46
		c0.825-1.862,1.559-3.765,2.339-5.647c1.298-3.13,1.901-6.415,2.107-9.774c0.16-2.616,0.243-5.238,0.297-7.858
		c0.062-2.967,0.312-5.911,0.821-8.834c0.385-2.21,0.514-4.437,0.369-6.674c-0.292-4.494-2.191-8.094-5.995-10.606
		c-0.566-0.374-1.149-0.725-1.736-1.066c-0.755-0.438-1.512-0.877-2.287-1.278c-2.188-1.131-4.045-2.655-5.603-4.564
		c-0.643-0.788-1.378-1.5-2.065-2.253c-0.182-0.199-0.337-0.423-0.534-0.673c1.317-1.305,2.207-2.797,2.862-4.455
		c0.496,0,0.93-0.009,1.363,0.001c3.302,0.077,6.598,0.006,9.895-0.233c5.388-0.391,10.691-1.275,15.929-2.562
		c10.986-2.698,21.438-6.795,31.401-12.132c6.907-3.7,13.43-7.99,19.367-13.125c11.926-10.315,21.461-22.532,28.851-36.44
		c4.532-8.529,7.766-17.555,10.235-26.871c1.144-4.319,1.947-8.709,2.741-13.102c0.969-5.357,1.523-10.762,1.885-16.187
		C452.171,96.447,452.024,90.38,451.735,84.315z M179.081,219.515c0.156-0.507,0.354-1.003,0.55-1.497
		c0.802-2.023,1.61-4.044,2.419-6.065c0.052-0.131,0.129-0.252,0.216-0.419c0.652-0.203,1.329-0.04,1.995-0.049
		c0.793-0.011,1.253,0.452,1.485,1.155c0.105,0.318,0.113,0.666,0.179,0.998c0.289,1.47,0.568,2.943,0.88,4.409
		c0.232,1.086,0.497,2.164,0.462,3.306c-2.032,1.815-4.481,2.872-6.756,4.182C179.024,223.827,178.478,221.478,179.081,219.515z
		 M164.068,244.981c0.662-1.9,1.791-3.439,3.578-4.418c1.062-0.582,2.138-1.148,3.246-1.632c3.179-1.387,5.842-3.437,8.009-6.129
		c2.259-2.806,5.165-4.815,8.167-6.711c0.07-0.044,0.184-0.017,0.277-0.023c0.057,0.067,0.156,0.129,0.163,0.201
		c0.155,1.543,0.27,3.091,0.455,4.631c0.203,1.693,0.291,3.393,0.131,5.084c-0.248,2.623-0.213,5.239,0.104,7.842
		c0.306,2.515,0.294,5.033,0.329,7.555c0.007,0.483,0.034,0.971,0.105,1.448c0.076,0.51,0.441,0.727,0.954,0.635
		c0.564-0.101,0.974-0.483,1.072-1.04c0.042-0.236,0.03-0.483,0.031-0.725c0.017-3.541,0.028-7.082,0.051-10.623
		c0.01-1.504,0.06-3.007,0.063-4.511c0.003-1.6-0.029-3.199-0.044-4.799c-0.002-0.191,0-0.383,0-0.676
		c0.289,0.088,0.505,0.145,0.715,0.219c0.365,0.129,0.717,0.3,1.089,0.398c1.525,0.402,2.949-0.232,3.659-1.64
		c0.217-0.43,0.34-0.907,0.523-1.355c0.161-0.394,0.224-0.852,0.651-1.1c1.046,0.192,1.586,0.894,1.806,1.856
		c0.128,0.561,0.171,1.148,0.196,1.726c0.038,0.87,0.066,1.744,0.029,2.614c-0.078,1.84-0.197,3.677-0.306,5.516
		c-0.02,0.339-0.092,0.675-0.103,1.013c-0.118,3.441-0.256,6.882-0.332,10.324c-0.047,2.141,0.295,4.26,0.659,6.36
		c0.507,2.931,0.496,5.891,0.674,8.842c0.053,0.88-0.377,1.432-1.019,2.027c-0.161-0.229-0.287-0.368-0.367-0.53
		c-0.192-0.392-0.365-0.792-0.539-1.192c-0.514-1.179-1.359-2.015-2.609-2.351c-0.789-0.212-1.385-0.631-1.908-1.242
		c-0.936-1.092-2.147-1.651-3.593-1.599c-0.967,0.035-1.931,0.141-2.896,0.216c-0.236,0.018-0.472,0.043-0.759,0.069
		c-0.273-0.42-0.553-0.81-0.791-1.225c-0.891-1.557-1.828-3.092-2.638-4.691c-1.446-2.853-3.754-4.633-6.721-5.649
		c-0.642-0.22-1.283-0.456-1.943-0.603c-1.928-0.427-3.62-1.354-5.276-2.377c-0.492-0.305-1-0.597-1.531-0.824
		c-0.871-0.373-1.78-0.44-2.702-0.161c-0.217,0.066-0.441,0.107-0.813,0.195C163.98,245.51,163.981,245.231,164.068,244.981z
		 M204.168,340.394c-0.087-0.167-0.201-0.328-0.257-0.506c-0.97-3.112-2.356-6.055-3.644-9.038c-0.904-2.093-1.845-4.172-2.684-6.29
		c-1.28-3.23-2.995-6.204-5.13-8.931c-4.042-5.163-8.261-10.173-12.939-14.782c-0.933-0.919-1.82-1.886-2.717-2.841
		c-3.717-3.959-6.311-8.58-8.032-13.708c-0.71-2.115-1.398-4.238-2.046-6.373c-0.679-2.237-1.031-4.545-1.238-6.865
		c-0.263-2.948-0.401-5.907-0.646-8.857c-0.177-2.127-0.484-4.243-0.651-6.37c-0.137-1.737-0.204-3.484-0.205-5.227
		c-0.001-1.126,0.321-1.625,1.179-2.408c0.665,0.18,1.112,0.693,1.604,1.173c-0.151,1.956,0.273,3.852,0.583,5.756
		c0.454,2.779,0.834,5.562,1.05,8.373c0.26,3.385,0.492,6.775,1.067,10.13c0.557,3.25,1.653,6.287,3.472,9.036
		c1.796,2.713,3.481,5.488,5.084,8.319c1.177,2.08,2.643,3.951,4.539,5.451c1.234,0.976,2.54,1.786,4.139,2.004
		c0.137,0.019,0.263,0.115,0.473,0.212c0.275,1.155,1.001,2.133,1.671,3.142c0.671,1.011,1.352,2.015,2.018,3.029
		c1.459,2.221,3.284,4.074,5.519,5.521c0.815,0.527,1.621,1.067,2.425,1.611c3.571,2.419,6.363,5.514,8.233,9.426
		c0.459,0.961,1.016,1.875,1.542,2.803c0.167,0.294,0.368,0.572,0.576,0.84c0.452,0.58,0.791,0.725,1.212,0.548
		c0.665-0.28,1.097-0.973,0.951-1.626c-0.083-0.374-0.257-0.73-0.403-1.088c-0.386-0.942-0.862-1.857-1.156-2.826
		c-1.081-3.556-3.187-6.417-5.948-8.812c-1.389-1.205-2.889-2.289-4.381-3.37c-1.458-1.057-2.878-2.149-4.067-3.513
		c-1.536-1.762-2.84-3.693-4.054-5.682c-0.771-1.262-0.976-2.668-0.452-4.058c0.801-2.125,1.096-4.314,1.13-6.562
		c0.009-0.629,0.119-1.256,0.157-1.886c0.342-5.621-0.129-11.157-1.854-16.54c-0.487-1.519-1.172-2.974-1.77-4.457
		c-0.142-0.352-0.297-0.698-0.473-1.112c0.958-0.313,1.773-0.263,2.521,0.328c0.228,0.181,0.458,0.361,0.672,0.558
		c0.622,0.575,1.338,0.972,2.182,1.081c1.08,0.139,1.744,0.753,2.13,1.736c0.141,0.36,0.323,0.706,0.493,1.054
		c0.149,0.305,0.307,0.606,0.462,0.908c0.585,1.137,1.687,1.6,3.097,0.997c0.482-0.206,0.943-0.508,1.346-0.847
		c0.892-0.751,1.75-1.547,2.298-2.604c0.285-0.549,0.716-0.896,1.296-1.097c0.911-0.315,1.771-0.766,2.789-0.725
		c0.717,0.029,1.301-0.345,1.73-0.925c0.288-0.39,0.563-0.791,0.844-1.186c1.041-1.465,2.483-2.291,4.229-2.591
		c0.81-0.139,1.635-0.243,2.456-0.264c1.034-0.027,2.01-0.234,2.983-0.574c1.189-0.415,2.401-0.764,3.61-1.119
		c0.262-0.077,0.553-0.054,0.882-0.082c0.049,0.307,0.115,0.538,0.119,0.771c0.062,3.877,0.117,7.754,0.174,11.639
		c-0.451,0.159-0.821,0.26-1.166,0.419c-0.452,0.207-0.675,0.63-0.609,1.051c0.068,0.433,0.369,0.74,0.886,0.836
		c0.272,0.051,0.558,0.031,0.921,0.046c0.036,0.501,0.084,0.925,0.093,1.351c0.054,2.669,0.08,5.339,0.151,8.008
		c0.162,6.114,0.346,12.228,0.516,18.341c0.017,0.626,0.002,1.252,0.002,1.904c-0.662,0.102-1.086-0.246-1.516-0.538
		c-1.061-0.721-1.824-1.662-2.594-3.171c0.291-0.274,0.62-0.544,0.901-0.858c0.294-0.328,0.308-0.731,0.096-1.078
		c-0.221-0.36-0.541-0.575-0.967-0.509c-0.326,0.051-0.64,0.178-0.99,0.28c-0.604-1.13-0.816-2.334-0.974-3.522
		c-0.423-3.173-0.758-6.358-1.123-9.539c-0.01-0.09,0.038-0.187,0.072-0.336c0.256-0.149,0.568-0.288,0.83-0.492
		c0.678-0.528,0.55-1.403-0.255-1.731c-0.262-0.107-0.561-0.121-0.891-0.188c-0.269-1.465-0.481-2.806-0.766-4.131
		c-0.287-1.331-0.685-2.638-1.403-3.807c-0.403-0.656-0.845-1.319-1.396-1.847c-1.605-1.541-3.849-1.55-5.537-0.102
		c-0.635,0.545-1.117,1.21-1.515,1.94c-0.561,1.031-0.917,2.138-1.18,3.276c-0.495,2.139-0.681,4.31-0.679,6.502
		c0.004,4.634,0.639,9.19,1.694,13.693c0.055,0.236,0.113,0.472,0.162,0.709c0.029,0.142,0.042,0.287,0.072,0.497
		c-0.205,0.151-0.454,0.293-0.651,0.487c-0.615,0.608-0.418,1.464,0.398,1.707c0.271,0.081,0.57,0.069,0.911,0.106
		c0.427,1.015,0.847,2.039,1.286,3.055c0.773,1.788,1.717,3.48,2.904,5.03c1.312,1.714,2.875,3.153,4.707,4.296
		c2.237,1.396,4.677,2.093,7.313,2.113c0.388,0.003,0.775,0.016,1.162,0.032c0.037,0.001,0.072,0.057,0.108,0.087
		c0.044,0.082,0.123,0.163,0.127,0.247c0.072,1.794,0.144,3.588,0.197,5.382c0.023,0.772,0.004,1.546,0.004,2.383
		c-0.469,0.172-0.924,0.318-1.361,0.505c-0.382,0.164-0.612,0.468-0.636,0.9c-0.026,0.464,0.263,0.897,0.71,0.956
		c0.378,0.05,0.767,0.01,1.221,0.01c0.046,0.379,0.116,0.703,0.12,1.028c0.026,1.893,0.017,3.787,0.059,5.679
		c0.043,1.941,0.136,3.88,0.199,5.821c0.017,0.532,0.003,1.064,0.003,1.718c-1.831,1.007-3.787,1.693-6.067,1.38
		c0.058-0.323,0.066-0.617,0.166-0.874c0.318-0.812,0.68-1.608,1.008-2.417c0.126-0.311,0.241-0.634,0.302-0.962
		c0.067-0.36-0.203-0.649-0.578-0.699c-0.464-0.061-0.869,0.072-1.199,0.394c-0.306,0.299-0.586,0.625-0.853,0.913
		c-0.415-0.162-0.296-0.436-0.291-0.651c0.022-1.019,0.074-2.037,0.084-3.055c0.004-0.385-0.046-0.777-0.121-1.157
		c-0.116-0.587-0.457-0.917-0.933-0.976c-0.535-0.066-0.995,0.132-1.252,0.571c-0.212,0.364-0.313,0.81-0.387,1.233
		c-0.233,1.331-0.43,2.669-0.638,3.989c-0.404,0.001-0.463-0.244-0.549-0.47c-0.556-1.453-1.173-2.88-2.026-4.184
		c-0.368-0.563-0.804-1.099-1.289-1.563c-0.438-0.42-1.005-0.57-1.615-0.278c-0.561,0.268-0.819,0.687-0.696,1.284
		c0.078,0.377,0.225,0.741,0.352,1.107c0.368,1.053,0.75,2.101,1.109,3.157c0.088,0.257,0.11,0.537,0.219,1.093
		c-0.704-0.745-1.195-1.265-1.688-1.785c-0.283-0.299-0.614-0.463-1.041-0.39c-0.538,0.092-0.843,0.592-0.611,1.079
		c0.187,0.392,0.435,0.755,0.654,1.133c0.484,0.838,1.019,1.652,1.256,2.593c-0.269,0.405-0.683,0.38-1.056,0.41
		C206.884,340.627,205.532,340.861,204.168,340.394z M201.951,249.811c0.14-1.197,0.337-2.387,0.525-3.694
		c0.425,0.268,0.743,0.468,0.977,0.616c0.474,5.648,0.606,11.205,0.645,16.751c-0.579,0.434-1.171,0.723-1.938,0.931
		c-0.087-1.376-0.178-2.624-0.243-3.874c-0.093-1.789-0.153-3.58-0.253-5.369C201.563,253.374,201.743,251.591,201.951,249.811z
		 M206.247,249.115c-0.045-0.51-0.125-1.05,0.114-1.607c0.683,0.015,1.126,0.317,1.358,0.917c0.175,0.451,0.325,0.913,0.475,1.374
		c0.619,1.89,1.83,3.233,3.791,3.66c1.636,0.357,2.367,1.354,2.586,2.893c0.034,0.237,0.065,0.474,0.11,0.804
		c-0.316,0.117-0.609,0.267-0.919,0.333c-1.099,0.236-2.132,0.635-3.127,1.153c-1.214,0.631-2.102,1.542-2.557,2.85
		c-0.127,0.366-0.255,0.734-0.411,1.088c-0.152,0.346-0.432,0.454-0.841,0.38c-0.342-0.062-0.486-0.284-0.502-0.608
		c-0.014-0.291-0.025-0.582-0.025-0.873c-0.002-0.679-0.007-1.359,0.007-2.038C206.378,255.999,206.554,252.557,206.247,249.115z
		 M220.118,306.948c1.085,0.854,2.294,1.445,3.694,1.568c0.433,0.038,0.868,0.056,1.325,0.085c0.429,0.623,0.23,1.323,0.262,1.976
		c0.033,0.665,0.104,1.342-0.041,2.062c-0.826,0.136-1.593,0.01-2.339-0.112c-1.689-0.277-3.276-0.85-4.723-1.791
		c-1.728-1.124-3.211-2.503-4.412-4.176c-1.309-1.823-2.321-3.794-3.021-5.936c-1.515-4.636-2.349-9.388-2.685-14.249
		c-0.202-2.92-0.128-5.813,0.367-8.695c0.197-1.151,0.51-2.27,1.013-3.328c0.365-0.767,0.494-0.919,1.301-1.604
		c0.841,0.28,1.238,0.895,1.622,1.513c0.62,0.998,0.997,2.098,1.297,3.226c0.599,2.255,0.901,4.56,1.18,6.872
		c0.424,3.512,0.763,7.036,1.456,10.511c0.304,1.524,0.699,3.022,1.324,4.45c0.194,0.444,0.398,0.885,0.626,1.312
		c1.446,2.708,3.499,4.622,6.641,5.016c0.295,0.335,0.295,0.635,0.026,0.99c-0.969,0.04-1.851-0.323-2.705-0.776
		c-0.342-0.181-0.666-0.396-1.01-0.574c-0.377-0.195-0.755-0.151-1.101,0.085C219.588,305.802,219.529,306.485,220.118,306.948z
		 M339.559,257.525c-0.193,1.589-0.337,3.185-0.462,4.781c-0.211,2.709-0.379,5.422-0.586,8.132
		c-0.23,3.012-0.789,5.961-1.751,8.829c-0.694,2.069-1.322,4.163-2.082,6.207c-1.552,4.175-3.71,8.012-6.706,11.334
		c-1.397,1.549-2.856,3.044-4.313,4.537c-4.584,4.696-8.854,9.662-12.808,14.898c-1.763,2.334-3.152,4.884-4.281,7.587
		c-1.421,3.402-2.91,6.775-4.36,10.165c-0.571,1.336-1.113,2.684-1.671,4.035c-0.642,0.194-1.247,0.17-1.911,0.063
		c0-0.354,0.003-0.634,0-0.913c-0.012-1.059-0.624-1.465-1.632-1.076c-0.215,0.083-0.415,0.206-0.663,0.332
		c-0.141-0.317-0.243-0.589-0.38-0.842c-0.329-0.611-0.772-0.797-1.445-0.632c-0.621,0.152-1.048,0.608-1.088,1.208
		c-0.016,0.237,0.044,0.48,0.072,0.72c0.022,0.19,0.049,0.38,0.073,0.564c-1.215,0.403-3.391,0.469-4.453,0.116
		c0.272-0.775,0.726-1.456,1.084-2.182c0.214-0.434,0.445-0.863,0.614-1.315c0.173-0.465-0.156-0.842-0.674-0.854
		c-0.481-0.011-0.822,0.209-1.121,0.565c-0.267,0.317-0.303,0.839-0.861,0.967c-0.104-0.531-0.19-1.05-0.309-1.561
		c-0.14-0.601-0.382-0.825-0.838-0.832c-0.537-0.008-0.937,0.246-1.098,0.776c-0.125,0.414-0.176,0.85-0.259,1.274
		c-0.321,0.13-0.414-0.105-0.537-0.309c-0.125-0.207-0.244-0.424-0.402-0.604c-0.374-0.426-0.963-0.483-1.455-0.168
		c-0.374,0.24-0.529,0.659-0.349,1.157c0.197,0.546,0.449,1.073,0.692,1.602c0.161,0.35,0.35,0.688,0.568,1.112
		c-0.44,0.163-0.849,0.275-1.22,0.46c-0.647,0.323-1.287,0.667-1.899,1.052c-0.234,0.147-0.408,0.412-0.565,0.653
		c-0.303,0.463-0.076,1.015,0.471,1.112c0.329,0.058,0.688,0.081,1.01,0.012c1.257-0.27,2.49-0.191,3.754,0.014
		c1.393,0.225,2.806,0.171,4.191-0.192c0.562-0.148,1.14-0.234,1.705-0.37c1.007-0.241,2.011-0.218,3.036-0.112
		c1.108,0.115,2.228,0.115,3.343,0.169c0.572,0.028,1.156-0.001,1.769,0.298c-0.049,0.309-0.065,0.591-0.141,0.856
		c-1.086,3.795-1.643,7.677-1.98,11.602c-0.428,4.982-0.756,9.968-0.908,14.968c-0.086,2.812-0.293,5.622-0.483,8.43
		c-0.271,3.995-1.445,7.709-3.575,11.109c-0.644,1.028-1.266,2.072-1.955,3.07c-2.293,3.323-3.436,7.04-3.813,11.019
		c-0.183,1.932-0.363,3.867-0.454,5.804c-0.167,3.561-0.88,7.02-1.765,10.457c-0.496,1.925-0.981,3.855-1.399,5.799
		c-0.305,1.421-0.469,2.872-0.739,4.302c-0.443,2.35-1.18,4.606-2.354,6.7c-2.066,3.683-4.186,7.334-6.534,10.847
		c-1.026,1.535-2.118,3.02-3.367,4.385c-1.286,1.406-2.718,2.639-4.355,3.614c-0.533,0.317-1.14,0.521-1.732,0.722
		c-0.348,0.118-0.686-0.032-0.884-0.348c-0.23-0.368-0.468-0.746-0.614-1.151c-0.907-2.516-1.595-5.094-1.907-7.751
		c-0.118-1.004-0.045-2.039,0.027-3.054c0.128-1.806-0.077-3.588-0.288-5.371c-0.359-3.036-0.776-6.065-1.1-9.104
		c-0.154-1.445-0.164-2.906-0.218-4.36c-0.079-2.134-0.126-4.269-0.21-6.403c-0.101-2.572-0.214-5.143,0.209-7.701
		c0.254-1.538,0.587-3.05,1.387-4.416c0.114-0.195,0.268-0.367,0.531-0.721c0.084,0.364,0.133,0.526,0.158,0.691
		c0.436,2.878,0.924,5.75,1.287,8.637c0.393,3.128,0.736,6.266,0.979,9.41c0.296,3.824,0.635,7.642,1.217,11.433
		c0.124,0.811,0.36,1.609,0.604,2.395c0.127,0.409,0.341,0.81,0.59,1.161c1.55,2.18,4.512,2.155,6.019-0.061
		c0.351-0.516,0.608-1.104,0.858-1.681c0.347-0.801,0.634-1.627,0.967-2.434c0.725-1.756,1.61-3.423,2.765-4.94
		c0.382-0.502,0.722-1.037,1.114-1.53c1.829-2.298,2.826-4.933,3.36-7.803c0.59-3.176,0.734-6.36,0.489-9.568
		c-0.344-4.503-0.607-9.009-0.503-13.529c0.078-3.408-0.252-6.782-0.725-10.154c-0.546-3.893-1.028-7.795-1.103-11.735
		c-0.037-1.948,0.176-3.871,0.427-5.799c0.262-2.019,0.411-4.053,0.583-6.083c0.09-1.064,0.147-2.131,0.177-3.198
		c0.034-1.213-0.835-2.029-2.012-1.94c-0.591,0.045-1.001,0.388-1.086,0.981c-0.069,0.479-0.075,0.967-0.105,1.452
		c-0.1,1.599-0.149,3.202-0.308,4.795c-0.344,3.457-1.722,6.544-3.523,9.465c-0.356,0.578-0.74,1.139-1.103,1.714
		c-1.25,1.982-2.209,4.095-2.859,6.349c-0.269,0.932-0.565,1.856-0.856,2.781c-0.546,1.735-1.583,3.102-3.124,4.069
		c-1.233,0.773-2.455,1.57-3.732,2.265c-2.068,1.127-3.643,2.717-4.786,4.76c-0.213,0.381-0.445,0.753-0.699,1.107
		c-1.463,2.041-2.125,4.344-2.2,6.824c-0.033,1.114-0.037,2.237,0.062,3.346c0.295,3.286,0.657,6.566,0.976,9.851
		c0.211,2.174,0.355,4.354,0.599,6.524c0.222,1.976,0.54,3.94,0.815,5.91c0.408,2.931,0.863,5.857,1.203,8.797
		c0.156,1.344,0.142,2.716,0.104,4.073c-0.055,1.964,0.261,3.864,0.751,5.751c0.253,0.978,0.47,1.965,0.754,3.161
		c-0.422-0.225-0.664-0.328-0.877-0.472c-1.19-0.805-2.495-1.281-3.922-1.441c-0.433-0.049-0.859-0.154-1.29-0.22
		c-1.388-0.214-2.698-0.041-3.918,0.717c-1.277,0.794-2.577,1.551-3.872,2.316c-0.233,0.138-0.488,0.239-0.909,0.441
		c0.097-0.509,0.146-0.833,0.222-1.151c0.25-1.037,0.508-2.073,0.766-3.108c0.46-1.843,0.774-3.698,0.698-5.613
		c-0.139-3.514,0.443-6.968,0.966-10.422c0.675-4.462,1.344-8.922,1.654-13.431c0.15-2.177,0.474-4.342,0.682-6.515
		c0.273-2.85,0.61-5.696,0.461-8.57c-0.118-2.282-0.75-4.385-2.045-6.283c-0.492-0.721-0.938-1.474-1.407-2.21
		c-0.875-1.372-1.983-2.507-3.395-3.336c-0.962-0.565-1.918-1.141-2.869-1.725c-0.661-0.406-1.315-0.825-1.961-1.256
		c-1.295-0.866-2.196-2.042-2.701-3.515c-0.267-0.78-0.551-1.556-0.761-2.352c-0.791-2.988-2.118-5.717-3.822-8.288
		c-1.673-2.524-3.038-5.209-3.588-8.216c-0.278-1.521-0.37-3.079-0.508-4.623c-0.095-1.063-0.138-2.131-0.18-3.197
		c-0.035-0.893-0.678-1.433-1.754-1.153c-0.88,0.23-1.373,0.792-1.346,1.659c0.019,0.631,0.046,1.261,0.07,1.892
		c0.11,2.911,0.342,5.808,0.803,8.69c0.261,1.627,0.391,3.276,0.307,4.934c-0.169,3.346-0.443,6.683-0.931,9.999
		c-0.623,4.232-1.029,8.476-0.919,12.763c0.115,4.471-0.238,8.928-0.557,13.381c-0.273,3.826,0.203,7.554,1.166,11.241
		c0.334,1.278,0.89,2.465,1.626,3.56c0.622,0.927,1.248,1.853,1.926,2.739c1.457,1.906,2.557,4,3.415,6.233
		c0.348,0.905,0.71,1.807,1.128,2.682c0.557,1.168,1.502,1.839,2.778,2.134c0.985,0.228,1.831,0.021,2.613-0.536
		c0.772-0.55,1.334-1.282,1.58-2.207c0.261-0.983,0.562-1.968,0.686-2.972c0.371-2.985,0.759-5.973,0.966-8.972
		c0.348-5.04,0.901-10.051,1.689-15.039c0.265-1.677,0.488-3.361,0.736-5.041c0.012-0.082,0.083-0.156,0.178-0.328
		c0.143,0.137,0.296,0.236,0.384,0.376c0.792,1.254,1.154,2.66,1.422,4.098c0.312,1.678,0.392,3.373,0.374,5.075
		c-0.009,0.874-0.05,1.747-0.076,2.62c-0.083,2.717-0.212,5.434-0.238,8.151c-0.027,2.779-0.476,5.509-0.793,8.255
		c-0.206,1.784-0.518,3.558-0.647,5.346c-0.125,1.739-0.133,3.492-0.088,5.236c0.043,1.668-0.13,3.291-0.578,4.893
		c-0.392,1.401-0.745,2.813-1.172,4.202c-0.169,0.548-0.472,1.06-0.752,1.568c-0.21,0.38-0.584,0.542-0.995,0.402
		c-0.546-0.186-1.102-0.383-1.598-0.673c-1.518-0.886-2.887-1.979-4.062-3.284c-0.94-1.044-1.862-2.118-2.677-3.26
		c-2.908-4.075-5.41-8.404-7.815-12.789c-1.13-2.06-1.836-4.29-2.183-6.604c-0.511-3.414-1.278-6.765-2.163-10.096
		c-0.648-2.44-1.207-4.903-1.45-7.42c-0.191-1.98-0.313-3.966-0.435-5.952c-0.14-2.283-0.487-4.535-0.974-6.765
		c-0.483-2.209-1.488-4.199-2.666-6.108c-0.688-1.115-1.393-2.22-2.109-3.317c-2.42-3.708-3.66-7.797-3.907-12.195
		c-0.201-3.586-0.373-7.174-0.53-10.762c-0.239-5.432-0.589-10.855-1.257-16.253c-0.167-1.346-0.465-2.675-0.7-4.013
		c-0.066-0.379-0.12-0.76-0.196-1.243c1.386-0.123,2.589-0.246,3.794-0.327c0.431-0.029,0.881-0.012,1.302,0.078
		c2.145,0.463,4.323,0.623,6.505,0.703c1.916,0.07,3.738,0.479,5.505,1.221c1.16,0.487,2.357,0.891,3.548,1.3
		c1.351,0.463,2.757,0.52,4.171,0.486c0.509-0.012,0.953-0.146,1.289-0.554c0.351-0.425,0.255-1.008-0.246-1.208
		c-0.402-0.16-0.831-0.263-1.257-0.347c-1.63-0.32-3.189-0.831-4.631-1.668c-0.167-0.097-0.337-0.193-0.491-0.309
		c-0.068-0.051-0.099-0.149-0.185-0.288c1.116-0.611,2.233-1.145,3.559-0.975c0.578,0.074,1.159,0.123,1.734,0.215
		c1.064,0.171,2.131,0.189,3.192,0.031c1.796-0.268,3.577-0.27,5.351,0.148c1.897,0.448,3.83,0.637,5.768,0.742
		c1.736,0.094,3.33,0.56,4.823,1.447c1.517,0.902,3.155,1.503,4.919,1.685c0.669,0.069,1.356,0.067,2.026,0.005
		c1.111-0.102,2.217-0.26,3.319-0.43c0.426-0.066,0.853-0.192,1.252-0.355c0.366-0.149,0.633-0.435,0.742-0.844
		c0.142-0.535-0.161-0.994-0.708-1.034c-0.192-0.014-0.389-0.004-0.58,0.018c-0.819,0.096-1.649,0.148-2.454,0.314
		c-1.833,0.378-3.455-0.143-4.995-1.068c-0.332-0.199-0.649-0.43-0.945-0.68c-1.918-1.622-4.165-2.434-6.629-2.734
		c-0.622-0.076-1.238-0.21-1.838-0.314c-0.061-0.208-0.138-0.346-0.136-0.483c0.118-8.737,0.241-17.475,0.369-26.212
		c0.003-0.186,0.069-0.371,0.116-0.605c0.359-0.017,0.693-0.014,1.023-0.053c0.549-0.065,0.927-0.452,0.946-0.93
		c0.016-0.407-0.272-0.822-0.718-0.995c-0.178-0.069-0.375-0.089-0.563-0.134c-0.183-0.043-0.366-0.089-0.527-0.129
		c-0.236-1.006-0.242-4.431-0.021-5.96c0.438-0.284,0.94-0.183,1.414-0.195c2.008-0.051,3.97-0.38,5.825-1.141
		c1.25-0.513,2.435-1.187,3.757-1.843c0.126,0.11,0.333,0.292,0.541,0.472c0.11,0.095,0.209,0.214,0.335,0.277
		c0.37,0.184,0.748,0.201,1.104-0.041c0.307-0.208,0.482-0.65,0.34-1.036c-0.147-0.401-0.375-0.773-0.598-1.218
		c0.129-0.173,0.255-0.374,0.411-0.547c2.677-2.956,4.268-6.454,5.114-10.312c0.531-2.423,0.783-4.885,0.886-7.363
		c0.022-0.526,0.063-1.051,0.099-1.641c0.332-0.079,0.605-0.139,0.876-0.21c0.28-0.073,0.571-0.125,0.833-0.241
		c0.424-0.188,0.625-0.635,0.538-1.084c-0.074-0.38-0.385-0.702-0.797-0.736c-0.427-0.035-0.86-0.008-1.347-0.008
		c-0.042-0.391-0.092-0.72-0.11-1.051c-0.133-2.423-0.22-4.849-0.402-7.268c-0.153-2.034-0.467-4.05-1.13-5.992
		c-0.188-0.55-0.391-1.097-0.623-1.63c-0.638-1.465-1.534-2.702-3.12-3.329c-0.101-0.479-0.185-0.954-0.303-1.42
		c-0.151-0.595-0.49-0.869-1.008-0.857c-0.547,0.013-0.938,0.412-0.993,1.053c-0.028,0.332-0.005,0.669-0.005,1.003
		c-0.068,0.068-0.124,0.171-0.205,0.197c-1.633,0.534-2.664,1.699-3.411,3.188c-0.926,1.846-1.441,3.813-1.692,5.843
		c-0.184,1.49-0.281,2.995-0.327,4.497c-0.065,2.134-0.023,4.272-0.074,6.407c-0.041,1.746-0.099,3.496-0.493,5.21
		c-0.24,1.044-0.565,2.059-1.108,2.991c-0.818,1.405-1.986,2.368-3.568,2.797c-0.135,0.037-0.285,0.024-0.428,0.023
		c-0.044,0-0.088-0.038-0.132-0.059c-0.221-1.124-0.179-3.841,0.089-5.065c0.308-0.041,0.641-0.063,0.964-0.134
		c0.661-0.145,1.004-0.531,0.988-1.068c-0.016-0.545-0.379-0.877-1.074-0.946c-0.281-0.028-0.567-0.005-0.79-0.005
		c-0.091-0.118-0.125-0.154-0.148-0.196c-0.023-0.041-0.048-0.086-0.051-0.131c-0.017-0.29-0.042-0.581-0.038-0.871
		c0.087-6.359,0.177-12.718,0.271-19.077c0.002-0.141,0.053-0.282,0.089-0.421c0.011-0.043,0.049-0.078,0.084-0.131
		c0.327,0,0.665,0.026,0.998-0.006c0.579-0.055,0.932-0.404,0.964-0.906c0.03-0.462-0.196-0.836-0.677-1.001
		c-0.41-0.141-0.843-0.218-1.265-0.323c-0.204-1.003-0.234-3.822-0.048-5.58c1.108-0.702,2.004-1.712,2.787-2.831
		c0.425-0.607,1.015-0.852,1.746-0.869c1.326-0.031,2.616,0.169,3.865,0.587c0.4,0.134,0.763,0.406,1.111,0.66
		c0.312,0.228,0.578,0.517,0.866,0.778c0.793,0.719,1.726,1.085,2.795,1.013c0.745-0.05,1.433,0.113,2.141,0.312
		c0.597,0.168,1.236,0.234,1.859,0.249c0.726,0.017,1.455-0.054,2.18-0.116c1.595-0.136,2.855-0.805,3.706-2.226
		c0.658-1.099,0.871-1.135,2.146-0.771c0.086,0.025,0.154,0.11,0.296,0.216c-0.165,1.726-0.694,3.48-0.26,5.263
		c-0.19,0.273-0.355,0.51-0.52,0.747c-1.038,1.494-0.866,1.489-2.43,1.843c-0.583,0.132-1.16,0.521-1.617,0.93
		c-0.646,0.579-1.202,1.266-1.753,1.942c-0.648,0.797-0.139,1.527,0.793,1.62c0.654,0.065,1.243-0.202,1.753-0.594
		c0.305-0.235,0.583-0.517,0.824-0.818c0.352-0.439,0.78-0.699,1.334-0.808c0.426-0.083,0.85-0.208,1.252-0.371
		c0.976-0.396,1.745-1.037,2.219-2c0.213-0.433,0.436-0.861,0.693-1.366c0.84-0.113,1.699-0.238,2.56-0.34
		c0.494-0.058,0.947-0.19,1.322-0.535c0.363-0.334,0.324-0.899-0.129-1.084c-0.443-0.18-0.922-0.298-1.396-0.364
		c-0.425-0.06-0.866-0.013-1.391-0.013c-0.047-0.39-0.152-0.715-0.114-1.022c0.259-2.07,0.546-4.136,0.829-6.202
		c0.066-0.48,0.142-0.959,0.236-1.434c0.15-0.756,0.311-1.511,0.828-2.116c0.133,0.062,0.256,0.078,0.285,0.138
		c0.47,1.007,0.918,2.017,1.535,2.956c0.427,0.649,0.522,1.448,0.519,2.241c-0.004,1.116,0.012,2.233,0.03,3.349
		c0.005,0.339,0.02,0.681,0.069,1.015c0.051,0.351,0.197,0.665,0.6,0.727c0.415,0.064,0.791-0.051,1.004-0.428
		c0.139-0.245,0.263-0.539,0.27-0.813c0.057-2.285,0.65-4.505,0.738-6.797c0.076-1.977,0.515-3.941,0.818-5.907
		c0.041-0.267,0.223-0.513,0.38-0.857c0.664,0.429,1.279,0.801,1.865,1.213c0.38,0.267,0.517,0.691,0.557,1.142
		c0.039,0.435,0.032,0.877,0.11,1.304c0.106,0.582,0.523,0.911,1.123,0.955c0.807,0.06,1.443-0.246,1.791-0.979
		c0.227-0.477,0.359-1.001,0.514-1.51c0.154-0.506,0.22-1.044,0.651-1.548c1.043,0.055,2.136,0.112,3.262,0.171
		c0.262,0.641,0.138,1.27,0.115,1.887c-0.06,1.6-0.166,3.199-0.181,4.799c-0.01,1.112,0.066,2.229,0.168,3.338
		c0.099,1.071-0.048,2.018-0.886,2.789c-0.582,0.535-0.945,1.233-1.201,1.973c-0.261,0.756-0.677,1.399-1.29,1.903
		c-1.284,1.055-2.056,2.455-2.588,3.98c-0.66,1.894-1.435,3.711-2.786,5.23c-0.032,0.036-0.063,0.074-0.089,0.115
		c-0.183,0.293-0.359,0.59-0.149,0.942c0.183,0.306,0.623,0.489,1.017,0.414c0.551-0.105,0.958-0.418,1.297-0.864
		c1.004-1.32,1.88-2.711,2.488-4.259c0.16-0.406,0.311-0.817,0.484-1.217c0.564-1.3,1.23-2.524,2.358-3.448
		c0.762-0.625,1.318-1.42,1.672-2.348c0.23-0.604,0.599-1.103,1.111-1.502c1.208-0.942,1.658-2.184,1.605-3.707
		c-0.094-2.716-0.096-5.435-0.148-8.152c-0.01-0.533-0.068-1.064-0.11-1.596c-0.115-1.458-0.138-2.911,0.238-4.34
		c0.086-0.327,0.176-0.679,0.711-0.591c0.037,0.369,0.069,0.749,0.114,1.128c0.054,0.448,0.347,0.675,0.76,0.769
		c0.72,0.164,1.376-0.121,1.705-0.787c0.17-0.345,0.303-0.72,0.378-1.097c0.303-1.515,0.484-1.523,2.022-2.063
		c0.009,0.292,0.07,0.562,0.016,0.807c-0.54,2.487-0.339,5.028-0.535,7.54c-0.078,0.994,0.168,2.026,0.357,3.024
		c0.309,1.635,0.385,3.273,0.285,4.928c-0.038,0.629-0.024,1.262-0.035,1.892c-0.005,0.321,0.116,0.621,0.422,0.684
		c0.256,0.053,0.574-0.006,0.815-0.119c0.39-0.182,0.472-0.575,0.501-0.982c0.176-2.468,0.445-4.93,0.374-7.413
		c-0.021-0.723,0.1-1.449,0.139-2.174c0.07-1.307,0.135-2.614,0.187-3.921c0.021-0.533-0.042-1.073,0.017-1.601
		c0.103-0.925,0.105-1.837-0.052-2.755c-0.047-0.273-0.007-0.561-0.007-0.844c1.235,0.023,1.438,0.147,1.701,1.013
		c0.071,0.232,0.139,0.469,0.165,0.709c0.231,2.124,0.41,4.249,0.195,6.388c-0.117,1.158-0.195,2.321-0.31,3.479
		c-0.129,1.301-0.299,2.599-0.416,3.902c-0.096,1.061-0.147,2.126-0.206,3.191c-0.03,0.533-0.026,1.068-0.051,1.601
		c-0.036,0.747-0.293,1.381-0.782,1.982c-0.513,0.632-0.977,1.346-1.279,2.098c-0.657,1.633-1.589,3.106-2.451,4.623
		c-0.334,0.588-0.676,1.183-0.908,1.814c-0.299,0.809-0.783,1.435-1.463,1.942c-0.583,0.435-1.154,0.889-1.712,1.355
		c-0.258,0.216-0.495,0.465-0.704,0.728c-0.151,0.19-0.256,0.456-0.064,0.665c0.154,0.166,0.4,0.375,0.585,0.357
		c0.368-0.037,0.776-0.141,1.071-0.353c0.906-0.65,1.772-1.355,2.64-2.056c0.611-0.494,1.117-1.091,1.435-1.812
		c0.515-1.165,1.267-2.177,1.974-3.221c0.652-0.964,1.307-1.928,1.908-2.924c0.559-0.925,1.167-1.764,2.126-2.338
		c1.172-0.701,1.544-1.817,1.368-3.134c-0.077-0.577-0.19-1.149-0.283-1.724c-0.219-1.35-0.252-2.702-0.071-4.061
		c0.09-0.673,0.109-1.354,0.17-2.031c0.195-2.17,0.395-4.339,0.586-6.433c0.386-0.223,0.617-0.094,0.703,0.134
		c0.187,0.494,0.362,1.004,0.446,1.523c0.394,2.443,0.753,4.891,1.13,7.336c0.074,0.479,0.176,0.953,0.258,1.431
		c0.245,1.431,0.928,2.628,1.869,3.721c0.885,1.027,1.748,2.082,2.529,3.19c0.84,1.193,1.837,2.113,3.271,2.513
		c0.757,0.211,1.41,0.629,2.091,1.188c-0.093,0.237-0.16,0.509-0.296,0.741c-0.565,0.962-1.14,1.919-1.732,2.865
		c-1.083,1.732-2.055,3.519-2.812,5.419c-0.106,0.267-0.248,0.519-0.396,0.825c-0.392,0.032-0.772,0.086-1.154,0.092
		c-2.919,0.048-5.802,0.444-8.685,0.864c-2.4,0.35-4.805,0.702-7.22,0.906c-1.833,0.155-3.687,0.051-5.53,0.116
		c-1.063,0.037-2.125,0.162-3.182,0.284c-0.381,0.044-0.762,0.164-1.12,0.305c-0.865,0.341-0.971,1.118-0.233,1.672
		c0.188,0.142,0.42,0.238,0.646,0.312c0.181,0.059,0.385,0.083,0.575,0.069c2.286-0.171,4.554,0.164,6.832,0.234
		c2.396,0.074,4.733-0.38,7.084-0.728c3.263-0.482,6.518-1.04,9.821-1.188c0.333-0.015,0.667-0.002,1.036-0.002
		c0.27,0.551,0.026,0.96-0.195,1.383c-0.157,0.046-0.291,0.118-0.427,0.121c-4.478,0.098-8.894,0.702-13.277,1.6
		c-1.092,0.224-2.203,0.35-3.306,0.516c-0.24,0.036-0.487,0.033-0.722,0.088c-0.291,0.067-0.608,0.206-0.57,0.548
		c0.029,0.258,0.169,0.618,0.368,0.719c0.42,0.213,0.908,0.388,1.372,0.397c1.161,0.021,2.329-0.009,3.486-0.111
		c1.303-0.115,2.593-0.384,3.897-0.49c2.417-0.197,4.84-0.331,7.262-0.474c0.423-0.025,0.851,0.035,1.373,0.06
		c-0.033,0.519-0.055,0.944-0.087,1.367c-0.144,1.887-0.438,3.775-0.403,5.658c0.055,3.005,0.284,6.01,0.532,9.007
		c0.075,0.902,0.385,1.805,0.709,2.661c0.695,1.837,0.444,3.522-0.644,5.112c-0.904,1.322-1.792,2.657-2.746,3.942
		c-1.194,1.609-2.638,2.976-4.274,4.136c-0.99,0.702-2.02,1.354-2.957,2.12c-1.275,1.043-2.526,2.125-3.701,3.278
		c-1.969,1.933-3.386,4.227-4.266,6.859c-0.368,1.101-0.873,2.157-1.308,3.236c-0.145,0.359-0.313,0.716-0.392,1.091
		c-0.144,0.682,0.135,1.236,0.733,1.601c0.39,0.238,0.75,0.228,1.062-0.086c0.237-0.239,0.461-0.504,0.632-0.793
		c0.593-1.001,1.231-1.983,1.726-3.033c1.959-4.16,4.938-7.4,8.758-9.906c0.771-0.506,1.541-1.013,2.307-1.527
		c1.957-1.316,3.603-2.946,4.92-4.904c1.002-1.49,2.016-2.973,2.983-4.486c0.414-0.648,0.721-1.365,1.13-2.153
		c0.071-0.03,0.239-0.146,0.42-0.171c1.392-0.193,2.558-0.86,3.664-1.678c1.743-1.289,3.11-2.92,4.288-4.716
		c0.532-0.81,0.983-1.673,1.487-2.502c1.135-1.864,2.206-3.774,3.438-5.572c2.465-3.596,4.028-7.51,4.496-11.849
		c0.265-2.46,0.585-4.918,0.746-7.385c0.241-3.688,0.774-7.331,1.369-10.972c0.233-1.426,0.581-2.857,0.343-4.325
		c0.461-0.534,0.949-0.988,1.646-1.248c0.716,0.479,0.999,1.192,1.095,1.965c0.095,0.767,0.106,1.548,0.103,2.323
		C340.035,253.965,339.775,255.742,339.559,257.525z M264.355,404.167c-0.04-0.467,0.031-0.976,0.186-1.419
		c0.252-0.722,0.916-0.911,1.511-0.448c0.415,0.323,0.795,0.714,1.117,1.131c1.297,1.677,2.102,3.585,2.557,5.647
		c0.577,2.616,0.744,5.275,0.852,7.941c0.107,2.625-0.189,5.231-0.386,7.841c-0.047,0.628-0.127,1.254-0.185,1.881
		c-0.099,1.071-0.324,2.11-0.813,3.074c-0.195,0.385-0.433,0.757-0.701,1.096c-0.285,0.361-0.708,0.301-0.959-0.096
		c-0.426-0.674-0.591-1.436-0.67-2.208c-0.232-2.266-0.444-4.534-0.641-6.804c-0.368-4.249-0.668-8.504-1.327-12.724
		C264.643,407.453,264.497,405.808,264.355,404.167z M239.656,404.505c-0.092,0.965-0.173,1.932-0.296,2.894
		c-0.289,2.259-0.622,4.513-0.896,6.774c-0.181,1.491-0.299,2.99-0.428,4.486c-0.224,2.608-0.427,5.218-0.656,7.826
		c-0.085,0.965-0.202,1.929-0.337,2.888c-0.053,0.381-0.158,0.764-0.303,1.12c-0.158,0.388-0.273,0.89-0.8,0.922
		c-0.451,0.028-0.65-0.387-0.839-0.712c-0.241-0.417-0.474-0.854-0.613-1.312c-0.211-0.692-0.419-1.403-0.485-2.119
		c-0.268-2.895-0.481-5.796-0.679-8.259c0.169-3.444,0.24-6.451,0.87-9.408c0.461-2.163,1.28-4.168,2.642-5.923
		c0.322-0.416,0.71-0.799,1.129-1.117c0.554-0.42,1.098-0.242,1.44,0.383C239.676,403.44,239.708,403.967,239.656,404.505z
		 M239.923,316.162c0.016,5.24-0.1,10.481-0.156,15.721c-0.018,1.698-0.032,3.397-0.059,5.095c-0.006,0.376-0.062,0.751-0.1,1.185
		c-0.357,0.018-0.639,0.054-0.918,0.042c-1.514-0.069-3.001,0.125-4.475,0.449c-1.619,0.355-3.257,0.509-4.914,0.437
		c-0.185-0.008-0.368-0.045-0.638-0.08c-0.03-0.515-0.074-0.986-0.081-1.458c-0.077-4.755-0.13-9.51-0.225-14.265
		c-0.151-7.568-0.342-15.136-0.493-22.704c-0.172-8.588-0.355-17.175-0.467-25.764c-0.104-8.006-0.17-16.013-0.158-24.02
		c0.008-5.241,0.314-10.477,0.884-15.69c0.395-3.618,0.961-7.212,1.987-10.715c0.423-1.445,0.915-2.864,1.653-4.186
		c0.406-0.726,0.88-1.398,1.551-1.905c0.534-0.403,0.933-0.396,1.444,0.023c0.577,0.472,0.942,1.101,1.265,1.758
		c0.71,1.443,1.197,2.969,1.594,4.52c0.602,2.353,0.993,4.747,1.239,7.162c1.099,10.784,1.247,21.596,1.032,32.424
		c-0.114,5.725-0.18,11.452-0.163,17.178C239.756,292.966,239.887,304.564,239.923,316.162z M243.295,290.22
		c0.399-0.127,0.708-0.254,1.028-0.323c2.683-0.574,4.636-2.114,5.946-4.494c1.024-1.86,1.479-3.893,1.648-5.984
		c0.164-2.029,0.236-4.065,0.355-6.097c0.176-3,0.279-6.009,1.141-8.921c0.091-0.306,0.222-0.6,0.334-0.9
		c0.063,0.01,0.126,0.02,0.189,0.03c0.014,0.261,0.046,0.523,0.04,0.784c-0.096,4.557-0.206,9.116-0.624,13.657
		c-0.249,2.703-0.582,5.4-1.421,8.001c-0.96,2.98-2.506,5.553-5.099,7.415c-0.808,0.58-1.693,0.934-2.666,1.079
		c-0.232,0.035-0.474,0.005-0.743,0.005c-0.264-0.746-0.105-1.473-0.126-2.185C243.279,291.613,243.295,290.938,243.295,290.22z
		 M243.316,296.522c0.374-0.053,0.7-0.119,1.029-0.141c1.546-0.104,2.914-0.679,4.179-1.542c2.74-1.87,4.562-4.446,5.785-7.488
		c0.855-2.129,1.34-4.354,1.684-6.612c0.521-3.409,0.828-6.838,0.945-10.285c0.066-1.94,0.157-3.879,0.24-5.818
		c0.007-0.17,0.047-0.339,0.104-0.738c0.569,1.35,0.624,2.565,0.74,3.747c0.507,5.176,0.63,10.365,0.334,15.559
		c-0.113,1.989-0.38,3.962-0.872,5.894c-0.681,2.673-1.905,5.077-3.679,7.195c-2.508,2.992-5.793,4.083-9.592,3.91
		c-0.193-0.009-0.386-0.043-0.576-0.08c-0.093-0.018-0.179-0.071-0.326-0.132C243.159,298.869,243.225,297.724,243.316,296.522z
		 M332.87,238.547c1.06,0.48,2.107,0.991,3.138,1.531c2.195,1.149,3.517,2.977,4.143,5.479c-0.234,0-0.42,0.049-0.565-0.008
		c-1.443-0.56-2.762-0.215-4.031,0.523c-0.251,0.146-0.486,0.321-0.734,0.474c-1.576,0.966-3.199,1.815-5.022,2.247
		c-1.369,0.325-2.688,0.816-3.952,1.449c-1.831,0.917-3.277,2.232-4.292,4.018c-0.309,0.544-0.637,1.078-0.961,1.623
		c-0.921-0.462-1.79-0.874-2.635-1.329c-0.569-0.306-0.989-0.799-1.28-1.364c-0.846-1.646-1.884-3.162-2.956-4.666
		c-0.437-0.613-0.721-1.384-0.894-2.126c-0.637-2.738-1.199-5.494-1.79-8.243c-0.051-0.237-0.129-0.469-0.166-0.708
		c-0.271-1.734-1.424-2.567-3.013-2.939c-0.465-0.109-0.945-0.154-1.493-0.24c-0.057-0.446-0.101-0.87-0.167-1.29
		c-0.091-0.573-0.163-1.152-0.307-1.713c-0.3-1.167-1.136-1.76-2.273-1.978c-0.713-0.137-1.433-0.239-2.144-0.381
		c-0.743-0.148-1.462-0.084-2.121,0.276c-1.317,0.717-2.613,1.473-3.924,2.201c-0.202,0.112-0.432,0.197-0.659,0.234
		c-0.236,0.039-0.485-0.012-0.726,0.004c-1.418,0.094-2.249,0.705-2.678,2.055c-0.234,0.737-0.363,1.507-0.546,2.261
		c-0.044,0.184-0.112,0.363-0.168,0.543c-0.598,0.227-1.184,0.15-1.747,0.032c-1.683-0.353-3.177-0.037-4.518,1.228
		c-0.496-0.389-1.022-0.736-1.469-1.165c-0.998-0.957-2.117-1.076-3.363-0.616c-1.362,0.503-2.333,1.361-2.66,2.835
		c-0.083,0.373-0.2,0.739-0.287,1.054c-0.282,0.247-0.495,0.074-0.724,0.034c-0.521-0.091-1.051-0.214-1.573-0.197
		c-0.987,0.033-1.75,0.502-2.25,1.378c-0.697,1.223-1.389,2.442-1.656,3.855c-0.115,0.608-0.277,1.219-0.6,1.807
		c-0.311-0.043-0.595-0.077-0.877-0.123c-1.683-0.276-3.049,0.29-4.151,1.558c-0.032,0.037-0.068,0.073-0.088,0.115
		c-0.822,1.772-2.407,1.605-3.876,1.369c-1.144-0.184-2.251-0.522-3.438-0.45c-0.332,0.02-0.774-0.218-1.013-0.478
		c-1.489-1.615-3.432-2.089-5.498-2.327c-1.016-0.117-2.016-0.208-3.042-0.044c-1.342,0.215-2.508,0.718-3.435,1.733
		c-0.116,0.127-0.223,0.331-0.578,0.209c-0.142-0.649-0.05-1.367-0.075-2.073c-0.025-0.728-0.014-1.456-0.035-2.184
		c-0.022-0.776-0.065-1.552-0.094-2.328c-0.027-0.728-0.048-1.455-0.073-2.183c-0.025-0.728-0.038-1.456-0.081-2.183
		c-0.043-0.726-0.12-1.451-0.173-2.177c-0.052-0.726-0.08-1.454-0.142-2.179c-0.066-0.773-0.152-1.545-0.244-2.316
		c-0.086-0.723-0.186-1.444-0.292-2.164c-0.105-0.716-0.225-1.43-0.343-2.178c0.332-0.203,0.631-0.353,0.893-0.553
		c0.4-0.307,0.522-0.725,0.372-1.154c-0.145-0.414-0.453-0.615-0.885-0.625c-0.284-0.007-0.568-0.001-0.882-0.001
		c-0.164-0.51-0.316-0.968-0.457-1.429c-0.397-1.304-0.905-2.562-1.583-3.745c-0.264-0.462-0.552-0.915-0.87-1.342
		c-2.122-2.844-5.792-2.743-7.953-0.774c-0.672,0.612-1.24,1.363-1.752,2.121c-0.904,1.337-1.449,2.85-1.92,4.384
		c-0.242,0.788-0.43,1.592-0.656,2.384c-0.063,0.222-0.173,0.431-0.272,0.67c-0.482-0.096-0.899-0.207-1.322-0.255
		c-0.51-0.057-0.884,0.189-1.04,0.614c-0.178,0.484-0.003,0.957,0.485,1.233c0.209,0.118,0.447,0.183,0.668,0.279
		c0.221,0.096,0.438,0.201,0.741,0.341c-0.072,1.54-0.489,3.04-0.65,4.571c-0.163,1.544-0.355,3.085-0.49,4.632
		c-0.134,1.547-0.231,3.098-0.31,4.649c-0.078,1.548-0.113,3.099-0.169,4.717c-0.307,0.139-0.61,0.263-0.901,0.411
		c-0.564,0.287-0.825,0.673-0.738,1.126c0.106,0.555,0.481,0.81,1.03,0.844c0.141,0.009,0.28,0.051,0.414,0.076
		c0.18,1.03,0.145,4.673-0.069,5.869c-1.958,0.662-3.915,1.479-6.143,1.633c-0.072-0.488-0.117-0.864-0.185-1.234
		c-0.106-0.57-0.176-1.154-0.355-1.702c-0.334-1.025-1.007-1.756-2.068-2.081c-0.417-0.128-0.831-0.266-1.248-0.394
		c-1.249-0.382-2.106-1.161-2.486-2.433c-0.097-0.325-0.223-0.642-0.321-0.967c-0.435-1.443-1.451-2.251-2.866-2.61
		c-0.469-0.119-0.95-0.194-1.426-0.288c-0.943-0.187-1.097-0.332-1.273-1.313c-0.077-0.429-0.123-0.866-0.143-1.301
		c-0.104-2.182-0.179-4.365-0.298-6.545c-0.058-1.063-0.143-2.13-0.298-3.182c-0.283-1.921-1.229-3.561-2.322-5.123
		c-0.138-0.197-0.293-0.398-0.482-0.542c-1.394-1.055-2.974-1.642-4.719-1.64c-1.098,0.002-1.928,0.613-2.472,1.558
		c-0.289,0.503-0.5,1.049-0.759,1.57c-0.102,0.205-0.236,0.394-0.382,0.633c-0.653-0.278-0.936-0.785-1.147-1.313
		c-0.215-0.538-0.39-1.101-0.503-1.669c-0.255-1.282-0.461-2.573-0.688-3.868c0.301-0.377,0.57-0.715,0.841-1.051
		c2.595-3.219,4.499-6.785,5.409-10.842c0.159-0.708,0.297-1.432,0.332-2.154c0.067-1.356-0.948-2.046-2.23-1.561
		c-0.672,0.254-1.135,0.751-1.412,1.396c-0.248,0.578-0.449,1.177-0.641,1.777c-0.668,2.081-1.404,4.134-2.438,6.067
		c-0.223,0.416-0.394,0.881-0.879,1.238c-0.509-1.003-0.778-2.014-1.02-3.033c-0.112-0.472-0.178-0.956-0.311-1.421
		c-0.534-1.876-1.906-3.017-3.858-3.255c-0.71-0.087-1.446-0.006-2.103-0.247c-0.04-0.165-0.099-0.265-0.077-0.34
		c1.098-3.628,1.817-7.34,2.481-11.066c0.638-3.581,1.318-7.155,1.958-10.737c0.273-1.528,0.485-3.066,0.738-4.598
		c0.095-0.574,0.197-1.15,0.348-1.71c0.856-3.177,2.782-5.405,5.923-6.476c1.328-0.453,2.685-0.857,4.059-1.136
		c4.743-0.963,9.207-2.664,13.511-4.849c2.204-1.119,4.46-2.139,6.704-3.177c2.264-1.047,4.662-1.634,7.127-1.956
		c0.914-0.119,1.828-0.232,2.744-0.33c3.602-0.385,7.17-0.07,10.728,0.507c2.73,0.443,5.462,0.879,8.248,0.726
		c1.027-0.057,2.029,0.152,3.02,0.398c0.753,0.187,1.512,0.354,2.254,0.579c1.625,0.494,3.255,0.481,4.886,0.076
		c0.94-0.234,1.885-0.471,2.795-0.799c1.694-0.611,3.429-1.06,5.187-1.413c1.091-0.219,2.203-0.386,3.312-0.449
		c4.181-0.236,8.34-0.134,12.417,0.994c1.735,0.48,3.411,1.115,5.035,1.882c2.105,0.993,4.211,1.988,6.289,3.035
		c3.963,1.996,8.096,3.486,12.438,4.419c1.419,0.305,2.825,0.7,4.207,1.147c3.271,1.057,5.303,3.312,6.103,6.637
		c0.34,1.412,0.535,2.859,0.79,4.291c0.646,3.629,1.272,7.262,1.938,10.887c0.508,2.766,0.994,5.54,1.615,8.282
		c0.988,4.36,2.358,8.604,4.193,12.69c0.258,0.575,0.474,1.169,0.735,1.743c0.758,1.665,0.39,4.624-1.239,6.488
		c-0.224-0.104-0.483-0.205-0.724-0.338c-1.189-0.657-2.376-1.316-3.557-1.987c-2.376-1.35-4.204-3.254-5.647-5.559
		c-1.35-2.156-2.28-4.493-3.069-6.896c-0.212-0.645-0.382-1.307-0.64-1.932c-0.182-0.441-0.436-0.871-0.74-1.239
		c-0.458-0.554-1.089-0.79-1.818-0.724c-0.724,0.066-1.194,0.466-1.221,1.195c-0.025,0.673-0.003,1.369,0.142,2.024
		c1.369,6.196,4.443,11.337,9.538,15.195c0.85,0.644,1.75,1.223,2.641,1.81c2.607,1.719,5.002,3.665,6.979,6.114
		C327.413,235.375,329.946,237.223,332.87,238.547z"/>
        <path fill="#1A1A1A" d="M292.688,280.836c-0.066-0.611-0.294-1.23-0.566-1.788c-0.393-0.803-1.1-1.178-2.012-1.197
		c-1.252-0.026-2.109,0.632-2.794,1.571c-0.638,0.875-1.012,1.882-1.249,2.928c-0.246,1.087-0.426,2.19-0.637,3.285
		c-0.221,1.145-0.445,2.288-1.053,3.31c-0.648,1.089-1.546,1.712-2.992,1.57c-0.036-0.301-0.078-0.488-0.079-0.675
		c-0.005-1.408,0.027-2.817-0.008-4.224c-0.053-2.086-0.111-4.175-0.51-6.233c-0.195-1.004-0.47-1.991-1.053-2.848
		c-0.89-1.307-2.556-1.403-3.616-0.232c-0.435,0.48-0.714,1.054-0.839,1.675c-0.229,1.14-0.506,2.285-0.57,3.439
		c-0.129,2.324-0.21,4.657-0.165,6.984c0.081,4.271,0.271,8.539,0.404,12.809c0.016,0.52,0.142,1.056-0.115,1.648
		c-0.333-0.091-0.673-0.126-0.957-0.271c-0.802-0.408-1.414-1.044-1.796-1.849c-0.352-0.742-0.642-1.518-0.895-2.3
		c-0.328-1.015-0.57-2.057-0.891-3.074c-0.264-0.837-0.64-1.63-1.249-2.281c-1.052-1.123-2.72-0.935-3.389,0.449
		c-0.309,0.638-0.506,1.385-0.537,2.092c-0.14,3.182,0.801,6.052,2.836,8.499c1.6,1.924,3.732,2.703,6.224,2.497
		c0.28-0.023,0.561-0.031,0.868-0.047c0.274,1.208,0.226,2.377,0.222,3.532c-0.004,1.146,0.345,2.281,0.186,3.475
		c-0.45,0.098-0.822,0.191-1.198,0.257c-0.371,0.065-0.747,0.103-1.075,0.146c-0.46-0.564-0.83-1.076-1.266-1.526
		c-0.261-0.27-0.601-0.497-0.947-0.644c-0.437-0.185-0.866-0.029-1.206,0.29c-0.281,0.264-0.284,0.589-0.136,0.937
		c0.053,0.124,0.043,0.274,0.066,0.441c-0.372,0.148-0.737,0.258-1.065,0.434c-0.32,0.172-0.339,0.567-0.146,0.889
		c0.184,0.307,0.748,0.361,0.6,0.877c-0.543,0.417-1.166,0.437-1.806,0.467c-0.723,0.034-1.46,0.08-2.157,0.255
		c-1.011,0.254-1.876,0.807-2.458,1.702c-0.61,0.938-0.189,1.889,0.903,2.062c0.634,0.1,1.258,0.035,1.85-0.241
		c0.49-0.227,1.001-0.331,1.547-0.348c1.398-0.043,2.655-0.521,3.785-1.337c0.393-0.284,0.795-0.562,1.156-0.884
		c0.669-0.596,1.455-0.951,2.297-1.211c0.741-0.228,1.502-0.412,2.215-0.71c1.459-0.609,2.95-0.94,4.538-0.807
		c0.381,0.032,0.78-0.005,1.154-0.088c0.483-0.107,0.839-0.564,0.77-0.929c-0.086-0.455-0.461-0.585-0.848-0.683
		c-0.456-0.115-0.973,0.051-1.436-0.297c-0.017-0.285-0.06-0.57-0.048-0.854c0.229-5.719,0.465-11.437,0.698-17.146
		c0.469-0.372,1.023-0.323,1.544-0.402c2.661-0.403,5.003-1.474,7.009-3.288c1.11-1.004,1.882-2.2,2.333-3.625
		C292.801,285.195,292.925,283.025,292.688,280.836z"/>
        <path fill="#1A1A1A" d="M275.441,340.262c-0.26-0.116-0.549-0.169-0.743-0.225c-0.804,0.101-1.415,0.353-1.734,1.048
		c-0.142,0.308-0.251,0.631-0.365,0.95c-1.808,5.04-3.117,10.197-3.753,15.523c-0.499,4.182-1.617,8.18-3.772,11.842
		c-0.147,0.25-0.262,0.52-0.395,0.779c-0.756,1.476-1.323,3.026-1.665,4.645c-0.321,1.518-0.606,3.046-0.834,4.58
		c-0.225,1.512-0.7,2.918-1.486,4.224c-0.35,0.582-0.731,1.149-1.035,1.754c-0.259,0.516-0.461,1.067-0.626,1.621
		c-0.115,0.389,0.218,0.767,0.628,0.815c0.528,0.062,0.953-0.133,1.282-0.534c0.524-0.637,1.02-1.298,1.557-1.924
		c1.608-1.872,2.748-3.989,3.375-6.377c0.905-3.448,2.27-6.699,4.108-9.758c0.927-1.543,1.625-3.192,2.107-4.938
		c0.652-2.361,0.883-4.759,0.86-7.201c-0.014-1.501,0.011-3.011,0.157-4.503c0.318-3.254,1.259-6.368,2.314-9.448
		c0.204-0.596,0.416-1.192,0.571-1.802C276.108,340.879,275.873,340.455,275.441,340.262z"/>
        <path fill="#1A1A1A" d="M250.346,387.247c-0.246-0.234-0.477-0.483-0.722-0.718c-2.02-1.937-3.625-4.156-4.689-6.762
		c-0.844-2.069-1.887-4.033-3.131-5.898c-1.276-1.912-2.144-4.013-2.62-6.269c-0.07-0.33-0.138-0.668-0.268-0.977
		c-0.254-0.6-0.833-0.821-1.442-0.592c-0.54,0.203-0.915,0.568-0.987,1.152c-0.064,0.526-0.113,1.063-0.082,1.59
		c0.127,2.168,0.808,4.185,1.832,6.078c1.111,2.055,2.01,4.189,2.728,6.41c0.929,2.874,2.519,5.331,4.757,7.37
		c0.824,0.751,1.611,1.543,2.401,2.33c1.011,1.006,1.778,2.169,2.262,3.519c0.18,0.501,0.399,0.988,0.617,1.473
		c0.148,0.329,0.412,0.528,0.773,0.596c1.119,0.212,2.297-0.757,2.275-1.928c-0.013-0.092-0.02-0.239-0.056-0.379
		C253.325,391.626,252.355,389.166,250.346,387.247z"/>
        <path fill="#1A1A1A" d="M261.222,350.148c0.122-0.403,0.009-0.766-0.259-1.082c-0.366-0.433-0.843-0.637-1.403-0.663
		c-0.727-0.033-1.454-0.074-2.181-0.102c-3.154-0.123-6.289-0.412-9.401-0.964c-1.814-0.322-3.635-0.612-5.462-0.842
		c-2.281-0.287-4.562-0.255-6.762,0.506c-1.326,0.459-2.62,1.013-3.913,1.561c-0.989,0.419-1.993,0.736-3.068,0.851
		c-1.466,0.157-2.904-0.06-4.349-0.231c-0.48-0.057-0.963-0.106-1.445-0.112c-0.353-0.004-0.68,0.133-0.805,0.506
		c-0.118,0.354,0.022,0.662,0.246,0.938c0.324,0.4,0.782,0.588,1.253,0.69c2.138,0.463,4.286,0.796,6.493,0.564
		c1.948-0.205,3.803-0.742,5.626-1.415c1.798-0.663,3.668-1.015,5.562-0.94c2.42,0.096,4.838,0.341,7.248,0.607
		c2.844,0.314,5.676,0.741,8.543,0.765c1.067,0,2.133,0.011,3.2-0.005C260.763,350.774,261.093,350.573,261.222,350.148z"/>
        <path fill="#1A1A1A" d="M284.081,319.537c-0.821-0.059-1.643-0.158-2.464-0.151c-2.087,0.018-4.154,0.277-6.207,0.642
		c-2.103,0.374-4.15,0.96-6.133,1.752c-2.45,0.979-4.987,1.113-7.574,0.893c-1.496-0.127-2.993-0.281-4.492-0.328
		c-1.06-0.034-2.132,0.036-3.185,0.167c-0.558,0.069-1.106,0.329-1.623,0.576c-0.381,0.182-0.421,0.638-0.202,1.005
		c0.218,0.366,0.552,0.555,0.946,0.6c0.333,0.038,0.676-0.003,1.013-0.026c1.356-0.095,2.704-0.079,4.06,0.08
		c2.067,0.243,4.145,0.398,6.005,0.571c1.285-0.051,2.35-0.099,3.415-0.133c0.881-0.028,1.729-0.209,2.554-0.506
		c2.692-0.971,5.461-1.654,8.258-2.246c1.567-0.332,3.139-0.593,4.738-0.685c0.483-0.028,0.97-0.014,1.452-0.057
		c0.816-0.073,1.129-0.769,0.657-1.455C285.009,319.815,284.595,319.574,284.081,319.537z"/>
        <path fill="#1A1A1A" d="M253.383,352.515c-0.286-0.039-0.579-0.041-0.869-0.039c-3.144,0.031-6.289,0.046-9.432,0.109
		c-1.503,0.03-2.995,0.223-4.404,0.788c-0.533,0.214-1.062,0.475-1.533,0.8c-0.547,0.377-0.515,1.049-0.001,1.48
		c0.316,0.265,0.675,0.389,1.078,0.278c0.419-0.116,0.826-0.273,1.241-0.401c1.632-0.505,3.293-0.74,5.008-0.612
		c1.543,0.115,7.056,0.161,8.264,0.138c0.481-0.009,0.962-0.086,1.439-0.162c0.826-0.132,0.923-0.842,0.6-1.438
		C254.48,352.918,253.995,352.598,253.383,352.515z"/>
        <path fill="#1A1A1A" d="M281.978,324.808c-2.586-0.149-5.125,0.012-7.627,0.781c-2.128,0.654-4.128,1.712-6.366,2.01
		c-0.047,0.006-0.091,0.032-0.137,0.049c-0.476,0.181-0.577,0.668-0.227,1.049c0.28,0.304,0.626,0.46,1.031,0.458
		c0.533-0.002,1.079,0.038,1.596-0.061c1.426-0.274,2.845-0.592,4.257-0.931c1.13-0.271,2.239-0.636,3.372-0.891
		c1.135-0.255,2.287-0.45,3.8-0.311c0.196,0,0.732,0.038,1.26-0.01c0.693-0.063,0.959-0.653,0.612-1.277
		C283.207,325.062,282.658,324.848,281.978,324.808z"/>
        <path fill="#1A1A1A" d="M298.858,279.218c0.425,0.071,0.865,0.099,1.295,0.08c0.918-0.04,1.834-0.123,2.751-0.189
		c0-0.025,0-0.05,0.001-0.074c0.919,0,1.839,0.034,2.756-0.01c0.868-0.041,1.739-0.124,2.598-0.258
		c0.965-0.151,1.256-0.952,0.629-1.697c-0.209-0.249-0.501-0.475-0.802-0.588c-0.351-0.132-0.755-0.187-1.133-0.174
		c-1.257,0.042-2.517,0.085-3.767,0.213c-1.248,0.128-2.491,0.333-3.726,0.559c-0.465,0.085-0.921,0.288-1.347,0.504
		c-0.386,0.196-0.423,0.623-0.187,1.002C298.147,278.941,298.471,279.153,298.858,279.218z"/>
        <path fill="#1A1A1A" d="M243.081,359.211c0.567,0.107,1.139,0.227,1.713,0.252c0.964,0.041,4.827-0.08,5.793-0.095
		c0.384-0.006,0.774-0.034,1.151-0.107c0.76-0.148,0.996-0.748,0.581-1.407c-0.431-0.685-1.101-0.915-1.856-0.938
		c-2.467-0.076-4.925,0.007-7.351,0.518c-0.232,0.049-0.466,0.122-0.678,0.226c-0.327,0.159-0.413,0.545-0.239,0.866
		C242.392,358.887,242.682,359.136,243.081,359.211z"/>
        <path fill="#1A1A1A" d="M283.303,345.436c0.488,0.187,1.026,0.258,1.55,0.332c0.621,0.089,1.248,0.148,1.874,0.189
		c2.12,0.137,4.241,0.265,6.362,0.383c0.335,0.019,0.681,0.009,1.01-0.051c0.666-0.122,0.917-0.803,0.459-1.321
		c-0.242-0.275-0.588-0.503-0.932-0.631c-0.352-0.131-0.758-0.138-1.142-0.158c-1.495-0.078-2.991-0.14-4.114-0.191
		c-1.679,0-2.983-0.006-4.288,0.004c-0.384,0.003-0.771,0.027-1.152,0.081c-0.278,0.039-0.48,0.447-0.317,0.683
		C282.797,345.02,283.025,345.329,283.303,345.436z"/>
        <path fill="#1A1A1A" d="M291.746,348.081c-0.357-0.122-0.749-0.182-1.129-0.196c-1.492-0.057-2.985-0.095-4.478-0.119
		c-0.48-0.008-0.962,0.036-1.44,0.087c-0.25,0.027-0.491,0.184-0.461,0.455c0.023,0.212,0.145,0.499,0.312,0.591
		c0.328,0.181,0.71,0.307,1.082,0.353c1.385,0.171,5.229,0.422,5.758,0.41c0.239-0.005,0.482-0.031,0.715-0.083
		c0.48-0.108,0.663-0.641,0.327-1.011C292.248,348.363,292.002,348.169,291.746,348.081z"/>
        <path fill="#1A1A1A" d="M284.377,201.441c-2.611-8.938-12.417-13.793-21.468-9.685c-2.87,1.303-5.041,3.42-6.835,5.955
		c-4.286,6.055-4.295,14.299,0.027,20.192c2.946,4.016,6.941,6.088,11.936,6.179c2.171-0.009,3.991-0.337,5.973-1.134
		C283.432,219.159,286.668,209.281,284.377,201.441z M275.933,216.974c-2.325,2.783-5.313,4.197-8.989,3.746
		c-2.865-0.352-5.211-1.752-7.082-3.934c-1.929-2.249-2.927-4.906-3.188-7.821c-0.307-3.433,0.433-6.654,2.274-9.592
		c1.831-2.923,4.49-4.646,7.856-5.247c1.97-0.352,3.861,0.057,5.643,0.943c1.453,0.723,2.695,1.718,3.714,2.984
		c2.18,2.708,3.262,5.803,3.26,9.645C279.447,210.977,278.249,214.201,275.933,216.974z"/>
        <path fill="#1A1A1A" d="M205.133,180.696c0.782,0.386,1.562,0.777,2.364,1.117c11.996,5.098,23.989,10.2,35.997,15.269
		c2.14,0.904,4.336,1.677,6.52,2.475c0.491,0.179,1.034,0.257,1.559,0.29c0.538,0.034,0.891-0.284,1.076-0.803
		c0.189-0.528,0.015-0.981-0.377-1.308c-0.444-0.37-0.925-0.716-1.439-0.976c-2.033-1.025-4.061-2.067-6.136-3.004
		c-10.38-4.684-20.773-9.338-31.163-13.998c-1.945-0.873-3.896-1.733-5.854-2.577c-0.485-0.209-1.008-0.331-1.462-0.477
		c-0.261,0.052-0.464,0.056-0.637,0.132c-0.892,0.391-1.286,1.14-1.393,2.059C204.095,179.7,204.39,180.33,205.133,180.696z"/>
        <path fill="#1A1A1A" d="M248.238,208.872c0.449-0.121,0.724-0.577,0.719-0.988c-0.005-0.455-0.378-0.904-0.898-1.004
		c-0.379-0.073-0.771-0.094-1.158-0.104c-2.085-0.058-4.171-0.154-6.257-0.149c-5.24,0.013-10.481,0.072-15.721,0.113
		c0-0.008,0-0.015,0-0.023c-7.181,0.1-14.361,0.198-21.542,0.3c-0.436,0.006-0.875,0.007-1.306,0.063
		c-0.648,0.085-1.021,0.551-1.017,1.2c0.006,0.99,0.686,1.78,1.673,1.856c0.626,0.048,1.26-0.003,1.89-0.015
		c10.527-0.199,21.054-0.385,31.581-0.604c3.443-0.072,6.885-0.218,10.327-0.356C247.103,209.137,247.682,209.022,248.238,208.872z"
        />
        <path fill="#1A1A1A" d="M245.002,174.858c2.689,3.613,5.37,7.232,8.114,10.803c1.119,1.457,2.372,2.813,3.597,4.185
		c0.415,0.466,0.918,0.858,1.407,1.252c0.315,0.253,0.683,0.359,1.078,0.124c0.407-0.242,0.633-0.586,0.642-1.337
		c-0.107-0.3-0.235-0.875-0.505-1.375c-0.735-1.363-1.479-2.725-2.309-4.03c-2.757-4.334-5.794-8.473-8.826-12.615
		c-0.428-0.585-0.91-1.133-1.396-1.672c-0.426-0.472-0.973-0.586-1.592-0.44c-0.592,0.139-1.073,0.443-1.446,0.911
		c-0.496,0.622-0.655,1.29-0.194,2.008C244.044,173.403,244.483,174.16,245.002,174.858z"/>
        <path fill="#1A1A1A" d="M314.77,228.533c-0.372-0.224-0.769-0.409-1.163-0.594c-1.842-0.866-3.693-1.712-5.528-2.591
		c-5.157-2.471-10.301-4.968-15.466-7.423c-1.267-0.602-2.587-1.095-3.895-1.604c-0.353-0.137-0.752-0.199-1.132-0.211
		c-0.534-0.016-0.995,0.375-1.188,0.911c-0.166,0.462-0.026,0.877,0.495,1.237c0.477,0.33,0.973,0.644,1.493,0.9
		c2.608,1.284,5.213,2.576,7.845,3.81c5.66,2.654,11.335,5.275,17.004,7.909c0.263,0.122,0.526,0.253,0.801,0.343
		c0.537,0.175,0.974,0.003,1.216-0.497c0.123-0.255,0.17-0.546,0.217-0.705C315.466,229.318,315.27,228.835,314.77,228.533z"/>
        <path fill="#1A1A1A" d="M288.353,196.454c-0.331,0.195-0.64,0.439-0.921,0.702c-0.305,0.286-0.307,0.706-0.075,1.062
		c0.263,0.404,0.649,0.562,1.256,0.586c0.286-0.072,0.717-0.149,1.126-0.29c0.778-0.269,1.557-0.541,2.311-0.87
		c2.842-1.239,5.694-2.46,8.506-3.765c3.779-1.754,7.602-3.421,11.254-5.438c0.254-0.14,0.519-0.268,0.755-0.435
		c0.486-0.345,0.642-0.828,0.462-1.408c-0.311-0.998-1.156-1.652-2.227-1.129c-1.174,0.573-2.429,0.978-3.604,1.549
		c-5.361,2.603-10.71,5.232-16.054,7.871C290.187,195.36,289.272,195.914,288.353,196.454z"/>
        <path fill="#1A1A1A" d="M269.087,186.95c0.139,0.553,0.575,0.761,1.093,0.793c0.72,0.044,1.317-0.337,1.61-1.019
		c0.113-0.264,0.2-0.55,0.239-0.834c0.118-0.864,0.249-1.73,0.298-2.599c0.142-2.517,0.477-12.014,0.537-14.244
		c0.019-0.724,0.004-1.459-0.093-2.175c-0.125-0.924-0.659-1.35-1.569-1.408c-1.236-0.078-2.034,0.714-2.079,1.743
		c-0.037,0.871-0.158,1.74-0.176,2.611c-0.08,3.975-0.15,7.951-0.193,11.927c-0.014,1.308,0.046,2.618,0.106,3.925
		C268.879,186.099,268.981,186.53,269.087,186.95z"/>
        <path fill="#1A1A1A" d="M280.85,190.077c0.255,0.121,1.71,0.005,2.028-0.256c0.559-0.458,1.099-0.964,1.545-1.531
		c2.879-3.659,5.735-7.335,8.583-11.018c0.323-0.418,0.583-0.895,0.814-1.373c0.221-0.457,0.222-0.949-0.081-1.387
		c-0.807-1.17-2.586-1.278-3.317-0.444c-0.447,0.51-0.917,1.005-1.307,1.557c-1.961,2.771-3.912,5.549-5.837,8.345
		c-0.797,1.157-1.539,2.354-2.269,3.555c-0.274,0.451-0.478,0.953-0.649,1.454C280.213,189.411,280.437,189.881,280.85,190.077z"/>
        <path fill="#1A1A1A" d="M259.245,224.273c-0.468,0.012-0.746,0.11-1.128,0.562c-0.5,0.591-0.976,1.206-1.417,1.841
		c-3.147,4.538-6.283,9.083-9.419,13.628c-0.275,0.398-0.553,0.799-0.78,1.225c-0.478,0.898-0.09,1.623,0.921,1.783
		c0.618,0.098,1.159-0.047,1.575-0.527c0.253-0.292,0.488-0.603,0.71-0.92c3.306-4.722,6.61-9.446,9.907-14.174
		c0.332-0.476,0.65-0.969,0.908-1.486C261.04,225.165,260.417,224.244,259.245,224.273z"/>
        <path fill="#1A1A1A" d="M269.474,226.88c-0.736-0.035-1.266,0.255-1.485,0.911c-0.152,0.455-0.25,0.941-0.282,1.419
		c-0.125,1.886-0.354,8.477-0.362,9.883c-0.002,0.436-0.07,0.873-0.052,1.307c0.028,0.678,0.434,1.049,1.106,1.101
		c0.906,0.07,1.921-0.627,1.959-1.698c0.097-2.713,0.297-5.422,0.441-8.133c0.044-0.823,0.057-1.648,0.048-2.472
		c-0.005-0.433-0.048-0.875-0.146-1.296C270.543,227.216,270.142,226.912,269.474,226.88z"/>
        <path fill="#1A1A1A" d="M300.464,206.273c-1.449-0.026-7.441,0.187-8.984,0.286c-0.672,0.043-1.351,0.133-2.002,0.298
		c-0.87,0.22-1.12,1.154-0.498,1.809c0.221,0.233,0.54,0.423,0.849,0.511c0.507,0.144,1.04,0.249,1.565,0.266
		c2.802,0.091,5.605,0.17,8.408,0.207c0.817,0.011,1.636-0.128,2.453-0.209c0.418-0.041,0.739-0.261,0.886-0.652
		c0.384-1.025-0.255-2.211-1.098-2.328C301.517,206.387,300.991,206.282,300.464,206.273z"/>
        <path fill="#1A1A1A" d="M281.179,225.013c-0.216-0.374-0.502-0.716-0.799-1.032c-0.316-0.336-0.8-0.37-1.207-0.153
		c-0.546,0.292-0.837,0.879-0.622,1.471c0.231,0.635,0.514,1.261,0.852,1.845c1.408,2.436,2.846,4.855,4.274,7.279
		c0.098,0.167,0.196,0.338,0.319,0.485c0.308,0.369,0.745,0.429,1.176,0.183c0.505-0.287,0.749-0.737,0.834-1.37
		c-0.077-0.213-0.138-0.504-0.278-0.751C284.222,230.314,282.708,227.659,281.179,225.013z"/>
        <path fill="#1A1A1A" d="M251.25,219.768c0.37-0.225,0.742-0.465,1.049-0.765c0.187-0.183,0.252-0.492,0.321-0.638
		c-0.049-1.07-1.022-1.828-1.94-1.579c-0.459,0.124-0.894,0.359-1.316,0.589c-1.439,0.787-2.868,1.592-4.299,2.395
		c-0.252,0.142-0.504,0.289-0.736,0.461c-0.592,0.436-0.713,0.999-0.376,1.646c0.485,0.929,1.363,1.25,2.312,0.834
		c0.22-0.096,0.431-0.218,0.638-0.341C248.354,221.506,249.807,220.644,251.25,219.768z"/>
        <path fill="#1A1A1A" d="M237.704,267.577c-0.07-0.513-0.39-0.758-0.897-0.755c-0.618,0.003-1.061,0.276-1.19,0.858
		c-0.136,0.612-0.232,1.244-0.246,1.87c-0.059,2.57-0.147,5.143-0.103,7.712c0.213,12.565,0.492,47.011,0.526,51.669
		c0.01,1.357,0.074,2.714,0.125,4.07c0.011,0.289,0.044,0.583,0.113,0.863c0.109,0.447,0.537,0.792,0.928,0.793
		c0.39,0.001,0.77-0.353,0.825-0.862c0.062-0.577,0.079-1.161,0.079-1.742c0.004-10.48-0.008-52.595-0.081-63.171
		C237.779,268.447,237.763,268.008,237.704,267.577z"/>
        <path fill="#1A1A1A" d="M232.416,228.387c-0.548-0.176-1.14-0.011-1.425,0.431c-0.129,0.2-0.226,0.431-0.289,0.662
		c-0.128,0.467-0.264,0.937-0.325,1.415c-0.283,2.212-0.617,4.42-0.795,6.641c-0.421,5.271-0.614,10.554-0.674,15.842
		c-0.109,9.605-0.091,19.208,0.324,28.807c0.071,1.646,0.199,3.291,0.324,4.935c0.033,0.432,0.14,0.86,0.238,1.284
		c0.082,0.352,0.298,0.625,0.658,0.708c0.425,0.098,0.783-0.109,1.001-0.44c0.177-0.27,0.29-0.614,0.327-0.937
		c0.049-0.43-0.001-0.871-0.015-1.307c-0.151-4.848-0.37-9.695-0.44-14.544c-0.148-10.139-0.024-20.275,0.531-30.402
		c0.173-3.148,0.375-6.293,0.789-9.42c0.115-0.865,0.197-1.734,0.306-2.712C232.972,228.841,232.809,228.513,232.416,228.387z"/>
        <path fill="#1A1A1A" d="M195.479,258.764c0.13,0.522,0.657,0.704,1.17,0.497c0.394-0.159,0.635-0.466,0.694-0.865
		c0.048-0.329,0.008-0.674-0.019-1.009c-0.064-0.82-0.177-1.638-0.211-2.459c-0.123-3.049-0.107-16.793-0.143-19.456
		c-0.003-0.241-0.014-0.486-0.056-0.723c-0.117-0.65-0.719-0.935-1.32-0.656c-0.482,0.224-0.761,0.624-0.86,1.106
		c-0.135,0.66-0.235,1.336-0.262,2.009c-0.086,2.176-0.136,4.354-0.192,6.531c-0.104,4.077,0.397,8.123,0.634,12.182
		C194.97,256.877,195.245,257.827,195.479,258.764z"/>
        <path fill="#1A1A1A" d="M214.605,297.495c-0.922-2.364-1.394-4.839-1.699-7.338c-0.275-2.257-0.443-4.529-0.599-6.798
		c-0.136-1.981-0.178-3.968-0.285-5.951c-0.031-0.572-0.324-0.89-0.737-0.932c-0.439-0.045-0.882,0.169-1.056,0.609
		c-0.139,0.352-0.222,0.743-0.242,1.121c-0.069,1.305-0.1,2.612-0.147,3.978c0.138,1.927,0.257,3.909,0.427,5.887
		c0.25,2.901,0.794,5.754,1.548,8.563c0.212,0.791,0.551,1.549,0.841,2.318c0.127,0.336,0.365,0.581,0.725,0.649
		c0.777,0.149,1.561-0.625,1.432-1.413C214.775,297.952,214.692,297.719,214.605,297.495z"/>
        </g>
</svg>
