<?xml version="1.0" encoding="utf-8"?>
<svg version="1.1" id="Layer_1" xmlns="http://www.w3.org/2000/svg"
     xmlns:xlink="http://www.w3.org/1999/xlink"
     x="0px" y="0px" viewBox="0 0 350 280"

     xml:space="preserve">
    <style type="text/css">.st0{fill-rule:evenodd;clip-rule:evenodd;}</style>
    <path fill="#232323" d="M284.608,160.396c0.047-0.529,0.109-0.748,0.079-0.954c-6.026-41.003-23.677-70.952-46.996-90.197
		c-1.077,8.28-5.253,15.846-11.649,21.159c1.897,20.581-15.329,37.807-35.912,35.912c-13.214,15.902-37.6,15.901-50.812,0
		c-20.582,1.893-37.81-15.328-35.912-35.912c-6.901-5.733-11.222-14.088-11.847-23.132c-26.217,19.436-46.664,50.45-54.012,92.631
		c59.39-26.617,76.422,22.063,52.74,80.887c23.559,9.928,84.062,17.445,144.552,6.43
		C205.517,197.992,214.645,128.673,284.608,160.396z"/>
    <path fill="#232323" d="M0.662,214.933c-5.767,25.432,27.4,42.358,50.706,42.562c16.573,0.145,29.301-12.216,35.273-27.32
		c4.339-10.975,5.965-22.464,6.226-34.19C92.867,130.71,11.538,166.979,0.662,214.933z M17.613,218.732
		c1.731-8.124,13.946-9.24,13.85-0.379c-0.036,1.085-0.582,2.494-1.564,3.726C24.84,228.424,16.186,225.428,17.613,218.732z
		 M37.522,236.993c-3.851,0.969-7.41-1.722-7.395-5.699c0.028-7.415,8.399-12.346,12.294-6.402c0.804,1.227,1.117,2.599,1.183,3.731
		C43.65,232.576,40.97,236.126,37.522,236.993z M49.144,238.679c-2.824-5.475,0.188-12.993,5.909-12.356
		c4.389,0.488,4.712,4.817,5.233,7.496C59.618,242.729,51.872,243.967,49.144,238.679z M50,222.083
		c-13.345-2.7-19.514-13.911-16.686-23.161c1.521-4.978,7.273-12.007,14.636-15.811c8.154-4.212,18.192-3.252,21.361,5.475
		c1.084,2.985,1.077,4.842,1.283,6.854C69.661,209.756,64.123,224.94,50,222.083z"/>
    <path fill="#232323" d="M321.075,218.239c-3.078-24.238-33.935-57.552-65.642-57.637c-28.307-0.076-31.153,33.589-23.506,61.814
		c5.641,20.82,20.088,36.955,42.651,34.901c17.277-1.573,33.703-11.337,41.025-20.621
		C319.861,231.297,321.952,225.148,321.075,218.239z M261.781,239.138c-1.071-1.599-1.506-3.383-1.651-5.319
		c0.424-2.18,0.625-6.984,5.233-7.496c2.436-0.271,4.3,0.79,5.53,2.805C276.108,237.671,266.752,246.56,261.781,239.138z
		 M270.416,222.083c-6.311,1.277-11.215-0.875-14.743-6.16c-7.754-11.616-9.321-32.443,4.548-34.956
		c12.083-2.189,24.513,10.207,26.881,17.955c2.03,6.643-0.678,14.312-6.959,18.958C277.226,220.038,273.957,221.367,270.416,222.083
		z M282.894,236.993c-3.448-0.868-6.128-4.417-6.082-8.37c0.302-5.201,5.044-7.736,8.526-5.675c3.124,1.848,4.938,4.635,4.951,8.346
		C290.304,235.271,286.744,237.963,282.894,236.993z M290.517,222.078c-3.116-3.909-1.306-8.632,2.505-9.689
		c4.119-1.143,8.839,1.918,9.781,6.343C304.22,225.383,295.622,228.483,290.517,222.078z"/>
    <path fill="#232323" d="M112.456,86.654c-5.303,18.664,11.904,35.928,30.612,30.612c9.456,16.977,33.86,16.97,43.312,0
		c18.664,5.303,35.928-11.904,30.612-30.612c16.997-9.467,16.969-33.861,0-43.312c5.303-18.664-11.904-35.928-30.612-30.612
		c-9.456-16.977-33.86-16.97-43.312,0c-18.664-5.303-35.928,11.904-30.612,30.612C95.428,52.826,95.52,77.222,112.456,86.654z"/>
</svg>
