<?xml version="1.0" encoding="utf-8"?>
<svg version="1.1" id="Layer_1" xmlns="http://www.w3.org/2000/svg"
     xmlns:xlink="http://www.w3.org/1999/xlink"
     x="0px" y="0px" viewBox="0 0 504 504"

     xml:space="preserve">
    <style type="text/css">.st0{fill-rule:evenodd;clip-rule:evenodd;}</style>
    <g>
            <path fill="#1A1A1A" d="M87.313,307.816c0.089-1.472-0.217-2.811-0.476-4.144c-0.827-4.245-2.11-8.368-3.39-12.493
		c-1.626-5.238-3.266-10.474-4.76-15.75c-1.513-5.342-2.378-10.813-2.724-16.358c-0.123-1.977-0.219-3.959-0.251-5.939
		c-0.109-6.695,0.781-13.277,2.302-19.785c1.789-7.654,4.546-14.96,7.906-22.049c1.936-4.086,3.934-8.143,5.835-12.246
		c2.44-5.267,4.363-10.72,5.774-16.358c1.251-5.002,1.464-10.039,0.709-15.126c-0.058-0.391-0.196-0.769-0.299-1.162
		c-0.85-0.202-1.64-0.375-2.423-0.578c-4.167-1.077-8.047-2.821-11.665-5.136c-1.926-1.232-3.807-2.534-5.692-3.83
		c-2.432-1.672-4.924-3.235-7.582-4.529c-2.492-1.213-5.105-1.986-7.863-2.268c-0.353-0.036-0.701-0.124-1.053-0.167
		c-1.582-0.192-1.921-1.46-1.128-2.52c0.263-0.352,0.46-0.754,0.752-1.24c-0.394-0.121-0.667-0.221-0.948-0.287
		c-0.593-0.139-1.2-0.227-1.781-0.402c-0.381-0.115-0.761-0.302-1.082-0.537c-0.596-0.436-0.73-1.134-0.348-1.753
		c0.235-0.381,0.549-0.714,0.822-1.062c-0.148-0.449-0.51-0.273-0.772-0.262c-2.539,0.105-5.076,0.276-7.619,0.047
		c-2.08-0.187-4.14-0.474-6.117-1.176c-0.57-0.202-1.15-0.435-1.649-0.768c-1.171-0.783-1.148-1.972,0.053-2.683
		c0.606-0.359,1.29-0.589,1.943-0.867c1.26-0.537,2.535-1.04,3.78-1.61c1.023-0.468,1.924-1.138,2.738-1.914
		c0.363-0.346,0.773-0.674,0.867-1.257c-0.367-0.156-0.748-0.295-1.108-0.477c-0.361-0.182-0.732-0.369-1.045-0.62
		c-1.078-0.865-1.071-2.127,0.001-2.978c0.237-0.188,0.502-0.349,0.77-0.491c3.629-1.923,6.733-4.526,9.689-7.343
		c2.023-1.928,4.092-3.813,6.225-5.618c1.392-1.178,2.934-2.18,4.41-3.26c0.243-0.178,0.492-0.347,0.836-0.59
		c-0.279-0.177-0.466-0.328-0.678-0.425c-1.293-0.59-2.609-1.133-3.886-1.756c-1.882-0.918-3.624-2.061-5.15-3.503
		c-2.164-2.044-3.636-4.482-4.156-7.454c-0.201-1.145-0.217-2.233,0.711-3.192c-0.304-0.617-0.596-1.2-0.88-1.787
		c-0.511-1.055-0.959-2.132-1.149-3.298c-0.041-0.251-0.097-0.499-0.125-0.751c-0.137-1.264,0.043-2.368,1.474-2.752
		c0.101-0.671-0.259-1.139-0.472-1.638c-1.059-2.485-1.9-5.037-2.423-7.689c-0.424-2.149-0.68-4.319-0.708-6.508
		c-0.011-0.909,0.118-1.822,0.226-2.728c0.041-0.346,0.167-0.693,0.316-1.011c0.55-1.175,1.506-1.605,2.761-1.242
		c0.388,0.112,0.765,0.278,1.128,0.458c6.001,2.994,12.174,5.614,18.279,8.382c2.171,0.985,4.278,2.119,6.379,3.25
		c1.975,1.062,3.796,2.36,5.464,3.866c4.28,3.863,7.035,8.628,8.412,14.209c0.108,0.437,0.235,0.87,0.38,1.399
		c5.184-1.533,10.336-2.723,15.733-2.723c5.41,0,10.577,1.156,15.793,2.728c0.14-0.465,0.286-0.885,0.392-1.316
		c1.691-6.9,5.378-12.457,11.242-16.49c1.71-1.176,3.539-2.203,5.393-3.141c2.581-1.307,5.213-2.519,7.865-3.676
		c4.377-1.91,8.72-3.887,13.004-5.996c0.682-0.336,1.373-0.673,2.092-0.912c1.37-0.455,2.454,0.027,2.909,1.406
		c0.298,0.901,0.439,1.885,0.467,2.837c0.073,2.447-0.247,4.867-0.715,7.267c-0.508,2.604-1.334,5.108-2.375,7.545
		c-0.217,0.507-0.416,1.021-0.615,1.511c1.612,1.069,1.835,1.608,1.515,3.478c-0.199,1.161-0.581,2.261-1.098,3.316
		c-0.312,0.637-0.618,1.277-0.951,1.966c1.058,1.172,0.869,2.529,0.552,3.892c-0.631,2.71-2.055,4.957-4.074,6.838
		c-1.65,1.537-3.543,2.725-5.566,3.7c-1.051,0.507-2.135,0.947-3.203,1.42c-0.265,0.117-0.526,0.243-0.91,0.422
		c0.243,0.229,0.36,0.381,0.512,0.475c2.958,1.823,5.585,4.066,8.131,6.409c1.571,1.446,3.126,2.909,4.679,4.374
		c2.118,1.998,4.442,3.714,6.977,5.147c0.53,0.3,1.074,0.588,1.563,0.947c1.175,0.862,1.204,2.197,0.023,3.055
		c-0.608,0.441-1.334,0.718-2.107,1.121c0.156,0.261,0.281,0.575,0.495,0.809c0.865,0.948,1.882,1.718,3.038,2.266
		c1.237,0.586,2.512,1.091,3.774,1.625c0.561,0.237,1.136,0.441,1.689,0.695c0.272,0.125,0.536,0.3,0.755,0.504
		c0.628,0.585,0.67,1.436,0.048,2.02c-0.361,0.339-0.808,0.631-1.268,0.813c-0.847,0.334-1.718,0.633-2.605,0.837
		c-2.839,0.652-5.725,0.849-8.633,0.744c-1.318-0.048-2.636-0.116-3.914-0.173c-0.303,0.456,0.08,0.61,0.264,0.792
		c1.067,1.056,0.734,2.285-0.792,2.775c-0.626,0.201-1.28,0.314-1.921,0.469c-0.287,0.069-0.573,0.144-0.807,0.203
		c-0.199,0.359,0.004,0.553,0.13,0.759c0.211,0.347,0.47,0.67,0.644,1.034c0.405,0.852,0.062,1.638-0.849,1.932
		c-0.432,0.139-0.89,0.231-1.343,0.27c-3.453,0.297-6.654,1.402-9.644,3.103c-1.941,1.104-3.83,2.302-5.708,3.512
		c-1.666,1.073-3.276,2.231-4.923,3.333c-4.087,2.735-8.477,4.809-13.274,5.959c-0.643,0.154-0.935,0.439-1.034,1.094
		c-1.086,7.159-1.534,14.356-1.166,21.586c0.34,6.68,1.468,13.221,3.884,19.5c2.433,6.324,5.905,12.011,10.273,17.187
		c5.339,6.326,11.455,11.824,17.885,16.988c5.231,4.2,10.532,8.314,15.802,12.466c4.922,3.878,9.542,8.079,13.673,12.803
		c2.011,2.3,3.888,4.698,5.54,7.27c0.186,0.29,0.415,0.552,0.64,0.847c0.242-0.116,0.429-0.184,0.595-0.287
		c5.233-3.243,9.863-7.167,13.562-12.123c3.975-5.326,6.377-11.286,7.201-17.891c0.68-5.446,0.436-10.857-0.512-16.244
		c-1.194-6.783-3.328-13.293-5.795-19.704c-1.642-4.266-3.306-8.525-4.861-12.823c-1.679-4.642-2.939-9.407-3.723-14.284
		c-0.868-5.396-1.038-10.816-0.474-16.26c0.703-6.793,2.538-13.255,5.563-19.376c1.377-2.786,2.97-5.445,4.847-7.922
		c3.061-4.041,6.649-7.528,10.835-10.415c3.564-2.458,7.44-4.162,11.652-5.082c5.993-1.309,11.824-0.663,17.471,1.673
		c5.338,2.209,9.67,5.746,13.241,10.241c4.408,5.548,6.974,11.888,7.901,18.886c0.964,7.276,0.019,14.304-3.109,20.97
		c-3.834,8.169-10.075,13.653-18.697,16.348c-4.402,1.376-8.885,1.598-13.391,0.499c-3.007-0.733-5.731-2.048-8.066-4.113
		c-1.305-1.154-2.425-2.46-3.267-3.992c-0.949-1.727-1.473-3.565-1.394-5.547c0.129-3.27,2.179-5.631,5.393-6.28
		c1.214-0.245,2.431-0.218,3.644-0.096c1.921,0.193,3.837,0.436,5.754,0.663c6.726,0.796,12.252-1.43,16.326-6.824
		c6.464-8.556,3.444-20.464-6.083-25.098c-5.444-2.648-11.04-2.885-16.717-0.812c-3.124,1.141-5.976,2.775-8.591,4.846
		c-6.719,5.32-10.92,12.194-12.876,20.507c-0.973,4.135-1.419,8.308-1.237,12.55c0.162,3.783,0.97,7.446,2.04,11.062
		c1.155,3.903,2.619,7.692,4.242,11.421c2.879,6.614,5.709,13.247,8.218,20.015c1.946,5.252,3.521,10.603,4.594,16.1
		c1.058,5.419,1.439,10.889,0.978,16.389c-0.647,7.724-2.712,15.086-6.045,22.077c-3.33,6.985-7.636,13.302-13.158,18.754
		c-2.499,2.468-5.188,4.719-8.102,6.846c-0.014,0.406-0.049,0.854-0.04,1.301c0.11,5.77-1.006,11.312-3.079,16.68
		c-1.407,3.644-3.422,6.933-5.984,9.855c-2.581,2.944-5.906,4.773-9.651,5.837c-3.09,0.878-6.25,1.357-9.454,1.566
		c-11.371,0.74-22.755,0.878-34.145,0.702c-7.474-0.115-14.945,0.038-22.417,0.177c-13.317,0.247-26.635,0.467-39.952,0.686
		c-1.473,0.024-2.952,0.035-4.42-0.07c-1.055-0.076-2.111-0.293-3.138-0.557c-3.793-0.973-6.858-5.327-5.175-10.165
		c0.757-2.176,2.09-3.966,3.863-5.379c0.912-0.727,1.292-1.512,1.423-2.655c0.491-4.303,2.928-7.14,6.919-8.678
		c1.617-0.623,3.319-0.948,5.028-1.209c1.104-0.168,2.22-0.256,3.329-0.393C86.288,307.997,86.776,307.903,87.313,307.816z"/>
        <g>
                <path fill="#1A1A1A" d="M416.659,410.234c0.682,0.341,1.403,0.3,2.097,0.365c2.281,0.215,4.535,0.572,6.736,1.22
			c0.583,0.172,1.166,0.361,1.721,0.606c3.839,1.694,5.868,4.702,6.344,8.819c0.046,0.4,0.059,0.805,0.09,1.241
			c0.357,0.294,0.708,0.581,1.057,0.871c1.424,1.182,2.612,2.562,3.466,4.21c0.838,1.617,1.26,3.325,0.959,5.152
			c-0.456,2.758-1.958,4.755-4.488,5.937c-1.348,0.63-2.798,0.941-4.286,0.955c-2.643,0.025-5.287,0.032-7.929-0.005
			c-8.845-0.125-17.69-0.26-26.535-0.415c-6.1-0.107-12.198-0.299-18.298-0.373c-5.032-0.061-10.067-0.063-15.099,0.015
			c-7.628,0.118-15.252-0.024-22.875-0.208c-3.657-0.088-7.313-0.322-10.962-0.588c-3.197-0.233-6.354-0.771-9.416-1.76
			c-4.132-1.335-7.529-3.699-10.181-7.163c-3.113-4.066-5.126-8.637-6.347-13.571c-0.426-1.722-0.669-3.489-0.993-5.236
			c-0.083-0.449-0.155-0.899-0.238-1.386c-0.836-0.319-1.709-0.277-2.553-0.349c-6.97-0.595-13.573-2.423-19.754-5.739
			c-6.6-3.541-11.65-8.617-15.091-15.262c-1.997-3.856-3.034-7.969-2.86-12.337c0.127-3.175,0.851-6.233,1.953-9.207
			c0.937-2.531,2.098-4.957,3.379-7.33c1.86-3.448,3.964-6.746,6.086-10.035c3.472-5.38,6.986-10.735,10.362-16.176
			c2.761-4.449,5.218-9.075,7.319-13.877c1.449-3.312,2.611-6.714,3.26-10.289c1.103-6.075,0.709-12.04-1.125-17.924
			c-0.833-2.673-1.841-5.282-3.098-7.779c-1.987-3.948-4.018-7.875-6.103-11.772c-2.83-5.288-5.618-10.594-7.877-16.159
			c-1.878-4.626-3.407-9.359-4.285-14.279c-1.453-8.139-1.211-16.195,1.411-24.095c1.655-4.985,4.221-9.452,7.827-13.298
			c1.642-1.751,3.433-3.327,5.504-4.554c2.258-1.338,4.66-2.258,7.318-2.37c1.123-0.048,2.23,0.027,3.317,0.359
			c2.04,0.624,3.589,1.868,4.683,3.68c1.209,2.003,1.767,4.193,1.859,6.524c0.117,2.977-0.364,5.874-1.101,8.74
			c-0.836,3.251-1.891,6.432-3.047,9.58c-1.525,4.151-2.869,8.354-3.86,12.672c-1.739,7.573-1.118,14.949,1.782,22.127
			c1.007,2.493,2.17,4.927,3.333,7.354c1.8,3.757,3.704,7.464,5.484,11.231c1.784,3.775,3.167,7.7,4.114,11.775
			c0.87,3.743,1.078,7.535,0.971,11.36c-0.19,6.762-1.88,13.15-4.784,19.233c-2.106,4.412-4.516,8.651-7.413,12.596
			c-3.099,4.219-6.253,8.398-9.372,12.603c-2.543,3.429-5.109,6.843-7.593,10.314c-1.835,2.563-3.456,5.269-4.909,8.071
			c-1.576,3.04-2.831,6.205-3.346,9.602c-0.897,5.913,0.142,11.454,3.577,16.418c2.334,3.372,5.559,5.636,9.461,6.846
			c4.463,1.384,9.047,1.844,13.709,1.429c0.598-0.053,1.223,0.049,1.857-0.313c0.126-0.59,0.27-1.227,0.399-1.867
			c2.099-10.367,6.786-19.4,13.918-27.202c4.095-4.48,8.568-8.536,13.339-12.274c5.122-4.013,10.271-7.991,15.365-12.039
			c4.62-3.671,9.034-7.58,13.176-11.79c3.649-3.709,6.904-7.736,9.722-12.107c4.127-6.401,6.859-13.348,8.15-20.867
			c1.115-6.497,1.354-13.027,0.978-19.599c-0.2-3.505-0.571-6.989-1.055-10.463c-0.062-0.447-0.174-0.887-0.27-1.363
			c-0.384-0.111-0.716-0.216-1.053-0.303c-4.318-1.111-8.346-2.89-12.083-5.311c-2.047-1.326-4.055-2.713-6.069-4.089
			c-2.606-1.78-5.299-3.4-8.191-4.685c-2.064-0.917-4.223-1.436-6.449-1.736c-0.604-0.081-1.217-0.144-1.8-0.308
			c-0.994-0.279-1.35-1.109-0.888-2.022c0.249-0.493,0.573-0.947,0.923-1.516c-0.335-0.132-0.587-0.264-0.856-0.33
			c-0.591-0.143-1.221-0.175-1.778-0.397c-0.551-0.22-1.09-0.555-1.527-0.956c-0.527-0.484-0.61-1.135-0.315-1.824
			c0.27-0.629,0.716-1.104,1.224-1.534c1.571-1.331,3.372-2.261,5.284-2.98c2.397-0.901,4.904-1.305,7.441-1.523
			c2.785-0.238,5.579-0.385,8.359-0.668c5.253-0.535,10.11-2.141,14.349-5.417c2.376-1.836,4.728-3.697,6.889-5.78
			c2.891-2.786,5.724-5.633,8.585-8.45c2.789-2.746,5.575-5.495,8.379-8.227c0.727-0.709,1.517-1.354,2.275-2.031
			c2.718-2.428,5.797-4.276,9.135-5.717c3.033-1.31,6.118-2.47,9.284-3.425c3.014-0.909,6.006-1.885,8.839-3.296
			c2.74-1.365,5.016-3.265,6.825-5.726c1.969-2.679,2.636-5.689,2.117-8.944c-0.345-2.169-1.381-4.014-2.935-5.571
			c-0.381-0.382-0.887-0.669-1.127-1.276c0.454-0.217,0.851-0.424,1.26-0.6c4.524-1.952,9.017-3.97,13.415-6.195
			c0.633-0.32,1.289-0.61,1.961-0.834c1.44-0.478,2.481,0.045,3.008,1.49c0.425,1.167,0.448,2.396,0.414,3.614
			c-0.136,4.776-1.121,9.371-3.022,13.762c-0.202,0.466-0.391,0.938-0.578,1.409c-0.036,0.091-0.039,0.196-0.058,0.294
			c0.05,0.082,0.085,0.218,0.153,0.238c1.224,0.355,1.492,1.289,1.403,2.388c-0.103,1.274-0.415,2.504-0.97,3.664
			c-0.372,0.777-0.741,1.556-1.128,2.37c0.084,0.184,0.136,0.384,0.252,0.536c0.465,0.61,0.533,1.303,0.469,2.029
			c-0.144,1.645-0.65,3.18-1.442,4.622c-1.096,1.996-2.622,3.607-4.448,4.951c-2.103,1.549-4.433,2.667-6.83,3.669
			c-0.394,0.165-0.933,0.144-1.152,0.673c0.112,0.101,0.21,0.219,0.334,0.296c2.914,1.794,5.516,3.989,8.028,6.295
			c1.311,1.203,2.599,2.43,3.893,3.653c2.523,2.384,5.26,4.479,8.302,6.165c0.444,0.246,0.892,0.496,1.293,0.804
			c1.072,0.823,1.099,1.947,0.058,2.826c-0.343,0.289-0.768,0.488-1.17,0.7c-0.309,0.163-0.641,0.281-0.919,0.401
			c-0.177,0.424,0.096,0.632,0.286,0.841c0.899,0.988,1.942,1.798,3.152,2.363c1.334,0.623,2.691,1.195,4.039,1.787
			c0.511,0.224,1.046,0.404,1.536,0.669c1.447,0.783,1.477,2.079,0.051,2.933c-0.516,0.31-1.1,0.524-1.675,0.716
			c-2.185,0.73-4.45,1.093-6.738,1.145c-2.334,0.053-4.672-0.084-7.008-0.137c-0.198-0.004-0.397-0.001-0.727-0.001
			c0.15,0.251,0.229,0.422,0.343,0.565c0.189,0.238,0.435,0.436,0.597,0.689c0.454,0.705,0.27,1.506-0.431,1.994
			c-0.729,0.507-1.577,0.678-2.424,0.854c-0.381,0.079-0.757,0.183-1.273,0.309c0.337,0.546,0.605,0.961,0.854,1.387
			c0.706,1.208,0.36,2.038-1.036,2.341c-1.04,0.225-2.103,0.349-3.155,0.521c-1.714,0.28-3.351,0.806-4.935,1.518
			c-2.464,1.107-4.803,2.432-7.039,3.943c-2.232,1.508-4.444,3.046-6.696,4.522c-3.766,2.468-7.807,4.342-12.179,5.466
			c-0.785,0.202-1.577,0.377-2.421,0.577c-0.428,1.096-0.453,2.267-0.584,3.413c-0.555,4.869,0.082,9.626,1.344,14.33
			c1.465,5.463,3.428,10.741,5.835,15.854c1.731,3.677,3.496,7.339,5.272,10.995c4.152,8.546,7.196,17.456,8.95,26.804
			c1.121,5.971,1.607,11.985,1.362,18.053c-0.352,8.737-2.008,17.23-4.633,25.568c-1.982,6.296-4.115,12.549-5.745,18.953
			c-0.565,2.219-1.018,4.458-1.221,6.741C416.644,409.802,416.659,409.999,416.659,410.234z"/>
            <g>
                    <g>
                        <path fill="#1A1A1A" d="M419.789,174.761c1.619-0.045,4.191,0.432,6.632,1.573c1.794,0.839,3.224,2.087,4.345,3.719
					c1.396,2.032,1.461,4.19,0.556,6.384c-0.79,1.916-2.114,3.459-3.75,4.727c-1.374,1.065-2.895,1.875-4.486,2.564
					c-2.992,1.295-6.118,2.177-9.252,3.041c-1.223,0.337-2.451,0.664-3.66,1.047c-3.317,1.051-6.392,2.604-9.259,4.568
					c-3.7,2.535-7.116,5.417-10.307,8.563c-1.447,1.427-2.854,2.897-4.236,4.387c-2.801,3.019-5.633,6.007-8.646,8.817
					c-2.377,2.217-4.762,4.41-7.507,6.206c-3.457,2.262-7.174,3.763-11.215,4.546c-2.198,0.426-4.411,0.699-6.635,0.934
					c-2.778,0.292-5.557,0.598-8.321,0.997c-1.351,0.195-2.686,0.557-3.999,0.943c-1.575,0.463-3.019,1.222-4.215,2.368
					c-0.843,0.807-1.659,1.647-2.436,2.518c-3.042,3.416-6.044,6.867-9.319,10.068c-1.822,1.781-3.751,3.426-5.926,4.768
					c-1.238,0.763-2.563,1.21-4.032,1.203c-2.647-0.013-4.554-1.151-5.684-3.593c-1.194-2.579-1.456-5.264-1.062-8.041
					c0.652-4.594,2.617-8.619,5.364-12.299c1.341-1.797,2.859-3.44,4.493-4.972c1.853-1.737,3.739-3.441,5.6-5.17
					c0.856-0.796,1.721-1.587,2.523-2.435c2.494-2.637,5.362-4.82,8.3-6.921c4.272-3.054,8.868-5.553,13.602-7.793
					c4.406-2.085,8.838-4.116,13.288-6.105c5.568-2.489,11.002-5.242,16.365-8.138c3.626-1.958,7.069-4.208,10.443-6.57
					c6.419-4.493,13.448-7.76,20.883-10.154C411.632,175.417,415.14,174.823,419.789,174.761z"/>
                        <path fill="#1A1A1A" d="M371.609,172.826c-0.616,0.409-1.024,0.702-1.453,0.961c-3.871,2.341-7.826,4.532-11.878,6.543
					c-6.551,3.251-13.126,6.457-19.671,9.72c-2.272,1.133-4.487,2.381-6.728,3.575c-0.401,0.214-0.804,0.425-1.194,0.632
					c-0.281-0.267-0.099-0.49-0.006-0.707c0.438-1.028,0.856-2.066,1.335-3.075c0.392-0.827,0.346-1.564-0.237-2.27
					c-0.162-0.196-0.289-0.421-0.459-0.608c-0.975-1.076-1.33-2.375-1.371-3.787c-0.019-0.661-0.02-1.322-0.032-1.982
					c-0.022-1.208-0.419-2.29-1.116-3.266c-0.236-0.331-0.476-0.66-0.731-0.976c-1.658-2.057-2.022-4.397-1.435-6.904
					c0.336-1.432,0.775-2.842,1.203-4.251c0.841-2.772,1.708-5.542,2.084-8.422c0.243-1.861,0.402-3.739,0.474-5.615
					c0.09-2.336,0.027-4.677,0.075-7.015c0.074-3.559,0.255-7.11,0.876-10.626c0.417-2.36,1.023-4.668,1.938-6.881
					c1.326-3.206,3.537-5.667,6.499-7.455c1.198-0.723,2.506-1.122,3.907-1.128c1.066-0.005,2.137,0.016,3.197,0.118
					c2.478,0.239,4.952,0.522,7.425,0.81c2.071,0.241,4.123,0.595,6.113,1.24c1.753,0.569,3.382,1.386,4.869,2.479
					c2.382,1.752,3.904,4.106,4.768,6.903c0.542,1.753,0.483,3.517-0.091,5.252c-0.596,1.8-1.46,3.472-2.68,4.929
					c-1.941,2.318-4.383,3.758-7.442,4.003c-1.821,0.146-3.553-0.237-5.124-1.165c-2.328-1.375-3.478-3.482-3.614-6.158
					c-0.018-0.352,0.004-0.719,0.085-1.06c0.467-1.961,2.645-2.798,4.14-1.47c0.644,0.572,1.207,1.234,1.81,1.852
					c0.39,0.399,0.761,0.822,1.184,1.184c1.068,0.916,3.17,0.926,4.055-0.766c0.428-0.819,0.763-1.666,0.916-2.573
					c0.218-1.286-0.081-2.442-1.082-3.323c-0.684-0.602-1.384-1.215-2.162-1.677c-2.559-1.518-5.307-2.549-8.278-2.896
					c-0.753-0.088-1.524-0.078-2.283-0.038c-0.967,0.051-1.729,0.493-2.279,1.322c-0.712,1.073-1.192,2.243-1.52,3.475
					c-0.778,2.926-0.998,5.908-0.782,8.92c0.142,1.979,0.412,3.938,1.037,5.838c1.119,3.4,3.07,6.173,6.091,8.134
					c1.235,0.802,2.528,1.513,3.779,2.29c1.121,0.696,2.257,1.378,3.324,2.152c1.734,1.257,2.957,2.917,3.624,4.968
					c0.298,0.918,0.618,1.829,0.892,2.754c0.617,2.09,1.941,3.533,3.937,4.373c0.936,0.394,1.878,0.773,2.816,1.161
					C370.74,172.453,371.063,172.594,371.609,172.826z"/>
                    </g>
                <path fill="#CB5E32" d="M329.379,198.409c0.377-0.238,0.791-0.527,1.229-0.773c2.347-1.315,4.656-2.705,7.058-3.91
				c6.713-3.366,13.456-6.672,20.206-9.965c5.616-2.739,11.135-5.648,16.408-9.008c0.21-0.134,0.438-0.239,0.723-0.394
				c4.6,2.049,8.381,5.224,12.13,8.666c-0.448,0.361-0.783,0.651-1.139,0.913c-5.127,3.769-10.582,6.991-16.292,9.797
				c-5.921,2.91-11.885,5.723-17.943,8.34c-3.539,1.529-7.041,3.145-10.536,4.774c-2.626,1.223-5.144,2.648-7.521,4.313
				c-0.205,0.143-0.429,0.259-0.644,0.387C331.183,208.587,329.097,201.182,329.379,198.409z"/>
                </g>
            </g>
        </g>
</svg>
