<?xml version="1.0" encoding="utf-8"?>
<svg version="1.1" id="Layer_1" xmlns="http://www.w3.org/2000/svg"
     xmlns:xlink="http://www.w3.org/1999/xlink"
     x="0px" y="0px" viewBox="0 0 512 512"

     xml:space="preserve">
    <style type="text/css">.st0{fill-rule:evenodd;clip-rule:evenodd;}</style>
    <g>
            <g>
                <path fill="#1A1A1A" d="M488.865,140.229c-0.89-1.102-1.885-2.14-2.947-3.078c-1.842-1.626-3.941-2.904-6.055-4.149
			c-5.023-2.959-10.329-5.313-15.799-7.296c-8.916-3.233-18.005-5.75-27.513-6.496c-3.607-0.283-7.178-0.036-10.713,0.674
			c-4.286,0.861-8.26,2.556-12.026,4.742c-1.921,1.115-3.785,2.328-5.676,3.494c-0.528,0.326-1.063,0.641-1.563,0.941
			c-0.548-0.273-1.002-0.5-1.535-0.766c-2.349,1.236-4.724,2.468-7.077,3.74c-0.386,0.209-0.692,0.581-1.005,0.905
			c-1.504,1.558-2.998,3.125-4.494,4.69c-1.557,1.628-3.403,2.865-5.416,3.83c-3.501,1.679-7.131,2.704-11.076,1.941
			c-0.417-0.081-0.896,0.029-1.319,0.148c-0.488,0.137-0.945,0.383-1.5,0.617c0.233,0.434,0.44,0.828,0.655,1.218
			c0.631,1.146,1.327,2.263,1.877,3.447c0.341,0.734,0.82,1.153,1.55,1.455c4.423,1.829,9.019,2.815,13.803,2.835
			c3.607,0.015,7.151-0.521,10.639-1.441c4.69-1.237,9.214-2.947,13.705-4.758c7.391-2.98,14.714-6.123,22.323-8.551
			c7.143-2.279,14.379-2.836,21.772-1.754c3.669,0.537,7.268,1.386,10.827,2.41c2.133,0.614,4.26,1.25,6.388,1.881
			c0.365,0.108,0.786,0.136,0.976,0.592c-0.639,0-1.259,0.042-1.871-0.007c-4.496-0.359-8.998-0.4-13.5-0.208
			c-3.815,0.163-7.617,0.522-11.383,1.183c-5.506,0.966-10.898,2.392-16.212,4.11c-7.367,2.382-14.711,4.835-22.089,7.182
			c-5.702,1.814-11.477,3.357-17.445,4.047c-5.523,0.638-10.919,0.216-16.12-1.89c-0.34-0.138-0.709-0.201-1.156-0.324
			c-0.037,0.699-0.042,1.264-0.101,1.823c-0.327,3.123-2.047,4.679-5.199,4.703c-0.626,0.005-1.257,0-1.879-0.067
			c-2.04-0.219-4.065-0.536-6.043-1.103c-0.587-0.168-1.179-0.318-1.997-0.538c0.273,0.563,0.419,0.909,0.602,1.234
			c1.063,1.885,2.183,3.74,3.182,5.658c0.468,0.899,0.808,1.893,1.035,2.884c0.435,1.906-0.383,3.368-2.218,4.08
			c-0.629,0.244-1.313,0.428-1.983,0.472c-1.419,0.094-2.839,0.093-4.259-0.152c-2.757-0.476-5.453-1.167-8.1-2.064
			c-0.257-0.087-0.523-0.249-0.87,0.075c0.178,0.652,0.378,1.35,0.557,2.053c0.281,1.103,0.625,2.196,0.807,3.316
			c0.448,2.756-1.256,4.796-4.05,4.979c-1.46,0.095-2.827-0.231-4.154-0.795c-1.896-0.806-3.648-1.869-5.353-3.015
			c-0.851-0.572-1.679-1.179-2.534-1.745c-0.206-0.136-0.478-0.171-0.776-0.271c-0.368,2.665-0.998,5.145-1.814,7.578
			c-0.473,1.41-1.077,2.763-1.919,3.992c-0.384,0.56-0.817,1.103-1.308,1.569c-0.795,0.754-1.745,1.002-2.843,0.706
			c-0.844-0.227-1.619-0.584-2.276-1.133c-0.828-0.692-1.679-1.389-2.362-2.215c-1.232-1.49-2.347-3.077-3.51-4.624
			c-0.165-0.22-0.296-0.502-0.674-0.326c-0.277,0.913-0.511,1.855-0.852,2.756c-0.28,0.74-0.609,1.486-1.054,2.135
			c-1.083,1.577-2.72,2.067-4.507,1.349c-0.673-0.27-1.326-0.674-1.875-1.148c-0.64-0.554-1.223-1.205-1.711-1.898
			c-0.719-1.022-1.328-2.122-1.993-3.182c-0.174-0.277-0.381-0.533-0.569-0.792c-0.722,0.397-1.019,0.988-1.238,1.659
			c-0.212,0.647-0.422,1.309-0.748,1.902c-1.184,2.157-1.636,4.484-1.675,6.906c-0.067,4.13-0.72,8.163-1.889,12.12
			c-0.323,1.092-0.59,2.2-0.887,3.299c-0.568,2.102-0.726,4.265-0.949,6.417c-0.102,0.976-0.443,1.729-1.455,2.099
			c-1.239,0.452-1.673,1.448-1.656,2.707c0.014,0.969-0.019,1.938-0.012,2.907c0.009,1.361-0.541,2.28-1.729,3.08
			c-3.397,2.288-5.492,5.407-5.477,9.674c0.005,1.482-0.016,2.964,0.01,4.446c0.053,2.945-0.485,5.779-1.503,8.534
			c-0.355,0.961-0.71,1.925-1.007,2.905c-0.589,1.94-0.742,3.916-0.319,5.911c0.271,1.281,0.548,2.562,0.885,3.827
			c0.707,2.648,1.275,5.312,1.413,8.063c0.066,1.305,0.312,2.6,0.465,3.9c0.185,1.583,0.388,3.166,0.528,4.754
			c0.201,2.27,0.311,4.546,0.921,6.762c0.792,2.875,1.169,5.802,1.061,8.79c-0.073,2.011,0.274,3.962,0.814,5.9
			c1.544,5.543,3.11,11.075,5.37,16.385c1.454,3.416,1.953,7.014,1.745,10.705c-0.138,2.446-0.258,4.9-0.561,7.328
			c-0.522,4.186,0.061,8.18,1.751,12.023c1.1,2.503,2.211,5.001,3.368,7.478c3.287,7.033,6.158,14.21,7.898,21.805
			c0.572,2.496,1.35,4.945,1.953,7.434c1.145,4.722,1.281,9.473,0.178,14.226c-0.491,2.116-1.178,4.172-2.319,6.037
			c-0.35,0.572-0.818,1.084-1.294,1.563c-0.245,0.247-0.671,0.285-0.926-0.004c-0.161-0.182-0.265-0.539-0.204-0.766
			c0.13-0.488,0.367-0.952,0.589-1.412c2.031-4.209,2.801-8.653,2.415-13.293c-0.204-2.452-0.739-4.839-1.734-7.109
			c-0.844-1.926-2.043-3.535-3.877-4.645c-1.418-0.858-2.704-1.907-3.848-3.107c-0.802-0.841-1.738-1.463-2.767-1.971
			c-4.853-2.394-9.913-2.838-15.143-1.577c-3.55,0.856-6.966,2.12-10.383,3.392c-2.398,0.893-4.84,1.672-7.277,2.453
			c-2.87,0.92-5.818,1.052-8.792,0.701c-2.497-0.295-4.994-0.422-7.507-0.268c-1.479,0.091-2.961,0.17-4.442,0.166
			c-1.251-0.003-2.519-0.026-3.748-0.228c-3.602-0.593-7.106-1.587-10.52-2.876c-3.358-1.267-6.728-2.494-10.222-3.336
			c-5.479-1.319-10.747-0.79-15.743,1.894c-0.595,0.32-1.187,0.705-1.663,1.178c-1.462,1.454-3.04,2.752-4.774,3.864
			c-1.279,0.82-2.25,1.921-2.924,3.277c-0.354,0.713-0.702,1.435-0.973,2.182c-1.431,3.944-1.68,8.009-1.109,12.133
			c0.362,2.615,1.185,5.098,2.357,7.465c0.176,0.356,0.383,0.715,0.463,1.096c0.05,0.237-0.04,0.578-0.196,0.767
			c-0.246,0.3-0.642,0.256-0.929,0.044c-0.315-0.233-0.621-0.515-0.833-0.84c-0.434-0.666-0.854-1.352-1.19-2.071
			c-1.218-2.605-1.944-5.358-2.195-8.214c-0.337-3.831-0.097-7.629,0.911-11.36c0.654-2.419,1.365-4.824,1.934-7.263
			c1.442-6.184,3.598-12.113,6.214-17.885c0.917-2.023,1.872-4.03,2.775-6.06c0.903-2.029,1.796-4.064,2.631-6.121
			c0.753-1.856,1.178-3.795,1.369-5.799c0.223-2.351-0.121-4.665-0.291-6.991c-0.137-1.875-0.341-3.747-0.421-5.625
			c-0.135-3.162,0.303-6.254,1.357-9.246c0.341-0.967,0.71-1.924,1.104-2.87c1.183-2.844,2.187-5.747,3.006-8.717
			c0.561-2.031,1.113-4.066,1.73-6.08c0.523-1.708,0.736-3.45,0.784-5.222c0.015-0.57,0.021-1.14,0.017-1.71
			c-0.015-2.118,0.195-4.209,0.727-6.264c0.687-2.655,1.18-5.339,1.192-8.095c0.001-0.34,0.057-0.681,0.094-1.021
			c0.341-3.113,0.898-6.199,1.104-9.331c0.086-1.299,0.365-2.594,0.647-3.87c0.393-1.779,0.883-3.536,1.311-5.307
			c0.645-2.674,0.53-5.312-0.431-7.901c-0.198-0.534-0.37-1.078-0.578-1.608c-1.137-2.901-1.704-5.899-1.616-9.023
			c0.042-1.481,0.044-2.965-0.002-4.445c-0.048-1.544-0.225-3.091-0.977-4.471c-1.129-2.073-2.517-3.964-4.617-5.153
			c-1.137-0.644-1.594-1.55-1.591-2.793c0.003-1.083-0.012-2.166-0.042-3.248c-0.033-1.171-0.452-2.133-1.635-2.552
			c-0.93-0.329-1.343-0.99-1.445-1.918c-0.044-0.396-0.149-0.788-0.164-1.184c-0.115-2.93-0.825-5.743-1.653-8.533
			c-1.157-3.898-1.85-7.868-1.915-11.944c-0.014-0.903-0.143-1.805-0.224-2.762c-1.725-0.52-2.595-1.843-3.362-3.264
			c-0.162-0.3-0.309-0.61-0.446-0.923c-1.486-3.377-2.314-6.902-2.381-10.599c-0.008-0.427,0.061-0.874-0.167-1.372
			c-1.059,0.536-2.017,1.014-2.969,1.503c-2.533,1.301-5.059,2.616-7.596,3.909c-1.068,0.545-2.174,0.982-3.382,1.14
			c-2.479,0.323-4.101-0.899-4.411-3.361c-0.035-0.282-0.079-0.57-0.061-0.851c0.101-1.532,0.227-3.063,0.331-4.595
			c0.026-0.375,0.004-0.754,0.004-1.153c-1.867-0.309-3.656-0.615-5.317-1.43c-1.65-0.809-2.956-2.072-4.45-3.361
			c-0.147,0.776-0.275,1.381-0.376,1.99c-0.324,1.973-0.78,3.907-1.55,5.761c-0.399,0.961-0.948,1.821-1.662,2.568
			c-1.187,1.241-2.663,1.551-4.213,0.821c-0.662-0.312-1.27-0.76-1.854-1.209c-2.407-1.849-4.063-4.282-5.353-6.991
			c-0.29-0.609-0.576-1.22-0.934-1.981c-0.368,0.545-0.645,0.965-0.932,1.378c-1.008,1.449-1.99,2.918-3.043,4.335
			c-0.507,0.681-1.108,1.308-1.74,1.877c-1.4,1.26-2.968,1.548-4.736,0.751c-1.144-0.515-1.951-1.368-2.652-2.345
			c-1.176-1.639-1.954-3.466-2.469-5.412c-0.17-0.642-0.362-1.279-0.579-2.041c-0.628,0.296-1.133,0.528-1.632,0.772
			c-1.906,0.932-3.893,1.606-6.005,1.877c-1.282,0.164-2.507-0.021-3.619-0.701c-1.07-0.654-1.563-1.626-1.435-2.885
			c0.029-0.282,0.108-0.558,0.163-0.838c0.357-1.798,1.01-3.498,1.7-5.188c0.099-0.243,0.272-0.518-0.095-0.788
			c-0.18,0.037-0.398,0.074-0.612,0.127c-1.435,0.355-2.853,0.826-4.308,1.045c-2.373,0.356-4.764,0.471-7.111-0.28
			c-0.374-0.12-0.778-0.183-1.17-0.198c-3.087-0.112-6.112-0.646-9.126-1.278c-4.912-1.029-9.705-2.482-14.472-4.03
			c-7.418-2.408-14.816-4.881-22.264-7.192c-6.101-1.893-12.33-3.273-18.705-3.878c-6.255-0.593-12.518-0.642-18.786-0.187
			c-0.719,0.052-1.446,0.007-2.182,0.007c0.182-0.357,0.541-0.418,0.844-0.505c3.665-1.053,7.319-2.15,11.009-3.107
			c2.922-0.758,5.907-1.215,8.915-1.544c6.325-0.691,12.514-0.057,18.58,1.805c5.283,1.622,10.426,3.632,15.546,5.705
			c4.854,1.966,9.709,3.936,14.615,5.765c4.815,1.795,9.754,3.156,14.93,3.427c0.381,0.02,0.765-0.023,1.186-0.039
			c0.301-0.996,0.551-1.928,0.867-2.837c0.337-0.967,0.747-1.908,1.106-2.868c0.332-0.888,0.9-1.681,1.207-2.687
			c-0.374-0.117-0.629-0.211-0.891-0.277c-1.841-0.462-3.547-1.243-5.144-2.251c-0.669-0.422-1.323-0.909-1.871-1.476
			c-1.436-1.488-1.493-3.347-0.176-4.929c0.433-0.52,0.994-0.932,1.487-1.403c0.186-0.177,0.347-0.38,0.607-0.669
			c-3.454-1.822-6.771-3.572-10.033-5.292c-0.631,0.28-1.137,0.506-1.659,0.738c-0.866-0.548-1.671-1.085-2.503-1.578
			c-2.351-1.394-4.665-2.861-7.08-4.135c-5.763-3.041-11.943-4.404-18.45-4.225c-3.251,0.09-6.47,0.537-9.67,1.107
			c-5.619,1-11.102,2.526-16.5,4.354c-6.647,2.252-13.121,4.921-19.154,8.545c-1.949,1.171-3.804,2.505-5.659,3.826
			c-1.212,0.864-2.185,1.995-3.112,3.156c-1.533,1.92-1.957,4.077-1.322,6.434c0.281,1.043,0.587,2.087,0.974,3.094
			c2.249,5.847,4.479,11.703,6.818,17.515c0.891,2.213,1.955,4.372,3.115,6.458c2.317,4.166,5.554,7.491,9.653,9.946
			c3.107,1.861,6.47,3.089,9.991,3.88c2.222,0.499,4.464,0.904,6.693,1.374c0.421,0.089,0.82,0.284,1.29,0.451
			c-0.476,1.37-1.684,2.161-2.071,3.463c0.21,0.141,0.384,0.292,0.584,0.388c3.292,1.579,6.414,3.461,9.562,5.3
			c2.459,1.436,4.925,2.863,7.429,4.219c3.657,1.981,7.387,3.812,11.344,5.142c4,1.344,8.107,1.957,12.293,1.46
			c6.616-0.785,12.92-2.68,18.841-5.78c0.394-0.206,0.804-0.379,1.319-0.62c0.315,1.236,0.602,2.364,0.91,3.574
			c0.742-0.339,1.28-0.763,1.777-1.217c1.725-1.574,3.452-3.148,5.126-4.775c1.887-1.834,3.848-3.56,6.153-4.857
			c5.388-3.032,11.045-1.956,15.3,1.523c0.206,0.168,0.489,0.32,0.416,0.763c-0.822,0.515-1.77,0.889-2.739,1.171
			c-0.962,0.279-1.958,0.439-2.954,0.654c-0.066,1.071,0.363,1.871,0.832,2.648c1.17,1.94,2.894,3.183,5.008,3.921
			c0.269,0.094,0.549,0.159,0.81,0.269c0.23,0.097,0.586-0.025,0.682,0.424c-1.095,0.148-2.172,0.104-3.245-0.037
			c-1.055-0.138-2.031-0.68-3.156-0.743c0.399,1.591,1.284,2.865,2.673,4.139c2.057,1.886,4.551,2.124,7.212,1.889
			c0.049,0.447,0.106,0.78,0.117,1.113c0.034,0.968,0.035,1.938,0.077,2.906c0.123,2.83,0.774,5.518,2.18,8.002
			c0.337,0.594,0.632,1.212,0.947,1.818c0.296,0.57,0.432,1.171,0.385,1.815c-0.141,1.941,0.046,3.87,0.172,5.804
			c0.253,3.883,0.967,7.681,2.002,11.423c1.022,3.694,2.555,7.19,4.227,10.623c1.582,3.248,2.728,6.631,3.443,10.166
			c0.634,3.133,1.523,6.187,2.67,9.174c0.816,2.125,1.536,4.289,2.236,6.456c1.111,3.441,1.696,6.968,1.571,10.598
			c-0.047,1.367-0.072,2.736-0.063,4.103c0.015,2.45,0.039,4.9,0.107,7.349c0.032,1.137,0.244,2.271,0.257,3.408
			c0.029,2.506,0.01,5.014-0.04,7.521c-0.038,1.885,0.004,3.754,0.346,5.618c0.525,2.866,0.707,5.766,0.718,8.678
			c0.006,1.824-0.013,3.648,0.004,5.472c0.023,2.47,0.465,4.872,1.262,7.208c0.849,2.489,1.967,4.854,3.296,7.122
			c2.165,3.695,4.719,7.123,7.254,10.564c1.115,1.514,2.237,3.022,3.329,4.553c1.364,1.913,2.483,3.972,3.231,6.194
			c0.797,2.369,1.439,4.789,2.141,7.16c-0.384,0.772-0.746,1.482-1.093,2.199c-1.979,4.086-2.871,8.392-2.559,12.927
			c0.098,1.42,0.302,2.833,0.436,4.251c0.214,2.268,0.519,4.536,0.363,6.82c-0.202,2.956-0.456,5.909-0.698,8.862
			c-0.261,3.194-0.234,6.385,0.259,9.551c0.505,3.247,1.638,6.275,3.517,8.998c1.101,1.594,2.23,3.17,3.302,4.783
			c1.821,2.738,3.027,5.738,3.602,8.975c0.432,2.431,1.231,4.731,2.255,6.969c1.638,3.58,4.093,6.411,7.512,8.393
			c2.07,1.2,4.12,2.435,6.189,3.636c3.385,1.966,7.024,3.198,10.875,3.902c4.983,0.912,9.983,0.801,14.996,0.468
			c2.217-0.147,4.431-0.345,6.647-0.512c1.647-0.123,3.294-0.263,4.944-0.342c4.108-0.197,8.202,0.095,12.293,0.426
			c1.59,0.129,3.183,0.229,4.773,0.353c4.552,0.354,9.098,0.533,13.649-0.088c4.213-0.575,8.27-1.626,11.993-3.735
			c2.577-1.46,5.133-2.958,7.671-4.485c2.701-1.625,4.75-3.89,6.239-6.657c1.33-2.472,2.382-5.067,2.848-7.839
			c0.667-3.962,2.244-7.509,4.55-10.763c0.824-1.162,1.648-2.325,2.452-3.5c1.765-2.578,2.887-5.42,3.41-8.496
			c0.471-2.764,0.644-5.547,0.441-8.345c-0.214-2.955-0.515-5.905-0.687-8.863c-0.102-1.759-0.115-3.534-0.011-5.292
			c0.138-2.33,0.421-4.652,0.657-6.977c0.35-3.456-0.034-6.834-1.176-10.105c-0.524-1.5-1.182-2.961-1.882-4.39
			c-0.375-0.765-0.521-1.42-0.213-2.258c0.451-1.226,0.763-2.505,1.1-3.77c0.832-3.118,2.202-5.981,4.06-8.611
			c0.986-1.396,2.011-2.764,3.027-4.139c2.608-3.529,5.228-7.048,7.46-10.837c3.073-5.216,4.908-10.753,4.597-16.898
			c-0.095-1.875-0.033-3.763,0.044-5.641c0.064-1.535,0.133-3.089,0.421-4.592c0.541-2.823,0.697-5.65,0.502-8.506
			c-0.183-2.681-0.096-5.361,0.154-8.028c0.267-2.845,0.296-5.689,0.253-8.54c-0.033-2.222-0.032-4.445-0.037-6.668
			c-0.003-1.604,0.261-3.173,0.599-4.738c0.773-3.577,2.045-6.994,3.326-10.406c0.943-2.512,1.727-5.064,2.272-7.692
			c0.591-2.847,1.268-5.673,2.411-8.359c0.579-1.362,1.213-2.702,1.853-4.038c2.501-5.222,4.313-10.656,5.153-16.401
			c0.446-3.05,0.75-6.117,0.632-9.194c-0.053-1.376,0.166-2.589,0.852-3.751c0.26-0.441,0.497-0.897,0.736-1.351
			c0.912-1.731,1.545-3.557,1.716-5.513c0.144-1.644,0.209-3.294,0.324-4.941c0.026-0.369,0.113-0.734,0.16-1.025
			c1.151-0.049,2.169-0.069,3.184-0.142c1.043-0.074,1.999-0.437,2.87-1.013c0.909-0.602,1.709-1.326,2.386-2.184
			c0.971-1.231,1.183-1.691,1.2-2.76c-0.508,0.127-0.997,0.225-1.471,0.374c-1.324,0.416-2.68,0.533-4.054,0.458
			c-0.217-0.012-0.568,0.113-0.62-0.186c1.242-0.556,2.487-0.989,3.604-1.642c1.784-1.042,2.972-2.633,3.6-4.609
			c0.091-0.288,0.013-0.629,0.013-1.004c-2.093-0.187-3.971-0.729-5.685-1.729c0.055-0.209,0.048-0.352,0.115-0.412
			c2.8-2.504,6.063-3.777,9.835-3.601c2.45,0.114,4.669,0.973,6.716,2.291c1.974,1.27,3.746,2.788,5.376,4.474
			c1.824,1.887,3.727,3.69,5.824,5.275c0.287,0.217,0.563,0.608,1.057,0.337c0.113-0.542,0.215-1.1,0.348-1.652
			c0.131-0.543,0.293-1.078,0.468-1.713c0.529,0.257,0.927,0.455,1.33,0.646c1.287,0.607,2.559,1.25,3.865,1.81
			c3.996,1.714,8.166,2.86,12.437,3.624c4.678,0.836,9.298,0.569,13.854-0.836c2.84-0.876,5.553-2.047,8.219-3.341
			c4.412-2.14,8.629-4.634,12.864-7.098c2.657-1.546,5.384-2.971,8.076-4.455c0.237-0.131,0.453-0.299,0.697-0.461
			c-0.437-1.33-1.637-2.127-2.043-3.401c0.862-0.615,1.864-0.613,2.796-0.826c2.607-0.596,5.259-1.033,7.824-1.773
			c8.276-2.387,14.373-7.444,18.145-15.225c0.77-1.588,1.52-3.191,2.169-4.832c2.158-5.455,4.28-10.925,6.38-16.403
			c0.488-1.273,0.865-2.592,1.236-3.906C490.786,144.087,490.311,142.019,488.865,140.229z M136.645,185.568
			c-2.986-0.888-6.039-1.091-9.134-0.994c-5.167,0.163-10.152,1.334-15.098,2.709c-4.004,1.113-7.984,2.313-11.998,3.385
			c-5.875,1.569-11.859,2.269-17.941,1.892c-4.066-0.252-7.999-1.148-11.759-2.733c-1.098-0.463-2.182-0.979-3.116-1.909
			c0.2-0.281,0.36-0.568,0.579-0.8c0.508-0.539,1.056-1.04,1.566-1.577c0.867-0.914,1.636-1.909,2.156-3.062
			c0.255-0.564,0.479-1.169,0.564-1.777c0.195-1.402-0.311-2.291-1.597-2.888c-0.564-0.262-1.167-0.466-1.772-0.608
			c-3.547-0.83-7.123-1.549-10.644-2.475c-2.361-0.621-4.678-1.443-6.962-2.315c-4.754-1.817-9.214-4.214-13.412-7.095
			c-0.513-0.352-1.007-0.731-1.515-1.102c0.221-0.36,0.41-0.091,0.537-0.024c7.009,3.686,14.501,5.999,22.163,7.839
			c4.544,1.091,9.131,1.963,13.755,2.622c2.367,0.337,4.754,0.528,7.129,0.812c1.526,0.183,3.048,0.405,4.568,0.633
			c0.389,0.058,0.771,0.19,1.145,0.318c0.415,0.142,0.653,0.464,0.692,0.893c0.041,0.451,0.09,0.915,0.032,1.359
			c-0.179,1.354-0.426,2.699-0.611,4.053c-0.1,0.73-0.197,1.473-0.169,2.205c0.035,0.911,0.583,1.462,1.492,1.586
			c0.443,0.06,0.913,0.046,1.355-0.029c2.357-0.401,4.721-0.779,7.061-1.264c4.794-0.994,9.569-2.076,14.363-3.073
			c3.405-0.708,6.84-1.254,10.321-1.388c5.09-0.195,9.994,0.618,14.576,2.946c0.86,0.437,1.668,0.98,2.48,1.506
			c0.157,0.101,0.217,0.351,0.322,0.532C137.898,185.779,137.013,185.677,136.645,185.568z M150.799,217.346
			c0.048-1.952,1.732-3.565,3.659-3.507c1.95,0.059,3.533,1.727,3.492,3.679c-0.041,1.96-1.674,3.506-3.663,3.468
			C152.315,220.949,150.75,219.316,150.799,217.346z M173.817,222.348c-2.431,3.922-5.873,6.282-10.526,6.674
			c-0.95,0.08-1.931-0.059-2.884-0.196c-1.872-0.27-3.657-0.862-5.314-1.77c-0.687-0.377-1.29-0.919-1.894-1.43
			c-0.186-0.158-0.248-0.462-0.47-0.904c1.954,0.48,3.68,1.005,5.484,1.184c1.836,0.182,3.644,0.008,5.443-0.253
			c1.801-0.261,3.592-0.656,5.277-1.356c1.657-0.688,3.259-1.509,4.911-2.284C173.835,222.157,173.862,222.276,173.817,222.348z
			 M158.337,210.796c0.005-0.994,0.845-1.829,1.833-1.823c0.991,0.006,1.836,0.856,1.828,1.837
			c-0.008,0.956-0.904,1.853-1.844,1.847C159.18,212.65,158.332,211.782,158.337,210.796z M165.471,211.034
			c0.198,0,0.394-0.062,0.489,0.009c2.471,1.853,4.746,3.911,6.604,6.397c0.066,0.089,0.099,0.204,0.245,0.515
			c-0.292,0.376-0.526,0.767-0.842,1.073c-1.778,1.717-5.733,3.26-8.51,3.306c0.469-1.235,1.015-2.408,1.353-3.638
			c0.33-1.2,0.536-2.451,0.637-3.692C165.554,213.706,165.471,212.393,165.471,211.034z M173.981,208.966
			c-0.299-0.268-0.474-0.398-0.617-0.557c-2.827-3.138-6.401-4.901-10.521-5.529c-2.303-0.351-4.639-0.551-6.967-0.657
			c-3.654-0.166-7.267-0.56-10.804-1.501c-0.679-0.181-1.463-0.199-2.008-0.806c3.884-1.415,7.722-2.839,11.582-4.202
			c1.068-0.377,2.192-0.606,3.302-0.852c3.193-0.706,6.134-0.01,8.758,1.847c3.886,2.75,6.258,6.543,7.317,11.17
			c0.038,0.165,0.051,0.339,0.054,0.509C174.08,208.498,174.043,208.609,173.981,208.966z M199.408,391.567
			c-0.24-3.977,0.891-7.653,2.777-11.116c0.32-0.588,0.685-1.171,1.265-1.511c0.671,0.19,0.995,0.681,1.351,1.105
			c0.878,1.046,1.736,2.111,2.578,3.186c2.853,3.641,6.358,6.497,10.419,8.684c1.352,0.728,2.732,1.405,4.088,2.126
			c1.312,0.698,2.527,1.532,3.605,2.566c1.763,1.692,2.705,3.773,2.961,6.177c0.291,2.723-0.175,5.349-1.246,7.842
			c-0.649,1.51-1.433,2.972-2.271,4.389c-1.219,2.061-2.676,3.963-4.27,5.752c-2.581,2.896-5.011,5.902-6.921,9.298
			c-0.076,0.134-0.229,0.225-0.552,0.533c-0.426-2.561-0.328-4.811,0.37-7.004c0.517-1.623,1.157-3.209,1.78-4.796
			c0.603-1.536,1.272-3.044,1.583-4.68c0.635-3.348-0.364-6.059-3.108-8.104c-1.195-0.891-2.534-1.516-3.896-2.102
			c-1.149-0.494-2.293-1.002-3.429-1.525C201.877,400.259,199.705,396.495,199.408,391.567z M300.159,439.043
			c-1.741,4.651-4.293,8.745-7.903,12.225c-5.109,4.924-11.207,7.682-18.124,8.825c-3.382,0.559-6.782,0.82-10.211,0.635
			c-0.569-0.031-1.139-0.045-1.708-0.043c-7.804,0.031-15.607,0.08-23.411,0.096c-5.968,0.012-11.814-0.684-17.36-3.087
			c-8.316-3.602-14.109-9.625-17.393-18.066c-0.161-0.413-0.294-0.837-0.557-1.592c1.136,0.441,1.791,0.988,2.41,1.56
			c1.088,1.004,2.145,2.042,3.2,3.082c3.596,3.544,7.791,6.076,12.63,7.543c2.31,0.7,4.671,0.983,7.075,1.017
			c1.481,0.021,2.96,0.078,4.441,0.111c2.004,0.044,3.955,0.451,5.905,0.858c5.512,1.15,11.095,1.243,16.672,0.879
			c3.457-0.225,6.896-0.793,10.332-1.281c2.488-0.353,4.98-0.534,7.489-0.559c1.878-0.019,3.753-0.034,5.62-0.344
			c3.769-0.627,7.202-2.083,10.421-4.087c1.991-1.239,3.782-2.734,5.441-4.391c0.967-0.966,1.946-1.922,2.952-2.846
			c0.619-0.569,1.286-1.092,2.262-1.525C300.259,438.519,300.251,438.797,300.159,439.043z M303.771,395.613
			c-0.959,2.76-2.706,4.861-5.277,6.233c-1.302,0.695-2.683,1.242-4.013,1.887c-1.278,0.619-2.587,1.195-3.795,1.932
			c-3.582,2.184-4.403,5.814-3.501,8.998c0.417,1.473,1.013,2.895,1.536,4.337c0.581,1.603,1.222,3.187,1.745,4.809
			c0.583,1.809,0.674,3.688,0.519,5.577c-0.018,0.225-0.057,0.452-0.114,0.67c-0.026,0.101-0.118,0.185-0.25,0.379
			c-0.152-0.145-0.331-0.252-0.42-0.409c-1.78-3.136-3.971-5.967-6.37-8.647c-2.018-2.254-3.829-4.663-5.368-7.272
			c-1.58-2.678-2.71-5.517-2.98-8.643c-0.349-4.031,0.876-7.414,4.199-9.882c0.774-0.575,1.603-1.085,2.446-1.556
			c1.191-0.666,2.419-1.267,3.631-1.897c4.306-2.238,7.984-5.232,10.967-9.071c0.803-1.034,1.632-2.048,2.471-3.054
			c0.289-0.347,0.638-0.646,0.975-0.951c0.072-0.065,0.208-0.059,0.379-0.101c0.663,0.43,1.048,1.133,1.42,1.828
			c1.524,2.85,2.44,5.886,2.614,9.118C304.69,391.849,304.415,393.759,303.771,395.613z M350.663,225.752
			c-0.508,0.448-1.036,0.901-1.626,1.221c-2.329,1.264-4.835,2.018-7.481,2.072c-2.934,0.059-5.576-0.912-7.9-2.712
			c-1.452-1.125-2.624-2.497-3.389-4.327c0.883,0.465,1.749,0.967,2.654,1.385c0.977,0.451,1.974,0.872,2.993,1.215
			c0.966,0.324,1.962,0.571,2.962,0.774c0.999,0.203,2.014,0.349,3.029,0.445c1.015,0.096,2.043,0.176,3.057,0.121
			c1.072-0.057,2.143-0.24,3.199-0.445c0.981-0.19,1.942-0.483,3.145-0.79C351.007,225.21,350.894,225.549,350.663,225.752z
			 M338.602,215.945c0.126,1.652,0.57,3.243,1.267,4.756c0.234,0.509,0.461,1.022,0.75,1.664c-1.337,0.123-2.436-0.319-3.546-0.648
			c-1.872-0.555-3.6-1.403-5.08-2.698c-0.383-0.335-0.75-0.707-0.758-1.266c1.67-2.44,4.953-5.594,7.075-6.799
			c0.394,0.22,0.208,0.594,0.216,0.9C338.557,213.218,338.499,214.588,338.602,215.945z M342.741,217.471
			c-0.022-1.922,1.621-3.642,3.548-3.624c2.255,0.021,3.614,1.851,3.603,3.545c-0.013,2.002-1.526,3.576-3.523,3.594
			C344.395,221.005,342.763,219.424,342.741,217.471z M353.935,210.928c-0.07,0.994-0.985,1.805-1.939,1.72
			c-0.978-0.087-1.78-1.017-1.701-1.969c0.083-1.002,0.958-1.764,1.952-1.699C353.238,209.044,354.005,209.929,353.935,210.928z
			 M359.895,200.439c-3.4,1.027-6.891,1.49-10.427,1.72c-2.613,0.17-5.232,0.334-7.828,0.657c-4.455,0.555-8.275,2.42-11.258,5.85
			c-0.073,0.084-0.161,0.158-0.252,0.223c-0.042,0.03-0.106,0.03-0.397,0.105c0.945-5.261,3.409-9.412,7.688-12.388
			c2.59-1.801,5.495-2.441,8.621-1.739c1.165,0.261,2.344,0.508,3.466,0.905c3.807,1.347,7.591,2.757,11.495,4.184
			C360.59,200.139,360.255,200.33,359.895,200.439z M465.277,165.745c-5.831,3.862-12.079,6.847-18.82,8.73
			c-2.791,0.779-5.64,1.35-8.464,2.013c-0.997,0.234-1.998,0.451-2.994,0.69c-0.442,0.106-0.885,0.221-1.312,0.376
			c-2.035,0.739-2.686,2.125-1.947,4.19c0.427,1.193,1.119,2.243,1.954,3.187c0.603,0.682,1.26,1.316,1.889,1.975
			c0.268,0.281,0.528,0.569,0.863,0.932c-0.315,0.277-0.54,0.518-0.805,0.699c-1.279,0.874-2.685,1.491-4.146,1.982
			c-3.8,1.279-7.688,2.011-11.713,2.117c-6.446,0.171-12.698-0.916-18.865-2.659c-3.996-1.13-7.977-2.317-11.989-3.389
			c-3.909-1.045-7.872-1.803-11.935-1.992c-3.561-0.166-7.053,0.111-10.46,1.204c-0.205,0.066-0.417,0.114-0.983,0.266
			c0.551-0.484,0.806-0.755,1.104-0.961c2.907-2.008,6.155-3.179,9.601-3.831c3.844-0.727,7.697-0.648,11.564-0.133
			c5.765,0.767,11.402,2.152,17.076,3.371c3.448,0.741,6.928,1.332,10.397,1.97c0.44,0.081,0.91,0.095,1.354,0.04
			c0.907-0.113,1.464-0.655,1.547-1.553c0.052-0.559-0.007-1.138-0.091-1.697c-0.204-1.351-0.453-2.694-0.68-4.041
			c-0.047-0.28-0.091-0.564-0.106-0.847c-0.079-1.484,0.249-1.974,1.708-2.237c1.567-0.282,3.15-0.483,4.732-0.672
			c2.317-0.278,4.653-0.423,6.954-0.789c3.652-0.58,7.3-1.213,10.918-1.973c5.684-1.193,11.305-2.648,16.727-4.762
			c2.436-0.95,4.816-2.045,7.206-3.109c0.504-0.224,1.365-0.876,1.409-0.915C466.997,164.07,465.891,165.338,465.277,165.745z"/>
                <g>
                    <g>
                        <path fill="#5A743C" d="M276.047,64.967c2.703-1.06,5.399-2.137,8.098-3.209c1.024-0.407,2.072-0.63,3.174-0.402
					c1.253,0.259,2.009,1.113,2.021,2.386c0.006,0.677-0.068,1.369-0.211,2.031c-0.192,0.888-0.446,1.768-0.745,2.627
					c-1.691,4.862-3.864,9.492-6.703,13.799c-0.238,0.36-0.652,0.66-0.54,1.234c0.673,0,1.34,0.005,2.007-0.001
					c0.627-0.006,1.254-0.038,1.88-0.034c0.684,0.004,1.367,0.048,2.051,0.052c0.671,0.004,1.351,0.169,1.955-0.004
					c0.086-0.126,0.14-0.169,0.142-0.214c0.01-0.225,0.032-0.454,0.002-0.675c-0.415-3.12-0.527-6.252-0.18-9.379
					c0.156-1.407,0.49-2.802,0.835-4.179c0.223-0.89,0.703-1.682,1.446-2.272c0.942-0.749,1.831-0.776,2.809-0.062
					c0.367,0.268,0.706,0.577,1.049,0.877c1.544,1.351,3.083,2.708,4.63,4.056c0.239,0.209,0.513,0.378,0.864,0.635
					c0.24-0.54,0.455-0.933,0.593-1.351c0.771-2.338,1.231-4.744,1.388-7.196c0.297-4.633-0.066-9.228-1.034-13.766
					c-0.812-3.808-2.046-7.472-4.024-10.849c-0.458-0.783-0.971-1.547-1.55-2.244c-0.825-0.994-1.046-1.022-2.178-0.451
					c-1.627,0.821-3.259,1.636-4.846,2.529c-9.164,5.156-15.724,12.66-19.967,22.241c-0.927,2.092-1.59,4.267-2.07,6.5
					c-0.044,0.206-0.046,0.42-0.082,0.785c0.551-0.175,0.974-0.285,1.381-0.441C270.847,66.988,273.45,65.985,276.047,64.967z"/>
                        <path fill="#5A743C" d="M128.309,96.961c2.416,1.138,4.671,2.2,7.163,3.373c-0.074-0.483-0.124-0.811-0.175-1.14
					c-0.217-1.404-0.489-2.801-0.641-4.212c-0.387-3.588,0.061-7.166,0.216-10.746c0.03-0.682,0.079-1.367,0.18-2.042
					c0.353-2.355,2.145-3.187,4.068-1.809c1.055,0.756,2.034,1.658,2.91,2.62c3.263,3.579,5.768,7.612,7.098,12.316
					c0.082,0.291,0.267,0.552,0.417,0.855c0.117-0.112,0.174-0.144,0.197-0.192c0.123-0.256,0.25-0.511,0.355-0.775
					c1.813-4.548,4.446-8.579,7.71-12.211c0.228-0.253,0.451-0.517,0.713-0.732c0.867-0.712,1.803-0.69,2.578,0.147
					c0.497,0.536,0.932,1.154,1.285,1.796c0.913,1.658,1.489,3.44,1.786,5.313c0.086,0.54,0.01,1.142,0.482,1.603
					c0.517-0.113,1.012-0.232,1.512-0.328c0.531-0.102,1.082-0.141,1.597-0.542c-1.596-1.946-2.845-3.97-3.728-6.211
					c-0.876-2.223-1.657-4.475-2.058-6.786c-3.404-2.395-7.103-3.979-10.999-5.137c-4.561-1.355-9.208-2.124-13.979-1.837
					c-1.297,0.078-2.582,0.379-3.869,0.595c-1.047,0.176-1.682,0.811-2.093,1.787c-2.741,6.501-4.266,13.207-3.473,20.305
					C127.717,94.369,127.792,95.802,128.309,96.961z"/>
                        <path fill="#5A743C" d="M378.351,113.063c-1.596,1.459-3.229,2.878-4.837,4.323c-0.142,0.128-0.211,0.337-0.336,0.546
					c0.597,0.317,1.097,0.584,1.599,0.848c2.072,1.089,4.029,2.352,5.833,3.848c0.306,0.254,0.622,0.503,0.895,0.791
					c1.366,1.436,1.588,3.15,0.545,4.839c-0.444,0.718-1.026,1.361-1.602,1.985c-0.576,0.625-1.224,1.184-2.025,1.948
					c0.926,0.495,1.686,0.859,2.402,1.293c2.057,1.248,2.543,3.201,1.314,5.26c-0.306,0.513-0.689,0.979-1.155,1.633
					c0.921-0.116,1.582-0.446,2.209-0.796c1.94-1.082,3.828-2.248,5.518-3.706c4.039-3.484,7.068-7.701,9.118-12.617
					c0.436-1.047,0.754-2.145,1.092-3.23c0.203-0.651,0.321-1.323,0.075-1.959c-0.187-0.14-0.314-0.255-0.458-0.341
					c-5.755-3.416-11.982-5.158-18.671-5.279C379.251,112.436,378.8,112.652,378.351,113.063z"/>
                        <path fill="#5A743C" d="M267.246,181.887c1.217,3.097,2.842,5.963,5.002,8.492c1.937,2.269,4.179,4.175,7.166,5.383
					c0.753-0.668,1.429-1.272,2.11-1.871c3.765-3.313,6.379-7.4,7.981-12.12c0.527-1.552,0.778-3.199,1.12-4.811
					c0.087-0.408,0.154-0.858-0.11-1.428c-0.304,0.268-0.528,0.421-0.695,0.621c-0.582,0.7-1.125,1.432-1.719,2.122
					c-0.367,0.427-0.75,0.869-1.21,1.182c-0.799,0.544-1.705,0.351-2.239-0.432c-0.253-0.371-0.449-0.793-0.608-1.216
					c-0.908-2.409-1.538-4.879-1.6-7.472c-0.009-0.385-0.084-0.769-0.136-1.222c-1.234,0.197-2.413,0.225-3.625,0.694
					c0,0.714,0.066,1.401-0.015,2.072c-0.142,1.181-0.257,2.386-0.595,3.518c-0.529,1.771-2.123,2.948-4.307,1.976
					c-0.208-0.092-0.424-0.165-0.633-0.254c-2.302-0.978-4.614-1.934-6.801-3.161c-0.376-0.211-0.794-0.347-1.365-0.591
					c0.054,0.562,0.045,0.957,0.136,1.328C265.7,177.128,266.328,179.55,267.246,181.887z"/>
                    </g>
                    <g>
                        <g>
                            <g>
                                <path fill="#EEA600" d="M300.657,143.78c-0.777-0.536-1.322-0.94-1.895-1.3c-1.688-1.061-3.397-2.089-5.08-3.158
							c-5.003-3.178-10.094-6.202-15.373-8.9c-3.612-1.846-7.309-3.427-11.398-3.94c-1.687-0.212-3.336-0.723-5.009-1.062
							c-1.162-0.235-2.324-0.571-3.346-0.345c-0.755,0.935-1.324,1.804-2.057,2.501c-0.726,0.691-1.617,1.209-2.382,1.764
							c0.35,1.012,0.84,1.946,0.967,2.927c0.134,1.04-0.076,2.124-0.134,3.144c1.733,1.134,3.503,2.18,5.149,3.393
							c3.822,2.816,7.311,6.001,10.243,9.758c0.441,0.565,0.963,0.896,1.66,1.098c4.421,1.285,8.893,1.373,13.362,0.447
							c4.943-1.023,9.55-2.987,13.958-5.423C299.711,144.469,300.062,144.186,300.657,143.78z"/>
                                <path fill="#EEA600" d="M244.199,89.658c-0.138,0.284-0.188,0.61-0.286,0.937c0.258,0.077,0.416,0.142,0.581,0.169
							c2.809,0.462,4.635,2.586,4.536,5.504c-0.011,0.324,0.064,0.651,0.098,0.966c1.239,0.209,2.347-0.135,3.461-0.314
							c3.777-0.607,7.447-1.582,10.907-3.269c6.733-3.283,12.05-8.103,15.882-14.548c2.189-3.681,3.956-7.558,5.355-11.602
							c0.296-0.856,0.5-1.743,0.737-2.582c-0.43-0.466-0.806-0.144-1.136-0.017c-2.547,0.98-5.084,1.986-7.623,2.988
							c-4.601,1.815-9.221,3.586-13.795,5.466c-3.161,1.299-6.181,2.893-9.003,4.84C249.643,81.144,246.46,85.011,244.199,89.658z"
                                />
                                <path fill="#EEA600" d="M265.731,108.793c-2.298,0.996-4.49,2.19-6.632,3.502c-0.111,0.838-0.134,1.474-0.293,2.074
							c-0.144,0.543-0.39,1.074-0.676,1.559c-0.316,0.535-0.7,1.038-1.107,1.509c-0.389,0.449-0.846,0.838-1.245,1.227
							c0.757,0.697,1.482,1.257,2.065,1.939c0.436,0.51,0.903,0.809,1.544,0.953c2.219,0.499,4.42,1.086,6.648,1.541
							c7.047,1.438,14.022,1.246,20.915-0.956c6.274-2.004,12.117-4.904,17.709-8.346c0.435-0.268,0.852-0.572,1.249-0.893
							c0.2-0.162,0.336-0.402,0.495-0.599c-0.166-0.157-0.233-0.255-0.326-0.303c-0.304-0.155-0.611-0.306-0.927-0.433
							c-6.787-2.719-13.728-4.839-21.05-5.531C277.742,105.434,271.609,106.245,265.731,108.793z"/>
                                <path fill="#EEA600" d="M218.333,175.59c2.458,5.074,5.02,10.098,7.542,15.141c0.075,0.15,0.192,0.28,0.399,0.574
							c0.382-0.513,0.671-0.859,0.913-1.235c1.332-2.072,2.317-4.317,3.179-6.611c2.93-7.796,3.851-15.782,2.256-24.015
							c-0.63-3.25-1.56-6.417-2.456-9.595c-0.073-0.258-0.045-0.587-0.508-0.701c-0.267,0.186-0.576,0.426-0.907,0.628
							c-1.826,1.116-3.776,0.906-5.322-0.568c-0.627-0.597-1.097-1.303-1.453-2.093c-0.128-0.283-0.32-0.537-0.473-0.787
							c-0.587,0.346-1.044,0.755-1.572,0.898c-1.115,0.301-1.657,1.096-2.123,2.036c-2.692,5.431-3.585,11.129-2.529,17.108
							C215.846,169.59,216.914,172.663,218.333,175.59z"/>
                                <path fill="#EEA600" d="M301.262,88.555c-0.788-0.246-1.323-0.428-1.866-0.58c-5.204-1.455-10.518-1.923-15.899-1.723
							c-1.25,0.046-2.493,0.231-3.743,0.293c-1.152,0.057-2.016,0.544-2.802,1.388c-1.674,1.798-3.59,3.325-5.615,4.719
							c-4.953,3.41-10.391,5.624-16.308,6.676c-0.429,0.076-0.922,0.017-1.176,0.441c0.439,0.826,0.897,1.608,1.278,2.427
							c0.37,0.796,0.448,1.68,0.236,2.513c-0.22,0.861-0.623,1.676-0.988,2.618c1.717,0.305,3.067,1.155,3.983,2.517
							c0.166-0.013,0.234,0.002,0.277-0.025c0.434-0.271,0.867-0.545,1.294-0.826c5.967-3.922,12.507-5.958,19.661-5.898
							c1.99,0.017,3.982,0.147,5.967,0.297c0.94,0.071,1.768-0.054,2.613-0.51c2.386-1.286,4.456-2.96,6.294-4.93
							c2.222-2.382,4.133-5.005,5.895-7.739C300.664,89.746,300.897,89.234,301.262,88.555z"/>
                                <path fill="#EEA600" d="M178.24,152.045c5.712-1.618,10.414-4.733,14.252-9.239c2.151-2.526,3.818-5.373,5.607-8.021
							c-0.071-0.848-0.199-1.584-0.175-2.316c0.024-0.713,0.203-1.422,0.325-2.201c-1.661-0.414-2.999-1.234-4.16-2.563
							c-4.286,1.632-8.443,3.183-12.575,4.798c-3.292,1.288-6.468,2.828-9.41,4.804c-2.757,1.852-5.23,4.024-7.294,6.644
							c-2.205,2.798-3.478,5.985-3.968,9.496c-0.085,0.608-0.214,1.239,0.18,1.877c0.205-0.014,0.428-0.009,0.642-0.046
							c2.354-0.409,4.705-0.832,7.059-1.238C171.921,153.491,175.11,152.932,178.24,152.045z"/>
                                <path fill="#EEA600" d="M274.592,174.777c0.292,0.149,0.616,0.234,0.906,0.342c0.112-0.151,0.215-0.232,0.24-0.333
							c0.082-0.329,0.171-0.662,0.196-0.999c0.195-2.625,0.105-5.234-0.458-7.817c-0.834-3.827-2.367-7.36-4.468-10.652
							c-4.435-6.95-10.256-12.454-17.377-16.591c-0.334-0.194-0.719-0.303-0.917-0.384c-1.059,0.412-1.958,0.752-2.848,1.114
							c-0.203,0.083-0.408,0.209-0.558,0.368c-0.622,0.658-1.223,1.336-1.91,2.092c0.052,0.918,0.109,1.937,0.167,2.956
							c0.382,6.71,2.907,12.462,7.689,17.207c1.783,1.769,3.7,3.378,5.76,4.817C265.319,169.904,269.924,172.395,274.592,174.777z"
                                />
                                <path fill="#EEA600" d="M182.554,176.925c2.54-1.282,5.091-2.544,7.603-3.879c1.761-0.936,3.37-2.098,4.925-3.367
							c3.984-3.251,6.866-7.266,8.73-12.034c0.684-1.75,1.339-3.511,1.994-5.272c1.155-3.108,2.534-6.1,4.479-8.806
							c0.126-0.175,0.202-0.384,0.384-0.737c-3.222-0.157-5.178-1.755-5.843-4.829c-1.688-0.004-3.239-0.289-4.817-1.101
							c-0.488,0.886-0.872,1.581-1.254,2.277c-1.516,2.762-3.267,5.376-5.572,7.526c-1.744,1.627-3.041,3.531-4.177,5.577
							c-1.857,3.346-3.29,6.881-4.547,10.489c-1.258,3.61-2.304,7.273-2.744,11.087c-0.124,1.072-0.157,2.137-0.052,3.333
							C182.04,177.08,182.318,177.044,182.554,176.925z"/>
                                <path fill="#EEA600" d="M190.17,61.744c3.71,1.757,6.856,4.265,9.632,7.255c3.187,3.432,6.059,7.109,8.446,11.146
							c0.84,1.421,1.614,2.881,2.424,4.319c0.155,0.276,0.344,0.532,0.52,0.802c2.74-1.958,2.942-2.006,6.941-1.655
							c-0.072-0.286-0.09-0.456-0.155-0.606c-1.484-3.399-2.587-6.927-3.602-10.489c-0.748-2.627-1.557-5.238-2.407-7.833
							c-1.33-4.061-3.469-7.666-6.329-10.84c-0.724-0.804-1.442-1.617-2.21-2.378c-3.322-3.291-6.839-6.362-10.493-9.278
							c-0.202-0.161-0.458-0.257-0.676-0.376c-2.23,3.189-3.296,14.568-2.791,19.522C189.684,61.46,189.917,61.624,190.17,61.744z"
                                />
                                <path fill="#EEA600" d="M173.437,133.682c3.062-1.654,6.272-2.978,9.518-4.216c2.765-1.055,5.545-2.071,8.309-3.13
							c0.677-0.259,1.406-0.447,1.729-0.747c0.478-1.47,0.861-2.649,1.25-3.849c-2.122-0.498-4.223-0.991-6.324-1.484
							c-2.216-0.52-4.421-1.093-6.651-1.548c-5.949-1.213-11.779-0.757-17.476,1.362c-4.599,1.711-8.596,4.409-12.346,7.512
							c-0.117,0.097-0.174,0.268-0.251,0.393c1.822,2.283,11.933,9.073,15.285,10.257
							C168.616,136.489,170.977,135.01,173.437,133.682z"/>
                                <path fill="#EEA600" d="M245.803,65.77c-2.234,2.893-4.224,5.943-5.89,9.2c-1.251,2.446-2.21,4.997-2.759,7.696
							c-0.124,0.608-0.278,1.213-0.164,1.999c2.213,0.248,3.685,1.557,4.685,3.699c0.274-0.513,0.476-0.84,0.631-1.188
							c1.24-2.796,2.996-5.233,5.134-7.404c2.171-2.204,4.559-4.138,7.274-5.633c1.745-0.961,3.521-1.868,5.319-2.726
							c0.683-0.326,1.122-0.732,1.247-1.479c0.047-0.279,0.162-0.546,0.227-0.823c1.482-6.365,1.544-12.76,0.335-19.168
							c-0.196-1.041-0.372-2.128-1.113-3.132c-0.718,0.651-1.229,1.403-1.781,2.112c-3.29,4.227-6.569,8.462-9.859,12.689
							C248.004,63.006,246.883,64.372,245.803,65.77z"/>
                                <path fill="#EEA600" d="M179.641,70.944c2.027,3.531,4.564,6.661,7.615,9.38c2.519,2.245,5.237,4.206,8.091,5.992
							c2.364,1.479,4.763,2.909,7.067,4.852c1.196-2.877,3.511-3.912,6.379-3.883c0-0.216,0.035-0.341-0.006-0.433
							c-0.163-0.363-0.343-0.719-0.528-1.072c-1.773-3.388-3.833-6.601-6.05-9.709c-2.092-2.93-4.467-5.624-7.227-7.949
							c-5.017-4.226-10.787-6.232-17.369-5.767c-0.735,0.052-1.47,0.107-2.117,0.589c0.029,0.159,0.02,0.343,0.094,0.481
							C176.93,65.938,178.224,68.476,179.641,70.944z"/>
                                <path fill="#EEA600" d="M255.951,188.647c0.346-0.498,0.594-0.809,0.792-1.149c0.949-1.634,1.587-3.398,2.117-5.203
							c1.02-3.472,1.366-7.024,1.281-10.632c-0.022-0.918-0.267-1.61-1.117-2.121c-0.972-0.584-1.868-1.299-2.771-1.991
							c-3.185-2.444-5.988-5.249-8.141-8.665c-2.683-4.257-3.959-8.911-3.918-13.93c0.007-0.786,0.112-1.571,0.185-2.518
							c-0.943-0.105-1.739-0.687-2.716-0.696c-0.084,0.228-0.167,0.382-0.196,0.545c-0.255,1.425-0.74,2.752-1.711,3.849
							c-0.382,0.432-0.423,0.913-0.389,1.43c0.091,1.363,0.207,2.724,0.282,4.087c0.217,3.99,0.849,7.915,1.79,11.795
							c2.223,9.164,6.511,17.192,13.159,23.922C254.994,187.77,255.416,188.143,255.951,188.647z"/>
                                <path fill="#EEA600" d="M196.166,100.184c-1.877-1.589-3.84-3.024-6.142-3.956c-3.344-1.354-6.812-2.239-10.383-2.662
							c-5.27-0.624-10.454-0.046-15.537,1.423c-1.237,0.358-2.493,0.721-3.662,1.43c0.311,0.641,0.859,0.98,1.343,1.347
							c2.857,2.166,5.7,4.352,8.618,6.433c1.43,1.02,2.967,1.916,4.532,2.719c5.928,3.041,12.12,3.699,18.549,1.87
							c0.211-0.06,0.4-0.197,0.579-0.288c0.17-3.557,0.447-4.103,3.235-6.209C196.9,101.552,196.834,100.751,196.166,100.184z"/>
                                <path fill="#EEA600" d="M222.662,82.222c0.269,0.341,0.624,0.613,0.967,0.944c1.322-0.732,2.679-0.774,4.041-0.675
							c0.951-0.93,1.507-2.054,2.014-3.194c2.133-4.792,2.753-9.863,2.374-15.022c-0.537-7.302-3.499-13.709-7.758-19.569
							c-0.191-0.263-0.449-0.479-0.879-0.929c-0.372,1.27-0.673,2.246-0.944,3.23c-1.42,5.152-2.921,10.286-3.806,15.568
							c-0.646,3.853-0.692,7.694,0.186,11.529C219.54,77.091,220.762,79.814,222.662,82.222z"/>
                                <path fill="#EEA600" d="M235.237,73.367c-0.682,3.513-1.993,6.766-4.191,9.626c-0.203,0.264-0.384,0.544-0.538,0.764
							c0.632,1.103,1.218,2.126,1.807,3.154c0.762-0.635,1.5-1.25,2.283-1.902c0.062-0.582,0.141-1.202,0.19-1.823
							c0.184-2.296,0.822-4.474,1.682-6.596c0.944-2.33,2.063-4.578,3.467-6.659c1.655-2.454,3.399-4.851,5.159-7.232
							c1.287-1.74,2.646-3.428,4.009-5.11c0.462-0.57,0.68-1.172,0.619-1.886c-0.083-0.964-0.097-1.941-0.275-2.887
							c-0.77-4.09-2.447-7.809-4.747-11.258c-0.213-0.32-0.488-0.599-0.719-0.879c-3.878,1.65-9.497,7.155-11.275,11.048
							c0.157,0.419,0.32,0.901,0.516,1.37C235.975,59.648,236.588,66.414,235.237,73.367z"/>
                                <path fill="#EEA600" d="M171.027,90.011c0.204-0.01,0.432-0.009,0.657-0.035c4.23-0.48,8.409-0.165,12.548,0.793
							c4.553,1.055,8.777,2.791,12.31,5.958c0.112,0.1,0.293,0.123,0.511,0.21c0.914-1.539,2.246-2.555,3.961-3.178
							c-0.687-0.778-1.477-1.23-2.245-1.701c-2.037-1.251-4.095-2.466-6.125-3.728c-5.136-3.193-9.558-7.158-13.029-12.141
							c-0.162-0.232-0.349-0.447-0.573-0.731c-0.629-0.072-1.137-0.134-1.646-0.187c-3.607-0.378-7.159-0.008-10.671,0.819
							c-0.702,0.165-1.452,0.315-1.936,0.924C164.88,80.731,168.24,87.73,171.027,90.011z"/>
                                <path fill="#EEA600" d="M216.103,147.347c-0.551-0.426-1.043-0.805-1.534-1.185c-0.473-0.367-0.67-1.024-1.289-1.34
							c-0.233,0.358-0.425,0.635-0.598,0.924c-1.376,2.303-2.484,4.734-3.424,7.244c-0.858,2.291-1.7,4.588-2.577,6.872
							c-1.151,2.995-2.652,5.791-4.752,8.245c-0.322,0.376-0.605,0.852-0.721,1.326c-0.488,1.994-0.83,4.015-0.73,6.082
							c0.178,3.689,1.127,7.182,2.696,10.514c0.093,0.197,0.254,0.363,0.493,0.696c4.352-2.816,7.848-6.385,10.714-10.636
							c-0.358-0.903-0.644-1.585-0.899-2.277c-1.185-3.217-2.079-6.493-2.271-9.945c-0.319-5.721,1.158-10.926,4.334-15.67
							C215.728,147.925,215.905,147.649,216.103,147.347z"/>
                                <path fill="#EEA600" d="M233.67,179.893c-0.135,0.572-0.187,1.079,0.131,1.635c1.951,3.411,4.783,5.875,8.318,7.941
							c2.037-2.461,2.913-5.202,3.655-8.008c-0.659-1.231-1.284-2.443-1.948-3.633c-2.121-3.803-3.625-7.852-4.775-12.036
							c-1.41-5.129-2.127-10.366-2.369-15.675c-0.028-0.605,0.152-1.257-0.233-1.777c-0.724-0.087-1.413-0.111-2.072-0.266
							c-0.638-0.15-1.244-0.436-2.042-0.726c0.157,0.721,0.256,1.267,0.395,1.802c0.544,2.093,1.13,4.176,1.647,6.276
							c1.521,6.169,1.749,12.39,0.607,18.642C234.627,176.024,234.129,177.956,233.67,179.893z"/>
                                <path fill="#EEA600" d="M190.404,112.08c-0.344,0-0.565-0.034-0.773,0.005c-5.515,1.045-10.744,0.132-15.744-2.308
							c-2.359-1.152-4.533-2.605-6.638-4.167c-0.499-0.37-1.01-0.724-1.46-1.046c-4.46,1.256-8.82,3.447-10.654,5.432
							c1.325,0.766,2.478,1.485,3.678,2.116c2.293,1.205,4.725,1.941,7.336,2.01c1.877,0.05,3.753,0.121,5.629,0.175
							c3.36,0.096,6.698,0.419,9.994,1.083c2.506,0.505,4.998,1.081,7.497,1.622c0.321,0.07,0.654,0.21,1-0.086
							c-0.075-0.522-0.188-1.07-0.223-1.622c-0.032-0.507-0.015-1.024,0.043-1.529C190.152,113.224,190.287,112.692,190.404,112.08z
							"/>
                                <path fill="#EEA600" d="M212.204,57.911c1.005,1.953,1.864,3.982,2.842,6.097c0.125-0.279,0.254-0.463,0.289-0.663
							c0.107-0.615,0.141-1.244,0.269-1.855c0.489-2.334,1.004-4.663,1.508-6.994c0.155-0.719,0.323-1.42,0.255-2.184
							c-0.307-3.447-1.532-6.532-3.723-9.182c-1.373-1.66-2.933-3.166-4.419-4.732c-0.146-0.154-0.357-0.248-0.596-0.408
							c-0.783,0.576-1.222,1.379-1.698,2.133c-0.484,0.767-0.915,1.572-1.321,2.384c-0.406,0.812-0.774,1.646-1.121,2.485
							c-0.341,0.826-0.78,1.626-0.87,2.44c1.612,1.704,3.165,3.285,4.647,4.929C209.793,54.053,211.161,55.884,212.204,57.911z"/>
                                <path fill="#EEA600" d="M297.163,122.167c-5.646,2.6-11.482,4.629-17.77,5.518c2.669,1.494,5.353,2.961,8.003,4.488
							c2.654,1.53,5.274,3.119,7.912,4.683c0.308-0.211,0.557-0.35,0.77-0.532c2.003-1.711,3.766-3.643,5.212-5.846
							c0.434-0.661,0.738-1.407,1.091-2.12c0.342-0.691,0.263-1.307-0.315-1.859c-0.905-0.865-1.768-1.775-2.69-2.622
							C298.712,123.267,298.051,122.637,297.163,122.167z"/>
                                <path fill="#EEA600" d="M284.852,155.024c-0.185-0.338-0.429-0.644-0.562-0.84c-1.801,0-3.45,0.067-5.091-0.019
							c-1.678-0.087-3.348-0.323-5.153-0.508c0.722,1.511,1.437,2.861,2.018,4.266c0.585,1.415,1.107,2.865,1.529,4.336
							c0.418,1.457,0.676,2.959,0.997,4.412c1.15,0.231,2.137-0.089,3.119-0.34c1.833-0.467,3.535-1.234,5.074-2.35
							c0.83-0.602,1.165-1.367,0.846-2.373c-0.086-0.271-0.162-0.544-0.249-0.814C286.73,158.786,285.862,156.873,284.852,155.024z"
                                />
                            </g>
                        </g>
                        <path fill="#7B4A1A" d="M197.585,120.921c-2.642-0.794-4.647-2.153-5.097-4.904c-0.426-2.608,0.187-4.911,2.685-6.36
					c-0.003-1.411-0.004-2.78,0.681-4.037c0.668-1.224,1.764-1.889,3.01-2.316c-0.094-0.895-0.198-1.682-0.254-2.473
					c-0.066-0.924,0.085-1.822,0.413-2.692c0.498-1.32,1.375-2.216,2.777-2.553c0.385-0.093,0.763-0.218,1.161-0.333
					c0.131-0.581,0.218-1.147,0.391-1.685c0.21-0.65,0.433-1.308,0.756-1.905c1.07-1.98,2.859-2.754,5.043-2.238
					c0.221,0.052,0.433,0.144,0.654,0.199c0.159,0.039,0.327,0.047,0.549,0.077c0.224-0.398,0.402-0.824,0.674-1.177
					c0.59-0.766,1.162-1.566,1.86-2.226c1.615-1.528,3.817-1.295,5.274,0.047c0.542,0.499,1.003,1.086,1.571,1.709
					c0.235-0.251,0.452-0.485,0.672-0.718c0.549-0.581,1.074-1.188,1.656-1.734c0.672-0.631,1.462-1.091,2.336-1.403
					c2.365-0.844,4.667,0.061,5.776,2.313c0.251,0.509,0.425,1.061,0.58,1.609c0.138,0.49,0.199,1.001,0.288,1.471
					c0.384,0.224,0.541-0.054,0.749-0.235c0.773-0.674,1.527-1.376,2.346-1.99c0.447-0.335,0.995-0.556,1.525-0.759
					c1.332-0.511,2.476-0.117,3.435,0.858c1.027,1.044,1.338,2.367,1.318,3.781c-0.007,0.506-0.106,1.011-0.178,1.652
					c0.381-0.034,0.701-0.053,1.018-0.094c0.62-0.081,1.239-0.255,1.857-0.248c1.608,0.019,2.659,0.959,3.001,2.523
					c0.218,0.995-0.02,1.931-0.277,2.869c-0.149,0.543-0.343,1.074-0.561,1.745c0.69-0.039,1.253-0.105,1.815-0.095
					c0.854,0.015,1.71,0.047,2.559,0.137c0.873,0.093,1.636,0.504,2.322,1.034c1.348,1.042,1.793,2.498,1.247,4.11
					c-0.164,0.483-0.401,0.946-0.645,1.396c-0.215,0.397-0.487,0.763-0.799,1.243c0.548,0.177,1.022,0.317,1.488,0.482
					c1.511,0.538,2.711,1.458,3.462,2.9c1.07,2.053,0.758,4.204-0.899,5.815c-0.566,0.551-1.255,0.976-1.975,1.526
					c0.169,0.229,0.369,0.483,0.551,0.749c0.514,0.751,1.098,1.469,1.506,2.275c0.301,0.595,0.46,1.3,0.522,1.97
					c0.188,2.03-0.742,3.546-2.617,4.376c-0.465,0.206-0.962,0.337-1.552,0.539c0.11,0.363,0.193,0.732,0.332,1.077
					c0.605,1.5,0.985,3.041,0.95,4.671c-0.021,0.944-0.279,1.811-0.844,2.564c-0.53,0.707-1.228,1.189-2.108,1.374
					c-0.386,0.082-0.774,0.159-1.164,0.239c-0.218,0.388-0.388,0.749-0.613,1.072c-0.259,0.372-0.529,0.752-0.86,1.056
					c-1.366,1.254-2.799,1.424-4.395,0.484c-0.683-0.402-1.296-0.924-2.047-1.468c-0.114,0.264-0.253,0.491-0.312,0.738
					c-0.35,1.457-0.852,2.847-1.733,4.076c-0.573,0.8-1.25,1.484-2.135,1.944c-1.262,0.657-2.431,0.486-3.513-0.393
					c-0.437-0.354-0.847-0.741-1.303-1.141c-0.395,0.084-0.442,0.548-0.666,0.85c-0.999,1.344-2.126,2.544-3.635,3.33
					c-1.068,0.556-2.12,0.572-3.014-0.281c-0.439-0.419-0.81-0.978-1.024-1.544c-0.258-0.684-0.328-1.441-0.455-2.171
					c-0.056-0.323-0.053-0.657-0.075-0.969c-0.509-0.092-0.635,0.306-0.882,0.509c-0.704,0.578-1.343,1.263-2.116,1.726
					c-2.099,1.257-4.388,0.581-5.513-1.605c-0.334-0.649-0.49-1.394-0.695-2.104c-0.108-0.374-0.146-0.768-0.235-1.261
					c-0.443,0.138-0.82,0.225-1.172,0.37c-2.742,1.128-5.422-0.471-6.367-2.763c-0.258-0.627-0.417-1.295-0.651-2.039
					c-0.29-0.022-0.619-0.053-0.95-0.072c-0.285-0.016-0.573,0.002-0.857-0.028c-3.069-0.326-4.627-2.485-3.997-5.531
					c0.046-0.221,0.089-0.443,0.155-0.768c-0.288-0.152-0.57-0.317-0.865-0.454c-2.878-1.338-3.985-4.244-2.71-7.155
					C196.993,122.02,197.25,121.576,197.585,120.921z"/>
                    </g>
                    <g>
                        <g>
                            <g>
                                <path fill="#EEA600" d="M345.939,91.596c-3.906,1.769-7.157,4.406-9.887,7.694c-0.578,0.696-1.094,1.443-1.605,2.124
							c1.137,2.396,1.137,2.396,1.572,5.311c1.181,0.32,2.327,0.775,3.364,1.51c0.329,0.233,0.857,0.248,1.296,0.256
							c3.848,0.071,7.602-0.533,11.253-1.72c3.178-1.034,6.023-2.67,8.471-4.971c4.108-3.862,5.97-8.646,5.8-14.237
							c-0.043-1.411-0.149-2.843-0.888-4.274c-1.084,0.246-1.919,0.733-2.771,1.163c-3.506,1.772-7.103,3.33-10.781,4.713
							C349.794,89.904,347.854,90.728,345.939,91.596z"/>
                                <path fill="#EEA600" d="M361.106,105.089c-2.098,1.687-4.491,2.888-7.013,3.818c-3.709,1.369-7.555,2.08-11.49,2.358
							c-0.377,0.027-0.75,0.108-1.127,0.164c-0.049,0.613-0.049,1.125-0.143,1.621c-0.083,0.442-0.26,0.867-0.413,1.294
							c-0.163,0.453-0.578,0.813-0.601,1.318c3.873,1.485,5.654,4.709,3.396,8.824c0.188,0.073,0.247,0.121,0.29,0.109
							c3.028-0.795,6.12-1.262,9.2-1.786c3.784-0.644,7.366-1.852,10.766-3.665c6.042-3.221,11.238-7.514,15.996-12.38
							c0.219-0.224,0.363-0.523,0.573-0.834c-0.357-0.15-0.609-0.294-0.88-0.364c-1.871-0.482-3.737-0.989-5.622-1.412
							c-3.197-0.718-6.427-0.786-9.671-0.358C363.17,103.956,362.092,104.296,361.106,105.089z"/>
                                <path fill="#EEA600" d="M349.72,168.033c0.205,0.1,0.411,0.196,0.619,0.288c3.198,1.409,6.547,2.299,9.998,2.768
							c1.221,0.166,2.462,0.487,3.899,0.175c-0.057-0.973-0.5-1.65-0.885-2.319c-2.269-3.946-4.494-7.921-6.887-11.791
							c-1.433-2.317-3.069-4.522-4.751-6.669c-2.005-2.56-4.297-4.86-6.928-6.801c-1.747-1.29-3.587-2.418-5.605-3.23
							c-0.72-0.29-1.447-0.627-2.354-0.573c-0.063,1.334-0.067,2.631-0.513,3.886c-0.471,1.327-1.39,2.296-2.364,3.241
							c0.156,0.124,0.236,0.209,0.334,0.262c4.54,2.445,7.656,6.184,9.835,10.785c0.977,2.061,1.78,4.187,2.474,6.357
							C347.388,166.898,347.389,166.898,349.72,168.033z"/>
                                <path fill="#EEA600" d="M380.008,136.439c-0.39-0.625-1.032-0.895-1.615-1.226c-3.169-1.802-6.435-3.416-9.845-4.702
							c-5.159-1.944-10.478-3.076-16.029-2.77c-2.615,0.144-5.194,0.535-7.71,1.464c-0.059,1.083-0.009,2.009-0.186,2.889
							c-0.174,0.87-0.577,1.694-0.874,2.524c0.992,1.365,2.199,2.39,3.575,3.222c4.482,2.711,9.372,4.038,14.582,4.253
							c3.504,0.145,6.915-0.424,10.28-1.355c2.157-0.597,4.163-1.521,6.045-2.718C378.896,137.596,379.601,137.201,380.008,136.439z
							"/>
                                <path fill="#EEA600" d="M345.897,179.127c0.452,0.211,0.949,0.324,1.495,0.506c0-0.557,0.077-1.017-0.012-1.443
							c-0.663-3.173-1.148-6.384-2.033-9.51c-0.963-3.399-2.024-6.759-3.637-9.919c-1.28-2.507-2.874-4.778-4.945-6.697
							c-1.816-1.683-3.856-3.007-6.213-3.805c-0.353-0.12-0.728-0.174-1.225-0.289c-0.175,1.534-0.346,2.94-0.494,4.348
							c-0.39,3.715-0.224,7.387,0.862,10.989c0.938,3.109,2.496,5.844,4.778,8.169C337.754,174.82,341.696,177.166,345.897,179.127z
							"/>
                                <path fill="#EEA600" d="M312.132,184.836c0.254,0.355,0.439,0.816,1.031,0.882c0.191-0.459,0.406-0.922,0.578-1.401
							c0.883-2.464,1.764-4.928,2.629-7.398c1.322-3.778,2.174-7.662,2.534-11.648c0.422-4.667-0.122-9.206-1.886-13.57
							c-0.139-0.344-0.35-0.66-0.56-1.048c-1.811,1.125-3.634,1.602-5.813,0.755c-0.427,0.911-0.83,1.659-1.137,2.444
							c-2.328,5.939-3.3,12.061-2.379,18.418C307.792,176.853,309.423,181.063,312.132,184.836z"/>
                                <path fill="#EEA600" d="M329.218,99.684c0.988-0.148,2.02,0,3.087,0.02c1.704-2.552,3.442-5.089,5.11-7.671
							c1.335-2.066,2.341-4.294,3.013-6.669c1.23-4.344,1.468-8.746,0.753-13.197c-0.307-1.914-0.78-3.787-1.73-5.565
							c-0.213,0.043-0.29,0.035-0.319,0.068c-0.258,0.3-0.534,0.591-0.757,0.916c-2.732,3.999-5.361,8.063-7.545,12.394
							c-1.85,3.669-3.416,7.45-4.396,11.455c-0.475,1.94-0.86,3.893-0.854,5.902c0.005,1.386,0.253,2.238,0.902,3.257
							C327.404,100.275,328.288,99.823,329.218,99.684z"/>
                                <path fill="#EEA600" d="M308.047,149.188c0.076-0.291-0.013-0.626-0.03-1.026c-2.299,0.562-4.479,0.972-6.491-0.29
							c-1.563,0.773-3.02,1.542-4.519,2.219c-1.449,0.655-2.925,1.258-4.418,1.805c-1.534,0.562-3.103,1.027-4.748,1.565
							c0.238,0.389,0.399,0.683,0.588,0.958c1.267,1.848,2.096,3.899,2.807,6.007c0.709,2.099,0.156,3.818-1.588,5.13
							c-0.814,0.612-1.707,1.122-2.581,1.651c-0.477,0.289-0.989,0.52-1.479,0.774c-0.263,2.465,0.403,4.703,1.025,6.945
							c0.066,0.236,0.26,0.437,0.44,0.727c0.259-0.238,0.438-0.373,0.581-0.54c1.965-2.302,4.2-4.323,6.499-6.28
							c1.386-1.18,2.783-2.35,4.138-3.565c3.969-3.558,6.908-7.837,8.812-12.813C307.488,151.397,307.759,150.286,308.047,149.188z"
                                />
                                <path fill="#EEA600" d="M314.937,96.69c0.237,0.31,0.519,0.585,0.758,0.851c0.938-0.457,1.766-0.986,2.672-1.266
							c0.961-0.297,1.996-0.357,3-0.52c1.191-1.688,1.848-3.61,2.161-6.037c0.413-3.199,0.253-6.373-0.373-9.523
							c-0.906-4.561-2.85-8.634-5.875-12.177c-0.47-0.55-0.907-1.153-1.756-1.561c-0.181,0.487-0.319,0.8-0.416,1.125
							c-1.312,4.427-2.432,8.9-3.145,13.465c-0.325,2.084-0.539,4.184-0.398,6.301C311.795,90.784,312.828,93.933,314.937,96.69z"/>
                                <path fill="#EEA600" d="M371.839,159.315c0.736-0.027,1.484-0.1,2.196-0.275c0.806-0.198,1.119-0.714,0.978-1.545
							c-0.133-0.783-0.31-1.57-0.578-2.316c-1.064-2.962-2.464-5.76-4.304-8.321c-0.494-0.688-1.07-1.316-1.591-1.949
							c-0.432,0-0.605-0.019-0.773,0.003c-5.397,0.697-9.886-0.479-15.046-2.232c-3.776-1.283-5.801-2.806-10.641-5.503
							c-0.183-0.102-0.35-0.253-0.522-0.373c-0.614,0.321-1.167,0.608-1.719,0.899c-0.05,0.026-0.114,0.06-0.13,0.105
							c-0.015,0.041,0.027,0.102,0.07,0.237c0.703,0.341,1.474,0.685,2.218,1.081c4.494,2.393,8.231,5.691,11.439,9.615
							c1.842,2.254,3.508,4.635,5.013,7.125c0.406,0.672,0.926,1.082,1.675,1.343c2.16,0.751,4.377,1.244,6.617,1.664
							C368.427,159.187,370.125,159.377,371.839,159.315z"/>
                                <path fill="#EEA600" d="M293.14,69.908c-0.187-0.158-0.449-0.229-0.686-0.345c-1.207,3.214-1.165,11.181,0.047,14.264
							c0.193,0.039,0.411,0.089,0.632,0.126c2.413,0.402,4.822,0.831,7.141,1.632c0.744,0.257,1.5,0.571,2.141,1.018
							c1.336,0.93,1.635,2.28,0.927,3.755c-0.245,0.51-0.536,1.008-0.868,1.466c-1.134,1.566-2.299,3.111-3.446,4.668
							c-0.23,0.313-0.433,0.645-0.662,0.989c0.754,1.518,1.466,2.993,2.566,3.994c1.374,0.073,2.545,0.136,3.726,0.199
							c1.01-2.879,2.996-4.547,6.133-5.017c-0.962-3.512-1.937-6.771-3.314-9.9c-1.644-3.738-3.887-7.07-6.722-10.006
							C298.38,74.29,295.747,72.114,293.14,69.908z"/>
                                <path fill="#EEA600" d="M320.176,178.978c1.538,2.821,3.556,5.291,5.66,7.695c0.445,0.508,0.97,0.945,1.583,1.534
							c0.279-0.368,0.434-0.534,0.546-0.726c1.132-1.922,2.067-3.941,2.704-6.074c0.569-1.905,1.081-3.831,1.11-5.855
							c0.015-1.073-0.227-1.925-0.956-2.783c-2.481-2.922-4.04-6.304-4.714-10.096c-0.461-2.595-0.628-5.199-0.508-7.828
							c0.025-0.554,0.207-1.127-0.125-1.716c-0.592,0.186-1.175,0.421-1.779,0.545c-0.553,0.113-1.131,0.147-1.698,0.143
							c-0.597-0.004-1.193-0.092-1.893-0.153c0.097,0.367,0.146,0.583,0.21,0.795c0.853,2.807,1.193,5.681,1.108,8.607
							c-0.12,4.124-0.774,8.169-2.02,12.097c-0.345,1.087-0.258,1.982,0.294,2.908C319.871,178.365,320.013,178.678,320.176,178.978
							z"/>
                                <path fill="#EEA600" d="M295.175,171.208c-0.23,4.315,0.507,8.43,2.859,12.289c2.596-1.18,5.349-3.553,6.708-5.697
							c-0.286-1.61-0.656-3.221-0.838-4.853c-0.188-1.691-0.265-3.403-0.259-5.106c0.006-1.613,0.181-3.225,0.288-4.941
							C303.828,163,295.215,171.169,295.175,171.208z"/>
                                <path fill="#EEA600" d="M379.785,125.482c-1.256-1.811-6.37-5.409-8.812-6.189c-0.901,0.554-1.81,1.136-2.742,1.678
							c-0.982,0.57-1.973,1.128-2.985,1.643c-0.961,0.489-1.955,0.91-2.931,1.37c-0.996,0.469-2.097,0.696-3.077,1.366
							c2.619,0.548,5.214,1.069,7.704,1.954c2.564,0.911,5.091,1.924,7.74,2.933C377.045,128.61,378.811,126.962,379.785,125.482z"
                                />
                                <path fill="#EEA600" d="M349.26,87.384c1.092-0.481,2.216-0.892,3.337-1.302c0.465-0.17,0.787-0.435,0.935-0.907
							c0.803-2.57,1.338-5.178,1.124-7.893c-0.054-0.685-0.212-1.338-0.675-2.129c-3.155,0.521-5.975,1.637-8.699,3.049
							c-0.073,0.606-0.13,1.111-0.195,1.616c-0.072,0.564-0.142,1.129-0.23,1.69c-0.079,0.506-0.164,1.012-0.277,1.511
							c-0.125,0.555-0.277,1.104-0.432,1.651c-0.14,0.492-0.285,0.984-0.454,1.467c-0.187,0.537-0.392,1.068-0.609,1.594
							c-0.196,0.473-0.437,0.927-0.625,1.403c-0.194,0.491-0.614,0.91-0.598,1.626c0.379-0.18,0.626-0.302,0.877-0.416
							C344.911,89.353,347.075,88.345,349.26,87.384z"/>
                                <path fill="#EEA600" d="M294.199,101.426c-0.577,0.457-1.17,0.896-1.776,1.313c-0.593,0.407-1.211,0.777-2.014,1.287
							c1.288,0.307,2.326,0.57,3.373,0.799c1.085,0.238,2.12,0.733,3.205,0.757c0.464-0.912,0.868-1.706,1.276-2.507
							c-0.729-1.061-1.428-2.078-2.211-3.218C295.322,100.479,294.774,100.97,294.199,101.426z"/>
                            </g>
                        </g>
                        <path fill="#7B4A1A" d="M305.039,104.055c0.197-0.442,0.375-0.85,0.559-1.255c0.476-1.049,1.076-2.018,1.904-2.829
					c1.805-1.767,3.961-2.003,6.088-0.666c0.338,0.212,0.656,0.455,1.068,0.744c0.351-0.216,0.733-0.436,1.099-0.679
					c0.958-0.638,1.963-1.156,3.106-1.389c2.419-0.493,4.287,0.389,5.364,2.61c0.321,0.662,0.537,1.375,0.845,2.177
					c0.423-0.169,0.832-0.316,1.228-0.493c0.994-0.443,1.993-0.858,3.102-0.923c1.893-0.111,3.053,0.563,3.724,2.354
					c0.295,0.787,0.382,1.658,0.516,2.498c0.062,0.385,0.011,0.788,0.011,1.284c0.335,0.036,0.661,0.074,0.988,0.105
					c2.683,0.256,4.632,2.382,4.559,5.066c-0.022,0.788-0.238,1.574-0.408,2.352c-0.095,0.436-0.279,0.853-0.437,1.32
					c0.547,0.304,1.055,0.554,1.531,0.855c1.538,0.973,2.461,2.368,2.705,4.171c0.191,1.405-0.261,2.591-1.382,3.497
					c-0.303,0.245-0.597,0.502-0.905,0.762c2.393,2.128,3.156,4.718,2.029,7.624c-1.229,3.169-3.908,3.892-7.011,3.493
					c-0.293,0.51-0.104,0.963-0.067,1.397c0.14,1.675-0.079,3.308-0.541,4.914c-0.095,0.329-0.222,0.649-0.35,0.967
					c-1.069,2.663-3.236,3.035-5.106,2.029c-0.238-0.128-0.498-0.216-0.86-0.37c-0.073,0.445-0.105,0.771-0.183,1.085
					c-0.219,0.884-0.391,1.788-0.703,2.64c-0.469,1.282-1.375,2.226-2.587,2.859c-1.921,1.003-4.099,0.485-5.274-1.326
					c-0.43-0.662-0.689-1.436-1.007-2.167c-0.109-0.249-0.16-0.523-0.225-0.742c-0.441-0.144-0.586,0.16-0.798,0.324
					c-0.586,0.455-1.131,0.976-1.764,1.35c-0.581,0.343-1.235,0.625-1.893,0.767c-2.102,0.455-3.593-0.611-3.926-2.735
					c-0.053-0.335-0.062-0.676-0.103-1.143c-2.248,0.671-4.446,1.219-6.677-0.029c0.062-0.374,0.112-0.701,0.171-1.027
					c0.24-1.326-0.18-2.363-1.341-3.076c-1.023-0.628-2.053-1.244-3.068-1.884c-0.525-0.331-1.11-0.588-1.592-1.184
					c0.86-1.266,1.857-2.421,2.866-3.568c0.755-0.858,1.549-1.687,2.239-2.596c0.654-0.861,1.218-1.795,1.775-2.724
					c0.261-0.436,0.427-0.932,0.614-1.41c0.536-1.365,0.278-2.603-0.717-3.645c-0.787-0.825-1.636-1.594-2.494-2.346
					c-0.726-0.637-1.505-1.216-2.337-1.881c0.374-0.306,0.652-0.579,0.973-0.787c1.438-0.933,2.911-1.814,4.327-2.779
					c0.988-0.673,1.959-1.393,2.83-2.208c0.524-0.49,0.91-1.168,1.236-1.821c0.485-0.971,0.279-1.933-0.454-2.693
					c-0.507-0.526-1.124-0.972-1.754-1.348c-1.829-1.092-3.835-1.757-5.88-2.318c-0.758-0.208-1.506-0.456-2.278-0.692
					c0.064-0.952,0.437-1.643,0.962-2.254c1.012-1.177,2.468-1.519,4.059-0.952C303.929,103.551,304.443,103.801,305.039,104.055z"
                        />
                    </g>
                    <g>
                        <g>
                            <g>
                                <path fill="#EEA600" d="M128.389,165.173c0.729-0.112,1.472-0.204,2.172-0.422c2.744-0.854,5.259-2.155,7.454-4.03
							c1.95-1.666,3.317-3.724,4.161-6.146c0.627-1.801,1.385-6.54,1.474-9.491c-1.302-0.628-2.2-1.685-2.643-3.281
							c-0.851,0.276-1.359,0.729-1.891,1.144c-3.616,2.818-6.31,6.379-8.368,10.442c-1.676,3.308-2.813,6.836-4.132,10.289
							c-0.131,0.342-0.081,0.752-0.117,1.148C127.153,165.179,127.762,165.269,128.389,165.173z"/>
                                <path fill="#EEA600" d="M143.24,172.824c0.155-0.141,0.345-0.269,0.476-0.441c1.41-1.854,2.902-3.656,4.197-5.588
							c2.742-4.091,3.942-8.655,3.822-13.571c-0.053-2.151-0.112-4.301-0.166-6.389c-0.958-0.788-1.908-1.57-2.901-2.387
							c-0.843,0.328-1.726,0.671-2.599,1.01c-0.061,0.47-0.115,0.863-0.163,1.256c-0.302,2.484-0.604,4.966-1.31,7.379
							c-0.882,3.015-2.415,5.631-4.709,7.786c-0.329,0.309-0.707,0.566-0.933,0.744C139.36,167.056,141.08,171.103,143.24,172.824z"
                                />
                                <path fill="#EEA600" d="M117.37,156.343c0.736-0.066,1.472-0.145,2.202-0.263c2.529-0.409,5.022-0.957,7.382-1.998
							c1.123-0.496,1.958-1.226,2.572-2.347c2.181-3.984,4.989-7.459,8.665-10.187c0.245-0.182,0.441-0.432,0.721-0.713
							c-1.685-0.918-2.698-2.245-3.246-4.004c-0.243,0.116-0.306,0.128-0.343,0.166c-0.316,0.326-0.633,0.651-0.94,0.985
							c-3.744,4.073-8.342,6.416-13.886,6.79c-0.788,0.053-1.238,0.446-1.648,1.025c-1.696,2.398-2.875,5.03-3.532,7.887
							c-0.2,0.869-0.315,1.772-0.017,2.777C116.033,156.421,116.704,156.403,117.37,156.343z"/>
                                <path fill="#EEA600" d="M131.776,130.639c-0.519-1.073-1.353-1.315-2.364-1.281c-0.676,0.023-1.378,0.083-2.017,0.287
							c-1.949,0.619-3.906,1.237-5.802,1.999c-4.074,1.639-7.89,3.804-11.709,5.953c-0.218,0.123-0.38,0.346-0.582,0.537
							c0.669,0.871,1.457,1.413,2.32,1.866c1.935,1.018,3.998,1.663,6.152,1.957c4.037,0.549,7.853-0.219,11.302-2.368
							c2.329-1.451,4.325-3.338,5.953-5.575c0.229-0.315,0.398-0.673,0.625-1.065c-0.455-0.125-0.833-0.239-1.217-0.333
							C133.27,132.329,132.289,131.7,131.776,130.639z"/>
                                <path fill="#EEA600" d="M154.755,162.229c0.015,0.284,0.063,0.566,0.084,0.851c0.35,4.803,2.68,8.499,6.39,11.421
							c0.121,0.095,0.299,0.119,0.512,0.199c0.701-1.021,0.915-2.204,1.232-3.334c1.115-3.974,1.726-8.016,1.492-12.157
							c-0.031-0.549,0.08-1.144-0.402-1.69c-0.346,0.036-0.732,0.078-1.12,0.117c-0.622,0.063-1.245,0.179-1.867,0.176
							c-1.976-0.007-3.117-1.024-3.196-3.001c-0.045-1.125,0.06-2.287,0.302-3.387c0.352-1.6,0.889-3.16,1.372-4.822
							c-0.8-0.287-1.64-0.589-2.318-0.832c-1.093,0.495-2.017,0.913-3.068,1.388c-0.035,0.469-0.138,1.032-0.111,1.588
							C154.276,153.242,154.518,157.736,154.755,162.229z"/>
                                <path fill="#EEA600" d="M105.415,128.141c1.072,0.52,2.155,1.028,3.269,1.448c2.46,0.928,4.999,1.504,7.646,1.555
							c1.046,0.02,2.008-0.174,2.963-0.621c2.37-1.11,4.815-2.033,7.367-2.641c1.327-0.316,2.662-0.626,4.155-0.305
							c0.474-1.345,0.897-2.544,1.337-3.791c-0.323-0.057-0.542-0.109-0.764-0.131c-2.262-0.228-4.524-0.451-6.786-0.674
							c-2.15-0.212-4.298-0.434-6.449-0.631c-1.877-0.172-3.749-0.129-5.604,0.25c-2.259,0.461-4.371,1.262-6.148,2.774
							c-0.512,0.436-0.963,0.964-1.355,1.512C104.683,127.389,104.823,127.854,105.415,128.141z"/>
                                <path fill="#EEA600" d="M110.561,115.191c2.343,2.073,5.074,3.423,8.047,4.316c3.905,1.173,7.909,1.543,11.968,1.423
							c0.255-0.007,0.507-0.125,0.788-0.198c-0.19-1.666,0.253-3.113,1.059-4.566c-1.84-1.541-3.788-2.471-5.853-3.118
							c-2.383-0.746-4.803-1.373-7.215-2.026c-2.06-0.558-4.168-0.562-6.268-0.354c-1.354,0.135-2.699,0.393-4.033,0.668
							c-0.819,0.169-0.984,0.636-0.574,1.391C109.004,113.69,109.747,114.471,110.561,115.191z"/>
                                <path fill="#EEA600" d="M138.079,83.588c-0.134-0.133-0.358-0.174-0.622-0.296c-0.097,0.502-0.216,0.886-0.239,1.276
							c-0.148,2.443-0.389,4.888-0.385,7.333c0.007,4.767,1.257,9.226,3.719,13.325c0.162,0.27,0.249,0.657,0.779,0.68
							c1.686-1.365,3.648-1.865,6.065-1.119c0.114-0.614,0.237-1.046,0.269-1.484c0.119-1.605-0.085-3.178-0.47-4.739
							C145.725,92.614,142.351,87.827,138.079,83.588z"/>
                                <path fill="#EEA600" d="M126.14,108.261c2.134,2.215,4.696,3.753,7.582,4.767c0.301,0.106,0.597,0.365,0.957,0.164
							c1.115-3.044,1.115-3.044,4.285-5.19c-0.674-1.132-1.534-2.11-2.517-2.978c-1.801-1.59-3.781-2.915-5.963-3.928
							c-3.27-1.519-6.712-2.478-10.258-3.068c-0.7-0.116-1.426-0.275-2.224-0.092c0.085,0.229,0.11,0.398,0.199,0.52
							C120.673,101.866,123.211,105.222,126.14,108.261z"/>
                                <path fill="#EEA600" d="M159.232,85.214c-4.482,3.865-9.421,14.354-9.11,19.371c1.597,0.003,3.144,0.267,4.506,1.31
							c3.123-1.719,4.746-3.626,5.006-5.846c-0.554-0.425-1.159-0.847-1.714-1.325c-1.003-0.864-1.269-1.993-0.809-3.233
							c0.286-0.771,0.77-1.399,1.454-1.843c0.521-0.338,1.084-0.615,1.639-0.898c0.499-0.255,1.012-0.481,1.549-0.734
							c0.178-1.691-0.408-3.169-1.025-4.629C160.382,86.569,160.054,85.709,159.232,85.214z"/>
                                <path fill="#EEA600" d="M170.128,162.853c1.588,2.154,3.607,3.757,6.154,4.655c0.527,0.186,1.046,0.418,1.722,0.142
							c-0.518-4.261-1.807-8.158-4.558-11.509c-2.003,0.277-3.902,0.539-5.904,0.816c0.022,0.394-0.004,0.57,0.045,0.722
							C168.176,159.53,168.972,161.286,170.128,162.853z"/>
                                <path fill="#EEA600" d="M110.958,104.423c0.369,1.343,1.087,2.488,1.979,3.546c0.475,0.564,1.005,0.824,1.77,0.799
							c2.747-0.092,5.443,0.286,8.089,1.032c0.264,0.074,0.544,0.092,0.901,0.149c-0.022-0.279-0.005-0.352-0.034-0.388
							c-2.015-2.466-4.038-4.925-6.046-7.396c-0.314-0.386-0.711-0.592-1.17-0.614c-1.303-0.064-2.613-0.164-3.913-0.097
							c-1.402,0.071-1.899,0.755-1.757,2.141C110.805,103.873,110.883,104.15,110.958,104.423z"/>
                                <path fill="#EEA600" d="M185.21,153.485c0.093-0.207,0.184-0.415,0.27-0.625c0.02-0.05,0.034-0.115,0.019-0.162
							c-0.017-0.049-0.073-0.085-0.144-0.16c-1.188,0.479-2.392,0.964-3.596,1.45c-1.244,0.502-2.605,0.684-3.804,1.293
							c0.662,2.206,2.155,4.91,3.556,6.4C182.788,158.849,183.999,156.167,185.21,153.485z"/>
                            </g>
                        </g>
                        <path fill="#7B4A1A" d="M153.188,107.477c-0.575,2.697-0.251,3.466,2.081,4.866c1.323,0.794,2.678,1.535,4.011,2.312
					c0.884,0.515,1.772,1.03,2.443,1.769c-0.041,0.507-0.439,0.556-0.7,0.716c-1.557,0.96-3.146,1.868-4.688,2.851
					c-2.132,1.358-4.096,2.93-5.695,4.905c-0.499,0.616-0.943,1.297-1.297,2.005c-0.386,0.774-0.308,1.58,0.337,2.22
					c0.729,0.723,1.454,1.462,2.26,2.093c3.2,2.503,6.551,4.792,10.026,6.898c0.87,0.527,1.735,1.061,2.549,1.76
					c-1.05,1.381-2.055,2.687-3.04,4.009c-0.341,0.457-0.781,0.637-1.328,0.644c-0.873,0.012-1.704-0.17-2.493-0.533
					c-0.464-0.214-0.914-0.457-1.359-0.681c-0.12,0.062-0.256,0.088-0.314,0.169c-0.975,1.364-2.287,1.561-3.807,1.156
					c-1.072-0.286-2.002-0.825-2.873-1.485c-0.405-0.307-0.793-0.636-1.199-0.965c-0.501,0.252-0.939,0.522-1.411,0.701
					c-1.518,0.577-3.023,0.125-3.913-1.233c-0.433-0.66-0.723-1.414-1.078-2.126c-0.096-0.06-0.186-0.135-0.29-0.177
					c-2.706-1.094-3.863-2.92-3.704-5.875c0.03-0.562,0.098-1.122,0.157-1.776c-0.535-0.153-1.018-0.295-1.503-0.429
					c-2.709-0.743-4.074-2.483-3.138-5.765c0.278-0.974,0.821-1.871,1.292-2.914c-0.045-0.1-0.113-0.316-0.231-0.501
					c-1.596-2.497-0.738-5.761,1.325-7.43c0.538-0.435,0.764-0.901,0.854-1.572c0.392-2.938,1.631-4.169,4.657-4.672
					c0.804-1.031,1.623-2.15,3.156-2.308c1.384-0.143,2.589,0.299,3.755,1.097c0.495-0.267,0.985-0.541,1.483-0.798
					c0.645-0.331,1.34-0.309,2.013-0.17C152.211,106.381,152.813,106.705,153.188,107.477z"/>
                    </g>
                </g>
            </g>
        </g>
</svg>
