<?xml version="1.0" encoding="utf-8"?>
<svg version="1.1" id="Layer_1" xmlns="http://www.w3.org/2000/svg"
     xmlns:xlink="http://www.w3.org/1999/xlink"
     x="0px" y="0px" viewBox="0 0 512 512"

     xml:space="preserve">
    <style type="text/css">.st0{fill-rule:evenodd;clip-rule:evenodd;}</style>
    <path fill="#1A1A1A" d="M70.541,223.679c13.83,9.158,31.144,14.775,47.102,10.554c-0.164,0.102-1.189,0.817-2.866,1.557
		c-1.145,0.531-2.761,0.921-3.335,2.112c-0.465,0.928-0.234,2.091,0.783,2.79c0.421,0.285,0.868,0.422,1.303,0.513
		c4.461,0.661,9.811,0.711,14.718-0.166c2.703-0.486,6.783-1.604,9.331-2.872c-0.436-1.085-3.894-7.98-6.38-17.178
		c-2.876-10.577-4.496-24.176-3.611-36.203c0.442-6.109,0.985-10.685,2.525-19.032l-0.884-0.295
		c-0.565-0.189-0.273-0.235-2.742-0.621c-1.351-0.238-2.691-0.47-4.056-0.557c-5.988-0.401-7.325-2.825-9.816-4.711
		c-0.169-0.132-2.965-2.318-2.795-2.185c-1.241,0.96-17,9.193-33.015,30.479l-0.625,0.83l0.584,0.867
		c6.388,9.476,13.808,17.275,23.403,23.317c-2.635,0.485-4.93,0.937-9.166,1.098c-12.227,0.46-20.738-3.552-24.433-3.359
		c-2.778,0.168-4.351,2.673-3.233,5.389C64.585,219.013,67.829,221.85,70.541,223.679z M121.957,226.854
		C121.957,226.854,121.957,226.854,121.957,226.854c-0.993-0.013-1.968-0.508-2.51-1.289c-0.95-1.307-0.652-3.344,0.862-4.286
		c1.752-1.079,4.267-0.287,4.754,1.867C125.545,225.115,123.994,226.897,121.957,226.854z M115.669,208.102
		c0.31-1.34,1.53-2.357,3.11-2.346c1.541,0.023,2.826,1.069,3.169,2.425c0.538,2.005-1.017,3.887-3.127,3.85c0,0,0,0,0,0
		C116.759,212.009,115.185,210.06,115.669,208.102z M118.821,212.03C118.821,212.03,118.821,212.03,118.821,212.03L118.821,212.03
		C118.821,212.03,118.821,212.03,118.821,212.03z M121.957,226.854C121.958,226.854,121.958,226.854,121.957,226.854
		C121.958,226.854,121.958,226.854,121.957,226.854z M117.291,189.025c1.065-0.015,2.095,0.549,2.66,1.389
		c1.143,1.681,0.373,3.882-0.876,4.804c-1.076,0.816-2.533,0.873-3.697,0.002c-1.393-1.012-1.855-3.184-0.748-4.785
		C115.204,189.596,116.225,189.027,117.291,189.025C117.29,189.025,117.29,189.025,117.291,189.025z M118.843,173.029
		c1.531,0.28,2.534,1.609,2.496,3.103c-0.03,1.368-1.013,3.048-2.491,3.515c-1.904,0.595-4.03-0.958-3.997-3.193
		C114.858,175.397,116.89,172.643,118.843,173.029z M117.29,189.025L117.29,189.025C117.29,189.025,117.29,189.025,117.29,189.025
		L117.29,189.025z"/>
    <path fill="#1A1A1A" d="M312.258,275.495l-0.1-0.01l-0.2-0.02c-3.613-0.361-7.073-0.901-11.715-2.194
		c-20.173-5.634-38.709-20.927-50.315-37.734c-4.904-7.065-8.76-14.764-11.775-22.902l-0.125-0.339
		c-0.274,0.021-9.871,1.979-22.257,1.196c0,0,0,0,0,0l0,0l0,0l0,0c0,0.002,0,0.004-0.001,0.006c0-0.002,0.001-0.004,0.001-0.006
		c-0.007,0.122-0.064,0.379-0.05,0.456c0.001,0.005,0.003,0.01,0.004,0.016c0.002,0.019-0.005,0.037,0,0.056l0.107,0.521
		c0.071,0.349,0.177,0.686,0.263,1.03c0.285,0.86,3.334,14.072,11.362,29.786c1.469,2.909,2.896,5.36,3.055,5.649
		c0.683,1.095,1.226,1.2,1.822,1.614c2.346,1.502,3.994,3.988,4.382,7.319c0.053,0.359,0.068,0.661,0.261,1.219
		c0.305,0.905,0.786,1.346,1.255,2.028c0.074,0.1,5.312,7.169,5.059,6.828c0.091,0.123,2.005,2.707,1.897,2.56
		c0.231,0.293,0.419,0.633,0.855,0.996c0.722,0.606,1.587,0.78,2.287,1.039c1.774,0.593,3.387,1.187,5.045,2.837
		c1.368,1.333,2.162,3.025,2.473,4.925c0.037,0.316,0.089,0.628,0.101,0.95c0.065,0.296-0.14,1.475,1.064,2.711
		c0.101,0.098,2.463,2.411,2.313,2.264c3.235,3.107,6.553,6.014,9.655,8.491c9.596,7.7,21.246,14.265,29.555,17.427l1.113,0.424
		l0.644-1.023c3.462-5.497,6.351-11.359,8.586-17.45c3.58-9.685,4.798-17.583,5.264-19.684l-0.848-0.551
		C312.976,275.719,312.758,275.539,312.258,275.495z M297.987,286.498c0.359-1.288,1.613-2.226,3.099-2.189
		c1.464,0.03,2.718,1.066,2.996,2.354c0.445,1.962-1.141,3.746-3.163,3.695c0,0,0,0,0,0
		C298.922,290.323,297.417,288.452,297.987,286.498z M300.919,290.358C300.919,290.358,300.919,290.358,300.919,290.358
		L300.919,290.358C300.919,290.358,300.919,290.358,300.919,290.358z M286.847,279.784c-0.018,2.126-2.038,3.645-3.912,3.105
		c-1.359-0.369-2.356-1.764-2.341-3.223c0.02-1.546,1.084-2.831,2.42-3.139c1.861-0.463,3.849,1.108,3.833,3.243
		C286.848,279.772,286.847,279.782,286.847,279.784z M270.019,269.298c-0.407,1.349-1.834,2.338-3.277,2.31
		c-1.514-0.032-2.752-1.12-3.015-2.487c-0.415-1.995,1.232-3.85,3.306-3.794C268.054,265.347,270.631,267.333,270.019,269.298z
		 M247.692,256.593c0.357-1.286,1.594-2.226,3.097-2.19c1.478,0.029,2.709,1.075,2.984,2.36c0.451,1.984-1.154,3.746-3.159,3.693
		c0,0,0,0,0,0C248.583,260.42,247.128,258.537,247.692,256.593z M228.146,223.528c0.263-1.394,1.533-2.505,3.038-2.521
		c1.139-0.032,2.777,0.799,3.333,2.433c0.635,1.943-0.928,3.982-3.043,3.988c0,0,0,0-0.001,0
		C229.391,227.451,227.74,225.523,228.146,223.528z M239.198,243.115c-1.318-0.319-2.329-1.63-2.335-3.011
		c-0.014-1.472,0.977-2.719,2.274-3.056c1.941-0.533,3.818,0.984,3.83,2.994c0-0.001,0-0.002,0-0.003c0,0.001,0-0.002,0,0.006
		c0-0.001,0-0.002,0-0.003C242.994,242.065,241.118,243.603,239.198,243.115z M231.473,227.429L231.473,227.429L231.473,227.429
		C231.473,227.429,231.473,227.429,231.473,227.429z M250.614,260.456L250.614,260.456
		C250.614,260.456,250.614,260.456,250.614,260.456C250.614,260.456,250.614,260.456,250.614,260.456z"/>
    <path fill="#1A1A1A" d="M432.962,300.579c0.321-7.389,6.213-37.458-11.385-56.703c-5.325-5.918-11.188-9.092-17.39-12.216
		c-0.105-0.053-2.972-1.497-2.795-1.408c-0.491-0.241-0.784-0.42-1.076-0.879c-0.076-0.119-1.785-2.815-1.678-2.646
		c-0.063-0.1-1.539-2.437-1.706-2.666c-0.082-0.105-2.13-2.742-2.002-2.577l-0.729,1.972c-2.081,5.633-6.155,7.979-12.362,7.716
		l-1.042-0.044l-0.03,1.017c-0.134,4.509-2.628,6.798-2.741,6.992l0.191,0.514c1.502,4.049,3.147,8.009,4.435,12.059
		c1.292,4.049,2.206,8.243,3.339,12.406l0.158,0.58c7.258-0.851,15.778-1.639,24.344-4.638l0.187-0.065l0.036-0.194
		c0.016-0.115,0.109-0.472,0.061-0.64c-0.706-5.695-1.695-7.92-3.747-12.62c-0.045-0.102-1.892-4.298-1.847-4.196
		c0-0.001,0.001-0.001,0.001-0.002l0.196-0.202c5.134,3.003,9.138,6.876,12.093,11.237c9.287,13.839,7.382,31.984,5.444,48.366
		c-3.395,17.924-5.892,23.003-3.293,33.44c1.425,5.623,4.377,10.778,8.108,15.119c0.62,0.753,1.266,1.363,2.438,1.945
		c0.714,0.357,1.443,0.555,2.247,0.455c1.245-0.134,2.459-1.038,2.981-2.399c0.031-0.1,0.534-1.704,0.503-1.604
		c3.454-10.658,4.301-12.734,4.817-16.238C443.049,316.66,431.592,311.55,432.962,300.579z"/>
    <path fill="#1A1A1A" d="M289.036,191.828c7.61,14.37,21.835,24.643,38.373,26.679c18.79,2.25,36.536-4.557,50.385-16.563
		c0,0-0.001,0-0.001,0.001c0,0,0.001-0.001,0.001-0.001v0v0l0,0c-0.061-0.1-0.457-0.753-0.397-0.653
		c-0.078-0.103-3.298-4.352-3.22-4.249c-1.241-1.609-2.435-3.248-3.848-4.736c-5.711-6.711-12.897-10.015-21.925-9.999
		c-4.121,0.12-8.135,0.467-12.211,0.696c-20.347,1.32-8.375,0.501-15.143,0.875c-0.104,0.001-9.716,0.081-9.117,0.076
		c-14.223,0.125-12.251,0.212-15.177,0.078c-0.103-0.004-6.422-0.263-6.026-0.247c-1.008-0.034-1.945-0.206-2.92-0.3l-2.208-0.212
		l0.62,2.139C286.755,187.253,288.127,190.134,289.036,191.828z M331.293,211.211c-1.368-0.319-2.41-1.597-2.397-3.095
		c0.017-1.544,1.089-2.784,2.461-3.12c2.044-0.544,3.951,1.064,3.909,3.096c0-0.001,0-0.002,0-0.003c0,0.001,0-0.002,0,0.006
		c0-0.001,0-0.002,0-0.003C335.245,210.141,333.265,211.699,331.293,211.211z M305.11,198.262c-1.357-0.364-2.338-1.729-2.321-3.134
		c0.013-1.535,1.016-2.751,2.365-3.073c1.978-0.502,3.812,1.068,3.796,3.141c0-0.001,0-0.002,0-0.003c0,0.001,0-0.002,0,0.005
		c0-0.001,0-0.002,0-0.003C308.951,197.267,307.064,198.808,305.11,198.262z M319.808,204.487c0-0.002,0-0.004,0-0.006
		c-0.009,2.062-1.869,3.625-3.9,3.055c-1.324-0.357-2.349-1.653-2.329-3.183c0.013-1.535,1.084-2.792,2.43-3.092
		c1.993-0.481,3.824,1.129,3.798,3.22c0-0.002,0-0.004,0-0.006c0,0.002,0,0.004,0,0.006S319.808,204.485,319.808,204.487z
		 M363.463,206.209c-0.001,0-0.002,0-0.003,0c-1.033-0.001-2.043-0.514-2.623-1.314c-1.623-2.161,0.15-5.146,2.626-5.136
		c2.662-0.002,4.135,3.144,2.632,5.157C365.114,206.29,363.363,206.233,363.463,206.209z M350.716,206.84
		c-0.357,1.367-1.69,2.401-3.193,2.417c-1.556,0.01-2.812-1.033-3.12-2.391c-0.479-1.962,1.107-3.906,3.192-3.909c0,0,0,0,0,0
		C349.687,202.939,351.268,204.835,350.716,206.84z M347.594,202.957L347.594,202.957L347.594,202.957
		C347.594,202.957,347.594,202.957,347.594,202.957z"/>
    <path fill="#1A1A1A" d="M255.774,182.784c0-0.001,0-0.001,0-0.002l0,0l0,0l0,0c0,0,0,0,0,0c0,0,0,0,0,0
		c-7.821,3.159-16.047,5.309-24.412,5.859c-7.39,0.559-16.641-0.09-24.83-2.272c-12.535-3.305-23.939-10.51-31.287-19.164
		c-2.498-2.89-4.648-6.157-6.483-9.544c-0.071-0.146-0.97-1.48-1.038-1.58l-0.95,0.196c-5.623,1.159-10.421,4.12-15.619,7.234
		c0.181,0.462,0.76,3.3,3.805,8.756c3.983,7.117,9.761,13.585,16.182,18.682c8.538,6.771,18.646,11.532,29.345,14.512
		c9.976,2.781,21.113,3.651,32.544,2.31c19.682-2.286,30.254-10.627,31.316-11.141c-0.448-0.184-2.582-0.776-4.527-2.248
		C258.693,193.535,255.359,187.346,255.774,182.784z"/>
    <path fill="#1A1A1A" d="M379.956,274.121l1.213-0.837c-5.617-6.294-16.865-18.897-22.685-25.419l-0.968,0.509
		c-3.256,1.715-7.02,1.365-9.227,1.527c0.083,0.101,3.007,3.628,2.847,3.435c0.184,0.207,12.632,14.243,12.019,13.551
		c0.467,0.527,1.087,1.155,1.198,1.802c0.219,1.277-0.153,2.045-0.89,2.72c-0.307,0.274-7.254,5.383-7.154,5.309
		c-3.243,2.417-6.473,4.729-9.727,7.232l-1.116,0.859c-0.447-0.598,6.38,8.539,14.936,19.991c1.223,1.718,0.429,3.191-1.525,4.065
		c-0.102,0.044-2.458,1.063-2.311,0.999c-16.716,7.18-19.584,8.524-19.878,8.652c2.111,3.415,2.623,4.34,13.816,23.382
		c0.339,0.63,0.461,1.187,0.347,1.757c-0.334,1.616-1.09,2.246-2.529,2.37l-2.549,0.109c-4.748,0.182-5.097,0.292-6.152,0.363
		c0.151,1.618,1.416,15.168,1.558,16.686c0.645,0.06,8.145-1.544,19.961,4.292l0.741,0.366c0.752-4.139,1.381-8.351,2.159-10.808
		c3.283,5.034,6.238,7.918,6.962,8.747c11.689-11.732,11.621-11.664,11.818-11.863c-2.313-2.593-20.793-20.165-26.348-25.46
		c-1.332-1.359-2.395-2.006-2.714-3.181c-0.331-1.143,0.659-2.168,1.936-2.706c0.633-0.281,1.421-0.545,2.123-0.905
		c0.1-0.049,6.596-3.199,6.181-2.998c3.425-1.664,15.243-7.403,14.42-7.004c0.913-0.488-0.135,0.175,3.046-1.628
		c-0.082-0.102-2.279-2.992-17.088-21.17c-1.649-1.803-1.876-2.841-0.609-3.962C364.517,284.347,375.974,276.869,379.956,274.121z"
    />
    <path fill="#1A1A1A" d="M268.855,180.663c0.147,2.388,0.436,4.913,0.898,7.357c0.728,3.694,1.26,4.893,1.917,7.178
		c1.315,3.923,1.928,5.044,2.698,6.935c0.745,1.478,1.406,3.004,2.254,4.432c1.575,2.923,3.46,5.678,5.522,8.289
		c7.901,10.13,20.676,17.932,32.978,21.624c23.969,7.307,54.317,0.172,73.302-21.332l0.811-0.918
		c-1.606-2.029-5.466-6.903-7.211-9.107l-1.15,0.857c-1.848,1.378-3.651,2.847-6.844,4.943
		c-21.842,14.369-50.127,16.946-71.115,2.68c-4.63-3.158-8.737-7.071-12.318-11.412c-3.555-4.364-6.43-9.291-8.584-14.526
		c-2.317-5.443-0.747-4.561-5.256-6.203c-2.668-0.905-5.343-2.137-7.887-3.244c0,0,0.001,0.001,0.002,0.001
		c-0.001,0-0.001-0.001-0.002-0.001l0,0l0,0l0,0c0,0.001-0.001,0.002-0.001,0.003l-0.106,0.286
		C268.739,178.614,268.86,180.763,268.855,180.663z"/>
    <path fill="#1A1A1A" d="M264.493,202.414c-1.142,0.508-8.397,4.91-20.563,7.82l-1.444,0.345c0.229,0.494,5.269,17.837,18.7,32.771
		c8.942,9.933,19.454,17.527,28.813,22.021c13.035,6.263,22.331,5.942,24.498,6.369c0.022-0.54,1.625-11.987,0.392-23.504
		l-0.099-0.924l-0.827,0.297c-4.744,1.705-8.234,1.886-12.376-1.015c-5.916-4.186-6.213-9.929-6.722-11.139
		c-2.415,0.702-4.597,1.617-7.666,1.147c-0.635-0.083-1.256-0.303-1.882-0.452c-1.698-0.506-3.681-1.579-4.953-2.833
		c-2.993-2.808-4.158-6.978-3.793-10.266c0.111-1.332,0.497-2.599,1.113-4.696l-1.068-0.03c-2.21-0.062-3.498,0.051-5.55-0.619
		c-3.937-1.285-7.058-5.125-6.934-10.352c0.015-0.885,0.139-1.901,0.209-2.854L264.493,202.414z"/>
    <path fill="#1A1A1A" d="M274.929,305.372c-4.973-3.166-5.062-3.362-19.507-15.051l-0.179,0.406
		c-2.43,5.525-7.007,9.075-12.453,11.625c-0.001,0-0.001,0.001-0.002,0.001c0,0.002,0,0.003,0.001,0.005l0.049,0.253l0.001,0.003
		c2.945,1.006,5.712,1.882,8.455,3.771c7.964,5.321,8.962,14.075,3.501,19.071c-1.017,0.963-2.414,1.798-4.115,2.79l0.073,0.437
		c0.018,0.106-0.003,0.108,0.047,0.39c0.062,0.206,0.464,1.112,0.421,1.012c0.498,1.343,0.686,1.749,1.111,3.634
		c0.719,3.36,0.539,6.751-0.263,10.051c-0.649,2.685-2.276,7.542-2.282,10.455c-0.026,1.652,0.594,3.621,1.156,5.405
		c1.234,4.102,3.741,8.557,1.598,14.577c-1.152,3.342-3.93,6.298-4.893,9.314c-1.309,3.949,0.185,7.128,0.573,8.51
		c0.659,2.361,1.611,4.221,1.5,7.169c-0.126,2.868-1.216,4.37-2.294,7.01c-0.331,0.859-0.535,1.753-0.807,2.629l-1.826,5.897
		l4.221-4.573c2.843-3.08,6.132-5.48,10.249-4.883c2.436,0.346,4.261,1.55,5.802,2.254l0.034-2.331
		c0.054-3.746-0.108-7.511-0.182-11.187c-0.218-7.067,1.399-20.849,0.942-33.487c-0.183-4.934-0.464-6.322-0.73-11.164
		c-0.485-8.888,0.291-11.568,0.949-22.096c0.241-3.027,0.439-6.072,0.757-9.068c4.361,2.66,5.364,3.614,10.398,5.843
		c3.555,1.586,6.318,2.666,8.642,3.477c0.483,0.159,0.841,0.325,1.369,0.378c0.741,0.075,1.378-0.18,1.906-0.677
		c0.258-0.246,4.679-5.439,4.593-5.339c0.991-1.177,1.892-2.468,2.841-3.696l0.774-1.002l-1.16-0.495
		C287.803,313.108,282.68,310.273,274.929,305.372z"/>
    <path fill="#1A1A1A" d="M135.488,202.518l2.166,0.989c3.198,1.461,5.579,3.538,6.256,7.03c0.7,3.473-0.557,6.321-3.064,8.764
		l-1.913,1.865c1.755,0.526,5.315,0.976,8.156,3.203c2.989,2.308,4.729,6.693,3.424,10.524c-1.037,3.076-3.586,5.414-4.391,6.38
		l1.315,0.907c5.31,3.531,6.379,4.722,9.982,6.391c1.491,0.692,3.107,1.279,3.007,1.241c0.399,0.169,1.126,0.241,0.928,0.208
		l1.364-0.651l3.448-6.616l1.651-3.413c0.312-0.666,0.493-0.936,0.755-1.899c0.951-3.773-1.348-6.361-1.983-7.743
		c-1.887-3.539-3.206-5.805-3.224-8.196c-0.03-1.11,0.294-2.191,0.729-3.327c1.623-4.165,2.646-4.824,3.078-6.847
		c0.299-1.325,0.124-2.732-0.328-3.935c-0.828-2.343-1.732-4.652-1.95-7.094c-0.3-2.437,0.367-4.883,0.791-7.323
		c0-0.001,0-0.002,0-0.003c-0.712-0.939-11.74-9.676-17.888-26.128l-0.268-0.717c-0.146,0.037-9.944,2.521-9.326,2.365
		c0.692,0.876,2.437,2.222,3.021,4.73c0.543,2.283,0.055,5.389-1.641,7.637c-1.549,2.067-3.577,3.003-4.655,3.753l1.658,1.083
		c4.298,2.807,5.707,7.809,3.669,11.911C138.904,200.347,136.59,201.561,135.488,202.518z"/>
    <path fill="#1A1A1A" d="M170.434,215.81c-0.448,0.938-0.588,1.094-1.711,2.997c-0.932,1.461-1.079,3.015-0.597,4.421
		c0.156,0.473,0.322,0.759,0.402,0.933c2.426,5.101,2.863,5.362,3.479,7.07c0.756,2.023,0.99,4.166,0.609,6.225
		c-0.382,2.086-1.195,3.608-2.542,6.084c-0.056,0.103-2.704,5.013-2.539,4.707c-0.742,1.296-0.61,1.569-0.737,1.961l-0.517,1.596
		l1.758,0.247c2.112,0.37,3.913,0.281,6.427,1.521c2.871,1.437,2.946,2.602,3.717,4.489c0.057,0.146,1.37,3.514,1.296,3.324
		c0.058,0.135,2.637,5.394,2.687,5.494l0.61-4.787c0.372-2.921,0.437-7.343,2.65-12.181c1.282-2.77,3.013-5.258,5.596-6.883
		c1.612-0.962,1.809-0.814,2.838-1.371l0.857-0.465c-4.089-12.14-6.997-22.17-7.83-34.973c0,0,0,0,0,0
		c-0.592-0.327-4.144-2.288-3.917-2.163c-1.365-0.708-6.363-3.744-7.685-4.697c-0.168-0.115-4.986-3.421-4.681-3.211l-0.082,1.25
		c-0.146,2.966-0.411,1.348,0.954,7.185c0.371,1.723,1.129,3.8,0.706,6.605C172.012,212.263,171.057,214.409,170.434,215.81z"/>
    <path fill="#1A1A1A" d="M242.437,412.052c0,0,0.001,0.001,0.001,0.001v0v0v0c0-0.002,0-0.003,0-0.005
		c0.046-0.882,0-1.775,0.115-2.646c0.647-5.634,3.996-7.971,3.423-11.526c-0.094-0.557-0.717-3.132-0.931-3.938
		c-0.448-1.76-1.512-4.177-1.354-7.579c0.118-2.538,0.997-5.049,2.301-7.083c0.435-0.694,2.395-3.838,2.793-4.625
		c3.679-7.229-1.399-12.291-2.115-18.522c-0.191-1.624-0.102-3.265,0.234-4.861l1.255-5.124c1-4.217,1.786-6.512,1.052-11.065
		c-0.647-4.03-2.431-5.759-2.618-6.101l-0.703-0.031c-1.902-0.083-3.724-0.054-5.414-0.268c-1.691-0.216-3.462-0.675-5.327-1.039
		l-3.573-0.698c0.069,0.101,3.088,4.519,2.968,4.343c3.122,4.511,4.99,10.534,2.974,15.54c-1.227,3.142-3.84,4.616-4.118,4.867
		l0.04,0.735c0.623,11.555,0.864,23.3-0.566,34.815c-0.819,6.494-2.033,11.721-2.056,11.836l0.302,0.207
		c2.762,1.897,3.964,3.807,5.284,6.591c1.808,3.833,1.418,3.036,2.373,3.754c1.27,0.838,2.502,1.617,3.661,2.423
		C242.438,412.052,242.437,412.052,242.437,412.052z"/>
    <path fill="#1A1A1A" d="M210.206,212.032c-0.1-0.014-4.162-0.448-9.084-1.486c-2.801-0.591-6.299-1.477-8.52-2.114v0v0v0
		c0,0.001,0,0.002,0,0.003c-0.182,1.192-0.072,2.42-0.062,3.619c0.106,3.888,0.54,7.485,1.119,10.837
		c1.601,9.465,3.642,15.379,3.788,15.926c0.532,1.689,0.808,3.005,2.437,3.686c5.496,2.271,7.707,9.674,8.389,15.582
		c0.144,1.155,0.189,2.293,0.369,3.598l0.499,3.626c1.405-1.697,7.136-11.649,15.802-13.534l1.925-0.419
		c-0.623-1.175-5.504-9.448-9.768-19.806C213.117,222.065,211.183,215.064,210.206,212.032z"/>
    <path fill="#1A1A1A" d="M335.505,401.97c0.009-0.102,0.556-6.149,0.547-6.047c0.554-6.908,0.832-12.83,0.836-20.799
		c-0.043-16.082-2.352-28.109-2.366-28.225l-0.535,0.035c-4.945,0.321-9.76,0.789-14.327,1.113l0,0c0,0,0,0.001,0,0.001
		c0.253,2.2,0.303,4.44,0.833,6.626c1.936,7.881,2.577,9.448,2.72,12.865c0.201,4.279-0.888,6.669-2.763,19.555
		c-0.934,5.881-1.67,6.4-3.598,12.551l-0.945,2.782c1.881-0.559,5.921-2.628,10.314-1.968c4.585,0.652,7.204,4.027,8.296,4.873
		C335.606,401.979,335.373,402.814,335.505,401.97z"/>
    <path fill="#1A1A1A" d="M99.902,87.172c2.888,3.008,6.15,6.626,8.734,9.851c4.502,5.509,8.095,11.012,8.347,11.372l0.97-0.487
		c2.689-1.35,5.521-2.396,8.456-3.076c5.062-1.163,9.536-1.247,10.274-1.311l0.077-1.26c0.329-5.391-1.303-19.111-2.847-23.808
		l-0.126-0.276c-0.195-0.408-0.342-0.642-0.631-1.164C132.551,77.167,116.419,77.078,99.902,87.172
		C99.902,87.172,99.902,87.172,99.902,87.172C99.902,87.172,99.902,87.172,99.902,87.172z"/>
    <path fill="#1A1A1A" d="M98.163,147.608C98.163,147.607,98.163,147.607,98.163,147.608L98.163,147.608L98.163,147.608
		L98.163,147.608C98.163,147.607,98.163,147.607,98.163,147.608C98.163,147.607,98.163,147.607,98.163,147.608
		c-3.689,1.014-6.778-0.256-8.703-0.783l-1.064-0.306c-0.339-0.095-0.774-0.25-1.193-0.298c-0.85-0.135-1.834,0.041-2.599,0.553
		c-0.814,0.525-1.19,1.17-1.715,1.734l-1.495,1.758c-1.689,2.261-4.138,3.697-6.851,3.853c-0.675,0.048-1.361,0.029-2.047-0.027
		c-1.022-0.147-4.232-0.335-4.639-0.322c-2.071,0.073-3.082,1.318-3.36,1.487c0.101,0.77-0.091,1.921,1.252,7.864
		c1.17,4.866,4.027,14.277,6.529,18.633c0.425,0.649,0.139,0.423,1.18,1.74l1.07,1.354c1.693-2.103,4.103-5.179,7.241-8.834
		c10.301-11.944,21.078-19.652,21.578-20.106l-0.604-0.398C99.992,153.69,99.382,150.702,98.163,147.608z"/>
    <path fill="#1A1A1A" d="M139.568,87.967l1.071,0.068c2.219,0.141,5.348-0.041,11.377,2.123c3.654,1.309,7.123,3.204,10.311,5.46
		c6.68,4.815,11.059,10.853,14.812,18.258c0,0,0,0,0,0c0,0,0,0,0,0c0,0,0.001,0,0.001,0c0,0-0.001,0-0.001,0l4.626-0.942
		c1.4-0.31,2.95-0.514,4.683-1.433c3.095-1.701,4.084-4.13,3.686-6.387c-0.148-0.89-0.521-1.725-0.906-2.447
		c-1.607-3.048-3.716-4.657-6.584-7.216c-2.009-1.788-8.993-8.075-10.828-9.444c-4.156-3.121-8.349-4.946-13.294-6.27
		c-8.527-2.328-14.109-2.46-20.915-3.017l0.311,1.821C139.418,87.338,139.275,86.315,139.568,87.967z"/>
    <path fill="#1A1A1A" d="M63.413,149.162l0.087,2.001l1.878-0.654c4.783-1.665,8.664,1.148,11.521-1.487
		c0.841-0.791,1.15-1.491,1.564-2.027c0.24-0.337,0.338-0.434,0.653-0.823c0.473-0.566,1.265-1.61,2.13-2.42
		c4.296-3.958,8.267-1.746,9.506-1.707c0.914,0.169,2.906,0.772,4.843,0.377c1.622-0.317,2.506-1.286,2.631-1.372
		c0.664-8.671,1.024-8.581,1.965-13.645c0,0.001,0,0.001,0,0.002c0-0.001,0-0.001,0-0.002l0,0h0
		c-9.158-2.499-17.296-3.066-27.184-1.467c-3.549,0.586-3.384,0.651-5.071,0.999c-0.39,0.095-1.545,0.252-2.247,1.221
		c-0.515,0.705-0.577,1.403-0.76,2.108c-0.121,0.675-1.299,5.176-1.644,11.986c-0.026,1.037-0.116,1.705-0.054,3.517
		C63.267,146.939,63.365,148.061,63.413,149.162z"/>
    <path fill="#1A1A1A" d="M207.215,164.897c-0.709,0.638,0.874-0.667-14.703,11.24c1.053,0.489,4.043,2.103,8.163,3.517
		c4.434,1.529,9.053,2.59,13.799,3.026c3.637,0.364,6.905,0.281,7.021,0.283c0,0,0-0.001,0-0.001
		c-1.218-3.881-2.337-7.222-3.347-12.508c-0.718-3.673-0.299-6.644,2.14-9.383c0.096-0.103,4.7-5.025,4.414-4.72
		c0.986-1.082,1.998-2.073,2.955-3.267l0.903-1.126c-0.958-0.485-1.602-1.449-9.831-4.72c-5.681-2.27-8.315-2.803-8.415-2.835
		c-0.402-0.068-2.794-0.473-2.647-0.448c0.48,3.078,0.218,1.004,2.126,13.873c0.259,1.855,0.859,3.638-0.929,5.502
		C208.667,163.534,207.315,164.803,207.215,164.897z"/>
    <path fill="#1A1A1A" d="M142.001,103.237c0.201,0.174,0.056,0.083,0.374,0.244c1.344,0.885,2.729,1.685,3.941,2.708
		c2.699,2.238,4.761,4.789,6.179,7.997c0.182,0.379,0.321,0.779,0.484,1.165c0.617,1.493,0.516,1.572,1.609,3.701
		c1.157,2.278,1.404,2.928,1.968,3.661c0.979,1.291,2.311,2.146,3.952,2.546c2.163,0.566,4.153-0.059,6.035-1.236
		c2.502-1.552,4.098-3.755,5.979-5.489l0.716-0.66c-0.256-0.421-2.931-10.355-12.352-18.012c-3.853-3.182-8.635-5.585-14.139-6.738
		c-0.986-0.215-3.164-0.571-3.937-0.576c-0.494,0.004-0.919,0.07-1.303,0.091l-0.708,0.039
		C140.811,92.814,141.247,97.381,142.001,103.237C142.001,103.237,142.001,103.237,142.001,103.237z"/>
    <path fill="#1A1A1A" d="M417.137,372.907c-0.091-0.616-0.323-1.726-0.605-4.353c-0.434-4.006-0.562-8.072-1.459-12.053
		c-1.054-4.752-2.293-6.227-2.583-6.891c-2.055,0.784-9.558,4.25-19.682,7.225l0,0l0,0c0,0,0,0,0,0.001l0-0.001
		c2.168,10.824,6.414,21.907,7.026,23.87l0.99-0.065c6.393-0.416,11.128-2.681,16.454-5.007c0.004-0.101,0.054-1.421,0.05-1.32
		c0.002-0.091,0.005-0.223-0.015-0.399C417.295,373.812,417.119,372.807,417.137,372.907z"/>
    <path fill="#1A1A1A" d="M410.858,266.51c-3.055,0.382-3.694,0.804-11.622,1.699c-3.12,0.359-5.386,0.438-12.891,1.083l0.075,1.259
		c1.132,18.992,1.248,18.645,1.37,20.415c1.739-0.066,10.464,0.374,18.555-1.12l0.805-0.149c1.111-4.093,2.363-8.848,3.02-11.752
		C411.584,271.371,410.758,268.43,410.858,266.51C410.859,266.51,410.859,266.51,410.858,266.51
		C410.859,266.51,410.859,266.51,410.858,266.51L410.858,266.51L410.858,266.51z"/>
    <path fill="#1A1A1A" d="M404.106,323.127c-5.106,0.755-10.909,1.91-16.404,2.155c-0.461,6.533-0.057,13.475,0.871,19.16
		c0.739,4.649,1.331,6.652,1.503,7.439c0.181-0.023,2.643-0.341,2.493-0.322c0.426-0.07,0.796-0.186,1.197-0.277
		c3.117-0.799,2.526-0.557,4.676-1.248c0.167-0.053,7.285-2.299,6.84-2.159c0.1-0.033,3.625-1.184,3.409-1.113
		c0.458-0.116,1.177-0.54,1.279-0.589l1.307-0.702l-0.644-1.273C407.41,337.817,405.787,330.601,404.106,323.127z"/>
    <path fill="#1A1A1A" d="M249.048,279.087c-1.357-0.681-3.246-1.036-4.749-1.004c-1.367,0.04-3.251,0.419-4.489,0.802
		c-6.886,2.115-12.693,6.834-17.775,11.848c0,0,0,0,0,0c0,0,0,0,0,0.001c1.24,6.83,1.479,7.691,1.571,8.159
		c0.1,0.019,1.647,0.315,1.546,0.296c5.385,0.613,11.158,0.257,16.116-1.821c4.379-1.839,8.031-4.639,9.945-9.029
		c0.633-1.486,1.134-3.219,0.978-4.82C252.102,282.603,250.841,279.99,249.048,279.087z"/>
    <path fill="#1A1A1A" d="M69.386,122.647c0.11,0,0.228,0.023,0.562-0.009c0.113-0.016,2.178-0.421,2.078-0.401
		c9.531-1.751,10.536-0.77,11.889-1.824c0.74-0.578,0.943-1.32,1.422-2.227c4.193-8.628,8.338-14.166,13.564-19.366
		c1.355-1.302,0.909-0.974,2.685-2.049c-0.116-0.095-2.194-1.889-7.51-6.101l0,0v0v0c0,0,0,0-0.001,0c0,0,0,0,0.001-0.001
		c-12.152,6.476-20.914,17.384-26.321,29.927l-0.854,1.98l2.2,0.061L69.386,122.647z"/>
    <path fill="#1A1A1A" d="M216.785,321.398c-0.215-0.054-0.362-0.025-0.462-0.026l-0.449-0.004c-0.217,0.228-2.508,3.67-7.507,7.498
		c0,0,0,0,0,0c0,0,0,0.001,0,0.001c1.843,5.831,5.502,11.143,9.956,15.19c1.646,1.514,3.461,2.598,5.184,3.565
		c1.892,0.996,4.067,1.357,5.524,1.264c2.623-0.106,5.023-1.852,5.567-4.822c0.218-1.293,0.161-3.36-0.462-5.602
		c-1.799-6.203-8.163-11.833-13.863-15.197C219.901,323.049,217.054,321.454,216.785,321.398z"/>
    <path fill="#1A1A1A" d="M222.11,313.942c3.35,4.551,8.381,7.878,13.828,9.733c5.408,1.828,9.725,2.512,14.602-0.497
		c0.328-0.225,0.655-0.431,1.018-0.736c4.044-3.32,2.259-10.523-6.146-13.585c-11.385-4.062-21.125-1.572-22.15-1.502
		c-0.104,0.446-0.387,1.459-1.424,6.238c0,0,0-0.001,0-0.001c0,0,0,0.001,0,0.001c0,0,0,0,0,0c0,0,0,0,0,0c0,0,0,0.001,0.001,0.001
		c0.088,0.125,0.131,0.204,0.19,0.267C222.055,313.89,222.083,313.914,222.11,313.942z"/>
    <path fill="#1A1A1A" d="M202.669,251.143c-1.208-2.855-3.199-5.452-6.309-5.602c-1.688-0.106-3.247,0.63-4.388,1.566
		c-0.59,0.479-1.002,1.026-1.464,1.558c-1.215,1.37-2.137,3.645-2.677,5.388c-0.997,3.191-1.485,6.735-1.127,11.419
		c0.19,2.108,0.673,4.887,0.843,5.623c0.353,1.556,1.059,2.234,1.246,2.556c0.336-0.016,5.696-1.309,13.65-0.259
		c0.345-0.524,0.435-1.167,0.62-1.747c0.343-1.215,0.793-3.317,1.055-5.479c0.325-2.474,0.341-4.995,0.156-7.511
		C204.076,256.37,203.572,253.295,202.669,251.143z"/>
    <path fill="#1A1A1A" d="M235.719,174.113c-0.664,1.306-0.575,1.023-2.819,4.651c-1.183,2.008-1.063,1.585-1.862,3.286l-1,2.129
		c1.806-0.213,5.781-0.504,9.94-1.439c5.423-1.184,9.819-2.732,14.492-4.989c4.459-2.138,7.319-4.218,8.582-5.002
		c-12.328-7.064-10.3-5.616-11.208-6.696l-0.134-0.221c-3.669-6.085-9.98-8.301-16.59-10.446c0,0,0,0,0,0l-0.212,0.206l-0.009,0.008
		c0.311,1.083,0.096,0.606,2.07,7.045c0.433,1.447,0.763,2.233,0.938,3.424C238.464,169.663,236.949,171.736,235.719,174.113z"/>
    <path fill="#1A1A1A" d="M193.722,278.629c-0.916,0.053-3.413,0.308-3.701,0.405c-0.195,0.074,0.027-0.01-0.496,0.189
		c0.051,0.102,2.038,4.011,2.521,4.992c0.205,0.035,3.599,0.606,3.453,0.582c1.063,0.296,2.132,0.555,3.178,0.862
		c2.056,0.714,3.958,1.795,5.623,3.131c8.695,7.034,8.249,20.233-1.122,27.079c-1.201,0.977-0.802,2.094-0.722,2.897
		c0.02,0.151,0.722,5.32,0.677,4.99l0.323,2.377l1.984-1.361c1.119-0.767,2.344-1.483,3.572-2.415
		c3.593-2.845,6.168-6.415,7.998-10.62c2.567-5.878,2.663-11.994,0.494-17.47c-2.198-5.701-5.845-10.295-11.225-13.087
		C203.711,279.823,198.312,278.381,193.722,278.629z"/>
    <path fill="#1A1A1A" d="M423.686,393.642c-0.676-3.072-1.557-4.679-2.288-6.653c-0.043-0.103-2.097-5.045-1.97-4.741
		c-0.226-0.526-0.389-1.026-0.811-1.683l-0.51-0.795c-10.416,4.854-9.259,3.95-14.805,6.102l0,0c0,0,0,0,0,0c0,0,0,0.001,0,0.001
		l0-0.001c2.822,9.656,7.727,20.022,8.299,21.47l1.001-0.151c4.18-0.63,4.728-0.591,10.008,1.661l2.029-1.225
		c-0.017,0.018,0.054-0.095,0.054-0.626c-0.006-0.134-0.03-0.286-0.071-0.454c-0.234-1.357-0.429-2.164-0.421-5.822
		C424.19,398.803,424.301,396.544,423.686,393.642z"/>
    <path fill="#1A1A1A" d="M403.832,301.17c0.216-1.965,0.345-3.825,0.543-5.52c0,0,0,0.001,0,0.001c0,0,0-0.001,0-0.001l0,0
		c-3.767-0.151-10.551-0.536-15.336-0.566l-0.841-0.005c-0.204,1.301-0.079,0.14-0.358,2.382c-0.01,0.1-0.45,4.541-0.422,4.257
		c-0.46,6.668-0.414,4.623-0.745,11.342c-0.004,0.101-0.191,4.562-0.179,4.277c-0.001,0.101-0.017,1.208-0.015,1.108
		c0.014,0.545,0.106,0.923,0.217,1.701c1.279,0.079,1.02,0.29,4.854,0.194c2.489-0.088,8.725-0.53,11.002-1.489l0.896-0.377
		c-0.363-1.954-0.867-4.079-0.726-6.216C402.722,312.258,402.311,316.366,403.832,301.17z"/>
    <path fill="#1A1A1A" d="M381.46,315.328c0,0,0-0.001,0-0.001v0v0v0c0.1-0.042-0.13,0.055-15.887,6.625
		c-0.138,0.061-7.493,3.322-7.173,3.18c0.174,0.169,7.301,7.066,6.893,6.671c3.375,3.293,13.987,13.1,17.025,15.783l3.093,2.732
		l-0.758-3.998C381.355,328.925,381.454,315.227,381.46,315.328z"/>
    <path fill="#1A1A1A" d="M310.848,302.632c-4.065,8.78-2.978,6.686-5.86,13.267c0,0,0,0,0,0.001c0,0,0,0,0,0
		c7.819,5.949,19.066,10.71,19.801,11.111c0.831-1.322,2.709-4.009,4.48-7.657c2.365-4.838,3.233-7.59,3.62-8.56l-1.483-0.466
		C323.688,307.901,312.34,303.208,310.848,302.632z"/>
    <path fill="#1A1A1A" d="M214.774,401.998c1.703-1.008,3.346-2.136,5.045-3.058c2.522-1.381,5.317-1.182,5.942-1.229l0.216-0.599
		c2.158-5.973,2.88-12.989,2.957-13.453c-0.912-0.02-3.356,0.069-6.734-0.296c-8.8-0.825-15.825-4.083-16.653-4.354
		c-0.805,2.986-1.568,5.827-2.327,7.942c-1.768,4.909-2.967,6.54-3.818,8.252l2.372-0.566c3.57-0.852,5.81-0.39,7.823,0.779
		C210.788,396.103,213.67,399.33,214.774,401.998z"/>
    <path fill="#1A1A1A" d="M221.757,256.854c-4.409,2.892-7.885,7.59-9.799,12.205c-1.255,2.883-1.915,5.642-2.503,7.824
		c2.438,1.876,4.813,3.692,7.556,5.657v0v0c0,0,0,0,0,0c0,0,0,0,0,0c6.663-4.305,15.462-13.602,15.503-21.567
		C232.548,257.464,227.803,253.085,221.757,256.854z"/>
    <path fill="#1A1A1A" d="M312.555,298.26c1.441,0.742,5.295,2.818,10.279,5.003c5.282,2.356,10.825,4.005,11.306,4.167
		c0.223-0.713,1.139-2.936,2.613-8.75c0.887-3.496,1.408-6.797,1.778-8.845l-1.293-0.164c-8.295-1.053-12.165-2.06-19.818-3.75
		C314.858,292.387,315.775,289.644,312.555,298.26z"/>
    <path fill="#1A1A1A" d="M172.173,154.204l-0.483,0.646c0.414,0.467,4.197,8.853,14.363,15.521
		c0.674-4.842,1.025-10.925,1.191-11.834c0.261-1.627,0.963-2.776,2.003-3.77c0.1-0.093,2.296-2.119,2.157-1.992
		c0.926-0.909,2.002-1.71,3.01-2.564c7.36-6.095,5.862-5.067,6.828-5.906c-0.048-0.107-0.963-2.13-0.906-2.004l-0.916-0.019
		c-6.788-0.143-11.268,0.862-15.142,2.464C179.452,146.71,175.24,150.103,172.173,154.204z"/>
    <path fill="#1A1A1A" d="M374.223,369.938C374.223,369.938,374.223,369.938,374.223,369.938c1.894,4.163,2.441,6.815,2.507,7.025
		c0.078,0.31,0.126,0.686,0.449,1.047c0.383,0.42,0.798,0.552,1.779,0.932l3.113,1.238l6.258,2.381
		c0.104,0.038,5.03,1.819,4.72,1.707l0.787,0.285c0.472,0.166,0.891,0.189,1.02,0.225l2.492,0.702
		c-1.473-4.024-3.88-12.105-10.716-29.176l-1.184,1.22C380.349,362.783,373.793,370.427,374.223,369.938z"/>
    <path fill="#1A1A1A" d="M214.361,363.133c-2.595-0.65-4.939-1.594-5.867-1.924c-0.006,0.109-0.53,7.635-0.59,13.184
		c10.297,6.393,21.097,5.239,21.445,5.304c0.209-1.919,0.53-4.443,0.648-7.13c0.23-4.671,0.126-6.277,0.133-7.392l-1.394-0.065
		C221.78,364.782,217.407,363.885,214.361,363.133z"/>
    <path fill="#1A1A1A" d="M317.154,280.398c0.1,0.034,5.485,2.227,10.898,3.437c6.235,1.447,9.95,1.641,11.134,1.791
		c0.04-0.798,0.949-6.554,0.431-13.749l0,0.001c0,0,0-0.001,0-0.001l0,0c-6.441-1.308-9.549-1.596-19.068-3.729l-1.321-0.296
		C317.915,275.268,317.139,280.498,317.154,280.398z"/>
    <path fill="#1A1A1A" d="M300.807,319.647c-0.306,0.366-1.735,1.898-8.589,10.248c0.177,0.086,7.027,3.391,6.705,3.236
		c1.731,0.865,6.817,3.265,10.133,4.615c3.051,1.279,5.566,2.09,5.842,2.188l0.339-0.416c2.107-2.589,4.029-5.357,5.493-8.346
		c0,0,0,0,0,0c0,0,0,0,0,0c0,0,0,0,0,0l0,0c-3.625-2.157-8.958-5.663-19-11.031L300.807,319.647z"/>
    <path fill="#1A1A1A" d="M112.035,110.581C112.035,110.581,112.035,110.581,112.035,110.581
		C112.035,110.581,112.035,110.581,112.035,110.581C112.035,110.581,112.035,110.581,112.035,110.581L112.035,110.581
		c-3.602-6.491-6.61-9.968-7.001-10.539l-0.819,0.578c-10.934,7.721-15.063,18.398-15.956,19.858
		c0.939,0.115,5.025,0.82,15.657,1.866C105.741,118.678,107.038,116.075,112.035,110.581z"/>
    <path fill="#1A1A1A" d="M358.884,401.951c0.609-11.306,0.541-13.158,0.561-13.691c-0.356-0.034-7.032-3.382-17.591-1.264
		c0,0,0,0,0,0c0,0,0,0.001,0,0.001c0,0,0-0.001,0-0.001c-1.163,4.197-2.704,15.39-2.364,17.12l0.353,1.807
		c1.424-1.116,3.158-2.667,5.193-3.761c3.879-2.118,7.498-1.956,11.507,0.882l2.198,1.556L358.884,401.951z"/>
    <path fill="#1A1A1A" d="M340.101,250.691l-0.208-1.236c-0.101,0-1.52,0.002-1.42,0.002c-0.101,0.018-0.437-0.031-0.862,0.217
		l-0.116,0.075c-0.131,0.094-0.889,0.641-0.789,0.569c-4.012,2.944-8.187,2.878-11.436,0.794c-1.055-0.651-1.851-1.374-2.685-2.231
		c-0.1-0.103-2.987-3.064-2.83-2.903c0.027,0.436,0.167,6.738,1.156,16.777c3.924,1.792,15.827,3.931,19.196,3.505l0.971-0.123
		C341.017,260.578,341.044,256.283,340.101,250.691z M339.225,252.197c0,0,0.01-0.006-0.01,0.007l0.002-0.001L339.225,252.197z"/>
    <path fill="#1A1A1A" d="M398.918,389.505c-1.741,2.014-1.418,1.375-7.926,9.211c-2.318,2.817-3.698,4.581-6.014,7.247
		c0,0,0,0,0,0.001c2.18,0.266,3.084,0.184,5.038,0.747c1.602,0.443,3.067,1.211,4.332,2.201c2.056,1.607,3.307,3.664,4.6,5.717
		l0.708,1.105c0.22,0.355,0.384,0.685,0.581,1.025l1.057,1.828l1.167-1.813c2.095-3.253,1.403-2.695,5.799-7.566
		C407.637,407.895,405.398,402.585,398.918,389.505z"/>
    <path fill="#1A1A1A" d="M343.59,340.73C343.59,340.73,343.59,340.729,343.59,340.73c-6.134-12.767-5.571-11.846-10.343-20.659
		c-3.866,6.776-7.063,12.444-11.51,18.343c-0.075,0.102-3.587,4.894-3.37,4.598C324.319,342.664,328.953,342.443,343.59,340.73z"/>
    <path fill="#1A1A1A" d="M323.828,404.117c-3.448,0.125-6.286,1.64-8.535,4.366c-1.599,1.877-2.504,4.013-3.111,6.4
		c-0.386,1.556-0.263,1.391-0.413,2.292l-0.17,1.272c0.102,0.025,1.921,0.476,1.807,0.448c0.258,0.061,0.54,0.111,0.759,0.101
		c0.502,0.004,3.467,0.024,3.966,0.013c6.164-0.036,12.93-0.906,15.139-0.943l0,0c0,0,0,0,0-0.001c0,0,0,0,0,0.001
		c-0.09-0.856-0.077-1.958-0.219-3.307C332.317,408.888,329.759,403.805,323.828,404.117z"/>
    <path fill="#1A1A1A" d="M361.777,373.299c-0.954-0.432-5.882-4.543-14.839-4.947c-1.605-0.094-3.384-0.065-4.86,0.662
		c-0.189,1.962-0.547,3.626-1.112,12.485c0.379,0.007,4.467-0.263,9.336,0.433c5.612,0.841,7.809,1.716,9.54,2.18
		C361.385,376.034,361.759,373.4,361.777,373.299z"/>
    <path fill="#1A1A1A" d="M204.105,147.47C204.105,147.47,204.105,147.469,204.105,147.47c-2.085,1.244-7.183,5.024-8.798,6.345
		c-0.866,0.711-2.599,2.227-3.462,2.984c-0.648,0.611-1.046,1.41-1.176,2.256c-0.056,0.373-0.054,0.607-0.08,1.043
		c-0.254,5.206-0.327,4.75-0.425,12.515c0.113-0.015,2.023-0.273,1.922-0.259c0.1-0.032,0.436,0.01,0.968-0.342
		c0.101-0.067,1.212-0.81,1.111-0.743c0.602-0.421,2.261-1.527,4.764-3.372c5.218-4.03,5.948-4.911,6.746-5.592
		c0.188-0.183,0.559-0.46,0.859-0.916c0.292-0.429,0.453-0.99,0.46-1.463c0.021-0.497,0.012-0.507-0.935-4.957
		c-0.149-0.63-0.58-2.619-0.958-3.901C204.734,149.761,204.369,148.583,204.105,147.47
		C204.105,147.47,204.105,147.47,204.105,147.47L204.105,147.47L204.105,147.47C204.105,147.47,204.105,147.47,204.105,147.47z"/>
    <path fill="#1A1A1A" d="M381.694,278.093C381.694,278.093,381.694,278.093,381.694,278.093L381.694,278.093L381.694,278.093
		C381.694,278.093,381.693,278.093,381.694,278.093C381.694,278.093,381.694,278.093,381.694,278.093l-6.727,3.684
		c-5.605,3.11-7.472,4.357-8.292,4.846l0.806,1.087c5.483,7.39,15.447,19.036,15.362,18.935c0.246-1.403,0.698-3.98,0.68-3.879
		c0.009-0.643,0.465-2.073-0.047-12.063C383.199,287.013,382.76,281.642,381.694,278.093z"/>
    <path fill="#1A1A1A" d="M261.771,410.223c-1.758-1.491-3.785-1.86-5.814-0.815c-1.615,0.833-2.91,2.072-3.786,3.678
		c-2.122,3.854-2.74,8.305-2.089,12.404c0,0,0,0,0,0c0,0,0,0,0,0c0.565,0.067,5.868,1.447,11.025,0.262
		c1.317-0.285,2.597-1.067,3.769-1.729c0.229-0.15,0.336-0.134,0.841-0.519c0.431-0.323,0.811-1.044,0.799-1.647
		c-0.021-0.687-0.108-0.784-0.137-1.064l-0.279-1.532C265.459,415.996,264.324,412.333,261.771,410.223z"/>
    <path fill="#1A1A1A" d="M356.021,420.252c0.81-0.345,1.304-1.086,1.406-1.936c0.041-0.432,0.063-2.163,0.066-2.467
		c0.004-2.734-0.398-5.136-1.926-7.944c-0.271-0.492-0.549-0.968-0.965-1.496c-0.781-1.011-2.091-1.897-3.518-2.009
		c-2.307-0.232-4.777,1.254-6.362,2.934c-3.046,3.091-4.078,7.407-3.859,11.776c0,0,0,0,0,0c0,0,0,0,0,0h0c0,0,0,0,0,0
		c0.421,0.306,0.974,0.393,1.445,0.546c0.952,0.226,1.742,0.528,4.509,1.004c2.067,0.293,4.088,0.502,6.329,0.227
		C353.764,420.798,355.539,420.456,356.021,420.252z"/>
    <path fill="#1A1A1A" d="M207.214,348.268c0.014,0.1,1.213,8.665,1.137,8.122c0.593,0.239,5.862,3.601,15.098,4.126
		c2.623,0.178,4.682,0.069,5.546,0.057l-0.036-0.537c-0.141-2.088-0.392-4.07-0.556-5.868c-0.781-0.184-1.822-0.38-3.086-0.762
		c-3.049-0.94-5.804-2.531-8.022-4.501c-2.409-2.042-4.728-4.457-6.491-6.651c-0.66-0.803-1.192-1.612-1.995-2.519l-3.07-3.47
		C206.09,339.122,206.912,345.812,207.214,348.268z"/>
    <path fill="#1A1A1A" d="M374.329,242.536l-0.432-0.86c-0.394,0.006-4.312,2.062-9.609-0.581l-0.525-0.262
		c-0.234,0.768-0.356,1.035-1.494,4.989l0,0c0,0,0,0,0,0c0,0,0,0,0,0l0,0c2.095,3.379,5.874,8.058,7.98,10.667
		c6.889,8.195,3.584,4.192,6.506,7.572l1.132,1.241l0.604,0.618c0.142,0.13,0.316,0.359,0.893,0.781l2.762,2.02
		C381.482,265.533,380.492,254.811,374.329,242.536z"/>
    <path fill="#1A1A1A" d="M200.77,414.503c1.189,0.06,2.39,0.054,3.589,0.084c1.167,0.013,2.362,0.217,3.574,0.293
		c0.071-0.06,0.146-0.099,0.222-0.165c0.114-0.134,0.85-2.24,1.191-3.938c0.613-2.819,0.819-6.389-0.325-9.049
		c-1.03-2.371-2.643-3.337-4.22-3.402c-1.544-0.092-3.632,0.771-4.886,1.624c-4.125,2.921-6.029,6.856-7.104,11.589l-0.182,0.803
		l0.586,0.484C195.364,414.598,198.02,414.353,200.77,414.503z"/>
    <path fill="#1A1A1A" d="M405.702,424.578C405.702,424.578,405.702,424.578,405.702,424.578
		C405.702,424.578,405.702,424.578,405.702,424.578c5.909,0.745,9.861,1.412,15.482-0.536c0.944-0.337,1.821-0.596,2.547-1.298
		c0.323-0.306,0.62-0.771,0.754-1.24c0.264-0.961,0.084-1.636-0.019-2.216c-0.264-1.164-0.449-2.192-0.982-3.244
		c-1.472-2.983-3.441-5.343-6.726-5.436c-4.921-0.131-8.32,3.25-10.003,7.836C406.061,420.46,405.752,422.524,405.702,424.578z"/>
    <path fill="#1A1A1A" d="M392.439,413.122c-0.858-0.862-2-1.489-3.188-1.764c-3.908-0.9-7.767,0.406-10.639,4.516
		c-1.337,1.937-1.128,3.989,0.312,5.874c1.572,2.113,3.556,2.977,6.091,3.295c1.365,0.145,7.785-0.072,9.26-0.163l0.765-0.048
		l0.833-0.098c0.539-0.084,1.028-0.163,1.466-0.215c-0.275-3.752-1.32-6.582-2.816-8.909
		C393.909,414.679,393.196,413.901,392.439,413.122z"/>
    <path fill="#1A1A1A" d="M339.657,301.486c-0.494,1.709-1.43,4.566-3.793,13.124c1.065-0.535,5.274-2.094,18.302-9.323
		c-0.578-1.354-1.331-2.619-2.061-3.883c-3.664-6.06-5.21-7.961-6.018-9.158c-0.7-0.918-0.964-1.377-1.603-1.947l-1.47-1.309
		C340.804,296.833,340.093,299.863,339.657,301.486z"/>
    <path fill="#1A1A1A" d="M241.771,426.021C241.771,426.021,241.771,426.02,241.771,426.021c-0.312-3.191-0.961-6.551-2.856-9.308
		c-1.027-1.488-3.06-3.309-5.129-3.843c-1.557-0.441-3.454-0.087-4.734,0.854c-1.321,0.923-2.177,2.048-2.929,3.285
		c-1.434,2.527-1.882,5.325-2.006,7.903l-0.056,1.153l1.005,0.278C231.139,428.022,236.067,427.145,241.771,426.021z"/>
    <path fill="#1A1A1A" d="M224.125,161.416l-1.059,1.267c-1.594,1.809-1.994,3.517-1.548,5.694c0.95,4.003,2.761,8.377,4.7,11.717
		c0.161,0.262,0.388,0.489,0.516,0.677v0l0,0v0c0,0,0-0.001,0-0.001c0,0,0,0,0,0.001c0.538-0.735,1.312-1.574,2.016-2.542
		c1.42-1.958,3.828-5.593,4.511-6.68c1.334-2.014,1.615-3.942,0.748-6.377c-0.035-0.101-0.825-2.422-0.775-2.276
		c-0.284-0.854-1.655-4.768-2.294-6.085l-0.997-2.057l-1.481,1.696L224.125,161.416z"/>
    <path fill="#1A1A1A" d="M346.47,253.988l-2.431-1.333l0.281,2.722c1.201,11.651,1.14,18.17,1.346,22.899
		c3.082-1.981,6.519-3.886,9.849-5.987c0.284-0.186,4.696-3.074,4.595-3.008c-7.831-9.522-10.684-12.401-11.54-13.39
		C348.099,255.331,347.428,254.513,346.47,253.988z"/>
    <path fill="#1A1A1A" d="M393.709,387.521l-0.457-0.203l-0.896-0.381l-1.781-0.679c-2.126-0.798-9.219-3.151-11.236-3.282
		l-1.84-0.12l0.505,1.799c2.948,10.501,3.568,10.826,3.976,13.732c0.183,1.307,0.049,0.774,0.254,2.046c0,0,0,0,0,0.001c0,0,0,0,0,0
		l0.239,0.163l0.022,0.015c0.787-0.69,3.488-2.406,12.082-10.682l1.353-1.303l-1.707-0.851L393.709,387.521z"/>
    <path fill="#1A1A1A" d="M201.913,310.049c4.498-2.701,6.046-10.602,1.94-15.721c-2.116-2.716-6.236-5.455-9.836-4.726l-1.552,0.314
		l0.49,1.549C194.869,297.516,198.806,304.343,201.913,310.049z"/>
    <path fill="#1A1A1A" d="M218.545,418.45c0.364,0.001,0.951,0.074,1.591-0.082c0.825-0.163,1.667-0.803,2.163-1.986
		c0.215-0.496,0.594-1.536,1.242-2.607c1.68-2.74,3.524-4.518,7.003-6.082c0,0,0,0,0,0c0,0,0,0,0,0
		c-1.61-4.882-4.879-5.956-7.798-4.69c-3.191,1.26-5.49,4.039-6.993,7.12c-1.346,2.723-2.027,5.517-2.613,7.494l1.409,0.396
		C216.259,418.493,217.949,418.416,218.545,418.45z"/>
    <path fill="#1A1A1A" d="M236.2,266.051c-4.8,7.9-6.099,10.634-7.239,12.777c3.12-1.444,5.017-1.61,11.004-5.621c0,0,0,0,0,0h0
		c0,0,0,0,0,0c0,0,0,0,0,0C238.072,268.491,236.745,267.06,236.2,266.051z"/>
</svg>
