<?xml version="1.0" encoding="utf-8"?>
<svg version="1.1" id="Layer_1" xmlns="http://www.w3.org/2000/svg"
     xmlns:xlink="http://www.w3.org/1999/xlink"
     x="0px" y="0px" viewBox="0 0 504 504"

     xml:space="preserve">
    <style type="text/css">.st0{fill-rule:evenodd;clip-rule:evenodd;}</style>
    <g>
            <g>
                <g>
                    <path fill="#1A1A1A" d="M361.075,165.601c0.159,0.048,0.363,0.134,0.575,0.169c2.409,0.398,4.562,1.45,6.633,2.669
				c3.412,2.008,6.762,4.121,10.265,5.976c1.965,1.041,3.308,2.158,5.494,4.198c0.165-0.055,0.383-0.092,0.564-0.194
				c3.045-1.727,6.36-2.672,9.757-3.373c4.268-0.88,8.589-1.357,12.925-1.75c5.333-0.483,10.664-0.994,15.989-1.566
				c3.435-0.369,6.855-0.886,10.286-1.303c0.939-0.114,1.892-0.147,2.839-0.147c1.504,0,2.506,0.799,3.131,2.121
				c0.388,0.821,0.533,1.694,0.552,2.599c0.043,2.085-0.295,4.127-0.867,6.111c-0.741,2.569-1.518,5.137-2.452,7.64
				c-1.705,4.572-2.893,9.25-3.454,14.101c-0.352,3.048-0.968,6.05-1.917,8.983c-1.117,3.448-2.825,6.543-5.22,9.263
				c-1.033,1.172-2.059,2.351-3.075,3.538c-2.119,2.474-3.841,5.191-5.138,8.191c-1.04,2.405-2.142,4.786-3.303,7.134
				c-1.775,3.59-4.106,6.767-7.237,9.313c-0.129,0.105-0.248,0.223-0.353,0.319c-0.113,3.71-0.162,7.386-0.353,11.054
				c-0.188,3.614-0.753,7.191-1.499,11.013c0.517-0.38,0.829-0.573,1.098-0.813c3.229-2.878,6.957-4.806,11.142-5.862
				c2.464-0.621,4.951-0.792,7.46-0.284c4.076,0.824,7.145,3.075,9.14,6.694c2.244,4.069,2.821,8.423,1.844,12.967
				c-0.496,2.304-1.303,4.491-2.516,6.527c-3.08,5.173-6.822,9.784-11.427,13.682c-3.882,3.286-7.926,6.346-12.293,8.965
				c-0.861,0.516-1.741,1-2.664,1.528c-0.556,1.087-0.528,2.345-0.687,3.542c-0.79,5.935-0.957,11.904-0.654,17.878
				c0.462,9.115,1.977,18.067,4.402,26.864c2.169,7.868,4.976,15.503,8.505,22.864c4.502,9.39,9.902,18.225,16.354,26.415
				c2.455,3.117,5.04,6.113,7.777,8.981c0.231,0.242,0.478,0.474,0.677,0.74c1.072,1.433,0.506,3.217-1.217,3.704
				c-1.071,0.303-2.172,0.506-3.267,0.711c-5.487,1.023-11.009,1.759-16.581,2.163c-5.688,0.412-11.377,0.424-17.066,0.218
				c-4.572-0.166-9.124-0.618-13.664-1.212c-7.477-0.978-14.845-2.479-22.113-4.47c-8.51-2.331-16.811-5.267-24.82-8.975
				c-14.618-6.767-28.099-15.288-40.136-26.054c-10.962-9.805-20.117-21.025-27.021-34.035c-4.101-7.727-7.157-15.846-9.011-24.408
				c-0.958-4.427-1.516-8.905-1.803-13.421c-0.028-0.443-0.051-0.887-0.079-1.375c-0.241-0.158-0.46-0.323-0.697-0.453
				c-5.959-3.259-11.351-7.313-16.337-11.891c-4.012-3.684-7.386-7.938-9.937-12.757c-2.882-5.446-3.447-11.145-1.091-16.959
				c1.669-4.12,4.613-6.93,8.917-8.189c2.8-0.819,5.632-0.683,8.438,0.012c4.188,1.038,7.922,2.959,11.166,5.819
				c0.276,0.243,0.461,0.655,1.046,0.618c-0.082-0.595-0.14-1.186-0.246-1.769c-1.128-6.228-1.561-12.503-1.355-18.829
				c0.273-8.368,1.698-16.522,4.455-24.433c3.868-11.098,9.935-20.799,18.428-28.954c0.31-0.298,0.589-0.627,0.907-0.968
				c-0.36-0.407-0.779-0.267-1.127-0.352c-2.215-0.54-3.277-2.094-2.921-4.337c0.113-0.715,0.331-1.412,0.449-2.127
				c0.434-2.639,0.936-5.272,1.247-7.927c0.518-4.424,2.129-8.416,4.538-12.107c1.341-2.055,2.708-4.102,4.204-6.044
				c2.487-3.229,4.198-6.827,5.449-10.674c0.241-0.742,0.512-1.475,0.745-2.22c1.348-4.304,3.74-7.959,6.934-11.103
				c1.073-1.056,2.215-2.041,3.344-3.038c0.543-0.48,1.111-0.936,1.697-1.362c4.501-3.27,8.371-7.179,11.893-11.474
				c1.588-1.936,3.354-3.737,5.145-5.492c1.068-1.047,2.296-1.952,3.54-2.79c0.771-0.519,1.678-0.896,2.576-1.151
				c1.725-0.489,3.242,0.143,4.163,1.68c0.456,0.761,0.794,1.596,1.144,2.415c1.993,4.666,3.921,9.362,5.975,14.001
				c1.896,4.284,3.946,8.498,5.884,12.764c1.684,3.709,3.201,7.485,4.358,11.398c0.731,2.472,1.258,4.974,1.303,7.562
				c0.007,0.39,0.048,0.779,0.089,1.167C360.926,165.337,360.998,165.432,361.075,165.601z M342.157,198.044
				c-0.522,0.027-0.906,0.051-1.29,0.066c-1.393,0.055-2.787,0.175-4.179,0.144c-2.681-0.059-5.321-0.512-7.963-0.949
				c-3.189-0.528-6.378-1.114-9.591-1.431c-6.787-0.669-13.59-0.731-20.396-0.178c-0.886,0.072-1.59,0.345-2.265,0.891
				c-3.395,2.747-6.53,5.758-9.316,9.121c-10.296,12.425-15.451,26.846-16.502,42.826c-0.297,4.513-0.208,9.032,0.242,13.543
				c0.594,5.96,1.755,11.799,3.513,17.521c0.098,0.318,0.222,0.636,0.261,0.963c0.113,0.946-0.285,1.666-1.093,2.061
				c-0.784,0.383-1.639,0.229-2.284-0.46c-0.264-0.282-0.462-0.627-0.678-0.951c-1.582-2.378-3.387-4.576-5.414-6.584
				c-3.311-3.28-7.285-5.327-11.885-6.033c-5.77-0.885-9.717,2.236-11.236,6.579c-0.614,1.757-0.973,3.545-0.925,5.41
				c0.083,3.264,1.076,6.267,2.795,9.003c2.413,3.84,5.175,7.43,8.557,10.468c4.993,4.486,10.314,8.536,16.305,11.636
				c0.346,0.179,0.691,0.37,1.002,0.601c0.466,0.346,0.75,0.823,0.804,1.411c0.031,0.333,0.028,0.669,0.04,1.003
				c0.198,5.423,0.891,10.781,2.147,16.062c2.357,9.914,6.37,19.137,11.715,27.787c7.013,11.351,15.777,21.167,25.992,29.741
				c13.378,11.23,28.325,19.769,44.53,26.145c10.513,4.137,21.383,7.014,32.543,8.813c5.902,0.952,11.833,1.6,17.799,1.851
				c10.343,0.435,20.634-0.123,30.838-1.965c0.274-0.049,0.555-0.087,0.816-0.178c0.284-0.1,0.673,0.015,0.871-0.448
				c-0.224-0.271-0.457-0.574-0.712-0.857c-2.728-3.029-5.288-6.191-7.723-9.462c-6.087-8.178-11.201-16.929-15.468-26.175
				c-3.466-7.511-6.207-15.29-8.303-23.293c-1.812-6.92-3.062-13.943-3.742-21.064c-0.478-5.007-0.555-10.029-0.38-15.052
				c0.143-4.131,0.595-8.231,1.277-12.309c0.212-1.265,0.837-2.138,1.966-2.718c4.137-2.125,7.876-4.848,11.561-7.662
				c4.974-3.799,9.163-8.309,12.599-13.535c1.331-2.025,2.33-4.186,2.884-6.548c0.822-3.502,0.46-6.875-1.142-10.096
				c-1.145-2.303-2.947-3.896-5.378-4.749c-1.778-0.624-3.61-0.69-5.451-0.368c-4.528,0.793-8.443,2.795-11.702,6.042
				c-2.021,2.014-3.828,4.209-5.407,6.589c-0.245,0.369-0.489,0.76-0.813,1.052c-0.578,0.52-1.268,0.684-2.018,0.357
				c-0.799-0.348-1.209-0.974-1.211-1.835c-0.001-0.328,0.076-0.667,0.179-0.982c1.477-4.52,2.464-9.151,3.146-13.849
				c0.585-4.036,0.918-8.094,0.854-12.177c-0.004-0.258,0.065-0.571-0.428-0.733c-0.406,0.337-0.879,0.71-1.33,1.11
				c-0.877,0.777-1.703,1.616-2.617,2.346c-2.096,1.675-4.201,1.353-5.74-0.861c-0.444-0.638-0.811-1.335-1.158-2.032
				c-1.044-2.097-2.071-4.203-3.085-6.314c-3.002-6.25-6.454-12.24-10.575-17.818c-1.954-2.645-4.089-5.158-6.182-7.698
				c-2.565-3.111-4.944-6.334-6.476-10.104c-0.059-0.145-0.201-0.257-0.308-0.389c-0.175-0.021-0.34-0.068-0.5-0.056
				c-1.673,0.126-3.21-0.342-4.651-1.126c-1.125-0.612-2.237-1.261-3.291-1.987c-2.031-1.398-4.179-2.563-6.458-3.501
				c-0.824-0.339-1.633-0.72-2.432-1.113C345.278,202.363,343.231,200.787,342.157,198.044z M338.761,118.379
				c-0.718-0.007-1.22,0.384-1.684,0.764c-1.207,0.988-2.463,1.94-3.53,3.067c-1.993,2.104-3.886,4.304-5.784,6.497
				c-2.195,2.536-4.503,4.953-7.133,7.045c-1.659,1.319-3.328,2.625-4.98,3.954c-1.787,1.438-3.405,3.05-4.884,4.804
				c-1.34,1.59-2.46,3.32-3.213,5.26c-0.625,1.609-1.192,3.243-1.744,4.879c-1.347,3.99-3.157,7.728-5.722,11.099
				c-1.451,1.906-2.785,3.904-4.115,5.899c-2.132,3.198-3.558,6.664-4.009,10.524c-0.368,3.154-0.77,6.308-1.542,9.4
				c-0.035,0.141,0.037,0.309,0.064,0.502c0.554,0.212,1.112,0.128,1.659,0.093c2.727-0.176,5.454-0.364,8.181-0.549
				c6.416-0.435,12.827-0.323,19.222,0.297c3.937,0.382,7.847,0.989,11.74,1.708c2.861,0.529,5.755,0.706,8.664,0.489
				c0.493-0.037,0.981-0.123,1.552-0.197c0.409-2.644,1.646-4.887,2.905-7.121c0.137-0.243,0.275-0.485,0.415-0.726
				c2.395-4.157,4.733-8.342,6.567-12.788c0.339-0.822,0.774-1.607,1.212-2.383c0.86-1.526,1.982-2.827,3.431-3.832
				c0.227-0.158,0.44-0.337,0.679-0.521c0.028-0.279,0.075-0.553,0.08-0.828c0.047-2.525-0.265-4.997-0.971-7.433
				c-1.089-3.758-2.49-7.396-4.107-10.951c-1.869-4.111-3.837-8.177-5.665-12.305c-2.099-4.739-4.088-9.528-6.138-14.289
				C339.563,119.929,339.363,119.041,338.761,118.379z M396.051,253.233c0.446-0.353,0.789-0.613,1.12-0.887
				c1.674-1.387,3.34-2.785,5.021-4.164c0.646-0.53,1.324-1.023,1.99-1.529c2.995-2.272,5.235-5.151,6.838-8.536
				c1.145-2.418,2.296-4.834,3.392-7.275c1.148-2.557,2.5-4.989,4.271-7.165c1.408-1.73,2.858-3.427,4.323-5.109
				c2.004-2.301,3.486-4.874,4.454-7.783c0.939-2.824,1.468-5.72,1.859-8.65c0.509-3.82,1.143-7.61,2.427-11.262
				c0.592-1.682,1.198-3.36,1.791-5.042c1.003-2.843,1.909-5.712,2.366-8.704c0.134-0.876,0.229-1.753,0.019-2.659
				c-0.663-0.225-1.273-0.104-1.864-0.026c-2.763,0.362-5.519,0.774-8.283,1.125c-2.212,0.281-4.428,0.535-6.648,0.744
				c-5.164,0.485-10.334,0.899-15.495,1.41c-3.887,0.385-7.739,1.01-11.521,2.015c-2.493,0.663-4.823,1.684-6.961,3.114
				c-0.047,0.274-0.103,0.49-0.12,0.709c-0.184,2.47-1.172,4.627-2.569,6.625c-0.511,0.731-1.052,1.443-1.562,2.175
				c-1.115,1.6-2.271,3.175-3.314,4.822c-1.283,2.025-2.478,4.106-3.693,6.173c-1.357,2.31-2.706,4.622-4.869,6.334
				c0.236,1.16,0.789,2.126,1.319,3.095c1.374,2.509,3.127,4.752,4.994,6.901c5.807,6.685,10.785,13.931,14.817,21.816
				c1.726,3.375,3.365,6.794,5.05,10.19C395.443,252.179,395.725,252.645,396.051,253.233z M360.926,169.76
				c-1.086-0.057-1.915,0.138-2.579,0.675c-0.643,0.519-1.297,1.096-1.732,1.783c-0.742,1.171-1.39,2.417-1.945,3.689
				c-1.228,2.814-2.583,5.56-4.095,8.231c-1.071,1.892-2.16,3.775-3.192,5.688c-0.554,1.028-1.027,2.102-1.497,3.173
				c-0.431,0.982-0.315,1.947,0.157,2.904c0.612,1.242,1.528,2.205,2.685,2.914c1.139,0.697,2.304,1.37,3.517,1.925
				c3.094,1.417,6.123,2.953,9.084,4.629c0.774,0.438,1.598,0.788,2.395,1.187c1.199,0.6,2.297,0.384,3.237-0.496
				c0.605-0.567,1.173-1.202,1.633-1.89c0.835-1.251,1.596-2.552,2.354-3.852c2.248-3.856,4.569-7.662,7.288-11.212
				c0.575-0.751,1.089-1.552,1.584-2.36c0.497-0.811,0.852-1.684,1.031-2.631c0.306-1.617-0.141-2.986-1.328-4.093
				c-0.527-0.492-1.117-0.929-1.722-1.323c-4.066-2.648-8.252-5.096-12.539-7.368c-0.882-0.467-1.829-0.821-2.768-1.167
				C361.924,169.954,361.311,169.857,360.926,169.76z"/>
                    <g>
                        <path fill="#E5CAD8" d="M295.942,277.832c-3.013-0.115-5.823-0.914-8.311-2.64c-0.812-0.563-1.584-1.255-2.188-2.033
					c-2.098-2.702-1.113-5.808,2.135-6.904c1.227-0.414,2.5-0.562,3.79-0.433c2.524,0.253,4.92,0.936,7.079,2.298
					c0.701,0.442,1.359,0.973,1.966,1.539c0.441,0.412,0.823,0.914,1.131,1.435c1.377,2.333,0.595,4.851-1.86,6.012
					C298.506,277.665,297.243,277.854,295.942,277.832z"/>
                        <path fill="#E5CAD8" d="M375.403,277.824c-1.183,0.013-2.333-0.168-3.419-0.646c-2.641-1.164-3.449-3.763-1.951-6.22
					c0.53-0.87,1.231-1.583,2.047-2.177c2.745-1.995,5.834-2.949,9.214-2.981c1.128-0.011,2.219,0.237,3.242,0.7
					c2.606,1.179,3.38,3.839,1.839,6.255c-0.639,1.002-1.507,1.779-2.479,2.449C381.555,276.819,378.252,277.838,375.403,277.824z"
                        />
                    </g>
                    <g>
                        <path fill="#1A1A1A" d="M304.422,251.561c-0.031-1.806,0.313-3.597,1.049-5.31c0.491-1.142,1.19-2.137,2.145-2.943
					c1.983-1.675,4.51-1.784,6.623-0.274c0.968,0.692,1.738,1.575,2.281,2.628c2.033,3.945,2.217,7.986,0.51,12.088
					c-0.454,1.09-1.151,2.033-2.061,2.803c-1.956,1.657-4.541,1.76-6.628,0.262c-1.112-0.798-1.922-1.853-2.524-3.065
					C304.859,255.821,304.401,253.773,304.422,251.561z"/>
                        <path fill="#1A1A1A" d="M367.083,251.551c0.017,2.163-0.42,4.157-1.324,6.048c-0.561,1.171-1.31,2.201-2.328,3.016
					c-2.22,1.778-5.07,1.662-7.146-0.285c-0.996-0.934-1.69-2.075-2.132-3.352c-1.238-3.579-1.093-7.113,0.448-10.577
					c0.527-1.185,1.269-2.223,2.27-3.06c2.269-1.897,5.102-1.819,7.268,0.188c0.831,0.77,1.449,1.687,1.895,2.722
					C366.77,247.963,367.114,249.755,367.083,251.551z"/>
                        <path fill="#1A1A1A" d="M335.809,271.096c-1.956-0.086-3.828-0.535-5.523-1.597c-1.349-0.845-2.448-1.931-3.107-3.397
					c-0.2-0.445-0.331-0.95-0.359-1.436c-0.047-0.82,0.486-1.547,1.211-1.822c0.8-0.305,1.717-0.072,2.258,0.608
					c0.205,0.258,0.366,0.558,0.511,0.856c0.46,0.947,1.212,1.598,2.139,2.027c1.684,0.778,3.429,0.901,5.195,0.286
					c1.025-0.357,1.885-0.942,2.44-1.913c0.165-0.288,0.332-0.586,0.553-0.829c0.659-0.728,1.603-0.875,2.424-0.413
					c0.796,0.448,1.228,1.399,0.946,2.282c-0.167,0.522-0.433,1.027-0.73,1.491c-0.801,1.251-1.932,2.143-3.255,2.787
					C339.038,270.743,337.464,271.051,335.809,271.096z"/>
                    </g>
                </g>
                <g>
                    <path fill="#1A1A1A" d="M97.095,211.452c-1.172-0.698-2.374-1.399-3.561-2.123c-4.827-2.945-9.297-6.376-13.445-10.203
				c-3.585-3.307-6.581-7.129-9.1-11.311c-1.871-3.106-3.044-6.453-3.262-10.091c-0.278-4.636,0.9-8.869,3.844-12.492
				c2.046-2.518,4.783-3.968,7.992-4.485c2.578-0.415,5.114-0.163,7.616,0.541c3.758,1.059,7.159,2.779,10.087,5.396
				c0.396,0.354,0.704,0.883,1.417,0.933c-0.134-0.912-0.242-1.791-0.394-2.662c-1.03-5.902-1.467-11.85-1.238-17.833
				c0.631-16.546,5.348-31.739,15.449-45.003c10.641-13.975,24.669-22.668,41.901-26.147c5.775-1.166,11.595-1.486,17.478-1.077
				c11.945,0.83,22.914,4.537,32.926,11.058c10.077,6.564,17.837,15.269,23.505,25.853c4.01,7.489,6.648,15.448,8.06,23.821
				c0.931,5.518,1.365,11.072,1.192,16.665c-0.143,4.633-0.619,9.236-1.436,13.802c-0.085,0.476-0.121,0.961-0.191,1.534
				c0.726-0.157,1.052-0.647,1.453-1.001c3.343-2.948,7.234-4.789,11.567-5.709c2.315-0.491,4.655-0.548,6.974,0.005
				c3.979,0.948,6.911,3.275,8.814,6.876c2.295,4.341,2.68,8.915,1.528,13.649c-0.491,2.017-1.262,3.93-2.305,5.724
				c-2.711,4.664-6.018,8.868-10.034,12.468c-4.914,4.405-10.178,8.345-15.991,11.512c-0.146,0.08-0.278,0.185-0.489,0.327
				c-0.031,0.215-0.094,0.482-0.105,0.75c-0.45,10.484-2.891,20.51-6.938,30.165c-4.327,10.323-10.277,19.652-17.41,28.244
				c-7.961,9.591-17.174,17.817-27.33,25.02c-17.751,12.589-37.341,20.998-58.502,25.867c-5.494,1.264-11.042,2.22-16.635,2.891
				c-7.99,0.959-16.013,1.337-24.055,1.016c-7.982-0.319-15.897-1.237-23.711-2.941c-0.381-0.083-0.766-0.162-1.131-0.293
				c-1.462-0.529-1.993-2.09-1.144-3.403c0.239-0.37,0.565-0.688,0.873-1.009c5.7-5.935,10.775-12.369,15.184-19.312
				c9.084-14.303,15.581-29.684,19.185-46.271c2.205-10.146,3.099-20.392,2.58-30.758c-0.159-3.177-0.534-6.336-1.04-9.477
				C97.247,211.804,97.166,211.652,97.095,211.452z M65.912,318.928c0.469,0.125,0.669,0.191,0.874,0.231
				c6.971,1.355,14.018,2.023,21.106,2.268c6.31,0.218,12.61-0.067,18.89-0.677c5.831-0.567,11.622-1.448,17.348-2.691
				c19.31-4.193,37.377-11.408,53.985-22.197c11.918-7.743,22.642-16.839,31.744-27.786c6.778-8.153,12.471-16.992,16.62-26.778
				c4.133-9.75,6.612-19.88,6.833-30.505c0.028-1.348,0.606-2.174,1.775-2.751c3.413-1.686,6.566-3.795,9.596-6.085
				c3.608-2.727,7.16-5.523,10.113-8.99c2.138-2.51,4.164-5.1,5.758-8.001c1.678-3.055,2.523-6.304,2.231-9.807
				c-0.174-2.088-0.757-4.066-1.851-5.851c-1.501-2.449-3.659-4.042-6.517-4.536c-1.718-0.297-3.455-0.214-5.148,0.238
				c-4.065,1.084-7.675,2.991-10.641,6.02c-1.956,1.998-3.733,4.144-5.282,6.476c-0.245,0.369-0.488,0.763-0.816,1.048
				c-0.646,0.561-1.395,0.657-2.177,0.254c-0.714-0.368-1.131-1.11-1.04-1.936c0.036-0.327,0.158-0.646,0.258-0.963
				c1.955-6.198,3.119-12.552,3.68-19.016c0.46-5.295,0.363-10.586-0.212-15.875c-0.771-7.088-2.43-13.949-5.129-20.545
				c-4.799-11.728-12.13-21.537-22.365-29.078c-10.482-7.723-22.309-11.775-35.251-12.635c-5.15-0.342-10.248,0.218-15.302,1.229
				c-9.497,1.899-18.18,5.658-25.966,11.422c-10.994,8.139-18.64,18.784-23.306,31.587c-3.837,10.528-5.228,21.407-4.457,32.583
				c0.401,5.808,1.342,11.518,2.828,17.141c0.342,1.293,0.793,2.557,1.144,3.847c0.25,0.918-0.199,1.833-1.017,2.253
				c-0.772,0.396-1.674,0.26-2.306-0.385c-0.231-0.236-0.39-0.54-0.593-0.805c-1.183-1.551-2.33-3.133-3.563-4.643
				c-2.777-3.403-6.22-5.862-10.379-7.354c-1.871-0.671-3.755-1.047-5.726-0.997c-3.744,0.095-6.459,1.927-8.248,5.128
				c-1.279,2.289-1.757,4.801-1.64,7.423c0.135,3.024,1.069,5.808,2.616,8.38c2.546,4.234,5.599,8.071,9.311,11.341
				c4.784,4.214,9.856,8.039,15.529,11.006c1.06,0.554,1.754,1.35,1.902,2.569c0.027,0.221,0.11,0.434,0.135,0.655
				c0.364,3.158,0.87,6.307,1.055,9.476c0.629,10.753-0.266,21.392-2.511,31.935c-3.463,16.258-9.657,31.412-18.254,45.601
				c-4.115,6.792-8.844,13.142-14.135,19.069C66.965,317.711,66.533,318.216,65.912,318.928z"/>
                    <g>
                        <path fill="#E5CAD8" d="M122.909,161.944c3.151,0.122,5.784,0.906,8.203,2.404c1.156,0.716,2.098,1.654,2.83,2.789
					c0.619,0.959,0.945,2.006,0.72,3.171c-0.29,1.502-1.24,2.467-2.573,3.068c-1.236,0.557-2.567,0.748-3.914,0.676
					c-2.712-0.145-5.273-0.855-7.571-2.325c-0.835-0.534-1.61-1.198-2.298-1.912c-0.489-0.507-0.883-1.159-1.15-1.816
					c-0.779-1.914-0.135-3.813,1.588-4.961c0.706-0.471,1.491-0.759,2.317-0.901C121.771,162.015,122.497,161.985,122.909,161.944z"
                        />
                        <path fill="#E5CAD8" d="M213.314,161.955c1.127,0.004,2.288,0.107,3.395,0.536c2.933,1.138,3.828,4.066,2.042,6.674
					c-0.671,0.98-1.553,1.741-2.539,2.384c-2.437,1.591-5.134,2.373-8.022,2.507c-1.233,0.057-2.449-0.133-3.594-0.607
					c-2.797-1.158-3.633-3.908-1.95-6.436c0.683-1.026,1.544-1.892,2.594-2.563C207.689,162.885,210.37,162.078,213.314,161.955z"/>
                    </g>
                    <g>
                        <path fill="#1A1A1A" d="M150.637,148.358c0.029,2.396-0.371,4.626-1.697,6.591c-0.462,0.684-1.014,1.343-1.646,1.868
					c-1.856,1.541-4.174,1.618-6.205,0.301c-1.456-0.944-2.449-2.295-3.089-3.858c-1.409-3.438-1.504-6.931-0.166-10.43
					c0.465-1.216,1.151-2.283,2.126-3.158c2.079-1.866,4.818-1.962,7.021-0.236c0.983,0.77,1.715,1.746,2.271,2.855
					C150.217,144.22,150.67,146.268,150.637,148.358z"/>
                        <path fill="#1A1A1A" d="M199.576,147.876c-0.027,2.618-0.574,5.085-2.128,7.254c-0.69,0.964-1.514,1.782-2.591,2.314
					c-1.803,0.89-3.55,0.787-5.229-0.315c-1.405-0.922-2.336-2.245-2.9-3.786c-1.415-3.861-1.176-7.653,0.685-11.326
					c0.51-1.005,1.216-1.868,2.102-2.569c2.182-1.727,4.944-1.642,7.027,0.208c0.847,0.752,1.472,1.665,1.938,2.693
					C199.277,144.105,199.597,145.956,199.576,147.876z"/>
                        <path fill="#1A1A1A" d="M168.407,167.299c-2.957-0.065-5.396-0.82-7.319-2.861c-0.618-0.655-1.152-1.365-1.467-2.215
					c-0.397-1.069-0.055-2.12,0.829-2.617c0.903-0.508,1.954-0.239,2.648,0.684c0.1,0.133,0.183,0.28,0.261,0.427
					c0.652,1.218,1.729,1.87,3.016,2.196c1.682,0.426,3.32,0.264,4.873-0.532c0.81-0.415,1.472-0.998,1.903-1.82
					c0.181-0.344,0.352-0.704,0.594-1.002c0.57-0.703,1.468-0.902,2.257-0.552c0.881,0.391,1.36,1.229,1.196,2.163
					c-0.158,0.9-0.599,1.679-1.157,2.384c-1.513,1.913-3.469,3.113-5.877,3.538C169.508,167.207,168.838,167.249,168.407,167.299z"
                        />
                    </g>
                </g>
            </g>
        <g>
                <path fill="#D39557" d="M210.179,394.734c-3.704-2.435-6.779-5.219-9.713-8.161c-6.286-6.304-12.1-13.002-16.785-20.61
			c-4.096-6.652-7.108-13.739-8.284-21.509c-0.65-4.291-0.782-8.601,0.262-12.867c0.672-2.747,1.959-5.168,3.992-7.161
			c2.659-2.605,5.791-3.457,9.427-2.612c3.452,0.803,6.249,2.701,8.764,5.087c4.137,3.925,7.189,8.612,9.568,13.761
			c0.776,1.679,1.51,3.377,2.449,5.483c0.524-1.124,0.906-1.882,1.235-2.662c2.04-4.824,4.391-9.492,7.916-13.405
			c1.949-2.162,4.051-4.306,6.444-5.927c7.942-5.38,16.03-2.248,18.558,7.043c1.198,4.402,1.028,8.885,0.342,13.341
			c-1.391,9.039-5.224,17.076-10.295,24.58c-5.653,8.366-12.769,15.416-20.101,22.267
			C212.77,392.492,211.528,393.54,210.179,394.734z"/>
            <path fill="#81AA61" d="M272.157,140.659c-2.254-1.482-4.125-3.175-5.91-4.966c-3.825-3.836-7.363-7.911-10.213-12.54
			c-2.492-4.048-4.325-8.36-5.041-13.088c-0.395-2.611-0.476-5.233,0.159-7.829c0.409-1.672,1.192-3.145,2.429-4.357
			c1.618-1.585,3.524-2.103,5.736-1.589c2.101,0.488,3.802,1.643,5.332,3.095c2.517,2.388,4.374,5.24,5.822,8.373
			c0.472,1.022,0.919,2.055,1.49,3.337c0.319-0.684,0.551-1.145,0.752-1.62c1.241-2.935,2.672-5.776,4.817-8.156
			c1.186-1.316,2.465-2.62,3.921-3.606c4.832-3.274,9.754-1.368,11.292,4.285c0.729,2.678,0.626,5.406,0.208,8.118
			c-0.846,5.5-3.179,10.39-6.264,14.956c-3.44,5.09-7.77,9.38-12.231,13.549C273.734,139.295,272.978,139.933,272.157,140.659z"/>
            <path fill="#BA9BC9" d="M316.257,97.004c-1.127-0.741-2.063-1.588-2.955-2.483c-1.913-1.918-3.681-3.956-5.107-6.27
			c-1.246-2.024-2.162-4.18-2.52-6.544c-0.198-1.305-0.238-2.617,0.08-3.915c0.204-0.836,0.596-1.572,1.215-2.179
			c0.809-0.793,1.762-1.052,2.868-0.795c1.05,0.244,1.901,0.822,2.666,1.548c1.259,1.194,2.187,2.62,2.911,4.187
			c0.236,0.511,0.459,1.027,0.745,1.668c0.159-0.342,0.276-0.573,0.376-0.81c0.621-1.468,1.336-2.888,2.408-4.078
			c0.593-0.658,1.232-1.31,1.96-1.803c2.416-1.637,4.877-0.684,5.646,2.143c0.364,1.339,0.313,2.703,0.104,4.059
			c-0.423,2.75-1.589,5.195-3.132,7.478c-1.72,2.545-3.885,4.69-6.116,6.774C317.046,96.322,316.668,96.641,316.257,97.004z"/>
            <path fill="#BA9BC9" d="M143.849,365.551c-1.127-0.741-2.063-1.588-2.955-2.483c-1.913-1.918-3.681-3.956-5.107-6.27
			c-1.246-2.024-2.162-4.18-2.52-6.544c-0.198-1.305-0.238-2.617,0.08-3.915c0.204-0.836,0.596-1.572,1.215-2.179
			c0.809-0.793,1.762-1.052,2.868-0.795c1.05,0.244,1.901,0.822,2.666,1.548c1.259,1.194,2.187,2.62,2.911,4.187
			c0.236,0.511,0.459,1.027,0.745,1.668c0.159-0.342,0.276-0.573,0.376-0.81c0.621-1.468,1.336-2.888,2.408-4.078
			c0.593-0.658,1.232-1.31,1.96-1.803c2.416-1.637,4.877-0.684,5.646,2.143c0.364,1.339,0.313,2.703,0.104,4.059
			c-0.423,2.75-1.589,5.195-3.132,7.478c-1.72,2.545-3.885,4.69-6.116,6.774C144.637,364.869,144.259,365.188,143.849,365.551z"/>
            <path fill="#81AA61" d="M262.928,410.856c-1.127-0.741-2.063-1.588-2.955-2.483c-1.913-1.918-3.681-3.956-5.107-6.27
			c-1.246-2.024-2.162-4.18-2.52-6.544c-0.198-1.305-0.238-2.617,0.08-3.915c0.204-0.836,0.596-1.572,1.215-2.179
			c0.809-0.793,1.762-1.052,2.868-0.795c1.05,0.244,1.901,0.822,2.666,1.548c1.259,1.194,2.187,2.62,2.911,4.187
			c0.236,0.511,0.459,1.027,0.745,1.668c0.159-0.342,0.276-0.573,0.376-0.81c0.621-1.468,1.336-2.888,2.408-4.078
			c0.593-0.658,1.232-1.31,1.96-1.803c2.416-1.637,4.877-0.684,5.646,2.143c0.364,1.339,0.313,2.703,0.104,4.059
			c-0.423,2.75-1.589,5.195-3.132,7.478c-1.72,2.545-3.885,4.69-6.116,6.774C263.716,410.173,263.338,410.492,262.928,410.856z"/>
            </g>
        </g>
</svg>
