<?xml version="1.0" encoding="utf-8"?>
<svg version="1.1" id="Layer_1" xmlns="http://www.w3.org/2000/svg"
     xmlns:xlink="http://www.w3.org/1999/xlink"
     x="0px" y="0px" viewBox="0 0 504 504"

     xml:space="preserve">
    <style type="text/css">.st0{fill-rule:evenodd;clip-rule:evenodd;}</style>
    <g>
            <path fill="#9E2B33" d="M393.364,253.144c-1.545,1.586-2.706,3.319-3.865,5.057c-0.921,1.381-1.839,2.766-2.815,4.107
		c-1.179,1.621-2.621,3.003-4.188,4.243c-1.422,1.125-3.071,1.671-4.887,1.668c-0.664-0.001-1.328-0.047-1.991-0.091
		c-1.177-0.078-2.142,0.348-2.893,1.237c-0.427,0.506-0.847,1.029-1.189,1.594c-1.801,2.975-4.307,5.285-6.977,7.438
		c-0.97,0.782-2.062,1.34-3.327,1.511c-1.313,0.177-2.466-0.147-3.371-1.116c-0.646-0.691-1.256-1.426-1.795-2.202
		c-1.109-1.598-2.176-3.22-3.406-4.733c-1.713-2.105-2.525-4.538-2.397-7.265c0.044-0.948,0.102-1.895,0.126-2.843
		c0.048-1.897,0.102-3.794,0.101-5.69c0-0.7-0.146-1.401-0.234-2.177c-0.274,0.069-0.46,0.082-0.613,0.16
		c-3.935,2.02-7.706,4.302-11.133,7.111c-1.429,1.172-2.793,2.427-4.148,3.686c-2.226,2.067-4.443,4.14-6.831,6.024
		c-1.908,1.505-3.536,3.306-5.093,5.16c-1.922,2.289-3.792,4.622-5.683,6.938c-1.16,1.421-1.914,3.052-2.392,4.807
		c-0.673,2.472-1.298,4.957-1.583,7.51c-0.294,2.63-0.156,5.203,0.977,7.664c2.106,4.578,3.726,9.331,5.037,14.194
		c1.611,5.976,3.921,11.682,6.687,17.21c3.466,6.93,7.422,13.565,11.979,19.835c1.031,1.419,2.082,2.834,3.234,4.154
		c3.12,3.575,6.29,7.107,9.458,10.64c1.492,1.664,3.146,3.159,4.887,4.56c1.479,1.19,2.939,2.403,4.409,3.604
		c4.627,3.783,8.508,8.247,11.95,13.11c0.301,0.425,0.581,0.868,0.844,1.318c0.724,1.239,0.902,2.593,0.723,3.989
		c-0.208,1.615-1.467,3.028-3.062,3.371c-0.73,0.157-1.51,0.201-2.256,0.145c-4.352-0.323-8.701-0.686-13.051-1.048
		c-0.898-0.075-1.795-0.175-2.685-0.312c-2.481-0.381-4.454-1.616-5.8-3.728c-0.813-1.276-1.519-2.629-2.177-3.994
		c-1.092-2.263-2.09-4.572-3.163-6.845c-0.363-0.768-0.8-1.508-1.26-2.223c-0.88-1.367-2.143-2.258-3.661-2.804
		c-0.401-0.144-0.804-0.285-1.21-0.416c-1.27-0.412-2.234-1.207-2.977-2.308c-0.829-1.228-1.49-2.539-1.93-3.95
		c-0.635-2.036-1.288-4.071-1.818-6.135c-0.72-2.803-1.934-5.354-3.693-7.631c-1.624-2.102-3.274-4.19-5.019-6.191
		c-3.027-3.47-6.003-6.977-8.811-10.629c-1.534-1.995-3.004-4.031-4.404-6.121c-1.426-2.128-2.857-4.254-4.352-6.334
		c-1.106-1.54-2.292-3.024-3.487-4.498c-1.375-1.695-2.803-3.347-4.198-5.026c-3.229-3.883-5.993-8.07-8.25-12.592
		c-0.376-0.753-0.708-1.537-1.198-2.212c-0.41,0.044-0.323,0.347-0.369,0.54c-0.836,3.456-1.61,6.928-2.51,10.367
		c-0.624,2.383-1.409,4.725-2.138,7.08c-1.195,3.858-2.149,7.768-2.631,11.786c-0.561,4.672-1.568,9.254-2.798,13.791
		c-0.808,2.98-1.321,6.021-1.788,9.069c-0.452,2.945-0.186,5.867,0.346,8.777c0.55,3.005,1.497,5.878,2.854,8.615
		c0.147,0.297,0.299,0.593,0.431,0.898c2.187,5.038,5.169,9.597,8.431,13.985c0.735,0.989,1.546,1.922,2.318,2.884
		c1.456,1.812,2.952,3.595,4.35,5.451c0.911,1.21,1.694,2.518,2.499,3.803c0.3,0.479,0.541,1.005,0.739,1.535
		c0.653,1.749,0.185,3.163-1.373,4.196c-1.139,0.755-2.422,1.069-3.767,1.145c-1.868,0.106-3.691-0.176-5.474-0.718
		c-1.134-0.344-2.258-0.719-3.383-1.093c-2.165-0.72-4.379-1.23-6.631-1.583c-0.608-0.095-1.215-0.213-1.814-0.355
		c-2.148-0.51-3.93-1.6-5.328-3.328c-1.35-1.668-2.518-3.447-3.432-5.389c-0.727-1.545-1.48-3.08-2.141-4.653
		c-0.629-1.496-1.685-2.486-3.167-3.083c-0.526-0.212-1.049-0.452-1.53-0.75c-1.651-1.025-2.552-2.504-2.579-4.472
		c-0.021-1.527,0.252-3.022,0.524-4.516c0.373-2.052,0.796-4.098,1.093-6.161c0.624-4.344,0.687-8.688-0.011-13.044
		c-0.54-3.373-0.874-6.773-0.991-10.194c-0.171-5.002-0.888-9.93-2.44-14.694c-1.076-3.305-1.462-6.653-1.241-10.101
		c0.124-1.941,0.213-3.885,0.289-5.829c0.168-4.328-0.124-8.631-0.75-12.914c-0.563-3.852-0.924-7.724-1.214-11.604
		c-0.035-0.463,0.032-0.95-0.24-1.4c-0.584-0.119-1.129,0.047-1.684,0.15c-3.454,0.643-6.823,1.622-10.205,2.551
		c-2.24,0.615-4.486,1.216-6.816,1.404c-3.648,0.296-7.3,0.354-10.948,0.049c-2.505-0.209-5.005-0.483-7.504-0.76
		c-1.791-0.198-3.574-0.471-5.365-0.671c-2.31-0.258-4.62-0.527-6.936-0.701c-3.359-0.254-6.726-0.399-10.085-0.643
		c-3.646-0.265-7.261-0.774-10.839-1.534c-0.413-0.088-0.833-0.145-1.316-0.228c-0.194,0.279-0.392,0.533-0.556,0.808
		c-0.219,0.366-0.419,0.744-0.617,1.122c-1.697,3.235-3.454,6.436-5.364,9.551c-1.491,2.431-2.69,5.012-3.846,7.616
		c-1.289,2.905-2.565,5.822-4.208,8.548c-1.597,2.649-1.812,5.443-1.089,8.369c0.227,0.92,0.477,1.839,0.794,2.731
		c1.804,5.069,4.078,9.904,7.14,14.354c5.892,8.564,11.942,17.009,18.501,25.079c1.799,2.213,3.742,4.292,5.798,6.266
		c1.99,1.911,4.118,3.648,6.454,5.126c1.283,0.812,2.543,1.659,3.816,2.486c2.195,1.424,4.254,3.017,6.153,4.823
		c2.067,1.965,4.273,3.757,6.693,5.283c1.243,0.784,2.433,1.652,3.645,2.484c1.935,1.327,2.795,3.277,3.209,5.497
		c0.154,0.827-0.11,1.485-0.671,2.067c-0.538,0.559-1.174,0.975-1.916,1.181c-0.545,0.151-1.113,0.267-1.676,0.297
		c-2.422,0.132-4.838,0.048-7.238-0.335c-2.762-0.442-5.522-0.899-8.289-1.316c-3.279-0.494-6.338-1.565-9.157-3.326
		c-3.031-1.893-5.89-3.991-8.286-6.673c-0.568-0.636-1.201-1.215-1.786-1.838c-1.909-2.035-4.257-2.749-6.979-2.332
		c-0.659,0.101-1.306,0.196-1.976,0.053c-1.363-0.29-2.488-0.96-3.251-2.122c-0.597-0.909-1.141-1.862-1.614-2.841
		c-0.824-1.708-1.595-3.443-2.35-5.183c-0.928-2.14-2.029-4.182-3.334-6.113c-1.115-1.651-2.239-3.297-3.386-4.926
		c-5.002-7.103-9.766-14.358-14.055-21.917c-1.406-2.478-2.96-4.86-4.605-7.187c-2.109-2.982-4.203-5.976-6.26-8.995
		c-2.713-3.981-4.724-8.329-6.488-12.792c-0.993-2.513-1.902-5.06-2.852-7.59c-0.128-0.34-0.275-0.674-0.454-1.111
		c-0.201,0.208-0.347,0.321-0.446,0.466c-2.416,3.578-4.876,7.128-7.229,10.746c-4.877,7.498-8.887,15.454-12.263,23.73
		c-1.275,3.125-2.254,6.345-2.833,9.677c-0.432,2.491-0.524,4.992-0.268,7.514c0.24,2.368,0.639,4.7,1.356,6.97
		c0.588,1.861,1.385,3.631,2.37,5.317c1.343,2.299,2.825,4.499,4.511,6.562c1.863,2.279,3.69,4.587,5.16,7.148
		c0.59,1.027,1.144,2.078,1.647,3.15c0.551,1.173,0.809,2.424,0.761,3.73c-0.052,1.412-0.709,2.432-1.97,3.057
		c-1.127,0.559-2.342,0.768-3.583,0.792c-1.281,0.025-2.562-0.02-3.843-0.021c-2.087-0.002-4.177-0.048-6.245,0.326
		c-0.233,0.042-0.474,0.052-0.702,0.113c-2.432,0.652-4.884,0.495-7.347,0.231c-1.646-0.177-3.002-0.889-4.038-2.145
		c-0.722-0.875-1.407-1.799-1.975-2.779c-0.975-1.68-1.874-3.407-2.752-5.14c-0.771-1.521-1.854-2.742-3.254-3.696
		c-0.588-0.401-1.205-0.763-1.767-1.196c-1.088-0.839-2.174-1.684-3.209-2.586c-1.16-1.011-1.761-2.311-1.855-3.868
		c-0.09-1.495,0.055-2.94,0.657-4.318c0.38-0.869,0.763-1.739,1.202-2.579c2.631-5.031,4.596-10.297,5.742-15.867
		c0.584-2.836,1.442-5.6,2.311-8.361c0.854-2.714,1.728-5.427,2.248-8.229c0.363-1.957,0.694-3.926,0.919-5.902
		c0.468-4.103,1.134-8.175,1.81-12.245c0.621-3.743,1.339-7.468,2.264-11.151c0.173-0.69,0.376-1.372,0.556-2.06
		c0.645-2.458,1.691-4.734,3.159-6.804c1.345-1.896,2.697-3.789,4.121-5.626c3.837-4.95,6.85-10.351,9.104-16.192
		c0.757-1.963,1.149-4.005,1.591-6.043c0.474-2.187,0.698-4.404,0.782-6.635c0.125-3.323,0.421-6.629,0.936-9.913
		c0.206-1.311,0.475-2.612,0.712-3.919c0.058-0.323,0.099-0.648,0.162-1.062c-0.416-0.036-0.779-0.085-1.143-0.095
		c-1.439-0.039-2.828-0.331-4.154-0.873c-0.565-0.231-1.108-0.541-1.619-0.877c-0.887-0.584-1.398-1.45-1.424-2.5
		c-0.022-0.892,0.026-1.812,0.223-2.678c0.262-1.15,0.7-2.26,1.062-3.387c0.098-0.304,0.197-0.608,0.319-0.985
		c-2.782-0.84-5.493-1.651-8.282-2.422c-0.671,0.864-1.33,1.666-1.94,2.504c-1.734,2.385-3.203,4.931-4.526,7.563
		c-0.236,0.47-0.433,0.933-0.414,1.484c0.133,3.857,0.774,7.632,1.758,11.419c0.295,0.041,0.565,0.09,0.838,0.114
		c2.795,0.247,4.426,2.802,3.472,5.442c-0.887,2.455-3.433,3.542-5.631,2.405c-2.011-1.041-2.705-3.524-1.566-5.65
		c0.222-0.415,0.502-0.798,0.754-1.193c-0.361-1.252-0.744-2.473-1.06-3.711c-0.3-1.176-0.53-2.371-0.816-3.672
		c-0.18,0.18-0.303,0.25-0.346,0.353c-1.027,2.483-2.411,7.241-2.543,8.75c0.324,0.298,0.685,0.603,1.015,0.938
		c1.575,1.602,2.062,3.51,1.37,5.63c-0.713,2.182-2.303,3.494-4.569,3.758c-2.269,0.264-4.108-0.643-5.28-2.634
		c-1.172-1.991-1.035-4.004,0.248-5.902c0.823-1.218,1.947-2.065,3.437-2.337c0.326-0.06,0.652-0.123,1.062-0.201
		c0.095-0.315,0.232-0.661,0.305-1.021c0.929-4.569,2.259-9.016,4.102-13.299c0.693-1.61,1.503-3.169,2.263-4.75
		c0.181-0.377,0.38-0.745,0.554-1.085c-0.066-0.102-0.083-0.158-0.12-0.176c-0.028-0.014-0.088,0.007-0.121,0.03
		c-2.152,1.489-4.081,3.248-6.034,4.977c-0.207,0.183-0.381,0.402-0.608,0.645c0.831,1.502,1.168,3.039,0.593,4.674
		c-0.406,1.155-1.097,2.095-2.118,2.781c-2.058,1.383-4.743,1.207-6.592-0.43c-1.91-1.69-2.396-4.403-1.164-6.605
		c0.728-1.302,1.821-2.146,3.255-2.588c1.445-0.445,2.803-0.111,4.179,0.406c0.956-0.896,1.867-1.792,2.824-2.635
		c0.996-0.878,2.02-1.727,3.063-2.548c1.006-0.792,2.039-1.553,3.088-2.287c1.036-0.726,2.107-1.402,3.294-2.186
		c-0.414-0.16-0.663-0.279-0.925-0.353c-1.322-0.377-2.652-0.724-3.968-1.119c-0.588-0.176-1.167-0.403-1.718-0.671
		c-0.777-0.378-1.286-0.964-1.213-1.907c0.01-0.131-0.05-0.267-0.072-0.373c-2.117-0.403-4.204-0.799-6.419-1.22
		c-0.283,0.145-0.689,0.395-1.125,0.571c-1.751,0.708-3.768,0.126-4.826-1.369c-1.006-1.423-0.934-3.427,0.2-4.763
		c1.051-1.239,2.436-1.645,3.979-1.34c1.51,0.299,2.534,1.247,2.981,2.744c0.134,0.449,0.18,0.924,0.28,1.467
		c0.215,0.087,0.462,0.22,0.725,0.287c2.031,0.519,4.11,0.7,6.19,0.886c0.546,0.049,1.008-0.055,1.469-0.37
		c3.137-2.141,6.233-4.33,9.054-6.89c2.916-2.647,5.804-5.328,8.914-7.752c0.102-0.079,0.165-0.209,0.302-0.39
		c-0.703-0.677-1.504-1.156-2.381-1.513c-2.732-1.112-5.563-1.539-8.501-1.204c-1.558,0.177-3.09,0.473-4.592,0.938
		c-0.768,0.238-1.56,0.403-2.347,0.579c-0.985,0.22-1.778-0.099-2.357-0.922c-0.273-0.388-0.523-0.791-0.773-1.194
		c-0.879-1.418-1.924-2.701-3.081-3.903c-2.072-2.152-4.59-3.482-7.478-4.154c-0.877-0.204-1.751-0.425-2.634-0.602
		c-1.193-0.239-1.941-0.917-2.247-2.101c-0.142-0.55-0.332-1.088-0.502-1.631c-0.852-2.713-2.262-5.106-4.131-7.24
		c-1.286-1.468-2.716-2.784-4.206-4.039c-0.762-0.642-1.531-1.279-2.243-1.975c-0.649-0.635-0.721-1.312-0.341-2.08
		c0.274-0.555,0.698-0.908,1.342-0.876c0.709,0.036,1.421,0.084,2.124,0.179c1.561,0.21,3.127,0.225,4.688,0.082
		c1.722-0.157,3.346-0.699,4.825-1.592c1.094-0.661,2.131-1.414,3.187-2.137c0.313-0.214,0.595-0.472,0.901-0.696
		c0.755-0.555,1.588-0.624,2.428-0.273c0.61,0.254,1.183,0.599,1.767,0.913c1.335,0.72,2.65,1.481,4.004,2.163
		c2.732,1.376,5.634,1.931,8.687,1.692c1.284-0.1,2.523-0.4,3.756-0.758c0.494-0.143,1.019-0.251,1.529-0.247
		c0.685,0.006,1.261,0.364,1.784,0.8c0.911,0.76,1.812,1.533,2.747,2.263c1.993,1.555,4.165,2.81,6.514,3.748
		c0.436,0.174,0.888,0.306,1.442,0.495c0-0.313,0.049-0.54-0.008-0.737c-0.292-1.001-0.654-1.984-0.908-2.994
		c-0.186-0.739-0.607-1.257-1.174-1.718c-1.833-1.49-3.902-2.507-6.176-3.119c-0.458-0.123-0.92-0.231-1.384-0.327
		c-1.011-0.21-1.731-0.735-2.006-1.776c-0.06-0.228-0.168-0.443-0.242-0.668c-0.949-2.877-2.911-4.829-5.585-6.139
		c-1.241-0.608-2.551-1.015-3.879-1.379c-0.548-0.15-1.088-0.328-1.631-0.498c-0.68-0.212-0.985-0.725-1.024-1.39
		c-0.025-0.422,0.031-0.851,0.079-1.274c0.55-4.889-0.132-9.556-2.482-13.928c-0.404-0.752-0.793-1.512-1.171-2.278
		c-0.273-0.552-0.563-1.103-0.764-1.682c-0.323-0.93,0.054-1.692,0.95-2.092c0.365-0.163,0.734-0.211,1.101-0.044
		c0.518,0.234,1.033,0.477,1.537,0.74c2.349,1.229,4.842,1.9,7.493,2.012c1.296,0.055,2.556-0.084,3.784-0.503
		c0.269-0.092,0.538-0.184,0.81-0.267c1.421-0.436,1.949-0.251,2.742,0.998c0.33,0.52,0.632,1.059,0.926,1.601
		c1.083,1.999,2.585,3.626,4.413,4.955c3.191,2.321,6.747,3.619,10.708,3.748c0.142,0.005,0.285,0.004,0.427,0.009
		c1.045,0.033,1.816,0.492,2.236,1.469c0.262,0.609,0.519,1.222,0.756,1.842c1.068,2.797,2.317,5.503,3.855,8.079
		c0.515,0.863,1.118,1.42,2.12,1.709c1.864,0.538,3.692,1.212,5.517,1.876c1.876,0.683,3.655,1.577,5.36,2.618
		c0.281,0.172,0.574,0.324,0.917,0.517c0.718-1.206,1.418-2.381,2.155-3.618c-0.387-0.885-0.995-1.658-1.54-2.515
		c-1.614,0.335-3.203,0.563-4.821,0.48c-1.477-0.075-2.921-0.306-4.312-0.827c-0.896-0.336-1.732-0.782-2.453-1.412
		c-0.354-0.309-0.699-0.652-0.963-1.038c-0.749-1.097-0.642-2.292,0.295-3.235c0.946-0.952,2.139-1.38,3.461-1.455
		c1.801-0.102,3.467,0.416,5.08,1.153c0.378,0.173,0.749,0.359,1.154,0.555c-0.001-0.878-0.486-3.271-0.836-4.198
		c-0.649-0.097-1.301-0.2-1.955-0.292c-3.036-0.429-5.533-1.896-7.661-4.034c-0.984-0.989-1.637-2.18-2.064-3.524
		c-0.901-2.838,1.431-6.085,5.046-5.488c0.998,0.165,1.906,0.565,2.733,1.146c1.137,0.798,2.12,1.748,2.881,2.92
		c0.2,0.308,0.437,0.592,0.658,0.889c0.1-0.078,0.16-0.102,0.164-0.133c0.19-1.354,0.386-2.708,0.55-4.066
		c0.027-0.222-0.077-0.464-0.136-0.692c-0.686-2.644-0.892-5.332-0.679-8.047c0.172-2.19,0.624-4.317,1.681-6.278
		c0.522-0.968,1.145-1.855,1.956-2.606c0.788-0.729,1.71-1.191,2.765-1.371c1.507-0.257,2.821,0.135,3.906,1.225
		c1.238,1.243,1.809,2.8,1.859,4.501c0.136,4.639-1.34,8.683-4.737,11.917c-0.991,0.943-2.129,1.733-3.339,2.706
		c-0.636,3.797-0.472,7.735,0.186,11.991c0.27-0.514,0.401-0.749,0.519-0.99c0.416-0.852,0.79-1.726,1.25-2.554
		c0.82-1.477,1.973-2.659,3.372-3.606c0.676-0.458,1.404-0.79,2.198-0.973c0.906-0.209,1.803-0.15,2.648,0.233
		c1.225,0.556,1.931,1.485,1.954,2.879c0.014,0.828-0.176,1.595-0.567,2.322c-0.523,0.973-1.173,1.854-2.061,2.513
		c-0.874,0.648-1.757,1.313-2.722,1.802c-1.646,0.834-3.358,1.535-5.041,2.295c-0.126,0.057-0.241,0.139-0.355,0.207
		c0.335,1.52,1.082,3.167,2.071,4.544c0.177-0.152,0.376-0.279,0.517-0.452c2.447-2.999,5.372-5.49,8.396-7.869
		c1.715-1.349,3.467-2.652,5.23-3.939c2.608-1.904,5.137-3.909,7.548-6.056c1.381-1.23,2.684-2.547,4.037-3.81
		c0.693-0.647,1.407-1.274,2.132-1.885c0.602-0.508,1.314-0.751,2.108-0.706c1.066,0.06,1.796,0.637,2.007,1.687
		c0.139,0.693,0.198,1.411,0.212,2.119c0.056,2.894,0.075,5.789,0.12,8.684c0.008,0.51-0.059,1.039,0.209,1.559
		c0.194,0,0.38,0.028,0.555-0.006c0.278-0.054,0.548-0.151,0.822-0.227c1.268-0.353,2.52-0.489,3.731,0.358
		c0.662-0.423,1.303-0.82,1.931-1.235c2.651-1.756,5.343-3.442,8.179-4.888c1.018-0.519,2.064-0.937,3.191-1.174
		c1.211-0.256,2.254-0.028,3.144,0.846c0.133,0.13,0.285,0.241,0.474,0.399c0.307-0.098,0.623-0.178,0.924-0.297
		c2.16-0.853,4.309-1.732,6.476-2.568c2.611-1.007,5.254-1.928,8.014-2.443c0.693-0.13,1.417-0.166,2.123-0.141
		c1.535,0.053,2.678,1.018,3.07,2.504c0.024,0.092,0.053,0.184,0.063,0.277c0.521,4.753,0.568,9.472-0.958,14.087
		c-0.161,0.486-0.456,0.944-0.389,1.557c0.346,0.264,0.726,0.539,1.089,0.836c0.907,0.743,1.366,1.686,1.222,2.875
		c-0.051,0.423-0.101,0.85-0.205,1.261c-0.557,2.206-1.106,4.416-1.707,6.611c-0.818,2.989-2.093,5.793-3.545,8.521
		c-0.2,0.376-0.389,0.759-0.568,1.146c-0.036,0.077-0.005,0.184-0.005,0.342c1.148,0.504,2.051,1.293,2.357,2.66
		c0.579,0,1.098-0.001,1.617,0c4.746,0.006,9.492-0.009,14.237,0.026c2.734,0.02,5.389-0.392,7.963-1.293
		c1.654-0.579,3.301-1.186,4.925-1.846c4.084-1.66,8.153-3.358,12.228-5.039c2.589-1.068,5.103-2.291,7.574-3.606
		c2.051-1.091,4.116-2.156,6.175-3.234c3.65-1.91,7.553-3.053,11.596-3.725c1.681-0.279,3.383-0.471,5.083-0.589
		c2.904-0.202,5.783,0.111,8.635,0.651c4.383,0.83,8.801,1.414,13.23,1.922c1.885,0.216,3.765,0.472,5.648,0.702
		c0.452,0.055,0.908,0.08,1.35,0.118c0.085-0.403-0.167-0.517-0.326-0.665c-1.395-1.298-2.614-2.748-3.763-4.265
		c-1.203-1.588-2.422-3.165-3.657-4.728c-1.8-2.278-3.912-4.265-5.951-6.318c-1.17-1.179-2.341-2.358-3.532-3.515
		c-4.581-4.451-7.58-9.785-9.055-16c-0.702-2.958-1.255-5.94-1.67-8.947c-0.526-3.81-1.257-7.578-2.139-11.319
		c-0.926-3.929-1.554-7.91-2.06-11.911c-0.09-0.71-0.104-1.417,0.11-2.116c0.478-1.563,1.888-2.128,3.235-1.234
		c0.505,0.335,0.957,0.784,1.347,1.252c0.606,0.728,1.134,1.52,1.705,2.278c0.256,0.34,0.532,0.666,0.811,0.987
		c0.055,0.063,0.167,0.076,0.307,0.135c0.118-0.248,0.271-0.487,0.351-0.749c0.387-1.27,0.735-2.551,1.134-3.817
		c0.527-1.671,1.071-3.338,1.648-4.993c0.185-0.532,0.487-1.026,0.756-1.526c0.111-0.206,0.269-0.391,0.424-0.57
		c0.418-0.484,0.911-0.875,1.591-0.758c0.738,0.127,1.152,0.653,1.286,1.358c0.221,1.162,0.448,2.328,0.575,3.502
		c0.218,2.027,0.342,4.064,0.541,6.094c0.116,1.186,0.432,2.332,0.905,3.426c0.339,0.783,0.746,1.511,1.39,2.122
		c0.58,0.55,1.018,1.248,1.536,1.866c0.792,0.945,1.59,1.885,2.407,2.809c0.209,0.236,0.498,0.401,0.849,0.676
		c0.105-0.428,0.242-0.737,0.245-1.048c0.006-0.758-0.021-1.519-0.087-2.274c-0.39-4.476,0.508-8.685,2.626-12.634
		c0.582-1.085,1.232-2.137,1.898-3.174c0.278-0.432,0.632-0.845,1.033-1.162c1.136-0.9,2.408-0.378,2.607,1.055
		c0.065,0.466,0.072,0.951,0.022,1.418c-0.145,1.367-0.306,2.734-0.507,4.094c-0.646,4.374-0.193,8.609,1.56,12.685
		c0.238,0.554,0.42,1.148,0.915,1.578c0.508-0.231,0.713-0.674,1.001-1.033c0.979-1.221,1.944-2.455,2.934-3.667
		c0.268-0.327,0.575-0.644,0.923-0.879c0.848-0.572,1.818-0.286,2.257,0.64c0.119,0.252,0.185,0.536,0.236,0.813
		c0.043,0.231,0.033,0.473,0.04,0.71c0.104,3.272,0.189,6.544,0.315,9.815c0.111,2.858,0.57,5.669,1.467,8.384
		c0.429,1.299,1.005,2.56,1.613,3.789c1.093,2.21,2.245,4.392,3.405,6.569c0.535,1.003,1.137,1.97,1.727,2.942
		c0.453,0.747,1.116,0.935,1.962,0.753c1.044-0.225,1.991-0.653,2.809-1.313c0.736-0.593,1.465-1.223,2.068-1.946
		c1.336-1.602,2.623-3.247,3.869-4.921c1.307-1.755,2.671-3.454,4.275-4.947c0.486-0.452,0.989-0.889,1.52-1.285
		c0.338-0.252,0.722-0.468,1.118-0.609c1.096-0.392,2.059,0.232,2.094,1.387c0.017,0.558-0.113,1.127-0.23,1.68
		c-0.255,1.205-0.573,2.398-0.808,3.606c-0.107,0.553-0.136,1.135-0.102,1.698c0.092,1.508,0.809,2.642,2.259,3.149
		c1.068,0.374,2.188,0.602,3.289,0.88c0.459,0.116,0.937,0.161,1.391,0.292c0.982,0.284,1.512,0.934,1.547,1.965
		c0.019,0.563-0.017,1.148-0.155,1.691c-0.255,1.009-0.592,1.999-0.915,2.99c-0.352,1.082-0.742,2.152-1.085,3.236
		c-0.154,0.486-0.233,0.996-0.361,1.559c0.299,0.101,0.506,0.212,0.723,0.237c1.34,0.154,2.647,0.029,3.912-0.478
		c4.533-1.816,8.446-4.485,11.51-8.329c2.119-2.659,3.764-5.589,4.869-8.8c1.173-3.407,2.261-6.843,3.393-10.265
		c0.283-0.855,0.558-1.715,0.893-2.55c0.264-0.657,0.579-1.301,0.941-1.91c0.238-0.401,0.558-0.776,0.911-1.082
		c1.087-0.943,2.416-0.689,3.093,0.591c0.218,0.413,0.358,0.879,0.462,1.337c0.413,1.829,0.416,3.682,0.117,5.518
		c-0.374,2.293-0.798,4.579-1.273,6.852c-1.192,5.709-2.425,11.41-3.64,17.115c-0.703,3.303-1.754,6.498-3.01,9.628
		c-0.194,0.484-0.376,0.973-0.559,1.461c-0.167,0.446-0.276,0.899-0.131,1.431c0.606,0.228,1.119-0.034,1.603-0.298
		c1.224-0.668,2.232-1.602,3.107-2.678c1.143-1.405,2.088-2.942,2.854-4.58c0.723-1.546,1.39-3.119,2.068-4.685
		c0.584-1.349,1.122-2.719,1.737-4.054c0.274-0.595,0.615-1.192,1.052-1.671c0.877-0.961,2.111-0.911,3.001,0.035
		c0.465,0.495,0.756,1.093,0.943,1.736c0.322,1.105,0.489,2.237,0.235,3.375c-0.351,1.572-0.752,3.133-1.141,4.696
		c-0.218,0.874-0.498,1.734-0.674,2.616c-0.162,0.813,0.122,1.12,0.973,1.198c0.973,0.089,1.897-0.123,2.75-0.571
		c0.585-0.308,1.149-0.672,1.674-1.073c1.927-1.472,3.739-3.073,5.347-4.895c1.673-1.896,3.088-3.957,4.156-6.262
		c1.439-3.108,2.664-6.286,3.41-9.636c0.414-1.857,0.583-3.747,0.739-5.639c0.172-2.08,0.34-4.161,0.545-6.238
		c0.055-0.56,0.171-1.136,0.384-1.653c0.533-1.292,1.765-1.622,2.903-0.79c0.375,0.274,0.713,0.635,0.974,1.021
		c0.316,0.467,0.592,0.98,0.782,1.51c1.291,3.605,2.135,7.3,1.774,11.153c-0.185,1.978-0.58,3.938-0.92,5.9
		c-0.162,0.933-0.423,1.848-0.633,2.773c-0.657,2.89-1.768,5.601-3.215,8.182c-0.835,1.49-1.68,2.974-2.483,4.481
		c-0.4,0.751-0.728,1.542-1.065,2.326c-0.208,0.483-0.327,0.991-0.161,1.642c0.279,0.107,0.609,0.297,0.962,0.358
		c0.747,0.129,1.505,0.192,2.259,0.277c0.283,0.032,0.573,0.023,0.849,0.081c0.977,0.205,1.569,0.901,1.584,1.908
		c0.006,0.421-0.081,0.846-0.149,1.266c-0.09,0.554-0.204,1.105-0.286,1.54c0.298,0.508,0.666,0.59,1.05,0.629
		c1.06,0.108,2.076-0.072,3.063-0.467c1.913-0.767,3.677-1.787,5.145-3.239c1.111-1.099,2.211-2.228,3.171-3.457
		c1.606-2.055,3.09-4.205,4.638-6.306c0.478-0.648,0.969-1.292,1.511-1.886c0.312-0.342,0.704-0.653,1.12-0.852
		c0.926-0.442,1.858,0.068,2.025,1.087c0.06,0.365,0.041,0.766-0.043,1.126c-0.268,1.154-0.502,2.325-0.896,3.438
		c-1.061,2.994-2.125,5.99-3.323,8.931c-1.642,4.031-4.32,7.231-8.121,9.42c-1.931,1.112-3.88,2.195-5.853,3.23
		c-3.232,1.697-6.488,3.351-9.739,5.013c-2.635,1.347-5.424,2.234-8.318,2.837c-2.864,0.597-5.743,0.68-8.637,0.378
		c-1.933-0.201-3.86-0.47-5.791-0.692c-0.443-0.051-0.901-0.16-1.351-0.035c0.046,0.426,0.338,0.53,0.56,0.676
		c0.833,0.546,1.678,1.073,2.519,1.607c1.482,0.94,2.969,1.872,4.446,2.82c1.167,0.749,2.179,1.674,3.071,2.736
		c0.895,1.066,1.618,2.227,2.004,3.573c0.996,3.472,2.934,6.349,5.532,8.812c0.792,0.751,1.585,1.501,2.401,2.226
		c1.811,1.611,3.512,3.328,5.112,5.15c3.477,3.958,6.979,7.895,10.719,11.608c4.018,3.989,5.372,8.931,5.212,14.408
		c-0.051,1.742-0.67,3.355-1.67,4.777c-0.956,1.359-1.993,2.662-3.023,3.967c-0.621,0.787-1.392,1.422-2.227,1.979
		c-1.864,1.244-3.859,2.213-5.977,2.951c-2.173,0.757-4.382,0.864-6.588,0.325c-2.3-0.562-4.581-1.217-6.838-1.935
		c-2.183-0.695-4.404-1.109-6.676-1.35c-1.412-0.15-2.808-0.443-4.212-0.671C393.904,253.223,393.672,253.191,393.364,253.144z
		 M198.557,249.857c0.839,0.074,1.679,0.141,2.517,0.224c4.151,0.412,8.243,0.074,12.266-1.008c3.527-0.948,6.534-2.776,8.924-5.554
		c1.924-2.236,3.244-4.779,3.698-7.725c0.153-0.994,0.15-1.984-0.145-2.96c-0.582-1.92-1.919-2.54-3.73-1.714
		c-0.301,0.137-0.591,0.302-0.878,0.467c-0.411,0.236-0.816,0.483-1.222,0.728c-3.665,2.21-7.502,4.048-11.552,5.451
		c-2.461,0.853-4.899,1.78-7.32,2.744c-3.161,1.258-5.996,3.045-8.446,5.423c-0.096,0.093-0.238,0.138-0.349,0.199
		c-0.103-0.048-0.198-0.075-0.274-0.129c-2.751-1.954-5.303-4.15-7.781-6.435c-0.079-0.073-0.077-0.235-0.134-0.431
		c0.534,0,1.002-0.01,1.47,0.002c1.762,0.044,3.503-0.152,5.237-0.443c3.763-0.632,7.36-1.803,10.839-3.345
		c1.299-0.576,2.583-1.191,3.851-1.833c2.284-1.155,4.554-2.341,6.825-3.521c0.804-0.418,1.566-0.896,2.123-1.637
		c0.898-1.194,0.849-2.373-0.149-3.48c-0.719-0.798-1.629-1.289-2.631-1.629c-2.461-0.835-4.943-0.774-7.433-0.161
		c-2.527,0.622-4.761,1.855-6.848,3.37c-0.998,0.724-1.936,1.529-2.926,2.264c-1.865,1.386-3.71,2.803-5.631,4.107
		c-2.463,1.673-5.227,2.624-8.301,3.152c-0.201-0.243-0.443-0.532-0.682-0.823c-1.294-1.576-2.587-3.153-3.882-4.728
		c-0.391-0.476-0.759-0.977-1.19-1.414c-0.529-0.537-1.181-0.555-1.81-0.148c-0.909,0.588-1.608,2.123-0.796,3.387
		c0.154,0.239,0.304,0.483,0.48,0.706c1.236,1.561,2.447,3.145,3.736,4.662c0.501,0.59,0.712,1.183,0.685,1.932
		c-0.065,1.761-0.341,3.491-0.697,5.211c-0.653,3.157-1.351,6.302-1.672,9.521c-0.427,4.283,0.104,8.43,1.606,12.445
		c0.83,2.219,1.786,4.391,2.7,6.579c0.145,0.347,0.326,0.691,0.556,0.986c0.55,0.707,1.218,0.834,2.018,0.435
		c0.569-0.284,1.028-0.712,1.332-1.25c0.558-0.988,1.138-1.978,1.554-3.028c1.671-4.224,1.88-8.576,1.002-13.007
		c-0.639-3.227-1.755-6.297-3.031-9.316c-0.776-1.834-1.573-3.66-2.091-5.59c-0.055-0.204-0.048-0.425-0.091-0.844
		c1.151,1.006,2.133,1.891,3.145,2.741c0.98,0.824,1.978,1.629,2.993,2.41c1.044,0.804,2.118,1.569,3.117,2.305
		c0,0.267,0.022,0.412-0.003,0.548c-0.376,1.984-0.331,3.959,0.059,5.938c0.395,2.005,0.979,3.956,1.624,5.891
		c1.217,3.652,2.127,7.377,2.734,11.178c0.232,1.451,0.482,2.9,0.741,4.346c0.066,0.37,0.159,0.747,0.311,1.088
		c0.429,0.962,1.252,1.335,2.207,0.928c0.554-0.236,1.093-0.583,1.536-0.991c1.352-1.242,2.296-2.766,2.871-4.513
		c0.821-2.494,0.862-5.03,0.404-7.591c-0.483-2.696-1.516-5.182-2.913-7.52c-0.9-1.506-1.862-2.975-2.792-4.463
		c-0.138-0.22-0.251-0.456-0.444-0.81c0.289,0.056,0.427,0.055,0.537,0.109c2.72,1.348,5.472,2.621,8.373,3.539
		c0.446,0.141,0.688,0.434,0.869,0.858c0.694,1.625,1.679,3.071,2.743,4.476c1.435,1.896,3.237,3.316,5.368,4.339
		c1.855,0.891,3.829,1.376,5.851,1.693c2.638,0.413,5.298,0.478,7.95,0.319c4.639-0.278,9.272-0.668,13.907-1.012
		c0.615-0.046,1.23-0.092,1.843-0.156c2.213-0.232,3.346-1.857,2.744-4.021c-0.201-0.722-0.518-1.428-0.883-2.085
		c-1.718-3.095-4.198-5.493-7.088-7.47c-3.09-2.114-6.513-3.223-10.285-3.257c-2.575-0.023-5.128,0.194-7.637,0.709
		c-4.177,0.858-8.332,1.826-12.489,2.776c-0.435,0.099-0.81,0.141-1.228-0.036C203.738,252.822,201.08,251.581,198.557,249.857z
		 M251.997,234.132c-1.01-0.319-2.005-0.617-2.989-0.947c-1.223-0.41-2.347-1.017-3.378-1.792c-2.019-1.519-3.274-3.53-3.805-5.99
		c-0.086-0.398-0.258-0.837,0.142-1.248c5.211-1.214,10.091-3.396,14.797-5.787c0.652,0.169,1.193,0.352,1.75,0.447
		c3.203,0.548,6.36-2.213,6.198-5.455c-0.167-3.343-2.884-5.249-5.51-5.207c-2.872,0.046-5.186,2.417-5.233,5.324
		c-0.008,0.47-0.001,0.94-0.001,1.437c-0.151,0.106-0.294,0.232-0.458,0.32c-2.849,1.519-5.798,2.815-8.836,3.906
		c-0.21,0.075-0.448,0.183-0.68-0.117c0.036-0.231,0.051-0.513,0.124-0.779c0.615-2.216,1.909-4.003,3.535-5.582
		c0.261-0.253,0.553-0.314,0.897-0.342c0.469-0.039,0.95-0.089,1.395-0.231c1.869-0.596,2.955-2.502,2.607-4.51
		c-0.316-1.819-1.95-3.181-3.828-3.19c-2.39-0.012-4.158,1.974-3.903,4.414c0.053,0.51,0.202,1.009,0.326,1.604
		c-0.171,0.138-0.367,0.274-0.539,0.436c-2.415,2.277-3.786,5.06-4.067,8.375c-0.023,0.267,0.029,0.578-0.26,0.759
		c-4.347-0.933-7.181-5.607-6.361-9.849c0.358-0.191,0.751-0.363,1.105-0.595c1.813-1.188,2.315-3.585,1.141-5.386
		c-1.201-1.844-3.717-2.337-5.509-1.081c-1.765,1.238-2.202,3.638-0.98,5.42c0.133,0.195,0.282,0.385,0.452,0.547
		c0.294,0.281,0.439,0.606,0.419,1.013c-0.009,0.189,0.005,0.38,0.017,0.569c0.252,3.948,1.6,7.389,4.647,10.045
		c0.125,0.109,0.204,0.27,0.369,0.494c-1.496,0.205-2.862,0.251-4.23,0.16c-3.897-0.26-7.713-0.926-11.383-2.313
		c-0.975-0.369-1.954-0.728-2.943-1.058c-0.351-0.117-0.735-0.186-1.104-0.187c-0.469-0.002-0.789,0.476-0.602,0.906
		c0.147,0.338,0.349,0.693,0.624,0.926c0.503,0.426,1.048,0.821,1.626,1.136c6.393,3.486,13.218,4.828,20.458,4.081
		c0.273-0.028,0.549-0.028,0.863-0.043c0.096,0.375,0.195,0.688,0.254,1.008c0.439,2.386,1.443,4.499,3.011,6.352
		c2.18,2.577,4.954,4.231,8.124,5.28c0.442,0.146,0.882,0.301,1.257,0.43c1.031,3.364,3.671,4.384,5.799,4.172
		c2.238-0.223,4.209-2.008,4.611-4.219c0.429-2.367-0.677-4.657-2.772-5.735C256.757,230.808,254.503,231.425,251.997,234.132z
		 M138.876,280.023c-0.384,0.407-0.71,0.751-1.034,1.096c-1.208,1.29-2.194,2.736-3.02,4.295c-0.763,1.441-1.254,2.971-1.464,4.584
		c-0.241,1.847,0.015,3.603,1.122,5.157c1.011,1.42,2.395,1.939,4.103,1.63c0.807-0.146,1.538-0.462,2.214-0.922
		c1.209-0.824,2.088-1.926,2.708-3.235c0.981-2.072,1.268-4.259,1.003-6.523c-0.239-2.037-0.735-4.007-1.562-5.891
		c-0.379-0.862-0.397-1.619-0.108-2.777c0.336,0.306,0.644,0.583,0.948,0.865c0.873,0.811,1.826,1.513,2.874,2.081
		c0.758,0.411,1.563,0.691,2.418,0.8c1.075,0.137,2.08-0.098,2.988-0.686c1.268-0.821,1.811-2.228,1.485-3.708
		c-0.18-0.815-0.587-1.495-1.149-2.093c-0.922-0.982-2.011-1.726-3.248-2.257c-1.801-0.773-3.675-1.249-5.628-1.426
		c-0.796-0.072-1.605-0.065-2.356-0.278c-1.17-2.754-2.318-5.454-3.462-8.157c-0.054-0.128-0.077-0.271-0.1-0.41
		c-0.006-0.036,0.044-0.081,0.111-0.19c0.228,0.13,0.479,0.236,0.686,0.397c0.999,0.776,2.155,1.184,3.37,1.444
		c1.371,0.294,2.647,0.039,3.784-0.785c1.944-1.408,2.045-3.788,0.231-5.352c-0.321-0.277-0.669-0.555-1.053-0.719
		c-0.868-0.371-1.747-0.749-2.658-0.982c-1.563-0.401-3.162-0.616-4.783-0.659c-0.557-0.015-1.145,0.084-1.686-0.283
		c-0.033-0.264-0.086-0.543-0.101-0.824c-0.115-2.149,0.118-4.263,0.665-6.344c0.145-0.55,0.294-1.1,0.427-1.653
		c0.083-0.346,0.028-0.665-0.289-0.883c-0.349-0.24-0.732-0.255-1.066-0.018c-0.263,0.186-0.511,0.432-0.677,0.705
		c-0.27,0.443-0.501,0.917-0.692,1.4c-1.312,3.306-1.486,6.743-1.057,10.223c0.28,2.267,0.951,4.447,1.68,6.607
		c0.132,0.391,0.232,0.793,0.352,1.209c-0.404,0.221-0.736,0.397-1.062,0.581c-2.005,1.133-3.742,2.586-5.205,4.366
		c-0.696,0.847-1.328,1.746-1.718,2.772c-0.284,0.747-0.579,1.535-0.625,2.32c-0.134,2.266,1.226,3.583,3.482,3.459
		c0.188-0.01,0.374-0.06,0.56-0.095c1.256-0.233,2.296-0.867,3.203-1.741c1.426-1.374,2.431-3.022,3.15-4.857
		c0.096-0.245,0.255-0.466,0.459-0.83C138.096,274.297,138.658,277.068,138.876,280.023z M138.859,218.267
		c-0.585-0.304-1-0.54-1.578-0.269c-2.801,1.314-5.779,2.117-8.746,2.946c-3.742,1.045-7.539,1.917-11.189,3.253
		c-3.87,1.416-7.703,2.938-11.517,4.5c-2.944,1.206-5.921,2.287-9.005,3.072c-0.184,0.047-0.338,0.211-0.597,0.38
		c0.407,0.141,0.671,0.246,0.942,0.325c3.774,1.104,7.549,2.207,11.325,3.304c4.507,1.309,9.017,2.604,13.684,3.233
		c1.929,0.26,3.862,0.428,5.816,0.302c3.008-0.194,5.891-0.935,8.717-1.935c0.348-0.123,0.674-0.305,1.1-0.501
		C135.766,230.543,136.609,224.393,138.859,218.267z M158.447,201.654c0.232,1.721-0.477,3.216-0.826,4.824
		c1.492,0.436,2.956,0.622,4.275,1.293c1.337,0.68,2.456,1.598,3.26,2.767c1.942,0.414,3.793,0.816,5.648,1.204
		c3.355,0.701,6.743,1.018,10.173,0.965c3.657-0.056,7.287-0.457,10.93-0.707c2.412-0.166,4.828-0.349,7.244-0.375
		c1.459-0.016,2.921,0.255,4.381,0.396c0.272,0.026,0.544,0.048,1.019,0.089c-0.314-0.385-0.487-0.649-0.71-0.862
		c-6.284-6.009-13.599-10.249-21.927-12.731c-4.237-1.263-8.544-1.725-12.931-0.936C165.257,198.25,161.802,199.636,158.447,201.654
		z M151.307,198.685c-0.337-1.089-0.646-2.132-0.982-3.166c-0.838-2.572-1.832-5.08-3.057-7.497
		c-2.454-4.839-6.025-8.587-10.811-11.164c-1.756-0.946-3.573-1.753-5.467-2.381c-5.485-1.821-10.97-3.639-16.456-5.456
		c-0.207-0.069-0.418-0.259-0.641-0.044c0,0.102-0.028,0.205,0.005,0.281c0.152,0.347,0.311,0.691,0.485,1.027
		c1.861,3.571,4.305,6.701,7.273,9.407c1.927,1.757,3.913,3.451,5.926,5.109c5.527,4.554,10.323,9.776,14.441,15.629
		c0.133,0.19,0.295,0.359,0.412,0.499c2.246,0.289,2.507,0.361,6.234,1.711c0.352-0.648,0.664-1.335,1.078-1.955
		C150.191,200.019,150.73,199.416,151.307,198.685z M143.632,178.377c0.175,0.21,0.252,0.333,0.357,0.423
		c3.307,2.849,5.574,6.429,7.308,10.384c0.953,2.174,1.755,4.403,2.409,6.685c0.075,0.261,0.167,0.516,0.245,0.755
		c0.673,0.018,1.051-0.299,1.341-0.762c0.629-1.005,1.292-1.99,1.879-3.019c2.084-3.65,3.528-7.56,4.53-11.627
		c1.009-4.096,1.898-8.221,2.871-12.326c1.216-5.133,2.689-10.178,5.269-14.828c0.081-0.147,0.103-0.326,0.229-0.742
		c-0.465,0.324-0.733,0.48-0.964,0.677c-2.385,2.035-4.921,3.869-7.469,5.689c-1.775,1.268-3.523,2.575-5.257,3.899
		c-2.416,1.845-4.708,3.832-6.739,6.107C147.292,172.323,145.265,175.173,143.632,178.377z M172.472,194.627
		c0.685-1.048,1.112-2.102,1.51-3.166c1.543-4.124,2.319-8.402,2.526-12.788c0.191-4.044-0.191-8.058-0.693-12.063
		c-0.543-4.334-0.924-8.678-0.965-13.049c-0.006-0.664-0.012-1.329-0.036-1.992c-0.006-0.168,0.051-0.395-0.293-0.494
		c-0.143,0.185-0.337,0.379-0.464,0.609c-0.798,1.455-1.625,2.896-2.362,4.382c-2.037,4.107-3.247,8.492-4.267,12.937
		c-0.955,4.158-1.839,8.334-2.866,12.474c-1.401,5.647-3.347,11.076-6.842,15.829c-0.471,0.641-0.431,0.753,0.221,1.598
		C162.433,196.397,167.266,194.993,172.472,194.627z M154.212,259.28c0.411-0.426,0.314-0.775,0.328-1.09
		c0.064-1.469,0.069-2.941,0.167-4.407c0.426-6.423-0.05-12.791-1.126-19.125c-0.532-3.13-1.071-6.258-1.585-9.391
		c-0.08-0.49-0.241-0.907-0.587-1.259c-0.166-0.169-0.309-0.36-0.472-0.532c-1.585-1.684-2.758-3.61-3.453-5.822
		c-0.067-0.215-0.189-0.412-0.317-0.683c-0.995,0.326-1.919,0.675-2.87,0.926c-0.995,0.263-2.015,0.431-3.051,0.646
		c-0.606,1.601-1.013,3.258-1.332,4.933c-0.959,5.036-0.527,9.917,1.754,14.56c0.689,1.403,1.418,2.791,2.219,4.132
		c1.312,2.197,2.724,4.335,4.048,6.525c1.888,3.124,3.734,6.273,5.597,9.412C153.746,258.464,153.952,258.829,154.212,259.28z
		 M113.268,174.385c0.125,0.57,0.165,0.845,0.246,1.107c1.563,5.117,3.091,10.245,4.714,15.343c0.891,2.799,2.025,5.512,3.391,8.121
		c1.082,2.066,2.366,3.99,3.92,5.735c3.704,4.159,8.406,6.156,13.856,6.495c0.916-0.821,1.792-1.607,2.723-2.441
		c-0.297-0.356-0.604-0.709-0.894-1.074c-1.056-1.332-1.795-2.798-1.731-4.547c0.021-0.573-0.211-0.99-0.525-1.418
		c-1.765-2.409-3.604-4.757-5.593-6.989c-3.035-3.406-6.37-6.492-9.828-9.455c-1.259-1.079-2.504-2.176-3.738-3.285
		c-2.232-2.004-4.213-4.227-5.838-6.758C113.83,175.001,113.636,174.818,113.268,174.385z M93.569,229.505
		c0.037,0.076,0.074,0.151,0.111,0.227c1.207-0.227,2.421-0.42,3.619-0.687c2.924-0.653,5.729-1.682,8.486-2.833
		c7.359-3.072,14.863-5.698,22.599-7.666c2.383-0.606,4.696-1.488,7.042-2.239c0.659-0.211,1.158-0.565,1.476-1.222
		c0.267-0.549,0.678-1.027,1.01-1.547c0.117-0.183,0.187-0.396,0.294-0.628c-1.672-0.297-3.258-0.512-4.809-0.873
		c-1.619-0.377-3.189-0.959-4.612-1.828c-1.37-0.836-2.671-1.785-4.101-2.752c-0.109,0.018-0.349,0.026-0.569,0.098
		c-0.539,0.179-1.083,0.355-1.6,0.588c-3.689,1.659-7.219,3.601-10.378,6.146c-1.921,1.547-3.817,3.131-5.637,4.794
		c-3.543,3.238-7.245,6.271-11.172,9.031c-0.466,0.327-0.924,0.665-1.378,1.009C93.81,229.232,93.696,229.377,93.569,229.505z
		 M193.082,186.351c0.213,0.105,0.365,0.216,0.536,0.26c3.135,0.803,6.339,1.179,9.551,1.455c3.013,0.259,6.034,0.44,9.143,0.563
		c0.039-1.244,0.62-2.226,1.118-3.24c0.126-0.255,0.255-0.509,0.389-0.76c2.226-4.134,3.457-8.61,4.522-13.142
		c0.046-0.197-0.038-0.425-0.063-0.646c-0.233,0.019-0.379,0.011-0.514,0.045c-4.191,1.033-8.431,1.823-12.682,2.563
		c-1.121,0.195-2.244,0.377-3.368,0.555c-0.596,0.094-1.07,0.336-1.336,0.918c-0.117,0.257-0.295,0.486-0.449,0.726
		c-2.153,3.353-4.307,6.705-6.459,10.059C193.344,185.901,193.23,186.104,193.082,186.351z M203.288,206.422
		c1.195-1.251,2.322-2.395,3.41-3.576c2.974-3.23,5.281-6.921,7.355-10.767c0.092-0.171,0.059-0.411,0.095-0.702
		c-1.053,0-2.002,0.05-2.943-0.009c-3.12-0.197-6.243-0.372-9.353-0.673c-3.207-0.311-6.385-0.832-9.442-1.917
		c-0.3-0.106-0.614-0.171-0.965-0.266c-1.96,2.761-4.04,5.337-6.29,7.773c-0.028,0.03-0.033,0.086-0.038,0.13
		c-0.005,0.046,0.004,0.094,0.011,0.213c3.196,1.097,6.314,2.448,9.327,4.042C197.521,202.291,200.377,204.23,203.288,206.422z
		 M157.379,264.21c0.534-0.359,0.624-0.839,0.813-1.245c0.638-1.375,1.201-2.786,1.89-4.134c1.843-3.609,3.134-7.406,4.047-11.344
		c1.091-4.706,1.507-9.445,0.725-14.242c-0.648-3.971-1.956-7.702-4.132-11.109c-0.819-1.282-1.721-2.497-2.837-3.54
		c-0.156-0.145-0.367-0.231-0.605-0.377c-0.457,2.628-0.776,5.188-2.593,7.194c0.11,0.736,0.186,1.443,0.323,2.137
		c0.852,4.324,1.609,8.66,1.978,13.058c0.282,3.356,0.439,6.713,0.353,10.081c-0.079,3.079-0.179,6.158-0.237,9.238
		c-0.021,1.136,0.043,2.274,0.089,3.41C157.204,263.597,157.301,263.854,157.379,264.21z M183.958,162.53
		c-0.139,4.873,3.934,18.221,6.545,21.383c0.104-0.076,0.244-0.132,0.312-0.235c2.471-3.703,4.936-7.41,7.371-11.07
		c-0.244-0.875-0.462-1.648-0.674-2.421c-0.226-0.822-0.471-1.64-0.661-2.471c-0.18-0.784-0.318-1.579-0.439-2.375
		c-0.129-0.842-0.234-1.689-0.317-2.538c-0.078-0.801-0.144-1.606-0.159-2.41c-0.016-0.852,0.024-1.706,0.059-2.559
		c0.032-0.78,0.266-1.556,0.104-2.488c-0.528,0.239-0.957,0.412-1.366,0.623c-2.785,1.432-5.452,3.061-8.036,4.831
		C185.842,161.386,184.944,161.909,183.958,162.53z M202.841,214.55c-0.22-0.142-0.328-0.253-0.455-0.284
		c-0.32-0.077-0.649-0.123-0.976-0.173c-2.225-0.341-4.449-0.098-6.666,0.063c-3.685,0.267-7.361,0.65-11.045,0.918
		c-3.986,0.29-7.958,0.076-11.891-0.634c-2.095-0.378-4.175-0.847-6.249-1.327c-0.734-0.17-1.37-0.132-2.044,0.228
		c-1.422,0.76-2.906,1.381-4.486,1.748c-0.12,0.028-0.217,0.152-0.338,0.241c0.094,0.137,0.155,0.271,0.255,0.365
		c1.38,1.309,2.646,2.711,3.691,4.309c0.167,0.256,0.475,0.465,0.763,0.589c0.563,0.242,1.145,0.472,1.743,0.594
		c1.297,0.264,2.604,0.498,3.916,0.672c3.747,0.495,7.47,0.287,11.157-0.523c2.688-0.591,5.269-1.539,7.84-2.501
		c3.729-1.395,7.526-2.562,11.396-3.492C200.548,215.078,201.647,214.829,202.841,214.55z M188.547,186.771
		c-4.233-7.827-7.048-16.1-7.497-25.133c-1.005,0.055-1.842,0.447-2.738,0.748c0.211,2.072,0.395,4.05,0.616,6.024
		c0.572,5.119,0.573,10.221-0.403,15.297c-0.682,3.55-1.633,7.014-3.343,10.23c-0.101,0.19-0.12,0.423-0.181,0.652
		c1.121,0.133,2.156,0.233,3.185,0.383c1.026,0.149,2.044,0.347,3.027,0.517C182.958,194.154,187.504,188.745,188.547,186.771z
		 M99.35,196.264c-0.599,0.043-1.002-0.212-1.428-0.373c-6.928-2.61-13.629-5.713-20.12-9.271c-0.331-0.182-0.669-0.359-1.02-0.498
		c-0.374-0.147-0.773,0.031-0.96,0.382c-0.313,0.585-0.17,1.26,0.375,1.631c0.273,0.186,0.578,0.326,0.869,0.484
		c3.706,2.016,7.488,3.88,11.33,5.622c0.377,0.171,0.738,0.377,1.258,0.644c-0.425,0.146-0.675,0.274-0.938,0.315
		c-1.544,0.242-3.087,0.492-4.637,0.684c-1.033,0.128-2.079,0.154-3.116,0.258c-0.145,0.014-0.339,0.182-0.394,0.324
		c-0.093,0.24,0.02,0.495,0.281,0.557c0.503,0.118,1.015,0.234,1.529,0.262c3.01,0.167,5.963-0.233,8.861-1.015
		c0.824-0.222,1.533-0.161,2.328,0.146c4.021,1.55,8.065,3.04,12.1,4.554c0.258,0.097,0.506,0.221,0.825,0.363
		c-0.445,0.507-0.997,0.656-1.497,0.88c-1.733,0.779-3.549,1.319-5.377,1.82c-0.273,0.075-0.557,0.122-0.82,0.223
		c-0.338,0.13-0.541,0.512-0.436,0.796c0.107,0.292,0.328,0.467,0.648,0.449c0.377-0.022,0.757-0.045,1.126-0.118
		c2.241-0.443,4.398-1.141,6.451-2.154c0.763-0.376,1.534-0.735,2.302-1.101c0.864,0.234,1.727,0.476,2.593,0.701
		c1.787,0.464,3.575,0.923,5.365,1.371c0.271,0.068,0.564,0.105,0.84,0.078c0.156-0.015,0.377-0.163,0.421-0.298
		c0.042-0.129-0.063-0.401-0.183-0.47c-0.366-0.209-0.765-0.367-1.162-0.515c-4.659-1.737-9.316-3.483-13.987-5.187
		c-0.731-0.267-1.159-0.694-1.476-1.39c-1.423-3.12-3.316-5.96-5.306-8.738c-0.275-0.384-0.579-0.752-0.91-1.088
		c-0.101-0.102-0.369-0.139-0.505-0.079c-0.142,0.062-0.292,0.271-0.304,0.426c-0.018,0.222,0.043,0.475,0.145,0.676
		c0.258,0.506,0.555,0.992,0.844,1.482c1.23,2.08,2.467,4.156,3.691,6.241C99.109,195.605,99.2,195.91,99.35,196.264z
		 M203.003,171.024c0.186,0.045,0.278,0.09,0.366,0.084c0.235-0.016,0.474-0.035,0.703-0.085c4.292-0.951,8.583-1.908,12.874-2.865
		c0.044-0.01,0.095-0.036,0.12-0.071c0.024-0.034,0.017-0.089,0.03-0.174c-0.052-0.091-0.099-0.228-0.19-0.325
		c-0.625-0.667-0.633-1.445-0.412-2.26c0.136-0.502,0.295-0.998,0.451-1.494c0.978-3.099,1.351-6.283,1.312-9.521
		c-0.005-0.412-0.065-0.824-0.103-1.276C214.71,154.797,205.198,166.104,203.003,171.024z M200.364,169.234
		c0.444-0.638,0.711-1.022,0.979-1.407c1.462-2.099,2.891-4.222,4.394-6.29c2.687-3.697,5.746-7.048,9.406-9.819
		c0.153-0.116,0.425-0.194,0.319-0.546c-0.19,0.035-0.373,0.054-0.549,0.103c-3.337,0.916-6.587,2.076-9.767,3.442
		c-1.174,0.504-2.372,0.949-3.563,1.413c-0.597,0.232-1.196,0.25-1.794-0.021c-0.209-0.095-0.433-0.158-0.745-0.27
		C198.746,160.332,199.207,164.661,200.364,169.234z M99.88,159.642c-0.836,0.15-1.39,0.263-1.949,0.347
		c-0.609,0.091-1.224,0.144-1.834,0.234c-0.576,0.085-0.893,0.343-0.93,0.711c-0.031,0.308,0.31,0.622,0.956,0.661
		c0.845,0.051,1.705,0.046,2.544-0.056c0.929-0.113,1.842-0.363,2.758-0.552c2.361,2.042,4.617,4.138,7.342,5.495
		c0.463-0.228,0.606-0.503,0.392-0.857c-0.145-0.238-0.355-0.44-0.553-0.641c-0.527-0.537-1.063-1.065-1.575-1.577
		c0.026-0.402,0.045-0.732,0.07-1.061c0.054-0.707,0.173-1.417,0.151-2.121c-0.022-0.705-0.166-1.408-0.293-2.105
		c-0.043-0.234-0.242-0.465-0.507-0.368c-0.185,0.068-0.385,0.272-0.445,0.459c-0.084,0.261-0.049,0.561-0.057,0.845
		c-0.02,0.711-0.018,1.422-0.061,2.132c-0.016,0.262-0.134,0.518-0.232,0.875c-0.281-0.189-0.489-0.293-0.654-0.445
		c-2.752-2.54-5.507-5.078-8.052-7.831c-0.257-0.278-0.505-0.568-0.781-0.827c-0.461-0.433-0.969-0.353-1.293,0.183
		c-0.342,0.566-0.301,1.074,0.261,1.671c1.138,1.207,2.312,2.379,3.473,3.563C98.97,158.738,99.335,159.097,99.88,159.642z
		 M148.955,210.085c1.013,0.014,1.909-0.866,1.908-1.875c-0.001-0.972-0.796-1.796-1.775-1.841
		c-1.079-0.049-1.918,0.719-1.948,1.781C147.109,209.217,147.911,210.07,148.955,210.085z M153.549,209.731
		c-1.065-0.03-1.905,0.773-1.917,1.829c-0.011,1.03,0.859,1.911,1.874,1.897c0.962-0.013,1.8-0.817,1.861-1.786
		C155.431,210.657,154.591,209.76,153.549,209.731z M148.879,213.294c0.039-1.014-0.821-1.926-1.838-1.949
		c-0.969-0.022-1.815,0.762-1.879,1.742c-0.069,1.066,0.693,1.942,1.742,2.002C147.931,215.148,148.84,214.321,148.879,213.294z
		 M151.583,214.123c-1.004-0.065-1.928,0.777-1.979,1.803c-0.048,0.973,0.715,1.834,1.694,1.911c1.072,0.084,1.955-0.65,2.043-1.697
		C153.426,215.132,152.605,214.19,151.583,214.123z"/>
        </g>
</svg>
