<?xml version="1.0" encoding="utf-8"?>
<svg version="1.1" id="Layer_1" xmlns="http://www.w3.org/2000/svg"
     xmlns:xlink="http://www.w3.org/1999/xlink"
     x="0px" y="0px" viewBox="0 0 504 504"

     xml:space="preserve">
    <style type="text/css">.st0{fill-rule:evenodd;clip-rule:evenodd;}</style>
    <g>
            <g>
                <g>
                    <path fill="#CF1D2A" d="M316.802,151.932c-0.021-4.763,0.559-9.045,1.933-13.203c0.937-2.835,2.241-5.476,4.169-7.789
				c2.012-2.411,4.51-4.146,7.383-5.349c2.369-0.992,4.824-1.112,7.316-0.527c2.162,0.507,4.319,1.034,6.481,1.538
				c3.684,0.857,7.414,1.235,11.186,0.856c1.892-0.19,3.769-0.53,5.653-0.8c1.675-0.24,3.344-0.567,5.027-0.698
				c5.68-0.445,10.354,1.591,14.065,5.888c2.066,2.392,3.542,5.138,4.703,8.051c2.713,6.804,3.653,13.865,3.085,21.165
				c-0.483,6.205-2.12,12.065-4.89,17.621c-1.352,2.711-3.003,5.223-4.991,7.517c-2.158,2.49-4.807,4.287-7.806,5.589
				c-2.302,0.999-4.682,1.258-7.133,0.599c-1.072-0.288-2.14-0.598-3.222-0.841c-1.288-0.289-2.581-0.582-3.887-0.756
				c-1.975-0.262-3.901,0.112-5.792,0.671c-0.963,0.284-1.913,0.613-2.873,0.908c-5.453,1.674-10.341,0.573-14.696-3.036
				c-1.884-1.561-3.502-3.386-4.944-5.355c-4.724-6.451-7.92-13.598-9.606-21.411C317.18,158.937,316.769,155.26,316.802,151.932z"
                    />
                    <path fill="#7EC123" d="M395.035,94.112c0.053,0.623,0.148,1.144,0.134,1.661c-0.23,8.524-3.415,15.491-10.713,20.288
				c-3.764,2.473-7.918,3.983-12.279,4.968c-3.047,0.689-6.132,1.136-9.253,1.331c-1.047,0.066-2.091,0.177-3.064,0.261
				c-0.377-0.439-0.22-0.805-0.137-1.142c1.4-5.658,3.964-10.691,8.064-14.883c5.896-6.028,12.941-9.971,21.236-11.608
				c1.71-0.338,3.438-0.59,5.159-0.872C394.383,94.083,394.595,94.112,395.035,94.112z"/>
                    <path fill="#564640" d="M354.585,124.822c-1.375,0.261-2.79,0.151-4.203,0.068c-0.487-0.029-0.753-0.314-0.83-0.799
				c-0.18-1.147-0.414-2.288-0.554-3.44c-0.513-4.23-0.357-8.437,0.594-12.596c0.21-0.921,0.554-1.814,0.872-2.706
				c0.334-0.936,1.045-1.434,2.012-1.568c1.605-0.222,3.164-0.003,4.665,0.583c0.805,0.314,1.038,0.694,0.937,1.615
				c-0.091,0.835-0.278,1.664-0.473,2.484c-0.573,2.413-1.206,4.812-1.751,7.231c-0.546,2.425-0.833,4.89-0.961,7.374
				C354.865,123.633,354.968,124.235,354.585,124.822z"/>
                </g>
                <g>
                    <path fill="#7EC123" d="M276.014,234.014c-1.375-1.205-2.581-2.297-3.826-3.343c-1.297-1.089-2.613-2.158-3.955-3.191
				c-1.296-0.998-2.637-1.938-3.996-2.931c0.028-0.368,0.023-0.737,0.087-1.093c1.433-7.916,3.16-15.767,5.172-23.557
				c1.813-7.02,3.774-13.995,6.176-20.839c0.594-1.692,1.168-3.396,2.019-4.976c0.584,0.059,0.825,0.518,1.147,0.847
				c3.81,3.902,7.611,7.813,11.413,11.722c5.649,5.807,11.297,11.614,16.947,17.42c0.552,0.568,1.089,1.136,1.863,1.444
				c0.831,0.33,1.631,0.411,2.46,0.051c0.34-0.147,0.688-0.275,1.023-0.432c5.725-2.684,11.738-4.514,17.861-6.017
				c4.32-1.06,8.687-1.891,13.103-2.414c6.003-0.711,12.024-0.964,18.07-0.554c4.496,0.305,8.953,0.86,13.377,1.699
				c6.771,1.283,13.391,3.105,19.82,5.594c1.429,0.553,2.856,1.139,4.213,1.845c1.848,0.963,3.485,0.4,4.731-0.889
				c4.785-4.948,9.598-9.87,14.398-14.802c4.801-4.933,9.599-9.868,14.4-14.8c0.255-0.262,0.529-0.504,0.883-0.839
				c0.222,0.385,0.425,0.67,0.563,0.984c1.317,3.01,2.325,6.134,3.313,9.261c3.222,10.199,5.83,20.559,8.034,31.021
				c0.534,2.536,0.995,5.088,1.485,7.634c0.109,0.566,0.23,1.135,0.148,1.765c-4.119,2.792-7.949,5.94-11.701,9.416
				c-0.282-0.616-0.505-1.085-0.713-1.56c-2.813-6.436-7.136-11.598-13.053-15.394c-5.205-3.339-10.924-5.1-17.099-5.161
				c-12.906-0.128-23.629,7.148-29.001,17.578c-0.285,0.553-0.583,1.099-0.88,1.66c-12.641-5.931-25.135-5.683-37.617,0.366
				c-0.287-0.566-0.544-1.078-0.806-1.588c-4.34-8.433-10.962-14.228-20.123-16.779c-10.432-2.905-20.025-0.812-28.648,5.659
				c-4.622,3.468-8.035,7.942-10.403,13.212C276.64,232.609,276.384,233.186,276.014,234.014z"/>
                    <g>
                        <path fill="#F2B51B" d="M447.842,229.36c0.127,0.637,0.254,1.147,0.327,1.665c0.613,4.347,1.273,8.688,1.805,13.044
					c0.443,3.622,0.774,7.26,1.078,10.897c0.322,3.848,0.62,7.701,0.811,11.558c0.304,6.131,0.552,12.263,0.268,18.407
					c-0.166,3.596-0.348,7.187-0.761,10.764c-1.4,12.112-4.225,23.834-9.531,34.879c-2.627,5.469-5.957,10.474-9.872,15.104
					c-5.77,6.824-12.778,11.994-20.861,15.748c-3.167,1.471-6.383,2.814-9.84,3.817c-0.122-0.268-0.311-0.524-0.355-0.802
					c-0.783-4.966-1.372-9.952-1.713-14.972c-0.359-5.287-0.392-10.576-0.266-15.868c0.121-5.081,0.565-10.139,1.197-15.183
					c1.193-9.525,3.226-18.865,6.141-28.008c3.892-12.209,9.147-23.783,16.265-34.472c5.426-8.149,11.725-15.539,19.19-21.899
					c1.61-1.372,3.301-2.649,4.965-3.956C447.012,229.829,447.386,229.643,447.842,229.36z"/>
                        <path fill="#F2B51B" d="M310.084,365.206c-0.306-0.066-0.614-0.106-0.904-0.2c-7.398-2.407-14.344-5.736-20.557-10.443
					c-6.971-5.281-12.454-11.896-16.825-19.442c-3.816-6.589-6.477-13.655-8.474-20.98c-1.771-6.496-2.91-13.107-3.605-19.802
					c-0.695-6.7-0.777-13.415-0.65-20.139c0.124-6.565,0.571-13.112,1.114-19.651c0.648-7.805,1.624-15.573,2.831-23.312
					c0.089-0.573,0.22-1.14,0.329-1.698c0.531-0.112,0.813,0.264,1.138,0.502c4.234,3.109,8.15,6.583,11.791,10.366
					c8.179,8.497,14.74,18.13,20.028,28.645c5.444,10.827,9.406,22.188,12.096,33.998c1.399,6.144,2.442,12.35,3.099,18.615
					c0.425,4.052,0.665,8.119,0.818,12.194c0.171,4.556,0.066,9.105-0.159,13.65c-0.286,5.763-0.921,11.495-1.886,17.187
					C310.242,364.847,310.164,364.989,310.084,365.206z"/>
                    </g>
                    <path fill="#7EC123" d="M372.334,253.001c0.788,2.177,1.458,4.214,2.262,6.195c0.817,2.014,1.919,3.89,3.156,5.681
				c1.237,1.791,2.624,3.456,4.172,4.987c1.548,1.531,3.215,2.92,5.044,4.101c1.822,1.177,3.674,2.301,5.701,3.113
				c2.019,0.809,4.085,1.434,6.217,1.871c2.119,0.434,4.265,0.564,6.439,0.635c-0.015,0.27,0.015,0.439-0.037,0.577
				c-1.833,4.788-3.415,9.661-4.851,14.673c-0.446-0.117-0.799-0.178-1.129-0.3c-6.729-2.47-13.662-4.117-20.735-5.224
				c-9.284-1.453-18.622-2.063-28.01-1.78c-9.065,0.273-18.052,1.227-26.879,3.409c-3.961,0.979-7.837,2.207-11.581,3.838
				c-0.331,0.144-0.676,0.256-0.985,0.371c-0.128-0.118-0.249-0.175-0.275-0.26c-1.488-5.02-3.105-9.997-4.937-14.903
				c-0.031-0.084,0.027-0.202,0.061-0.416c5.232-0.014,10.253-1.131,14.914-3.577c4.655-2.443,8.621-5.737,11.777-9.975
				c3.148-4.227,5.222-8.932,6.338-14.292c0.244,0.392,0.435,0.605,0.523,0.855c1.262,3.595,2.584,7.165,4.115,10.657
				c1.554,3.545,3.326,6.975,5.431,10.223c1.323,2.042,2.726,4.031,4.104,6.037c0.239,0.348,0.521,0.667,0.796,0.99
				c1.205,1.417,2.75,1.004,3.655,0.201c0.392-0.348,0.725-0.771,1.046-1.19c3.034-3.961,5.645-8.189,7.904-12.634
				c1.993-3.921,3.604-8.006,5.086-12.143C371.847,254.186,372.073,253.66,372.334,253.001z"/>
                    <path fill="#F2B51B" d="M331.151,229.898c-6.446-10.816-19.083-16.073-31.186-12.649c-10.064,2.853-16.655,9.481-20.188,19.241
				c-0.121,0.34-0.182,0.692-0.267,1.056c10.452,10.974,18.306,23.575,24.315,37.39c0.279,0.085,0.376,0.121,0.473,0.146
				c0.158,0.024,0.316,0.024,0.473,0.036c3.921,0.194,7.709-0.376,11.363-1.785c11.52-4.419,19.363-15.721,19.18-28.783
				C335.242,239.306,333.834,234.414,331.151,229.898z M308.754,258.146c-5.912,0.583-11.715-2.962-13.608-9.153
				c-2.367-7.745,2.416-16.291,10.865-17.651c7.478-1.214,13.45,3.824,14.774,10.173c0.182,0.923,0.255,1.882,0.389,2.816
				C321.087,251.458,315.794,257.442,308.754,258.146z"/>
                    <path fill="#F2B51B" d="M428.874,230.82c-5.05-8.303-12.346-13.281-22.009-14.422c-6.774-0.789-13.086,0.826-18.658,4.783
				c-7.587,5.402-11.618,12.892-12.188,22.155c-0.534,8.558,2.137,16.097,7.951,22.397c5.863,6.361,13.183,9.578,21.9,9.396
				c0.522-0.012,1.056,0.073,1.566-0.267c5.997-13.778,13.851-26.379,24.328-37.365C431.059,235.033,430.112,232.86,428.874,230.82z
				 M407.326,257.697c-7.648,2.149-15.344-2.998-16.4-10.889c-0.825-6.264,2.877-13.001,9.529-15.041
				c1.275-0.401,2.561-0.619,3.812-0.583c6.009-0.121,11.618,4.225,12.856,10.658C418.373,248.265,414.585,255.67,407.326,257.697z"
                    />
                    <path fill="#F2B51B" d="M355.852,275.81c-0.334-0.452-0.655-0.869-0.958-1.298c-3.861-5.477-6.846-11.409-9.253-17.652
				c-2.306-5.983-4.176-12.086-5.313-18.401c-0.204-1.131-0.554-2.257-0.42-3.41c8.628-4.803,22.314-5.413,32.165-0.126
				c0,0.319,0.045,0.682-0.007,1.031c-1.186,7.941-3.582,15.535-6.597,22.952c-2.239,5.51-5.055,10.702-8.481,15.563
				C356.664,274.93,356.408,275.463,355.852,275.81z"/>
                    <g>
                        <path fill="#F2B51B" d="M381.176,373.584c2.023-0.361,3.946-0.562,5.979-0.738c0.062,0.382,0.139,0.676,0.153,0.973
					c0.066,1.48,0.131,2.961,0.168,4.442c0.055,2.227,0.277,4.436,0.675,6.625c0.141,0.777,0.325,1.562,0.619,2.291
					c0.918,2.276,2.581,3.547,5.096,3.6c1.758,0.037,3.477-0.281,5.202-0.541c2.042-0.308,4.084-0.557,6.16-0.505
					c3.307,0.082,6.603,3.134,7.208,5.999c0.185,0.874,0.136,1.684-0.279,2.461c-0.435,0.816-1.107,1.285-2.062,1.176
					c-0.521-0.06-1.05-0.16-1.541-0.337c-0.993-0.36-1.965-0.778-2.941-1.184c-2.006-0.834-4.044-1.562-6.197-1.923
					c-1.165-0.195-2.315-0.17-3.455,0.173c-2.081,0.626-3.512,2.317-3.668,4.499c-0.064,0.889,0.026,1.796,0.116,2.687
					c0.069,0.681,0.285,1.347,0.37,2.028c0.085,0.679,0.161,1.374,0.114,2.053c-0.111,1.598-1.296,2.592-2.881,2.51
					c-1.569-0.082-2.739-0.789-3.361-2.247c-0.33-0.773-0.558-1.594-0.792-2.404c-0.412-1.421-0.752-2.864-1.206-4.27
					c-0.207-0.643-0.545-1.269-0.938-1.822c-1.81-2.546-4.816-3.222-7.585-1.737c-1.422,0.763-2.552,1.875-3.588,3.089
					c-0.412,0.483-0.796,0.991-1.229,1.453c-0.703,0.751-1.581,1.213-2.56,1.524c-0.842,0.267-1.562,0.074-2.229-0.441
					c-0.166-0.128-0.318-0.28-0.46-0.436c-1.597-1.763-1.863-4.501-0.544-6.479c1.308-1.96,3.074-3.348,5.432-3.833
					c1.19-0.245,2.399-0.394,3.599-0.588c0.626-0.102,1.255-0.188,1.876-0.316c3.054-0.63,4.746-2.584,5.352-5.567
					c0.33-1.62,0.394-3.26,0.222-4.9c-0.221-2.104-0.499-4.202-0.749-6.303C381.221,374.334,381.212,374.07,381.176,373.584z"/>
                        <path fill="#F2B51B" d="M324.109,372.861c2.129,0.144,4.048,0.418,5.992,0.695c0.193,0.625-0.05,1.132-0.08,1.641
					c-0.028,0.474-0.108,0.946-0.166,1.418c-0.265,2.153-0.599,4.304-0.503,6.48c0.046,1.052,0.128,2.122,0.368,3.143
					c0.652,2.781,2.383,4.549,5.22,5.118c1.243,0.249,2.506,0.394,3.758,0.597c0.678,0.11,1.364,0.197,2.026,0.371
					c2.257,0.593,3.976,1.951,5.212,3.895c1.205,1.895,0.909,4.672-0.594,6.35c-0.821,0.917-1.796,1.268-2.991,0.81
					c-0.797-0.306-1.551-0.689-2.145-1.317c-0.436-0.461-0.857-0.938-1.25-1.435c-0.828-1.045-1.779-1.958-2.866-2.724
					c-3.901-2.752-7.89-0.777-9.244,2.726c-0.399,1.031-0.665,2.116-0.965,3.183c-0.229,0.814-0.376,1.652-0.631,2.457
					c-0.207,0.651-0.455,1.306-0.799,1.892c-0.757,1.286-2.379,1.959-3.835,1.678c-1.066-0.206-1.963-1.039-2.051-2.137
					c-0.075-0.938,0.027-1.897,0.123-2.839c0.074-0.734,0.283-1.454,0.391-2.186c0.644-4.358-2.117-7.381-6.766-6.793
					c-1.094,0.138-2.183,0.424-3.233,0.769c-1.403,0.46-2.765,1.048-4.147,1.573c-0.938,0.356-1.859,0.789-2.828,1.027
					c-1.982,0.486-3.303-0.657-3.25-2.713c0.025-0.98,0.344-1.886,0.862-2.69c1.648-2.557,3.887-4.132,7.055-4.131
					c1.86,0.001,3.691,0.251,5.525,0.512c1.308,0.186,2.62,0.351,3.932,0.508c0.366,0.044,0.74,0.044,1.11,0.04
					c2.666-0.033,4.503-1.342,5.39-3.869c0.547-1.558,0.788-3.186,0.903-4.822c0.172-2.426,0.258-4.859,0.381-7.289
					C324.04,374.223,324.069,373.649,324.109,372.861z"/>
                    </g>
                    <g>
                        <path fill="#7EC123" d="M395.228,354.686c0.548,4.07,1.054,7.837,1.575,11.707c-0.38,0.145-0.749,0.34-1.141,0.426
					c-3.823,0.842-7.669,1.541-11.561,2.013c-12.114,1.47-24.276,1.795-36.455,1.472c-5.34-0.142-10.679-0.519-16.003-0.968
					c-5.271-0.445-10.509-1.209-15.666-2.437c-0.503-0.12-0.998-0.271-1.529-0.416c0-0.29-0.024-0.498,0.004-0.699
					c0.501-3.613,1.007-7.226,1.52-10.838c0.013-0.089,0.117-0.166,0.245-0.336c5.098,1.134,10.223,1.015,15.34-0.55
					c0.391,0.423,0.747,0.801,1.096,1.184c4.373,4.802,9.705,7.975,16.071,9.304c5.509,1.15,10.946,0.705,16.287-1.03
					c5.367-1.743,10.081-4.607,14.299-8.325c0.356-0.314,0.72-0.618,1.084-0.923c0.038-0.032,0.097-0.037,0.276-0.102
					C385.354,355.551,390.221,355.75,395.228,354.686z"/>
                        <path fill="#7EC123" d="M375.971,352.253c-0.409,0.395-0.648,0.663-0.923,0.886c-4.432,3.587-9.361,6.182-15.006,7.212
					c-8.959,1.635-16.765-0.666-23.311-7.06c-0.262-0.256-0.491-0.545-0.796-0.886c0.23-0.194,0.398-0.388,0.609-0.506
					c5.319-2.973,9.336-7.236,12.382-12.466c0.211-0.363,0.426-0.724,0.67-1.139c1.377-0.144,2.728,0.253,4.092,0.214
					c1.374-0.039,2.753-0.081,4.118-0.225c1.357-0.143,2.7-0.414,4.135-0.643c1.623,3.076,3.536,5.919,5.909,8.433
					C370.184,348.547,372.86,350.587,375.971,352.253z"/>
                        <path fill="#7EC123" d="M363.493,310.713c1.734,6.089,4.232,11.573,9.201,15.674c-0.209,0.28-0.355,0.558-0.573,0.754
					c-5.722,5.136-12.398,7.623-20.097,6.949c-5.812-0.509-10.905-2.852-15.354-6.607c-0.074-0.062-0.108-0.172-0.221-0.359
					c0.489-0.575,1.197-0.952,1.75-1.493c0.568-0.554,1.152-1.094,1.683-1.683c0.53-0.589,1.026-1.213,1.494-1.853
					c0.467-0.64,0.904-1.306,1.311-1.986c0.407-0.68,0.781-1.383,1.134-2.093c0.353-0.71,0.684-1.433,0.985-2.167
					c0.302-0.733,0.563-1.483,0.828-2.231c0.261-0.736,0.505-1.478,0.789-2.311c2.848,0.808,5.645,1.343,8.526,1.199
					C357.819,312.362,360.584,311.687,363.493,310.713z"/>
                        <path fill="#7EC123" d="M398.308,303.09c-0.231,2.102-0.778,3.975-1.07,5.891c-0.295,1.933-0.657,3.855-0.945,5.789
					c-0.288,1.934-0.551,3.873-0.77,5.816c-0.218,1.94-0.368,3.889-0.547,5.824c-0.858,0.497-1.784,0.483-2.658,0.589
					c-3.273,0.395-6.541,0.428-9.757-0.47c-1.687-0.471-3.296-1.131-4.829-1.978c-2.651-1.466-4.756-3.508-6.35-6.074
					c-1.83-2.946-3.074-6.134-3.847-9.51c-0.022-0.097,0.014-0.207,0.025-0.333c1.54-1.244,3.091-2.496,4.637-3.744
					C381.229,309.733,389.872,308.975,398.308,303.09z"/>
                        <path fill="#7EC123" d="M337.058,305.444c0.866,0.737,1.683,1.482,2.552,2.16c0.87,0.679,1.792,1.291,2.72,1.953
					c-0.118,0.502-0.195,0.969-0.337,1.415c-0.646,2.017-1.424,3.976-2.392,5.867c-2.594,5.071-6.733,8.177-12.149,9.691
					c-1.483,0.415-2.993,0.673-4.537,0.691c-2.164,0.025-4.331,0.079-6.561-0.491c-0.083-0.557-0.204-1.118-0.246-1.684
					c-0.282-3.8-0.715-7.584-1.332-11.343c-0.454-2.765-0.981-5.518-1.471-8.277c-0.073-0.41-0.119-0.825-0.2-1.397
					c0.351,0.139,0.591,0.19,0.781,0.315c3.207,2.11,6.758,3.261,10.549,3.623c3.919,0.374,7.692-0.31,11.292-1.914
					C336.158,305.861,336.584,305.661,337.058,305.444z"/>
                        <path fill="#7EC123" d="M394.691,331.01c-0.053,1.761-0.118,3.336-0.144,4.911c-0.026,1.587-0.036,3.175-0.01,4.762
					c0.025,1.587,0.098,3.172,0.159,4.758c0.06,1.579,0.13,3.158,0.198,4.795c-1.273,0.512-2.537,0.625-3.783,0.719
					c-7.693,0.576-14.243-1.941-19.684-7.381c-1.958-1.957-3.573-4.178-4.925-6.591c-0.127-0.226-0.22-0.472-0.358-0.774
					c1.282-0.699,2.557-1.327,3.763-2.07c1.168-0.72,2.304-1.506,3.382-2.355c1.119-0.88,2.152-1.869,3.322-2.899
					c2.727,1.223,5.608,2.185,8.685,2.526C388.374,331.753,391.413,331.508,394.691,331.01z"/>
                        <path fill="#7EC123" d="M316.526,350.196c-0.082-0.198-0.153-0.292-0.156-0.388c-0.011-0.369-0.022-0.74,0.006-1.107
					c0.43-5.74,0.296-11.491,0.219-17.234c0.553-0.288,1.029-0.152,1.479-0.097c4.767,0.589,9.378,0.02,13.824-1.818
					c0.094-0.039,0.202-0.045,0.443-0.096c1.826,1.621,3.804,3.19,5.98,4.498c2.137,1.284,4.408,2.265,6.741,3.107
					c-0.863,3.051-5.912,8.366-10.243,10.857C329.528,350.96,322.834,351.912,316.526,350.196z"/>
                        <path fill="#7EC123" d="M368.816,301.954c-0.319,0.322-0.526,0.558-0.76,0.764c-3.819,3.363-8.231,5.358-13.345,5.544
					c-5.203,0.189-9.758-1.52-13.618-5.035c-0.115-0.104-0.197-0.244-0.345-0.431c0.86-1.047,1.798-2.048,2.565-3.165
					c0.805-1.171,1.52-2.419,2.138-3.699c0.594-1.231,1.013-2.546,1.506-3.815c2.037-0.414,13.889-0.417,16.273-0.011
					c0.761,1.746,1.475,3.502,2.287,5.212C366.316,298.999,367.485,300.444,368.816,301.954z"/>
                        <path fill="#7EC123" d="M368.185,292.583c4.713-0.527,24.97,3.592,28.495,5.788c-0.313,0.635-0.865,1.048-1.396,1.468
					c-2.817,2.227-6.054,3.43-9.598,3.812c-2.066,0.223-4.127,0.064-6.15-0.409c-3.467-0.811-6.328-2.606-8.558-5.392
					c-1.099-1.374-1.957-2.887-2.604-4.519C368.281,293.096,368.248,292.839,368.185,292.583z"/>
                        <path fill="#7EC123" d="M313.986,298.857c4.206-2.682,21.094-6.514,28-6.377c0.024,0.136,0.11,0.302,0.066,0.42
					c-1.612,4.297-4.305,7.712-8.627,9.426c-6.611,2.621-12.848,1.676-18.558-2.584
					C314.542,299.499,314.287,299.163,313.986,298.857z"/>
                    </g>
                    <g>
                        <path fill="#1A1A1A" d="M309.3,253.703c-0.571,0.134-1.153,0.121-1.736,0.182c-4.103,0.097-8.206-3.023-8.668-8.048
					c-0.498-5.317,3.387-9.954,8.704-10.343c0.255-0.012,0.498-0.024,0.74-0.024c-1.457,0.862-2.44,2.44-2.44,4.261
					c0,2.731,2.209,4.953,4.941,4.953c2.586,0,4.71-1.979,4.929-4.504C318.404,245.266,315.758,252.234,309.3,253.703z"/>
                        <path fill="#1A1A1A" d="M413.044,244.392c-0.146,3.933-1.894,6.932-5.463,8.619c-5.62,2.646-11.848-0.947-12.431-7.247
					c-0.449-4.856,3.12-9.833,8.631-10.27c0.182-0.012,0.364-0.024,0.546-0.024c-1.457,0.862-2.44,2.44-2.44,4.261
					c0,2.731,2.209,4.953,4.941,4.953s4.953-2.222,4.953-4.953c0.291,0.473,0.534,0.983,0.741,1.542
					C412.898,242.28,413.032,243.312,413.044,244.392z"/>
                    </g>
                </g>
            </g>
        <g>
                <g>
                    <path fill="#CF1D2A" d="M131.925,251.694c0.217,0.573,0.371,0.959,0.51,1.35c1.352,3.787,2.75,7.556,4.413,11.221
				c2.46,5.421,5.522,10.481,9.121,15.219c0.256,0.337,0.512,0.677,0.8,0.986c0.996,1.069,2.235,1.204,3.408,0.326
				c0.416-0.311,0.766-0.729,1.088-1.143c3.588-4.614,6.622-9.568,9.094-14.865c1.59-3.407,2.953-6.906,4.212-10.447
				c0.137-0.385,0.32-0.752,0.481-1.125c0.454,0.075,0.335,0.409,0.418,0.616c0.098,0.245,0.16,0.504,0.231,0.759
				c1.363,4.864,3.668,9.232,6.945,13.074c5.365,6.287,12.142,10.109,20.29,11.458c1.663,0.275,3.362,0.335,5.102,0.499
				c0.204,0.54-0.166,0.992-0.338,1.45c-1.958,5.203-3.641,10.492-5.042,15.872c-1.641,6.304-2.884,12.684-3.787,19.136
				c-1.317,9.409-1.785,18.862-1.473,28.35c0.23,6.987,0.885,13.941,2.073,20.837c0.062,0.359,0.07,0.727,0.112,1.189
				c-0.462,0.148-0.892,0.324-1.34,0.423c-3.823,0.85-7.675,1.512-11.565,2c-7.205,0.905-14.446,1.289-21.694,1.481
				c-4.972,0.132-9.956,0.119-14.927-0.045c-5.182-0.172-10.363-0.51-15.53-0.946c-5.326-0.449-10.615-1.224-15.826-2.456
				c-0.458-0.108-0.911-0.238-1.336-0.35c-0.289-0.584-0.094-1.108-0.011-1.612c1.022-6.222,1.618-12.483,1.938-18.78
				c0.309-6.091,0.226-12.176-0.183-18.252c-1.081-16.043-4.299-31.637-9.993-46.698c-0.183-0.483-0.327-0.981-0.511-1.539
				c2.044-0.237,3.971-0.429,5.887-0.692c1.946-0.266,3.821-0.834,5.662-1.507c1.842-0.673,3.609-1.513,5.301-2.506
				c1.692-0.994,3.287-2.125,4.78-3.402c1.452-1.242,2.79-2.595,4.018-4.058c1.262-1.504,2.386-3.105,3.377-4.799
				c0.99-1.694,1.869-3.447,2.507-5.302C130.765,255.593,131.292,253.734,131.925,251.694z"/>
                    <path fill="#CF1D2A" d="M129.666,231.609c-0.315-0.63-0.549-1.1-0.784-1.57c-2.482-4.976-5.939-9.137-10.526-12.29
				c-3.973-2.731-8.353-4.533-13.138-5.284c-7.078-1.111-13.797-0.011-20.173,3.256c-7.222,3.701-12.278,9.405-15.565,16.756
				c-0.212,0.475-0.43,0.947-0.706,1.554c-1.317-1.156-2.519-2.246-3.76-3.29c-1.296-1.09-2.611-2.16-3.952-3.193
				c-1.296-0.999-2.637-1.94-4.054-2.977c0.049-0.47,0.067-0.992,0.161-1.5c2.262-12.289,5.181-24.421,8.82-36.375
				c1.078-3.54,2.332-7.026,3.544-10.524c0.252-0.727,0.475-1.499,1.098-2.168c0.45,0.441,0.869,0.835,1.269,1.248
				c9.219,9.496,18.435,18.994,27.653,28.491c0.369,0.38,0.723,0.777,1.119,1.126c1.121,0.987,2.377,1.338,3.811,0.731
				c0.195-0.082,0.394-0.155,0.585-0.245c6.69-3.147,13.742-5.182,20.932-6.785c3.72-0.829,7.478-1.474,11.266-1.876
				c5.427-0.576,10.866-0.794,16.33-0.476c11.715,0.683,23.028,3.184,33.982,7.35c1.58,0.601,3.11,1.333,4.66,2.011
				c1.425,0.623,2.683,0.301,3.822-0.669c0.281-0.239,0.53-0.518,0.789-0.783c2.66-2.73,5.319-5.461,7.978-8.193
				c4.505-4.629,9.013-9.254,13.511-13.889c2.248-2.317,4.471-4.66,6.719-6.977c0.356-0.367,0.622-0.875,1.323-0.976
				c0.448,1.109,0.938,2.219,1.351,3.357c2.037,5.623,3.779,11.34,5.341,17.111c2.101,7.763,4.011,15.571,5.568,23.463
				c0.369,1.868,0.719,3.74,1.064,5.613c0.056,0.304,0.039,0.622,0.056,0.941c-1.353,0.989-2.693,1.929-3.989,2.926
				c-1.342,1.033-2.658,2.101-3.954,3.19c-1.245,1.046-2.451,2.138-3.785,3.307c-0.265-0.539-0.484-0.942-0.665-1.361
				c-1.823-4.232-4.355-7.979-7.657-11.199c-5.046-4.921-11.079-7.897-18.02-8.993c-7.022-1.11-13.686,0.045-19.994,3.338
				c-6.075,3.171-10.508,7.93-13.659,13.953c-0.242,0.463-0.48,0.927-0.766,1.48c-0.433-0.194-0.807-0.354-1.174-0.528
				c-5.65-2.678-11.625-3.897-17.85-3.795c-6.055,0.099-11.85,1.427-17.313,4.097C130.554,231.175,130.178,231.359,129.666,231.609z
				"/>
                </g>
            <g>
                    <path fill="#00A6E0" d="M104.665,325.921c-0.498-5.96-1.299-11.884-2.428-17.76c-1.821-9.481-4.467-18.719-8.036-27.69
				c-4.698-11.812-10.816-22.834-18.78-32.789c-5.22-6.507-11.095-12.358-17.809-17.347c-0.413-0.316-0.85-0.595-1.384-0.959
				c-0.134,0.461-0.267,0.789-0.328,1.141c-0.449,3.023-0.923,6.058-1.323,9.105c-0.704,5.402-1.262,10.816-1.712,16.255
				c-0.534,6.325-0.91,12.661-1.068,19.01c-0.231,9.165,0.255,18.294,1.748,27.362c1.08,6.543,2.622,12.953,4.819,19.205
				c2.452,6.98,5.645,13.572,10.003,19.581c4.103,5.645,8.838,10.683,14.58,14.701c4.564,3.205,9.517,5.706,14.689,7.769
				c1.663,0.655,3.338,1.275,5.232,1.784c0.109-0.425,0.194-0.668,0.243-0.923c0.947-5.803,1.578-11.642,1.857-17.505
				C105.296,339.869,105.235,332.889,104.665,325.921z M59.421,267.615c0.449-0.777,1.42-1.214,2.307-0.995
				c0.352,0.085,0.692,0.243,1.032,0.388c4.164,1.639,8.51-0.121,10.683-3.533c0.219-0.352,0.413-0.74,0.656-1.08
				c0.728-0.971,1.833-1.238,2.792-0.68c0.971,0.558,1.323,1.615,0.886,2.731c-0.109,0.303-0.255,0.583-0.413,0.862
				c-2.804,4.831-7.624,6.677-11.375,6.616c-1.724,0.036-3.363-0.328-4.929-0.995c-0.437-0.182-0.874-0.413-1.226-0.716
				C59.081,269.569,58.935,268.477,59.421,267.615z M65.357,299.542c-3.023-0.049-5.693-0.923-8.097-2.622
				c-0.255-0.182-0.498-0.388-0.716-0.619c-0.728-0.801-0.777-1.942-0.134-2.768c0.595-0.765,1.639-1.032,2.574-0.595
				c0.425,0.194,0.801,0.51,1.202,0.765c1.7,1.08,3.557,1.615,5.572,1.481c3.618-0.243,6.13-2.076,7.587-5.378
				c0.218-0.473,0.328-0.995,0.558-1.481c0.498-1.08,1.517-1.542,2.61-1.19c1.02,0.328,1.651,1.384,1.384,2.525
				c-0.716,2.998-2.331,5.426-4.783,7.272C70.795,298.68,68.161,299.493,65.357,299.542z M95.135,326.358
				c-1.165,4.637-3.775,7.976-8.425,9.542c-1.263,0.425-2.574,0.583-3.557,0.558c-3.8,0-6.871-1.19-9.675-3.132
				c-0.68-0.473-1.177-1.056-1.19-1.942c-0.024-1.457,1.311-2.489,2.683-2.039c0.498,0.17,0.947,0.473,1.396,0.753
				c1.578,0.995,3.266,1.7,5.135,1.979c3.836,0.583,7.211-1.226,8.789-4.759c0.267-0.571,0.413-1.19,0.631-1.797
				c0.121-0.34,0.206-0.716,0.388-1.032c0.461-0.825,1.457-1.238,2.294-1.02c0.91,0.243,1.554,1.008,1.602,1.954
				C95.22,325.727,95.22,326.054,95.135,326.358z M95.73,304.531c-1.068,4.419-3.957,6.968-8.279,8.036
				c-0.716,0.17-1.457,0.218-1.942,0.279c-2.816-0.073-5.147-0.801-7.174-2.391c-0.376-0.279-0.728-0.631-0.983-1.008
				c-0.498-0.716-0.401-1.699,0.146-2.367c0.546-0.668,1.493-0.983,2.27-0.631c0.522,0.219,0.995,0.583,1.469,0.91
				c1.833,1.226,3.824,1.542,5.912,0.923c2.185-0.643,3.605-2.124,4.273-4.31c0.134-0.449,0.194-0.935,0.364-1.372
				c0.352-0.947,1.335-1.542,2.246-1.408c1.032,0.158,1.797,1.008,1.821,2.088C95.864,303.694,95.827,304.131,95.73,304.531z"/>
                <path fill="#00A6E0" d="M244.742,268.453c-0.316-6.337-0.777-12.674-1.421-18.986c-0.546-5.475-1.275-10.938-2.051-16.376
				c-0.17-1.19-0.401-2.379-0.595-3.557c-0.206,0.012-0.328-0.012-0.413,0.036c-0.559,0.388-1.129,0.777-1.675,1.19
				c-7.563,5.73-14.058,12.528-19.714,20.127c-7.466,10.052-13.171,21.05-17.529,32.777c-3.351,8.995-5.766,18.246-7.393,27.702
				c-1.044,6.058-1.76,12.152-2.088,18.282c-0.243,4.601-0.328,9.202-0.182,13.803c0.206,6.58,0.801,13.098,1.76,19.593
				c0.109,0.716,0.279,1.432,0.437,2.234c0.595-0.17,1.105-0.291,1.59-0.449c4.747-1.554,9.238-3.642,13.584-6.082
				c5.026-2.829,9.481-6.373,13.438-10.561c6.106-6.458,10.756-13.839,14.13-22.057c2.78-6.774,4.759-13.79,6.094-20.989
				c1.032-5.572,1.748-11.18,2.052-16.837C245.118,281.685,245.07,275.069,244.742,268.453z M218.958,261.739
				c0.862-0.522,1.906-0.388,2.598,0.388c0.316,0.34,0.534,0.777,0.789,1.177c1.614,2.513,3.873,3.982,6.859,4.285
				c1.287,0.134,2.525-0.085,3.739-0.51c0.401-0.146,0.777-0.34,1.178-0.449c0.898-0.243,1.869,0.17,2.331,0.947
				c0.51,0.838,0.376,1.954-0.352,2.61c-0.352,0.303-0.777,0.546-1.214,0.728c-1.627,0.692-3.314,1.056-5.099,1.02
				c-4.953-0.243-8.753-2.44-11.302-6.737c-0.182-0.316-0.34-0.655-0.449-1.008C217.72,263.233,218.108,262.261,218.958,261.739z
				 M200.057,303.074c0.085-0.923,0.789-1.663,1.699-1.857c0.85-0.182,1.821,0.279,2.234,1.141c0.182,0.364,0.279,0.789,0.376,1.202
				c1.153,4.977,6.701,6.215,10.197,3.86c0.522-0.352,1.032-0.74,1.615-0.995c0.777-0.328,1.712,0.012,2.258,0.692
				c0.486,0.619,0.595,1.566,0.17,2.234c-0.243,0.388-0.595,0.74-0.947,1.044c-1.335,1.08-2.865,1.797-4.54,2.149
				c-0.777,0.17-1.566,0.231-2.173,0.316c-4.273-0.206-7.502-1.882-9.675-5.414c-0.595-0.959-0.91-2.027-1.141-3.108
				C200.044,303.924,200.02,303.487,200.057,303.074z M223.049,332.78c-0.17,0.194-0.376,0.364-0.595,0.522
				c-2.853,1.979-5.96,3.181-9.724,3.168c-4.783,0.085-10.306-3.035-11.97-10.064c-0.061-0.303-0.085-0.631-0.073-0.947
				c0.036-0.995,0.74-1.809,1.712-2.015c0.85-0.17,1.821,0.291,2.246,1.141c0.182,0.376,0.267,0.801,0.413,1.202
				c0.303,0.777,0.558,1.602,0.959,2.331c1.93,3.484,5.499,4.37,8.17,3.994c1.93-0.267,3.678-0.959,5.305-1.991
				c0.401-0.255,0.801-0.534,1.226-0.716c0.971-0.401,1.954-0.085,2.525,0.74C223.802,330.922,223.716,332.039,223.049,332.78z
				 M239.425,296.203c-0.231,0.279-0.522,0.522-0.825,0.728c-2.391,1.7-5.074,2.561-7.344,2.598
				c-6.215-0.012-11.095-3.46-12.916-8.68c-0.158-0.449-0.303-0.91-0.376-1.372c-0.17-1.068,0.473-2.064,1.445-2.355
				c1.044-0.316,2.027,0.109,2.537,1.092c0.146,0.279,0.243,0.583,0.34,0.886c1.857,5.815,8.376,7.66,13.183,4.747
				c0.449-0.279,0.862-0.619,1.335-0.862c1.335-0.668,2.792,0.024,3.083,1.432C240.02,295.087,239.862,295.694,239.425,296.203z"/>
                </g>
            <path fill="#00A6E0" d="M224.336,236.817c-1.214-3.715-3.035-7.114-5.584-10.076c-6.604-7.672-14.98-11.18-25.08-10.306
			c-4.564,0.388-8.777,1.991-12.516,4.637c-8.231,5.851-12.285,13.96-12.455,23.963c-0.109,6.483,1.772,12.467,5.596,17.712
			c5.985,8.206,14.033,12.504,24.279,12.407c0.522,0,1.032-0.073,1.432-0.109c1.736-3.508,3.351-6.895,5.05-10.234
			c1.687-3.302,3.593-6.483,5.596-9.602c2.039-3.156,4.164-6.264,6.543-9.177c2.367-2.913,4.819-5.742,7.284-8.655
			C224.445,237.218,224.396,237.024,224.336,236.817z M200.226,257.685c-7.235,2.136-14.98-2.44-16.437-10.258
			c-1.08-5.766,2.003-13.329,9.457-15.648c1.275-0.401,2.574-0.607,3.8-0.571c6.106-0.109,11.787,4.37,12.916,10.986
			C211.006,248.374,207.34,255.597,200.226,257.685z"/>
            <path fill="#00A6E0" d="M123.979,230.019c-4.977-8.473-14.276-13.948-24.097-13.705c-2.282,0.061-4.54,0.206-6.75,0.825
			c-10.319,2.901-17.08,9.566-20.661,19.569c-0.097,0.243-0.121,0.51-0.206,0.85c5.159,5.414,9.736,11.278,13.79,17.566
			c4.079,6.325,7.551,12.977,10.537,19.812c0.182,0.073,0.279,0.121,0.376,0.146c0.206,0.024,0.425,0.049,0.631,0.061
			c3.581,0.17,7.077-0.291,10.464-1.481C125.957,267.372,133.399,246.08,123.979,230.019z M103.973,257.685
			c-7.247,2.136-14.992-2.44-16.449-10.246c-1.093-5.791,2.003-13.341,9.457-15.648c0.656-0.206,1.323-0.376,2.003-0.473
			c0.619-0.097,1.262-0.097,1.894-0.134c6.13-0.085,11.8,4.552,12.844,11.168C114.668,248.362,111.111,255.573,103.973,257.685z"/>
            <path fill="#F2B51B" d="M148.767,275.754c-0.611-0.3-0.842-0.862-1.169-1.327c-3.609-5.129-6.468-10.657-8.77-16.485
			c-2.452-6.21-4.459-12.548-5.675-19.123c-0.173-0.935-0.322-1.875-0.457-2.817c-0.044-0.307-0.007-0.626-0.007-1.007
			c0.365-0.195,0.72-0.413,1.096-0.581c4.549-2.025,9.315-3.084,14.294-3.196c5.256-0.118,10.311,0.804,15.142,2.897
			c0.528,0.229,1.039,0.498,1.567,0.753c0.201,0.79,0.018,1.52-0.106,2.236c-1.645,9.494-4.728,18.524-8.861,27.206
			c-1.777,3.733-3.981,7.221-6.355,10.602C149.259,275.207,149.004,275.471,148.767,275.754z"/>
            <g>
                    <path fill="#F2B51B" d="M116.904,372.965c0.556,0,0.928-0.037,1.291,0.006c1.519,0.182,3.035,0.388,4.639,0.596
				c0.014,0.407,0.069,0.764,0.031,1.111c-0.15,1.367-0.332,2.73-0.496,4.095c-0.234,1.948-0.326,3.9-0.165,5.86
				c0.087,1.065,0.344,2.086,0.763,3.065c0.828,1.931,2.269,3.173,4.306,3.652c1.181,0.278,2.393,0.42,3.592,0.618
				c0.678,0.112,1.36,0.202,2.035,0.326c2.425,0.445,4.271,1.79,5.653,3.774c1.376,1.976,1.154,4.677-0.452,6.459
				c-0.831,0.922-1.822,1.224-3.004,0.779c-0.748-0.282-1.456-0.641-2.026-1.214c-0.522-0.525-1.004-1.089-1.531-1.608
				c-0.791-0.778-1.568-1.576-2.42-2.283c-0.905-0.75-1.961-1.269-3.141-1.427c-2.246-0.301-4.04,0.535-5.426,2.287
				c-0.733,0.927-1.182,2.004-1.5,3.128c-0.258,0.915-0.412,1.859-0.675,2.773c-0.276,0.962-0.557,1.934-0.96,2.847
				c-0.641,1.453-1.981,2.175-3.772,2.08c-1.076-0.057-1.976-0.85-2.277-1.911c-0.176-0.621-0.197-1.244-0.088-1.884
				c0.211-1.251,0.439-2.503,0.566-3.764c0.073-0.725,0.056-1.486-0.082-2.199c-0.413-2.124-1.729-3.437-3.813-4.008
				c-1.538-0.421-3.046-0.183-4.548,0.172c-1.91,0.452-3.726,1.172-5.528,1.94c-1.018,0.434-2.074,0.78-3.121,1.141
				c-1.893,0.652-3.064-0.975-3.111-2.374c-0.035-1.042,0.218-2.012,0.743-2.88c1.613-2.663,3.902-4.324,7.108-4.306
				c1.685,0.009,3.371,0.259,5.052,0.445c1.524,0.168,3.039,0.413,4.562,0.59c0.521,0.061,1.057,0.055,1.581,0.016
				c2.021-0.148,3.492-1.169,4.376-2.965c0.369-0.749,0.616-1.575,0.811-2.391c0.592-2.482,0.691-5.026,0.84-7.56
				c0.075-1.267,0.069-2.539,0.107-3.808C116.832,373.785,116.871,373.425,116.904,372.965z"/>
                <path fill="#F2B51B" d="M174.045,373.715c1.201-0.37,4.424-0.784,5.887-0.755c0.048,0.289,0.128,0.59,0.143,0.894
				c0.096,2.062,0.121,4.129,0.281,6.185c0.139,1.79,0.41,3.571,0.657,5.351c0.072,0.52,0.228,1.035,0.402,1.533
				c0.969,2.769,3.042,4.161,5.965,3.976c1.002-0.063,1.998-0.215,2.995-0.343c1.731-0.223,3.458-0.486,5.192-0.68
				c1.318-0.148,2.656-0.208,3.938,0.213c2.972,0.976,4.998,2.881,5.73,6.007c0.19,0.813,0.045,1.582-0.365,2.293
				c-0.512,0.887-1.27,1.28-2.263,1.076c-0.771-0.158-1.529-0.416-2.268-0.696c-1.532-0.581-3.025-1.272-4.576-1.793
				c-1.246-0.418-2.553-0.66-3.836-0.967c-1.005-0.24-2.003-0.113-2.987,0.129c-2.174,0.537-3.697,2.253-3.847,4.503
				c-0.07,1.043,0.079,2.107,0.189,3.155c0.082,0.787,0.276,1.562,0.39,2.347c0.108,0.742,0.087,1.482-0.228,2.182
				c-0.4,0.891-1.092,1.449-2.054,1.547c-1.589,0.161-3.116-0.416-3.829-1.966c-0.46-1.001-0.751-2.084-1.064-3.145
				c-0.254-0.861-0.358-1.77-0.656-2.613c-0.332-0.94-0.708-1.893-1.237-2.731c-1.501-2.375-4.544-3.611-7.648-1.962
				c-1.329,0.706-2.395,1.731-3.401,2.829c-0.536,0.585-1.07,1.172-1.625,1.739c-0.603,0.617-1.351,1.014-2.155,1.303
				c-1.12,0.402-2.07,0.125-2.883-0.729c-1.613-1.697-1.935-4.342-0.66-6.311c1.315-2.032,3.137-3.44,5.542-3.942
				c1.344-0.281,2.716-0.43,4.075-0.638c0.366-0.056,0.734-0.101,1.096-0.172c3.015-0.593,5.008-2.265,5.686-6.177
				c0.422-2.434,0.11-4.855-0.15-7.275c-0.119-1.104-0.302-2.201-0.432-3.304C174.01,374.423,174.045,374.058,174.045,373.715z"/>
                </g>
            <g>
                    <path fill="#1A1A1A" d="M198.855,253.594c-0.303,0.073-0.619,0.158-0.923,0.194c-0.534,0.061-1.056,0.073-1.59,0.109
				c-3.302,0.024-7.356-2.27-8.303-7.187c-0.898-4.71,1.954-9.384,6.519-10.816c1.117-0.352,2.246-0.461,3.314-0.364
				c-1.287,0.886-2.137,2.379-2.137,4.067c0,2.731,2.209,4.941,4.941,4.941c2.112,0,3.921-1.323,4.625-3.193
				c0.279,0.765,0.449,1.59,0.498,2.452C206.102,248.787,202.642,252.635,198.855,253.594z"/>
                <path fill="#1A1A1A" d="M109.52,245.752c-0.109,2.428-1.748,5.341-5.123,7.126c-5.244,2.78-11.581-0.291-12.613-6.118
				c-0.91-5.111,2.076-9.178,5.863-10.646c1.433-0.558,2.853-0.716,4.188-0.558c-1.262,0.898-2.088,2.379-2.088,4.042
				c0,2.731,2.209,4.941,4.941,4.941c1.857,0,3.472-1.02,4.31-2.525C109.363,243.154,109.533,244.404,109.52,245.752z"/>
                </g>
            </g>
        </g>
</svg>
