<?xml version="1.0" encoding="utf-8"?>
<svg version="1.1" id="Layer_1" xmlns="http://www.w3.org/2000/svg"
     xmlns:xlink="http://www.w3.org/1999/xlink"
     x="0px" y="0px" viewBox="0 0 504 504"

     xml:space="preserve">
    <style type="text/css">.st0{fill-rule:evenodd;clip-rule:evenodd;}</style>
    <g>
            <g>
                <path fill="#BE272D" d="M388.224,56.805c-0.351-0.153-0.712-0.291-1.078-0.396c-4.815-1.374-9.708-2.27-14.726-2.47
			c-6.12-0.246-12.141,0.515-18.1,1.794c-5.626,1.209-11.229,2.522-16.839,3.802c-3.434,0.783-6.883,1.507-10.402,1.717
			c-3.384,0.202-6.778,0.258-10.17,0.329c-3.134,0.065-6.272,0.026-9.409,0.105c-2.69,0.067-5.359,0.402-7.989,0.985
			c-9.581,2.125-17.01,7.424-22.616,15.388c-0.547,0.777-0.985,1.632-1.461,2.43c0.178,0.323,0.282,0.557,0.426,0.761
			c2.853,4.003,4.78,8.441,6.259,13.106c1.826,5.747,3.112,11.611,4.011,17.567c0.054,0.355,0.206,0.692,0.323,1.069
			c0.416-0.042,0.73-0.087,1.045-0.105c2.363-0.137,4.728-0.396,7.089-0.371c3.844,0.04,7.668,0.472,11.443,1.207
			c4.203,0.821,8.386,1.749,12.571,2.67c4.31,0.948,8.612,1.943,13.021,2.343c3.206,0.289,6.389,0.202,9.548-0.49
			c6.312-1.382,11.921-4.185,16.861-8.334c3.917-3.291,6.97-7.303,9.599-11.655c2.153-3.562,4.08-7.248,5.787-11.046
			c1.283-2.859,2.549-5.727,3.781-8.61c2.672-6.249,5.759-12.277,9.44-17.997c0.519-0.807,1.007-1.636,1.487-2.466
			c0.182-0.317,0.299-0.67,0.424-0.954C388.386,56.991,388.327,56.848,388.224,56.805z M300.401,104.352
			c-2.417,0-4.377-1.961-4.377-4.379c0-2.417,1.961-4.377,4.377-4.377c2.419,0,4.379,1.961,4.379,4.377
			C304.78,102.391,302.819,104.352,300.401,104.352z M301.985,85.463c-3.293,0-5.961-2.668-5.961-5.961s2.668-5.963,5.961-5.963
			c3.293,0,5.963,2.67,5.963,5.963S305.278,85.463,301.985,85.463z M330.215,110.298c-3.293,0-5.963-2.668-5.963-5.961
			c0-3.293,2.67-5.963,5.963-5.963s5.963,2.67,5.963,5.963C336.178,107.629,333.508,110.298,330.215,110.298z M332.073,82.087
			c-2.419,0-4.377-1.961-4.377-4.379c0-2.417,1.959-4.377,4.377-4.377s4.379,1.961,4.379,4.377
			C336.452,80.126,334.491,82.087,332.073,82.087z M352.143,96.734c-2.419,0-4.379-1.961-4.379-4.379s1.961-4.377,4.379-4.377
			c2.419,0,4.377,1.959,4.377,4.377S354.562,96.734,352.143,96.734z M358.582,79.502c-3.293,0-5.963-2.67-5.963-5.963
			c0-3.293,2.67-5.961,5.963-5.961s5.961,2.668,5.961,5.961C364.543,76.832,361.875,79.502,358.582,79.502z"/>
                <path fill="#BE272D" d="M225.914,78.305c0.23-0.297,0.436-0.615,0.644-0.908c-0.688-2.068-1.796-3.773-3.446-5.059
			c-1.207-0.94-2.478-1.822-3.818-2.553c-2.942-1.608-6.112-2.601-9.419-3.14c-4.619-0.751-9.274-1.086-13.951-1.184
			c-6.719-0.141-13.437-0.248-20.124-1.043c-7.987-0.948-15.715-2.867-23.131-5.993c-3.065-1.293-6.104-2.639-9.161-3.947
			c-0.638-0.274-1.3-0.484-2.165-0.803c-0.103,1.754,0.27,3.12,0.551,4.486c1.421,6.919,3.719,13.564,6.403,20.078
			c5.507,13.356,13.528,24.927,24.537,34.358c4.831,4.139,9.974,7.785,15.856,10.333c5.212,2.256,10.588,3.707,16.27,4.159
			c4.496,0.355,8.953,0.044,13.421-0.252c0.555-0.038,1.1-0.188,1.572-0.272c0.089-0.264,0.151-0.379,0.165-0.5
			c0.341-2.859,0.638-5.721,1.023-8.572c0.529-3.935,1.118-7.864,0.868-11.851c-0.135-2.169-0.323-4.34-0.563-6.501
			c-0.307-2.744-0.474-5.491-0.214-8.239C221.665,86.294,223.041,82.018,225.914,78.305z M162.057,77.918
			c-2.419,0-4.377-1.961-4.377-4.379c0-2.419,1.959-4.377,4.377-4.377c2.419,0,4.379,1.959,4.379,4.377
			C166.436,75.957,164.475,77.918,162.057,77.918z M177.787,98.318c-3.293,0-5.963-2.67-5.963-5.963c0-3.293,2.67-5.961,5.963-5.961
			c3.293,0,5.963,2.668,5.963,5.961C183.751,95.647,181.08,98.318,177.787,98.318z M204.079,116.445
			c-2.419,0-4.377-1.961-4.377-4.379c0-2.419,1.959-4.377,4.377-4.377s4.379,1.959,4.379,4.377
			C208.458,114.485,206.497,116.445,204.079,116.445z M203.841,89.632c-3.293,0-5.963-2.668-5.963-5.961
			c0-3.293,2.67-5.963,5.963-5.963c3.293,0,5.961,2.67,5.961,5.963C209.802,86.964,207.134,89.632,203.841,89.632z"/>
                <path fill="#BE272D" d="M384.79,188.395c-1.643-9.936-4.318-19.601-7.815-29.045c-2.557-6.907-5.561-13.616-8.915-20.17
			c-3.711-7.25-7.944-14.173-12.805-20.711c-0.18-0.244-0.416-0.45-0.658-0.708c-0.349,0.17-0.636,0.293-0.91,0.444
			c-2.982,1.645-6.124,2.863-9.413,3.761c-4.322,1.178-8.705,1.441-13.132,1.053c-4.08-0.361-8.098-1.168-12.099-2.032
			c-5.622-1.213-11.199-2.649-16.91-3.442c-4.009-0.557-8.027-0.749-12.061-0.502c-1.061,0.065-2.141,0.145-3.225,0.577
			c0.121,2.238,0.315,4.405,0.333,6.574c0.016,2.173-0.038,4.357-0.26,6.516c-0.222,2.147-0.692,4.268-1.067,6.475
			c0.299,0.071,0.599,0.165,0.906,0.212c6.469,1.031,12.72,2.861,18.835,5.162c11.346,4.27,21.7,10.315,31.311,17.66
			c15.009,11.471,27.41,25.334,37.589,41.211c3.562,5.553,6.754,11.314,9.625,17.255c0.266,0.549,0.402,1.201,1.067,1.695
			c0.165-0.815,0.343-1.485,0.428-2.163c0.446-3.495,0.753-7,0.779-10.525C386.442,201.213,385.847,194.78,384.79,188.395z
			 M306.041,134.579c-2.419,0-4.379-1.961-4.379-4.377c0-2.419,1.961-4.379,4.379-4.379c2.417,0,4.377,1.961,4.377,4.379
			C310.418,132.618,308.457,134.579,306.041,134.579z M327.315,140.542c-2.419,0-4.379-1.961-4.379-4.379s1.961-4.377,4.379-4.377
			c2.419,0,4.377,1.959,4.377,4.377S329.733,140.542,327.315,140.542z M352.143,145.133c-3.293,0-5.963-2.668-5.963-5.961
			c0-3.293,2.67-5.963,5.963-5.963s5.961,2.67,5.961,5.963C358.104,142.465,355.436,145.133,352.143,145.133z M360.622,164.102
			c-3.293,0-5.961-2.67-5.961-5.963c0-3.293,2.668-5.963,5.961-5.963s5.963,2.67,5.963,5.963
			C366.585,161.431,363.915,164.102,360.622,164.102z M374.551,186.89c-2.419,0-4.379-1.959-4.379-4.377
			c0-2.419,1.961-4.379,4.379-4.379s4.377,1.961,4.377,4.379C378.928,184.931,376.969,186.89,374.551,186.89z"/>
                <path fill="#BE272D" d="M282.761,125.212c0.014-4.726-0.498-9.234-1.168-13.733c-0.948-6.344-2.474-12.539-4.627-18.582
			c-1.188-3.333-2.785-6.453-4.861-9.326c-2.825-3.909-6.497-6.615-11.098-8.136c-5.065-1.673-10.243-2.171-15.525-1.76
			c-3.204,0.248-6.32,0.95-9.288,2.22c-4.805,2.062-8.051,5.549-9.613,10.565c-0.708,2.274-1.18,4.599-1.084,6.984
			c0.095,2.425,0.281,4.851,0.541,7.266c0.49,4.534,0.63,9.058-0.052,13.586c-0.41,2.718-0.807,5.44-1.154,8.168
			c-0.305,2.419-0.361,4.853-0.101,7.28c0.422,3.951,2.167,7.347,4.736,10.289c1.078,1.235,2.425,2.294,3.802,3.198
			c1.604,1.053,3.414,1.677,5.374,1.893c2.553,0.282,5.111,0.282,7.668,0.258c4.173-0.038,8.297,0.408,12.412,1.047
			c2.91,0.452,5.84,0.775,8.792,0.563c3.85-0.276,7.149-1.828,9.944-4.461c2.419-2.278,3.656-5.204,4.463-8.344
			C282.693,131.185,282.822,128.12,282.761,125.212z M232.509,105.954c0-2.419,1.961-4.379,4.379-4.379s4.377,1.961,4.377,4.379
			c0,2.417-1.959,4.377-4.377,4.377S232.509,108.371,232.509,105.954z M240.078,133.209c-3.293,0-5.961-2.668-5.961-5.961
			c0-3.293,2.668-5.963,5.961-5.963c3.293,0,5.963,2.67,5.963,5.963C246.042,130.54,243.371,133.209,240.078,133.209z
			 M246.042,95.596c-3.293,0-5.963-2.67-5.963-5.963s2.67-5.961,5.963-5.961c3.293,0,5.961,2.668,5.961,5.961
			S249.335,95.596,246.042,95.596z M266.049,137.588c-2.417,0-4.377-1.961-4.377-4.379c0-2.417,1.961-4.377,4.377-4.377
			c2.419,0,4.379,1.961,4.379,4.377C270.428,135.627,268.467,137.588,266.049,137.588z M266.049,116.261
			c-3.293,0-5.961-2.668-5.961-5.963c0-3.293,2.668-5.961,5.961-5.961c3.293,0,5.963,2.668,5.963,5.961
			C272.012,113.592,269.342,116.261,266.049,116.261z"/>
                <path fill="#BE272D" d="M220.329,131.153c-1.164,0.057-2.25,0.063-3.323,0.174c-3.832,0.396-7.672,0.391-11.508,0.202
			c-3.069-0.151-6.106-0.599-9.101-1.32c-7.64-1.84-14.504-5.333-20.855-9.865c-5.386-3.844-10.182-8.36-14.595-13.288
			c-0.361-0.404-0.619-0.973-1.481-1.102c-0.176,0.232-0.383,0.561-0.642,0.841c-5.061,5.458-9.559,11.358-13.691,17.537
			c-3.523,5.271-6.659,10.769-9.496,16.443c-8.035,16.076-13.818,32.875-16.363,50.721c-1.189,8.336-1.497,16.692-0.587,25.074
			c0.129,1.187,0.268,2.383,0.963,3.592c0.313-0.621,0.632-1.235,0.936-1.86c8.255-16.958,19.03-32.116,32.439-45.386
			c9.655-9.552,20.336-17.747,32.332-24.164c10.798-5.779,22.164-9.902,34.34-11.613c0.739-0.103,1.479-0.216,2.314-0.339
			C221.431,134.856,220.892,133.046,220.329,131.153z M134.986,182.513c-2.417,0-4.377-1.961-4.377-4.379
			c0-2.417,1.961-4.377,4.377-4.377c2.419,0,4.379,1.961,4.379,4.377C139.365,180.552,137.405,182.513,134.986,182.513z
			 M148.522,163.057c-3.293,0-5.963-2.668-5.963-5.961c0-3.293,2.67-5.963,5.963-5.963c3.293,0,5.961,2.67,5.961,5.963
			C154.484,160.388,151.815,163.057,148.522,163.057z M153.873,128.832c0-3.293,2.67-5.963,5.963-5.963
			c3.293,0,5.961,2.67,5.961,5.963c0,3.293-2.668,5.961-5.961,5.961C156.543,134.793,153.873,132.124,153.873,128.832z
			 M165.401,151.693c-2.419,0-4.377-1.961-4.377-4.379c0-2.417,1.959-4.377,4.377-4.377s4.379,1.961,4.379,4.377
			C169.78,149.733,167.82,151.693,165.401,151.693z M179.564,140.542c-2.419,0-4.379-1.961-4.379-4.379s1.961-4.377,4.379-4.377
			c2.419,0,4.377,1.959,4.377,4.377S181.982,140.542,179.564,140.542z"/>
            </g>
        <g>
                <path fill="#1A1A1A" d="M317.695,255.123c-0.112-1.512,0.237-2.561,0.55-3.585c0.541-1.771,1.097-3.556,1.855-5.24
			c2.766-6.146,6.029-12.008,10.23-17.315c1.515-1.914,3.133-3.713,5.019-5.276c3.262-2.704,6.908-4.623,11.066-5.486
			c3.068-0.636,6.156-1.182,9.236-1.761c0.18-0.034,0.373-0.004,0.65-0.004c-0.223,1.102-1.332,1.537-1.723,2.454
			c0.095,0.456,0.468,0.352,0.751,0.337c3.132-0.165,6.266-0.314,9.394-0.533c1.465-0.103,2.924-0.328,4.38-0.535
			c1.655-0.234,3.242-0.725,4.788-1.353c0.337-0.137,0.685-0.248,1.082-0.39c-0.238,1.614-0.594,2.533-1.918,4.155
			c-1.007,1.234-2.064,2.471-3.289,3.473c-1.169,0.956-2.585,1.611-4.098,2.522c0.211,0.108,0.36,0.232,0.526,0.263
			c3.739,0.691,7.502,0.774,11.279,0.405c0.058-0.006,0.112-0.055,0.327-0.166c0.688-2.922,0.827-6.057,1.51-9.074
			c0.318-0.146,0.487-0.019,0.621,0.241c0.204,0.398,0.41,0.798,0.647,1.177c1.073,1.713,2.369,3.183,4.477,3.849
			c-0.107,0.912-0.21,1.787-0.329,2.797c0.379,0,0.753,0.074,1.085-0.013c1.482-0.39,2.951-0.833,4.428-1.241
			c0.349-0.096,0.714-0.131,1.273-0.229c-1.842,3.924-4.477,6.914-7.684,9.523c-0.33,1.538-0.305,3.134-0.272,4.729
			c0.138,6.664,1.528,13.067,3.944,19.271c1.927,4.948,3.835,9.905,5.646,14.897c2.779,7.66,4.65,15.56,6.024,23.586
			c0.843,4.927,1.464,9.884,1.733,14.869c0.317,5.883,0.311,11.773-0.078,17.661c-0.275,4.155-0.708,8.29-1.315,12.408
			c-1.678,11.394-4.609,22.42-9.542,32.874c-6.93,14.687-17.017,26.698-30.322,36.014c-9.272,6.492-19.283,11.611-29.704,15.956
			c-6.202,2.586-12.55,4.776-19.008,6.638c-8.438,2.433-16.622,5.522-24.541,9.327c-2.535,1.218-5.129,2.317-7.715,3.428
			c-2.83,1.216-5.753,2.118-8.815,2.565c-2.72,0.397-5.416,0.99-8.144,1.298c-5.798,0.655-11.623,0.872-17.451,0.513
			c-3.259-0.201-6.464-0.832-9.651-1.57c-5.763-1.334-11.207-3.552-16.628-5.84c-3.948-1.666-7.859-3.421-11.814-5.07
			c-5.736-2.392-11.687-4.148-17.648-5.871c-1.29-0.373-2.578-0.753-3.864-1.141c-2.081-0.63-4.12-1.344-6.092-2.297
			c-2.358-1.139-4.83-2.042-7.23-3.098c-9.627-4.233-18.922-9.07-27.525-15.168c-10.275-7.284-18.736-16.265-25.236-27.054
			c-5.492-9.116-9.347-18.912-11.808-29.255c-1.646-6.92-2.757-13.935-3.408-21.018c-0.628-6.834-0.743-13.69-0.372-20.535
			c0.538-9.933,2.189-19.704,4.728-29.327c1.816-6.883,4.32-13.525,6.911-20.139c1.564-3.991,3.163-7.968,4.197-12.145
			c1.256-5.072,1.735-10.211,1.462-15.424c-0.017-0.316-0.072-0.63-0.119-1.019c-3.177-2.59-5.889-5.598-7.747-9.596
			c2.357,0.467,4.39,1.463,6.733,1.572c0.126-0.839-0.284-1.574-0.14-2.398c0.687-0.455,1.497-0.863,2.141-1.452
			c0.699-0.64,1.26-1.437,1.85-2.189c0.532-0.678,0.71-1.595,1.509-2.411c0.804,3.23,0.94,6.351,1.583,9.345
			c2.602,0.728,9.629,0.451,12.097-0.51c-1.364-0.812-2.752-1.442-3.898-2.372c-1.23-0.998-2.282-2.234-3.32-3.444
			c-1.004-1.171-1.734-2.524-2.141-4.004c0.319-0.398,0.624-0.155,0.881-0.041c2.609,1.151,5.36,1.7,8.183,1.908
			c3.256,0.239,6.514,0.439,9.773,0.638c0.548,0.034,1.101-0.019,1.916-0.038c-0.774-0.977-1.387-1.75-1.98-2.499
			c0.297-0.466,0.62-0.234,0.889-0.182c3.327,0.647,6.657,1.28,9.974,1.974c2.663,0.557,5.088,1.71,7.352,3.195
			c2.476,1.624,4.693,3.546,6.593,5.831c4.992,6.008,8.829,12.713,11.867,19.878c0.769,1.815,1.22,3.767,1.778,5.667
			c0.158,0.539,0.178,1.12,0.307,1.994c-0.453-0.358-0.685-0.509-0.876-0.701c-0.271-0.271-0.499-0.584-0.767-0.858
			c-1.428-1.461-3.139-2.252-5.192-1.858c-1.136,0.218-1.966-0.096-2.794-0.823c-0.815-0.716-1.706-1.353-2.598-1.973
			c-2.702-1.879-5.721-2.485-8.95-2.091c-2.044,0.249-3.996,0.855-5.89,1.665c-2.998,1.283-5.989,2.586-9.016,3.798
			c-4.774,1.912-9.766,3.03-14.818,3.9c-0.625,0.108-1.279,0.121-1.913,0.079c-1.126-0.074-1.945-0.665-2.287-1.748
			c-0.209-0.661-0.327-1.369-0.368-2.062c-0.131-2.251,0.183-4.473,0.57-6.682c0.532-3.035,1.341-5.992,2.58-8.823
			c0.125-0.285,0.203-0.59,0.354-1.04c-1.383,0.158-2.632,0.355-3.889,0.43c-1.198,0.071-2.403,0.015-3.616,0.015
			c-0.085,0.264-0.189,0.437-0.191,0.612c-0.095,7.17-1.501,14.114-3.663,20.916c-1.317,4.145-2.643,8.293-4.157,12.368
			c-3.401,9.149-5.918,18.524-7.421,28.163c-0.661,4.237-1.086,8.503-1.354,12.789c-0.261,4.16-0.384,8.317-0.203,12.477
			c0.587,13.5,2.707,26.722,7.201,39.516c3.161,8.998,7.421,17.412,13.108,25.087c5.269,7.111,11.585,13.139,18.764,18.296
			c8.468,6.082,17.679,10.797,27.229,14.893c7.186,3.082,14.592,5.516,22.158,7.473c0.483,0.125,0.982,0.192,1.567,0.303
			c-0.109-0.775-0.68-1.015-1.076-1.366c-5.706-5.056-11.224-10.307-16.491-15.821c-2.88-3.015-5.561-6.199-7.762-9.751
			c-0.739-1.192-1.401-2.447-1.943-3.739c-0.591-1.41,0.069-2.554,1.496-2.954c0.608-0.17,1.163-0.047,1.647,0.279
			c0.474,0.318,0.912,0.708,1.306,1.123c0.838,0.881,1.666,1.775,2.448,2.706c6.16,7.329,13.172,13.793,20.365,20.07
			c3.962,3.457,8.192,6.561,12.619,9.399c3.618,2.319,7.399,4.331,11.334,6.05c1.227,0.536,2.493,1.01,3.778,1.387
			c5.651,1.658,11.353,3.117,17.215,3.818c1.585,0.189,3.19,0.289,4.786,0.3c10.153,0.072,19.998-1.661,29.515-5.196
			c3.549-1.318,6.869-3.123,10.113-5.062c6.9-4.124,13.134-9.119,19.064-14.523c5.827-5.31,11.47-10.794,16.551-16.836
			c0.863-1.026,1.796-2.006,2.786-2.909c0.939-0.857,1.883-0.888,2.814-0.296c0.84,0.534,1.203,1.356,0.896,2.313
			c-0.233,0.726-0.565,1.428-0.919,2.107c-1.099,2.107-2.47,4.038-3.916,5.918c-2.072,2.695-4.363,5.197-6.745,7.617
			c-4.808,4.885-9.763,9.614-14.915,14.136c-0.327,0.287-0.641,0.591-1.028,0.95c0.538,0.379,0.959,0.198,1.346,0.083
			c4.168-1.239,8.382-2.345,12.486-3.767c12.628-4.376,24.629-10.052,35.691-17.618c9.475-6.481,17.401-14.468,23.615-24.137
			c4.561-7.097,7.985-14.72,10.619-22.72c2.368-7.195,3.951-14.561,5.022-22.053c1.008-7.05,1.544-14.128,1.434-21.247
			c-0.089-5.765-0.567-11.503-1.361-17.217c-1.477-10.633-4.234-20.928-8.034-30.959c-2.201-5.808-4.045-11.735-5.55-17.762
			c-1.15-4.61-1.785-9.298-1.894-14.053c-0.007-0.316-0.044-0.631-0.073-1.025c-0.245-0.065-0.48-0.189-0.709-0.179
			c-2.115,0.096-4.223,0.126-6.301-0.396c-0.157-0.039-0.35,0.069-0.617,0.128c0.227,0.576,0.435,1.104,0.643,1.632
			c1.772,4.51,2.765,9.182,2.854,14.032c0.014,0.762-0.027,1.547-0.196,2.287c-0.352,1.543-1.296,2.264-2.877,2.289
			c-0.573,0.009-1.153-0.043-1.719-0.134c-7.247-1.166-14.175-3.362-20.839-6.425c-1.625-0.747-3.278-1.451-4.967-2.036
			c-2.505-0.868-5.076-1.257-7.744-0.772c-1.863,0.339-3.567,1.005-5.092,2.114c-0.983,0.715-1.943,1.464-2.89,2.227
			c-0.531,0.428-1.085,0.66-1.771,0.503c-0.186-0.043-0.38-0.053-0.57-0.08c-2.073-0.3-3.766,0.441-5.19,1.904
			C318.757,253.954,318.344,254.421,317.695,255.123z M156.008,240.508c-0.035-2.722-2.187-4.785-4.93-4.727
			c-2.609,0.055-4.712,2.186-4.722,4.786c-0.01,2.658,2.207,4.866,4.875,4.854C153.916,245.409,156.043,243.221,156.008,240.508z
			 M353.807,240.505c-0.036-2.697-2.216-4.78-4.947-4.724c-2.622,0.053-4.687,2.161-4.692,4.79c-0.006,2.688,2.175,4.867,4.854,4.85
			C351.699,245.405,353.843,243.203,353.807,240.505z M145.007,249.815c-0.421-0.505-0.696-0.832-0.967-1.162
			c-0.283-0.344-0.575-0.682-0.84-1.04c-0.265-0.357-0.514-0.728-0.748-1.107c-0.234-0.379-0.452-0.768-0.657-1.163
			c-0.176-0.338-0.336-0.686-0.481-1.039c-0.169-0.411-0.328-0.828-0.467-1.251c-0.138-0.423-0.254-0.853-0.363-1.284
			c-0.11-0.431-0.191-0.87-0.303-1.301c-0.098-0.378,0.076-0.874-0.527-1.22c-1.583,3.531-2.398,7.186-3.257,10.822
			c-0.14,0.591-0.328,1.233,0.081,1.992C139.278,251.543,142.044,250.913,145.007,249.815z M367.789,251.976
			c-0.15-0.998-0.212-1.756-0.385-2.488c-0.396-1.671-0.803-3.342-1.288-4.989c-0.448-1.524-0.998-3.017-1.511-4.522
			c-0.101-0.295-0.193-0.623-0.641-0.587c-0.197,0.922-0.343,1.864-0.607,2.772c-0.266,0.913-0.587,1.821-0.997,2.677
			c-0.438,0.914-0.962,1.796-1.533,2.634c-0.525,0.771-1.163,1.465-1.815,2.271c1.416,0.761,2.84,1.062,4.234,1.398
			C364.645,251.481,366.031,251.967,367.789,251.976z M174.78,242.011c-0.936-1.973-4.316-6.482-6.724-9.018
			c-0.334-0.351-0.584-0.859-1.312-0.838c0.746,3.082,0.811,6.173,0.154,9.468c1.415,0.019,2.679-0.148,3.93-0.049
			C172.085,241.673,173.336,241.848,174.78,242.011z M336.913,241.569c-0.125-1.703-0.347-3.225-0.317-4.742
			c0.031-1.559,0.308-3.112,0.5-4.872c-0.383,0.292-0.657,0.444-0.859,0.663c-2.507,2.72-4.763,5.639-6.85,8.69
			c-0.109,0.16-0.084,0.413-0.135,0.697c1.341-0.157,2.53-0.354,3.725-0.421C334.236,241.514,335.502,241.569,336.913,241.569z
			 M353.119,229.884c-0.047,1.473,1.282,2.829,2.761,2.818c1.432-0.011,2.654-1.216,2.7-2.664c0.047-1.472-1.074-2.693-2.546-2.773
			C354.482,227.18,353.167,228.361,353.119,229.884z M158.165,227.261c-1.52-0.039-2.722,1.073-2.783,2.574
			c-0.063,1.55,1.204,2.881,2.726,2.863c1.443-0.017,2.698-1.268,2.719-2.708C160.847,228.537,159.639,227.299,158.165,227.261z"/>
            <path fill="#1A1A1A" d="M113.88,203.637c-0.279,4.592,0.044,9.173,0.651,13.802c-1.089,0.685-2.256,1.015-3.398,1.379
			c-4.943,1.572-9.939,2.945-15.086,3.667c-7.821,1.098-15.585,0.974-23.192-1.392c-5.965-1.855-11.239-4.908-15.652-9.377
			c-7.054-7.142-12.011-15.574-15.329-25.002c-1.748-4.968-2.839-10.088-3.538-15.308c-0.927-6.922-1.417-13.88-1.911-20.84
			c-0.68-9.58-1.567-19.139-3.092-28.628c-1.026-6.385-2.417-12.694-3.947-18.975c-0.939-3.854-1.845-7.717-2.673-11.596
			c-0.319-1.493-0.498-3.039-0.519-4.564c-0.015-1.062,0.202-2.183,0.569-3.184c0.825-2.247,2.464-3.511,4.933-3.591
			c2.828-0.092,5.631,0.196,8.421,0.581c8.05,1.113,16.088,2.303,24.141,3.396c6.975,0.946,13.969,1.75,20.943,2.707
			c7.86,1.079,15.721,2.164,23.553,3.425c7.743,1.246,15.172,3.595,22.277,6.948c6.672,3.149,12.531,7.439,17.8,12.569
			c0.222,0.216,0.409,0.468,0.694,0.798c-4.857,6.169-9.366,12.523-13.337,19.413c-0.375-0.311-0.683-0.507-0.916-0.771
			c-0.508-0.576-0.972-1.19-1.462-1.781c-4.69-5.658-10.504-9.908-16.902-13.401c-5.636-3.077-11.626-5.318-17.712-7.318
			c-4.192-1.378-8.397-2.716-12.568-4.157c-5.33-1.842-10.426-4.237-15.478-6.728c-2.582-1.273-5.172-2.532-7.764-3.785
			c-4.465-2.16-9.177-3.546-14.036-4.477c-2.707-0.518-5.434-0.868-8.183-1.042c-0.613-0.039-1.23-0.006-1.801-0.006
			c-0.183,0.611,0.228,0.806,0.461,1.072c1.645,1.878,3.348,3.707,4.947,5.624c6.318,7.575,10.347,16.255,12.428,25.874
			c0.951,4.397,1.351,8.847,1.527,13.334c0.226,5.757,0.379,11.525,0.862,17.263c0.894,10.599,3.242,20.852,8.009,30.453
			c1.31,2.639,2.821,5.156,4.511,7.543c-0.316,0.476-0.607,0.158-0.821,0.038c-2.469-1.383-4.72-3.064-6.79-4.993
			c-6.218-5.796-10.561-12.791-13.392-20.777c-1.975-5.57-3.258-11.305-4.261-17.114c-0.751-4.351-1.43-8.717-2.296-13.045
			c-1.365-6.822-3.851-13.258-7.037-19.43c-0.11-0.213-0.26-0.405-0.633-0.979c0.04,0.788,0.01,1.143,0.082,1.477
			c1.737,8.08,2.962,16.241,3.816,24.457c0.43,4.137,0.782,8.284,1.113,12.431c0.535,6.7,1.022,13.403,1.932,20.067
			c1.722,12.615,6.639,23.844,14.571,33.777c4.413,5.526,9.807,9.7,16.544,12.031c3.652,1.264,7.407,1.995,11.266,2.181
			c5.142,0.248,10.235-0.142,15.273-1.206c0.426-0.09,0.838-0.249,1.43-0.429c-0.684-0.457-1.305-0.273-1.863-0.376
			c-0.629-0.117-1.265-0.196-1.897-0.295c-8.413-1.317-16.21-4.2-23.117-9.252c-4.017-2.938-7.307-6.598-10.117-10.693
			c-0.347-0.506-0.725-1.015-0.894-1.866c2.181,1.163,4.151,2.299,6.195,3.281c2.073,0.996,4.207,1.87,6.337,2.742
			c2.071,0.848,4.163,1.661,6.363,2.119c2.253,0.469,4.503,0.982,6.779,1.302c2.275,0.32,4.574,0.572,6.875,0.366
			c0.278-0.515-0.168-0.71-0.407-0.958c-4.717-4.895-8.294-10.55-11.158-16.683c-0.097-0.208-0.166-0.428-0.419-1.089
			c0.747,0.598,1.129,0.889,1.496,1.198c3.181,2.681,6.287,5.458,9.557,8.027c4.956,3.894,10.345,7.079,16.277,9.29
			C113.208,203.27,113.48,203.438,113.88,203.637z"/>
            <path fill="#1A1A1A" d="M389.902,217.733c0.218-4.865,0.426-9.525,0.636-14.211c0.245-0.156,0.439-0.33,0.666-0.417
			c6.527-2.487,12.367-6.147,17.77-10.518c2.736-2.213,5.352-4.576,8.025-6.867c0.316-0.271,0.653-0.518,1.271-1.005
			c-0.386,1.33-0.883,2.204-1.332,3.093c-0.49,0.971-1.004,1.93-1.54,2.877c-0.504,0.891-1.036,1.767-1.582,2.633
			c-0.546,0.866-1.106,1.725-1.692,2.564c-0.586,0.839-1.195,1.664-1.826,2.471c-0.671,0.857-1.362,1.699-2.075,2.52
			c-0.658,0.758-1.358,1.481-2.014,2.191c0.256,0.486,0.617,0.362,0.905,0.36c5.809-0.042,11.466-0.992,16.936-2.953
			c4.886-1.752,9.641-3.799,14.061-6.558c0.16-0.1,0.348-0.159,0.528-0.222c0.038-0.013,0.099,0.042,0.258,0.118
			c-0.118,0.266-0.199,0.564-0.365,0.801c-0.917,1.31-1.803,2.646-2.794,3.897c-5.883,7.429-13.585,12.126-22.539,14.925
			c-3.92,1.225-7.923,2.035-12.383,2.422c0.694,0.286,1.057,0.503,1.448,0.586c5.481,1.169,11.029,1.625,16.61,1.17
			c8.407-0.685,15.969-3.536,22.2-9.374c1.815-1.7,3.503-3.571,5.037-5.53c6.493-8.29,10.994-17.547,13.089-27.903
			c0.558-2.756,0.954-5.55,1.312-8.341c0.797-6.225,1.16-12.49,1.641-18.745c0.9-11.687,2.342-23.304,4.775-34.783
			c0.085-0.4,0.077-0.819,0.119-1.305c-0.574,0.275-0.676,0.735-0.873,1.119c-3.768,7.346-6.316,15.081-7.613,23.248
			c-0.963,6.065-1.917,12.138-3.405,18.106c-1.289,5.17-3.01,10.188-5.445,14.937c-3.231,6.301-7.614,11.673-13.215,16.018
			c-1.159,0.899-2.439,1.643-3.674,2.442c-0.251,0.162-0.548,0.252-0.979,0.445c0.09-0.344,0.092-0.53,0.18-0.657
			c5.301-7.643,8.501-16.156,10.451-25.187c1.423-6.59,2.117-13.263,2.353-19.996c0.163-4.67,0.388-9.339,0.634-14.006
			c0.34-6.448,1.865-12.647,4.112-18.676c2.166-5.811,5.307-11.073,9.219-15.869c1.658-2.033,3.452-3.953,5.173-5.935
			c0.273-0.315,0.768-0.515,0.638-1.151c-0.442-0.245-0.955-0.113-1.437-0.086c-3.071,0.172-6.111,0.588-9.132,1.172
			c-5.182,1.003-10.136,2.664-14.866,5.005c-3.154,1.561-6.319,3.098-9.477,4.65c-6.908,3.396-14.121,5.998-21.464,8.266
			c-5.319,1.643-10.565,3.488-15.671,5.723c-6.262,2.741-12.009,6.298-17.21,10.726c-2.2,1.872-4.11,4.034-5.947,6.26
			c-0.357,0.432-0.745,0.839-1.183,1.33c-2.937-4.728-5.797-9.332-8.711-14.024c0.255-0.269,0.544-0.599,0.86-0.902
			c3.055-2.936,5.818-6.126,8.313-9.549c1.514-2.077,2.851-4.264,3.864-6.621c0.5-1.163,1.295-1.78,2.409-2.268
			c5.947-2.601,12.097-4.546,18.483-5.674c4.913-0.868,9.85-1.603,14.788-2.315c5.383-0.776,10.778-1.471,16.171-2.175
			c4.378-0.572,8.765-1.077,13.141-1.664c5.073-0.681,10.138-1.425,15.208-2.13c4.88-0.679,9.757-1.381,14.646-1.994
			c1.518-0.19,3.069-0.186,4.603-0.16c2.898,0.05,4.776,1.61,5.484,4.43c0.364,1.45,0.433,2.921,0.181,4.384
			c-0.337,1.953-0.71,3.903-1.152,5.835c-1.385,6.049-2.859,12.079-4.203,18.137c-1.108,4.999-1.858,10.065-2.57,15.136
			c-1.015,7.232-1.587,14.506-2.167,21.78c-0.321,4.02-0.531,8.05-0.9,12.065c-0.609,6.629-1.314,13.244-3.008,19.714
			c-2.384,9.105-6.507,17.347-12.171,24.836c-1.858,2.457-3.944,4.719-6.237,6.775c-4.918,4.409-10.653,7.245-17.069,8.747
			c-5.927,1.388-11.908,1.519-17.939,0.884c-6.273-0.661-12.316-2.278-18.284-4.234C391.296,218.31,390.657,218.027,389.902,217.733
			z"/>
            <path fill="#1A1A1A" d="M201.869,276.427c-0.259,2.314-0.874,4.242-1.677,6.114c-1.038,2.419-2.353,4.688-3.805,6.88
			c-0.813,1.227-1.643,2.444-2.446,3.678c-1.477,2.27-2.566,4.718-3.287,7.329c-0.119,0.431-0.204,0.872-0.282,1.313
			c-0.019,0.11,0.051,0.236,0.102,0.44c0.233-0.095,0.471-0.156,0.67-0.28c5.255-3.281,11.008-5.4,16.862-7.302
			c2.797-0.909,5.565-1.907,8.332-2.905c3.74-1.349,7.285-3.109,10.774-5.016c2.69-1.471,5.482-2.765,8.281-4.023
			c2.778-1.249,5.726-1.798,8.784-1.676c1.6,0.064,3.2,0.106,4.798,0.199c2.757,0.161,5.504,0.029,8.248-0.22
			c0.191-0.017,0.383-0.034,0.574-0.055c4.524-0.499,8.786,0.349,12.81,2.462c2.719,1.428,5.486,2.768,8.164,4.269
			c4.715,2.643,9.746,4.503,14.841,6.224c2.605,0.88,5.212,1.756,7.813,2.649c3.766,1.293,7.338,3.002,10.759,5.034
			c0.378,0.225,0.771,0.426,1.131,0.624c0.451-0.26,0.227-0.59,0.167-0.86c-0.647-2.904-1.811-5.595-3.42-8.091
			c-0.936-1.453-1.928-2.87-2.857-4.327c-1.758-2.758-3.394-5.582-4.335-8.743c-0.291-0.979-0.495-1.985-0.719-2.983
			c-0.034-0.151,0.04-0.327,0.087-0.647c0.289,0.244,0.495,0.379,0.652,0.557c3.614,4.077,7.572,7.815,11.444,11.639
			c2.96,2.924,5.863,5.908,8.708,8.944c3.482,3.717,6.29,7.91,8.432,12.539c1.209,2.612,2.481,5.197,3.608,7.845
			c0.904,2.125,1.377,4.399,1.765,6.668c1.085,6.346,1.376,12.759,0.711,19.142c-1.004,9.636-3.579,18.852-8.498,27.292
			c-1.158,1.987-2.389,3.957-3.807,5.761c-3.4,4.324-7.562,7.579-13.061,8.904c-7.697,1.855-14.862,5.109-21.939,8.569
			c-2.241,1.096-4.472,2.213-6.712,3.312c-4.514,2.216-9.297,3.588-14.22,4.517c-7.144,1.348-14.358,1.771-21.606,1.461
			c-6.988-0.299-13.893-1.211-20.6-3.317c-2.509-0.788-4.934-1.776-7.292-2.931c-2.069-1.012-4.128-2.044-6.188-3.074
			c-4.868-2.434-9.848-4.614-14.972-6.448c-1.923-0.688-3.909-1.202-5.861-1.813c-1.524-0.477-3.062-0.921-4.552-1.49
			c-1.986-0.759-3.716-1.928-5.354-3.312c-3.234-2.733-5.658-6.076-7.777-9.683c-4.171-7.099-6.629-14.797-8.073-22.864
			c-1.207-6.743-1.157-13.504-0.447-20.28c0.18-1.715,0.49-3.418,0.786-5.118c0.463-2.662,1.317-5.205,2.477-7.642
			c1.182-2.485,2.385-4.959,3.592-7.432c1.582-3.242,3.654-6.157,5.96-8.92c2.961-3.546,6.249-6.779,9.54-10.007
			c4.113-4.035,8.31-7.987,12.137-12.304C201.244,276.856,201.46,276.739,201.869,276.427z M329.147,345.755
			c-0.072-1.063-0.156-2.661-0.294-4.254c-0.483-5.572-1.595-11.011-3.538-16.264c-3.21-8.677-8.585-15.647-16.375-20.714
			c-3.938-2.561-8.17-4.503-12.576-6.091c-2.105-0.759-4.223-1.481-6.326-2.247c-4.025-1.466-8.049-2.935-11.925-4.777
			c-1.731-0.822-3.49-1.588-5.256-2.333c-4.485-1.892-9.16-2.739-14.036-2.637c-4.927,0.103-9.857,0.093-14.786,0.096
			c-2.326,0.001-4.605,0.294-6.797,1.048c-2.355,0.81-4.744,1.58-6.988,2.643c-7.008,3.318-14.219,6.079-21.612,8.405
			c-2.617,0.823-5.176,1.858-7.699,2.944c-2.404,1.035-4.782,2.141-6.959,3.641c-6.675,4.597-11.488,10.679-14.607,18.133
			c-2.064,4.933-3.254,10.086-3.993,15.369c-0.952,6.801-0.674,13.533,0.939,20.203c1.448,5.992,4.013,11.454,7.887,16.275
			c3.184,3.962,7.121,6.756,12.141,7.908c2.679,0.615,5.334,1.342,8.02,1.921c3.943,0.85,7.783,2.072,11.666,3.138
			c3.275,0.899,6.583,1.61,9.995,1.744c3.668,0.144,7.303-0.179,10.869-0.981c3.428-0.771,6.803-1.772,10.21-2.637
			c1.111-0.282,2.241-0.541,3.378-0.66c2.976-0.312,5.885,0.135,8.684,1.138c4.362,1.565,8.845,2.557,13.446,3.002
			c2.615,0.253,5.239,0.238,7.858-0.07c2.997-0.354,5.914-1.071,8.8-1.917c3.805-1.115,7.617-2.188,11.503-3.001
			c2.439-0.51,4.847-1.174,7.263-1.788c3.681-0.936,6.86-2.753,9.553-5.439c2.516-2.51,4.527-5.383,6.193-8.504
			C327.581,361.939,329.018,354.27,329.147,345.755z"/>
            <path fill="#1A1A1A" d="M145.772,212.442c0.218-0.366,0.279-0.548,0.402-0.664c4.298-4.029,9.135-7.214,14.686-9.242
			c2.605-0.952,5.304-1.414,8.095-1.352c4.206,0.094,7.872,1.538,11.034,4.284c1.8,1.563,3.303,3.394,4.642,5.358
			c2.024,2.97,3.766,6.099,5.165,9.411c3.275,7.754,5.67,15.758,6.923,24.099c0.715,4.759,1.096,9.536,1.157,14.343
			c0.005,0.42-0.053,0.842-0.101,1.555c-0.518-0.602-0.633-1.083-0.805-1.538c-2.878-7.6-5.837-15.168-9.205-22.568
			c-2.043-4.488-4.224-8.903-6.907-13.055c-1.323-2.047-2.728-4.03-4.357-5.845c-3.543-3.949-7.923-6.455-13.142-7.376
			c-3.505-0.619-7.025-0.453-10.475,0.463c-2.037,0.541-4.041,1.209-6.06,1.819C146.542,212.219,146.257,212.3,145.772,212.442z"/>
            <path fill="#1A1A1A" d="M358.105,212.458c-1.556-0.514-2.875-0.968-4.207-1.385c-3.569-1.118-7.2-1.763-10.965-1.488
			c-6.104,0.446-11.179,2.994-15.32,7.451c-1.66,1.787-3.065,3.773-4.393,5.817c-2.764,4.252-5.001,8.781-7.096,13.387
			c-3.233,7.11-6.09,14.373-8.859,21.673c-0.263,0.694-0.553,1.379-0.836,2.081c-0.502-0.228-0.374-0.586-0.373-0.863
			c0.023-5.388,0.463-10.743,1.343-16.058c1.261-7.609,3.475-14.945,6.407-22.07c1.368-3.325,3.064-6.478,5.029-9.486
			c1.229-1.881,2.612-3.642,4.215-5.221c4.39-4.326,9.686-5.765,15.69-4.871c2.29,0.341,4.466,1.082,6.586,2.014
			c4.561,2.006,8.597,4.79,12.249,8.156c0.14,0.129,0.267,0.275,0.389,0.421C358.002,212.063,358.005,212.137,358.105,212.458z"/>
            <path fill="#1A1A1A" d="M418.66,112.309c-10.153,15.799-23.588,27.912-40.65,36.115c-0.198-0.23-0.398-0.388-0.501-0.594
			c-1.878-3.778-3.743-7.561-5.654-11.429c0.338-0.345,0.667-0.725,1.041-1.054c3.04-2.674,6.377-4.922,9.931-6.85
			c5.063-2.747,10.303-5.101,15.672-7.191c6.26-2.437,12.38-5.191,18.243-8.487c0.538-0.302,1.1-0.562,1.651-0.842
			C418.483,112.088,418.571,112.198,418.66,112.309z"/>
            <path fill="#1A1A1A" d="M132.724,136.48c-1.94,3.939-3.965,7.898-5.921,11.998c-9.781-4.558-18.286-10.569-25.921-17.867
			c-5.671-5.421-12.872-14.313-14.806-18.534c0.592-0.081,0.978,0.299,1.388,0.529c5.971,3.36,12.193,6.189,18.57,8.669
			c5.188,2.018,10.255,4.283,15.165,6.9c3.621,1.93,7.041,4.167,10.152,6.856c0.386,0.334,0.765,0.678,1.135,1.03
			C132.573,136.146,132.613,136.28,132.724,136.48z"/>
            <path fill="#1A1A1A" d="M136.02,341.926c0.668,2.439,1.217,4.467,1.78,6.491c3.262,11.737,7.546,23.087,13.018,33.974
			c2.821,5.614,6.201,10.89,9.979,15.909c0.37,0.492,0.714,1.005,1.259,1.775c-0.939-0.292-1.352-0.779-1.811-1.17
			c-3.322-2.826-6.37-5.921-9.127-9.304c-4.836-5.935-8.855-12.369-11.865-19.417c-2.022-4.734-3.387-9.664-3.965-14.77
			c-0.476-4.205-0.402-8.432,0.315-12.624C135.631,342.628,135.749,342.48,136.02,341.926z"/>
            <path fill="#1A1A1A" d="M367.862,342.113c0.279,0.304,0.413,0.381,0.426,0.476c0.171,1.202,0.375,2.403,0.476,3.611
			c0.704,8.405-0.824,16.45-4.162,24.142c-4.755,10.959-11.575,20.446-20.605,28.307c-0.526,0.458-1.106,0.855-1.666,1.274
			c-0.027,0.02-0.104-0.028-0.279-0.081c0.371-0.528,0.71-1.039,1.078-1.528c3.779-5.02,7.131-10.309,9.986-15.906
			c3.2-6.273,5.887-12.769,8.326-19.372c2.261-6.123,4.157-12.359,5.804-18.672C367.423,343.69,367.614,343.021,367.862,342.113z"/>
            <path fill="#1A1A1A" d="M133.866,265.56c0.353,0.16,0.681,0.301,1.002,0.454c3.965,1.896,8.088,2.326,12.32,1.154
			c2.459-0.68,4.887-1.488,7.291-2.344c3.8-1.353,7.636-2.544,11.649-3.073c2.481-0.327,4.964-0.305,7.417-0.089
			c0.223,0.518-0.101,0.603-0.404,0.715c-5.871,2.167-11.737,4.348-17.614,6.499c-1.679,0.614-3.39,1.138-5.084,1.711
			c-2.836,0.958-5.762,1.141-8.714,0.933c-3.707-0.261-6.33-2.165-7.941-5.489C133.747,265.946,133.822,265.804,133.866,265.56z"/>
            <path fill="#1A1A1A" d="M330.323,261.713c0.426-0.049,0.852-0.113,1.28-0.143c4.526-0.316,8.925,0.399,13.232,1.723
			c2.257,0.694,4.464,1.55,6.713,2.273c2.004,0.644,4.015,1.285,6.058,1.784c3.938,0.961,7.738,0.409,11.39-1.298
			c0.339-0.158,0.678-0.315,0.993-0.461c0.335,0.275,0.13,0.499,0.023,0.709c-1.765,3.468-4.642,5.124-8.486,5.272
			c-3.168,0.122-6.248-0.274-9.233-1.357c-6.363-2.309-12.727-4.615-19.087-6.93c-1.005-0.366-1.994-0.773-2.99-1.16
			C330.251,261.987,330.287,261.85,330.323,261.713z"/>
            <path fill="#1A1A1A" d="M201.84,323.145c1.505-0.434,2.842-0.48,4.185-0.376c3.869,0.298,7.546,1.316,11.035,3.013
			c1.449,0.705,2.792,1.578,3.916,2.734c3.079,3.165,5.416,6.801,6.713,11.044c0.931,3.045,1.098,6.15,0.526,9.299
			c-0.543,2.991-1.536,5.809-3.08,8.423c-2.104,3.561-5.263,5.478-9.359,5.888c-1.098,0.11-2.176-0.017-3.217-0.366
			c-3.063-1.027-4.974-3.764-4.637-7.528c0.113-1.259,0.481-2.511,0.859-3.726c0.436-1.402,1.035-2.753,1.524-4.139
			c0.858-2.431,1.397-4.926,1.279-7.521c-0.186-4.069-1.419-7.785-3.891-11.045c-0.536-0.708-1.191-1.338-1.854-1.934
			c-0.807-0.727-1.687-1.372-2.524-2.067C202.784,324.401,202.215,323.985,201.84,323.145z"/>
            <path fill="#1A1A1A" d="M301.986,323.104c-0.083,0.759-0.6,1.077-1.019,1.442c-0.675,0.587-1.38,1.143-2.092,1.686
			c-2.636,2.01-4.307,4.69-5.394,7.768c-1.433,4.054-1.532,8.147-0.223,12.247c0.466,1.46,1.094,2.869,1.561,4.329
			c0.447,1.396,0.832,2.818,1.147,4.249c0.295,1.343,0.079,2.686-0.382,3.965c-1.002,2.784-3.768,4.561-6.97,4.404
			c-3.801-0.185-7.039-1.712-9.121-4.906c-3.928-6.027-5.336-12.556-2.961-19.57c1.334-3.942,3.573-7.358,6.529-10.273
			c0.855-0.843,1.864-1.583,2.916-2.164c3.864-2.135,8.034-3.279,12.44-3.538C299.62,322.673,300.813,322.762,301.986,323.104z"/>
            </g>
        </g>
</svg>
