<?xml version="1.0" encoding="utf-8"?>
<svg version="1.1" id="Layer_1" xmlns="http://www.w3.org/2000/svg"
     xmlns:xlink="http://www.w3.org/1999/xlink"
     x="0px" y="0px" viewBox="0 0 500 500"

     xml:space="preserve">
    <style type="text/css">.st0{fill-rule:evenodd;clip-rule:evenodd;}</style>
    <g>
            <g>
                <path fill="#1A1A1A" d="M123.976,157.763c1.267,0.308,2.537,0.546,3.751,0.672c-1.897,0.522-3.428,0.819-4.465,0.986
			C123.503,158.886,123.741,158.335,123.976,157.763z"/>
                <path fill="#1A1A1A" d="M75.022,197.443c-0.763,2.532-3.063,4.179-5.576,4.222c-4.686,0.078-7.203-4.744-5.56-8.402
			c0.863-0.273,1.73-0.538,2.601-0.799c-3.252,2.798-0.761,8.366,3.672,7.503c1.817-0.354,3.235-1.818,3.469-3.726
			c0.195-1.588-1.18-4.16-3.138-4.7c-0.162-0.045-0.323-0.079-0.484-0.105c0.849-0.242,1.701-0.481,2.554-0.719
			c0.001,0.001,0.002,0.001,0.003,0.002C74.728,192.119,75.817,194.806,75.022,197.443z"/>
                <path fill="#1A1A1A" d="M126.392,153.233l-0.678-0.262c0.263-0.823,0.522-1.666,0.77-2.551c1.447,0.775,2.733,1.597,3.774,2.428
			c2.056,1.64,2.55,2.834,2.348,3.357c-0.397,1.027-3.48,1.369-8.115,0.254c0.266-0.692,0.528-1.402,0.783-2.147
			c0.797,0.307,0.701,0.266,0.764,0.275c0.318,0.046,0.637-0.131,0.758-0.444C126.936,153.78,126.755,153.373,126.392,153.233z"/>
                <path fill="#1A1A1A" d="M190.001,209.812l1.57-2.201c-0.146,1.741-0.415,3.505-0.794,5.325c-2.034,1.362-4.048,1.571-4.912,0.956
			c-1.674-1.194-1.763-7.121,3.902-11.423c0.508,1.018,1.159,1.783,1.932,2.416c0,0.04,0.001,0.079,0.001,0.119l-2.845,3.989
			c-0.226,0.317-0.153,0.756,0.164,0.982C189.335,210.202,189.775,210.13,190.001,209.812z"/>
                <path fill="#1A1A1A" d="M72.221,196.169c-0.182,1.159-1.07,2.148-2.267,2.409c-3.102,0.676-4.878-3.384-2.346-5.228
			C69.702,191.824,72.624,193.598,72.221,196.169z"/>
                <path fill="#1A1A1A" d="M122.374,161.289c3.06,1.037,6.045,2.771,8.62,5.248c-0.547,0.605-1.342,1.579-2.186,2.929
			c-2.728-1.816-6.045-3.01-9.32-3.224C120.455,164.824,121.428,163.182,122.374,161.289z"/>
                <path fill="#1A1A1A" d="M181.235,171.217c-0.77-0.094-1.558-0.348-2.337-0.804c-4.563-2.674-3.574-9.555,1.44-10.867
			c-0.092,0.591-0.164,1.187-0.205,1.787c-1.974,0.911-3.207,3.274-2.217,5.627c0.185,0.439,0.486,0.911,0.884,1.321
			c0.608,0.627,1.306,1.007,2.023,1.193C180.947,170.056,181.085,170.638,181.235,171.217z"/>
                <path fill="#1A1A1A" d="M189.087,191.133c0.008,0.02,0.014,0.04,0.021,0.06c-3.281-1.392-6.376-1.322-8.637-0.364
			c-2.448-2.898-4.138-5.568-5.173-7.411c0.081-0.028,5.245-1.863,7.67-6.714C185.074,182.422,187.776,187.585,189.087,191.133z"/>
                <path fill="#1A1A1A" d="M54.326,196.749c1.525-0.65,3.073-1.255,4.642-1.823l3.01,0.473c-0.041,0.945,0.1,1.866,0.398,2.722
			C58.939,198.625,56.202,197.878,54.326,196.749z"/>
                <path fill="#1A1A1A" d="M76.684,195.837c0.019-1.111-0.21-2.184-0.65-3.154l4.556-2.328c0.346-0.177,0.484-0.601,0.307-0.948
			c-0.177-0.347-0.602-0.484-0.948-0.307l-4.618,2.36c-0.317-0.447-0.7-0.841-1.11-1.207c3.632-1.008,7.281-2.018,10.897-3.142
			c0.122,0.123,0.227,0.251,0.295,0.384C86.348,189.325,83.698,194.629,76.684,195.837z"/>
                <path fill="#1A1A1A" d="M87.277,200.333c0.366-2.876,0.668-7.835-0.289-13.815c0.444-0.144,0.888-0.287,1.33-0.435
			c0.454,2.579,0.953,7.139,0.276,12.857C88.118,199.403,87.71,199.841,87.277,200.333z"/>
                <path fill="#1A1A1A" d="M92.868,189.21c-0.061,1.911,0.528,3.904,1.35,5.636c-1.632,0.872-2.986,1.821-4.064,2.703
			c-0.001,0.001-0.002,0.002-0.003,0.002c0.315-3.796,0.238-8.082-0.486-11.932c3.65-1.269,7.242-2.71,10.716-4.455
			c0.039,0.305,0.076,0.609,0.128,0.925c-1.876,0.403-3.815,1.149-5.293,2.36C93.662,185.722,92.933,187.199,92.868,189.21z"/>
                <path fill="#1A1A1A" d="M101.897,181.845c-0.076-0.46-0.136-0.919-0.184-1.376c1.44-0.763,2.86-1.578,4.253-2.462
			c-0.25,1.23-0.398,2.474-0.416,3.696C103.959,181.634,102.707,181.737,101.897,181.845z"/>
                <path fill="#1A1A1A" d="M166.219,253.98c2.076-3.125,1.971-6.254,0.912-8.019c2.494,0.288,5.314,0.314,8.053,0.093
			c0.838-0.068,1.625-0.141,2.387-0.217c-0.158,0.899-0.293,1.806-0.399,2.724c-0.165,1.438-0.315,3.021-0.439,4.69
			c-0.95,1.594-1.77,3.177-2.412,4.68C174.066,255.939,171.001,253.342,166.219,253.98z"/>
                <path fill="#1A1A1A" d="M180.082,162.998c0.002,1.6,0.157,3.218,0.429,4.835c-0.473-0.258-0.88-0.64-1.154-1.131
			C178.6,165.351,179.049,163.837,180.082,162.998z"/>
                <path fill="#1A1A1A" d="M126.103,175.339c-3.213-1.21-6.614-1.243-9.036,0.032c-2.422,1.274-4.321,4.095-5.144,7.429
			c-1.821-0.546-3.498-0.848-4.966-0.995c0.017-1.715,0.293-3.386,0.748-4.948c0.722-0.495,1.439-1.004,2.146-1.539
			c0.357-0.27,1.241-0.73,2.448-1.577c2.592,1.982,4.728,0.528,4.784-4.365c0.467-0.538,0.942-1.122,1.423-1.759
			c3.316,0.016,6.794,1.188,9.59,3.068C127.386,171.977,126.685,173.529,126.103,175.339z"/>
                <path fill="#1A1A1A" d="M181.621,172.622c0.205,0.705,0.423,1.406,0.654,2.1c-0.837,2.595-2.546,4.397-4.127,5.56
			c1.45-1.976,3.079-4.791,3.286-7.663C181.496,172.622,181.559,172.619,181.621,172.622z"/>
                <path fill="#1A1A1A" d="M190.334,194.973c-0.324,0.46-0.601,0.954-0.814,1.483c-4.979-1.531-4.797-1.601-5.151-1.52
			c-0.236,0.054-0.437,0.225-0.515,0.472c-0.001,0.003-0.001,0.006-0.002,0.01c-0.11,0.368,0.094,0.758,0.462,0.874
			c0.153,0.048,4.974,1.568,4.809,1.516c-0.179,0.94-0.171,1.812-0.004,2.725c-5.993-0.023-9.638-3.498-10.02-5.946
			c-0.048-0.308-0.044-0.592,0.03-0.828c0.014-0.046,0.041-0.092,0.061-0.137c0.267-0.603,0.976-1.095,1.567-1.38
			c2.16-1.044,5.551-1.043,8.999,0.812C189.967,193.703,190.159,194.342,190.334,194.973z"/>
                <path fill="#1A1A1A" d="M174.675,265.79c-0.569-0.383-0.876-1.811-0.03-4.667c0.42-1.421,1.066-2.987,1.889-4.614
			c-0.147,2.998-0.195,6.14-0.09,9.151C175.652,265.985,175.038,266.034,174.675,265.79z"/>
                <path fill="#1A1A1A" d="M190.857,197.083c0.434,1.96,0.69,3.852,0.791,5.723c-0.562-0.732-0.971-1.586-1.145-2.526
			C190.319,199.276,190.452,198.138,190.857,197.083z"/>
                <path fill="#1A1A1A" d="M114.531,173.169c-0.285,0.09-0.655-0.015-1.081-0.29c0.656-0.521,1.372-1.148,2.127-1.895
			C115.374,172.387,114.928,173.044,114.531,173.169z"/>
                <path fill="#1A1A1A" d="M182.711,153.797c-0.346,0.335-0.646,0.72-0.91,1.146c-0.449-1.963-1.325-3.827-2.155-5.271
			C180.751,150.649,181.93,152.022,182.711,153.797z"/>
                <path fill="#1A1A1A" d="M186.912,225.476c-0.815-0.919-1.699-1.886-2.662-2.912c-1.111-1.184-2.255-2.28-3.397-3.27
			c-0.175-0.964-0.421-1.935-0.733-2.903c0.032-0.488,0.546-7.188,4.324-15.171c1.287,0.413,2.489,0.61,3.79,0.686
			c-5.883,4.995-5.537,11.457-3.187,13.134c1.217,0.869,3.052,0.657,4.455,0.143c0.289-0.106,0.572-0.229,0.851-0.365
			c-0.361,1.491-0.78,3.024-1.267,4.63C188.463,221.504,187.734,223.511,186.912,225.476z"/>
                <path fill="#1A1A1A" d="M184.225,231.151c-0.524,0.992-1.074,1.972-1.642,2.944c-1.073-0.984-2.263-2.14-3.593-3.509
			c-2.192-2.255-4.012-4.251-5.771-6.869c-0.616-0.916-1.369-2.178-1.847-3.171c-1.292-2.684-1.218-4.142-0.717-4.612
			c0.316-0.296,0.956-0.298,1.385-0.236c2.379,0.345,5.64,2.758,7.48,4.309c1.212,1.022,2.41,2.142,3.703,3.519
			c1.153,1.229,2.164,2.348,3.064,3.38c-0.437,0.981-0.896,1.952-1.378,2.913c-2.981-3.177-5.302-5.65-8.299-8.843
			c-0.266-0.283-0.712-0.298-0.996-0.032c-0.284,0.266-0.298,0.712-0.032,0.995C176.753,223.189,182.064,228.848,184.225,231.151z"
                />
                <path fill="#1A1A1A" d="M180.673,157.848c-0.015,0.061-0.03,0.122-0.044,0.183c-0.11,0.022-0.523,0.106-0.581,0.121
			c-0.068,0.018-0.587,0.183-0.609,0.191c-1.648-2.44-1.903-6.167-1.72-9.108C179.288,151.665,180.843,154.96,180.673,157.848z"/>
                <path fill="#1A1A1A" d="M168.428,241.722l10.445-0.842c-0.421,1.143-0.753,2.317-1.016,3.514c-0.875,0.09-1.799,0.176-2.787,0.256
			c-3.603,0.29-8.355,0.238-11.773-0.904c-0.622-0.208-1.31-0.491-1.848-0.866c-0.942-0.658-0.944-1.229-0.515-1.825
			c0.984-1.37,3.915-2.429,5.526-2.907c2.541-0.755,5.352-1.198,7.973-1.409c2.636-0.213,4.862-0.324,6.755-0.36
			c-0.673,0.978-1.239,1.993-1.713,3.04l-11.159,0.9c-0.388,0.031-0.676,0.371-0.645,0.759
			C167.701,241.461,168.036,241.753,168.428,241.722z"/>
                <path fill="#1A1A1A" d="M186.773,152.092c-0.255,0.046-0.506,0.114-0.762,0.152c-0.827,0.124-1.537,0.377-2.162,0.724
			c-2.088-4.368-6.319-6.455-6.379-6.484c-0.308-0.147-0.679-0.05-0.877,0.229c-0.05,0.071-4.532,6.56-1.208,13.211
			c-7.172-1.96-12.661,3.703-12.72,3.766c-0.236,0.249-0.258,0.631-0.053,0.905c0.013,0.018,0.341,0.447,0.942,1.052
			c-1.881-0.565-3.947-0.861-6.087-0.867c-0.525-0.21-8.678-3.558-16.018-11.811l-0.394-0.443c-0.34,0.193-2.931,1.948-7.012,3.694
			c0.165-1.282-0.826-2.817-2.906-4.476c-1.175-0.937-2.638-1.859-4.281-2.72c0.232-0.889,0.459-1.797,0.674-2.747
			c3.77-16.671,3.47-39.722,12.228-54.266c3.168-5.26,3.974-4.866,3.185-5.699c-14.251-15.063-21.247-37.813-23.372-58.378
			c-0.235-2.274-0.377-5.59,0.651-7.678c1.223-2.485,4.233-3.419,7.702-0.091c4.074,3.907,7.974,7.974,11.439,12.444
			c11.314,14.599,15.206,25.515,16.146,26.387c0.741-1.54-1.202-35.719,19.358-56.401c0.34-0.342,0.688-0.676,1.048-0.997
			c7.603-6.803,12.954,9.652,14.77,19.683c3.557,19.646,1.921,38.855-5.781,57.644c-0.712,1.738-0.978-0.22,10.935,6.475
			c12.782,7.183,19.486,19.563,25.803,33.258c5.749,12.462-6.553,27.369-27.199,32.117
			C191.911,151.36,189.326,151.628,186.773,152.092z"/>
                <path fill="#1A1A1A" d="M91.502,238.011c2.873-1.348,5.933-1.291,8.913-0.067c-2.689-0.212-5.777-0.021-8.161,1.265
			C92.042,238.786,91.79,238.385,91.502,238.011z"/>
                <path fill="#1A1A1A" d="M118.792,198.93c-0.028,0.056-0.058,0.111-0.085,0.168c-3.139-1.257-6.922-3.065-9.654-4.866
			C112.15,195.306,115.877,197.2,118.792,198.93z"/>
                <path fill="#1A1A1A" d="M115.605,192.021c1.741,0.919,3.65,2.465,5.137,3.902c-0.018,0.022-0.191,0.243-0.206,0.262
			C118.283,194.701,116.56,193.142,115.605,192.021z"/>
                <path fill="#1A1A1A" d="M113.269,183.239c0.719-2.976,2.388-5.535,4.454-6.621c2.311-1.216,5.469-0.879,7.979,0.08
			c-1.002,3.762-1.43,8.508-0.445,14.24C121.091,186.879,116.937,184.544,113.269,183.239z"/>
                <path fill="#1A1A1A" d="M83.989,205.121c-0.503-2.783-2.48-5.862-6.201-8.077c3.744-0.858,6.767-2.895,8.319-5.68
			c0.404,6.415-0.559,10.904-0.649,11.303C84.911,203.467,84.417,204.287,83.989,205.121z"/>
                <path fill="#1A1A1A" d="M96.981,199.08c-5.421,4.287-7.572,10.349-6.857,14.512c0.716,4.168,4.768,9.157,11.307,11.39
			c-0.557,1.492-0.846,2.715-0.993,3.518c-9.36-1.418-15.989-8.147-16.954-13.767c-0.966-5.623,3.042-14.182,11.385-18.638
			C95.275,196.802,95.958,197.859,96.981,199.08z"/>
                <path fill="#1A1A1A" d="M105.579,183.115c7.35,0.34,13.969,4.059,19.174,9.299c-1.116,0.693-2.146,1.519-3.066,2.459
			c-3.031-2.917-6.149-4.779-7.312-4.717c-0.627,0.031-0.951,0.532-0.859,1.072c0.057,0.331,0.311,0.79,0.72,1.326
			c1.316,1.722,3.653,3.57,5.475,4.777c-0.016,0.025-0.223,0.349-0.234,0.366c-3.095-1.834-8.208-4.447-11.387-5.212
			c-0.677-0.163-1.177-0.212-1.45-0.131c-0.476,0.141-0.73,0.623-0.545,1.105c0.313,0.812,2.675,2.272,3.418,2.719
			c2.582,1.553,5.76,3.058,8.635,4.212c-0.087,0.229-0.027,0.053-0.152,0.408c-2.054-0.706-4.948-1.439-7.12-1.434
			c-0.675,0.002-1.193,0.08-1.491,0.237c-0.489,0.257-0.683,0.82-0.328,1.334c0.661,0.957,4.03,2.297,8.185,2.927
			c-0.192,1.33-0.213,2.647-0.085,3.928c-7.281-0.936-14.276-3.896-19.042-9.544c-0.95-1.125-1.591-2.106-1.983-2.778
			c-1.063-1.827-1.941-4.175-1.853-6.287c0.064-1.525,0.576-2.594,1.772-3.594c1.47-1.228,3.542-1.926,5.415-2.25
			C102.816,183.104,104.197,183.051,105.579,183.115z"/>
                <path fill="#1A1A1A" d="M140.356,210.773c-0.756,1.161-2.538,2.723-4.13,3.32c-2.745,1.029-5.85,0.529-8.099-1.222
			c-4.211-3.249-4.377-9.463-0.531-12.948c1.922-1.742,4.494-2.457,6.891-2.11C140.561,198.694,143.717,205.614,140.356,210.773z"/>
                <path fill="#1A1A1A" d="M137.15,179.449c-0.064,3.3-0.72,7.433-1.458,10.713c-0.031-0.005-0.062-0.011-0.093-0.016
			c-0.031-0.005-0.062-0.007-0.093-0.011C135.731,186.767,136.277,182.626,137.15,179.449z"/>
                <path fill="#1A1A1A" d="M139.155,191.087c-0.016-0.006-0.289-0.113-0.314-0.122c0.525-1.909,1.4-4.28,2.436-5.967
			C140.94,186.948,140.054,189.245,139.155,191.087z"/>
                <path fill="#1A1A1A" d="M120.255,199.161c-3.406,6.312-1.752,14.081,3.731,18.516c5.537,4.489,13.438,4.351,18.831-0.213
			c1.514-1.282,3.024-3.34,3.715-4.735c4.465-9.117-1.281-19.76-11.135-21.189C129.117,190.63,123.122,193.849,120.255,199.161z
			 M131.559,193.146c8.453-1.114,15.673,6.005,14.787,14.405c-0.524,4.959-3.769,9.105-8.322,10.879
			c-7.322,2.854-15.498-1.356-17.476-8.96C118.574,201.877,123.705,194.183,131.559,193.146z"/>
                <path fill="#1A1A1A" d="M123.76,199.311c-1.743,2.409-2.496,5.387-2.132,8.311c1.079,8.668,11.028,13.254,18.324,8.199
			c2.701-1.873,4.76-6.629,4.957-8.104c0.499-3.77-0.859-7.477-3.556-10.046C136.234,192.796,127.946,193.524,123.76,199.311z
			 M134.69,196.419c4.948,0.717,8.572,5.055,8.436,10.025c-0.165,5.945-5.518,10.324-11.265,9.491
			c-6.527-0.946-10.343-8.026-7.496-13.976C126.174,198.141,130.334,195.788,134.69,196.419z"/>
                <path fill="#1A1A1A" d="M79.782,241.645c-0.471,3.247,1.798,6.277,5.038,6.747c3.381,0.49,6.592-2.015,6.795-5.555
			c0.208-3.615-2.892-6.649-6.579-6.251C82.309,236.881,80.165,239.006,79.782,241.645z M88.123,238.929
			c0.428,0.294,1.103,1.096,1.125,1.129c2.138,3.126-0.492,7.269-4.195,6.732c-1.912-0.277-3.408-1.796-3.67-3.703
			C80.872,239.357,85.051,236.816,88.123,238.929z"/>
                <path fill="#1A1A1A" d="M81.365,236.54c-0.405,0.293-0.782,0.624-1.121,0.993c-2.232-2.097-5.599-3.066-8.045-3.51
			C74.693,233.654,78.283,233.801,81.365,236.54z"/>
                <path fill="#1A1A1A" d="M78.792,239.896c-2.872-0.403-5.797-2.606-7.874-4.645c2.867,0.404,6.398,1.377,8.473,3.414
			C79.225,238.937,78.936,239.517,78.792,239.896z"/>
                <path fill="#1A1A1A" d="M70.827,237.11c1.845,1.657,4.623,3.676,7.596,4.156c-0.01,0.06-0.026,0.117-0.035,0.177
			c-0.062,0.426-0.078,0.847-0.066,1.263C74.356,241.942,72.069,239.286,70.827,237.11z"/>
                <path fill="#1A1A1A" d="M86.095,239.604c1.861,0.27,3.03,2.236,2.274,4.03c-0.489,1.161-1.674,1.885-2.939,1.778
			c-1.391-0.118-2.505-1.202-2.66-2.59C82.554,240.881,84.24,239.335,86.095,239.604z"/>
                <path fill="#1A1A1A" d="M78.676,244.757c0.169,0.52,0.39,1.018,0.665,1.484c-2.801,1.561-4.811,4.671-5.956,6.878
			C73.732,250.605,74.912,246.962,78.676,244.757z"/>
                <path fill="#1A1A1A" d="M90.012,236.555c-0.404-0.296-0.841-0.549-1.305-0.759c1.313-2.675,1.258-6.071,0.952-8.551
			C90.742,229.503,91.621,232.878,90.012,236.555z"/>
                <path fill="#1A1A1A" d="M87.357,235.336c-0.023-0.005-0.56-0.114-0.626-0.123c-0.065-0.01-0.612-0.058-0.635-0.059
			c-0.57-2.889,0.646-6.425,1.957-9.061C88.561,228.984,88.727,232.723,87.357,235.336z"/>
                <path fill="#1A1A1A" d="M131.617,183.597c0.113,0.42,0.681,4.382,0.642,6.414c-0.025,0.002-0.319,0.027-0.336,0.028
			C131.58,187.997,131.389,185.549,131.617,183.597z"/>
                <path fill="#1A1A1A" d="M84.672,235.211c-0.505,0.07-0.996,0.189-1.467,0.357c-0.498-3.983,1.303-6.969,2.983-8.827
			C85.19,229.032,84.172,232.273,84.672,235.211z"/>
                <path fill="#1A1A1A" d="M75.201,200.162c0.524-0.69,0.914-1.471,1.167-2.309c6.304,3.301,7.2,9.161,5.748,10.616
			c-1.452,1.455-7.312,0.574-10.629-5.72c1.038-0.319,1.956-0.837,2.757-1.552l3.529,3.521c0.278,0.277,0.724,0.272,0.996-0.001
			c0.275-0.275,0.274-0.721-0.001-0.996L75.201,200.162z"/>
                <path fill="#1A1A1A" d="M139.439,163.661c2.585,0.375,4.793,3.279,5.952,5.642c0.514,1.047,0.944,2.248,1.262,3.405
			c1.945,7.084,0.458,14.525-2.923,21.106c-0.994-0.843-2.094-1.57-3.282-2.159c1.835-3.782,2.638-7.318,2.224-8.405
			c-0.214-0.564-0.775-0.753-1.285-0.486c-0.401,0.211-0.83,0.787-1.085,1.163c-1.212,1.786-2.229,4.538-2.805,6.614
			c-0.212-0.057-0.028-0.014-0.421-0.109c0.77-3.432,1.697-9.124,1.438-12.443c-0.054-0.693-0.162-1.182-0.323-1.417
			c-0.273-0.398-0.84-0.485-1.22-0.177c-0.35,0.284-0.678,1.158-0.828,1.584c-1.136,3.235-1.808,8.6-2.039,12.021
			c-0.401-0.021-0.215-0.01-0.435-0.015c0.029-1.703-0.078-3.318-0.28-4.698c-0.14-0.956-0.551-3.191-1.242-3.864
			c-0.407-0.397-1-0.384-1.37,0.101c-0.706,0.925-0.94,4.543-0.255,8.691c-1.307,0.227-2.568,0.611-3.76,1.138
			C123.374,173.419,134.058,162.881,139.439,163.661z"/>
                <path fill="#1A1A1A" d="M157.203,226.91c3.311-0.91,6.082-2.883,7.292-5.337c1.21-2.454,1.088-5.853-0.205-9.034
			c1.793-0.628,3.326-1.37,4.6-2.113c0.797,1.121,1.493,2.345,2.099,3.87c-0.515,0.084-0.951,0.286-1.298,0.612
			c-2.084,1.955,0.443,6.618,1.988,9.023c-1.674,4.935-8.1,7.726-13.35,7.917C158.142,230.384,157.797,228.716,157.203,226.91z"/>
                <path fill="#1A1A1A" d="M178.128,231.722c1.194,1.224,2.292,2.295,3.302,3.228c-2.513,0.047-5.894,0.263-7.79,0.444
			C175.405,234.365,176.934,233.121,178.128,231.722z"/>
                <path fill="#1A1A1A" d="M172.631,225.342c1.486,2.082,2.885,3.653,4.506,5.353c-2.855,3.392-10.843,7.302-18.716,6.212
			c0.087-0.812,0.157-2.066,0.047-3.656C165.584,232.959,170.862,229.155,172.631,225.342z"/>
                <path fill="#1A1A1A" d="M183.124,200.71c-2.537,5.366-3.626,10.107-4.085,12.927c-0.273-0.59-0.541-1.128-0.867-1.709
			c0.635-3.692,1.962-8.247,3.715-11.857C182.282,200.304,182.693,200.519,183.124,200.71z"/>
                <path fill="#1A1A1A" d="M170.09,209.68c1.327-0.88,2.282-1.7,2.873-2.262c2.966,2.925,5.035,6.455,6.093,10.408
			c-1.767-1.352-4.333-3.037-6.524-3.471C171.946,212.745,171.137,211.166,170.09,209.68z"/>
                <path fill="#1A1A1A" d="M150.212,248.781c-2.362-0.08-4.857,0.025-7.184,0.28c0.001-0.001,0.001-0.002,0.002-0.003
			c0.853-1.101,1.766-2.478,2.595-4.133c2.553,1.131,5.848,1.812,8.309,0.518c2.448-1.288,3.763-4.394,4.279-7.141
			c1.301,0.18,2.512,0.247,3.603,0.242c-1.285,0.749-2.675,1.91-2.56,3.394c0,0.002,0,0.004,0,0.007
			c0.031,0.383,0.158,0.738,0.367,1.067c-1.144,1.67-2.308,3.595-3.261,5.648c-0.927-0.529-1.914-0.859-2.919-0.958
			C152.268,247.587,150.894,247.817,150.212,248.781z"/>
                <path fill="#1A1A1A" d="M3.782,244.093c-2.816-1.209-4.468-4.475-3.506-8.036c1.275-4.718,5.204-6.084,5.687-6.666
			c0.041-0.54-4.707-4.327-1.951-10.466c1.584-3.529,4.526-5.174,8.308-5.376c2.259-0.121,4.317,0.592,6.219,1.764
			c0.479,0.295,0.77,0.313,1.219-0.118c3.162-3.034,7.563-2.734,10.349,0.668c0.234,0.286,0.456,0.582,0.712,0.91
			c0.902-0.454,4.819-9.53,15.378-15.912c2.123-1.283,4.326-2.411,6.584-3.433c2,1.492,5.04,2.54,8.923,2.185
			c-5.072,5.819-3.76,12.153-1.191,13.458c2.571,1.306,8.461-1.376,10.167-8.903c3.467,5.791,8.906,7.12,11.555,5.889
			c-0.341,1.695-0.406,3.361-0.14,4.913c0.537,3.124,2.457,6.236,5.256,8.82c-1.67,1.28-5.994,5.206-5.606,11.241
			c-5.845-4.596-13.104-1.511-13.183-1.477c-0.314,0.138-0.483,0.481-0.401,0.814c0.02,0.084,1.991,7.721,9.196,9.561
			c-6.176,4.139-5.486,11.995-5.477,12.081c0.033,0.334,0.299,0.606,0.65,0.633c0.086,0.006,7.958,0.49,11.934-5.793
			c2.028,7.154,9.713,8.925,9.798,8.944c0.343,0.074,0.676-0.111,0.803-0.422c0.003-0.008,0.034-0.085,0.08-0.218
			c0.008-0.015,0.039-0.089,0.049-0.119c1.374-4.456,1.039-9.198-1.949-12.801c1.924,0.073,3.621-0.325,5.082-0.959
			c9.751,1.182,16.379,5.024,16.835,5.294c2.941,3.812,6.821,6.443,10.664,7c3.843,0.557,8.31-0.864,12.212-3.683
			c0.406-0.103,5.331-1.296,12.307-0.896c0.761,1.596,2.15,2.98,3.964,3.96c-4.846,1.802-6.196,5.941-5.115,7.67
			c1.074,1.719,5.381,2.34,9.136-1.236c0.217,5.155,3.723,7.731,5.714,7.235c1.963-0.489,3.893-4.39,1.645-9.075
			c3.497,0.977,6.409,0.025,7.831-1.514c-0.725,2.179-1.531,5.65,0.369,6.929c0.291,0.196,0.614,0.316,0.964,0.367
			c0.501,0.073,1.061-0.011,1.657-0.202c0.164,3.094,0.503,5.992,1.089,8.363c2.35,9.507,8.202,6.565,15.228,11.398
			c2.435,1.674,3.948,4.003,4.632,6.842c0.902,3.737-1.171,8.031-7.166,9.752c-3.617,1.038-12.132,2.034-24.238,0.724
			c-2.976-0.322-5.232-1.756-6.87-4.207c-8.089-12.106-11.992-29.888-15.427-43.276c-0.097-0.378-0.216-0.752-0.395-1.374
			c-4.475,12.311-13.123,20.255-24.957,25.359c3.154,0.497,8.973,1.023,14.296,4.4c1.49,0.945,2.749,2.126,3.755,3.587
			c1.624,2.363,1.6,4.785,0.301,7.249c-6.253,11.852-43.017,7.695-78.818,6.214c-8.173-0.339-14.835-3.09-20.867-10.079
			c-10.757-12.464-12.752-25.502-13.342-26.161c-0.316-0.069-0.497,0.213-0.725,0.362c-5.588,3.633-12.607,0.052-13.507-7.183
			c-0.114-0.916-0.11-0.917-0.986-1.122c-4.372-1.022-7.18-5.896-4.412-12.846C4.277,244.676,4.401,244.359,3.782,244.093z"/>
                <path fill="#1A1A1A" d="M165.365,259.967c0.802-1.448,0.852-3.06,0.307-4.469c4.565-0.966,7.342,1.582,7.259,2.753v0
			C172.847,259.472,169.672,261.526,165.365,259.967z"/>
                <path fill="#1A1A1A" d="M180.707,199.273c-1.644,3.324-2.876,7.239-3.633,10.881c-0.001-0.001-0.001-0.002-0.002-0.003
			c-0.783-1.151-1.812-2.446-3.129-3.746c1.872-2.087,3.528-5.021,3.061-7.742c-0.469-2.727-3.027-4.943-5.47-6.276
			c0.808-1.665,1.345-3.229,1.699-4.576c0-0.001,0.001-0.002,0.001-0.003c1.265,2.084,2.797,4.262,4.437,6.215
			c-0.068,1.092,0.406,2.384,1.356,3.595C179.508,198.231,180.077,198.78,180.707,199.273z"/>
                <path fill="#1A1A1A" d="M158.594,250.448c-0.334-0.358-0.687-0.683-1.053-0.978c0.891-1.956,2.001-3.815,3.105-5.444
			c0.339,0.237,0.728,0.455,1.168,0.652C160.722,246.367,159.619,248.293,158.594,250.448z"/>
                <path fill="#1A1A1A" d="M160.462,252.125c0.378-3.542,2.323-5.121,2.957-5.543c0.704-0.468,1.334-0.611,1.723-0.554
			c1.192,0.173,2.444,3.958-0.529,7.775C163.556,252.661,162.065,252.036,160.462,252.125z"/>
                <path fill="#1A1A1A" d="M176.334,170.083c0.357,0.413,0.758,0.782,1.193,1.104c-1.973,2.527-2.615,6.174-2.812,8.652
			C174.057,177.389,173.727,173.577,176.334,170.083z"/>
                <path fill="#1A1A1A" d="M174.8,169.829c-1.082,1.649-1.62,3.35-1.821,4.963c-0.675-2.029-1.664-3.823-2.935-5.242
			C171.562,169.96,173.077,170.089,174.8,169.829z"/>
                <path fill="#1A1A1A" d="M178.231,192.475c-1.763-2.188-3.428-4.696-4.554-6.706c0.114-0.656,0.185-1.248,0.247-1.901
			c1.026,1.87,2.741,4.633,5.285,7.666C178.815,191.819,178.481,192.133,178.231,192.475z"/>
                <path fill="#1A1A1A" d="M168.528,169.989c4.078,3.973,5.881,13.243,1.743,21.77c-0.745-0.333-1.916-0.788-3.461-1.174
			c1.865-6.655,0.042-12.823-2.983-15.769c-3.043-2.964-9.264-4.599-15.842-2.569c-0.427-1.535-0.912-2.693-1.265-3.429
			C155.348,164.346,164.593,166.156,168.528,169.989z"/>
                <path fill="#1A1A1A" d="M174.626,164.188c-0.053,0.357-0.089,0.939-0.072,1.366c-2.802,0.745-6.348-0.146-9.058-1.216
			C168.301,163.596,171.926,163.122,174.626,164.188z"/>
                <path fill="#1A1A1A" d="M139.641,162.267c-2.736-0.397-5.622,1.338-7.659,3.263c-1.334-1.283-2.655-2.277-3.827-3.03
			c-0.001-0.001-0.002-0.001-0.003-0.002c4.046-0.953,8.513-2.524,12.132-4.671c2.861,3.086,6.696,5.86,10.306,7.924
			c-0.001,0-0.002,0.001-0.003,0.001c-1.337,0.389-2.886,0.967-4.53,1.819C144.654,165.149,142.377,162.664,139.641,162.267z"/>
                <path fill="#1A1A1A" d="M174.746,166.953c0.014,0.061,0.022,0.122,0.038,0.183c0.109,0.416,0.255,0.813,0.427,1.192
			c-3.947,0.839-7.088-0.722-9.08-2.245C168.821,167.012,171.982,167.628,174.746,166.953z"/>
                <path fill="#1A1A1A" d="M80.179,247.389c0.284,0.32,0.725,0.721,1.006,0.938c-1.271,2.607-4.27,4.707-6.849,6.053
			C75.611,251.772,77.62,248.735,80.179,247.389z"/>
                <path fill="#1A1A1A" d="M178.745,171.918c0.518,0.247,0.955,0.383,1.293,0.473c-0.158,2.901-2.114,6.012-3.956,8.239
			C176.241,177.734,176.911,174.154,178.745,171.918z"/>
                <path fill="#1A1A1A" d="M178.147,158.948c-0.435,0.257-0.842,0.556-1.214,0.898c-2.003-3.474-1.506-6.923-0.681-9.286
			C176.224,153.057,176.546,156.436,178.147,158.948z"/>
                <path fill="#1A1A1A" d="M175.616,161.461c-0.24,0.397-0.442,0.781-0.645,1.351c-2.872-1.063-6.351-0.646-8.776-0.103
			C168.347,161.398,171.711,160.136,175.616,161.461z"/>
                <path fill="#1A1A1A" d="M154.512,164.958c-0.652,0.079-1.241,0.166-1.894,0.296c-7.96-4.19-11.968-9.153-12.07-9.242
			c-0.052,0.023-5.329,3.668-14.198,5.434c-0.588-0.31-1.13-0.562-1.732-0.822c3.389-0.644,9.552-2.275,16.171-6.279
			C145.999,160.065,151.445,163.379,154.512,164.958z"/>
                <path fill="#1A1A1A" d="M148.727,213.8c5.755,0.833,10.482,0.275,14.216-0.824c1.168,2.831,1.321,5.881,0.289,7.974
			c-1.032,2.093-3.546,3.828-6.502,4.625C155.329,221.945,152.888,217.856,148.727,213.8z"/>
                <path fill="#1A1A1A" d="M153.278,244.196c-2.012,1.059-4.958,0.374-7.057-0.548c-1.886-0.828-3.614-2.038-5.178-3.454
			c-5.069-4.589-7.896-11.005-8.96-17.868c1.336,0.099,2.651,0.033,3.924-0.186c0.739,4.138,2.168,7.471,3.142,8.107
			c0.253,0.165,0.514,0.203,0.75,0.138c0,0,0,0,0,0c0.216-0.059,0.44-0.226,0.575-0.5c0.201-0.408,0.208-1.127,0.194-1.58
			c-0.07-2.15-0.855-4.957-1.619-7.001c0.024-0.009,0.382-0.152,0.405-0.161c1.354,3.134,3.96,8.359,6.167,10.928
			c0.442,0.515,0.814,0.85,1.078,0.944c0.171,0.061,0.229,0.043,0.287,0.044c0.293,0.005,0.517-0.103,0.682-0.354
			c0.049-0.074,0.097-0.17,0.122-0.264c0.112-0.422-0.137-1.35-0.261-1.768c-0.979-3.276-3.591-8.019-5.421-10.932
			c0.063-0.041,0.127-0.079,0.189-0.121c0.059-0.039,0.115-0.081,0.173-0.121c1.263,1.803,3.178,4.093,4.923,5.353
			c0.547,0.395,1.012,0.637,1.345,0.685c0.3,0.043,0.566-0.046,0.738-0.191l0,0c0.137-0.116,0.302-0.331,0.311-0.696
			c0.027-1.164-1.912-4.232-4.908-7.186c0.911-0.934,1.713-1.981,2.382-3.123c4.216,3.975,6.671,7.982,8.075,11.531
			c1.42,3.59,2.144,7.808,1.605,11.502C156.575,239.876,155.458,243.049,153.278,244.196z"/>
                <path fill="#1A1A1A" d="M143.597,218.65c0.019-0.016,0.24-0.208,0.252-0.217c1.487,1.46,3.079,3.327,4.04,5.038
			C146.754,222.554,145.148,220.876,143.597,218.65z"/>
                <path fill="#1A1A1A" d="M155.891,207.243c-1.958,0.281-4.422,0.151-6.448-0.134c0.008-0.133,0.009-0.067,0.019-0.34
			C151.499,206.676,153.972,206.779,155.891,207.243z"/>
                <path fill="#1A1A1A" d="M149.22,203.342c3.245-0.82,7.369-1.587,10.672-1.739c-3.176,0.964-7.33,1.615-10.638,1.924
			C149.244,203.465,149.231,203.403,149.22,203.342z"/>
                <path fill="#1A1A1A" d="M137.709,221.751c0.95,2.527,1.427,4.797,1.541,6.264c-0.87-1.771-1.505-4.147-1.862-6.171
			C137.413,221.837,137.687,221.757,137.709,221.751z"/>
                <path fill="#1A1A1A" d="M140.896,220.461c1.785,2.836,3.777,6.489,4.954,9.617c-1.874-2.688-3.78-6.418-5.12-9.532
			C140.785,220.518,140.841,220.49,140.896,220.461z"/>
                <path fill="#1A1A1A" d="M114.43,225.523c0.11-0.145,4.909-5.552,7.481-7.814c0.044,0.044,0.091,0.086,0.136,0.129
			C119.845,220.478,116.966,223.496,114.43,225.523z"/>
                <path fill="#1A1A1A" d="M124.601,219.85c0.021,0.013,0.258,0.166,0.281,0.18c-0.928,1.862-2.21,3.949-3.538,5.389
			C121.865,224.057,122.965,222.011,124.601,219.85z"/>
                <path fill="#1A1A1A" d="M148.204,199.905c1.86-0.969,4.122-1.899,6.033-2.282c-1.651,1.075-3.98,2.006-5.91,2.592
			C148.318,200.189,148.215,199.929,148.204,199.905z"/>
                <path fill="#1A1A1A" d="M112.198,219.202c-0.159,0.585,0.189,1.066,0.754,1.148c0.448,0.065,1.135-0.149,1.562-0.303
			c2.023-0.731,4.461-2.353,6.162-3.706c0.044,0.055,0.087,0.111,0.132,0.165c0.048,0.058,0.099,0.113,0.147,0.17
			c-2.526,2.224-5.679,5.357-7.688,8.069c-0.375,0.506-1.35,1.867-1.367,2.494c-0.006,0.202,0.072,0.464,0.245,0.632
			c0.101,0.098,0.241,0.163,0.375,0.196c0.046,0.011,0.076,0.042,0.263,0.032c0.627-0.034,1.962-1.045,2.457-1.432
			c2.636-2.062,5.682-5.282,7.861-7.893c0.02,0.016,0.323,0.254,0.343,0.27c-1.307,1.735-2.904,4.272-3.567,6.332
			c-0.207,0.643-0.293,1.16-0.236,1.491c0.052,0.299,0.219,0.525,0.409,0.643l0,0c0.231,0.143,0.498,0.159,0.758,0.081
			c1.115-0.334,3.431-3.123,5.314-6.881c1.158,0.571,2.4,1.009,3.709,1.293c-4.521,9.561-11.724,14.786-18.218,16.191
			c-2.055,0.445-4.563,0.559-6.552-0.18c-0.706-0.262-1.306-0.616-1.763-1.062c-3.907-3.806-2.004-18.701,14.249-26.915
			c0.317,1.284,0.788,2.516,1.397,3.671C115.233,215.687,112.502,218.078,112.198,219.202z"/>
                <path fill="#1A1A1A" d="M150.387,263.874c-0.649-1.04,0.715-4.566,5.112-5.836c0.189,1.528,1.04,2.936,2.373,3.799
			C154.806,265.23,151.038,264.914,150.387,263.874z"/>
                <path fill="#1A1A1A" d="M119.656,214.925c0.009,0.014,0.167,0.261,0.18,0.28c-2.115,1.69-4.13,2.844-5.484,3.403
			C115.773,217.227,117.841,215.889,119.656,214.925z"/>
                <path fill="#1A1A1A" d="M151.388,249.548L151.388,249.548c0.001-0.001,0.002-0.002,0.002-0.003
			c0.791-0.932,4.561-0.738,7.131,3.065c-1.358,0.631-2.457,1.837-2.882,3.428C151.389,254.138,150.629,250.452,151.388,249.548z"/>
                <path fill="#1A1A1A" d="M156.886,257.02c0.218-2.23,2.268-3.772,4.417-3.461c3.228,0.468,4.511,4.558,1.998,6.756
			c-0.858,0.75-2.032,1.108-3.202,0.909C158.06,260.879,156.691,259.008,156.886,257.02z"/>
                <path fill="#1A1A1A" d="M65.515,202.008l-2.272,4.471c-0.219,0.43,0.052,0.947,0.527,1.016c0.291,0.042,0.589-0.102,0.729-0.378
			l2.284-4.496c0.909,0.335,1.76,0.465,2.688,0.449c-1.196,7.039-6.504,9.667-8.32,8.746c-1.833-0.931-2.805-6.78,2.159-11.879
			C63.89,200.765,64.637,201.474,65.515,202.008z"/>
                <path fill="#1A1A1A" d="M164.079,261.505c2.28,3.967,0.812,7.45-0.377,7.747c-1.189,0.294-4.123-2.09-3.97-6.67
			c0.088,0.017,0.176,0.042,0.265,0.055C161.427,262.845,162.909,262.452,164.079,261.505z"/>
                <path fill="#1A1A1A" d="M126.026,256.175c-4.926-0.714-12.542-7.258-14.206-16.588c0.799-0.168,2.013-0.489,3.491-1.085
			c2.403,6.48,7.502,10.398,11.682,11.005c4.226,0.613,10.214-1.745,14.327-7.234c1.247,0.991,2.321,1.643,3.039,2.031
			C140.118,252.769,131.669,256.993,126.026,256.175z"/>
                <path fill="#1A1A1A" d="M156.332,172.952c2.634,0.382,4.969,1.369,6.512,2.871c2.69,2.621,4.312,8.409,2.588,14.459
			c-1.449-0.275-3.143-0.463-5.044-0.456c0.158-3.43-0.862-6.675-2.822-8.584c-1.961-1.91-5.231-2.844-8.656-2.597
			c-0.043-1.901-0.275-3.589-0.588-5.03C150.961,172.788,153.754,172.579,156.332,172.952z"/>
                <path fill="#1A1A1A" d="M156.582,182.251c1.672,1.629,2.545,4.555,2.389,7.613c-3.887,0.21-8.533,1.269-13.68,3.977
			c2.572-5.216,3.509-9.888,3.617-13.78C151.579,179.856,154.714,180.432,156.582,182.251z"/>
                <path fill="#1A1A1A" d="M175.615,198.901c0.451,2.623-1.717,5.703-3.686,7.556c-0.567,0.534-1.461,1.292-2.69,2.1
			c-6.155,4.05-13.663,4.924-20.969,3.743c0.487-1.192,0.84-2.46,1.034-3.79c4.163,0.576,7.774,0.248,8.679-0.482
			c0.473-0.381,0.474-0.973,0.065-1.372c-0.326-0.317-1.009-0.548-1.447-0.674c-2.066-0.597-4.989-0.716-7.149-0.623
			c-0.018-0.357-0.014-0.228-0.03-0.434c3.399-0.319,9.148-1.183,12.278-2.478c0.642-0.266,1.075-0.52,1.248-0.745
			c0.123-0.16,0.214-0.416,0.173-0.655c0,0,0,0,0,0c-0.041-0.236-0.209-0.448-0.382-0.559c-0.379-0.246-1.312-0.288-1.762-0.299
			c-3.308-0.078-8.524,0.884-12.064,1.776c-0.006-0.021-0.11-0.381-0.121-0.418c2.067-0.633,4.865-1.749,6.607-3.026
			c0.544-0.398,0.918-0.765,1.067-1.067c0.245-0.497,0.068-1.066-0.519-1.272c-1.098-0.386-4.616,0.511-8.351,2.446
			c-0.615-1.163-1.368-2.248-2.241-3.229C161.219,186.716,174.678,193.449,175.615,198.901z"/>
                <path fill="#1A1A1A" d="M140.322,252.006c0.478-0.444,0.908-0.864,1.358-1.353c2.254-0.326,5.238-0.535,8.065-0.47
			c-0.034,0.421-0.002,0.879,0.1,1.357C145.787,251.347,142.47,251.676,140.322,252.006z"/>
                <path fill="#1A1A1A" d="M127.195,248.113c-3.968-0.575-8.191-4.42-10.268-9.351c-0.109-0.258-0.218-0.534-0.324-0.826
			c1.334-0.629,2.814-1.473,4.349-2.596c1.889,2.868,4.621,4.893,7.329,5.286c2.708,0.393,5.903-0.774,8.528-2.987
			c1.152,1.512,2.332,2.742,3.433,3.724c-0.185,0.25-0.368,0.484-0.546,0.7C136.304,246.201,131.164,248.689,127.195,248.113z"/>
                <path fill="#1A1A1A" d="M128.483,239.232c-2.31-0.335-4.737-2.189-6.408-4.755c3.021-2.455,6.157-6.042,8.73-11.258
			c0.986,5.731,2.973,10.062,5.173,13.274C133.646,238.479,130.792,239.567,128.483,239.232z"/>
                <path fill="#1A1A1A" d="M104.829,239.536c0.011-0.034,0.028-0.066,0.034-0.1c1.753,0.581,3.736,0.624,5.567,0.387
			c0.325,1.821,0.81,3.402,1.314,4.699c0,0.001,0.001,0.003,0.001,0.004c-2.714-1.137-5.733-2.122-8.612-2.736
			c1.068-1.153,1.627-2.084,1.643-2.112C104.803,239.632,104.813,239.583,104.829,239.536z"/>
                <path fill="#1A1A1A" d="M82.384,249.08c0.386,0.193,0.793,0.351,1.218,0.475c-1.84,3.339-4.829,4.733-7.225,5.306
			C78.481,253.605,81.076,251.645,82.384,249.08z"/>
                <path fill="#1A1A1A" d="M116.295,209.098c-5.142,2.708-8.644,5.934-11.018,9.018c-2.608-1.604-4.526-3.981-4.921-6.281
			c-0.395-2.3,0.618-5.181,2.542-7.564C106.166,206.385,110.54,208.262,116.295,209.098z"/>
                <path fill="#1A1A1A" d="M104.444,219.26c-1.082,1.563-1.887,3.065-2.481,4.415c-0.295-0.099-0.574-0.201-0.835-0.303
			c-4.983-1.947-8.937-6.068-9.616-10.019c-0.634-3.687,1.437-9.319,6.407-13.217c1.011,1.074,2.27,2.221,3.811,3.332
			c-2.143,2.682-3.225,5.907-2.762,8.603C99.432,214.769,101.528,217.447,104.444,219.26z"/>
                <path fill="#1A1A1A" d="M96.574,235.652c-0.458-0.028-0.928-0.029-1.408-0.001c-1.055-3.772-2.347-6.719-3.3-8.61
			c0.568,0.317,1.1,0.595,1.706,0.873C94.623,230.045,95.765,232.9,96.574,235.652z"/>
                <path fill="#1A1A1A" d="M89.839,248.558c2.165,2.006,3.254,5.583,3.744,8.483c-2.106-2.037-4.42-4.946-4.863-7.846
			C89.061,249.038,89.375,248.877,89.839,248.558z"/>
                <path fill="#1A1A1A" d="M101.904,242.984c3.579,0.674,7.593,2.029,10.681,3.451c0.294,0.598,0.584,1.119,0.918,1.683
			c-2.605-1.228-7.182-3.035-13.108-3.977C100.949,243.77,101.452,243.378,101.904,242.984z"/>
                <path fill="#1A1A1A" d="M85.661,249.854c0.584,0.001,1.156-0.064,1.707-0.195c0.575,3.126,2.868,5.993,4.62,7.792
			C89.706,256.33,86.595,254.07,85.661,249.854z"/>
                <path fill="#1A1A1A" d="M92.666,244.787c0.27-0.826,0.3-1.268,0.332-1.615c2.846,0.424,6.053-0.585,8.641-1.816
			C99.175,243.808,96.098,245.126,92.666,244.787z"/>
                <path fill="#1A1A1A" d="M94.58,254.857c-0.58-2.368-1.661-5.286-3.653-7.212c0.3-0.306,0.573-0.637,0.818-0.993
			C94.245,249.32,94.717,252.439,94.58,254.857z"/>
                <path fill="#1A1A1A" d="M102.061,239.558c-0.946,0.502-3.702,1.722-5.601,2.09c-1.13,0.219-2.34,0.298-3.469,0.094
			c-0.043-0.418-0.106-0.783-0.224-1.206C95.344,239.058,99.137,239.123,102.061,239.558z"/>
                <path fill="#1A1A1A" d="M111.288,200.776c1.99,0.102,4.393,0.711,6.299,1.372c-0.064,0.251-0.051,0.214-0.078,0.331
			C115.489,202.177,113.083,201.601,111.288,200.776z"/>
                <path fill="#1A1A1A" d="M92.227,231.352c0.514,1.308,1.037,2.808,1.513,4.473c-0.712,0.132-1.44,0.338-2.178,0.631
			C92.223,234.658,92.374,232.929,92.227,231.352z"/>
                <path fill="#1A1A1A" d="M98.102,235.842c-0.666-2.398-1.578-4.875-2.597-7.137c0.001,0,0.003,0.001,0.004,0.001
			c1.31,0.471,2.903,0.914,4.733,1.191c-0.24,2.334-0.023,5.022,1.234,7.009C100.514,236.473,99.37,236.075,98.102,235.842z"/>
            </g>
        <g>
                <path fill="#1A1A1A" d="M265.971,340.118c-0.284-0.267-0.73-0.252-0.996,0.031c-2.996,3.193-5.318,5.667-8.299,8.843
			c0.224,0.445,0.45,0.89,0.683,1.331c2.162-2.304,7.472-7.963,8.643-9.21C266.269,340.829,266.255,340.384,265.971,340.118z"/>
            <path fill="#1A1A1A" d="M273.915,360.249c0.031-0.388-0.257-0.727-0.645-0.759l-11.159-0.9c0.218,0.481,0.419,0.968,0.601,1.462
			l10.445,0.842C273.549,360.925,273.885,360.633,273.915,360.249z"/>
            <path fill="#1A1A1A" d="M252.567,329.148c0.317-0.226,0.39-0.666,0.164-0.982l-2.845-3.989c0.01,0.866,0.056,1.735,0.129,2.606
			l1.57,2.201C251.811,329.302,252.251,329.374,252.567,329.148z"/>
            <path fill="#1A1A1A" d="M437.804,363.265c2.816-1.209,4.468-4.475,3.506-8.036c-1.275-4.718-5.204-6.084-5.687-6.666
			c-0.041-0.54,4.707-4.327,1.951-10.466c-1.584-3.529-4.526-5.174-8.308-5.376c-2.259-0.121-4.317,0.592-6.219,1.764
			c-0.479,0.295-0.77,0.313-1.219-0.118c-3.162-3.034-7.563-2.734-10.349,0.668c-0.234,0.286-0.456,0.582-0.712,0.91
			c-0.902-0.454-4.819-9.53-15.378-15.912c-2.605-1.575-5.327-2.919-8.129-4.113c-1.876,1.128-4.613,1.876-8.05,1.372
			c0.298-0.856,0.44-1.776,0.398-2.722l3.01-0.473c-0.934-0.338-1.874-0.667-2.821-0.982c-0.228,0.036-0.378,0.059-0.386,0.061
			c-0.017-0.07-0.042-0.137-0.06-0.206c-0.549-0.181-1.099-0.36-1.652-0.535c1.643,3.658-0.874,8.48-5.56,8.402
			c-2.513-0.042-4.812-1.69-5.576-4.222c-0.795-2.636,0.294-5.324,2.458-6.725c0.001-0.001,0.002-0.001,0.003-0.002
			c-0.553-0.154-1.106-0.309-1.66-0.463c-0.41,0.366-0.793,0.76-1.11,1.207l-4.618-2.36c-0.346-0.178-0.771-0.04-0.948,0.307
			c-0.177,0.346-0.04,0.771,0.307,0.948l4.556,2.328c-0.44,0.97-0.67,2.042-0.65,3.154c-7.014-1.208-9.664-6.512-8.728-8.341
			c0.068-0.133,0.173-0.261,0.295-0.384c-0.625-0.194-1.248-0.392-1.871-0.594c-0.958,5.979-0.655,10.939-0.289,13.815
			c-0.433-0.491-0.841-0.93-1.317-1.393c-0.676-5.718-0.177-10.278,0.276-12.857c-0.45-0.151-0.898-0.308-1.347-0.464
			c-0.724,3.85-0.801,8.136-0.486,11.932c-0.001-0.001-0.002-0.002-0.003-0.002c-1.078-0.881-2.432-1.83-4.064-2.703
			c0.821-1.732,1.411-3.724,1.35-5.636c-0.065-2.012-0.795-3.487-2.348-4.761c-1.477-1.211-3.417-1.957-5.293-2.36
			c0.052-0.316,0.089-0.62,0.128-0.925c-0.447-0.225-0.89-0.461-1.333-0.695c-0.048,0.457-0.108,0.916-0.184,1.376
			c-0.809-0.108-2.061-0.212-3.652-0.143c-0.018-1.221-0.166-2.465-0.416-3.696c-0.585-0.371-1.164-0.756-1.74-1.15
			c0.456,1.562,0.731,3.233,0.748,4.948c-1.468,0.148-3.145,0.449-4.966,0.995c-0.823-3.334-2.722-6.155-5.144-7.429
			c-2.422-1.274-5.823-1.241-9.036-0.032c-0.581-1.81-1.283-3.363-1.992-4.656c2.797-1.88,6.274-3.051,9.59-3.068
			c-0.326-0.433-0.654-0.892-0.983-1.374c-3.276,0.214-6.592,1.408-9.32,3.224c-0.845-1.35-1.639-2.324-2.186-2.929
			c2.575-2.477,5.56-4.211,8.62-5.248c-0.299-0.598-0.595-1.217-0.887-1.867c-0.241-0.535-0.479-1.086-0.715-1.658
			c-0.174-0.423-0.345-0.861-0.515-1.304c-0.266-0.692-0.528-1.402-0.783-2.147c-0.149-0.435-0.294-0.888-0.44-1.342
			c-0.263-0.823-0.522-1.666-0.77-2.551c-0.367-1.31-0.717-2.688-1.046-4.14c-0.846-3.743-1.487-7.808-2.072-12.026
			c-0.145-1.043-0.286-2.094-0.426-3.153c-1.814-13.735-3.425-28.616-9.731-39.088c-3.168-5.26-3.974-4.866-3.185-5.699
			c14.251-15.063,21.247-37.813,23.372-58.378c0.235-2.275,0.377-5.59-0.651-7.678c-1.223-2.485-4.233-3.419-7.702-0.091
			c-4.074,3.907-7.974,7.974-11.439,12.444c-11.314,14.599-15.206,25.515-16.146,26.387c-0.741-1.54,1.202-35.719-19.358-56.401
			c-0.34-0.342-0.688-0.676-1.048-0.997c-7.603-6.803-12.954,9.652-14.77,19.683c-3.557,19.646-1.921,38.855,5.781,57.644
			c0.712,1.738,0.978-0.22-10.935,6.474c-12.782,7.183-19.486,19.563-25.803,33.258c-5.749,12.462,6.553,27.369,27.199,32.117
			c2.532,0.582,5.118,0.851,7.671,1.314c0.255,0.046,0.506,0.114,0.762,0.152c1.382,0.206,2.464,0.743,3.3,1.552
			c0.781-1.774,1.96-3.147,3.065-4.124c-0.831,1.444-1.707,3.308-2.155,5.271c0.342,0.553,0.624,1.171,0.839,1.864
			c0.107,0.345,0.202,0.692,0.288,1.041c-0.17-2.888,1.385-6.183,2.954-8.613c0.183,2.941-0.072,6.668-1.72,9.108
			c-0.022-0.008-0.541-0.173-0.609-0.191c-0.058-0.015-0.471-0.099-0.581-0.121c0.119,0.501,0.212,1.007,0.291,1.515
			c5.014,1.312,6.003,8.194,1.44,10.867c-0.779,0.456-1.567,0.709-2.337,0.804c-0.121,0.47-0.251,0.938-0.386,1.405
			c0.062-0.002,0.124,0.001,0.186-0.003c0.207,2.872,1.836,5.687,3.286,7.663c-1.58-1.163-3.289-2.965-4.127-5.56
			c-2.165,6.498-5.351,12.458-6.812,16.411c-0.24,0.651-0.463,1.29-0.668,1.92c3.447-1.856,6.839-1.857,8.999-0.812
			c0.591,0.286,1.301,0.778,1.567,1.38c0.02,0.046,0.046,0.091,0.061,0.137c0.075,0.236,0.078,0.52,0.03,0.828
			c-0.382,2.449-4.028,5.924-10.02,5.946c0.167-0.913,0.176-1.785-0.004-2.725c-0.165,0.052,4.656-1.468,4.809-1.516
			c0.368-0.116,0.572-0.506,0.462-0.874c-0.001-0.003-0.001-0.006-0.002-0.01c-0.078-0.247-0.28-0.418-0.515-0.472
			c-0.354-0.081-0.172-0.01-5.151,1.52c-0.212-0.529-0.49-1.023-0.814-1.484c-0.199,0.714-0.368,1.415-0.522,2.109
			c0.404,1.055,0.538,2.193,0.354,3.197c-0.173,0.94-0.583,1.795-1.145,2.526c-0.037,0.695-0.057,1.388-0.051,2.08
			c0.773-0.633,1.424-1.397,1.932-2.416c5.664,4.302,5.575,10.228,3.902,11.423c-0.863,0.615-2.878,0.405-4.912-0.956
			c0.129,0.619,0.27,1.247,0.423,1.881c0.361,1.491,0.78,3.024,1.267,4.63c0.623,2.056,1.352,4.063,2.174,6.028
			c0.201,0.481,0.413,0.956,0.625,1.432c0.901-1.032,1.911-2.151,3.064-3.38c1.292-1.377,2.491-2.498,3.703-3.519
			c1.84-1.551,5.102-3.965,7.48-4.31c0.429-0.062,1.069-0.06,1.385,0.236c0.5,0.469,0.575,1.928-0.717,4.612
			c-0.478,0.993-1.231,2.255-1.847,3.171c-1.759,2.618-3.58,4.614-5.771,6.869c-1.33,1.369-2.52,2.525-3.593,3.509
			c0.199,0.34,0.393,0.681,0.597,1.019c0.153,0.254,0.286,0.523,0.462,0.761c0.121,0.165,0.222,0.337,0.337,0.504
			c1.893,0.036,4.12,0.147,6.755,0.36c2.621,0.211,5.433,0.654,7.973,1.409c1.611,0.479,4.541,1.537,5.526,2.907
			c0.428,0.596,0.427,1.166-0.515,1.825c-0.538,0.376-1.226,0.659-1.848,0.866c-3.418,1.142-8.17,1.195-11.773,0.904
			c-0.988-0.08-1.912-0.166-2.787-0.256c0.105,0.478,0.201,0.958,0.286,1.443c0.158,0.899,0.293,1.806,0.399,2.724
			c0.165,1.438,0.315,3.021,0.439,4.69c0.078,1.056,0.145,2.147,0.199,3.258c0.147,2.998,0.195,6.14,0.09,9.151
			c-0.127,3.641-0.478,7.085-1.155,9.827c-2.35,9.507-8.202,6.565-15.228,11.398c-2.435,1.674-3.948,4.003-4.632,6.842
			c-0.902,3.737,1.171,8.031,7.166,9.752c3.617,1.038,12.132,2.034,24.238,0.724c2.976-0.322,5.232-1.756,6.87-4.207
			c8.089-12.106,11.992-29.888,15.427-43.276c0.097-0.378,0.216-0.752,0.395-1.374c4.475,12.311,13.123,20.255,24.957,25.359
			c-3.154,0.497-8.973,1.023-14.296,4.399c-1.49,0.945-2.749,2.126-3.755,3.587c-1.624,2.363-1.6,4.785-0.301,7.249
			c6.253,11.852,43.017,7.695,78.818,6.214c8.173-0.339,14.835-3.09,20.867-10.079c10.757-12.464,12.751-25.502,13.342-26.161
			c0.316-0.069,0.497,0.213,0.725,0.362c5.588,3.633,12.607,0.052,13.507-7.183c0.114-0.917,0.11-0.917,0.986-1.122
			c4.372-1.022,7.18-5.896,4.412-12.846C437.308,363.847,437.184,363.531,437.804,363.265z M370.668,354.423
			c-2.077,2.039-5.002,4.242-7.874,4.645c-0.144-0.379-0.433-0.96-0.599-1.231C364.269,355.8,367.801,354.827,370.668,354.423z
			 M361.341,356.706c-0.339-0.369-0.716-0.7-1.121-0.993c3.081-2.74,6.672-2.886,9.165-2.516
			C366.94,353.639,363.574,354.608,361.341,356.706z M365.217,317.025c0.253,0.838,0.643,1.619,1.167,2.309l-3.567,3.559
			c-0.275,0.275-0.276,0.721-0.001,0.996c0.272,0.273,0.718,0.278,0.996,0.001l3.529-3.521c0.801,0.715,1.719,1.232,2.757,1.552
			c-3.317,6.294-9.177,7.175-10.629,5.72C358.017,326.187,358.913,320.327,365.217,317.025z M355.398,345.913
			c1.68,1.857,3.48,4.844,2.983,8.827c-0.471-0.169-0.962-0.288-1.467-0.357C357.413,351.445,356.395,348.204,355.398,345.913z
			 M355.489,354.325c-0.023,0.001-0.57,0.05-0.635,0.059c-0.065,0.01-0.603,0.118-0.626,0.123c-1.37-2.614-1.203-6.352-0.697-9.244
			C354.843,347.9,356.059,351.436,355.489,354.325z M358.101,333.905c-0.966,5.62-7.594,12.349-16.954,13.767
			c-0.147-0.803-0.436-2.026-0.993-3.519c6.539-2.233,10.591-7.221,11.307-11.39c0.716-4.163-1.436-10.225-6.857-14.512
			c1.023-1.22,1.706-2.278,2.112-2.985C355.059,319.723,359.067,328.281,358.101,333.905z M352.878,354.968
			c-0.464,0.21-0.901,0.464-1.305,0.759c-1.608-3.677-0.73-7.052,0.353-9.31C351.62,348.897,351.565,352.293,352.878,354.968z
			 M338.287,356.122c-0.457,0.445-1.057,0.799-1.763,1.062c-1.989,0.739-4.497,0.624-6.552,0.18
			c-6.493-1.406-13.696-6.63-18.218-16.191c1.309-0.284,2.551-0.721,3.709-1.293c1.883,3.758,4.199,6.548,5.314,6.881
			c0.261,0.078,0.527,0.063,0.758-0.081h0c0.19-0.118,0.358-0.344,0.409-0.643c0.057-0.332-0.03-0.849-0.236-1.491
			c-0.663-2.059-2.26-4.597-3.567-6.332c0.02-0.015,0.323-0.254,0.343-0.27c2.18,2.611,5.225,5.831,7.861,7.893
			c0.495,0.387,1.83,1.398,2.457,1.432c0.187,0.01,0.217-0.021,0.263-0.032c0.134-0.033,0.274-0.098,0.375-0.196
			c0.173-0.168,0.25-0.43,0.245-0.632c-0.017-0.627-0.992-1.988-1.367-2.494c-2.009-2.712-5.162-5.845-7.688-8.069
			c0.049-0.057,0.099-0.113,0.147-0.17c0.045-0.054,0.088-0.11,0.132-0.165c1.701,1.353,4.139,2.976,6.162,3.706
			c0.427,0.154,1.114,0.368,1.562,0.303c0.565-0.082,0.913-0.563,0.754-1.148c-0.304-1.124-3.035-3.514-6.746-5.497
			c0.609-1.155,1.08-2.386,1.397-3.671C340.292,337.421,342.194,352.316,338.287,356.122z M338.452,360.961
			c-2.879,0.614-5.898,1.599-8.612,2.736c0-0.001,0.001-0.003,0.001-0.004c0.505-1.297,0.989-2.878,1.314-4.699
			c1.831,0.237,3.814,0.194,5.567-0.387c0.006,0.034,0.023,0.066,0.034,0.1c0.016,0.048,0.026,0.097,0.052,0.142
			C336.825,358.877,337.384,359.808,338.452,360.961z M292.676,297.818c-3.424-0.247-6.695,0.687-8.656,2.597
			c-1.96,1.909-2.98,5.154-2.822,8.584c-1.901-0.006-3.594,0.181-5.044,0.456c-1.724-6.05-0.102-11.839,2.588-14.459
			c1.542-1.503,3.878-2.489,6.512-2.871c2.578-0.374,5.371-0.164,8.01,0.663C292.951,294.229,292.719,295.917,292.676,297.818z
			 M296.294,313.013c-5.147-2.708-9.792-3.767-13.68-3.977c-0.156-3.058,0.718-5.985,2.389-7.613
			c1.868-1.82,5.003-2.395,7.674-2.189C292.785,303.125,293.722,307.797,296.294,313.013z M296.23,314.573
			c-0.874,0.981-1.627,2.066-2.241,3.229c-3.735-1.936-7.252-2.832-8.351-2.446c-0.587,0.206-0.764,0.775-0.519,1.272
			c0.149,0.302,0.522,0.669,1.067,1.067c1.742,1.277,4.54,2.393,6.607,3.026c-0.011,0.036-0.115,0.396-0.121,0.418
			c-3.54-0.891-8.756-1.854-12.064-1.776c-0.45,0.011-1.383,0.053-1.762,0.299c-0.173,0.112-0.341,0.323-0.382,0.559c0,0,0,0,0,0
			c-0.041,0.239,0.05,0.494,0.173,0.655c0.173,0.225,0.606,0.479,1.248,0.745c3.13,1.295,8.879,2.159,12.278,2.478
			c-0.016,0.206-0.012,0.077-0.03,0.434c-2.16-0.094-5.083,0.026-7.149,0.623c-0.438,0.126-1.121,0.357-1.447,0.674
			c-0.409,0.399-0.408,0.991,0.065,1.372c0.906,0.729,4.517,1.057,8.679,0.482c0.194,1.33,0.547,2.598,1.034,3.79
			c-7.305,1.181-14.813,0.307-20.969-3.743c-1.229-0.809-2.123-1.567-2.69-2.1c-1.969-1.853-4.137-4.933-3.686-7.556
			C266.908,312.621,280.367,305.887,296.23,314.573z M293.381,319.076c-0.01,0.025-0.113,0.285-0.123,0.31
			c-1.93-0.585-4.259-1.516-5.91-2.592C289.259,317.177,291.521,318.107,293.381,319.076z M292.365,322.513
			c-0.011,0.062-0.024,0.123-0.034,0.185c-3.308-0.308-7.462-0.96-10.638-1.924C284.996,320.926,289.12,321.694,292.365,322.513z
			 M292.143,326.281c-2.026,0.285-4.49,0.415-6.448,0.134c1.919-0.464,4.392-0.567,6.429-0.474
			C292.134,326.213,292.135,326.147,292.143,326.281z M278.642,332.147c3.734,1.099,8.462,1.658,14.216,0.824
			c-4.161,4.056-6.602,8.145-8.003,11.775c-2.956-0.797-5.47-2.532-6.502-4.625C277.321,338.028,277.475,334.978,278.642,332.147z
			 M286.25,345.045c1.404-3.549,3.859-7.557,8.075-11.531c0.669,1.142,1.47,2.189,2.382,3.123c-2.995,2.954-4.935,6.022-4.908,7.186
			c0.008,0.365,0.174,0.58,0.311,0.696l0,0c0.172,0.145,0.438,0.234,0.738,0.191c0.333-0.048,0.798-0.29,1.345-0.685
			c1.745-1.26,3.66-3.55,4.923-5.353c0.058,0.04,0.115,0.082,0.173,0.121c0.062,0.042,0.126,0.08,0.189,0.121
			c-1.83,2.913-4.442,7.655-5.421,10.932c-0.125,0.417-0.374,1.346-0.261,1.768c0.025,0.094,0.072,0.19,0.122,0.264
			c0.165,0.25,0.389,0.359,0.682,0.354c0.058-0.001,0.116,0.017,0.287-0.044c0.264-0.094,0.636-0.429,1.078-0.944
			c2.207-2.57,4.813-7.794,6.167-10.928c0.023,0.01,0.382,0.152,0.405,0.161c-0.764,2.044-1.549,4.851-1.619,7.001
			c-0.014,0.453-0.007,1.172,0.194,1.58c0.135,0.274,0.359,0.441,0.575,0.5c0,0,0,0,0,0c0.236,0.065,0.497,0.028,0.75-0.138
			c0.974-0.636,2.403-3.969,3.142-8.107c1.273,0.219,2.588,0.285,3.924,0.186c-1.064,6.863-3.891,13.279-8.96,17.867
			c-1.563,1.415-3.292,2.626-5.178,3.453c-2.1,0.922-5.046,1.607-7.057,0.548c-2.18-1.147-3.296-4.32-3.661-6.821
			C284.106,352.853,284.83,348.636,286.25,345.045z M297.736,337.604c0.011,0.01,0.233,0.202,0.252,0.217
			c-1.551,2.226-3.157,3.905-4.291,4.82C294.658,340.931,296.249,339.064,297.736,337.604z M300.689,339.633
			c0.055,0.029,0.111,0.057,0.166,0.085c-1.341,3.113-3.247,6.843-5.12,9.532C296.912,346.121,298.905,342.469,300.689,339.633z
			 M303.876,340.923c0.022,0.006,0.296,0.086,0.321,0.093c-0.356,2.025-0.991,4.401-1.862,6.171
			C302.449,345.719,302.926,343.45,303.876,340.923z M310.781,342.391c2.573,5.215,5.708,8.803,8.73,11.258
			c-1.672,2.566-4.099,4.42-6.408,4.755c-2.31,0.335-5.164-0.754-7.495-2.739C307.808,352.453,309.795,348.123,310.781,342.391z
			 M304.776,356.811c2.626,2.213,5.82,3.379,8.528,2.987c2.708-0.393,5.44-2.418,7.329-5.286c1.534,1.123,3.014,1.967,4.349,2.596
			c-0.107,0.292-0.216,0.568-0.324,0.826c-2.077,4.93-6.299,8.775-10.268,9.351c-3.968,0.575-9.109-1.912-12.501-6.05
			c-0.178-0.216-0.36-0.45-0.546-0.7C302.445,359.553,303.624,358.323,304.776,356.811z M316.703,339.202
			c0.023-0.014,0.26-0.167,0.281-0.18c1.636,2.161,2.736,4.207,3.257,5.569C318.914,343.151,317.631,341.064,316.703,339.202z
			 M319.539,337.01c0.045-0.043,0.091-0.086,0.136-0.13c2.572,2.263,7.372,7.669,7.481,7.814
			C324.619,342.668,321.74,339.65,319.539,337.01z M321.75,334.376c0.013-0.019,0.171-0.266,0.18-0.28
			c1.815,0.964,3.883,2.303,5.304,3.683C325.879,337.221,323.865,336.067,321.75,334.376z M323.998,321.32
			c1.906-0.661,4.309-1.271,6.299-1.372c-1.795,0.825-4.201,1.401-6.221,1.703C324.049,321.534,324.062,321.57,323.998,321.32z
			 M341.344,349.069c1.83-0.277,3.422-0.72,4.733-1.191c0.001,0,0.003-0.001,0.004-0.001c-1.019,2.262-1.931,4.739-2.597,7.137
			c-1.268,0.233-2.412,0.632-3.373,1.064C341.368,354.091,341.585,351.403,341.344,349.069z M350.023,355.627
			c-0.738-0.293-1.465-0.5-2.178-0.631c0.477-1.665,1-3.165,1.513-4.473C349.211,352.101,349.362,353.83,350.023,355.627z
			 M346.419,354.822c-0.48-0.028-0.95-0.027-1.408,0.001c0.809-2.752,1.951-5.607,3.001-7.737c0.606-0.279,1.139-0.557,1.707-0.873
			C348.766,348.103,347.474,351.05,346.419,354.822z M339.855,322.641c1.541-1.112,2.8-2.258,3.811-3.332
			c4.97,3.897,7.041,9.53,6.407,13.217c-0.679,3.952-4.633,8.072-9.616,10.02c-0.261,0.102-0.54,0.204-0.835,0.303
			c-0.594-1.35-1.399-2.852-2.481-4.415c2.916-1.813,5.013-4.491,5.476-7.188C343.08,328.547,341.998,325.323,339.855,322.641z
			 M341.229,331.006c-0.395,2.3-2.312,4.678-4.921,6.281c-2.374-3.083-5.875-6.31-11.018-9.018
			c5.755-0.835,10.129-2.713,13.397-4.827C340.61,325.824,341.624,328.706,341.229,331.006z M348.819,359.708
			c-0.118,0.423-0.181,0.788-0.224,1.206c-1.129,0.203-2.339,0.125-3.469-0.094c-1.9-0.368-4.655-1.588-5.601-2.09
			C342.449,358.295,346.241,358.229,348.819,359.708z M348.588,362.344c0.032,0.347,0.062,0.789,0.332,1.615
			c-3.432,0.339-6.509-0.979-8.973-3.431C342.534,361.759,345.741,362.768,348.588,362.344z M341.17,357.116
			c2.981-1.224,6.04-1.281,8.913,0.067c-0.288,0.374-0.54,0.775-0.753,1.198C346.947,357.095,343.859,356.904,341.17,357.116z
			 M336.006,302.286c1.383-0.064,2.763-0.01,4.112,0.223c1.873,0.324,3.945,1.021,5.415,2.25c1.196,0.999,1.709,2.069,1.772,3.593
			c0.088,2.112-0.79,4.46-1.853,6.287c-0.392,0.673-1.033,1.653-1.983,2.778c-4.766,5.649-11.761,8.609-19.042,9.544
			c0.128-1.281,0.107-2.597-0.085-3.928c4.155-0.63,7.524-1.97,8.185-2.927c0.355-0.514,0.161-1.077-0.328-1.334
			c-0.297-0.157-0.816-0.234-1.491-0.237c-2.172-0.005-5.066,0.728-7.12,1.434c-0.125-0.355-0.064-0.179-0.151-0.408
			c2.876-1.154,6.053-2.659,8.635-4.212c0.743-0.447,3.105-1.907,3.418-2.719c0.185-0.482-0.069-0.965-0.545-1.105
			c-0.273-0.081-0.773-0.032-1.45,0.131c-3.179,0.765-8.292,3.379-11.387,5.212c-0.011-0.018-0.218-0.341-0.234-0.366
			c1.823-1.207,4.159-3.055,5.475-4.777c0.409-0.536,0.663-0.995,0.72-1.326c0.092-0.54-0.232-1.041-0.859-1.072
			c-1.163-0.061-4.281,1.8-7.312,4.717c-0.92-0.941-1.95-1.767-3.066-2.459C322.037,306.345,328.656,302.626,336.006,302.286z
			 M322.879,318.27c-0.028-0.057-0.057-0.112-0.086-0.168c2.916-1.73,6.643-3.624,9.739-4.698
			C329.801,315.204,326.017,317.013,322.879,318.27z M321.049,315.357c-0.014-0.018-0.188-0.239-0.206-0.262
			c1.487-1.437,3.395-2.983,5.137-3.902C325.025,312.314,323.302,313.873,321.049,315.357z M323.862,295.789
			c2.065,1.087,3.734,3.645,4.454,6.621c-3.668,1.306-7.821,3.641-11.987,7.698c0.984-5.732,0.556-10.477-0.445-14.239
			C318.394,294.91,321.551,294.573,323.862,295.789z M321.331,318.333c3.406,6.312,1.752,14.081-3.731,18.516
			c-5.537,4.489-13.438,4.351-18.831-0.213c-1.514-1.282-3.024-3.34-3.715-4.735c-4.465-9.117,1.281-19.76,11.135-21.189
			C312.468,309.801,318.463,313.021,321.331,318.333z M302.43,310.259c-0.899-1.842-1.785-4.139-2.122-6.089
			c1.036,1.687,1.911,4.058,2.436,5.967C302.719,310.146,302.446,310.253,302.43,310.259z M305.893,309.334
			c-0.738-3.28-1.394-7.414-1.458-10.713c0.874,3.176,1.419,7.318,1.644,10.686c-0.031,0.004-0.062,0.007-0.093,0.011
			C305.955,309.323,305.924,309.329,305.893,309.334z M309.968,302.769c0.229,1.952,0.037,4.4-0.305,6.442
			c-0.017-0.001-0.311-0.027-0.336-0.028C309.286,307.151,309.855,303.189,309.968,302.769z M314.824,310.526
			c-1.192-0.526-2.453-0.911-3.76-1.138c0.685-4.148,0.451-7.766-0.255-8.691c-0.369-0.485-0.962-0.497-1.37-0.101
			c-0.69,0.672-1.102,2.908-1.242,3.864c-0.202,1.38-0.309,2.995-0.28,4.698c-0.22,0.006-0.034-0.006-0.435,0.015
			c-0.231-3.421-0.904-8.786-2.039-12.021c-0.15-0.427-0.478-1.3-0.828-1.585c-0.379-0.308-0.947-0.221-1.22,0.177
			c-0.161,0.234-0.269,0.724-0.323,1.417c-0.26,3.319,0.668,9.01,1.438,12.443c-0.394,0.095-0.209,0.052-0.421,0.109
			c-0.576-2.077-1.594-4.828-2.805-6.614c-0.255-0.376-0.684-0.952-1.085-1.163c-0.509-0.267-1.07-0.078-1.285,0.486
			c-0.414,1.087,0.389,4.623,2.224,8.405c-1.189,0.588-2.289,1.316-3.282,2.159c-3.381-6.581-4.868-14.022-2.923-21.106
			c0.317-1.157,0.748-2.358,1.262-3.405c1.159-2.364,3.367-5.268,5.952-5.642C307.527,282.053,318.211,292.591,314.824,310.526z
			 M313.429,281.671c-1.171,0.753-2.493,1.747-3.827,3.03c-2.037-1.925-4.923-3.659-7.659-3.263
			c-2.735,0.397-5.012,2.882-6.417,5.303c-1.643-0.852-3.193-1.429-4.53-1.819c-0.001,0-0.002-0.001-0.003-0.001
			c3.61-2.064,7.445-4.838,10.306-7.924c3.62,2.146,8.086,3.718,12.132,4.671C313.432,281.67,313.431,281.671,313.429,281.671z
			 M300.795,273.517c6.619,4.004,12.782,5.635,16.171,6.279c-0.601,0.26-1.144,0.512-1.732,0.822
			c-8.869-1.766-14.146-5.411-14.198-5.434c-0.102,0.09-4.109,5.053-12.07,9.242c-0.653-0.131-1.242-0.218-1.894-0.296
			C290.14,282.55,295.586,279.236,300.795,273.517z M294.866,287.988c-0.353,0.736-0.838,1.895-1.265,3.429
			c-6.578-2.03-12.799-0.395-15.842,2.569c-3.025,2.947-4.849,9.114-2.983,15.77c-1.545,0.386-2.716,0.841-3.461,1.174
			c-4.138-8.526-2.335-17.797,1.743-21.77C276.992,285.328,286.237,283.518,294.866,287.988z M271.541,288.722
			c-1.271,1.419-2.26,3.213-2.935,5.242c-0.201-1.613-0.738-3.314-1.821-4.963C268.509,289.261,270.024,289.132,271.541,288.722z
			 M266.374,287.5c0.173-0.379,0.318-0.775,0.427-1.192c0.016-0.061,0.024-0.122,0.038-0.183c2.763,0.675,5.924,0.058,8.615-0.87
			C273.462,286.778,270.321,288.339,266.374,287.5z M267.032,284.726c0.017-0.427-0.019-1.009-0.072-1.366
			c2.7-1.066,6.324-0.592,9.13,0.15C273.38,284.58,269.834,285.471,267.032,284.726z M275.391,281.881
			c-2.425-0.543-5.904-0.96-8.776,0.103c-0.204-0.57-0.405-0.954-0.645-1.351C269.874,279.308,273.238,280.57,275.391,281.881z
			 M264.653,279.017c-0.372-0.342-0.78-0.64-1.214-0.898c1.601-2.512,1.923-5.891,1.895-8.388
			C266.159,272.094,266.656,275.543,264.653,279.017z M265.252,289.255c2.607,3.494,2.277,7.306,1.619,9.756
			c-0.198-2.478-0.839-6.125-2.812-8.652C264.493,290.037,264.894,289.668,265.252,289.255z M261.548,291.563
			c0.338-0.089,0.774-0.225,1.293-0.473c1.834,2.236,2.503,5.816,2.664,8.712C263.662,297.574,261.706,294.464,261.548,291.563z
			 M262.377,310.706c2.544-3.033,4.259-5.796,5.285-7.666c0.061,0.653,0.133,1.245,0.247,1.901c-1.126,2.01-2.791,4.519-4.554,6.706
			C263.105,311.305,262.77,310.99,262.377,310.706z M262.559,316.789c0.95-1.211,1.423-2.503,1.356-3.595
			c1.64-1.953,3.172-4.13,4.437-6.215c0,0.001,0.001,0.002,0.001,0.003c0.354,1.347,0.891,2.911,1.699,4.576
			c-2.443,1.333-5.001,3.549-5.47,6.276c-0.468,2.721,1.189,5.654,3.061,7.742c-1.318,1.3-2.346,2.595-3.129,3.746
			c-0.001,0.001-0.002,0.002-0.002,0.003c-0.758-3.641-1.99-7.557-3.633-10.88C261.508,317.952,262.077,317.403,262.559,316.789z
			 M258.461,319.882c0.431-0.191,0.843-0.406,1.238-0.64c1.753,3.61,3.08,8.165,3.715,11.857c-0.327,0.581-0.594,1.119-0.867,1.709
			C262.087,329.989,260.998,325.247,258.461,319.882z M269.053,333.526c-2.191,0.434-4.757,2.119-6.524,3.471
			c1.058-3.952,3.127-7.482,6.093-10.408c0.59,0.563,1.546,1.383,2.873,2.262C270.448,330.338,269.639,331.917,269.053,333.526z
			 M271.895,334.08c-0.348-0.326-0.784-0.528-1.298-0.612c0.605-1.525,1.302-2.749,2.099-3.87c1.274,0.743,2.807,1.485,4.6,2.113
			c-1.294,3.181-1.415,6.58-0.205,9.034c1.21,2.454,3.981,4.427,7.292,5.337c-0.594,1.806-0.939,3.475-1.125,4.938
			c-5.25-0.192-11.677-2.982-13.35-7.917C271.452,340.698,273.979,336.035,271.895,334.08z M264.449,349.867
			c1.62-1.7,3.019-3.271,4.506-5.353c1.769,3.813,7.047,7.617,14.164,7.909c-0.11,1.589-0.04,2.844,0.047,3.656
			C275.292,357.169,267.304,353.258,264.449,349.867z M280.939,363.199c1.104,1.629,2.214,3.487,3.105,5.443
			c-0.366,0.295-0.719,0.62-1.053,0.978c-1.025-2.156-2.128-4.081-3.22-5.77C280.212,363.654,280.601,363.435,280.939,363.199z
			 M285.946,375.211c-0.425-1.591-1.524-2.797-2.882-3.428c2.57-3.803,6.34-3.997,7.131-3.065c0.001,0.001,0.002,0.002,0.002,0.002
			v0C290.956,369.624,290.197,373.309,285.946,375.211z M276.443,365.199c0.389-0.056,1.019,0.087,1.723,0.554
			c0.634,0.422,2.579,2.001,2.957,5.543c-1.603-0.089-3.094,0.536-4.151,1.677C273.999,369.157,275.251,365.372,276.443,365.199z
			 M268.654,377.423L268.654,377.423c-0.083-1.171,2.694-3.719,7.259-2.753c-0.544,1.409-0.494,3.021,0.307,4.469
			C271.914,380.698,268.738,378.644,268.654,377.423z M277.884,388.424c-1.189-0.297-2.657-3.78-0.377-7.747
			c1.17,0.947,2.651,1.34,4.082,1.132c0.089-0.013,0.177-0.037,0.265-0.055C282.007,386.334,279.073,388.719,277.884,388.424z
			 M281.486,380.396c-1.17,0.198-2.343-0.159-3.202-0.909c-2.513-2.198-1.23-6.288,1.998-6.756c2.149-0.312,4.199,1.231,4.417,3.461
			C284.895,378.179,283.525,380.051,281.486,380.396z M291.199,383.045c-0.651,1.04-4.419,1.356-7.485-2.037
			c1.333-0.863,2.185-2.271,2.373-3.799C290.483,378.48,291.848,382.006,291.199,383.045z M288.142,366.874
			c-1.005,0.099-1.992,0.429-2.919,0.958c-0.953-2.053-2.116-3.978-3.261-5.648c0.21-0.329,0.336-0.684,0.367-1.067
			c0-0.002,0-0.004,0-0.007c0.115-1.484-1.275-2.645-2.56-3.394c1.09,0.006,2.302-0.061,3.603-0.242
			c0.515,2.747,1.831,5.853,4.279,7.141c2.461,1.295,5.756,0.613,8.309-0.518c0.829,1.654,1.742,3.032,2.595,4.133
			c0.001,0.001,0.001,0.002,0.002,0.003c-2.327-0.254-4.823-0.36-7.184-0.28C290.691,366.989,289.317,366.758,288.142,366.874z
			 M291.741,370.713c0.102-0.478,0.134-0.936,0.1-1.357c2.827-0.065,5.811,0.144,8.065,0.47c0.45,0.488,0.88,0.909,1.358,1.353
			C299.115,370.847,295.799,370.519,291.741,370.713z M315.559,375.347c-5.643,0.818-14.092-3.406-18.332-11.87
			c0.718-0.388,1.792-1.04,3.039-2.031c4.113,5.489,10.101,7.846,14.327,7.234c4.181-0.606,9.279-4.524,11.682-11.005
			c1.477,0.596,2.692,0.917,3.491,1.085C328.101,368.089,320.485,374.632,315.559,375.347z M328.082,367.29
			c0.334-0.564,0.624-1.085,0.918-1.683c3.088-1.422,7.103-2.778,10.681-3.451c0.451,0.394,0.955,0.786,1.509,1.157
			C335.264,364.255,330.688,366.061,328.082,367.29z M349.841,365.823c0.244,0.356,0.518,0.688,0.818,0.993
			c-1.992,1.927-3.073,4.844-3.653,7.212C346.868,371.611,347.34,368.491,349.841,365.823z M351.747,367.73
			c0.463,0.319,0.777,0.48,1.119,0.636c-0.443,2.9-2.757,5.809-4.863,7.846C348.492,373.313,349.582,369.736,351.747,367.73z
			 M349.597,376.623c1.752-1.8,4.045-4.666,4.62-7.792c0.551,0.131,1.123,0.197,1.707,0.195
			C354.99,373.242,351.88,375.502,349.597,376.623z M349.969,362.009c-0.208-3.615,2.892-6.649,6.579-6.251
			c2.729,0.295,4.872,2.419,5.255,5.059c0.471,3.247-1.798,6.277-5.038,6.747C353.383,368.054,350.173,365.549,349.969,362.009z
			 M357.984,368.727c0.424-0.124,0.832-0.282,1.218-0.475c1.308,2.565,3.903,4.525,6.007,5.782
			C362.813,373.46,359.824,372.066,357.984,368.727z M360.4,367.499c0.281-0.217,0.722-0.618,1.006-0.938
			c2.559,1.346,4.568,4.383,5.843,6.991C364.67,372.206,361.672,370.106,360.4,367.499z M362.243,365.413
			c0.276-0.466,0.497-0.965,0.665-1.484c3.765,2.205,4.945,5.848,5.291,8.362C367.054,370.085,365.045,366.974,362.243,365.413z
			 M363.263,361.878c0.012-0.416-0.004-0.838-0.066-1.263c-0.009-0.06-0.025-0.118-0.035-0.178c2.973-0.48,5.751-2.499,7.596-4.156
			C369.516,358.458,367.23,361.114,363.263,361.878z M380.435,330.988c-1.816,0.921-7.124-1.707-8.32-8.746
			c0.928,0.016,1.779-0.114,2.688-0.449l2.284,4.496c0.14,0.276,0.438,0.42,0.729,0.378c0.475-0.069,0.746-0.586,0.527-1.016
			l-2.271-4.471c0.877-0.534,1.624-1.243,2.205-2.071C383.24,324.208,382.267,330.057,380.435,330.988z"/>
            <path fill="#1A1A1A" d="M329.287,292.912c-0.358-0.251-0.742-0.535-1.152-0.861c-0.426,0.274-0.796,0.379-1.081,0.29
			c-0.397-0.125-0.842-0.783-1.046-2.185c-0.488-0.483-0.99-1.017-1.505-1.609C324.558,293.44,326.694,294.894,329.287,292.912z"/>
            <path fill="#1A1A1A" d="M295.239,326.722c0.524,4.959,3.769,9.105,8.322,10.879c7.322,2.854,15.498-1.356,17.476-8.96
			c1.975-7.592-3.157-15.286-11.011-16.323C301.573,311.203,294.353,318.323,295.239,326.722z M317.825,318.483
			c1.743,2.409,2.496,5.387,2.132,8.311c-1.079,8.668-11.028,13.254-18.324,8.199c-2.701-1.873-4.76-6.629-4.957-8.104
			c-0.499-3.77,0.858-7.477,3.556-10.046C305.352,311.968,313.639,312.696,317.825,318.483z"/>
            <path fill="#1A1A1A" d="M298.46,325.616c0.165,5.945,5.518,10.324,11.265,9.491c6.527-0.946,10.343-8.026,7.496-13.976
			c-1.809-3.817-5.97-6.171-10.326-5.539C301.947,316.308,298.323,320.646,298.46,325.616z M313.989,319.095
			c3.846,3.485,3.68,9.699-0.531,12.948c-2.249,1.751-5.354,2.25-8.099,1.222c-1.591-0.596-3.374-2.159-4.13-3.319
			c-3.361-5.159-0.205-12.08,5.868-12.96C309.495,316.637,312.067,317.353,313.989,319.095z"/>
            <path fill="#1A1A1A" d="M353.462,358.1c-0.428,0.294-1.103,1.096-1.125,1.129c-2.138,3.126,0.492,7.269,4.195,6.732
			c1.912-0.277,3.408-1.796,3.67-3.703C360.714,358.529,356.534,355.988,353.462,358.1z M356.155,364.584
			c-1.265,0.107-2.45-0.618-2.939-1.778c-0.756-1.794,0.413-3.76,2.274-4.03c1.855-0.269,3.541,1.278,3.325,3.218
			C358.661,363.382,357.546,364.466,356.155,364.584z"/>
            </g>
        </g>
</svg>
