<?xml version="1.0" encoding="utf-8"?>
<svg version="1.1" id="Layer_1" xmlns="http://www.w3.org/2000/svg"
     xmlns:xlink="http://www.w3.org/1999/xlink"
     x="0px" y="0px" viewBox="0 0 504 504"

     xml:space="preserve">
    <style type="text/css">.st0{fill-rule:evenodd;clip-rule:evenodd;}</style>
    <g>
            <path fill="#1A1A1A" d="M176.203,216.671c-3.64-0.732-6.749-2.474-9.432-5.093c0.039,3.719-0.996,7.028-2.917,10.074
		C168.438,223.966,174.856,221.182,176.203,216.671z"/>
        <path fill="#1A1A1A" d="M197.01,188.616c-4.29,2.017-5.262,2.469-7.96,2.707c-0.442,0.575-0.902,1.138-1.361,1.7
		c1.994,2.2,3.256,4.733,4.012,7.55C197.482,198.577,198.762,191.83,197.01,188.616z"/>
        <path fill="#1A1A1A" d="M196.639,228.832c1.873,0.954,3.837,1.678,6.014,1.525c1.852-0.13,2.873-1.107,3.016-2.96
		c0.167-2.175-0.586-4.13-1.556-6c-2.212-4.265-5.421-7.681-9.209-10.58c-0.624-0.477-1.308-0.875-2.111-1.406
		c0.024,0.501,0.014,0.805,0.058,1.102c0.297,2.04,0.737,4.042,1.546,5.954c0.26,0.614,0.533,1,1.288,1.142
		c1.236,0.232,1.982,1.458,1.84,2.678c-0.141,1.203-1.178,2.182-2.387,2.252c-1.221,0.071-2.264-0.753-2.558-2.029
		c-0.062-0.267-0.101-0.539-0.152-0.818c-2.458-1.227-5.06-1.78-7.734-2.056c-0.052,0.071-0.104,0.141-0.156,0.212
		c0.513,0.693,1.016,1.393,1.54,2.077C188.945,223.669,192.433,226.69,196.639,228.832z M200.863,223.026
		c1.384-0.035,2.552,1.09,2.577,2.482c0.026,1.4-1.085,2.531-2.5,2.543c-1.401,0.012-2.52-1.107-2.519-2.521
		C198.423,224.189,199.524,223.06,200.863,223.026z"/>
        <path fill="#1A1A1A" d="M191.882,216.885c0.063-0.077,0.106-0.107,0.103-0.129c-0.128-0.761-1.111-2.804-1.488-6.727
		c-0.598-6.218-0.448-10.913-4.318-15.245c-0.285,0.306-0.577,0.6-0.873,0.889c3.005,8.532-2.007,15.645-11.053,14.846
		c-2.317-0.204-4.492-0.944-6.707-1.863c0.179,0.252,0.339,0.519,0.539,0.753c1.714,2.006,3.797,3.481,6.289,4.374
		c2.261,0.809,4.62,1.053,6.988,1.247C187.9,215.566,188.357,215.819,191.882,216.885z"/>
        <path fill="#1A1A1A" d="M208.3,177.561c-4.073-2.561-3.997-2.277-7.393-5.135c-7.177,12.162-7.945,13.46-9.955,16.309
		c3.951-0.958,6.511-3.321,10.059-6.312C204.292,179.658,206.028,178.736,208.3,177.561z"/>
        <path fill="#1A1A1A" d="M145.29,261.925c7.097,10.179,6.319,10.327,7.502,12.058c0.766-1.24,1.495-3.318,4.762-8.078
		c6.244-9.097,8.025-10.983,9.798-15.694c2.742-7.286,1.884-14.111-2.634-20.481c-0.615-0.867-1.43-1.114-2.421-1.303
		c0,1.712,2.267,10.877-0.74,22.183c-0.962,3.616-2.733,8.192-5.896,10.224c-3.075,1.975-5.75,0.706-8.057-2.156
		c-1.151-1.427-1.919-3.086-2.509-4.811c-2.161-6.326-2.604-12.843-2.045-19.453c0.164-1.942,0.492-3.869,0.762-5.933
		c-0.677,0.181-1.275,0.374-1.887,0.494c-0.449,0.088-0.741,0.324-1.002,0.679c-3.55,4.829-4.938,10.195-3.946,16.123
		C138.098,252.467,141.826,256.958,145.29,261.925z"/>
        <path fill="#1A1A1A" d="M195.163,239.771c6.472,2.485,14.404,2.269,25.675,5.905c0-0.201,0.026-0.304-0.004-0.387
		c-5.054-14.281-2.043-28.203-14.199-36.064c-2.799-1.81-5.843-2.962-9.182-3.261c-0.702-0.063-0.947,0.142-2.842,0.987
		c1.553,1.133,4.766,3.5,6.267,4.779c5.005,4.265,10.529,11.067,12.412,17.34c2.633,8.77-3.913,12.83-15.242,6.24
		c-5.849-3.402-11.487-8.814-15.023-13.799c-0.226-0.318-0.473-0.62-0.741-0.971c-1.198,2.137-1.228,2.145-0.675,4.26
		C183.527,232.138,188.12,237.067,195.163,239.771z"/>
        <path fill="#1A1A1A" d="M84.652,245.639c2.647-0.409,1.342-1.111,15.979-3.562c2.893-0.485,5.789-0.957,8.584-1.884
		c9.452-3.136,14.325-10.141,15.228-18.282c0.087-0.78-0.236-1.399-0.625-2.109c-1.325,1.541-4.167,6.614-11.896,12.538
		c-4.073,3.122-10.234,6.747-15.308,6.164c-2.528-0.29-4.35-1.865-4.74-4.302c-1-6.254,4.39-13.726,8.632-18.396
		c-3.15,0.861-6.282,1.784-9.396,2.772c-1.806,4.111-2.14,7.357-2.934,11.507C85.48,244.17,85.585,242.584,84.652,245.639z"/>
        <path fill="#1A1A1A" d="M227.186,208.327c0.028-0.193,0.065-0.138-0.062-0.616c-1.076-4.074-2.899-7.767-5.559-11.051
		c-0.465-0.574-0.882-0.823-1.649-0.743c-5.29,0.557-10.194-0.631-14.726-3.396c-0.143-0.087-0.297-0.155-0.594-0.31
		c-0.139,4.591-1.789,8.402-4.829,11.62c1.009,0.598,6.831,1.108,12.452,7.14c0.496,0.532,0.97,0.692,1.635,0.653
		c4.361-0.26,8.567-1.187,12.592-2.899C226.723,208.608,226.978,208.44,227.186,208.327z"/>
        <path fill="#1A1A1A" d="M226.738,163.622c-7.297-3.238-14.428-2.749-21.154,1.625c-0.378,0.246-0.672,0.521-0.915,0.819
		c-0.65,1.093-0.746,1.114-1.133,2.713c2.553-0.369,3.768-0.615,5.354-0.789c6.707-0.732,13.091-0.123,18.227,1.346
		C226.842,164.736,226.756,163.871,226.738,163.622z"/>
        <path fill="#1A1A1A" d="M217.983,183.506c2.288-0.541,4.497-1.32,6.386-2.785c6.635-5.146-4.859-10.967-17.498-9.418
		c-0.962,0.118-1.916,0.307-3.04,0.491c1.368,1.298,3.764,2.792,5.578,3.571c0.749,0.322,1.383,0.543,2.212-0.029
		c0.982-0.677,2.352-0.254,3.077,0.7c0.736,0.968,0.69,2.275-0.112,3.186c-0.782,0.888-2.121,1.11-3.152,0.507
		c-0.267-0.156-0.506-0.361-0.787-0.565c-2.719,0.913-5.04,2.466-7.339,4.33c0.387,0.122,0.612,0.218,0.846,0.264
		C208.781,184.664,213.397,184.59,217.983,183.506z M220.769,175.023c1.391,0.007,2.519,1.16,2.504,2.558
		c-0.016,1.413-1.141,2.494-2.569,2.468c-1.365-0.025-2.452-1.12-2.463-2.48C218.229,176.194,219.398,175.017,220.769,175.023z"/>
        <path fill="#1A1A1A" d="M164.143,210.731c-1.02,2.597-1.867,4.74-4.169,6.891c-4.159,3.886-9.403,3.665-13.385,0.352
		c-3.093-2.574-4.169-5.508-5.206-7.969c-0.205,0.491-0.277,0.937-0.302,1.386c-0.522,9.653,7.332,12.754,11.363,21.292
		c0.064,0.134,0.161,0.253,0.302,0.47c0.369-0.699,0.669-1.284,0.984-1.86c2.178-3.992,5.492-6.944,8.153-10.877
		C163.848,217.511,164.672,214.284,164.143,210.731z"/>
        <path fill="#1A1A1A" d="M175.526,203.148c-0.922-0.24-1.766-0.672-2.467-1.289c-1.476,0.332-1.425,0.303-7.556,1.335
		c-0.018,0.093-0.036,0.185-0.054,0.278c-0.128,0.633,0.09,1.067,0.634,1.392c0.539,0.322,1.042,0.703,1.584,1.018
		c2.607,1.515,5.374,2.528,8.436,2.409c2.936-0.115,5.359-1.228,6.843-3.904c1.219-2.196,1.149-4.619,0.48-7.06
		c-1.536,1.203-3.208,2.191-5.024,2.95C178.9,202.32,177.5,203.662,175.526,203.148z"/>
        <path fill="#1A1A1A" d="M151.057,235.388c-0.871-2.548-2.274-4.725-4.024-6.948c-1.783,6.738-0.602,15.238,1.593,19.097
		c1.683,2.959,3.831,4.846,6.321,2.544c0.582-0.539,1.129-1.169,1.512-1.858c2.963-5.333,3.538-11.695,2.699-17.703
		c-0.103-0.737-0.27-1.464-0.426-2.293c-1.378,1.358-3.121,4.132-3.979,6.195c-0.265,0.638-0.388,1.155,0.076,1.831
		c0.704,1.025,0.347,2.439-0.62,3.189c-2.208,1.713-5.145-0.899-3.68-3.308C150.69,235.872,150.884,235.631,151.057,235.388z
		 M152.651,242.998c1.373-0.024,2.553,1.138,2.555,2.515c0.002,1.396-1.137,2.525-2.537,2.516c-1.413-0.009-2.513-1.135-2.489-2.549
		C150.202,244.124,151.299,243.022,152.651,242.998z"/>
        <path fill="#1A1A1A" d="M141.771,221.875c-2.165-3.224-3.144-6.799-3.114-10.722c-2.42,2.593-5.322,4.245-8.654,5.142
		C131.62,221.586,138.226,223.617,141.771,221.875z"/>
        <path fill="#1A1A1A" d="M138.228,229.349c-4.63-0.263-8.497-1.879-11.726-5.168c-0.296,1.068-0.502,1.952-0.785,2.809
		c-1.366,4.13-3.615,7.687-6.966,10.496c-0.463,0.388-0.452,0.822-0.431,1.31c0.199,4.548,1.306,9.173,3.259,13.325
		c4.948-1.121,9.152-3.495,12.978-6.674c-0.067-0.901-0.184-1.804-0.193-2.707c-0.043-4.43,1.044-8.566,3.303-12.387
		C137.848,230.048,138.014,229.734,138.228,229.349z"/>
        <path fill="#1A1A1A" d="M171.496,246.276c3.21,2.488,6.7,4.419,10.632,5.507c0.429,0.119,0.858,0.239,1.31,0.365
		c1.522-2.843,3.208-8.796,3.322-13.832c0.013-0.567-0.156-0.949-0.583-1.352c-3.328-3.145-5.597-6.93-6.737-11.377
		c-0.049-0.193-0.137-0.376-0.248-0.673c-3.393,2.989-7.293,4.434-11.876,4.427c1.279,2.293,2.594,4.309,3.399,8.281
		c0.497,2.448,0.668,4.916,0.306,7.4C170.944,245.548,171.032,245.916,171.496,246.276z"/>
        <path fill="#1A1A1A" d="M102.699,230.346c3.781,0.33,8.078-2.282,11.049-4.613c2.77-2.173,5.131-4.72,7.082-7.646
		c0.118-0.177,0.167-0.4,0.291-0.708c-2.65,0.318-5.158,0.725-7.609,1.811c-0.478,0.211-0.878,0.414-0.884,1.013
		c-0.001,0.134-0.064,0.271-0.114,0.401c-0.45,1.165-1.513,1.785-2.741,1.603c-2.6-0.385-2.972-4.18-0.208-4.892
		c0.3-0.077,0.606-0.13,0.923-0.197c0.672-1.32,1.12-2.695,1.451-4.134c-1.702,0.373-3.398,0.769-5.09,1.181
		c-2.625,2.613-4.83,5.542-6.207,9.05C99.411,226.353,99.339,230.052,102.699,230.346z M104.628,223.024
		c1.376-0.011,2.532,1.153,2.518,2.536c-0.015,1.413-1.145,2.517-2.548,2.49c-1.418-0.028-2.516-1.169-2.471-2.571
		C102.17,224.126,103.282,223.035,104.628,223.024z"/>
        <path fill="#1A1A1A" d="M154.84,211.503c-0.472,0.872-1.139,1.562-2.195,1.548c-1.102-0.015-1.819-0.718-2.188-1.688
		c-0.578-1.517-0.777-2.114-0.591-5.501c-1.566,0.272-3.135,0.53-4.7,0.81c-0.699,0.125-1.397,0.257-2.095,0.383
		c2.115,10.58,10.74,14.289,16.009,8.192c2.381-2.754,3.385-6.051,3.621-9.627c0.028-0.427-0.106-0.763-0.435-1.005
		c-0.32-0.235-0.638-0.475-0.956-0.714c-1.931,0.324-3.861,0.66-5.792,0.987C155.782,207.146,155.917,209.516,154.84,211.503z"/>
        <path fill="#1A1A1A" d="M129.948,213.918c2.937-0.841,5.371-2.442,7.24-4.882c-1.766,0.711-3.499,1.424-5.38,1.685
		c-2.02,0.281-4.016,0.236-5.912-0.488c-9.564,1.815-8.415,1.596-11.521,2.239c-0.374,1.946-0.605,2.535-1.107,4.232
		c3.35-0.896,2.219-0.977,10.799-1.854C126.045,214.649,128.026,214.468,129.948,213.918z"/>
        <path fill="#1A1A1A" d="M220.649,159.433c1.981-2.376,3.633-4.904,4.863-7.653c-0.181-0.737-0.419-1.463-0.714-2.149
		c-1.088-2.529-3.295-3.186-5.684-1.797c-0.587,0.341-1.169,0.737-1.642,1.217c-3.601,3.643-5.655,5.532-10.088,12.559
		C211.579,159.593,215.971,158.842,220.649,159.433z"/>
        <path fill="#1A1A1A" d="M287.115,275.029c1.148,1.304,2.423,2.518,3.405,3.934c0.988,1.425,1.686,3.051,2.552,4.666
		c1.55-3.361,4.047-5.776,7.141-7.605C297.705,272.51,291.105,271.416,287.115,275.029z"/>
        <path fill="#1A1A1A" d="M234.132,285.819c-2.251-0.532-4.547-0.801-6.842-0.224c-2.616,0.658-3.514,2.239-2.685,4.658
		c0.65,1.897,1.893,3.41,3.293,4.792c2.725,2.691,5.879,4.72,9.35,6.233c1.334-0.212,2.667-0.43,3.997-0.66
		c-0.676-1.231-1.426-2.391-2.294-3.478c-0.574-0.718-1.132-1.443-2.227-1.11c-0.061,0.018-0.138-0.014-0.207-0.024
		c-1.185-0.169-2.029-1.038-2.159-2.219c-0.274-2.51,3.037-3.844,4.534-1.71c0.216,0.308,0.394,0.644,0.584,0.958
		c2.655,0.342,5.224,0.104,7.977-0.512c-0.496-0.407-0.83-0.704-1.187-0.97C242.608,288.825,238.574,286.869,234.132,285.819z
		 M230.38,292.214c-1.298,0.437-2.692-0.217-3.164-1.483c-0.481-1.291,0.198-2.769,1.496-3.256c1.286-0.482,2.766,0.223,3.228,1.538
		C232.406,290.342,231.713,291.765,230.38,292.214z"/>
        <path fill="#1A1A1A" d="M274.474,255.423c-1.041-1.497-2.245-2.857-3.779-3.878c-6.849-4.56-8.858,7.637-3.566,19.307
		c0.482,1.063,0.978,2.126,1.741,3.141c0.126-0.201,0.217-0.303,0.259-0.422c0.726-2.047,1.26-4.136,1.443-6.311
		c0.062-0.734-0.02-1.284-0.684-1.802c-0.939-0.732-1.04-2.146-0.407-3.145c0.65-1.024,2.013-1.437,3.132-0.948
		c1.103,0.482,1.7,1.644,1.442,2.841c-0.065,0.303-0.18,0.596-0.279,0.915c1.66,2.199,3.748,3.877,6.189,5.451
		c-0.013-0.375-0.006-0.539-0.026-0.7C279.276,264.618,277.501,259.78,274.474,255.423z M269.581,258.394
		c-1.294,0.393-2.678-0.318-3.118-1.601c-0.459-1.341,0.237-2.745,1.582-3.19c1.332-0.441,2.76,0.279,3.188,1.609
		C271.656,256.525,270.892,257.996,269.581,258.394z"/>
        <path fill="#1A1A1A" d="M256.578,290.711c3.408-0.258,6.638,0.435,9.762,1.968c-1.269-3.619-1.245-7.218-0.323-10.848
		C260.174,281.758,256.222,287.034,256.578,290.711z"/>
        <path fill="#1A1A1A" d="M241.084,295.479c-0.111-0.003-0.226,0.069-0.406,0.129c1.152,1.466,2.118,2.984,2.944,4.568
		c3.852-0.697,7.689-1.463,11.514-2.285c3.068-2.044,6.229-2.392,9.845-2.206c0.386-0.091,0.773-0.181,1.159-0.272
		c-2.597-1.86-6.375-2.897-10.316-2.299C253.793,293.423,246.444,295.645,241.084,295.479z"/>
        <path fill="#1A1A1A" d="M350.676,267.501c-4.174-0.413-8.283-0.006-12.359,0.925c-1.091,0.249-1.977,0.642-2.182,1.882
		c-0.022,0.132-0.114,0.254-0.177,0.378c-1.129,2.217-2.53,4.19-4.2,5.924c5.551-0.781,12.204-1.493,19.235-1.977
		c0.357-2.29,0.452-4.621,0.223-7.012C351.008,267.573,350.844,267.518,350.676,267.501z"/>
        <path fill="#1A1A1A" d="M229.229,190.375c-0.37-1.566-0.664-3.149-0.886-4.747c-6.433,2.287-14.563,2.825-21.364,1.96
		c-1.028-0.131-2.054-0.274-3.1-0.414c0.262,1.672,0.278,1.767,0.86,2.211C211.568,194.599,220.739,195.463,229.229,190.375z"/>
        <path fill="#1A1A1A" d="M333.584,234.394c-1.122,0.793-2.094,1.515-3.102,2.184c-6.965,4.626-14.05,7.434-18.459,10.715
		c-4.979,3.704-8.264,8.452-9.092,14.719c-0.276,2.091-0.286,4.179,0.113,6.254c0.186,0.967,0.638,1.215,2.261,2.795
		c0.041-0.247,0.055-0.424,0.1-0.592c1.397-5.17,3.602-9.979,6.508-14.469c2.859-4.418,7.635-10.187,12.699-11.1
		c2.378-0.429,4.471,0.559,5.65,2.655c1.159,2.061,1.341,4.309,1.288,6.595c-0.186,7.924-4.486,17.451-9.167,24.024
		c1.728-0.337,3.46-0.646,5.196-0.928c5.261-3.928,8.504-9.838,8.488-17.909c-0.007-3.4-0.629-6.734-1.13-10.08
		C333.619,240.435,333.65,238.548,333.584,234.394z"/>
        <path fill="#1A1A1A" d="M271.11,238.262c-3.719-2.788-7.45-5.563-10.694-8.921c-0.088-0.091-0.203-0.154-0.376-0.282
		c-0.063,0.202-0.119,0.32-0.135,0.445c-0.894,6.811-3.577,14.138-5.189,19.966c-2.834,10.245-0.367,19.318,7.941,25.26
		c0.88,0.629,0.861,0.462,3.221,0.281c-0.201-0.386-0.324-0.636-0.459-0.879c-3.049-5.496-5.05-11.353-5.995-17.564
		c-0.623-4.095-0.776-9.888,1.406-13.409c1.559-2.514,4.034-3.407,6.777-2.301c1.085,0.438,2.112,1.093,3.054,1.798
		c1.691,1.265,3.04,2.882,4.241,4.61c4.475,6.435,7.056,13.608,8.266,21.312c0.039,0.246,0.12,0.485,0.209,0.837
		c0.621-0.597,1.346-0.822,1.622-1.613c2.032-5.811,1.747-11.476-1.085-16.958C280.919,245.046,276.311,242.161,271.11,238.262z"/>
        <path fill="#1A1A1A" d="M237.185,259.18c-0.059,0.199-0.12,0.328-0.132,0.461c-0.436,4.675-0.02,9.266,1.323,13.772
		c0.148,0.495,0.458,0.713,0.912,0.896c4.431,1.78,8.6,5.325,11.402,10.277c2.063-4.215,5.312-6.96,9.604-8.666
		c-4.705-3.862-7.618-8.612-8.679-14.45C246.898,259.622,242.16,258.678,237.185,259.18z"/>
        <path fill="#1A1A1A" d="M295.898,239.775c-3.865,2.217-7.126,5.664-9.597,9.374c-0.295,0.442-0.275,0.767-0.051,1.231
		c2.432,5.038,2.943,10.29,1.677,15.727c-0.045,0.194-0.059,0.396-0.106,0.723c4.303-1.379,8.474-1.319,12.659,0.498
		c0.002-0.382,0.018-0.65,0.002-0.917c-0.27-4.578,0.691-8.883,2.884-12.907c0.235-0.431,0.304-0.777,0.133-1.26
		C301.721,247.237,298.741,242.683,295.898,239.775z"/>
        <path fill="#1A1A1A" d="M277.899,292.603c-0.11-0.347-0.226-0.69-0.312-1.047c-1.019-4.189,1.396-6.309,3.6-4.608
		c0.354,0.274,0.698,0.601,0.937,0.975c1.09,1.707,1.021,1.697,1.523,3.465c1.174-0.215,2.353-0.409,3.539-0.57
		c1.275-0.173,2.346-0.004,3.3,0.731c0.307-0.474,0.425-0.859,0.086-1.483c-7.066-12.996-20.356-10.005-19.036,4.054
		c0.66-0.16,1.322-0.315,1.982-0.475C274.975,293.29,276.436,292.941,277.899,292.603z"/>
        <path fill="#1A1A1A" d="M301.235,284.076c-3.033,1.282-5.232,3.531-7.04,6.214c-0.306,0.454-0.341,0.897-0.073,1.373
		c1.379,2.455,1.592,2.912,3.312,5.83c0.952,0.499,1.394,0.614,1.532,0.669c0.636-2.425,1.291-4.879,2.674-7.089
		c1.14-1.821,3.305-3.659,4.957-2.306c0.284-1.941,0.359-3.241,1.177-4.75C305.892,283.14,303.611,283.073,301.235,284.076z"/>
        <path fill="#1A1A1A" d="M324.925,256.976c-0.762-2.211-2.192-2.924-4.414-2.246c-0.199,0.061-0.385,0.164-0.577,0.246
		c-1.602,0.683-2.925,1.761-4.123,2.99c-3.38,3.467-5.624,7.616-7.197,12.154c-0.248,0.716-0.404,1.463-0.648,2.368
		c2.197-1.035,4.116-2.13,5.817-3.601c0.559-0.483,0.887-0.908,0.804-1.741c-0.129-1.281,0.813-2.335,2.016-2.54
		c2.741-0.468,4.212,3.223,1.643,4.692c-0.208,0.119-0.43,0.212-0.677,0.332c-0.387,2.799-0.094,5.526,0.534,8.228
		c0.085,0.028,0.171,0.055,0.256,0.083c0.562-0.781,1.14-1.551,1.683-2.345c2.659-3.892,4.425-8.153,5.153-12.815
		C325.496,260.841,325.58,258.878,324.925,256.976z M321.534,262.08c-1.334,0.454-2.749-0.251-3.186-1.587
		c-0.434-1.328,0.303-2.776,1.622-3.187c1.281-0.399,2.675,0.3,3.135,1.572C323.577,260.182,322.868,261.626,321.534,262.08z"/>
        <path fill="#1A1A1A" d="M465.966,175.627c-0.668,0.125-1.322,0.348-1.964,0.576c-4.005,1.421-7.732,3.421-11.361,5.598
		c-18.333,10.996-34.688,24.467-49.544,39.788c-5.568,5.742-9.6,11.018-16.587,17.297c-2.401,2.158-5.218,3.618-8.517,3.75
		c-1.827,0.073-3.691,0.035-5.494-0.246c-6.93-1.077-13.737-2.73-20.427-4.824c-2.15-0.673-4.221-1.62-6.288-2.532
		c-1.454-0.641-2.478-1.752-3.137-3.238c-1.244-2.804-2.584-5.217-4.712-7.412c-1.588-1.639-3.604-2.053-5.789-1.462
		c-0.902,0.244-1.766,0.63-2.643,0.963c-4.93,1.869-10.34,4.642-18.131,2.541c-19.75-5.325-30.623-8.536-54.981-13.453
		c-4.564-0.921-9.068-2.075-13.414-3.808c-4.136-1.649-7.289-4.399-9.563-8.176c-1.362-2.264-2.621-5.08-3.573-8.298
		c-1.002,0.549-2.036,1.057-3.118,1.504c0.242,0.333,0.431,0.606,0.632,0.87c3.486,4.59,5.664,9.764,6.83,15.381
		c0.28,1.35,0.044,1.849-1.215,2.411c-7.189,3.206-10.586,3.634-16.353,4.794c0.392,1.115,0.816,2.22,1.171,3.346
		c1.872,5.941,2.334,15.188,5.066,23.084c0.319,0.922,0.708,1.821,1.071,2.727c0.091,0.227,0.213,0.44,0.308,0.666
		c0.406,0.97-0.495,1.907-1.475,1.532c-0.13-0.05-0.258-0.105-0.385-0.165c-6.158-2.901-12.596-3.401-23.975-5.719
		c-1.29-0.263-2.819-0.818-5.622-1.803c-0.249,1.352-0.482,2.643-0.724,3.934c-0.935,4.978-3.18,11.074-4.182,12.927
		c-0.533,0.986-1.058,1.287-2.144,1.01c-3.91-0.997-6.776-1.674-11.454-4.211c-1.3-0.705-3.799-2.488-4.914-3.314
		c-0.14,0.228-0.288,0.41-0.374,0.617c-1.756,4.273-4.327,7.248-9.991,15.594c-5.686,8.38-4.478,10.536-6.251,10.485
		c-0.56-0.016-0.898-0.356-1.077-0.853c-2.428-6.711-7.257-12.686-11.824-19.35c-1.464-2.137-2.723-4.389-3.674-6.883
		c-3.41,2.569-3.799,3.039-7.441,4.772c-2.943,1.4-6.004,2.466-9.206,3.105c-1.396,0.278-1.891,0.071-2.49-1.255
		c-3.779-8.363-3.942-13.362-4.759-16.321c-1.436,0.459-2.802,1.009-4.22,1.324c-9.042,2.008-15.713,2.548-22.073,4.812
		c-2.9,1.032-3.611,1.908-4.443,1.004c-0.411-0.447-0.369-0.924-0.111-1.464c2.059-4.337,2.939-9.005,3.83-13.669
		c2.313-12.116,1.926-10.928,3.066-14.109c-14.842,4.896-28.446,10.784-48.2,23.183c-1.933,1.213-3.18,2.315-4.316,3.595
		c-1.799,2.027-1.967,4.252-0.759,6.645c1.219,2.416,2.969,4.376,5.088,6.023c2.443,1.9,5.104,3.415,7.977,4.58
		c0.934,0.379,1.925,0.844,2.622,1.538c2.678,2.663,5.827,4.61,9.155,6.292c9.11,4.606,18.216,9.222,27.368,13.743
		c13.225,6.534,27.028,11.47,41.426,14.718c1.744,0.393,3.483,0.807,5.22,1.211c1.513,4.742,2.937,10.944,8.341,22.089
		c5.472,11.283,12.03,20.241,23.98,28.282c2.56,1.723,5.215,3.282,8.117,4.342c1.432,0.523,2.939,0.979,4.445,1.131
		c2.722,0.275,4.152-1.552,3.494-4.199c-0.128-0.517-0.242-1.037-0.429-1.842c2.105,1.491,3.852,2.858,5.859,3.404
		c2.7,0.734,4.775-0.524,5.364-3.261c0.098-0.456,0.185-0.935,0.154-1.395c-0.731-11.031-4.508-19.26-3.506-39.476
		c0.071-1.44,0.25-2.874,0.393-4.468c6.963,0,16.422-0.723,22.859-1.307c2.159-1.192,2.596-1.384,3.853-2.134
		c-0.661-0.866-1.308-1.669-1.908-2.506c-2.059-2.877-3.591-6.058-5.262-9.16c-5.532-10.274-6.742-11.106-9.091-13.881
		c-0.415-0.49-0.51-1.014-0.251-1.44c0.283-0.465,0.721-0.635,1.254-0.58c7.862,0.804,13.258-0.718,24.665-2.049
		c1.648-0.192,2.811-0.06,5.447-0.126c-0.761-5.639-1.373-8.778-0.726-16.625c0.175-2.118,0.48-2.437,2.597-2.634
		c5.235-0.488,10.395-0.084,15.443,1.451c0.757,0.23,1.493,0.53,2.256,0.804c0.055-0.148,0.115-0.241,0.123-0.337
		c0.442-5.39,2.292-9.529,5.24-20.59c1.996-7.489,0.481-9.056,2.017-9.619c1.586-0.581,0.92,1.508,8.981,7.805
		c7.252,5.666,11.147,7.963,14.584,11.762c0.09,0.1,0.217,0.167,0.369,0.282c0.31-0.454,0.591-0.892,0.898-1.312
		c3.345-4.585,7.542-8.214,12.45-11.034c0.956-0.55,1.61-0.477,2.41,0.462c1.697,1.992,3.388,3.998,4.942,6.101
		c3.014,4.079,4.229,7.211,4.976,8.412c0.213-0.157,0.385-0.264,0.535-0.396c5.504-4.858,14.099-7.659,21.875-13.314
		c3.004-2.184,3.85-3.76,4.915-3.108c1.016,0.621,0.406,1.478,0.345,4.695c-0.112,5.93,1.384,13.494,2.363,22.148
		c0.171,1.511,0.059,3.055,0.077,4.694c5.02-0.692,8.78-1.301,16.123-0.681c2.238,0.189,2.559,0.496,2.748,2.714
		c0.293,3.44,0.236,6.84-0.281,10.184c5.034-0.219,10.073-0.31,15.114-0.316c2.867-0.004,5.721,0.125,8.561,0.576
		c3.629,0.576,6.569,2.1,8.183,5.602c0.24,0.521,6.222,10.323,8.566,13.84c7.204,10.808,15.638,20.533,25.89,28.587
		c4.685,3.681,9.621,6.958,15.319,8.925c2.247,0.776,3.619-0.607,3.747-2.934c0.155-2.846-1.575-3.947-3.604-12.508
		c-1.401-5.91-2.406-11.891-3.119-17.917c-3.622-30.577-3.196-30.917-4.468-44.892c-0.41-4.511,0.205-8.777,2.573-12.711
		c0.551-0.915,1.05-1.861,1.599-2.777c4.524-7.548,7.219-11.72,9.189-15.994c1.2-2.604,1.233-5.292,0.149-7.971
		c-0.561-1.386-1.229-2.871-1.624-4.846c-0.218-1.093-0.077-1.228,1.058-1.379c1.778-0.236,3.558-0.462,5.332-0.722
		c5.201-0.763,9.167-3.291,11.62-8.052c4.445-8.627,5.207-8.823,8.305-17.435c0.31-0.862,0.421-1.845,0.397-2.766
		C469.674,176.54,467.998,175.247,465.966,175.627z"/>
        <path fill="#1A1A1A" d="M230.95,302.219c-4.864-2.546-9.926-5.997-13.328-10.328c-1.435-1.827-2.652-3.764-2.952-6.146
		c-0.295-2.336,0.787-4.384,2.88-5.442c4.382-2.216,11.182-0.682,15.817,0.929c7.895,2.742,12.065,6.038,16.186,9.01
		c0.098-1.276,0.353-2.479-0.427-3.582c-0.119-0.169-0.18-0.378-0.277-0.563c-4.327-8.221-12.648-12.053-21.012-11.357
		c-3.298,0.275-6.578,0.793-9.86,1.242c-6.88,0.941-8.259,1.103-13.813,1.193c0.168,0.249,0.236,0.359,0.314,0.462
		c7.53,9.942,9.385,19.626,17.065,25.792c0.431-0.05,0.862-0.094,1.292-0.146C225.542,302.955,228.248,302.599,230.95,302.219z"/>
        <path fill="#1A1A1A" d="M294.861,285.214c-0.08,0.191-0.113,0.402-0.21,0.757c2.865-2.768,5.001-4.077,7.992-4.689
		c2.496-0.511,4.723-0.215,6.647,0.875c0.711-0.589,1.567-1.053,2.591-1.371c1.426-0.443,2.862-0.862,4.307-1.24
		c-1.296-5.939-0.946-5.349-1.155-8.473c-1.757,1.032-3.449,2.151-5.25,3.052c-2.307,1.154-4.718,2.099-7.057,3.193
		C299.154,278.989,296.406,281.51,294.861,285.214z"/>
        <path fill="#1A1A1A" d="M279.623,273.071c-4.564-2.818-5.835-4.583-6.794-5.333c-0.865,9.516-7.821,15.226-4.143,24.339
		c0.078,0.195,0.199,0.373,0.412,0.766c0.028-0.678,0.04-1.093,0.063-1.508c0.568-10.074,8.464-14.57,16.111-10.229
		c2.759,1.566,4.239,3.432,5.682,5.132c0.04-0.02,0.08-0.041,0.121-0.061c-0.098-0.474-0.171-0.955-0.298-1.42
		C289.103,278.624,285.002,276.392,279.623,273.071z"/>
        </g>
</svg>
