<?xml version="1.0" encoding="utf-8"?>
<svg version="1.1" id="Layer_1" xmlns="http://www.w3.org/2000/svg"
     xmlns:xlink="http://www.w3.org/1999/xlink"
     x="0px" y="0px" viewBox="0 0 504 504"

     xml:space="preserve">
    <style type="text/css">.st0{fill-rule:evenodd;clip-rule:evenodd;}</style>
    <g>
            <path fill="#494949" d="M273.222,83.809c0.053-0.476,0.107-0.85,0.134-1.225c0.062-0.881,0.095-1.764,0.167-2.644
		c0.134-1.628,0.814-3.015,1.905-4.213c0.066-0.073,0.131-0.148,0.204-0.212c1.838-1.602,3.211-3.561,4.412-5.663
		c0.857-1.499,1.944-2.831,3.176-4.041c0.806-0.791,1.632-1.56,2.443-2.345c1.304-1.264,2.625-2.51,3.896-3.805
		c1.55-1.579,3.189-3.052,4.923-4.427c2.111-1.674,4.47-2.816,7.08-3.468c2.384-0.596,4.793-1.025,7.242-1.243
		c1.025-0.091,2.05-0.217,3.066-0.382c3.438-0.557,6.412-2.101,9.013-4.379c0.996-0.872,1.909-1.839,2.888-2.731
		c1.087-0.991,2.163-2.002,3.321-2.906c4.523-3.532,10.948-2.689,14.535,0.974c1.894,1.934,3.933,3.691,6.118,5.289
		c2.743,2.006,4.885,4.529,6.348,7.611c1.346,2.837,2.672,5.683,4.034,8.513c1.362,2.83,2.733,5.656,4.144,8.461
		c1.95,3.874,4.282,7.485,7.221,10.708c1.816,1.992,3.494,4.115,5.173,6.228c0.698,0.878,1.306,1.846,1.834,2.837
		c1.054,1.978,1.321,4.104,0.821,6.288c-0.306,1.337-0.709,2.652-1.105,3.966c-0.283,0.939-0.62,1.861-0.947,2.787
		c-0.859,2.432-1.282,4.943-1.258,7.514c0.036,3.976,0.137,7.952,0.208,11.928c0.032,1.816,0.086,3.633,0.079,5.449
		c-0.009,2.443-0.597,4.769-1.629,6.971c-0.393,0.839-0.884,1.645-1.423,2.4c-2.234,3.13-6.296,3.09-8.654,1.429
		c-0.753-0.53-1.431-1.198-2.04-1.894c-1.435-1.638-2.496-3.519-3.316-5.532c-0.536-1.318-1.006-2.662-1.55-3.977
		c-1.013-2.447-2.034-4.891-3.098-7.316c-1.321-3.01-2.717-5.987-4.031-9.001c-1.643-3.77-2.497-7.742-2.861-11.824
		c-0.201-2.249-0.377-4.5-0.516-6.753c-0.127-2.062-0.733-3.957-1.884-5.659c-1.511-2.236-3.055-4.45-4.615-6.651
		c-0.85-1.199-1.764-2.352-2.684-3.57c0.123-0.236,0.213-0.456,0.342-0.651c1.691-2.56,2.253-5.42,2.136-8.423
		c-0.088-2.255-0.303-4.506-0.483-6.756c-0.242-3.019,0.167-5.973,0.852-8.901c0.089-0.382,0.207-0.759,0.273-1.145
		c0.07-0.41-0.197-0.768-0.605-0.876c-0.827-0.219-1.471,0.099-1.68,0.956c-0.581,2.382-1.259,4.755-1.608,7.174
		c-0.242,1.678-0.012,3.425,0.029,5.141c0.042,1.766,0.17,3.532,0.154,5.297c-0.025,2.721-0.883,5.205-2.367,7.476
		c-0.322,0.493-0.655,0.979-1,1.457c-0.896,1.239-1.609,2.575-2.222,3.975c-1.14,2.606-2.231,5.235-3.577,7.747
		c-1.336,2.493-2.011,5.212-2.569,7.957c-0.94,4.631-2.249,9.144-4.154,13.476c-0.316,0.718-0.597,1.452-0.907,2.173
		c-0.908,2.116-1.257,4.317-1.111,6.615c0.068,1.074,0.079,2.159,0.009,3.232c-0.115,1.747-1.02,3.036-2.518,3.916
		c-0.296,0.174-0.603,0.329-0.901,0.498c-0.393,0.222-0.521,0.587-0.457,1.002c0.052,0.335,0.149,0.67,0.274,0.986
		c0.38,0.957,0.766,1.914,1.183,2.855c0.87,1.965,0.839,3.918-0.106,5.832c-0.542,1.097-1.101,2.2-1.786,3.21
		c-1.102,1.623-2.322,3.164-3.477,4.752c-1.459,2.006-2.564,4.17-3.006,6.645c-0.271,1.518-0.035,2.926,0.71,4.262
		c0.574,1.028,1.117,2.075,1.73,3.08c1.146,1.88,1.273,3.881,0.799,5.967c-0.25,1.1-0.501,2.201-0.787,3.292
		c-0.583,2.232-0.576,4.475-0.105,6.713c0.5,2.374,0.683,4.755,0.428,7.173c-0.051,0.48,0.019,0.975,0.061,1.461
		c0.084,0.976,0.246,1.948,0.271,2.925c0.098,3.789-0.166,7.556-0.864,11.285c-0.137,0.735,0.049,1.29,0.471,1.906
		c2.294,3.349,5.413,5.795,8.69,8.069c4.081,2.832,8.62,4.661,13.397,5.905c2.893,0.753,5.829,1.341,8.734,2.049
		c4.983,1.215,9.748,3.011,14.18,5.608c2.623,1.537,5.19,3.172,7.749,4.815c2.229,1.432,4.4,2.953,6.616,4.406
		c4.503,2.953,9.348,5.169,14.506,6.711c1.879,0.562,3.757,1.132,5.609,1.775c3.17,1.101,6.121,2.644,8.829,4.633
		c1.308,0.961,2.534,2.017,3.509,3.334c1.685,2.274,1.741,3.922,0.023,6.155c-0.954,1.24-2.055,2.372-3.145,3.499
		c-0.749,0.775-1.567,1.488-2.398,2.176c-2.232,1.849-4.395,3.77-6.398,5.867c-1.421,1.488-3.169,2.315-5.215,2.397
		c-0.871,0.035-1.755-0.118-2.625-0.24c-0.873-0.123-1.734-0.323-2.604-0.472c-0.639-0.11-1.152,0.109-1.527,0.647
		c-0.224,0.322-0.46,0.636-0.696,0.95c-0.739,0.979-1.462,1.971-2.226,2.931c-0.931,1.171-2.077,2.077-3.456,2.68
		c-0.809,0.353-1.601,0.747-2.415,1.087c-2.459,1.029-4.705,2.411-6.862,3.97c-1.827,1.321-3.692,2.6-5.611,3.782
		c-3.018,1.859-6.257,3.256-9.626,4.365c-4.586,1.51-9.225,1.753-13.933,0.713c-1.245-0.275-2.482-0.582-3.724-0.872
		c-0.281-0.066-0.564-0.12-0.859-0.182c-0.326,0.431-0.193,0.88-0.207,1.298c-0.067,1.961-0.106,3.923-0.188,5.883
		c-0.134,3.205-0.826,6.32-1.674,9.394c-0.886,3.213-1.911,6.388-2.859,9.584c-0.785,2.648-1.907,5.146-3.23,7.565
		c-0.918,1.678-1.779,3.388-2.662,5.085c-0.089,0.171-0.148,0.357-0.245,0.597c0.21,0.256,0.41,0.525,0.637,0.771
		c0.267,0.288,0.562,0.549,0.835,0.831c1.939,2.001,2.543,4.367,1.877,7.055c-0.176,0.712-0.408,1.418-0.69,2.095
		c-1.075,2.588-1.789,5.293-2.622,7.959c-0.482,1.544-0.91,3.106-1.435,4.635c-1.144,3.335-2.939,6.307-5.199,8.998
		c-0.892,1.062-1.961,1.936-3.246,2.486c-0.653,0.28-0.973,0.727-1.135,1.401c-0.402,1.673-0.668,3.363-0.811,5.077
		c-0.223,2.688-0.409,5.38-0.93,8.034c-0.351,1.788-0.856,3.527-1.563,5.207c-0.152,0.361-0.311,0.721-0.479,1.075
		c-1.288,2.716-2.201,5.542-2.757,8.508c-0.525,2.796-1.175,5.568-1.411,8.411c-0.309,3.729-0.279,7.452,0.245,11.163
		c0.144,1.021,0.26,2.046,0.436,3.061c0.473,2.716-0.014,5.29-1.218,7.721c-0.826,1.669-1.721,3.315-2.722,4.883
		c-2.535,3.97-5.109,7.917-7.738,11.826c-3.839,5.707-8.945,9.986-15.053,13.095c-2.841,1.446-5.708,2.842-8.528,4.329
		c-3.644,1.92-7.252,3.909-10.877,5.866c-3.298,1.78-6.783,3.07-10.423,3.936c-0.903,0.215-1.832,0.364-2.757,0.437
		c-3.484,0.272-6.933,0.062-10.404-0.443c-5.354-0.779-10.341-2.601-15.246-4.752c-2.696-1.182-5.314-2.517-7.904-3.92
		c-3.061-1.658-6.191-3.189-9.293-4.771c-2.099-1.071-4.162-2.201-6.119-3.52c-3.743-2.523-7.006-5.573-9.548-9.295
		c-3.208-4.699-6.26-9.506-9.34-14.293c-0.714-1.11-1.316-2.302-1.885-3.496c-1.146-2.404-1.609-4.921-1.168-7.587
		c0.264-1.597,0.47-3.205,0.635-4.816c0.561-5.467,0.199-10.879-1.034-16.235c-0.231-1.002-0.452-2.008-0.635-3.02
		c-0.397-2.19-1.167-4.249-2.093-6.261c-0.924-2.008-1.748-4.053-2.21-6.228c-0.388-1.825-0.635-3.666-0.82-5.524
		c-0.252-2.535-0.306-5.097-0.909-7.59c-0.149-0.615-0.328-1.224-0.492-1.833c-0.358-0.181-0.661-0.336-0.966-0.486
		c-1.253-0.616-2.325-1.471-3.208-2.543c-2.297-2.789-4.143-5.846-5.256-9.3c-0.917-2.846-1.753-5.719-2.641-8.575
		c-0.291-0.934-0.632-1.853-0.952-2.778c-0.337-0.973-0.744-1.928-1-2.922c-0.689-2.682-0.079-5.053,1.857-7.058
		c0.475-0.492,0.963-0.973,1.484-1.497c-0.128-0.343-0.216-0.67-0.367-0.964c-0.809-1.57-1.6-3.151-2.462-4.692
		c-1.589-2.841-2.804-5.825-3.686-8.959c-0.811-2.879-1.74-5.724-2.557-8.601c-1.515-5.336-1.966-10.79-1.77-16.319
		c0.153-4.317,0.24-8.637,0.349-12.956c0.085-3.388,0.313-6.765,0.854-10.111c0.603-3.73,1.415-7.418,2.447-11.055
		c0.12-0.423,0.229-0.85,0.36-1.337c-0.22-0.228-0.436-0.491-0.69-0.709c-2.012-1.724-4.043-3.425-6.044-5.16
		c-1.631-1.414-3.247-2.847-4.835-4.31c-1.095-1.009-1.492-2.304-1.173-3.754c0.178-0.808,0.496-1.588,0.777-2.371
		c0.229-0.638,0.609-1.227,0.632-1.914c-0.245-0.28-0.469-0.109-0.686-0.033c-1.573,0.552-3.138,1.129-4.719,1.654
		c-0.983,0.326-1.995,0.469-3.044,0.317c-1.124-0.163-2.039-0.672-2.775-1.519c-0.225-0.259-0.442-0.529-0.63-0.815
		c-3.051-4.646-5.842-9.425-7.578-14.75c-1.082-3.317-1.929-6.694-2.597-10.115c-0.869-4.446-2.211-8.745-3.883-12.949
		c-1.178-2.963-2.351-5.929-3.495-8.906c-0.528-1.374-0.961-2.777-1.097-4.263c-0.271-2.964,0.984-5.15,3.716-6.36
		c1.403-0.622,2.888-0.977,4.403-1.118c2.587-0.239,5.18-0.474,7.775-0.559c4.664-0.153,9.3-0.571,13.93-1.121
		c3.993-0.474,7.991-0.918,11.992-1.321c4.931-0.497,9.843-1.084,14.698-2.126c2.98-0.639,6.013-0.927,9.068-0.759
		c1.027,0.056,2.056,0.155,3.073,0.311c4.239,0.651,8.507,0.632,12.776,0.616c0.981-0.004,1.966-0.059,2.943-0.001
		c1.747,0.104,3.42-0.19,5.047-0.797c0.779-0.29,1.547-0.61,2.32-0.916c0.334-0.705,0.69-1.399,0.997-2.115
		c1.005-2.353,2.175-4.621,3.621-6.73c0.719-1.048,1.554-2.02,2.387-2.983c0.327-0.379,0.625-0.739,0.755-1.229
		c0.326-1.232,0.72-2.449,0.987-3.693c0.509-2.371,1.3-4.62,2.545-6.711c1.281-2.15,2.519-4.326,3.776-6.49
		c1.234-2.125,2.316-4.324,3.244-6.6c0.556-1.363,1.158-2.707,1.699-4.076c1.651-4.174,3.819-8.067,6.316-11.786
		c0.793-1.182,1.591-2.361,2.379-3.546c2.022-3.039,3.635-6.279,4.814-9.738c0.554-1.625,1.109-3.254,1.775-4.834
		c0.589-1.397,1.235-2.79,2.026-4.08c2.568-4.185,6.382-6.426,11.246-6.82c1.902-0.154,3.823-0.14,5.734-0.119
		c2.453,0.027,4.907,0.093,7.356,0.226c2.543,0.138,4.859-0.484,6.998-1.83c0.664-0.418,1.308-0.869,1.973-1.284
		c0.582-0.363,1.158-0.748,1.778-1.035c1.583-0.732,3.223-0.791,4.875-0.241c0.604,0.201,1.187,0.463,1.782,0.689
		C272.576,83.6,272.849,83.683,273.222,83.809z M146.772,254.633c-0.17,0.554-0.298,0.922-0.395,1.297
		c-0.812,3.136-1.433,6.312-1.925,9.51c-0.299,1.939-0.588,3.891-0.68,5.847c-0.257,5.491-0.393,10.988-0.609,16.482
		c-0.122,3.098-0.029,6.187,0.368,9.258c0.409,3.164,1.062,6.284,1.951,9.352c0.764,2.637,1.461,5.294,2.258,7.92
		c0.916,3.021,2.469,5.76,3.942,8.531c0.026,0.048,0.143,0.048,0.215,0.069c0.98-1.78,1.356-3.102,1.205-4.926
		c-0.109-1.315-0.335-2.625-0.58-3.924c-0.245-1.3-0.619-2.575-0.865-3.875c-0.604-3.187-1.407-6.313-2.596-9.338
		c-0.412-1.048-0.755-2.124-1.088-3.201c-1.004-3.246-1.193-6.551-0.628-9.897c0.073-0.431,0.174-0.875,0.363-1.264
		c0.288-0.595,0.841-0.792,1.48-0.736c0.574,0.05,0.956,0.373,1.081,1.026c0.101,0.525,0.12,1.07,0.131,1.607
		c0.055,2.754,0.234,5.499,1.039,8.146c0.47,1.545,1.07,3.055,1.686,4.55c1.072,2.601,1.853,5.27,2.162,8.072
		c0.059,0.535,0.172,1.066,0.288,1.592c0.038,0.17,0.165,0.321,0.388,0.732c0.152-1.129,0.361-1.983,0.364-2.838
		c0.008-2.65,0.046-5.306-0.127-7.947c-0.303-4.644-0.063-9.208,1.321-13.685c0.61-1.975,0.929-4.007,0.941-6.089
		c0.009-1.618,0.093-3.237,0.202-4.852c0.117-1.715,0.391-3.41,0.958-5.041c0.143-0.41,0.34-0.817,0.589-1.17
		c0.248-0.351,0.657-0.399,1.067-0.29c0.399,0.105,0.668,0.411,0.665,0.859c-0.002,0.437-0.066,0.877-0.132,1.311
		c-0.257,1.698-0.518,3.395-0.515,5.119c0.003,1.62-0.029,3.241,0.008,4.86c0.044,1.928-0.171,3.818-0.623,5.689
		c-0.953,3.944-1.272,7.926-0.869,11.979c0.223,2.244,0.322,4.506,0.356,6.762c0.071,4.686-0.652,9.285-1.714,13.836
		c-0.565,2.42-1.607,4.623-3.046,6.647c-1,1.407-2.162,2.66-3.426,3.834c-1.285,1.193-1.793,2.663-1.308,4.402
		c0.158,0.566,0.289,1.146,0.514,1.685c1.19,2.859,2.041,5.827,2.92,8.788c0.656,2.208,1.281,4.431,2.269,6.526
		c0.946,2.007,2.094,3.889,3.494,5.609c1.246,1.531,2.774,2.518,4.793,2.879c2.504,0.447,4.958,1.174,7.443,1.737
		c1.384,0.314,2.777,0.626,4.183,0.786c1.703,0.195,3.426,0.215,5.138,0.337c1.87,0.133,3.695,0.496,5.422,1.243
		c2.592,1.121,4.288,3.06,5.052,5.774c0.278,0.988,0.446,2.005,0.437,3.049c-0.025,2.7-0.043,5.401-0.003,8.101
		c0.014,0.924,0.185,1.85,0.326,2.768c0.164,1.069,0.726,1.902,1.585,2.56c1.569,1.202,3.293,2.133,5.105,2.894
		c0.718,0.302,1.498,0.428,2.298,0.436c0.731,0.008,1.459,0.15,2.191,0.2c1.27,0.086,2.546,0.254,3.81,0.191
		c1.682-0.085,3.328-0.094,4.937,0.483c0.848,0.304,1.749,0.394,2.613,0.181c1.727-0.426,3.414-0.256,5.09,0.193
		c1.215,0.326,2.288,0.218,3.33-0.574c0.956-0.727,2.102-1.012,3.314-1.046c1.287-0.036,2.539,0.13,3.776,0.475
		c1.88,0.524,3.746,0.621,5.645-0.012c1.306-0.435,2.682-0.535,4.07-0.445c0.953,0.062,1.827,0.332,2.65,0.794
		c0.256,0.144,0.503,0.307,0.74,0.481c0.677,0.498,1.431,0.614,2.237,0.47c0.386-0.069,0.766-0.168,1.149-0.253
		c1.498-0.334,2.99-0.471,4.516-0.099c0.966,0.236,1.958,0.135,2.901-0.208c1.368-0.497,2.785-0.616,4.207-0.456
		c1.235,0.139,2.449,0.015,3.669-0.081c1.171-0.092,2.344-0.181,3.507-0.334c0.625-0.082,1.263-0.223,1.843-0.463
		c1.634-0.678,3.169-1.547,4.623-2.561c1.105-0.771,1.821-1.769,1.983-3.127c0.098-0.826,0.256-1.652,0.265-2.48
		c0.03-2.553,0.009-5.106-0.009-7.659c-0.007-0.987,0.089-1.956,0.306-2.92c0.581-2.58,1.947-4.596,4.291-5.857
		c0.856-0.461,1.785-0.822,2.72-1.092c1.365-0.394,2.769-0.611,4.202-0.662c3.485-0.124,6.932-0.486,10.306-1.472
		c2.019-0.59,4.091-1.011,6.158-1.413c1.35-0.263,2.517-0.807,3.484-1.764c0.522-0.516,1.032-1.055,1.472-1.64
		c1.78-2.371,3.188-4.947,4.121-7.769c0.431-1.303,0.833-2.616,1.218-3.933c0.84-2.871,1.681-5.74,2.821-8.512
		c0.278-0.676,0.487-1.39,0.646-2.105c0.322-1.449-0.108-2.717-1.078-3.808c-0.292-0.329-0.644-0.604-0.961-0.911
		c-2.921-2.833-5.006-6.158-5.889-10.166c-0.348-1.578-0.632-3.172-0.902-4.766c-0.509-3.004-0.86-6.027-0.743-9.078
		c0.092-2.402,0.31-4.8,0.402-7.203c0.071-1.861,0.118-3.731,0.019-5.589c-0.11-2.058-0.568-4.076-1.03-6.086
		c-0.33-1.437-0.554-2.89-0.525-4.374c0.006-0.333-0.066-0.667-0.112-1.089c-0.72-0.08-1.395-0.167-2.073-0.227
		c-0.733-0.065-1.468-0.113-2.202-0.153c-0.686-0.038-1.372-0.067-2.059-0.081c-0.736-0.015-1.473-0.025-2.208-0.003
		c-0.662,0.02-1.342-0.098-2.002,0.112c-0.064,0.619,0.238,1.034,0.431,1.468c0.737,1.658,1.491,3.309,2.257,4.954
		c1.079,2.318,1.993,4.695,2.609,7.179c0.764,3.076,0.857,6.214,0.799,9.362c-0.012,0.637-0.024,1.282-0.133,1.907
		c-0.454,2.608-0.883,5.224-1.655,7.762c-1.632,5.361-4.092,10.292-7.647,14.649c-1.761,2.157-3.832,3.91-6.397,5.072
		c-5.065,2.294-10.201,2.62-15.444,0.69c-3.522-1.297-6.773-3.113-9.798-5.311c-5.618-4.082-9.993-9.269-13.146-15.44
		c-2.613-5.113-3.545-10.572-2.795-16.286c0.302-2.303,0.967-4.508,1.999-6.59c1.47-2.966,3.767-4.992,6.964-5.91
		c1.174-0.337,2.381-0.585,3.588-0.771c3.404-0.526,6.835-0.651,10.273-0.543c2.598,0.082,5.198,0.178,7.792,0.334
		c2.888,0.174,5.763,0.501,8.586,1.166c4.054,0.955,7.867,2.43,11.061,5.22c0.149,0.131,0.304,0.396,0.668,0.143
		c-0.348-1.058-0.871-2.05-1.326-3.067c-0.46-1.03-0.919-2.063-1.428-3.069c-0.505-0.996-0.756-2.119-1.387-2.938
		c-1.567-0.215-3.03-0.377-4.477-0.624c-2.861-0.487-5.621-1.359-8.354-2.313c-2.594-0.905-5.204-1.749-7.879-2.389
		c-1.287-0.308-2.573-0.632-3.834-1.029c-3.724-1.175-6.751-3.325-8.974-6.566c-0.305-0.445-0.603-0.898-0.94-1.318
		c-0.429-0.535-0.864-1.071-1.349-1.553c-0.936-0.931-2.073-1.464-3.4-1.571c-1.281-0.103-2.558-0.021-3.799,0.279
		c-1.877,0.455-3.766,0.631-5.691,0.532c-1.029-0.053-2.06-0.067-3.09-0.089c-2.996-0.062-5.844,0.515-8.524,1.9
		c-1,0.517-2.039,0.966-3.083,1.39c-2.078,0.844-4.223,1.252-6.475,0.889c-1.21-0.195-2.43-0.329-3.642-0.511
		c-3.396-0.511-6.795-0.97-10.239-1.046c-1.617-0.036-3.237-0.155-4.843-0.348c-4.68-0.562-9.296-1.495-13.87-2.616
		c-3.856-0.945-7.682-2.012-11.524-3.015c-5.036-1.314-10.13-2.321-15.306-2.898c-2.242-0.25-4.484-0.506-6.718-0.815
		c-2.495-0.344-4.886-1.048-7.116-2.25C147.541,254.989,147.232,254.854,146.772,254.633z M164.043,363.192
		c0.221,0.898,0.444,1.602,0.563,2.323c0.334,2.031,0.647,4.065,0.927,6.104c0.451,3.281,1.288,6.441,2.816,9.398
		c0.383,0.741,0.732,1.499,1.084,2.256c0.979,2.106,1.665,4.287,1.817,6.628c0.125,1.91,0.34,3.813,0.508,5.72
		c0.371,4.215,0.434,8.432-0.051,12.642c-0.185,1.608-0.413,3.213-0.681,4.809c-0.389,2.313-0.078,4.518,1.035,6.565
		c0.959,1.765,1.935,3.537,3.087,5.177c2.596,3.693,5.298,7.311,7.975,10.946c0.581,0.789,1.239,1.522,1.864,2.279
		c3.618,4.379,7.996,7.794,13.07,10.33c4.649,2.324,9.283,4.678,13.847,7.168c2.28,1.244,4.638,2.345,6.958,3.516
		c4.185,2.113,8.666,3.06,13.302,3.418c1.973,0.152,3.924-0.102,5.866-0.355c2.04-0.265,4.084-0.594,6.008-1.369
		c1.863-0.75,3.75-1.467,5.536-2.375c6.688-3.397,13.337-6.873,20.006-10.307c4.775-2.458,8.88-5.743,12.347-9.848
		c2.569-3.041,4.891-6.267,7.241-9.473c1.713-2.335,3.407-4.686,4.822-7.219c0.573-1.025,1.079-2.091,1.554-3.165
		c0.503-1.138,0.712-2.351,0.622-3.595c-0.078-1.075-0.148-2.16-0.345-3.217c-0.825-4.422-0.959-8.879-0.693-13.35
		c0.163-2.742,0.483-5.475,0.668-8.217c0.165-2.441,0.877-4.713,1.919-6.901c0.422-0.886,0.838-1.775,1.272-2.655
		c1.117-2.261,1.855-4.643,2.25-7.129c0.238-1.501,0.389-3.016,0.641-4.514c0.307-1.832,0.678-3.653,1.044-5.598
		c-1.153-0.012-2.25,0.318-3.416,0.71c0,0.423-0.003,0.81,0.001,1.197c0.015,1.724-0.191,3.422-0.533,5.111
		c-0.539,2.665-1.532,5.163-2.665,7.621c-1.252,2.717-2.451,5.459-3.664,8.193c-1.209,2.725-1.753,5.608-1.949,8.561
		c-0.061,0.927-0.045,1.869,0.041,2.794c0.277,2.978,0.58,5.955,0.916,8.927c0.284,2.508,0.146,5.003-0.163,7.49
		c-0.132,1.067-0.396,2.124-0.89,3.098c-0.154,0.304-0.334,0.599-0.537,0.873c-0.182,0.247-0.452,0.409-0.767,0.319
		c-0.341-0.098-0.659-0.319-0.694-0.686c-0.047-0.482-0.018-0.977,0.032-1.462c0.05-0.486,0.203-0.962,0.247-1.449
		c0.221-2.453,0.143-4.91-0.061-7.355c-0.261-3.128-0.614-6.248-0.981-9.366c-0.52-4.426,0.027-8.704,1.601-12.868
		c1.146-3.032,2.446-5.994,3.868-8.904c1.523-3.116,2.475-6.398,2.78-9.859c0.033-0.375-0.003-0.756-0.007-1.093
		c-0.19-0.075-0.283-0.15-0.367-0.14c-1.994,0.228-3.988,0.463-5.981,0.704c-0.088,0.011-0.169,0.083-0.335,0.17
		c-0.035,0.331-0.1,0.712-0.113,1.095c-0.114,3.613-0.87,7.095-2.107,10.482c-1.463,4.006-2.964,7.999-4.363,12.028
		c-1.148,3.303-2.537,6.484-4.303,9.502c-0.87,1.487-1.604,3.012-1.877,4.757c-0.293,1.877-1.384,3.252-3.171,3.943
		c-1.327,0.513-2.596,1.155-3.911,1.677c-1.444,0.573-2.719,1.333-3.817,2.422c-0.782,0.775-1.725,1.287-2.789,1.576
		c-0.189,0.051-0.366,0.148-0.556,0.19c-1.465,0.318-2.755,1.003-3.964,1.866c-0.892,0.637-1.856,1.119-2.97,1.165
		c-1.248,0.052-2.414,0.353-3.521,0.935c-1.115,0.586-2.303,0.82-3.562,0.639c-0.291-0.042-0.586-0.058-0.879-0.079
		c-0.665-0.048-1.259,0.137-1.785,0.547c-0.271,0.211-0.545,0.418-0.819,0.624c-0.904,0.679-1.937,0.997-3.043,0.846
		c-1.418-0.194-2.836-0.152-4.256-0.196c-0.928-0.029-1.851-0.195-2.779-0.24c-0.78-0.038-1.564-0.01-2.345,0.029
		c-0.732,0.037-1.46,0.155-2.192,0.189c-1.419,0.066-2.851-0.001-4.256,0.17c-1.659,0.202-3.13-0.063-4.384-1.19
		c-0.754-0.677-1.611-0.905-2.585-0.74c-1.513,0.256-2.921-0.022-4.262-0.755c-0.783-0.428-1.64-0.706-2.527-0.719
		c-1.492-0.022-2.76-0.565-3.938-1.428c-0.956-0.701-2.004-1.26-3.16-1.529c-1.771-0.412-3.296-1.222-4.564-2.528
		c-0.66-0.68-1.467-1.144-2.351-1.475c-1.605-0.603-3.103-1.442-4.72-2.033c-1.557-0.569-2.572-1.759-2.992-3.401
		c-0.085-0.332-0.187-0.664-0.23-1.003c-0.121-0.941-0.453-1.806-0.892-2.635c-0.367-0.694-0.735-1.387-1.127-2.067
		c-1.574-2.729-2.835-5.595-3.88-8.567c-1.316-3.746-2.649-7.487-4.058-11.199c-1.473-3.882-2.493-7.845-2.593-12.017
		c-0.008-0.331-0.098-0.66-0.146-0.969c-1.145-0.135-2.21-0.329-3.281-0.368c-1.105-0.041-2.17-0.561-3.345-0.346
		c-0.029,0.265-0.088,0.458-0.065,0.642c0.138,1.119,0.248,2.246,0.455,3.353c0.536,2.867,1.593,5.555,2.898,8.152
		c1.324,2.633,2.445,5.355,3.467,8.116c1.365,3.687,1.917,7.499,1.58,11.424c-0.181,2.102-0.408,4.199-0.619,6.298
		c-0.103,1.025-0.218,2.048-0.325,3.073c-0.347,3.326-0.562,6.65,0.056,9.971c0.062,0.336,0.068,0.684,0.08,1.026
		c0.017,0.498-0.226,0.84-0.679,1.03c-0.352,0.147-0.752-0.052-1.066-0.574c-0.459-0.761-0.765-1.587-0.95-2.458
		c-0.555-2.611-0.702-5.255-0.488-7.907c0.237-2.933,0.49-5.868,0.874-8.783c0.399-3.025,0.051-5.965-0.637-8.896
		c-0.429-1.826-1.173-3.538-1.923-5.243c-1.145-2.603-2.36-5.176-3.524-7.771c-1.709-3.81-2.692-7.778-2.562-11.984
		c0.006-0.189-0.056-0.381-0.091-0.601C166.37,363.554,165.322,363.142,164.043,363.192z M238.782,153.977
		c-0.204,0.313-0.354,0.507-0.466,0.721c-1.758,3.345-3.473,6.71-4.801,10.258c-1.847,4.934-3.095,10.028-4.077,15.192
		c-0.655,3.445-0.744,6.926-0.573,10.417c0.038,0.783,0.168,1.561,0.266,2.34c0.169,1.342,0.77,2.428,1.955,3.125
		c1.224,0.721,2.43,1.488,3.71,2.098c4.135,1.969,8.491,3.32,12.924,4.421c4.669,1.16,9.403,1.988,14.167,2.639
		c1.406,0.192,2.832,0.236,4.249,0.349c0.705,0.056,1.242-0.241,1.628-0.809c0.276-0.405,0.565-0.811,0.764-1.255
		c0.543-1.207,1.131-2.404,1.541-3.658c0.976-2.983,1.914-5.981,2.772-9c2.025-7.129,3.896-14.297,4.994-21.642
		c0.159-1.067,0.272-2.141,0.374-3.215c0.061-0.647-0.201-1.146-0.823-1.42c-0.404-0.178-0.794-0.39-1.207-0.543
		c-1.608-0.599-3.211-1.214-4.837-1.763c-4.23-1.429-8.561-2.511-12.865-3.685c-5.014-1.368-10.019-2.775-15.115-3.815
		C241.877,154.429,240.398,154.08,238.782,153.977z M197.559,167.983c-0.764,1.52-0.754,1.85,0.186,2.897
		c0.423,0.471,0.916,0.888,1.416,1.28c2.286,1.796,4.771,3.267,7.384,4.534c5.374,2.606,11.041,4.311,16.871,5.517
		c0.561,0.116,1.137,0.165,1.788,0.257c0.442-2.203,0.84-4.317,1.294-6.418c0.446-2.061,0.915-4.119,1.435-6.162
		c0.528-2.076,1.131-4.132,1.736-6.323c-0.606-0.048-1.083-0.073-1.557-0.126c-1.558-0.174-3.135-0.254-4.667-0.558
		c-5.103-1.011-10.148-2.246-14.932-4.367c-0.537-0.238-1.098-0.424-1.653-0.619c-0.323-0.114-0.655-0.205-0.987-0.295
		c-0.501-0.136-0.963-0.038-1.414,0.215c-0.829,0.465-1.718,1.376-2.325,2.447c0.27,0.183,0.544,0.372,0.821,0.555
		c0.736,0.486,1.482,0.959,2.207,1.461c0.238,0.164,0.461,0.376,0.629,0.61c0.248,0.348,0.239,0.74,0.009,1.107
		c-0.219,0.349-0.569,0.37-0.913,0.283c-0.378-0.096-0.751-0.228-1.11-0.382c-0.857-0.366-1.701-0.761-2.556-1.13
		c-0.256-0.111-0.532-0.177-0.837-0.277c-0.6,0.848-1.065,1.687-1.482,2.61c0.299,0.225,0.515,0.421,0.76,0.566
		c1.225,0.722,2.437,1.471,3.693,2.137c2.988,1.587,6.001,3.128,8.997,4.7c0.519,0.272,1.029,0.574,1.499,0.922
		c0.394,0.292,0.459,0.807,0.238,1.189c-0.212,0.365-0.574,0.381-0.906,0.302c-0.856-0.206-1.72-0.404-2.546-0.701
		c-4.117-1.48-8.082-3.29-11.837-5.546C198.431,168.444,198.043,168.249,197.559,167.983z M305.268,189.075
		c-0.438-0.041-0.815-0.11-1.191-0.107c-2.758,0.023-5.485-0.259-8.185-0.811c-1.827-0.373-3.642-0.802-5.375-1.503
		c-0.489-0.198-0.949-0.5-1.369-0.824c-0.291-0.225-0.306-0.607-0.169-0.951c0.137-0.344,0.394-0.583,0.778-0.568
		c0.389,0.016,0.779,0.077,1.162,0.151c2.07,0.398,4.133,0.836,6.209,1.201c2.178,0.383,4.38,0.557,6.594,0.503
		c0.482-0.012,0.963-0.061,1.506-0.096c-0.028-0.385-0.047-0.669-0.069-0.953c-0.071-0.914-0.555-1.405-1.468-1.55
		c-1.307-0.208-2.601-0.497-3.909-0.705c-3.927-0.624-7.817-1.411-11.648-2.483c-2.274-0.636-4.486-1.426-6.552-2.591
		c-0.159-0.089-0.347-0.126-0.601-0.215c-0.405,1.629-0.787,3.197-1.186,4.76c-0.401,1.569-0.807,3.136-1.234,4.698
		c-0.427,1.562-0.893,3.112-1.322,4.674c-0.424,1.543-1.03,3.036-1.367,4.68c0.457,0.141,0.817,0.281,1.19,0.363
		c5.172,1.138,10.336,2.315,15.522,3.384c3.089,0.637,6.228,0.785,9.375,0.415c2.32-0.273,2.279-0.559,2.53-2.34
		c0.315-2.234,0.549-4.48,0.786-6.725C305.354,190.711,305.392,189.929,305.268,189.075z M217.481,261.862
		c2.589,0.106,5.389-0.323,8.148-1.091c1.748-0.486,3.508-0.926,5.263-1.384c2.904-0.757,5.866-1.156,8.849-1.421
		c0.88-0.078,1.76-0.149,2.637-0.255c0.964-0.117,1.631-0.637,1.923-1.579c0.156-0.505-0.137-1.024-0.651-1.131
		c-0.331-0.069-0.681-0.082-1.02-0.065c-2.994,0.153-5.969,0.501-8.89,1.163c-2.628,0.596-5.232,1.307-7.822,2.053
		c-4.497,1.294-9.002,1.259-13.533,0.246c-3.502-0.783-6.879-1.967-10.242-3.199c-3.272-1.198-6.576-2.289-10.008-2.944
		c-2.799-0.534-5.63-0.805-8.465-1.046c-2.444-0.209-4.892-0.387-7.325-0.687c-4.956-0.611-9.668-2.141-14.221-4.128
		c-2.711-1.183-5.471-2.153-8.354-2.787c-0.575-0.126-1.147-0.264-1.716-0.415c-2.397-0.638-4.601-1.677-6.577-3.19
		c-0.427-0.327-0.867-0.655-1.348-0.887c-0.335-0.162-0.759-0.257-1.124-0.214c-1.043,0.121-1.476,1.032-0.939,1.929
		c0.662,1.104,1.502,2.065,2.516,2.86c1.758,1.378,3.711,2.429,5.861,2.996c3.378,0.89,6.634,2.057,9.821,3.496
		c5.129,2.316,10.506,3.803,16.129,4.312c3.126,0.283,6.254,0.55,9.383,0.812c2.792,0.234,5.559,0.634,8.256,1.399
		c3.632,1.03,7.244,2.125,10.867,3.187C208.917,261.067,212.984,261.935,217.481,261.862z M386.712,252.981
		c0.793,0.057,1.586,0.027,2.318-0.286c0.438-0.187,0.885-0.446,1.209-0.786c0.616-0.646,0.467-1.391-0.287-1.846
		c-0.648-0.391-1.375-0.494-2.108-0.588c-1.507-0.195-3.02-0.361-4.517-0.617c-3.818-0.655-7.379-1.98-10.573-4.212
		c-1.005-0.703-2.004-1.416-2.996-2.136c-2.074-1.507-4.288-2.761-6.676-3.698c-1.734-0.681-3.468-1.365-5.214-2.014
		c-4.021-1.493-7.796-3.442-11.332-5.882c-3.78-2.609-7.912-4.543-12.27-5.951c-2.469-0.797-5.005-1.389-7.522-2.03
		c-6.802-1.732-12.645-5.007-17.097-10.549c-0.246-0.306-0.507-0.6-0.772-0.89c-0.198-0.217-0.403-0.431-0.624-0.624
		c-0.184-0.16-0.383-0.31-0.598-0.424c-0.56-0.298-1.176-0.192-1.621,0.253c-0.347,0.348-0.365,0.726-0.057,1.351
		c0.065,0.132,0.14,0.259,0.217,0.384c1.815,2.948,3.947,5.62,6.73,7.726c3.601,2.725,7.583,4.687,11.908,5.961
		c1.129,0.332,2.265,0.639,3.403,0.937c5.365,1.409,10.352,3.641,14.904,6.827c0.402,0.281,0.815,0.547,1.22,0.823
		c2.768,1.886,5.708,3.45,8.817,4.691c2.232,0.891,4.471,1.761,6.716,2.618c2.446,0.934,4.704,2.197,6.82,3.736
		c1.07,0.778,2.171,1.517,3.281,2.238c2.023,1.315,4.161,2.402,6.463,3.15C379.791,252.225,383.236,252.691,386.712,252.981z
		 M308.745,282.133c-0.096,0.633-0.054,1.159,0.067,1.685c0.265,1.147,0.523,2.295,0.797,3.439c0.251,1.048,0.557,2.083,0.773,3.138
		c0.655,3.197,0.755,6.432,0.484,9.671c-0.226,2.698-0.173,5.396-0.151,8.094c0.008,1.012,0.208,2.022,0.35,3.301
		c0.232-0.391,0.369-0.536,0.408-0.704c0.119-0.526,0.232-1.056,0.293-1.591c0.317-2.799,1.07-5.476,2.159-8.07
		c0.512-1.22,1-2.454,1.43-3.705c0.999-2.91,1.234-5.939,1.299-8.989c0.01-0.489,0.008-0.985,0.087-1.465
		c0.125-0.76,0.491-1.122,1.096-1.196c0.751-0.091,1.365,0.266,1.633,0.965c0.07,0.181,0.102,0.378,0.14,0.57
		c0.422,2.133,0.539,4.281,0.287,6.442c-0.234,2.007-0.757,3.942-1.447,5.841c-0.871,2.396-1.792,4.777-2.353,7.273
		c-0.602,2.678-1.219,5.353-1.76,8.043c-0.231,1.149-0.34,2.331-0.405,3.503c-0.092,1.659,0.449,3.166,1.313,4.756
		c0.653-1.27,1.23-2.4,1.816-3.527c1.067-2.05,1.973-4.166,2.601-6.393c0.731-2.594,1.473-5.186,2.176-7.788
		c1.585-5.866,2.354-11.827,2.034-17.911c-0.017-0.331-0.095-0.66-0.146-1.001c-0.327-0.124-0.595-0.234-0.868-0.329
		c-1.389-0.484-2.785-0.948-4.167-1.449c-2.863-1.039-5.81-1.781-8.766-2.49C309.565,282.16,309.181,282.172,308.745,282.133z
		 M272.806,89.836c-1.405,0.149-2.876,0.236-4.321,0.477c-1.447,0.242-2.876,0.608-4.3,0.971c-3.628,0.926-7.3,1.473-11.054,1.409
		c-0.979-0.017-1.969-0.011-2.937,0.113c-3.717,0.477-7.281,1.559-10.766,2.901c-2.112,0.813-3.847,2.166-5.11,4.055
		c-0.652,0.975-1.232,2.005-1.77,3.048c-0.697,1.35-1.321,2.738-1.971,4.113c-0.125,0.265-0.248,0.536-0.325,0.817
		c-0.117,0.429,0.078,0.758,0.482,0.952c0.441,0.212,0.874,0.182,1.255-0.09c0.315-0.225,0.617-0.494,0.851-0.8
		c0.803-1.051,1.581-2.123,2.356-3.196c0.775-1.074,1.499-2.185,2.307-3.232c1.044-1.351,2.381-2.324,4.026-2.84
		c1.824-0.571,3.638-1.176,5.476-1.698c2.274-0.645,4.593-0.987,6.973-0.901c2.212,0.08,4.402-0.193,6.591-0.506
		c2.629-0.376,5.187-1.053,7.749-1.713c2.253-0.58,4.527-0.876,6.847-0.629c1.706,0.182,3.404,0.436,5.108,0.636
		c0.729,0.085,1.466,0.167,2.197,0.146c0.419-0.012,0.873-0.164,1.237-0.38c0.725-0.43,0.722-1.361-0.002-1.814
		c-0.362-0.227-0.8-0.372-1.223-0.455c-1.539-0.299-3.081-0.599-4.633-0.818C276.199,90.169,274.538,90.026,272.806,89.836z
		 M113.943,188.859c-0.748-0.027-1.39,0.455-1.52,1.159c-0.062,0.334-0.085,0.686-0.056,1.024c0.255,2.995,0.728,5.933,2.132,8.651
		c0.789,1.528,1.396,3.139,1.774,4.819c0.354,1.578,0.681,3.164,0.941,4.759c0.452,2.769,1.178,5.462,2.158,8.085
		c0.847,2.27,2.022,4.357,3.643,6.171c0.29,0.325,0.615,0.633,0.97,0.883c0.478,0.336,1.001,0.368,1.51,0.017
		c0.486-0.335,0.749-0.804,0.653-1.38c-0.062-0.373-0.217-0.762-0.432-1.073c-1.04-1.508-1.743-3.174-2.384-4.875
		c-1.126-2.99-1.95-6.064-2.574-9.193c-0.568-2.846-1.299-5.642-2.612-8.245c-1.112-2.204-1.902-4.511-2.43-6.916
		c-0.168-0.766-0.367-1.525-0.565-2.283c-0.087-0.331-0.191-0.66-0.319-0.977C114.667,189.081,114.323,188.91,113.943,188.859z
		 M298.171,108.621c0.14,3.582,0.887,7.166,2.38,10.567c0.767,1.748,1.657,3.445,2.554,5.131c0.993,1.866,1.871,3.777,2.536,5.782
		c0.54,1.627,1.047,3.265,1.573,4.897c0.165,0.513,0.333,1.025,0.52,1.53c0.193,0.521,0.528,0.937,1.004,1.23
		c0.529,0.326,0.989,0.17,1.125-0.421c0.087-0.376,0.141-0.778,0.108-1.159c-0.082-0.927-0.202-1.851-0.346-2.771
		c-0.467-2.979-1.443-5.791-2.775-8.491c-1.566-3.175-2.719-6.502-3.615-9.927c-0.696-2.659-1.238-5.344-1.665-8.057
		c-0.09-0.575-0.249-1.151-0.458-1.694c-0.214-0.556-0.683-0.809-1.291-0.772c-0.584,0.035-1.046,0.284-1.289,0.824
		c-0.118,0.261-0.177,0.561-0.202,0.849C298.263,106.92,298.228,107.704,298.171,108.621z M232.187,400.06
		c0.022-0.001,0.044-0.001,0.066-0.002c-0.06-1.564-0.046-3.136-0.201-4.69c-0.14-1.401-0.641-2.708-2.049-3.333
		c-0.702-0.311-1.483-0.487-2.247-0.604c-1.149-0.177-1.982,0.372-2.528,1.367c-0.453,0.825-0.704,1.72-0.798,2.651
		c-0.213,2.092-0.408,4.185-0.6,6.278c-0.036,0.389-0.041,0.783-0.032,1.173c0.03,1.259,0.654,2.162,1.8,2.607
		c1.423,0.552,2.919,0.811,4.455,0.698c1.316-0.097,1.943-0.725,2.006-2.037C232.124,402.801,232.146,401.43,232.187,400.06z
		 M234.986,401.486c0.014,0.001,0.029,0.001,0.043,0.002c0,0.882-0.024,1.766,0.006,2.647c0.044,1.293,0.691,1.968,1.997,2.068
		c1.538,0.117,3.035-0.15,4.46-0.709c1.094-0.429,1.721-1.292,1.757-2.486c0.021-0.681-0.066-1.368-0.126-2.05
		c-0.043-0.487-0.144-0.969-0.184-1.457c-0.113-1.367-0.19-2.738-0.315-4.104c-0.091-0.985-0.369-1.924-0.894-2.773
		c-0.536-0.865-1.311-1.341-2.338-1.201c-0.72,0.098-1.434,0.288-2.127,0.511c-0.307,0.099-0.619,0.329-0.82,0.585
		c-0.611,0.776-1.093,1.623-1.141,2.653C235.201,397.278,235.091,399.382,234.986,401.486z M351.57,276.294
		c0.583,0.034,1.136-0.281,1.674-0.633c1.691-1.106,3.526-1.911,5.39-2.672c1.585-0.647,3.152-1.35,4.687-2.11
		c3.154-1.562,5.391-4.021,6.855-7.207c0.818-1.78,1.652-3.554,2.466-5.336c0.12-0.263,0.207-0.554,0.241-0.84
		c0.073-0.607-0.441-1.101-1.006-0.907c-0.497,0.17-0.986,0.439-1.396,0.769c-0.889,0.714-1.539,1.643-2.098,2.63
		c-0.724,1.28-1.448,2.561-2.141,3.858c-0.835,1.563-2.002,2.791-3.595,3.563c-1.497,0.725-3.011,1.424-4.55,2.055
		c-1.953,0.802-3.878,1.65-5.663,2.785c-0.413,0.262-0.823,0.537-1.198,0.849c-0.499,0.417-0.852,0.948-0.997,1.594
		C350.042,275.569,350.588,276.269,351.57,276.294z M303.977,173.194c-0.074-1.852-0.448-3.626-1.174-5.307
		c-0.719-1.665-1.482-3.316-2.311-4.928c-1.354-2.633-2.375-5.381-3.083-8.251c-0.059-0.238-0.117-0.478-0.199-0.708
		c-0.28-0.782-0.852-1.063-1.612-0.804c-1.092,0.372-1.571,1.257-1.305,2.432c0.686,3.032,1.759,5.921,3.191,8.678
		c0.679,1.306,1.344,2.619,2.017,3.928c1.111,2.161,1.828,4.439,2.052,6.867c0.031,0.338,0.104,0.681,0.215,1.001
		c0.225,0.65,0.946,0.816,1.389,0.306c0.216-0.249,0.399-0.576,0.465-0.895C303.783,174.749,303.865,173.968,303.977,173.194z
		 M220.716,404.097c-0.302-3.661-0.59-7.174,0.47-10.677c-1.133-0.376-2.24-0.576-3.341-0.725c-1.494-0.201-2.464,0.467-2.83,1.952
		c-0.583,2.365-0.575,4.76-0.129,7.153c0.197,1.055,0.841,1.759,1.791,2.18C217.98,404.556,219.311,404.641,220.716,404.097z
		 M246.348,404.059c0.73,0.434,1.479,0.438,2.203,0.371c2.38-0.219,3.561-1.262,3.797-3.508c0.01-0.098,0.027-0.195,0.027-0.293
		c0.004-1.372,0.046-2.746-0.009-4.116c-0.027-0.678-0.174-1.367-0.37-2.02c-0.399-1.328-1.28-1.947-2.653-1.808
		c-1.155,0.117-2.295,0.373-3.473,0.736C246.933,396.935,246.633,400.448,246.348,404.059z M219.394,406.959
		c-1.028-0.043-1.961,0.01-2.857-0.144c-0.888-0.153-1.74-0.516-2.691-0.813c-0.093,2.41,0.179,4.67,1.089,6.824
		c0.226,0.535,0.523,1.056,0.874,1.517c0.289,0.379,0.688,0.685,1.072,0.978c0.323,0.247,0.732,0.32,1.119,0.193
		c0.638-0.21,1.309-0.389,1.674-0.918c-0.19-1.305-0.47-2.508-0.513-3.719C219.116,409.619,219.3,408.353,219.394,406.959z
		 M247.374,414.709c0.382,0.209,0.757,0.424,1.141,0.622c0.801,0.415,1.51,0.22,2.157-0.346c0.639-0.56,1.075-1.263,1.407-2.032
		c0.828-1.916,1.123-3.936,1.146-6.006c0.003-0.312,0.101-0.667-0.242-0.98c-1.556,0.866-3.223,1.085-4.958,0.938
		c-0.118-0.01-0.246,0.11-0.364,0.167c0.09,1.247,0.281,2.464,0.236,3.673C247.851,412.004,247.577,413.255,247.374,414.709z
		 M234.776,408.293c-0.383,0.393-0.338,0.852-0.369,1.281c-0.19,2.609-0.059,6.84,0.239,8.032c1.452,0.351,2.005,0.195,2.759-0.934
		c0.376-0.563,0.662-1.197,0.916-1.829c0.551-1.369,0.882-2.801,1.045-4.265c0.074-0.66,0.338-1.311,0.23-2.024
		c-1.483-0.111-2.885-0.219-4.289-0.315C235.118,408.227,234.925,408.277,234.776,408.293z M227.356,408.543
		c0.242,1.453,0.391,2.772,0.698,4.052c0.261,1.089,0.673,2.147,1.084,3.193c0.175,0.445,0.469,0.866,0.791,1.225
		c0.688,0.767,1.547,0.912,2.528,0.614c-0.044-1.595-0.072-3.105-0.13-4.613c-0.06-1.553,0.073-3.113-0.081-4.757
		c-1.434,0.07-2.79,0.135-4.146,0.204C227.914,408.47,227.728,408.501,227.356,408.543z M255.348,402.207
		c0.946,0.533,1.831,0.245,2.675-0.159c0.768-0.368,1.069-1.064,1.211-1.892c0.304-1.774,0.114-3.52-0.219-5.255
		c-0.108-0.562-0.38-1.112-0.673-1.611c-0.259-0.442-0.706-0.679-1.26-0.527c-0.747,0.206-1.492,0.421-2.323,0.655
		C255.808,396.337,255.642,399.26,255.348,402.207z M211.622,402.306c-0.041-1.645-0.08-3.11-0.115-4.576
		c-0.035-1.469,0.366-2.874,0.753-4.329c-0.751-0.21-1.423-0.351-2.06-0.587c-0.688-0.255-1.278,0.053-1.613,0.643
		c-0.191,0.336-0.337,0.71-0.434,1.085c-0.395,1.526-0.56,3.08-0.449,4.655c0.031,0.438,0.117,0.874,0.187,1.309
		c0.1,0.615,0.421,1.116,0.943,1.428C209.699,402.451,210.624,402.68,211.622,402.306z M212.3,413.968
		c-0.517-1.519-1.058-2.934-1.183-4.445c-0.125-1.501-0.238-3.004-0.364-4.612c-0.574,0-1.151,0.022-1.726-0.006
		c-0.56-0.027-1.094-0.322-1.76-0.271c0.012,2.579,0.53,4.938,1.659,7.146c0.285,0.558,0.702,1.06,1.119,1.535
		C210.603,413.952,211.35,414.067,212.3,413.968z M254.757,413.943c0.934,0.147,1.695,0.031,2.234-0.617
		c0.527-0.634,1.044-1.312,1.391-2.053c0.88-1.878,1.298-3.889,1.426-5.956c0.014-0.229-0.067-0.465-0.099-0.663
		c-1.175,0.126-2.281,0.245-3.549,0.38C256.355,408.043,255.91,411.013,254.757,413.943z M242.441,407.872
		c-0.163,1.428-0.259,2.847-0.502,4.24c-0.251,1.439-0.646,2.854-0.972,4.255c0.267,0.472,0.701,0.6,1.139,0.608
		c0.461,0.009,0.864-0.244,1.121-0.617c0.33-0.48,0.657-0.982,0.873-1.519c0.995-2.471,1.176-5.044,0.838-7.666
		c-0.016-0.122-0.144-0.23-0.243-0.38C243.93,407.159,243.191,407.512,242.441,407.872z M222.389,406.828
		c-0.133,0.088-0.203,0.109-0.208,0.141c-0.488,2.914-0.186,5.737,1.021,8.443c0.156,0.35,0.404,0.666,0.645,0.969
		c0.283,0.355,0.668,0.61,1.128,0.592c0.436-0.017,0.866-0.146,1.142-0.667c-0.235-0.879-0.527-1.806-0.725-2.754
		c-0.2-0.953-0.327-1.923-0.449-2.891c-0.12-0.954-0.193-1.915-0.279-2.798C223.805,407.473,223.068,407.138,222.389,406.828z
		 M261.328,410.954c1.514,0.12,2.315-0.602,2.941-1.605c0.499-0.8,0.785-1.685,0.933-2.608c0.216-1.343,0.293-2.691-0.004-4.095
		c-0.824,0.146-1.578,0.28-2.415,0.428C262.646,405.738,262.247,408.332,261.328,410.954z M201.898,402.665
		c-0.328,1.457-0.282,3.069,0.087,4.681c0.188,0.823,0.506,1.586,0.982,2.275c0.614,0.887,1.408,1.461,2.77,1.329
		c-0.959-2.576-1.287-5.217-1.49-7.883C203.408,402.923,202.651,402.794,201.898,402.665z M261.091,392.815
		c0.892,1.741,1.072,3.486,1.125,5.254c0.018,0.587-0.01,1.175,0,1.763c0.004,0.226,0.053,0.451,0.082,0.679
		c1.656-0.249,2.359-0.861,2.452-2.275c0.07-1.07,0.083-2.165-0.073-3.221c-0.138-0.935-0.238-1.948-0.961-2.715
		C262.833,392.291,262.035,392.478,261.091,392.815z M204.851,400.56c0-0.988-0.03-1.864,0.009-2.737
		c0.037-0.83,0.081-1.67,0.243-2.481c0.171-0.853,0.486-1.676,0.753-2.559c-0.847-0.305-1.674-0.537-2.649-0.446
		c-0.174,0.403-0.389,0.786-0.508,1.198c-0.423,1.473-0.577,2.976-0.427,4.507C202.427,399.614,202.954,400.174,204.851,400.56z
		 M194.71,398.357c-0.361-3.008,0.451-5.423,2.748-7.368c-0.899-0.558-1.734-1.021-2.637-1.316c-0.49,0.405-0.617,0.935-0.76,1.446
		c-0.509,1.818-0.435,3.671-0.271,5.521c0.037,0.422,0.237,0.841,0.424,1.232C194.307,398.068,194.54,398.198,194.71,398.357z
		 M269.508,390.959c2.489,2.026,3.138,4.499,2.617,7.556c0.376-0.341,0.675-0.488,0.762-0.716c0.205-0.54,0.403-1.114,0.433-1.683
		c0.058-1.118,0.07-2.248-0.034-3.361c-0.076-0.813-0.345-1.612-0.575-2.403c-0.074-0.253-0.298-0.463-0.495-0.753
		C271.337,390.041,270.519,390.451,269.508,390.959z M267.566,399.38c1.512-0.283,2.142-0.921,2.129-2.15
		c-0.013-1.183-0.305-2.322-0.927-3.345c-0.404-0.664-0.889-0.946-1.819-1.124C267.615,394.907,267.853,397.063,267.566,399.38z
		 M199.366,399.339c0-0.789-0.034-1.515,0.009-2.238c0.046-0.777,0.214-1.547,0.237-2.323c0.021-0.705,0.511-1.333,0.369-2.175
		c-0.947,0.393-1.646,0.91-1.954,1.783c-0.289,0.822-0.486,1.68-0.668,2.535c-0.104,0.487,0.022,0.986,0.28,1.41
		C198.03,398.971,198.536,399.454,199.366,399.339z M267.79,407.05c0.936-0.003,1.435-0.505,1.793-1.177
		c0.565-1.06,0.64-3.373,0.159-4.72c-0.6,0.089-1.216,0.142-1.775,0.427c0,0.961,0.023,1.836-0.006,2.709
		C267.931,405.197,267.851,406.102,267.79,407.05z M197.104,401.099c-0.093,1.211-0.163,2.23-0.044,3.249
		c0.051,0.433,0.146,0.874,0.308,1.277c0.326,0.808,0.858,1.397,1.9,1.43c-0.062-0.961-0.118-1.874-0.181-2.787
		c-0.063-0.912,0.212-1.838-0.086-2.797C198.42,401.357,197.854,401.246,197.104,401.099z M272.417,404.945
		c0.923-0.547,1.242-1.243,1.374-2.021c0.096-0.566,0.154-1.171-0.371-1.641c-0.215,0.056-0.404,0.093-0.585,0.156
		c-0.133,0.046-0.254,0.126-0.417,0.21C272.417,402.672,272.417,403.696,272.417,404.945z M194.591,404.944
		c0.047-0.365,0.09-0.543,0.09-0.722c-0.002-0.876-0.015-1.751-0.025-2.634c-0.4-0.122-0.715-0.218-1.016-0.31
		c-0.421,0.783-0.492,1.012-0.395,1.56C193.385,403.632,193.687,404.338,194.591,404.944z"/>
        <path fill="#494949" d="M172.629,289.866c0.251-0.135,0.432-0.2,0.574-0.314c3.089-2.494,6.694-3.844,10.501-4.736
		c2.824-0.662,5.698-0.988,8.587-1.163c2.595-0.157,5.194-0.253,7.793-0.334c3.438-0.106,6.87,0.015,10.274,0.546
		c1.207,0.188,2.413,0.44,3.586,0.778c3.198,0.921,5.485,2.958,6.95,5.926c1.029,2.084,1.694,4.289,1.99,6.593
		c0.795,6.196-0.4,12.021-3.423,17.459c-2.796,5.031-6.406,9.416-10.908,13.008c-3.939,3.142-8.264,5.62-13.12,7.098
		c-2.294,0.698-4.631,0.762-6.994,0.592c-3.152-0.226-6.025-1.305-8.72-2.887c-1.494-0.877-2.728-2.081-3.866-3.378
		c-1.886-2.151-3.438-4.527-4.793-7.044c-2.014-3.741-3.449-7.692-4.301-11.848c-0.245-1.197-0.385-2.428-0.435-3.649
		c-0.074-1.813-0.009-3.631-0.032-5.446c-0.049-3.944,0.84-7.699,2.384-11.292c1.529-3.56,3.15-7.082,4.778-10.599
		c0.493-1.064,1.125-2.067,1.732-3.074c0.224-0.372,0.527-0.715,0.856-1c0.522-0.453,1.15-0.518,1.797-0.284
		c0.444,0.16,0.711,0.576,0.622,1.045c-0.073,0.38-0.206,0.755-0.363,1.111c-1.679,3.816-3.369,7.628-5.052,11.442
		C172.856,288.847,172.559,289.254,172.629,289.866z"/>
        <path fill="#494949" d="M233.412,352.259c-0.053,0.217-0.12,0.433-0.157,0.653c-0.334,1.987-0.825,3.934-1.506,5.831
		c-0.584,1.627-1.347,3.158-2.457,4.498c-2.119,2.559-4.827,3.414-8.032,2.713c-0.903-0.198-1.806-0.476-2.649-0.85
		c-2.839-1.261-4.256-3.548-4.411-6.592c-0.117-2.303-0.106-4.614-0.113-6.922c-0.007-2.53,0.605-4.958,1.303-7.368
		c1.203-4.155,2.855-8.138,4.566-12.103c1.068-2.475,1.97-5.022,2.971-7.527c0.673-1.684,1.349-3.37,2.101-5.019
		c0.384-0.842,0.899-1.635,1.431-2.396c0.78-1.115,1.845-1.875,3.145-2.317c1.075-0.365,2.159-0.645,3.304-0.625
		c0.736,0.013,1.472,0.014,2.207,0.045c2.306,0.095,4.134,1.108,5.517,2.934c0.835,1.102,1.464,2.326,1.991,3.598
		c0.601,1.449,1.193,2.904,1.725,4.38c1.415,3.925,3.113,7.734,4.716,11.582c1.379,3.311,2.474,6.718,3.318,10.203
		c0.429,1.772,0.636,3.572,0.59,5.401c-0.048,1.914-0.074,3.829-0.094,5.744c-0.011,1.094-0.217,2.141-0.629,3.155
		c-0.596,1.464-1.579,2.581-2.935,3.382c-1.417,0.837-2.955,1.321-4.58,1.483c-2.789,0.278-5.104-0.658-6.91-2.825
		c-1.147-1.376-1.933-2.946-2.533-4.621c-0.664-1.852-1.136-3.752-1.475-5.688c-0.042-0.239-0.086-0.477-0.13-0.716
		C233.595,352.28,233.504,352.27,233.412,352.259z"/>
        <path fill="#494949" d="M292.213,356.001c-1.064-0.146-2.139-0.242-3.191-0.45c-1.821-0.36-3.418-1.203-4.745-2.505
		c-0.874-0.858-1.691-1.774-2.527-2.67c-0.669-0.717-1.319-1.451-1.994-2.163c-2.076-2.188-4.602-3.626-7.479-4.478
		c-0.468-0.139-0.94-0.278-1.384-0.476c-0.372-0.166-0.63-0.476-0.626-0.919c0.004-0.442,0.251-0.761,0.641-0.901
		c0.405-0.145,0.868-0.339,1.261-0.268c2.025,0.368,4.019,0.858,5.882,1.784c1.733,0.861,3.268,1.986,4.582,3.397
		c0.834,0.896,1.606,1.851,2.387,2.794c0.563,0.679,1.086,1.391,1.646,2.074c1.213,1.479,2.798,2.302,4.686,2.471
		c1.167,0.104,2.347,0.087,3.521,0.088c0.5,0,0.977,0.001,1.392,0.332c0.277,0.221,0.324,0.686,0.032,0.894
		c-0.313,0.223-0.661,0.417-1.02,0.551C294.293,355.925,293.258,355.914,292.213,356.001z"/>
        <path fill="#494949" d="M173.341,353.936c1.115-0.142,2.236-0.247,3.343-0.436c1.352-0.231,2.477-0.923,3.381-1.941
		c0.65-0.732,1.24-1.518,1.864-2.274c0.717-0.87,1.418-1.754,2.167-2.596c2.539-2.857,5.776-4.478,9.465-5.276
		c0.43-0.093,0.861-0.186,1.295-0.258c0.626-0.104,1.158,0.146,1.629,0.516c0.401,0.316,0.422,0.957,0.042,1.303
		c-0.211,0.192-0.476,0.347-0.743,0.449c-0.502,0.192-1.023,0.333-1.536,0.494c-2.523,0.792-4.752,2.084-6.613,3.97
		c-0.963,0.977-1.867,2.012-2.8,3.019c-0.567,0.611-1.127,1.229-1.712,1.823c-1.524,1.546-3.354,2.5-5.491,2.924
		c-1.561,0.31-3.122,0.319-4.682,0.157c-0.664-0.069-1.313-0.359-1.949-0.6c-0.276-0.104-0.523-0.392-0.415-0.695
		c0.085-0.241,0.334-0.478,0.57-0.596c0.247-0.123,0.566-0.133,0.854-0.134c0.44-0.001,0.881,0.047,1.321,0.075
		C173.333,353.885,173.337,353.911,173.341,353.936z"/>
        <path fill="#494949" d="M285.771,338.735c-0.617,0.049-1.167-0.078-1.596-0.569c-0.546-0.626-0.367-1.376,0.406-1.623
		c0.231-0.074,0.477-0.113,0.72-0.137c2.226-0.225,4.294-0.957,6.286-1.94c1.256-0.619,2.263-1.55,3.184-2.576
		c1.016-1.132,2.004-2.29,2.996-3.443c1.226-1.426,2.155-3.035,2.89-4.762c0.269-0.632,0.529-1.27,0.841-1.88
		c0.261-0.51,0.641-0.698,1.059-0.615c0.48,0.095,0.823,0.39,0.902,0.859c0.08,0.476,0.109,0.979,0.049,1.457
		c-0.274,2.186-1.055,4.181-2.412,5.924c-1.602,2.059-3.447,3.896-5.388,5.628c-0.649,0.579-1.43,1.043-2.213,1.434
		c-2.118,1.057-4.366,1.748-6.699,2.15C286.459,338.7,286.113,338.705,285.771,338.735z"/>
        <path fill="#494949" d="M181.533,338.771c-0.723-0.128-1.449-0.238-2.167-0.387c-2.027-0.42-3.97-1.107-5.797-2.07
		c-0.814-0.429-1.598-0.982-2.262-1.618c-1.452-1.389-2.847-2.84-4.213-4.315c-1.423-1.536-2.411-3.336-2.897-5.383
		c-0.169-0.711-0.264-1.445-0.327-2.174c-0.029-0.329,0.059-0.686,0.172-1.004c0.143-0.405,0.503-0.595,0.916-0.636
		c0.372-0.037,0.676,0.126,0.857,0.453c0.212,0.386,0.426,0.776,0.583,1.185c0.959,2.505,2.334,4.745,4.181,6.696
		c0.539,0.569,1.064,1.158,1.542,1.779c1.714,2.229,4.006,3.584,6.644,4.383c1.072,0.325,2.194,0.485,3.294,0.716
		c0.239,0.05,0.488,0.06,0.722,0.128c0.786,0.229,1.006,0.969,0.488,1.606C182.816,338.685,182.208,338.793,181.533,338.771z"/>
        <path fill="#494949" d="M203.074,336.699c-0.3-0.03-0.498-0.034-0.688-0.073c-0.698-0.144-0.93-0.836-0.382-1.317
		c0.583-0.511,1.23-0.971,1.909-1.345c0.897-0.495,1.832-0.937,2.786-1.312c2.705-1.061,4.951-2.752,6.842-4.928
		c0.738-0.849,1.396-1.766,2.097-2.647c0.457-0.574,0.905-1.159,1.397-1.702c0.439-0.483,0.998-0.792,1.67-0.822
		c0.857-0.038,1.388,0.656,1.094,1.452c-0.117,0.316-0.293,0.621-0.496,0.892c-0.909,1.216-1.813,2.436-2.763,3.619
		c-2.055,2.562-4.604,4.519-7.532,5.982c-1.575,0.787-3.16,1.56-4.888,1.971C203.741,336.559,203.359,336.637,203.074,336.699z"/>
        <path fill="#494949" d="M264.149,336.689c-0.506-0.137-1.18-0.275-1.823-0.502c-4.971-1.756-9.238-4.505-12.383-8.83
		c-0.606-0.833-1.249-1.64-1.843-2.482c-0.221-0.313-0.418-0.674-0.512-1.041c-0.18-0.704,0.294-1.263,1.025-1.279
		c0.622-0.014,1.152,0.241,1.594,0.652c0.322,0.299,0.613,0.637,0.884,0.983c0.665,0.85,1.297,1.727,1.968,2.572
		c2.08,2.622,4.583,4.682,7.729,5.932c1.18,0.469,2.306,1.081,3.432,1.676c0.427,0.226,0.796,0.571,1.167,0.889
		c0.286,0.245,0.406,0.617,0.217,0.928c-0.131,0.217-0.445,0.347-0.703,0.453C264.731,336.711,264.516,336.671,264.149,336.689z"/>
        <path fill="#494949" d="M226.285,380.268c-0.164,1.209-0.291,2.425-0.5,3.626c-0.239,1.371-0.794,2.612-1.742,3.656
		c-0.434,0.478-0.919,0.89-1.553,1.056c-0.271,0.071-0.576,0.073-0.856,0.035c-0.345-0.047-0.585-0.461-0.464-0.782
		c0.102-0.27,0.242-0.533,0.408-0.769c1.09-1.559,1.622-3.323,1.911-5.176c0.128-0.819,0.219-1.644,0.352-2.463
		c0.062-0.383,0.163-0.764,0.287-1.132c0.155-0.458,0.528-0.688,0.982-0.785c0.532-0.115,1.044,0.159,1.098,0.687
		c0.069,0.674,0.017,1.359,0.017,2.04C226.245,380.263,226.265,380.265,226.285,380.268z"/>
        <path fill="#494949" d="M253.839,381.658c-0.018-1.117,0.455-1.757,1.396-1.892c0.48-0.069,0.86,0.16,1.001,0.642
		c0.096,0.327,0.184,0.666,0.207,1.004c0.092,1.376,0.447,2.694,0.821,4.012c0.132,0.466,0.204,0.956,0.236,1.44
		c0.023,0.347-0.138,0.661-0.441,0.882c-0.39,0.284-0.869,0.273-1.196-0.068c-0.168-0.175-0.313-0.376-0.442-0.582
		C254.557,385.715,253.865,383.321,253.839,381.658z"/>
        <path fill="#494949" d="M244.889,454.208c-0.907,0.001-1.416-0.378-1.585-1.046c-0.102-0.403,0.113-0.814,0.503-0.936
		c0.139-0.043,0.288-0.053,0.433-0.078c1.91-0.321,3.663-1.061,5.319-2.036c1.097-0.646,2.192-1.303,3.24-2.024
		c3.356-2.31,6.853-4.376,10.48-6.227c0.916-0.467,1.821-0.957,2.722-1.452c2.267-1.244,4.221-2.86,5.713-4.984
		c1.384-1.971,2.912-3.819,4.54-5.588c1.479-1.608,2.547-3.47,3.409-5.462c0.253-0.585,0.49-1.176,0.739-1.762
		c0.115-0.27,0.225-0.544,0.365-0.802c0.378-0.7,0.873-0.962,1.399-0.763c0.541,0.205,0.837,0.715,0.72,1.454
		c-0.361,2.286-0.914,4.517-2.098,6.541c-0.173,0.296-0.346,0.594-0.541,0.875c-1.59,2.297-3.207,4.575-4.774,6.887
		c-2.149,3.169-5.005,5.482-8.44,7.113c-1.593,0.756-3.207,1.47-4.779,2.265c-2.534,1.282-5.045,2.61-7.559,3.93
		c-1.344,0.706-2.67,1.447-4.013,2.153c-1.569,0.826-3.229,1.411-4.962,1.782C245.386,454.121,245.049,454.178,244.889,454.208z"/>
        <path fill="#494949" d="M221.995,454.19c-1.243-0.234-2.634-0.552-3.923-1.156c-1.683-0.789-3.366-1.596-4.975-2.525
		c-3.824-2.207-7.756-4.2-11.799-5.958c-4.549-1.979-8.142-5.002-10.755-9.229c-0.952-1.54-2.013-3.018-3.1-4.468
		c-1.814-2.419-2.78-5.158-3.234-8.108c-0.051-0.329-0.056-0.695,0.034-1.01c0.229-0.802,1.226-1.012,1.739-0.369
		c0.24,0.3,0.402,0.669,0.563,1.023c0.446,0.982,0.869,1.973,1.306,2.958c0.702,1.581,1.641,3.011,2.792,4.298
		c1.668,1.864,3.286,3.765,4.726,5.816c1.463,2.084,3.38,3.67,5.597,4.898c1.157,0.641,2.326,1.26,3.502,1.865
		c3.359,1.728,6.587,3.673,9.704,5.808c1.05,0.719,2.139,1.384,3.236,2.031c1.697,1.002,3.491,1.772,5.453,2.091
		c0.097,0.016,0.196,0.021,0.29,0.047c0.532,0.146,0.764,0.637,0.548,1.147C223.433,453.977,222.938,454.249,221.995,454.19z"/>
        <path fill="#494949" d="M264.625,424.809c0.262-2.477,0.817-4.804,1.81-7.004c0.501-1.11,1.108-2.176,1.729-3.226
		c0.241-0.408,0.625-0.747,0.994-1.059c0.358-0.303,0.798-0.34,1.242-0.138c0.459,0.209,0.675,0.599,0.532,1.071
		c-0.113,0.373-0.281,0.729-0.432,1.09c-1.249,2.983-2.316,6.022-2.855,9.226c-0.032,0.192-0.126,0.376-0.144,0.568
		c-0.075,0.783-0.595,1.199-1.436,1.098c-0.836-0.1-1.389-0.652-1.439-1.411C264.62,424.927,264.625,424.829,264.625,424.809z"/>
        <path fill="#494949" d="M202.432,424.885c-0.011,1.085-1.137,1.855-2.17,1.477c-0.345-0.126-0.555-0.38-0.632-0.748
		c-0.131-0.621-0.281-1.239-0.407-1.861c-0.578-2.841-1.556-5.551-2.671-8.217c-0.132-0.316-0.287-0.624-0.391-0.949
		c-0.249-0.772,0.415-1.495,1.212-1.29c0.315,0.081,0.634,0.274,0.873,0.5c0.316,0.298,0.588,0.657,0.822,1.027
		c1.891,2.988,2.94,6.268,3.339,9.769C202.418,424.69,202.424,424.788,202.432,424.885z"/>
        <path fill="#494949" d="M213.581,425.257c0.069,1.279-1.142,1.849-1.988,1.455c-0.19-0.089-0.368-0.338-0.429-0.549
		c-0.485-1.692-0.945-3.391-1.401-5.091c-0.049-0.184-0.057-0.39-0.034-0.58c0.092-0.763,1.048-1.208,1.682-0.77
		c0.233,0.161,0.445,0.389,0.595,0.631C212.988,421.925,213.31,423.708,213.581,425.257z"/>
        <path fill="#494949" d="M253.484,425.276c0.258-1.599,0.594-3.176,1.375-4.616c0.161-0.297,0.371-0.581,0.608-0.821
		c0.339-0.342,0.79-0.375,1.218-0.173c0.446,0.211,0.687,0.56,0.652,1.047c-0.025,0.338-0.111,0.676-0.201,1.005
		c-0.372,1.368-0.792,2.724-1.122,4.101c-0.223,0.932-0.684,1.076-1.34,0.994c-0.782-0.098-1.228-0.624-1.21-1.392
		C253.465,425.373,253.477,425.324,253.484,425.276z"/>
        <path fill="#494949" d="M236.426,190.288c-0.098-1.577-0.026-3.095,0.142-4.601c0.615-5.525,1.824-10.925,3.648-16.175
		c0.739-2.127,1.629-4.202,2.46-6.297c0.106-0.268,0.269-0.514,0.426-0.807c0.996-0.076,1.974,0.041,2.926,0.192
		c2.079,0.329,4.171,0.643,6.204,1.171c5.504,1.43,10.891,3.237,16.172,5.353c0.495,0.199,0.975,0.436,1.523,0.683
		c-0.016,0.313-0.01,0.596-0.047,0.874c-0.884,6.635-2.749,13.035-4.664,19.422c-0.647,2.159-1.337,4.306-2.035,6.45
		c-0.148,0.453-0.19,0.972-0.592,1.314C257.27,198.146,241.801,193.687,236.426,190.288z"/>
        </g>
</svg>
