<?xml version="1.0" encoding="utf-8"?>
<svg version="1.1" id="Layer_1" xmlns="http://www.w3.org/2000/svg"
     xmlns:xlink="http://www.w3.org/1999/xlink"
     x="0px" y="0px" viewBox="0 0 504 504"
     style="enable-background:new 0 0 122.88 109.03"
     xml:space="preserve">
    <style type="text/css">.st0{fill-rule:evenodd;clip-rule:evenodd;}</style>
        <g>
            <g>
                <g>
                    <path d="M156.048,253.066c-3.052-4.024-4.302-8.741-5.134-13.597c-0.555-2.359-0.833-4.856-1.249-7.215
				c-1.526-8.741-2.636-17.482-2.775-26.222c-0.139-7.77-0.139-15.539-0.278-23.309c0-8.741,0.971-17.343,2.22-25.945
				c1.248-9.712,2.775-19.424,4.994-28.997c0.278-1.387,0.555-2.775,0.416-4.162c0-1.387-0.416-2.775-0.694-4.162
				c15.4-3.052,30.662-5.134,46.479-4.023c2.775,4.856,5.411,5.966,9.989,4.578c1.526-0.555,2.22-1.942,1.388-3.469
				c-0.278-0.694-0.694-1.249-1.249-1.804c-1.388-1.665-3.191-2.636-5.272-3.191c-3.469-0.971-7.076-1.388-10.683-1.526
				c-9.851-0.277-19.702,0.555-29.414,1.804c-14.568,1.942-28.997,4.995-43.288,8.463c-2.636,0.694-5.272,1.388-8.047,1.804
				c-3.052,0.416-6.105,1.11-9.157,0.832c-0.694-1.387-1.387-2.914-2.913-3.607c-2.22-0.971-4.44-1.249-6.798-0.833
				c-1.943,0.416-3.052,1.804-3.052,3.885c0,1.526,0.555,2.775,1.665,3.746c1.388,1.248,3.052,1.942,4.717,2.497
				c4.024,1.11,8.047,1.11,12.071,0.555c5.689-0.694,11.377-1.665,17.066-3.33c4.162-1.249,8.463-2.22,12.764-3.33
				c0.833-0.139,1.804-0.694,2.498,0.416c-0.139,0.833-0.139,1.665-0.277,2.636c-3.052,14.43-4.302,29.136-5.272,43.843
				c-0.416,8.047-0.555,16.094-0.833,24.142c-0.416,13.181,0.278,26.361,2.498,39.403c0.971,5.827,2.636,11.516,5.549,16.788
				c0.971,1.804,2.081,3.607,3.747,4.856c2.358,1.942,4.994,2.22,7.631,1.387c1.249-0.416,1.526-1.387,0.833-2.498
				C156.186,253.344,156.048,253.205,156.048,253.066z"/>
                        <path d="M210.573,170.097c-3.469-1.11-6.798-0.832-9.99,1.249c-4.439,2.775-8.185,6.382-10.961,10.822
				c-3.746,6.105-7.492,12.348-10.683,18.869c-0.277,0.694-0.416,1.526-1.388,1.665c-0.139-0.416-0.277-0.694-0.277-1.11
				c0.139-9.573,0.971-19.147,2.913-28.442c0.278-0.971,0.416-1.804,0.416-2.775c0.139-1.526-0.416-2.22-1.942-2.775
				c-3.469-0.971-6.799,0-9.019,2.914c-1.526,1.942-2.498,4.162-3.191,6.66c-2.081,7.215-2.775,14.707-2.636,22.199
				c0.278,11.377,1.665,22.615,3.469,33.992c0.416,2.081,1.11,2.914,3.191,3.191c1.11,0.139,2.358,0.139,3.468,0
				c2.081-0.416,2.498-1.11,2.637-3.191c0.277-2.497,0.416-4.995,0.832-7.353c2.636-14.984,8.047-28.859,16.788-41.346
				c2.498-3.33,5.134-6.521,8.325-9.157c0.833-0.555,1.665-0.971,2.498-1.526c0.694,0.832,0.277,1.249,0.139,1.665
				c-0.555,2.22,0,3.33,2.081,3.607c0.833,0.139,1.804,0.139,2.636,0c1.943-0.277,2.775-1.387,3.052-3.468
				c0-0.694-0.139-1.526,0-2.359C213.348,171.485,212.377,170.652,210.573,170.097z"/>
                        <path d="M228.608,175.647c-0.694-0.277-1.388-0.416-2.22-0.555c-3.469-0.555-5.689,0.832-6.937,4.024
				c-0.278,0.694-0.555,1.526-0.694,2.22c-1.11,5.827-2.22,11.655-2.358,17.62c0.416,3.607,0.555,7.215,0.971,10.822
				c0.832,5.966,1.803,11.793,3.885,17.343c0.555,1.526,1.11,2.914,1.943,4.301c0.971,1.942,2.913,2.775,4.994,3.052
				c1.388,0.278,2.636-0.832,2.636-2.22c0-0.694-0.139-1.526-0.416-2.22c-2.081-6.799-2.498-13.736-2.081-20.673
				c0.277-8.741,1.387-17.204,2.636-25.806c0.277-1.249,0.416-2.636,0.416-3.885C231.522,177.451,230.689,176.341,228.608,175.647z"
                        />
                        <path d="M230.828,153.725c-1.248-0.416-2.497-0.555-3.052-0.694c-3.885,0-5.273,1.11-5.55,4.162c-0.139,1.942,0,3.885,0,5.827
				c0,0.971,0.694,1.665,1.526,2.22c1.248,0.555,2.636,0.971,4.024,0.694c1.526-0.139,2.636-0.832,3.191-2.498
				c0.277-1.387,0.832-2.636,1.387-4.023c0.139-0.555,0.416-1.11,0.555-1.804C233.325,155.529,232.77,154.419,230.828,153.725z"/>
                        <path d="M373.037,181.89c-1.942-0.555-3.33,0-4.162,1.943c-2.22,4.717-4.439,9.573-6.659,14.429
				c-2.636,6.243-5.411,12.21-8.88,18.037c-1.804,3.191-4.024,6.105-6.798,8.463c-2.498,2.081-4.024,1.804-5.411-1.248
				c-0.971-2.22-1.665-4.579-2.22-6.937c-1.11-3.885-2.498-7.353-6.243-9.712c0.694-0.694,1.248-1.11,1.804-1.665
				c3.33-2.775,6.104-5.966,8.74-9.296c2.914-3.885,4.302-8.186,4.995-12.903c0.139-0.971,0.139-1.804,0-2.775
				c-0.416-4.717-3.607-7.631-8.463-7.909c-3.747-0.139-6.938,1.11-9.296,4.024c-1.943,2.636-3.746,5.272-5.272,8.186
				c-4.717,8.88-8.88,18.037-11.932,27.749c-0.278,0.694-0.139,1.803-1.665,2.081c0-0.971,0-1.942,0-2.775
				c0.139-10.267,0.832-20.395,2.498-30.524c0.277-1.526,0.832-2.636,1.665-3.885c2.22-3.33,4.717-6.521,6.798-9.851
				c9.851-15.955,18.175-32.604,24.558-50.225c1.526-4.162,2.636-8.602,3.885-12.903c0.416-1.665,0.555-3.33,0.555-4.995
				c0-2.914-1.11-4.301-4.023-4.718c-1.388-0.277-2.914-0.277-4.302-0.139c-4.023,0.555-7.492,2.775-10.544,5.411
				c-4.024,3.607-7.492,7.492-10.406,11.932c-6.105,9.573-11.099,19.563-14.429,30.385c-3.747,12.348-5.689,24.974-6.798,37.738
				c-0.219,2.231-0.384,4.461-0.507,6.692c-3.238,6.408-6.848,12.687-10.592,18.837c-3.191,5.411-6.937,10.406-11.099,14.984
				c-1.665,1.943-3.469,3.746-5.411,5.55c-1.387,1.248-3.191,2.22-5.134,2.775c-3.191,0.832-4.717,0.416-6.521-2.359
				c-1.665-2.22-2.498-4.856-3.191-7.492c-1.249-5.133-1.526-10.267-0.833-15.4c0.971-9.296,3.469-18.037,8.463-25.945
				c0.694-1.11,1.388-2.359,3.192-3.607c0.277,3.607,0.139,6.66-0.416,9.573c-0.139,1.249-0.278,2.498-0.278,3.746
				c-0.139,1.249,0.971,1.943,2.081,1.665c0.694-0.277,1.526-0.555,1.943-1.11c1.11-1.11,2.081-2.359,2.636-3.746
				c1.248-2.914,2.22-5.827,3.052-8.741c0.277-1.526,0.416-3.191,0.277-4.717c-0.277-2.636-1.665-4.44-4.44-5.134
				c-2.081-0.555-4.162-0.694-6.243-0.277c-4.162,0.694-7.908,2.497-10.822,5.55c-2.081,1.943-4.024,4.162-5.411,6.521
				c-6.66,11.516-9.157,23.725-6.382,36.906c0.971,4.717,2.913,9.157,5.966,12.903c3.191,4.023,7.215,6.105,12.487,6.105
				c7.353,0.139,13.597-2.359,18.591-8.047c0.833-0.832,1.665-1.942,2.497-2.914c4.856-6.105,9.296-12.764,12.903-19.701
				c0.822-1.488,1.645-2.989,2.467-4.497c0.163,9.484,1.161,18.948,2.942,28.36c0.416,2.636,1.11,5.272,1.803,7.908
				c0.694,2.498,2.22,3.469,4.856,3.33c0.555-0.139,1.248-0.416,1.803-0.555c0.833-0.277,1.388-0.971,1.388-1.804
				c0-0.694-0.278-1.526-0.278-2.22c0-1.249-0.139-2.359,0.278-3.469c1.248-5.133,2.775-10.267,4.162-15.401
				c0.416-1.11,0.832-2.359,1.248-3.469c1.803,0,3.191,0.139,4.579,0c1.526,0,2.498,0.694,2.913,1.943
				c0.694,1.665,1.388,3.469,2.081,5.133c0.694,1.804,1.388,3.607,2.359,5.272c1.943,3.33,4.856,5.827,8.741,6.382
				c5.966,0.832,10.822-0.555,14.29-5.827c0.694-0.971,1.526-2.081,2.081-3.191c2.498-4.856,5.134-9.573,7.353-14.568
				c3.33-7.076,6.382-14.43,10.406-21.228c0.139-0.277,0.277-0.694,0.416-0.971C374.008,182.862,373.592,182.029,373.037,181.89z
				 M317.263,162.744c1.11-5.134,2.22-10.128,3.33-15.123c2.497-10.544,6.66-20.395,11.099-30.107
				c2.914-6.382,7.353-11.655,11.793-16.788c0.277-0.277,0.694-0.416,1.387-0.971c0.556,2.359,0.278,4.301-0.139,6.105
				c-1.11,5.689-2.913,10.961-4.994,16.372c-5.689,14.707-13.042,28.581-21.367,42.039c-0.416,0.694-0.833,1.248-1.804,2.497
				C316.846,164.825,316.985,163.854,317.263,162.744z M322.257,202.563c-0.139-0.555-0.277-0.971-0.139-1.248
				c2.498-6.105,5.134-12.071,8.741-17.621c1.387-1.942,3.052-3.885,4.578-5.689c0.416-0.416,0.971-0.555,1.665-0.971
				c0.694,1.665,0.277,3.052-0.139,4.301c-1.387,4.301-3.33,8.463-6.104,12.071C328.362,196.597,325.587,199.65,322.257,202.563z"/>
                </g>
                    <g>
                    <path d="M148.571,406.392c-3.052-4.024-4.302-8.741-5.134-13.597c-0.555-2.359-0.833-4.856-1.249-7.215
				c-1.526-8.741-2.636-17.482-2.775-26.222c-0.139-7.77-0.139-15.539-0.278-23.309c0-8.741,0.971-17.343,2.22-25.945
				c1.248-9.712,2.775-19.424,4.994-28.997c0.278-1.387,0.555-2.775,0.416-4.162c0-1.387-0.416-2.775-0.694-4.162
				c15.4-3.052,30.662-5.134,46.479-4.023c2.775,4.856,5.411,5.966,9.989,4.578c1.526-0.555,2.22-1.942,1.388-3.469
				c-0.278-0.694-0.694-1.249-1.249-1.804c-1.388-1.665-3.191-2.636-5.272-3.191c-3.469-0.971-7.076-1.388-10.683-1.526
				c-9.851-0.277-19.702,0.555-29.414,1.804c-14.568,1.942-28.997,4.995-43.288,8.463c-2.636,0.694-5.272,1.388-8.047,1.804
				c-3.052,0.416-6.105,1.11-9.157,0.832c-0.694-1.387-1.387-2.914-2.913-3.607c-2.22-0.971-4.44-1.249-6.798-0.833
				c-1.943,0.416-3.052,1.804-3.052,3.885c0,1.526,0.555,2.775,1.665,3.746c1.388,1.248,3.052,1.942,4.717,2.497
				c4.024,1.11,8.047,1.11,12.071,0.555c5.689-0.694,11.377-1.665,17.066-3.33c4.162-1.249,8.463-2.22,12.764-3.33
				c0.833-0.139,1.804-0.694,2.498,0.416c-0.139,0.833-0.139,1.665-0.277,2.636c-3.052,14.43-4.301,29.136-5.272,43.843
				c-0.416,8.047-0.555,16.094-0.833,24.142c-0.416,13.181,0.278,26.361,2.498,39.403c0.971,5.827,2.636,11.516,5.549,16.788
				c0.971,1.804,2.081,3.607,3.747,4.856c2.358,1.942,4.994,2.22,7.631,1.387c1.249-0.416,1.526-1.387,0.833-2.498
				C148.71,406.669,148.571,406.53,148.571,406.392z"/>
                            <path d="M203.096,323.423c-3.469-1.11-6.798-0.832-9.99,1.249c-4.439,2.775-8.185,6.382-10.961,10.822
				c-3.746,6.105-7.492,12.348-10.683,18.869c-0.277,0.694-0.416,1.526-1.388,1.665c-0.139-0.416-0.277-0.694-0.277-1.11
				c0.139-9.573,0.971-19.147,2.913-28.442c0.278-0.971,0.416-1.804,0.416-2.775c0.139-1.526-0.416-2.22-1.942-2.775
				c-3.469-0.971-6.799,0-9.019,2.914c-1.526,1.942-2.498,4.162-3.191,6.66c-2.081,7.215-2.775,14.707-2.636,22.199
				c0.278,11.377,1.665,22.615,3.469,33.992c0.416,2.081,1.11,2.914,3.191,3.191c1.11,0.139,2.358,0.139,3.468,0
				c2.081-0.416,2.498-1.11,2.637-3.191c0.277-2.497,0.416-4.995,0.832-7.353c2.636-14.984,8.047-28.859,16.788-41.345
				c2.498-3.33,5.134-6.521,8.325-9.157c0.833-0.555,1.665-0.971,2.498-1.526c0.694,0.832,0.277,1.249,0.139,1.665
				c-0.555,2.22,0,3.33,2.081,3.607c0.833,0.139,1.804,0.139,2.636,0c1.943-0.277,2.775-1.387,3.052-3.469
				c0-0.694-0.139-1.526,0-2.359C205.871,324.81,204.9,323.978,203.096,323.423z"/>
                            <path d="M437.986,281.523c-0.416-0.971-1.248-2.081-2.081-2.636c-1.803-1.11-3.746-1.942-5.689-2.636
				c-3.607-1.11-7.215-1.665-11.099-1.665c-7.215,0-14.43,0.139-21.644,0.832c-8.88,0.971-17.759,1.665-26.639,2.914
				c-6.937,1.11-12.348,2.22-19.285,3.052c-0.694,0.139-1.248,0.277-2.497,0.277c0.555-2.359,1.11-4.856,1.526-7.076
				c0.277-1.804,0.555-3.746,0.555-5.689c0.139-1.804-2.22-3.052-4.024-3.191s-5.134,0.555-5.966,2.22
				c-0.556,1.387-1.249,2.914-1.665,4.162c-1.11,3.885-2.636,10.406-3.052,11.1c-10.961,1.942-21.228,2.636-32.189,2.497
				c-0.694,0-1.388-0.139-1.943-0.139c-1.943-0.139-3.191-0.971-3.468-3.052c-0.139-0.694-0.556-1.665-1.249-2.22
				c-1.526-1.388-4.994-1.249-6.521,0.139c-1.804,1.388-2.22,4.162-0.694,5.827c0.833,0.832,1.804,1.526,2.775,2.081
				c2.081,1.11,4.301,1.665,6.659,1.942c4.717,0.694,9.435,0.694,14.291,0.416c6.382-0.416,12.626-0.833,18.869-1.804
				c0.971-0.277,1.248-0.277,2.358-0.416c-0.694,3.746-1.665,8.464-2.636,12.348c-3.165,12.662-4.699,25.574-5.559,38.618
				c-0.237,0.427-0.468,0.867-0.683,1.34c-3.33,7.076-7.215,13.875-11.932,20.257c-1.803,2.359-3.885,4.579-5.966,6.66
				c-1.388,1.388-3.191,2.497-5.411,2.914c-2.497-3.052-3.885-6.521-4.301-10.267c-0.277-3.33-0.416-6.798-0.694-10.128
				c0-0.833,0-1.804,0-2.636c-0.278-1.665-1.11-2.636-2.636-3.191c-0.833-0.277-1.804-0.694-3.052-0.971
				c0.555-1.11,0.971-1.803,1.388-2.636c3.468-7.769-2.498-16.788-9.296-17.62c-7.631-0.971-14.152,0.971-19.702,5.966
				c-3.469,3.052-6.105,6.66-7.77,10.961c-0.286,0.7-0.563,1.401-0.834,2.101c-5.512,6.727-11.492,13.047-17.48,19.265
				c-2.636,2.636-5.55,5.133-8.463,7.631c-1.249,1.11-2.775,2.081-4.44,2.914c-3.607,1.942-5.134,1.387-6.521-2.359
				c-1.526-4.023-1.665-8.186-1.11-12.626c2.775-0.416,5.272-0.971,7.214-2.359c5.966-4.301,10.129-9.712,11.655-16.927
				c0.277-0.832,0.416-1.665,0.416-2.636c0.139-3.746-1.942-6.937-5.549-7.77c-6.66-1.665-12.626-0.555-17.759,4.301
				c-3.052,2.775-5.134,6.382-6.66,10.267c-2.775,8.186-2.636,16.233,0,24.419c0.416,1.526,1.248,3.052,2.081,4.579
				c2.359,3.746,5.827,5.688,10.267,5.966c4.994,0.416,9.435-1.249,13.181-4.579c3.191-2.914,6.382-6.105,9.435-9.296
				c3.596-3.913,7.271-7.987,10.905-12.038c-1.492,5.54-2.264,11.091-1.887,16.755c0.139,2.497,0.555,4.856,1.526,7.076
				c1.11,2.775,2.913,4.717,5.688,5.55c5.689,1.526,11.1,1.249,15.401-3.33c1.526-1.526,2.913-3.33,4.162-5.134
				c2.358-3.191,4.579-6.521,6.937-9.851c0.416-0.555,0.971-0.833,1.388-1.249c1.803,3.052,3.33,6.105,5.272,8.88
				c2.22,3.33,5.55,4.856,9.573,4.995c5.411,0.139,9.851-1.804,13.597-5.55c2.497-2.498,4.856-5.134,6.521-8.047
				c1.853-3.026,3.621-6.08,5.357-9.136c0.202,3.996,0.686,7.973,1.578,11.911c0.971,4.44,2.636,9.018,4.995,12.903
				c3.33,5.134,10.406,6.66,15.817,2.636c4.44-3.191,9.712-9.435,14.013-19.84c-0.971-0.971-1.803-0.694-2.497,0.139
				c-3.33,6.105-7.631,10.961-9.018,12.764c-2.081,2.775-5.411,5.827-7.631,5.411c-0.971-0.139-1.942-0.971-2.497-2.497
				c-0.971-2.359-1.804-4.579-2.359-7.076c-1.11-4.579-1.526-9.435-1.665-14.152c-0.139-5.688,0.139-11.377,0.833-17.065
				c0.832-6.937,1.665-13.874,2.913-20.673c1.526-8.325,3.607-16.51,5.272-24.697c0.416-1.526,0.694-3.052,1.11-4.578
				c0.971-0.277,1.526-0.416,2.081-0.416c1.526-0.416,3.191-0.694,4.856-0.971c18.591-3.33,35.934-5.966,54.804-6.937
				c3.468-0.139,6.937-0.139,10.405,0c2.081,0,4.162,0.555,6.105,0.971c1.388,0.277,2.497,0.971,3.052,2.22
				c0.416,1.526,1.248,2.498,2.775,2.914c1.388,0.277,2.775,0.555,4.302,0.139C437.847,284.575,438.679,283.049,437.986,281.523z
				 M228.207,333.135c0.416,0.416,0.832,0.832,1.11,1.387c0.832,1.943,1.11,4.024,0.555,6.105
				c-1.388,5.272-4.162,9.573-9.018,12.487c-0.416,0.277-1.11,0.277-1.804,0.555C219.05,347.148,223.628,336.881,228.207,333.135z
				 M283.704,351.311c-4.301,5.966-6.937,10.822-11.238,16.788c-1.11,1.526-4.579,6.243-6.243,5.411
				c-2.22-2.636-2.497-7.076-2.359-10.683c0.416-10.822,2.914-17.065,5.55-22.199c3.052-6.66,7.631-11.516,11.099-10.267
				c3.746,2.081,5.689,4.301,7.631,13.874C286.895,346.038,284.953,349.507,283.704,351.311z"/>
                </g>
                    <g>
                    <path d="M241.19,258.326c-0.704-1.71-1.911-2.967-3.722-3.571c-1.358-0.402-2.716-0.905-4.074-1.408
				c-2.163-0.805-4.124-0.452-5.984,0.905c-1.006,0.754-1.811,1.71-2.515,2.766c-0.956,1.509-1.71,3.118-2.414,4.778
				c-1.006,2.565-1.71,5.18-2.263,7.896c-0.754,3.47-1.409,6.94-1.459,10.511c0,2.917,0.302,5.834,0.704,8.751
				c0.503,3.319,1.509,6.438,3.018,9.405c1.106,2.163,2.666,4.023,4.526,5.532c1.006,0.805,2.062,1.308,3.269,1.458
				c2.364,0.252,4.577-0.251,6.488-1.71c1.961-1.559,3.521-3.42,4.526-5.733c2.716-6.337,3.923-13.026,4.024-18.91
				c-0.101-6.287-0.704-11.517-2.515-16.546C242.296,261.092,241.794,259.683,241.19,258.326z M239.983,281.762
				c-0.352,4.778-1.006,9.455-2.716,13.931c-0.754,1.861-1.509,3.621-2.816,5.13c-0.956,1.107-1.458,1.458-2.766,2.012
				c-1.408-1.006-2.464-2.313-3.319-3.872c-1.107-2.012-1.861-4.174-2.414-6.387c-1.358-5.733-1.609-11.567-0.452-17.351
				c0.704-3.37,1.559-6.689,2.464-10.008c0.704-2.716,1.911-5.13,3.42-7.493c0.301-0.453,0.704-0.905,1.006-1.358
				c1.861,0.302,2.917,1.408,3.571,2.967c2.012,4.627,3.269,9.505,3.772,14.534C239.932,276.532,240.134,279.147,239.983,281.762z"
                    />
                            <path d="M269.404,292.173c-0.603-2.012-1.156-4.023-1.71-6.035c-0.453-1.66-0.804-3.269-1.207-4.929
				c0.754-0.654,1.408-1.157,2.012-1.71c6.035-5.432,8.499-12.12,7.946-19.715c-0.302-3.822-3.571-7.494-7.946-8.449
				c-5.029-1.106-9.556-0.302-13.73,2.364c-0.604,0.402-1.157,0.755-2.012,0.805c-1.056,0.05-1.609,0.654-1.811,1.609
				c-0.151,0.804-0.503,1.559-1.056,2.263c-0.252,0.352-0.453,0.805-0.604,1.257c-0.402,1.107-0.302,2.062,0.905,2.766
				c0.051,0,0.101,0.151,0.151,0.302c0,1.76,0.05,3.571,0,5.432c-0.151,4.275-0.453,8.6-0.553,12.925
				c-0.151,5.834-0.151,11.618-0.252,17.452c0,1.106,0.101,2.213,0.101,3.269c0,0.603,0.302,1.006,0.855,1.257
				c1.056,0.503,2.213,0.553,3.37,0.302c0.603-0.151,0.955-0.553,0.955-1.157c0.051-1.157,0.101-2.263,0.101-3.42
				c0.051-3.772,0.101-7.493,0.201-11.215c0-0.302,0.101-0.603,0.201-0.955c2.213,0.151,4.074-0.754,5.884-1.76
				c0.201,0.352,0.402,0.603,0.503,0.905c0.503,1.559,0.956,3.168,1.458,4.778c1.207,4.074,2.917,7.997,4.426,11.97
				c0.201,0.603,0.654,0.956,1.257,1.207c0.855,0.352,1.761,0.453,2.716,0.352c1.509-0.101,1.861-0.603,1.307-1.911
				C271.467,298.862,270.31,295.542,269.404,292.173z M260.201,279.901c-0.956,0.805-3.118,2.414-5.029,3.068
				c0.704-9.053,0.603-17.753,1.358-26.555c1.006-1.006,2.213-1.911,3.672-2.414c1.056-0.402,2.112-0.704,3.269-0.956
				c2.163-0.503,3.772,0.151,4.979,1.861c0.704,1.056,1.609,2.666,1.71,3.923c0.101,1.66,0.503,5.482-0.955,10.159
				C267.594,273.464,263.973,276.783,260.201,279.901z"/>
                </g>
            </g>
                <g>
                <path fill="#D4A05B" d="M249.896,117.005c0,0.915,4.639,0.541,9.183,5.085c4.713,4.714,3.646,12.157,4.756,12.157
			c1.11,0,0.042-7.443,4.756-12.157c4.543-4.544,9.183-4.17,9.183-5.085c0-0.915-4.639-0.541-9.183-5.085
			c-4.713-4.714-3.646-12.157-4.756-12.157c-1.11,0-0.042,7.443-4.756,12.157C254.535,116.464,249.896,116.09,249.896,117.005z"/>
                        <path fill="#D4A05B" d="M103.905,245.732c0,0.508,2.577,0.301,5.101,2.824c2.618,2.618,2.025,6.753,2.642,6.753
			c0.616,0,0.023-4.134,2.642-6.753c2.524-2.524,5.101-2.316,5.101-2.824s-2.577-0.301-5.101-2.824
			c-2.618-2.618-2.025-6.753-2.642-6.753c-0.616,0-0.023,4.134-2.642,6.753C106.481,245.431,103.905,245.223,103.905,245.732z"/>
                        <path fill="#D4A05B" d="M301.307,255.309c0,0.508,2.577,0.301,5.1,2.824c2.618,2.618,2.025,6.753,2.642,6.753
			c0.616,0,0.023-4.134,2.642-6.753c2.524-2.524,5.101-2.316,5.101-2.824s-2.577-0.301-5.101-2.824
			c-2.618-2.618-2.025-6.753-2.642-6.753c-0.616,0-0.023,4.134-2.642,6.753C303.884,255.008,301.307,254.8,301.307,255.309z"/>
                        <path fill="#D4A05B" d="M366.077,316.882c0,0.508,2.577,0.301,5.1,2.824c2.618,2.618,2.025,6.753,2.642,6.753
			c0.616,0,0.023-4.134,2.642-6.753c2.524-2.524,5.101-2.316,5.101-2.824c0-0.508-2.577-0.301-5.101-2.824
			c-2.618-2.618-2.025-6.753-2.642-6.753c-0.616,0-0.023,4.134-2.642,6.753C368.654,316.581,366.077,316.373,366.077,316.882z"/>
                        <path fill="#D4A05B" d="M170.938,297.314c0,0.656,3.328,0.388,6.587,3.647c3.381,3.381,2.615,8.72,3.411,8.72
			s0.03-5.339,3.411-8.72c3.259-3.259,6.587-2.991,6.587-3.647s-3.328-0.388-6.587-3.647c-3.381-3.381-2.615-8.72-3.411-8.72
			s-0.03,5.339-3.411,8.72C174.266,296.926,170.938,296.658,170.938,297.314z"/>
                        <path fill="#D4A05B" d="M363.821,242.308c0,0.656,3.328,0.388,6.587,3.647c3.381,3.381,2.615,8.72,3.411,8.72
			c0.796,0,0.03-5.339,3.411-8.72c3.259-3.259,6.587-2.991,6.587-3.647s-3.328-0.388-6.587-3.647
			c-3.381-3.381-2.615-8.72-3.411-8.72c-0.796,0-0.03,5.339-3.411,8.72C367.149,241.92,363.821,241.652,363.821,242.308z"/>
                        <path fill="#D4A05B" d="M101.648,189.799c0,0.656,3.328,0.388,6.587,3.647c3.381,3.381,2.615,8.72,3.411,8.72
			c0.796,0,0.03-5.339,3.411-8.72c3.259-3.259,6.587-2.991,6.587-3.647c0-0.656-3.328-0.388-6.587-3.647
			c-3.381-3.381-2.615-8.72-3.411-8.72c-0.796,0-0.03,5.339-3.411,8.72C104.976,189.411,101.648,189.142,101.648,189.799z"/>
            </g>
        </g>
</svg>
