<?xml version="1.0" encoding="utf-8"?>
<svg version="1.1" id="Layer_1" xmlns="http://www.w3.org/2000/svg"
     xmlns:xlink="http://www.w3.org/1999/xlink"
     x="0px" y="0px" viewBox="0 0 504 504"

     xml:space="preserve">
    <style type="text/css">.st0{fill-rule:evenodd;clip-rule:evenodd;}</style>
    <g>
            <g>
                <g>
                    <g>
                        <path fill="#CEC8C8" d="M107.506,249.569c0.139-2.459,0.271-4.919,0.426-7.377c0.027-0.422,0.109-0.855,0.25-1.252
					c0.563-1.579,1.688-2.309,3.351-2.101c2.665,0.334,5.25,1.036,7.795,1.874c7.469,2.46,14.139,6.358,20.207,11.319
					c5.004,4.091,9.429,8.743,13.247,13.953c3.747,5.112,6.934,10.557,9.561,16.335c3.258,7.167,5.45,14.643,6.633,22.415
					c0.322,2.116,0.523,4.254,0.688,6.389c0.175,2.276-0.433,3.2-2.553,4.077c-3.83,1.584-7.45,3.533-10.703,6.121
					c-1.299,1.034-2.554,2.124-3.835,3.18c-0.496,0.409-0.998,0.811-1.52,1.186c-1.214,0.874-2.491,0.886-3.782,0.189
					c-0.517-0.279-1.006-0.614-1.494-0.942c-7.009-4.701-12.973-10.51-18.139-17.157c-5.326-6.853-9.543-14.345-12.858-22.359
					c-2.382-5.76-4.184-11.697-5.389-17.805C108.218,261.663,107.526,255.654,107.506,249.569z"/>
                        <path fill="#CEC8C8" d="M99.486,225.524c-0.345,0.616-0.357,1.268-0.417,1.896c-0.646,6.735-0.686,13.484-0.291,20.231
					c0.379,6.474,1.22,12.897,2.382,19.281c2.264,12.434,5.888,24.449,10.964,36.023c2.824,6.439,6.126,12.621,10.091,18.436
					c2.632,3.86,5.543,7.493,8.881,10.772c0.191,0.188,0.387,0.372,0.56,0.576c0.957,1.132,1.038,2.471,0.223,3.529
					c-0.832,1.08-2.356,1.448-3.617,0.835c-0.479-0.233-0.926-0.537-1.368-0.839c-3.246-2.214-6.149-4.826-8.841-7.679
					c-4.096-4.341-7.627-9.117-10.811-14.155c-5.604-8.865-10.001-18.317-13.668-28.124c-3.724-9.958-6.448-20.19-8.331-30.644
					c-1.877-10.418-2.764-20.918-2.308-31.509c0.198-4.609,0.73-9.181,1.649-13.705c0.117-0.575,0.302-1.138,0.482-1.697
					c0.484-1.499,1.564-2.315,3.095-2.374c1.113-0.043,2.246,0.073,3.351,0.242c10.682,1.633,20.746,5.163,30.371,10.004
					c12.69,6.384,24.007,14.687,34.178,24.575c7.558,7.348,14.279,15.398,19.964,24.281c5.446,8.51,10.036,17.454,13.11,27.113
					c0.876,2.752,1.561,5.564,2.306,8.357c0.15,0.564,0.236,1.162,0.237,1.745c0.002,1.224-0.778,2.212-1.881,2.499
					c-1.177,0.307-2.305-0.068-2.934-1.115c-0.437-0.728-0.762-1.533-1.061-2.332c-2.185-5.83-4.804-11.457-7.936-16.836
					c-3.266-5.609-6.926-10.951-10.988-16.019c-12.269-15.306-27.276-27.15-44.977-35.578c-6.638-3.161-13.537-5.622-20.675-7.398
					C100.656,225.773,100.081,225.657,99.486,225.524z"/>
                    </g>
                    <g>
                        <path fill="#CEC8C8" d="M396.363,249.699c-0.098,15.101-3.629,29.373-10.432,42.842c-4.852,9.607-11.088,18.188-19.011,25.507
					c-2.879,2.659-5.95,5.076-9.23,7.222c-2.365,1.547-3.464,1.506-5.64-0.237c-1.087-0.87-2.142-1.781-3.206-2.681
					c-3.422-2.896-7.226-5.16-11.359-6.883c-0.494-0.206-1.001-0.39-1.467-0.648c-1.115-0.616-1.794-1.543-1.713-2.861
					c0.112-1.817,0.212-3.639,0.444-5.443c0.911-7.098,2.675-13.984,5.353-20.624c2.554-6.332,5.787-12.297,9.68-17.914
					c5.211-7.52,11.498-13.968,18.99-19.221c5.837-4.093,12.153-7.195,19.081-8.974c1.398-0.359,2.814-0.67,4.24-0.888
					c2.29-0.349,3.702,0.765,3.947,3.098c0.167,1.597,0.243,3.205,0.318,4.81C396.4,247.768,396.363,248.734,396.363,249.699z"/>
                        <path fill="#CEC8C8" d="M404.644,225.523c-1.996,0.335-3.787,0.868-5.581,1.386c-15.012,4.331-28.538,11.54-40.842,21.11
					c-6.234,4.849-11.984,10.222-17.192,16.159c-5.027,5.73-9.524,11.853-13.503,18.362c-3.784,6.191-6.911,12.691-9.455,19.479
					c-0.225,0.6-0.469,1.2-0.778,1.76c-0.714,1.297-1.939,1.799-3.243,1.383c-1.227-0.391-1.984-1.663-1.748-3.068
					c0.169-1.002,0.42-1.99,0.66-2.979c2.098-8.642,5.483-16.778,9.669-24.599c7.487-13.987,17.286-26.157,28.996-36.812
					c9.404-8.556,19.736-15.777,31.142-21.424c7.754-3.839,15.809-6.852,24.287-8.651c2.353-0.499,4.743-0.828,7.116-1.232
					c0.211-0.036,0.425-0.064,0.639-0.072c2.711-0.096,3.796,1.021,4.284,2.996c0.423,1.713,0.753,3.455,1.015,5.2
					c1.055,7.02,1.262,14.085,0.916,21.162c-0.495,10.139-2.049,20.128-4.393,30.001c-3.256,13.714-8.037,26.866-14.528,39.382
					c-3.685,7.104-7.937,13.846-13.073,20.006c-3.272,3.923-6.857,7.522-11.009,10.523c-0.694,0.501-1.403,0.989-2.144,1.414
					c-1.014,0.582-2.058,0.531-3.047-0.084c-1.326-0.825-1.684-2.487-0.823-3.787c0.205-0.309,0.466-0.588,0.733-0.849
					c5.834-5.719,10.364-12.395,14.274-19.518c4.76-8.672,8.383-17.817,11.289-27.26c1.814-5.892,3.285-11.868,4.402-17.927
					c1.185-6.429,2.029-12.904,2.447-19.436c0.315-4.927,0.341-9.853,0.169-14.78C405.235,230.809,405.052,228.245,404.644,225.523z
					"/>
                    </g>
                </g>
                <g>
                    <path fill="#1A1A1A" d="M155.524,395.464c-0.267-1.35-0.542-2.656-0.777-3.969c-0.094-0.523-0.158-1.066-0.129-1.593
				c0.039-0.711,0.485-1.176,1.151-1.396c0.68-0.224,1.443,0.033,1.828,0.661c0.248,0.405,0.4,0.872,0.566,1.322
				c2.046,5.566,5.117,10.477,9.367,14.627c5.515,5.385,12.085,8.81,19.621,10.333c10.834,2.188,21.072,0.292,30.822-4.703
				c0.905-0.464,1.774-0.998,2.68-1.458c0.873-0.443,1.58-0.34,2.22,0.249c0.679,0.625,0.791,1.572,0.229,2.316
				c-0.255,0.338-0.58,0.629-0.898,0.914c-4.087,3.682-8.596,6.731-13.591,9.048c-0.34,0.158-0.681,0.313-1.019,0.474
				c-0.046,0.022-0.08,0.07-0.217,0.195c-0.111,0.344-0.263,0.797-0.403,1.253c-0.711,2.323-1.721,4.507-3.16,6.466
				c-0.63,0.858-1.383,1.63-2.11,2.414c-0.374,0.402-0.866,0.62-1.432,0.634c-1.132,0.028-1.947-0.891-1.694-2
				c0.104-0.454,0.379-0.874,0.604-1.295c0.681-1.274,1.39-2.534,2.058-3.814c0.244-0.468,0.404-0.979,0.653-1.594
				c-0.349-0.017-0.598-0.077-0.827-0.034c-1.683,0.311-3.357,0.669-5.044,0.953c-0.594,0.1-0.957,0.368-1.225,0.888
				c-0.96,1.868-2.159,3.573-3.567,5.133c-1.485,1.646-3.18,3.031-5.151,4.051c-0.564,0.292-1.181,0.512-1.799,0.661
				c-0.829,0.2-1.566-0.144-1.941-0.79c-0.438-0.756-0.355-1.526,0.273-2.212c0.252-0.275,0.551-0.508,0.833-0.754
				c1.942-1.69,3.235-3.833,4.282-6.145c0.059-0.131,0.035-0.299,0.052-0.469c-2.527-0.523-5.029-1.04-7.63-1.579
				c-0.261,0.289-0.584,0.638-0.898,0.996c-3.898,4.439-8.8,7.083-14.585,8.121c-0.784,0.141-1.601,0.167-2.4,0.146
				c-0.886-0.024-1.454-0.519-1.646-1.271c-0.19-0.743,0.099-1.473,0.829-1.919c0.454-0.278,0.953-0.486,1.44-0.707
				c2.352-1.063,4.575-2.343,6.612-3.932c1.568-1.223,2.989-2.589,4.103-4.37c-1.057-0.959-2.304-1.57-3.426-2.43
				c-0.303,0.162-0.597,0.285-0.854,0.462c-3.774,2.608-7.987,4.072-12.482,4.809c-2.497,0.41-5.007,0.537-7.526,0.31
				c-0.683-0.062-1.396-0.2-2.014-0.481c-1.1-0.5-1.338-1.876-0.508-2.676c0.254-0.245,0.629-0.424,0.977-0.498
				c0.519-0.111,1.062-0.118,1.596-0.14c3.194-0.127,6.246-0.91,9.202-2.064c2.221-0.867,4.143-2.228,5.867-3.869
				c0.187-0.178,0.336-0.397,0.548-0.649c-0.858-1.089-1.678-2.131-2.543-3.228c-0.316,0.085-0.628,0.126-0.905,0.248
				c-5.188,2.278-10.615,3.284-16.272,3.073c-1.991-0.074-3.938-0.434-5.84-1.01c-0.606-0.184-1.206-0.46-1.736-0.805
				c-0.634-0.412-0.881-1.069-0.695-1.827c0.18-0.732,0.827-1.219,1.684-1.218c0.694,0.001,1.391,0.067,2.082,0.146
				c6.098,0.691,11.828-0.469,17.207-3.406c0.281-0.154,0.555-0.324,0.823-0.499c0.085-0.056,0.143-0.154,0.279-0.305
				c-0.209-0.492-0.425-1.027-0.662-1.553c-0.218-0.483-0.458-0.956-0.7-1.457c-0.683-0.109-1.309,0.058-1.938,0.135
				c-7.005,0.865-13.779,0.07-20.258-2.824c-0.634-0.283-1.254-0.611-1.838-0.984c-0.35-0.224-0.687-0.533-0.909-0.881
				c-0.713-1.115,0.066-2.53,1.385-2.505c0.466,0.009,0.945,0.164,1.389,0.33c2.317,0.866,4.694,1.485,7.152,1.775
				c4.338,0.511,8.539-0.067,12.618-1.603C155.352,395.674,155.382,395.615,155.524,395.464z"/>
                    <path fill="#1A1A1A" d="M296.509,422.352c-0.344-0.163-0.679-0.326-1.018-0.481c-5.058-2.314-9.602-5.402-13.736-9.109
				c-0.278-0.25-0.564-0.499-0.799-0.788c-0.565-0.691-0.577-1.573-0.065-2.216c0.538-0.676,1.357-0.925,2.157-0.606
				c0.395,0.158,0.762,0.389,1.133,0.602c4.487,2.583,9.249,4.46,14.316,5.534c9.687,2.053,19.088,1.25,28.02-3.159
				c9.147-4.516,15.462-11.671,19.111-21.189c0.191-0.5,0.346-1.017,0.581-1.495c0.405-0.827,1.193-1.18,1.993-0.949
				c0.703,0.203,1.263,0.908,1.192,1.714c-0.085,0.956-0.293,1.902-0.462,2.849c-0.149,0.832-0.318,1.659-0.482,2.509
				c1.301,0.648,2.608,0.928,3.9,1.23c5.265,1.228,10.42,0.742,15.482-1.058c0.503-0.179,0.996-0.406,1.514-0.522
				c0.855-0.19,1.568,0.137,1.928,0.8c0.386,0.711,0.239,1.588-0.468,2.169c-0.491,0.403-1.056,0.731-1.624,1.021
				c-2.542,1.3-5.241,2.162-8.033,2.721c-3.75,0.751-7.538,0.965-11.35,0.658c-1.115-0.09-2.222-0.277-3.423-0.431
				c-0.639,0.945-0.976,2.01-1.505,3.077c0.265,0.216,0.477,0.446,0.735,0.593c5.427,3.088,11.244,4.324,17.46,3.661
				c0.745-0.08,1.494-0.16,2.241-0.164c0.853-0.005,1.454,0.474,1.68,1.227c0.191,0.635-0.047,1.396-0.705,1.821
				c-0.531,0.343-1.133,0.606-1.737,0.803c-1.635,0.533-3.326,0.851-5.037,0.959c-5.76,0.366-11.306-0.588-16.628-2.829
				c-0.39-0.164-0.785-0.316-1.267-0.509c-0.877,1.096-1.733,2.166-2.654,3.318c0.433,0.43,0.791,0.815,1.179,1.168
				c2.349,2.134,5.108,3.498,8.154,4.313c2.28,0.61,4.579,1.103,6.958,1.109c0.371,0.001,0.751,0.049,1.111,0.139
				c0.749,0.188,1.22,0.746,1.296,1.461c0.071,0.667-0.3,1.418-0.991,1.686c-0.639,0.248-1.332,0.401-2.015,0.482
				c-1.924,0.228-3.861,0.146-5.774-0.068c-4.074-0.456-7.989-1.518-11.62-3.472c-1.127-0.607-2.201-1.313-3.405-2.038
				c-1.102,0.732-2.243,1.49-3.466,2.302c0.181,0.331,0.3,0.62,0.478,0.866c1.109,1.535,2.492,2.793,3.999,3.924
				c1.979,1.485,4.119,2.692,6.375,3.702c0.487,0.218,0.979,0.444,1.423,0.735c0.653,0.429,0.842,1.085,0.689,1.832
				c-0.138,0.676-0.711,1.224-1.493,1.239c-0.957,0.018-1.933-0.021-2.872-0.196c-5.786-1.076-10.631-3.821-14.477-8.296
				c-0.208-0.242-0.435-0.469-0.657-0.698c-0.034-0.035-0.094-0.046-0.076-0.038c-2.562,0.528-5.065,1.044-7.651,1.578
				c0.129,0.362,0.216,0.717,0.376,1.034c1.114,2.216,2.411,4.298,4.385,5.874c0.208,0.166,0.406,0.353,0.575,0.558
				c0.5,0.605,0.565,1.429,0.169,2.097c-0.401,0.676-1.045,0.975-1.774,0.815c-0.72-0.158-1.435-0.431-2.09-0.773
				c-3.223-1.684-5.603-4.261-7.54-7.281c-0.518-0.808-0.98-1.652-1.466-2.477c-2.17-0.413-4.305-0.819-6.593-1.255
				c0.086,0.381,0.094,0.641,0.201,0.851c0.747,1.48,1.51,2.952,2.279,4.42c0.198,0.379,0.485,0.717,0.643,1.109
				c0.276,0.687,0.253,1.365-0.302,1.939c-0.507,0.523-1.39,0.693-2.077,0.302c-0.457-0.26-0.87-0.626-1.239-1.007
				c-1.583-1.636-2.764-3.548-3.654-5.629C297.467,425.143,297.045,423.814,296.509,422.352z"/>
                </g>
                <g>
                    <path fill="#D39557" d="M220.968,263.296c2.812,1.424,5.63,2.422,8.477,3.354c2.336,0.765,4.64,1.627,6.974,2.399
				c3.806,1.259,7.629,2.468,11.438,3.72c2.489,0.818,4.968,1.665,7.445,2.518c2.476,0.853,4.949,1.717,7.416,2.597
				c4.642,1.655,9.188,3.529,13.436,6.056c3.532,2.101,6.662,4.682,9.054,8.052c0.737,1.038,1.328,2.208,1.815,3.388
				c1.18,2.861,1.787,5.847,1.301,8.947c-0.198,1.259-0.516,2.529-0.993,3.708c-1.135,2.804-2.809,5.264-4.939,7.441
				c-2.37,2.423-5.22,4.065-8.264,5.429c-3.251,1.456-6.675,2.231-10.207,2.655c-3.194,0.384-6.382,0.648-9.6,0.514
				c-2.626-0.11-5.223-0.44-7.803-0.907c-2.579-0.467-5.13-1.042-7.614-1.913c-2.686-0.942-5.243-2.138-7.704-3.561
				c-3.329-1.925-6.197-4.402-8.644-7.343c-1.819-2.185-3.333-4.591-4.476-7.208c-1.97-4.51-3.084-9.225-3.304-14.143
				c-0.12-2.681,0.092-5.342,0.487-7.997c0.545-3.665,1.467-7.233,2.629-10.741c0.723-2.185,1.58-4.321,2.634-6.372
				C220.619,263.704,220.773,263.553,220.968,263.296z"/>
                    <path fill="#D39557" d="M281.174,280.813c-2.25-1.487-4.45-2.809-6.772-3.913c-2.849-1.355-5.741-2.607-8.731-3.629
				c-2.125-0.726-4.223-1.533-6.347-2.263c-3.742-1.286-7.494-2.543-11.242-3.809c-2.836-0.958-5.671-1.921-8.512-2.862
				c-3.604-1.194-7.228-2.329-10.816-3.57c-1.916-0.663-3.799-1.408-5.544-2.507c-1.803-1.136-3.029-2.712-3.902-4.567
				c-0.985-2.092-1.493-4.33-1.775-6.636c-0.327-2.672-0.352-5.348-0.201-8.018c0.19-3.373,0.761-6.696,1.721-9.946
				c1.109-3.753,2.488-7.404,4.131-10.955c1.193-2.578,2.573-5.055,4.088-7.456c0.685-1.086,1.384-2.164,2.104-3.227
				c0.262-0.387,0.439-0.874,1.001-1.058c0.711,0.518,1.443,1.054,2.178,1.585c3.784,2.737,7.834,5.012,12.074,6.961
				c1.166,0.536,2.304,1.132,3.45,1.711c2.578,1.301,5.154,2.608,7.729,3.914c4.541,2.302,8.883,4.937,13.06,7.843
				c4.347,3.024,8.118,6.653,11.111,11.029c2.255,3.297,3.836,6.904,4.634,10.852c0.822,4.068,1.064,8.166,0.881,12.298
				c-0.215,4.837-1.076,9.564-2.546,14.174c-0.389,1.221-0.919,2.397-1.397,3.588C281.497,280.489,281.359,280.592,281.174,280.813z
				"/>
                    <path fill="#D39557" d="M234.538,152.206c1.415,0.731,2.644,1.367,3.874,2.003c4.085,2.114,8.188,4.193,12.249,6.353
				c3.165,1.684,6.237,3.537,9.183,5.58c1.536,1.065,2.989,2.257,4.414,3.469c1.547,1.317,3.061,2.674,4.421,4.199
				c2.216,2.485,4.19,5.134,5.788,8.058c1.78,3.258,2.97,6.744,4.023,10.288c0.733,2.467,1.308,4.972,1.695,7.506
				c0.387,2.534,0.569,5.101,0.785,7.658c0.122,1.438,0.207,2.887,0.173,4.327c-0.053,2.298-0.145,4.6-0.361,6.887
				c-0.166,1.753-0.493,3.498-0.851,5.225c-0.368,1.775-0.829,3.535-1.662,5.247c-0.23-0.128-0.439-0.194-0.581-0.33
				c-3.495-3.363-7.504-6.024-11.646-8.494c-2.48-1.478-4.98-2.929-7.53-4.282c-2.785-1.478-5.631-2.844-8.463-4.233
				c-4.177-2.049-8.404-4.013-12.293-6.585c-2.095-1.386-4.131-2.874-5.985-4.588c-1.699-1.57-2.737-3.559-3.465-5.701
				c-1.285-3.776-1.807-7.705-2.003-11.667c-0.135-2.723-0.13-5.452,0.179-8.178c0.278-2.453,0.777-4.853,1.369-7.241
				c0.996-4.017,2.494-7.846,4.413-11.507C232.955,154.881,233.736,153.608,234.538,152.206z"/>
                    <path fill="#D39557" d="M240.329,105.232c0.221,0.076,0.385,0.102,0.516,0.181c3.02,1.828,6.056,3.631,9.044,5.509
				c1.265,0.795,2.475,1.697,3.628,2.65c1.731,1.43,3.406,2.928,5.075,4.431c2.391,2.154,4.573,4.509,6.485,7.099
				c0.92,1.246,1.817,2.521,2.596,3.858c2.5,4.288,4.211,8.871,5.128,13.764c0.672,3.585,1.111,7.194,1.25,10.83
				c0.087,2.294-0.056,4.595-0.43,6.877c-0.459,2.803-1.077,5.561-2.097,8.332c-0.327-0.226-0.654-0.388-0.9-0.632
				c-1.829-1.813-3.779-3.489-5.855-5.004c-1.857-1.354-3.788-2.608-5.711-3.87c-0.983-0.645-2.011-1.222-3.03-1.811
				c-5.004-2.892-10.156-5.502-15.34-8.055c-1.434-0.706-2.813-1.554-4.123-2.472c-1.862-1.305-3.035-3.107-3.541-5.361
				c-0.674-3.001-0.842-6.027-0.718-9.089c0.095-2.356,0.284-4.694,0.677-7.024c0.455-2.696,1.089-5.344,1.91-7.946
				c1.243-3.94,2.952-7.685,4.844-11.35C239.903,105.828,240.129,105.539,240.329,105.232z"/>
                    <path fill="#D39557" d="M266.698,118.351c-1.172-1.141-2.204-2.139-3.227-3.145c-2.254-2.216-4.649-4.266-7.129-6.224
				c-3.073-2.427-6.359-4.516-9.794-6.39c-1.219-0.665-2.377-1.444-3.544-2.2c-1.655-1.071-2.645-2.603-3.08-4.519
				c-0.711-3.136-0.576-6.265,0.034-9.393c0.651-3.339,1.933-6.441,3.527-9.431c0.757-1.419,1.572-2.784,2.558-4.065
				c1.232-1.6,2.771-2.854,4.418-3.928c2.649-1.728,5.383-1.783,8.125-0.002c1.838,1.194,3.272,2.772,4.49,4.523
				c2.001,2.879,3.313,6.092,4.181,9.492c1.747,6.843,2.46,13.794,2.076,20.838c-0.23,4.223-0.848,8.404-1.955,12.498
				C267.211,117.021,266.958,117.613,266.698,118.351z"/>
                </g>
            </g>
        <g>
                <path fill="#818A33" d="M252.685,374.259c-8.897-0.012-17.326,1.187-25.103,5.54c-0.15-0.145-0.317-0.27-0.44-0.43
			c-3.398-4.422-7.483-8.074-12.26-10.953c-3.714-2.238-7.704-3.707-12.007-4.27c-1.057-0.138-2.135-0.11-3.204-0.152
			c-0.472-0.019-0.944-0.023-1.442-0.034c0.187-1.474,0.384-2.848,0.533-4.226c0.555-5.118-0.074-10.038-2.502-14.65
			c-0.095-0.181-0.143-0.388-0.247-0.676c0.278-0.108,0.503-0.246,0.744-0.281c3.116-0.455,5.977-1.617,8.709-3.131
			c3.779-2.096,7.079-4.799,10.016-7.958c0.285-0.307,0.577-0.608,0.903-0.951c0.607,0.407,0.931,0.966,1.325,1.45
			c3.078,3.777,6.721,6.879,10.958,9.293c3.971,2.263,8.222,3.576,12.781,3.893c0.474,0.033,0.945,0.103,1.46,0.161
			c0.287,0.94,0.132,1.854,0.218,2.743c0.083,0.853,0.13,1.709,0.233,2.559c0.109,0.902,0.236,1.805,0.41,2.697
			c0.174,0.892,0.393,1.777,0.633,2.653c0.226,0.825,0.488,1.641,0.765,2.45c0.295,0.86,0.61,1.713,0.947,2.558
			c0.317,0.795,0.658,1.581,1.016,2.358c0.381,0.826,0.778,1.645,1.2,2.45c0.422,0.806,0.866,1.601,1.331,2.382
			c0.438,0.735,0.903,1.455,1.379,2.166C251.537,372.64,252.059,373.362,252.685,374.259z"/>
            <path fill="#818A33" d="M264.068,344.356c0.291-0.567,0.557-1.085,0.822-1.603c1.979-3.877,4.646-7.183,8.144-9.796
			c1.384-1.034,2.861-1.869,4.585-2.22c1.196-0.244,2.348-0.134,3.472,0.286c2.577,0.963,4.154,3.894,2.952,6.697
			c-0.71,1.655-1.787,3.041-3.111,4.242c-1.72,1.561-3.667,2.773-5.782,3.725c-0.365,0.164-0.71,0.374-1.087,0.575
			c0.138,0.159,0.194,0.287,0.265,0.295c2.019,0.241,4.041,0.457,6.059,0.706c0.891,0.11,1.636-0.141,2.429-0.566
			c5.533-2.963,11.395-4.962,17.684-5.359c5.077-0.32,9.628,1.174,13.375,4.745c1.38,1.316,2.416,2.86,2.877,4.742
			c0.608,2.48,0.04,4.665-1.669,6.552c-0.837,0.924-1.851,1.615-2.957,2.182c-2.125,1.089-4.391,1.664-6.758,1.896
			c-3.453,0.337-6.829-0.019-10.174-0.936c-3.215-0.881-6.316-2.023-9.231-3.645c-2.067-1.15-4.02-2.466-5.63-4.223
			c-0.392-0.428-0.831-0.626-1.392-0.67c-1.014-0.08-2.03-0.156-3.036-0.3c-1.535-0.22-3.061-0.5-4.592-0.746
			c-0.521-0.084-1.047-0.14-1.527-0.203c-0.307,0.428,0.002,0.663,0.145,0.919c0.835,1.495,1.732,2.958,2.513,4.48
			c1.699,3.315,2.816,6.819,3.239,10.533c0.239,2.102,0.103,4.171-0.519,6.198c-0.367,1.195-0.991,2.242-1.852,3.157
			c-2.177,2.312-5.626,2.318-7.805,0.91c-1.855-1.198-3.179-2.855-4.13-4.817c-1.109-2.288-1.757-4.717-1.93-7.251
			c-0.308-4.536,0.197-8.983,1.634-13.307c0.285-0.858,0.634-1.695,0.966-2.574c-0.33-0.517-0.909-0.536-1.387-0.705
			c-4.203-1.483-8.238-3.323-12.003-5.717c-1.353-0.86-2.651-1.811-3.939-2.767c-0.555-0.412-1.057-0.91-1.521-1.425
			c-0.953-1.057-1.035-1.84-0.288-2.704c0.855-0.989,1.781-1.138,2.842-0.433c0.535,0.356,1.07,0.712,1.593,1.085
			c2.314,1.652,4.751,3.098,7.282,4.39c2.628,1.341,5.36,2.424,8.164,3.333C263.187,344.165,263.601,344.241,264.068,344.356z"/>
            <path fill="#D39557" d="M137.383,368.029c-0.175-0.642-0.685-0.993-1.029-1.458c-2.982-4.024-3.802-8.435-2.297-13.221
			c0.728-2.315,2.059-4.231,4.178-5.514c2.089-1.264,4.277-1.647,6.592-0.658c1.807,0.772,3.076,2.12,3.947,3.842
			c0.939,1.856,1.282,3.854,1.207,5.921c-0.126,3.494-1.35,6.582-3.53,9.297c-0.567,0.706-1.17,1.384-1.823,2.154
			c0.321,0.178,0.57,0.355,0.846,0.462c1.918,0.744,3.933,1.086,5.965,1.183c8.112,0.388,15.753-1.303,22.799-5.415
			c2.898-1.691,5.352-3.917,7.49-6.498c2.163-2.612,3.979-5.444,5.452-8.5c0.61-1.266,1.045-2.578,1.181-3.982
			c0.021-0.213,0.032-0.429,0.078-0.637c0.101-0.462,0.537-0.699,0.983-0.551c0.608,0.202,0.979,0.643,1.178,1.226
			c0.264,0.773,0.312,1.569,0.202,2.38c-0.204,1.498-0.626,2.939-1.232,4.312c-2.076,4.709-4.91,8.908-8.652,12.456
			c-3.159,2.995-6.895,5.057-10.965,6.532c-5.609,2.033-11.402,2.92-17.359,2.575c-3.556-0.206-6.994-0.972-10.207-2.583
			c-0.237-0.119-0.484-0.219-0.783-0.354c-0.357,0.215-0.725,0.419-1.077,0.65c-4.664,3.057-9.791,4.718-15.329,5.287
			c-5.328,0.548-10.469-0.154-15.474-1.976c-3.473-1.264-6.529-3.199-9.094-5.881c-6.936-7.25-6.58-18.684,0.881-25.66
			c1.55-1.449,3.352-2.456,5.449-2.936c5.705-1.305,12.129,3.218,11.601,10.072c-0.168,2.178-0.852,4.189-2.095,5.998
			c-1.222,1.779-3.817,1.704-4.967-0.142c-0.339-0.544-0.394-1.104-0.07-1.672c0.212-0.372,0.452-0.728,0.668-1.098
			c0.914-1.561,1.36-3.248,1.373-5.056c0.007-0.997-0.29-1.897-0.794-2.741c-0.676-1.133-1.679-1.639-2.977-1.443
			c-0.573,0.086-1.147,0.271-1.681,0.501c-1.095,0.473-2.025,1.202-2.851,2.054c-5.84,6.019-5.372,14.536-0.303,20.032
			c2.467,2.675,5.565,4.327,9.04,5.278c7.267,1.987,14.213,1.116,20.833-2.446C135.677,369.317,136.582,368.751,137.383,368.029z
			 M140.34,365.557c1.829-1.844,3.272-3.879,4.36-6.175c0.652-1.375,0.993-2.83,1.129-4.331c0.134-1.475-0.153-2.89-0.872-4.187
			c-0.684-1.235-1.652-1.598-2.978-1.168c-0.879,0.285-1.664,0.744-2.298,1.425c-1,1.074-1.766,2.289-2.134,3.725
			c-0.955,3.731-0.208,7.106,2.146,10.135C139.849,365.183,140.078,365.328,140.34,365.557z"/>
            <path fill="#C1272D" d="M195.822,307.357c5.923-0.35,10.626,1.404,13.979,6.111c1.599,2.245,2.393,4.762,2.177,7.557
			c-0.239,3.084-1.672,5.495-4.147,7.284c-2.392,1.728-5.125,2.493-8.034,2.23c-5.039-0.455-9.064-2.749-11.773-7.108
			c-1.092-1.756-1.701-3.688-1.691-5.782c0.022-4.848,3.117-8.132,6.674-9.501C193.997,307.766,195.058,307.567,195.822,307.357z"/>
            <path fill="#D39557" d="M329.873,330.093c-0.132,4.539,0.552,9.211,2.473,13.673c1.331,3.093,3.241,5.792,5.579,8.18
			c2.051,2.095,4.449,3.676,7.319,4.459c1.477,0.403,2.973,0.412,4.458,0.147c1.289-0.23,2.444-0.808,3.352-1.776
			c3.056-3.258,4.063-7.086,3.038-11.419c-0.311-1.315-0.997-2.481-1.93-3.478c-0.595-0.636-1.293-1.098-2.144-1.354
			c-0.693-0.208-1.253-0.052-1.788,0.384c-1.391,1.133-1.923,3.315-1.212,5.133c0.194,0.496,0.474,0.958,0.711,1.437
			c0.38,0.77,0.232,1.467-0.354,2.056c-0.806,0.809-1.802,1.146-2.932,0.983c-0.658-0.095-1.194-0.426-1.567-1.011
			c-1.925-3.014-1.985-6.393,0.141-9.328c3.616-4.99,10.86-4.876,14.354,0.2c1.284,1.864,1.92,3.958,1.91,6.2
			c-0.019,4.518-1.481,8.5-4.625,11.811c-2.36,2.486-5.294,3.755-8.664,4.075c-3.995,0.38-7.635-0.638-10.963-2.85
			c-2.484-1.651-4.556-3.732-6.286-6.142c-4.342-6.047-6.245-12.845-6.017-20.245c0.049-1.595,0.368-3.185,0.631-4.766
			c0.095-0.569,0.362-1.116,0.6-1.652c0.278-0.624,0.803-0.977,1.447-1.18c1.041-0.329,2.324,0.281,2.489,1.383
			c0.086,0.579,0.161,1.164,0.178,1.749c0.016,0.533-0.051,1.069-0.085,1.603C329.958,328.847,329.924,329.328,329.873,330.093z"/>
            <path fill="#C1272D" d="M176.431,344.525c-2.346-0.046-4.59-0.903-6.394-2.775c-3.113-3.23-2.748-8.158,0.823-10.866
			c4.862-3.687,10.931-1.079,12.999,2.595c0.312,0.554,0.571,1.159,0.734,1.772c0.762,2.869-0.355,5.88-2.811,7.642
			C180.257,343.988,178.535,344.494,176.431,344.525z"/>
            <path fill="#C1272D" d="M301.755,316.877c0.021-3.235,2.634-5.742,5.898-5.702c2.899,0.035,5.667,2.343,5.641,5.998
			c-0.026,3.551-2.892,5.702-5.787,5.63C304.218,322.722,301.682,319.965,301.755,316.877z"/>
            <path fill="#C1272D" d="M296.845,333.919c-3.194,0.021-5.725-2.507-5.705-5.696c0.02-3.182,2.659-5.831,5.835-5.856
			c3.142-0.025,5.732,2.571,5.715,5.729C302.674,331.312,300.079,333.898,296.845,333.919z"/>
            <path fill="#C1272D" d="M314.353,326.91c3.189,0.023,5.655,2.573,5.598,5.789c-0.057,3.196-2.739,5.885-5.875,5.805
			c-3.299-0.085-5.667-2.678-5.609-5.814C308.528,329.464,311.162,326.888,314.353,326.91z"/>
            <g>
                    <path fill="#818A33" d="M317.389,243.168c1.377,0.156,2.81-0.183,4.298,0.039c0.066,0.781-0.519,1.356-0.666,2.059
				c-0.14,0.671-0.345,1.328-0.522,1.993c-1.832,0.16-3.607-0.125-5.46,0.244c-0.242,0.492-0.512,1.007-0.754,1.534
				c-3.64,7.907-6.376,16.119-8.229,24.621c-0.9,4.131-1.714,8.28-2.573,12.42c-0.087,0.418-0.188,0.835-0.319,1.241
				c-0.236,0.732-0.783,1.126-1.511,1.289c-0.846,0.19-1.517-0.167-1.713-1.014c-0.155-0.672-0.26-1.377-0.24-2.063
				c0.048-1.605,0.147-3.21,0.291-4.809c0.466-5.178,1.262-10.304,2.451-15.37c1.19-5.069,2.892-9.97,4.84-14.786
				c1.163-2.877,2.385-5.733,3.688-8.548c0.461-0.996,0.532-1.872,0.253-2.913c-0.943-3.521-2.106-6.964-3.458-10.347
				c-0.654-1.636-1.294-3.277-1.972-4.995c0.904-0.461,1.78-0.838,2.58-1.335c0.761-0.474,1.444-1.074,2.243-1.679
				c1.223,1.813,2.069,3.762,2.878,5.723c0.795,1.925,1.52,3.879,2.323,5.94c0.27-0.358,0.503-0.627,0.693-0.925
				c1.382-2.166,2.728-4.357,4.147-6.499c0.465-0.702,0.712-1.393,0.715-2.235c0.017-4.606,0.961-9.036,2.64-13.313
				c1.536-3.915,3.632-7.514,6.238-10.812c2.317-2.933,5.073-5.366,8.368-7.156c2.567-1.395,5.294-2.357,8.218-2.539
				c7.463-0.464,12.154,4.7,12.246,11.05c0.04,2.778-0.686,5.402-1.81,7.922c-0.767,1.719-1.743,3.315-2.9,4.8
				c-3.139,4.03-6.967,7.241-11.467,9.655c-4.462,2.393-9.173,4.105-14.124,5.154c-0.68,0.144-1.37,0.243-2.06,0.33
				c-0.46,0.058-0.805,0.253-1.048,0.646c-0.141,0.228-0.295,0.447-0.444,0.669c-2.781,4.138-5.267,8.45-7.554,12.877
				c-0.146,0.282-0.252,0.585-0.367,0.882C317.29,242.956,317.336,243.017,317.389,243.168z"/>
                <g>
                        <path fill="#C1272D" d="M304.086,209.881c3.181-0.006,5.761,2.53,5.774,5.674c0.013,3.135-2.574,5.699-5.749,5.698
					c-3.177-0.001-5.753-2.545-5.768-5.687C298.33,212.669,300.666,209.851,304.086,209.881z"/>
                    <path fill="#C1272D" d="M334.348,247.549c0.004,3.137-2.551,5.746-5.723,5.744c-3.209-0.002-5.712-2.419-5.761-5.683
					c-0.046-3.102,2.597-5.712,5.74-5.751C331.756,241.82,334.345,244.384,334.348,247.549z"/>
                    </g>
                </g>
            <g>
                    <path fill="#818A33" d="M188.659,249.601c-3.805-0.041-7.266-0.832-10.475-2.61c-2.12-1.174-4.011-2.627-5.673-4.526
				c0.404-0.478,0.942-0.605,1.356-0.901c0.392-0.28,0.8-0.538,1.18-0.833c0.422-0.327,0.819-0.685,1.302-1.093
				c0.435,0.408,0.855,0.806,1.279,1.199c2.32,2.155,4.992,3.671,8.08,4.419c0.294,0.071,0.613,0.038,1.071,0.06
				c-0.851-1.812-1.642-3.496-2.487-5.294c1.583-0.206,3.066-0.351,4.385-1.294c0.524,0.743,0.972,1.378,1.486,2.108
				c3.44-3.358,4.571-7.589,5.1-12.14c0.9-0.193,1.704,0.299,2.539,0.227c0.834-0.072,1.667-0.154,2.63-0.243
				c-0.191,3.205-0.998,6.11-2.358,8.864c-1.381,2.795-3.338,5.093-6.102,6.754c0.105,0.321,0.17,0.624,0.298,0.897
				c3.677,7.846,6.149,16.083,7.986,24.528c1.025,4.715,1.774,9.472,2.16,14.281c0.141,1.76,0.156,3.531,0.214,5.297
				c0.057,1.762-1.291,2.846-2.467,3.174c-1.253,0.35-2.116-0.198-2.301-1.482c-0.038-0.264-0.044-0.534-0.05-0.801
				c-0.171-7.479-1.478-14.796-3.112-22.069c-1.306-5.811-3.09-11.469-5.355-16.976
				C189.142,250.656,188.914,250.176,188.659,249.601z"/>
                <g>
                        <path fill="#C1272D" d="M197.908,215.109c3.171,0.032,5.624,2.614,5.59,5.813c-0.029,2.797-2.622,5.938-6.056,5.853
					c-3.178-0.078-5.597-2.606-5.584-5.822C191.869,218.267,194.382,214.983,197.908,215.109z"/>
                    <path fill="#C1272D" d="M164.537,234.869c-0.032-3.187,2.498-5.759,5.658-5.75c3.099,0.008,5.586,2.509,5.662,5.606
					c0.061,2.464-1.775,5.732-5.677,5.733C166.416,240.46,164.471,237.328,164.537,234.869z"/>
                    <path fill="#C1272D" d="M184.959,238.035c-3.208,0.027-5.732-2.473-5.72-5.666c0.012-3.116,2.496-5.623,5.596-5.648
					c3.163-0.025,5.753,2.538,5.744,5.684C190.571,235.498,188.064,238.009,184.959,238.035z"/>
                    </g>
                </g>
            <g>
                    <path fill="#D39557" d="M300.155,374.926c0.368-0.359,0.165-0.983-0.343-1.057l-5.285-0.768
				c-0.202-0.029-0.376-0.156-0.467-0.339l-2.364-4.789c-0.227-0.461-0.884-0.461-1.112,0l-2.364,4.789
				c-0.09,0.183-0.265,0.31-0.467,0.339l-5.285,0.768c-0.508,0.074-0.711,0.699-0.344,1.057l3.824,3.728
				c0.146,0.142,0.213,0.348,0.178,0.549l-0.903,5.264c-0.087,0.506,0.445,0.892,0.899,0.653l4.727-2.485
				c0.181-0.095,0.396-0.095,0.577,0l4.727,2.485c0.455,0.239,0.986-0.147,0.899-0.653l-0.903-5.264
				c-0.034-0.201,0.032-0.406,0.178-0.549L300.155,374.926z"/>
                <path fill="#D39557" d="M394.737,353.509c0.475-0.463,0.213-1.27-0.444-1.365l-6.825-0.992c-0.261-0.038-0.486-0.202-0.603-0.438
				l-3.052-6.184c-0.294-0.595-1.142-0.595-1.435,0l-3.052,6.184c-0.117,0.236-0.342,0.4-0.603,0.438l-6.825,0.992
				c-0.656,0.095-0.919,0.902-0.444,1.365l4.939,4.814c0.189,0.184,0.275,0.449,0.23,0.708l-1.166,6.797
				c-0.112,0.654,0.574,1.152,1.161,0.844l6.104-3.209c0.233-0.123,0.512-0.123,0.745,0l6.104,3.209
				c0.587,0.309,1.273-0.19,1.161-0.844l-1.166-6.797c-0.045-0.26,0.042-0.525,0.23-0.708L394.737,353.509z"/>
                <path fill="#D39557" d="M181.525,211.333c0.368-0.359,0.165-0.983-0.343-1.057l-5.285-0.768
				c-0.202-0.029-0.376-0.156-0.467-0.339l-2.364-4.789c-0.227-0.461-0.884-0.461-1.112,0l-2.364,4.789
				c-0.09,0.183-0.265,0.31-0.467,0.339l-5.285,0.768c-0.508,0.074-0.711,0.699-0.344,1.057l3.824,3.728
				c0.146,0.142,0.213,0.348,0.178,0.549l-0.903,5.264c-0.087,0.506,0.445,0.892,0.899,0.653l4.727-2.485
				c0.181-0.095,0.396-0.095,0.577,0l4.727,2.485c0.455,0.239,0.986-0.147,0.899-0.653l-0.903-5.264
				c-0.035-0.201,0.032-0.406,0.178-0.549L181.525,211.333z"/>
                <path fill="#D39557" d="M331.269,362.056c0.215-0.21,0.096-0.575-0.201-0.618l-3.089-0.449c-0.118-0.017-0.22-0.091-0.273-0.198
				l-1.381-2.799c-0.133-0.269-0.517-0.269-0.65,0l-1.381,2.799c-0.053,0.107-0.155,0.181-0.273,0.198l-3.089,0.449
				c-0.297,0.043-0.416,0.408-0.201,0.618l2.235,2.179c0.085,0.083,0.124,0.203,0.104,0.321l-0.528,3.077
				c-0.051,0.296,0.26,0.522,0.526,0.382l2.763-1.453c0.106-0.055,0.232-0.055,0.337,0l2.763,1.453
				c0.266,0.14,0.576-0.086,0.526-0.382l-0.528-3.077c-0.02-0.117,0.019-0.237,0.104-0.321L331.269,362.056z"/>
                </g>
            </g>
        </g>
</svg>
