<?xml version="1.0" encoding="utf-8"?>
<svg version="1.1" id="Layer_1" xmlns="http://www.w3.org/2000/svg"
     xmlns:xlink="http://www.w3.org/1999/xlink"
     x="0px" y="0px" viewBox="0 0 504 504"

     xml:space="preserve">
    <style type="text/css">.st0{fill-rule:evenodd;clip-rule:evenodd;}</style>
    <g>
            <path fill="#1A1A1A" d="M271.707,172.772c-0.172,0.003-0.423-0.066-0.502,0.021c-0.259,0.288-0.476,0.621-0.675,0.956
		c-1.635,2.762-2.786,5.719-3.502,8.845c-0.371,1.622-0.102,3.226,0.237,4.807c0.625,2.921,1.916,5.552,3.735,7.911
		c0.987,1.28,2.072,2.483,3.097,3.734c1.087,1.327,2.176,2.652,3.226,4.007c2.765,3.566,4.392,7.625,5.07,12.063
		c0.288,1.886,0.447,3.793,0.65,5.692c0.03,0.283-0.02,0.575-0.037,0.939c-0.361,0.049-0.691,0.146-1.015,0.128
		c-4.019-0.223-7.68-1.485-10.899-3.912c-2.495-1.881-3.789-4.438-3.962-7.555c-0.101-1.814-0.042-3.621,0.153-5.432
		c0.22-2.049,0.294-4.107-0.163-6.145c-0.292-1.304-0.782-2.525-1.513-3.645c-0.124-0.191-0.299-0.348-0.446-0.517
		c-0.137,0.103-0.255,0.144-0.276,0.214c-0.421,1.407-0.793,2.829-1.252,4.223c-0.807,2.45-0.95,4.992-1.17,7.531
		c-0.131,1.51-0.364,3.013-0.618,4.508c-0.436,2.572-1.564,4.849-3.217,6.84c-0.936,1.127-1.977,2.177-3.053,3.173
		c-1.366,1.264-2.806,2.45-4.232,3.648c-2.669,2.242-5.232,4.59-7.487,7.259c-0.121,0.143-0.279,0.255-0.411,0.374
		c-0.569-0.238-0.864-0.704-1.168-1.141c-3.038-4.36-3.451-8.962-1.179-13.766c1.108-2.343,2.771-4.268,4.803-5.866
		c0.847-0.666,1.742-1.27,2.601-1.922c1.6-1.215,3.219-2.407,4.774-3.677c1.752-1.432,3.241-3.126,4.652-4.893
		c1.992-2.494,3.037-5.349,3.313-8.5c0.209-2.391,0.363-4.788,0.559-7.18c0.169-2.058,0.517-4.086,1.234-6.029
		c0.661-1.791,1.307-3.592,2.079-5.335c1.181-2.667,2.818-5.042,4.901-7.098c0.205-0.202,0.391-0.422,0.663-0.717
		c-0.286-0.205-0.506-0.367-0.73-0.524c-1.766-1.237-3.542-2.459-5.293-3.717c-0.555-0.398-1.065-0.866-1.556-1.343
		c-0.885-0.863-1.292-1.933-1.318-3.17c-0.021-0.997,0.163-1.951,0.494-2.881c0.394-1.108,0.785-2.217,1.213-3.311
		c1.469-3.756,1.61-7.642,1.142-11.583c-0.26-2.189-0.587-4.369-0.871-6.555c-0.139-1.074-0.123-2.146,0.062-3.221
		c0.274-1.59,1.059-2.844,2.43-3.683c0.875-0.535,1.792-1.011,2.721-1.446c3.196-1.496,6.342-3.086,9.385-4.874
		c0.421-0.248,0.838-0.503,1.285-0.771c0.015-0.202,0.072-0.4,0.036-0.581c-0.409-2.061,0.04-4.005,0.862-5.87
		c0.572-1.298,1.234-2.561,1.926-3.8c1.459-2.614,2.771-5.292,3.88-8.074c0.489-1.226,1.083-2.413,1.686-3.588
		c0.539-1.051,1.235-2.006,2.101-2.818c2.145-2.011,4.58-2.533,7.308-1.334c0.67,0.295,1.302,0.677,1.945,1.03
		c0.381,0.209,0.75,0.44,1.135,0.668c0.125-0.139,0.257-0.23,0.311-0.356c0.923-2.111,2.41-3.796,4.058-5.353
		c1.033-0.976,2.09-1.928,3.16-2.864c3.006-2.632,5.587-5.637,7.824-8.938c1.237-1.825,2.417-3.689,3.637-5.526
		c0.352-0.529,0.711-1.066,1.146-1.524c1.204-1.272,3.023-1.384,4.376-0.277c0.413,0.338,0.768,0.757,1.105,1.175
		c0.554,0.686,1.094,1.386,1.602,2.107c2.326,3.303,5.125,6.182,7.992,9.006c1.431,1.409,2.813,2.87,4.161,4.357
		c1.154,1.274,2.129,2.688,2.939,4.21c0.083,0.157,0.184,0.304,0.278,0.458c0.42-0.243,0.273-0.566,0.263-0.826
		c-0.107-2.634-0.793-5.126-1.931-7.49c-1.826-3.791-4.31-7.116-7.267-10.097c-0.587-0.592-1.191-1.166-1.792-1.743
		c-1.377-1.322-2.757-2.642-4.176-4.001c-0.393,0.023-0.83,0.067-1.267,0.071c-2.541,0.024-4.643-1.944-4.708-4.483
		c-0.064-2.473,1.765-4.618,4.417-4.773c2.439-0.143,4.586,1.723,4.843,4.187c0.078,0.75-0.055,1.468-0.324,2.16
		c-0.14,0.36-0.331,0.701-0.542,1.14c0.725,0.907,1.577,1.707,2.429,2.507c0.858,0.805,1.727,1.598,2.588,2.399
		c0.85,0.791,1.658,1.629,2.659,2.689c-0.395-2.161-0.835-3.968-1.03-5.8c-0.196-1.844-0.15-3.714-0.213-5.699
		c-0.176-0.148-0.444-0.352-0.69-0.581c-1.553-1.446-2.004-3.491-1.19-5.367c0.814-1.876,2.803-3.074,4.847-2.919
		c2.018,0.152,3.654,1.472,4.18,3.371c0.533,1.923-0.153,3.883-1.807,5.054c-0.514,0.364-1.086,0.647-1.651,0.979
		c-0.223,3.035,0.14,5.984,0.939,8.888c0.717,2.608,1.818,5.067,2.928,7.524c0.685,1.517,1.339,3.047,2.013,4.569
		c0.074,0.167,0.186,0.318,0.399,0.676c0.125-1.018,0.235-1.815,0.318-2.616c0.212-2.051,0.53-4.083,1.177-6.046
		c0.189-0.575,0.067-1.016-0.253-1.506c-0.73-1.117-0.944-2.337-0.607-3.654c0.565-2.211,2.617-3.653,4.829-3.486
		c2.263,0.171,4.018,1.921,4.277,4.165c0.25,2.174-1.204,4.31-3.371,4.902c-0.561,0.153-1.148,0.208-1.829,0.326
		c-0.09,0.258-0.247,0.562-0.301,0.883c-0.289,1.739-0.638,3.474-0.804,5.225c-0.208,2.193-0.262,4.402-0.376,6.604
		c-0.012,0.223,0.026,0.449,0.051,0.838c0.586-0.416,0.761-0.942,1.082-1.342c0.337-0.42,0.649-0.862,0.998-1.272
		c0.349-0.41,0.719-0.803,1.098-1.186c0.378-0.382,0.778-0.742,1.245-1.184c0-0.378-0.034-0.817,0.006-1.25
		c0.18-1.981,1.447-3.584,3.247-4.141c2.016-0.624,4.129,0.129,5.279,1.881c1.152,1.755,1.031,4.019-0.298,5.615
		c-1.403,1.684-3.772,2.159-5.726,1.139c-0.344-0.18-0.666-0.404-0.996-0.607c-2.06,1.425-4.708,6.37-5.089,9.574
		c0.353,0.095,0.716,0.214,1.088,0.288c1.546,0.306,2.844,1.06,3.889,2.219c0.654,0.727,1.265,1.499,1.831,2.297
		c1.876,2.645,3.93,5.133,6.207,7.446c1.029,1.045,2,2.159,2.894,3.321c1.882,2.446,1.944,5.136,0.872,7.928
		c-0.103,0.268-0.227,0.527-0.337,0.782c0.84,0.895,1.687,1.71,2.43,2.611c0.934,1.133,1.816,2.313,2.66,3.515
		c1.718,2.449,3.458,4.878,5.473,7.097c0.296,0.326,0.573,0.671,0.841,1.021c0.91,1.187,1.145,2.509,0.551,3.876
		c-0.526,1.208-1.15,2.38-1.812,3.521c-0.713,1.231-1.444,2.444-1.94,3.786c-0.634,1.715-0.969,3.496-1.134,5.302
		c-0.161,1.757-0.28,3.511-1.076,5.249c0.352,0.056,0.616,0.119,0.884,0.138c1.807,0.128,3.624,0.112,5.407,0.516
		c2.202,0.498,4.337,1.171,6.405,2.213c0.052,0.708-0.135,1.369-0.287,2.023c-0.551,2.366-1.561,4.533-2.923,6.537
		c-1.381,2.033-2.948,3.923-4.657,5.679c-0.88,0.905-1.929,1.664-2.97,2.391c-2.695,1.883-5.576,3.459-8.466,5.018
		c-2.155,1.163-4.315,2.32-6.428,3.557c-3.071,1.798-5.675,4.165-8.12,6.844c0.169,0.162,0.274,0.336,0.426,0.398
		c1.89,0.774,3.521,1.919,4.937,3.381c0.065,0.067,0.164,0.102,0.338,0.206c0.31-0.339,0.644-0.685,0.957-1.05
		c2.394-2.794,4.632-5.709,6.748-8.718c0.733-1.042,1.47-2.082,2.236-3.1c0.351-0.467,0.735-0.927,1.175-1.308
		c1.522-1.32,3.674-1.161,4.984,0.373c0.377,0.441,0.716,0.95,0.935,1.485c1.412,3.442,2.928,6.851,3.74,10.506
		c0.634,2.855,0.737,5.728,0.215,8.612c-0.72,3.975-2.724,7.197-5.779,9.797c-0.37,0.315-0.738,0.635-1.102,0.957
		c-0.027,0.024-0.02,0.087-0.034,0.16c0.055,0.048,0.118,0.151,0.189,0.157c2.343,0.202,4.684,0.433,7.031,0.573
		c1.269,0.076,2.547-0.009,3.82-0.018c0.391-0.003,0.787-0.036,1.172,0.012c1.784,0.221,2.725,1.377,2.464,3.149
		c-0.308,2.083-0.681,4.158-1.079,6.226c-0.556,2.885-1.133,5.767-1.759,8.637c-0.366,1.677-0.964,3.286-1.647,4.864
		c-1.259,2.912-3.167,5.278-5.816,7.038c-0.398,0.264-0.772,0.564-1.082,1.001c1.19-0.225,2.38-0.451,3.57-0.674
		c1.107-0.208,2.216-0.408,3.321-0.622c0.543-0.105,1.065-0.077,1.591,0.107c1.218,0.425,1.896,1.211,1.915,2.49
		c0.018,1.173-0.093,2.349-0.172,3.522c-0.158,2.347-0.32,4.693-0.505,7.038c-0.096,1.216-0.243,2.427-0.37,3.673
		c0.426,0.304,0.847,0.076,1.253-0.019c2.385-0.554,4.766-1.119,7.149-1.682c0.143-0.034,0.286-0.067,0.428-0.107
		c2.316-0.656,4.604,1.125,4.354,3.871c-0.107,1.173-0.296,2.338-0.711,3.446c-1.465,3.912-3.173,7.698-5.745,11.038
		c-1.201,1.559-2.491,3.026-4.009,4.286c-0.296,0.246-0.571,0.516-1.096,0.994c0.519-0.109,0.733-0.142,0.941-0.2
		c3.739-1.039,7.376-2.323,10.699-4.387c2.487-1.545,4.553-3.536,6.454-5.846c-0.233-0.394-0.463-0.754-0.665-1.129
		c-1.441-2.669-0.085-5.867,2.837-6.698c2.428-0.691,4.913,0.702,5.654,3.168c0.723,2.405-0.664,5.025-3.08,5.698
		c-0.741,0.207-1.537,0.212-2.414,0.322c-0.654,0.779-1.34,1.673-2.108,2.49c-0.805,0.855-1.66,1.669-2.547,2.439
		c-0.832,0.723-1.734,1.367-2.836,2.225c3.493-0.076,6.704-0.267,9.924,0.126c0.308-0.339,0.587-0.678,0.898-0.984
		c1.384-1.358,3.43-1.721,5.17-0.929c1.674,0.762,2.791,2.547,2.727,4.36c-0.067,1.91-1.307,3.586-3.128,4.23
		c-1.85,0.654-3.925,0.053-5.155-1.511c-0.271-0.344-0.492-0.727-0.729-1.08c-1.149-0.229-4.493-0.275-6.742-0.071
		c-0.406,0.037-0.859-0.038-1.318,0.354c3.213,0.942,6.157,2.221,8.745,4.228c2.557,1.983,4.521,4.467,6.189,7.292
		c0.489,0.086,1.016,0.163,1.536,0.271c3.566,0.745,4.845,5.092,2.4,7.747c-1.673,1.817-4.49,2.017-6.385,0.461
		c-1.88-1.543-2.236-4.376-0.785-6.36c0.285-0.39,0.628-0.738,0.995-1.164c-0.185-0.292-0.353-0.584-0.546-0.857
		c-3.444-4.868-8.184-7.641-14.022-8.565c-4.51-0.714-8.978-0.326-13.373,0.676c-0.095,0.32,0.03,0.428,0.246,0.476
		c3.106,0.692,6.209,1.396,9.318,2.074c1.866,0.407,3.747,0.745,5.607,1.174c0.657,0.152,1.321,0.403,1.897,0.75
		c1.389,0.837,1.904,2.201,1.551,3.786c-0.283,1.269-0.879,2.382-1.663,3.406c-0.29,0.379-0.572,0.764-0.926,1.237
		c0.432,0.219,0.759,0.405,1.103,0.555c1.571,0.685,3.151,1.35,4.718,2.043c0.536,0.237,1.071,0.493,1.562,0.811
		c1.554,1.005,1.951,2.261,1.127,3.896c-0.481,0.955-1.088,1.866-1.756,2.703c-1.731,2.172-3.889,3.861-6.279,5.254
		c-3.206,1.868-6.677,3.046-10.293,3.797c-1.436,0.298-2.901,0.452-4.353,0.675c-0.43,0.066-0.86,0.141-1.402,0.231
		c0.158,0.289,0.246,0.502,0.378,0.683c3.052,4.203,5.385,8.755,6.715,13.795c0.25,0.948,0.5,1.896,0.443,2.893
		c-0.09,1.577-0.852,2.694-2.325,3.256c-0.634,0.242-1.317,0.399-1.992,0.48c-4.41,0.529-8.701,0.108-12.815-1.673
		c-1.535-0.665-2.975-1.493-4.381-2.391c-0.32-0.204-0.657-0.381-1.125-0.65c0.052,0.336,0.051,0.525,0.112,0.692
		c1.296,3.508,2.033,7.16,2.716,10.819c0.505,2.702,1.16,5.36,1.986,7.979c0.133,0.42,0.277,0.84,0.37,1.269
		c0.316,1.464-0.198,2.607-1.518,3.332c-0.829,0.455-1.733,0.653-2.679,0.693c-1.882,0.081-3.712-0.214-5.509-0.743
		c-3.867-1.139-7.274-3.124-10.387-5.65c-0.374-0.303-0.743-0.612-1.087-0.895c-0.434,0.191-0.338,0.519-0.347,0.781
		c-0.155,4.465-1.705,8.517-3.671,12.447c-0.686,1.371-1.733,2.227-3.324,2.294c-0.094,0.004-0.186,0.053-0.311,0.092
		c-0.066,0.097-0.171,0.205-0.224,0.335c-1.572,3.825-3.988,7.072-6.864,9.997c-2.443,2.485-5.08,4.757-7.802,6.93
		c-5.977,4.77-11.882,9.628-17.682,14.612c-0.666,0.572-1.382,1.101-2.131,1.558c-1.706,1.042-4.286,1.143-6.039-1.135
		c-0.417-0.542-0.811-1.11-1.15-1.703c-0.657-1.148-1.262-2.325-1.9-3.484c-1.936-3.52-3.873-7.04-5.824-10.552
		c-0.176-0.317-0.27-0.743-0.784-0.856c-0.304,1.051-0.42,2.103-0.379,3.169c0.194,4.946,1.681,9.419,4.86,13.278
		c1.439,1.747,3.025,3.342,4.76,4.792c1.279,1.069,2.561,2.133,3.824,3.22c1.601,1.378,3.109,2.855,4.388,4.54
		c3.964,5.223,4.831,11.009,3.024,17.244c-0.37,1.276-0.978,2.457-1.729,3.556c-0.357,0.523-0.724,1.048-1.411,1.35
		c-0.144-0.322-0.3-0.613-0.406-0.92c-1.157-3.371-2.859-6.446-5.062-9.238c-1.275-1.615-2.624-3.172-3.924-4.767
		c-1.919-2.355-3.857-4.696-5.727-7.089c-2.751-3.52-4.214-7.597-4.978-11.952c-0.144-0.82-0.231-1.649-0.355-2.473
		c-0.026-0.172-0.098-0.336-0.194-0.654c-0.159,0.243-0.267,0.339-0.286,0.45c-0.579,3.359-1.659,6.549-3.268,9.553
		c-0.345,0.645-0.465,1.239-0.236,1.955c0.351,1.098,0.244,2.241,0.076,3.355c-0.22,1.451-0.532,2.889-0.808,4.332
		c-0.073,0.384-0.176,0.764-0.238,1.15c-0.16,0.999-0.027,1.915,0.543,2.807c1.01,1.582,1.721,3.312,1.978,5.182
		c0.343,2.492,0.333,4.99-0.222,7.455c-0.148,0.657-0.421,1.315-0.767,1.893c-0.641,1.071-1.614,1.371-2.787,0.955
		c-0.411-0.146-0.802-0.348-1.237-0.539c-0.242,0.179-0.482,0.344-0.707,0.526c-1.642,1.332-3.485,1.705-5.521,1.165
		c-0.568-0.151-1.142-0.281-1.702-0.457c-1.377-0.432-2.765-0.62-4.203-0.338c-0.429,0.084-0.878,0.094-1.318,0.088
		c-1.918-0.026-3.39-0.848-4.36-2.517c-0.269-0.464-0.495-0.953-0.758-1.463c-0.905-0.096-1.841-0.116-2.738-0.312
		c-0.896-0.197-1.754-0.571-2.79-0.922c-3.056,2.26-5.844,4.982-8.148,8.183c-2.291,3.183-4.175,6.602-5.691,10.35
		c-0.282-0.242-0.479-0.377-0.634-0.55c-2.995-3.34-6.44-6.166-10.063-8.782c-1.788-1.291-3.618-2.522-5.439-3.766
		c-2.712-1.854-5.392-3.749-7.929-5.84c-4.008-3.305-7.447-7.092-9.937-11.689c-1.428-2.637-2.557-5.398-3.477-8.248
		c-0.09-0.278-0.202-0.548-0.312-0.819c-0.016-0.039-0.074-0.06-0.185-0.145c-0.098,0.213-0.213,0.402-0.274,0.607
		c-0.504,1.694-0.871,3.415-1.047,5.177c-0.063,0.627-0.166,1.25-0.266,1.983c-0.372-0.183-0.641-0.283-0.876-0.436
		c-4.01-2.617-7.626-5.693-10.59-9.463c-1.359-1.729-2.515-3.618-3.745-5.447c-0.437-0.65-0.815-1.34-1.233-2.002
		c-0.092-0.146-0.243-0.255-0.469-0.485c-0.441,2.05-0.769,3.969-1.279,5.838c-0.501,1.839-1.132,3.649-1.807,5.433
		c-0.689,1.821-1.521,3.585-2.594,5.308c-0.181-0.155-0.313-0.22-0.373-0.326c-2.485-4.409-5.447-8.497-8.481-12.532
		c-4.715-6.273-9.65-12.366-15.095-18.03c-3.601-3.746-7.228-7.467-10.817-11.224c-3.59-3.759-7.093-7.595-10.236-11.745
		c-2.706-3.572-5.014-7.371-6.613-11.575c-0.733-1.926-1.334-3.891-1.71-5.921c-0.034-0.181-0.107-0.355-0.15-0.496
		c-0.439-0.126-0.597,0.178-0.78,0.373c-1.971,2.116-3.93,4.243-5.896,6.364c-0.425,0.459-0.783,0.994-1.316,1.268
		c-0.429-0.102-0.468-0.437-0.572-0.685c-1.585-3.793-2.471-7.738-2.504-11.858c-0.016-2.059,0.008-4.118,0.014-6.177
		c0.001-0.337,0-0.674,0-0.979c-0.398-0.231-0.603,0.05-0.837,0.195c-2.372,1.472-4.711,3.002-7.119,4.411
		c-2.711,1.586-5.569,2.876-8.575,3.81c-0.69,0.215-1.376,0.517-2.22,0.385c0.058-0.218,0.071-0.405,0.152-0.555
		c3.393-6.253,5.514-12.964,7.165-19.845c0.891-3.714,1.688-7.454,2.676-11.142c1.394-5.206,3.701-10.004,6.856-14.384
		c1.064-1.477,2.277-2.822,3.631-4.038c0.582-0.523,1.194-1.004,2.033-1.484c-0.044,0.314-0.028,0.491-0.094,0.628
		c-0.341,0.706-0.686,1.41-1.059,2.099c-3.085,5.689-5.156,11.731-6.4,18.076c-0.745,3.796-1.525,7.586-2.547,11.323
		c-0.712,2.602-1.581,5.15-2.551,7.664c-0.135,0.351-0.264,0.697-0.427,1.267c0.498-0.25,0.817-0.355,1.073-0.546
		c1.65-1.229,3.3-2.458,4.923-3.721c3.365-2.619,6.712-5.261,10.069-7.889c0.145-0.113,0.32-0.187,0.456-0.265
		c0.36,0.178,0.25,0.451,0.229,0.664c-0.113,1.17-0.236,2.34-0.376,3.507c-0.581,4.839-0.427,9.689-0.189,14.538
		c0.046,0.929,0.18,1.853,0.282,2.779c0.009,0.082,0.088,0.157,0.136,0.238c0.367,0.11,0.515-0.204,0.716-0.389
		c2.245-2.066,4.687-3.864,7.34-5.37c0.326-0.185,0.686-0.311,1.14-0.513c0.068,0.65,0.132,1.172,0.177,1.697
		c0.729,8.551,3.893,16.125,9.15,22.866c2.747,3.523,5.73,6.834,8.852,10.026c2.913,2.979,5.822,5.962,8.698,8.977
		c6.928,7.262,13.06,15.134,18.117,23.821c0.218,0.375,0.464,0.734,0.688,1.086c0.434-0.096,0.431-0.43,0.488-0.682
		c0.564-2.533,1.149-5.062,1.655-7.607c0.63-3.17,1.195-6.353,1.777-9.533c0.097-0.529,0.127-1.071,0.217-1.602
		c0.037-0.221,0.149-0.428,0.28-0.787c2.921,3.991,5.675,7.914,8.706,11.632c1.971,2.418,8.475,8.883,10.094,10.167
		c0.502-0.645,1-1.298,1.512-1.94c0.52-0.651,1.05-1.294,1.583-1.935c0.501-0.603,1.004-1.205,1.518-1.798
		c0.541-0.625,1.06-1.272,1.768-1.96c0.139,0.442,0.272,0.739,0.323,1.048c0.537,3.297,1.371,6.517,2.461,9.672
		c1.887,5.459,4.887,10.239,8.827,14.443c2.316,2.471,4.801,4.764,7.34,7.001c1.581,1.393,3.157,2.794,4.723,4.204
		c3.088,2.779,5.689,5.943,7.584,9.661c0.109,0.215,0.263,0.407,0.403,0.605c0.021,0.03,0.08,0.033,0.122,0.049
		c0.075-0.053,0.203-0.094,0.217-0.16c1.294-5.79,4.312-10.677,7.965-15.231c1.228-1.532,2.544-2.985,4.005-4.3
		c0.217-0.196,0.47-0.352,0.597-0.445c-0.376-4.093,0.238-4.598,1.838-6.346c-0.082-1.246,0.332-2.495,0.741-3.755
		c0.224-0.69,0.312-1.43,0.405-2.155c0.241-1.884,0.882-2.639,2.737-3.165c1.304-0.37,2.63-0.377,3.927-0.068
		c1.569,0.374,3.11,0.866,4.662,1.311c0.235,0.067,0.469,0.146,0.691,0.247c2.433,1.106,4.691,0.52,6.866-0.729
		c0.549-0.315,1.055-0.714,1.547-1.116c1.176-0.96,2.287-2.007,3.656-2.703c0.523-0.266,0.753-0.764,0.991-1.239
		c1.011-2.019,1.829-4.117,2.489-6.276c0.184-0.602,0.399-1.197,0.478-1.993c-0.28,0.257-0.472,0.389-0.608,0.565
		c-2.303,2.964-5.362,4.847-8.833,6.097c-3.05,1.099-6.193,1.819-9.428,2.157c-3.848,0.402-7.71,0.722-11.515,1.457
		c-1.825,0.353-3.631,0.805-5.446,1.211c-0.234,0.052-0.468,0.104-0.771,0.171c-0.374-1.359-0.216-2.66,0.016-3.95
		c0.103-0.574,0.275-1.152,0.518-1.682c2.276-4.979,5.98-8.16,11.494-8.997c2.914-0.443,5.864-0.409,8.798-0.583
		c3.037-0.18,6.05-0.582,8.971-1.457c1.165-0.349,2.295-0.848,3.391-1.383c2.495-1.217,3.975-3.266,4.64-5.932
		c0.105-0.42,0.171-0.85,0.249-1.248c-0.3-0.283-0.508-0.059-0.689,0.036c-5.218,2.76-10.777,4.665-16.356,6.518
		c-0.37,0.123-0.754,0.219-1.139,0.275c-2.185,0.319-4.022-0.794-4.635-2.923c-0.324-1.123-0.441-2.306-0.651-3.462
		c-0.068-0.375-0.134-0.75-0.222-1.241c-0.31,0.091-0.537,0.135-0.747,0.221c-5.632,2.302-11.507,3.519-17.562,3.913
		c-5.9,0.383-11.753,0.042-17.532-1.265c-2.634-0.596-5.184-1.449-7.654-2.546c-3.97-1.763-7.079-4.513-9.405-8.167
		c-0.105-0.165-0.222-0.326-0.306-0.502c-0.463-0.96-1.174-1.584-2.157-2.069c-2.821-1.391-5.056-3.509-6.943-6.005
		c-0.294-0.389-0.572-0.791-0.908-1.258c-0.266,0.158-0.527,0.271-0.738,0.444c-4.555,3.736-8.372,8.104-11.294,13.235
		c-0.194,0.34-0.367,0.697-0.598,1.01c-0.481,0.65-1.308,0.831-1.954,0.461c-0.561-0.321-0.897-1.157-0.587-1.793
		c0.214-0.44,0.417-0.886,0.66-1.31c3.012-5.244,6.908-9.739,11.539-13.612c0.448-0.375,0.896-0.751,1.416-1.187
		c-0.712-1.672-1.415-3.324-2.121-4.983c-0.623-0.13-1.076,0.221-1.543,0.43c-5.08,2.281-9.761,5.212-14.089,8.709
		c-3.944,3.186-7.498,6.756-10.596,10.775c-0.209,0.272-0.412,0.553-0.654,0.793c-0.612,0.606-1.39,0.674-1.987,0.204
		c-0.582-0.458-0.722-1.265-0.287-1.987c0.277-0.459,0.622-0.88,0.955-1.303c3.355-4.255,7.187-8.032,11.445-11.378
		c4.491-3.529,9.333-6.476,14.564-8.779c0.349-0.154,0.681-0.344,1.054-0.534c-0.48-1.397-0.856-2.755-1.502-3.993
		c-0.737-0.048-1.306,0.275-1.895,0.482c-6.074,2.135-11.842,4.926-17.384,8.192c-3.974,2.342-7.786,4.923-11.402,7.79
		c-0.306,0.242-0.62,0.487-0.964,0.665c-0.683,0.355-1.391,0.176-1.828-0.414c-0.402-0.543-0.406-1.208,0.061-1.761
		c0.281-0.332,0.636-0.608,0.98-0.881c3.459-2.748,7.1-5.234,10.888-7.503c6.195-3.71,12.659-6.852,19.506-9.179
		c0.273-0.093,0.536-0.217,0.866-0.352c-0.176-1.082-0.825-1.975-1.104-3.178c1.239,0.794,1.966,1.876,2.941,2.593
		c1.832-0.427,3.585-0.873,5.355-1.239c2.403-0.498,4.831-0.823,7.295-0.755c0.39,0.011,0.792,0.005,1.167,0.095
		c0.729,0.175,1.188,0.828,1.134,1.514c-0.055,0.694-0.587,1.239-1.35,1.32c-0.437,0.046-0.881,0.021-1.322,0.023
		c-3.158,0.016-6.234,0.586-9.276,1.385c-0.139,0.037-0.269,0.109-0.481,0.196c0.363,0.733,0.993,1.21,1.506,1.774
		c0.489,0.538,0.914,1.147,1.496,1.544c1.817-0.415,3.57-0.868,5.345-1.202c1.344-0.253,2.716-0.364,4.078-0.517
		c0.337-0.038,0.689-0.027,1.024,0.026c0.624,0.097,1.056,0.574,1.132,1.182c0.079,0.629-0.186,1.235-0.765,1.445
		c-0.496,0.18-1.041,0.263-1.572,0.307c-2.213,0.181-5.049,0.707-6.853,1.322c0.102,0.209,0.163,0.44,0.303,0.601
		c0.739,0.845,1.499,1.672,2.283,2.541c0.462-0.182,0.865-0.337,1.264-0.499c1.64-0.664,3.308-1.228,5.083-1.387
		c0.383-0.034,0.787-0.035,1.16,0.047c0.605,0.132,1.007,0.668,1.046,1.266c0.038,0.586-0.309,1.2-0.882,1.392
		c-0.46,0.154-0.952,0.228-1.436,0.294c-1.175,0.159-2.288,0.525-3.383,0.959c-0.123,0.049-0.217,0.171-0.344,0.276
		c0.081,0.147,0.122,0.293,0.217,0.386c2.654,2.609,5.675,4.666,9.182,5.95c2.002,0.733,4.081,1.064,6.211,0.723
		c0.767-0.123,1.545-0.314,2.256-0.618c3.192-1.368,6.021-3.268,8.331-5.891c0.123-0.14,0.214-0.31,0.374-0.547
		c-0.26-0.131-0.457-0.258-0.673-0.335c-2.295-0.827-4.325-2.108-6.075-3.78c-4.041-3.862-7.019-8.421-8.63-13.802
		c-0.84-2.806-1.054-5.68-0.478-8.577c0.693-3.485,2.555-6.22,5.431-8.267c2.471-1.759,5.233-2.862,8.192-3.479
		c1.681-0.35,3.38-0.569,5.1-0.628c1.665-0.058,3.331-0.238,4.992-0.193c2.986,0.081,5.977,0.194,8.918,0.81
		c2.711,0.568,5.267,1.533,7.59,3.052c4.118,2.691,6.256,6.492,6.368,11.432c0.077,3.409-0.752,6.609-2.192,9.658
		c-1.452,3.075-3.326,5.888-5.613,8.409c-2.169,2.392-4.69,4.299-7.769,5.394c-0.173,0.062-0.328,0.173-0.574,0.306
		c0.177,0.251,0.292,0.454,0.443,0.624c2.285,2.577,5.085,4.435,8.217,5.809c1.269,0.557,2.609,0.81,4.083,0.721
		c0.065-0.223,0.182-0.443,0.185-0.666c0.154-9.324,3.528-17.478,9.035-24.852c1.055-1.413,2.18-2.774,3.271-4.161
		c0.297-0.377,0.588-0.76,0.9-1.164c-0.584-0.284-0.928,0.125-1.32,0.256c-0.698,0.234-1.374,0.511-2.131,0.495
		c-1.145-0.025-1.834-0.504-2.14-1.637c-0.178-0.657-0.277-1.345-0.323-2.025c-0.157-2.315,0.108-4.599,0.596-6.861
		c0.955-4.429,2.69-8.492,5.666-11.96c0.637-0.743,1.341-1.429,2.017-2.138c0.198-0.208,0.405-0.406,0.655-0.655
		c-0.179-0.119-0.285-0.251-0.391-0.251c-4.134-0.009-8.059-1.058-11.854-2.561c-3.275-1.297-6.458-2.827-9.701-4.21
		c-2.073-0.884-1.992-3.127-0.844-4.379c0.295-0.321,0.648-0.601,1.011-0.844c0.529-0.353,1.085-0.668,1.64-0.978
		c1.626-0.907,3.26-1.799,4.885-2.707c0.334-0.186,0.643-0.416,1.241-0.808c-0.534,0.047-0.743,0.056-0.95,0.086
		c-2.179,0.307-4.302,0.012-6.384-0.625c-2.301-0.703-4.499-1.669-6.652-2.73c-1.427-0.704-1.723-1.438-1.329-2.994
		c0.094-0.373,0.196-0.745,0.311-1.182c-0.375-0.189-0.705-0.384-1.056-0.529c-4.242-1.748-7.766-4.528-11.042-7.667
		c-0.981-0.94-1.076-2.053-0.599-3.238c0.236-0.585,0.599-1.119,0.953-1.764c-0.131-0.176-0.28-0.42-0.47-0.625
		c-1.239-1.341-2.284-2.82-3.092-4.454c-1.389-2.81-2.751-5.635-4.111-8.459c-0.212-0.439-0.398-0.899-0.526-1.368
		c-0.376-1.378,0.023-2.543,1.232-3.318c0.607-0.389,1.309-0.684,2.009-0.861c3.533-0.892,7.119-1.36,10.773-1.165
		c0.481,0.026,0.965,0.004,1.476,0.004c0.101-0.28,0.193-0.502,0.261-0.73c0.401-1.349,1.367-2.129,2.652-2.518
		c0.649-0.197,1.342-0.299,2.022-0.339c3.084-0.179,6.049,0.329,8.882,1.593c0.661,0.295,1.289,0.693,1.998,0.803
		c1.963-1.968,1.963-1.968,5.112-2.171c-0.054-0.277-0.079-0.552-0.162-0.807c-1.582-4.836-2.306-9.813-2.458-14.885
		c-0.058-1.96-0.116-3.92-0.197-5.879c-0.103-2.52,0.785-3.944,3.427-4.797c1.669-0.539,3.415-0.896,5.153-1.151
		c2.861-0.419,5.745-0.659,8.644-0.613c4.387,0.07,8.7,0.569,12.823,2.188c0.212,0.083,0.445,0.11,0.634,0.155
		c0.257-0.318,0.085-0.529,0.009-0.745c-0.489-1.384-0.986-2.766-1.464-4.155c-0.127-0.369-0.206-0.756-0.287-1.139
		c-0.278-1.304,0.194-2.324,1.266-3.045c0.52-0.35,1.127-0.571,1.785-0.895c0.021-0.265,0.091-0.599,0.066-0.927
		c-0.114-1.514-0.279-3.025-0.379-4.54c-0.081-1.222-0.09-2.448-0.144-3.672c-0.012-0.281-0.08-0.56-0.132-0.909
		c-0.544,0.131-1.015,0.24-1.484,0.359c-1.186,0.302-2.37,0.61-3.555,0.914c-0.19,0.049-0.379,0.101-0.572,0.135
		c-2.564,0.46-4.657-0.281-6.134-2.48c-0.627-0.934-1.237-1.889-1.745-2.891c-1.72-3.387-3.909-6.444-6.349-9.341
		c-1.136-1.348-2.237-2.732-3.26-4.167c-1.665-2.334-2.889-4.887-3.49-7.713c-0.703-3.305-0.323-6.527,0.726-9.7
		c0.028-0.086,0.116-0.152,0.175-0.227c-0.035-0.078-0.07-0.156-0.105-0.234C271.646,172.609,271.677,172.691,271.707,172.772z
		 M305.739,299.005c0.038,0.442,0.041,0.59,0.064,0.735c0.272,1.691,0.513,3.388,0.833,5.07c0.196,1.032,0.699,1.95,1.511,2.633
		c1.274,1.072,2.099,2.43,2.756,3.934c0.27,0.618,0.62,1.253,1.091,1.722c1.328,1.326,2.433,2.808,3.458,4.372
		c0.987,1.506,2.412,2.404,4.193,2.724c0.578,0.104,1.156,0.212,1.731,0.336c1.599,0.343,3.087,0.946,4.414,1.918
		c0.672,0.492,1.373,0.95,2.011,1.483c1.141,0.953,2.424,1.219,3.852,0.931c2.198-0.445,4.385-0.401,6.553,0.178
		c0.894,0.238,1.751,0.128,2.588-0.21c0.453-0.183,0.908-0.376,1.332-0.618c1.198-0.684,2.458-1.224,3.783-1.591
		c1.191-0.33,2.145-0.985,2.827-1.984c1.006-1.473,2.229-2.734,3.594-3.861c0.866-0.715,1.422-1.58,1.68-2.68
		c0.303-1.293,0.789-2.524,1.507-3.652c0.323-0.507,0.449-1.063,0.51-1.664c0.094-0.923,0.272-1.838,0.429-2.754
		c0.108-0.627,0.233-1.252,0.365-1.874c0.212-1.003,0.414-2.009,0.662-3.003c0.309-1.239,0.623-2.475,0.395-3.765
		c-0.307-1.741-0.524-3.489-0.497-5.26c0.018-1.199-0.267-2.33-0.726-3.426c-0.208-0.497-0.473-0.974-0.637-1.484
		c-0.254-0.789-0.569-1.588-0.636-2.401c-0.121-1.473-0.646-2.742-1.484-3.929c-0.62-0.879-1.186-1.798-1.769-2.703
		c-0.853-1.325-1.996-2.135-3.638-2.08c-0.196,0.007-0.392-0.008-0.588-0.005c-1.767,0.023-3.385-0.461-4.864-1.42
		c-0.617-0.4-1.243-0.786-1.842-1.211c-0.956-0.679-1.994-0.984-3.176-0.917c-1.173,0.067-2.352,0.044-3.528,0.054
		c-1.2,0.01-2.361-0.232-3.385-0.839c-1.044-0.619-2.09-0.767-3.234-0.422c-0.374,0.113-0.764,0.17-1.138,0.284
		c-2.343,0.714-4.677,1.47-7.164,1.495c-0.465,0.005-0.855,0.194-1.194,0.496c-0.256,0.228-0.52,0.451-0.748,0.706
		c-1.387,1.55-2.997,2.832-4.802,3.841c-1.425,0.797-2.263,1.979-2.715,3.496c-0.112,0.376-0.218,0.753-0.33,1.128
		c-0.347,1.173-0.714,2.341-1.038,3.521c-0.273,0.99-0.589,1.981-0.724,2.993c-0.274,2.048-0.699,4.051-1.388,5.999
		c-0.212,0.6-0.411,1.208-0.554,1.827C305.913,297.838,305.816,298.566,305.739,299.005z M279.346,275.195
		c-0.285-0.283-0.402-0.435-0.552-0.542c-3.21-2.293-5.931-5.112-8.592-7.994c-0.332-0.359-0.651-0.735-0.938-1.13
		c-0.767-1.055-0.801-2.174-0.231-3.327c0.359-0.725,0.915-1.262,1.602-1.675c0.319-0.192,0.629-0.399,0.904-0.575
		c-0.186-1.092-0.785-1.653-1.722-1.899c-0.614-0.161-1.216-0.398-1.839-0.49c-1.358-0.199-1.629-0.524-2.709,0.765
		c-0.93,1.11-2.235,1.341-3.621,0.826c-0.78-0.29-1.556-0.589-2.329-0.896c-1.37-0.545-2.771-0.984-4.236-1.162
		c-1.349-0.163-2.705-0.347-4.035-0.065c-0.154,0.556-0.241,1.044-0.424,1.494c-0.442,1.086-1.225,1.755-2.443,1.803
		c-0.391,0.015-0.783-0.007-1.175-0.014c-2.497-0.043-4.996-0.161-7.484,0.19c-1.297,0.183-2.59,0.376-3.931,0.774
		c0.087,0.294,0.124,0.532,0.224,0.74c1.234,2.558,2.452,5.124,3.728,7.661c0.93,1.848,2.083,3.548,3.68,4.906
		c0.149,0.127,0.288,0.266,0.424,0.407c0.652,0.682,0.737,1.479,0.38,2.309c-0.171,0.397-0.46,0.745-0.714,1.102
		c-0.274,0.387-0.569,0.76-0.822,1.096c0.096,0.187,0.125,0.287,0.187,0.358c2.765,3.122,5.976,5.638,9.86,7.24
		c0.587,0.242,1.177,0.493,1.727,0.807c0.668,0.382,0.899,1.018,0.763,1.762c-0.061,0.333-0.213,0.649-0.321,0.974
		c-0.12,0.363-0.236,0.727-0.339,1.046c0.133,0.142,0.186,0.239,0.267,0.278c2.121,1.007,4.22,2.065,6.469,2.777
		c2.236,0.708,4.502,0.957,6.808,0.445c1.001-0.222,1.982-0.538,2.965-0.834c0.201-0.061,0.372-0.223,0.686-0.42
		c-0.797-0.407-1.452-0.731-2.096-1.074c-1.945-1.033-3.893-2.061-5.824-3.12c-0.598-0.328-1.179-0.71-1.706-1.142
		c-1.22-1.001-1.218-2.159-0.034-3.233c0.253-0.23,0.523-0.448,0.812-0.63c0.87-0.546,1.728-1.119,2.636-1.597
		c2.993-1.576,6.056-2.989,9.343-3.86c0.156-0.041,0.28-0.202,0.531-0.392c-0.346-0.07-0.53-0.114-0.715-0.144
		c-3.623-0.588-7.251-1.153-10.869-1.768c-3.644-0.619-7.138-1.707-10.373-3.533c-2.398-1.354-4.66-2.896-6.534-4.944
		c-0.329-0.359-0.623-0.754-0.9-1.156c-0.215-0.312-0.163-0.651,0.035-0.967c0.357-0.567,0.91-0.741,1.515-0.386
		c0.589,0.346,1.146,0.752,1.69,1.168c2.997,2.296,6.369,3.822,9.973,4.864c3.78,1.093,7.668,1.572,11.569,1.946
		c2.634,0.252,5.253,0.595,7.846,1.124C278.68,275.134,278.91,275.144,279.346,275.195z M311.753,185.506
		c-0.463,0.311-0.742,0.487-1.009,0.68c-2.913,2.109-6.066,2.848-9.576,1.755c-1.213-0.378-2.45-0.696-3.694-0.952
		c-2.546-0.524-5.124-0.798-7.723-0.906c-0.828-0.035-1.662-0.13-2.473-0.298c-1.416-0.293-2.356-1.177-2.734-2.573
		c-0.191-0.704-0.302-1.439-0.359-2.167c-0.114-1.465-0.192-2.933-0.236-4.402c-0.053-1.773-0.339-3.506-0.776-5.219
		c-0.205-0.806-0.437-1.606-0.635-2.414c-0.489-2-0.931-4.007-0.861-6.088c0.002-0.055-0.127-0.115-0.195-0.173
		c-0.083,0.038-0.189,0.055-0.246,0.118c-2.457,2.698-4.59,5.635-5.982,9.016c-1.829,4.444-1.989,8.938,0.036,13.406
		c0.71,1.567,1.53,3.07,2.533,4.464c0.829,1.152,1.692,2.283,2.594,3.379c2.464,2.996,4.7,6.143,6.538,9.567
		c0.416,0.774,0.908,1.511,1.406,2.236c0.275,0.4,0.618,0.759,0.961,1.106c0.559,0.564,1.208,0.767,2.008,0.517
		c1.4-0.438,2.821-0.812,4.224-1.243c1.829-0.562,3.688-0.974,5.58-1.255c1.064-0.158,2.12-0.38,3.185-0.532
		c1.644-0.235,3.081-0.934,4.404-1.898c0.554-0.404,1.076-0.851,1.632-1.251c0.794-0.57,1.607-1.115,2.412-1.67
		c0.23-0.159,0.461-0.317,0.745-0.512C311.686,194.175,311.162,190.016,311.753,185.506z M315.994,183.985
		c-0.117,0.076-0.189,0.098-0.192,0.129c-0.089,0.777-0.178,1.554-0.252,2.332c-0.357,3.726,0.228,7.321,1.524,10.814
		c0.413,1.113,1.013,2.122,1.762,3.037c0.307,0.375,0.669,0.716,1.049,1.019c0.503,0.402,1.06,0.467,1.637,0.107
		c0.706-0.441,1.408-0.89,2.134-1.295c1.109-0.62,2.209-1.267,3.365-1.79c1.431-0.648,2.946-1.052,4.525-1.186
		c1.937-0.164,3.811,0.042,5.594,0.87c1.42,0.66,2.826,1.355,4.273,1.949c1.654,0.679,2.282,0.466,3.133-1.074
		c0.542-0.981,1.003-2.018,1.384-3.073c0.506-1.402,1.202-2.673,2.149-3.818c0.593-0.717,1.18-1.441,1.735-2.188
		c1.585-2.131,3.412-4.035,5.327-5.868c1.166-1.116,2.276-2.299,3.33-3.521c0.601-0.697,1.16-1.482,1.523-2.321
		c0.91-2.103,0.838-4.197-0.447-6.166c-0.294-0.45-0.618-0.886-0.975-1.287c-1.988-2.236-4.118-4.33-6.358-6.313
		c-0.176-0.155-0.384-0.273-0.555-0.393c-0.999,0.638-1.937,1.238-2.95,1.885c0.159,1.731-0.325,3.442-0.531,5.185
		c-0.132,1.115-0.206,2.243-0.209,3.365c-0.002,1.026,0.166,2.051,0.187,3.079c0.021,1.024,0.011,2.056-0.092,3.074
		c-0.177,1.752-1.142,2.999-2.722,3.735c-1.296,0.604-2.655,1.019-4.11,0.96c-1.125-0.046-2.25-0.104-3.371-0.196
		c-1.708-0.141-3.413-0.322-5.119-0.476c-2.109-0.19-4.091,0.217-5.936,1.27c-0.552,0.315-1.114,0.616-1.685,0.896
		c-1.537,0.752-3.115,0.771-4.708,0.203c-0.929-0.331-1.781-0.817-2.549-1.436c-0.495-0.399-0.957-0.839-1.444-1.249
		C316.281,184.13,316.112,184.056,315.994,183.985z M325.901,161.914c0.692,0.145,1.253,0.319,1.824,0.368
		c0.828,0.071,1.664,0.09,2.495,0.064c4.461-0.142,8.914-0.131,13.343,0.529c0.677,0.101,1.362,0.154,2.043,0.228
		c1.586,0.172,2.615-0.626,3.301-1.952c0.268-0.518,0.439-1.088,0.64-1.639c0.596-1.636,1.507-3.072,2.726-4.314
		c0.412-0.42,0.799-0.871,1.251-1.242c1.277-1.046,1.759-2.433,1.796-4.019c0.032-1.371-0.017-2.746,0.067-4.113
		c0.144-2.338-0.238-4.564-1.045-6.762c-0.695-1.891-0.646-3.849-0.022-5.773c0.226-0.698,0.508-1.378,0.744-2.073
		c0.155-0.455,0.419-0.898,0.196-1.535c-0.276-0.107-0.62-0.302-0.987-0.368c-0.624-0.112-1.262-0.161-1.897-0.202
		c-2.15-0.14-4.301-0.258-6.45-0.4c-0.782-0.052-1.563-0.128-2.34-0.224c-2.206-0.274-4.287,0.163-6.286,1.076
		c-0.255,0.116-0.487,0.281-0.714,0.413c0.048,0.169,0.058,0.27,0.102,0.354c1.56,2.985,1.832,6.183,1.403,9.442
		c-0.687,5.223-2.461,10.068-5.409,14.452c-0.901,1.34-1.88,2.63-2.843,3.927c-1.001,1.349-2.131,2.561-3.672,3.319
		C326.099,161.507,326.071,161.626,325.901,161.914z M306.26,126.875c-0.664-1.482-1.443-2.716-2.474-3.783
		c-1.483-1.536-2.692-1.818-4.625-0.978c-1.029,0.447-2.024,0.986-2.991,1.558c-2.442,1.446-4.876,2.908-7.281,4.416
		c-1.45,0.909-2.841,1.913-4.253,2.881c-2.501,1.714-3.812,4.137-4.216,7.098c-0.033,0.242-0.063,0.486-0.08,0.73
		c-0.174,2.49-0.386,4.978-0.506,7.471c-0.106,2.222-0.503,4.37-1.306,6.444c-0.124,0.319-0.219,0.649-0.338,0.97
		c-0.193,0.519-0.053,0.993,0.296,1.36c0.296,0.31,0.665,0.586,1.054,0.761c0.756,0.34,1.537,0.638,2.329,0.884
		c2.86,0.889,5.599,2.055,8.231,3.48c1.161,0.629,2.309,1.293,3.508,1.841c1.197,0.547,2.44,0.999,3.682,1.44
		c1.689,0.6,3.274,0.248,4.786-0.621c1.119-0.643,3.321-2.443,4.45-3.682c-0.323-0.138-0.618-0.27-0.916-0.391
		c-0.951-0.387-1.917-0.739-2.853-1.159c-3.407-1.531-6.077-3.907-7.963-7.132c-0.715-1.223-1.362-2.49-1.974-3.769
		c-0.594-1.241-1.011-2.556-1.108-3.937c-0.047-0.675-0.017-1.375,0.113-2.037c0.262-1.336,1.149-2.144,2.501-2.316
		c0.625-0.08,1.268-0.038,1.902-0.032c1.076,0.01,2.153,0.076,3.227,0.04c0.666-0.023,1.356-0.09,1.96-0.517
		c-0.031-0.322-0.076-0.611-0.083-0.901c-0.029-1.173-0.151-2.356-0.049-3.519c0.247-2.829,1.49-5.039,4.221-6.208
		C305.725,127.172,305.931,127.046,306.26,126.875z M271.682,389.08c0.601-0.167,1.026-0.258,1.432-0.401
		c3.555-1.255,7.12-2.481,10.654-3.793c2.944-1.093,5.751-2.493,8.436-4.126c0.315-0.192,0.746-0.295,0.828-0.826
		c-0.169-0.299-0.357-0.641-0.552-0.978c-1.749-3.012-3.352-6.098-4.596-9.356c-1.969-5.158-3.365-10.441-3.348-16.017
		c0-0.134-0.082-0.269-0.13-0.418c-0.195-0.065-0.375-0.158-0.564-0.183c-1.618-0.211-2.486-1.163-2.882-2.713
		c-0.51-1.999-1.007-3.991-0.959-6.075c0.004-0.19,0.004-0.393-0.267-0.415c-0.044,0.016-0.109,0.018-0.134,0.051
		c-2.689,3.506-5.165,7.152-7.073,11.15c-1.379,2.89-2.339,5.918-2.788,9.097c-0.595,4.207-0.463,8.404,0.175,12.595
		c0.376,2.47,0.739,4.941,1.093,7.414C271.236,385.681,271.44,387.281,271.682,389.08z M360.049,309.91
		c2.96,2.043,5.85,4.054,9.072,5.527c2.822,1.29,5.745,2.26,8.834,2.614c2.777,0.318,5.562,0.436,8.359,0.14
		c3.882-0.41,7.618-1.336,11.127-3.057c2.849-1.397,5.342-3.275,7.258-5.844c0.434-0.582,0.802-1.213,1.176-1.784
		c-0.366-0.543-0.888-0.608-1.325-0.803c-1.655-0.736-3.354-1.377-4.98-2.168c-4.613-2.245-9.567-3.114-14.591-3.684
		c-3.705-0.42-7.431-0.42-11.156-0.344c-3.293,0.067-6.542,0.48-9.751,1.2c-0.946,0.212-1.907,0.404-2.826,0.828
		C360.845,305.007,360.447,307.456,360.049,309.91z M312.266,160.836c-0.132,0.226-0.239,0.341-0.27,0.474
		c-0.332,1.43-0.746,2.85-0.955,4.299c-0.365,2.524-0.188,5.014,1.202,7.247c2.283,3.667,4.878,7.11,7.73,10.352
		c0.572,0.65,1.318,1.167,2.044,1.657c0.744,0.502,1.565,0.502,2.366,0.049c0.725-0.41,1.452-0.815,2.183-1.213
		c1.966-1.069,4.063-1.708,6.303-1.787c1.517-0.053,3.038-0.071,4.554-0.018c1.713,0.06,3.421,0.261,5.134,0.319
		c2.309,0.078,2.732-0.388,2.79-2.541c0.033-1.222-0.095-2.447-0.109-3.671c-0.015-1.222-0.045-2.45,0.054-3.665
		c0.091-1.118,0.354-2.222,0.524-3.334c0.146-0.956,0.338-1.918-0.025-2.87c-1.299-0.245-2.557-0.439-3.795-0.724
		c-2.78-0.638-5.591-1.005-8.442-1.047c-1.568-0.024-3.136-0.039-4.705-0.041c-1.433-0.002-2.82-0.246-4.192-0.658
		c-1.827-0.548-3.655-1.117-5.552-1.378C316.822,161.973,314.547,161.638,312.266,160.836z M333.232,110.733
		c0.203-2.094,0.137-4.17-0.786-6.141c-0.514-1.098-1.342-1.935-2.381-2.533c-0.718-0.414-1.474-0.779-2.248-1.075
		c-1.965-0.753-3.952-1.446-5.924-2.181c-1.184-0.442-2.4-0.508-3.618-0.274c-1.007,0.193-1.999,0.472-2.985,0.755
		c-1.081,0.31-2.146,0.679-3.223,1.005c-3.201,0.967-6.299,0.655-9.27-0.836c-1.311-0.658-2.578-1.405-3.86-2.121
		c-0.769-0.43-1.519-0.896-2.295-1.312c-0.473-0.254-0.968-0.477-1.473-0.656c-1.388-0.494-2.161-0.301-3.127,0.837
		c-0.44,0.519-0.833,1.096-1.148,1.698c-0.453,0.865-0.863,1.76-1.208,2.674c-1.539,4.083-3.232,8.093-5.375,11.904
		c-0.673,1.197-1.185,2.474-1.527,3.808c-0.078,0.304-0.041,0.637-0.064,1.113c0.666-0.321,1.191-0.567,1.709-0.825
		c1.9-0.947,3.879-1.657,6.01-1.806c3.24-0.227,5.99,0.739,7.971,3.451c0.257,0.351,0.517,0.7,0.81,1.095
		c0.532-0.139,1.037-0.27,1.512-0.394c0.07-0.219,0.127-0.354,0.158-0.496c0.592-2.774,2.221-4.754,4.695-6.057
		c0.732-0.386,1.514-0.698,2.301-0.956c2.793-0.914,5.567-1.87,8.188-3.222c0.303-0.156,0.632-0.263,0.949-0.393
		c1.5-0.615,3.051-0.747,4.607-0.32c1.507,0.414,3.002,0.887,4.474,1.413c1.844,0.66,3.678,1.341,5.601,1.749
		C332.183,110.737,332.65,110.902,333.232,110.733z M353.343,159.867c1.498,0.889,2.907,1.776,4.365,2.573
		c1.247,0.681,2.574,1.19,3.989,1.434c1.022,0.177,1.955-0.037,2.785-0.635c0.434-0.313,0.855-0.664,1.206-1.065
		c1.42-1.621,2.809-3.269,4.21-4.906c0.693-0.809,1.067-1.739,1.122-2.809c0.06-1.174,0.152-2.346,0.24-3.519
		c0.14-1.865,0.465-3.697,1.168-5.436c0.402-0.996,0.893-1.958,1.377-2.919c0.594-1.18,1.235-2.337,1.833-3.515
		c0.629-1.239,0.63-2.441-0.289-3.566c-0.185-0.227-0.335-0.482-0.501-0.725c-1.796-2.627-3.577-5.265-5.395-7.877
		c-0.754-1.084-1.568-2.128-2.389-3.162c-0.332-0.418-0.734-0.791-1.148-1.133c-1.002-0.829-1.521-0.859-2.666-0.221
		c-0.171,0.095-0.339,0.197-0.5,0.308c-2.082,1.434-3.646,3.36-5.147,5.311c0.087,0.157,0.112,0.275,0.183,0.322
		c1.392,0.902,1.637,2.236,1.4,3.739c-0.099,0.628-0.219,1.255-0.383,1.869c-0.472,1.765-0.355,3.479,0.282,5.19
		c0.323,0.868,0.551,1.775,0.772,2.677c0.376,1.534,0.234,3-0.589,4.392c-0.552,0.934-0.854,1.968-1.013,3.048
		c-0.106,0.725-0.276,1.442-0.421,2.161c-0.229,1.139-0.793,2.092-1.596,2.923c-0.544,0.563-1.09,1.13-1.566,1.749
		C353.852,157.144,353.358,158.351,353.343,159.867z M344.442,326.167c0.244,0.919,0.442,1.673,0.646,2.426
		c0.881,3.259,1.707,6.534,2.661,9.771c0.985,3.345,2.351,6.54,4.274,9.47c3.381,5.153,7.891,8.907,13.715,11.027
		c1.247,0.454,2.528,0.764,3.84,0.946c0.623,0.087,1.255,0.18,1.855-0.054c0.033-0.132,0.091-0.233,0.072-0.317
		c-0.074-0.333-0.159-0.665-0.263-0.991c-0.89-2.803-1.522-5.666-2.077-8.552c-0.434-2.257-0.909-4.512-1.493-6.733
		c-1.289-4.9-3.427-9.367-6.985-13.066c-2.525-2.625-5.234-5.012-8.534-6.639c-0.295-0.146-0.621-0.23-0.963-0.353
		c-1.43,1.448-3.176,2.155-5.083,2.547C345.591,325.755,345.094,325.961,344.442,326.167z M296.017,120.727
		c-0.341-0.493-0.584-0.857-0.84-1.212c-1.538-2.137-3.615-2.743-6.084-2.046c-1.077,0.304-2.147,0.691-3.15,1.182
		c-1.36,0.667-2.674,1.435-3.971,2.221c-3.728,2.263-7.545,4.357-11.515,6.168c-0.489,0.223-0.956,0.496-1.441,0.727
		c-1.284,0.613-1.922,1.647-1.913,3.046c0.007,1.075,0.056,2.155,0.181,3.221c0.131,1.116,0.363,2.222,0.571,3.328
		c0.879,4.669,0.709,9.255-1.019,13.733c-0.458,1.187-0.88,2.389-1.273,3.599c-0.211,0.648-0.37,1.32-0.473,1.993
		c-0.16,1.04,0.159,1.937,0.981,2.626c0.45,0.378,0.888,0.772,1.359,1.122c1.336,0.993,2.68,1.977,4.035,2.945
		c0.637,0.455,1.296,0.881,1.963,1.292c0.573,0.354,1.167,0.68,1.872,0.829c0.12-0.153,0.217-0.263,0.3-0.382
		c1.341-1.943,2.88-3.714,4.602-5.329c0.186-0.174,0.305-0.419,0.484-0.671c-0.929-0.353-1.774-0.617-2.566-0.993
		c-0.655-0.312-1.32-0.677-1.853-1.158c-1.108-1.001-1.541-2.243-0.953-3.714c0.091-0.227,0.154-0.466,0.251-0.69
		c1.03-2.371,1.379-4.885,1.589-7.433c0.217-2.634,0.372-5.274,0.847-7.884c0.539-2.958,1.822-5.479,4.217-7.341
		c1.584-1.23,3.193-2.439,4.869-3.536c2.662-1.742,5.391-3.383,8.09-5.07C295.418,121.151,295.649,120.98,296.017,120.727z
		 M343.279,227.723c-0.348,0.296-0.617,0.497-0.854,0.732c-1.12,1.114-2.004,2.408-2.827,3.747
		c-1.812,2.948-3.028,6.145-3.914,9.474c-0.884,3.325-1.314,6.717-1.58,10.147c-0.418,5.377,0.026,10.668,1.243,15.907
		c0.119,0.512,0.268,1.017,0.396,1.498c1.182,0,2.259-0.057,3.327,0.016c1.115,0.077,2.22,0.279,3.419,0.438
		c0.687-0.757,1.402-1.559,2.132-2.347c2.684-2.897,4.473-6.29,5.602-10.052c0.89-2.964,1.02-5.97,0.526-9.016
		c-0.457-2.817-1.23-5.552-2.279-8.196c-1.57-3.96-3.234-7.883-4.863-11.82C343.555,228.121,343.46,228.009,343.279,227.723z
		 M302.872,96.411c0.502,0.295,0.914,0.543,1.331,0.781c2.625,1.499,5.35,1.75,8.189,0.665c0.959-0.366,1.92-0.735,2.902-1.034
		c1.168-0.356,2.345-0.708,3.542-0.936c1.868-0.356,3.707-0.138,5.47,0.594c2.885,1.197,5.912,2.041,8.696,3.575
		c2.346-1.389,4.974-1.756,7.611-2.298c-0.029-0.404-0.018-0.741-0.083-1.062c-0.531-2.631-1.608-5.024-3.194-7.186
		c-1.394-1.9-2.962-3.652-4.657-5.283c-3.431-3.302-6.628-6.801-9.276-10.776c-0.15-0.225-0.363-0.408-0.621-0.692
		c-0.386,0.516-0.722,0.929-1.019,1.368c-1.18,1.743-2.353,3.49-3.518,5.244c-1.77,2.665-3.846,5.069-6.2,7.229
		c-1.334,1.225-2.704,2.411-4.066,3.605c-1.328,1.164-2.599,2.382-3.682,3.783C303.759,94.684,303.252,95.402,302.872,96.411z
		 M363.962,119.669c0.919-2.288,0.722-4.244-0.677-6.102c-0.646-0.858-1.345-1.685-2.092-2.456
		c-2.628-2.714-5.045-5.597-7.165-8.727c-0.274-0.405-0.572-0.795-0.879-1.176c-0.245-0.304-0.505-0.6-0.785-0.872
		c-0.654-0.633-1.424-1.033-2.354-1.05c-0.586-0.01-1.18-0.055-1.759,0.014c-2.816,0.338-5.631,0.686-8.44,1.081
		c-1.353,0.19-2.693,0.482-4.034,0.753c-0.307,0.062-0.658,0.13-0.84,0.524c2.424,2.937,2.479,6.347,1.89,9.873
		c1.015,0.307,1.957,0.551,2.871,0.875c2.52,0.894,4.188,2.635,5.012,5.177c0.151,0.464,0.28,0.939,0.374,1.417
		c0.43,2.182,0.461,4.37,0.058,6.562c-0.042,0.227-0.035,0.462-0.049,0.675c1.931,0.546,6.818,1.062,9.298,0.987
		c0.509-0.658,1.039-1.357,1.584-2.044c1.037-1.306,2.139-2.552,3.49-3.549c1.234-0.911,2.543-1.653,4.112-1.808
		C363.716,119.81,363.846,119.717,363.962,119.669z M361.156,287.374c1.097-0.138,2.115-0.253,3.129-0.395
		c3.695-0.519,7.326-1.31,10.816-2.662c3.651-1.414,6.958-3.381,9.706-6.204c1.646-1.691,3.141-3.515,4.336-5.549
		c1.413-2.406,2.755-4.856,4.071-7.317c0.482-0.902,0.809-1.889,1.186-2.845c0.083-0.209,0.186-0.464-0.144-0.746
		c-0.496,0.12-1.06,0.238-1.613,0.395c-6.12,1.74-12.24,3.485-18.358,5.232c-2.215,0.632-4.395,1.368-6.492,2.324
		c-3.413,1.557-6.568,3.505-9.195,6.225c-0.575,0.595-1.168,1.18-1.606,2.005c0.279,0.385,0.559,0.777,0.846,1.164
		c1.094,1.475,1.97,3.025,2.076,4.933C359.98,285.119,360.46,286.202,361.156,287.374z M285.178,160.481
		c-0.188,0.295-0.292,0.406-0.336,0.537c-0.461,1.38-0.524,2.795-0.213,4.203c0.358,1.622,0.752,3.24,1.214,4.835
		c0.713,2.463,1.132,4.956,1.074,7.526c-0.021,0.93-0.025,1.861,0.013,2.79c0.03,0.732,0.091,1.468,0.218,2.188
		c0.149,0.846,0.642,1.423,1.546,1.53c0.728,0.086,1.457,0.185,2.189,0.209c3.484,0.117,6.921,0.558,10.308,1.39
		c0.853,0.21,1.723,0.364,2.592,0.493c1.439,0.214,2.751-0.146,3.796-1.156c0.84-0.812,1.588-1.723,2.342-2.62
		c0.629-0.748,1.21-1.537,1.809-2.31c0.2-0.259,0.57-0.4,0.568-0.864c-0.173-0.237-0.376-0.51-0.574-0.786
		c-0.884-1.232-1.812-2.437-2.64-3.706c-1.344-2.06-1.976-4.34-1.97-6.81c0.004-1.526,0.177-3.026,0.435-4.524
		c0.028-0.161,0.004-0.332,0.004-0.502c-0.14,0.007-0.198-0.008-0.234,0.014c-0.165,0.104-0.326,0.214-0.482,0.329
		c-1.515,1.119-3.198,1.884-5.012,2.368c-1.191,0.318-2.39,0.439-3.632,0.281c-1.671-0.214-3.25-0.718-4.761-1.42
		c-1.596-0.741-3.145-1.583-4.727-2.356C287.565,161.567,286.406,161.051,285.178,160.481z M305.606,309.985
		c-0.354,0-0.55-0.022-0.74,0.003c-2.088,0.272-4.185,0.498-6.261,0.842c-3.25,0.54-6.386,1.483-9.375,2.891
		c-8.52,4.012-13.707,12.516-13.35,21.91c0.016,0.419,0.095,0.836,0.16,1.387c0.426-0.198,0.731-0.326,1.023-0.479
		c1.561-0.819,3.093-1.699,4.684-2.457c3.801-1.81,7.623-3.577,11.449-5.336c2.406-1.106,4.77-2.291,7.031-3.667
		c3.285-1.999,6.213-4.444,8.816-7.275c0.285-0.31,0.639-0.593,0.708-1.029c-1.999-2.001-1.834-1.504-3.174-4.731
		C306.298,311.37,305.955,310.721,305.606,309.985z M342.68,221.618c0.318-0.138,0.5-0.19,0.654-0.287
		c3.466-2.196,7.27-3.569,11.198-4.668c2.589-0.724,5.163-1.506,7.717-2.343c2.241-0.735,4.329-1.812,6.269-3.163
		c2.706-1.886,4.586-4.381,5.501-7.563c0.601-2.089,0.797-4.22,0.598-6.392c-0.198-2.159-0.698-4.246-1.387-6.291
		c-0.64-1.9-1.3-3.794-1.961-5.688c-0.073-0.21-0.211-0.398-0.368-0.685c-0.295,0.355-0.525,0.602-0.723,0.873
		c-0.808,1.107-1.612,2.217-2.407,3.333c-3.638,5.114-7.57,9.979-11.97,14.468c-2.02,2.061-3.921,4.241-5.838,6.401
		c-1.658,1.869-3.192,3.839-4.521,5.961c-1.016,1.622-1.892,3.314-2.555,5.111C342.793,220.94,342.766,221.22,342.68,221.618z
		 M353.888,320.076c0.431,0.285,0.789,0.538,1.163,0.765c1.047,0.635,2.095,1.268,3.152,1.885c1.911,1.115,3.7,2.396,5.31,3.917
		c1.246,1.177,2.485,2.364,3.712,3.561c2.039,1.99,4.217,3.811,6.6,5.374c1.889,1.239,3.865,2.3,6.042,2.968
		c3.232,0.993,6.535,1.206,9.883,0.992c0.22-0.014,0.432-0.146,0.61-0.21c0.012-0.194,0.041-0.295,0.02-0.383
		c-0.067-0.285-0.146-0.568-0.233-0.848c-1.257-4.043-3.017-7.859-5.243-11.457c-0.955-1.544-2.042-2.992-3.312-4.3
		c-0.542-0.558-1.147-0.838-1.927-0.914c-5.555-0.541-10.671-2.407-15.439-5.257c-1.639-0.979-3.22-2.054-4.832-3.079
		c-0.231-0.147-0.442-0.393-0.841-0.224c-0.508,1.261-0.649,2.751-1.57,3.866C356.056,317.855,355.005,318.879,353.888,320.076z
		 M316.98,203.066c-0.251,1.681-0.212,5.144,0.493,13.54c0.541,6.438,1.447,12.837,3.055,19.113
		c0.043,0.167,0.063,0.403,0.313,0.439c0.182-1.451,0.327-2.907,0.555-4.349c0.376-2.374,1.089-4.666,1.808-6.954
		c0.147-0.467,0.277-0.941,0.465-1.392c0.379-0.909,1.061-1.489,1.995-1.817c0.953-0.334,1.862-0.214,2.682,0.287
		c0.831,0.507,1.642,1.074,2.366,1.722c1.717,1.538,3.291,3.216,4.606,5.121c0.132,0.192,0.251,0.427,0.601,0.264
		c0.747-3.576,1.19-7.213,1.25-10.893c0.005-0.276-0.082-0.553-0.129-0.85c-0.539-0.114-1.017-0.21-1.493-0.318
		c-0.802-0.182-1.302-0.668-1.397-1.496c-0.084-0.728-0.155-1.461-0.171-2.193c-0.048-2.203-0.024-4.408-0.109-6.608
		c-0.083-2.152-0.438-4.271-1.01-6.367c-0.349-0.136-0.657-0.285-0.981-0.378c-1.577-0.451-3.118-0.268-4.58,0.413
		c-0.883,0.411-1.707,0.949-2.55,1.444c-0.969,0.57-1.902,1.207-2.899,1.721c-1.298,0.668-2.636,0.653-3.95-0.026
		C317.608,203.337,317.303,203.213,316.98,203.066z M304.045,289.408c-0.392-0.362-0.668-0.637-0.964-0.887
		c-1.578-1.337-3.296-2.475-5.185-3.303c-1.968-0.863-3.974-1.65-6-2.365c-4.278-1.51-8.713-1.825-13.185-1.366
		c-4.53,0.465-8.569,2.289-12.272,4.89c-0.345,0.242-0.634,0.562-1.036,0.924c0.752,0.58,1.488,0.949,2.218,1.314
		c3.719,1.859,7.443,3.707,11.172,5.546c0.877,0.433,1.77,0.834,2.669,1.219c5.006,2.142,10.179,2.701,15.518,1.595
		c2.106-0.436,4.136-1.117,6.17-1.97C303.447,293.149,303.739,291.323,304.045,289.408z M314.924,271.782
		c0-0.205,0.015-0.304-0.002-0.398c-0.436-2.381-1.355-4.594-2.396-6.758c-2.409-5.008-6.018-8.872-10.963-11.469
		c-2.818-1.48-5.704-2.81-8.641-4.03c-2.172-0.902-4.418-1.586-6.741-1.99c-0.321-0.056-0.655-0.042-1.069-0.065
		c0.037,0.333,0.014,0.583,0.097,0.791c0.36,0.909,0.692,1.835,1.139,2.701c2.874,5.571,5.977,11.012,9.461,16.225
		c0.95,1.421,2.011,2.775,3.111,4.084c1.426,1.697,3.11,3.119,5.047,4.216c1.45,0.821,2.96,1.497,4.588,1.795
		c1.146-0.842,2.276-1.617,3.342-2.47C312.927,273.59,313.891,272.686,314.924,271.782z M314.117,321.441
		c-0.226,0.064-0.276,0.07-0.319,0.092c-0.131,0.067-0.261,0.135-0.387,0.21c-5.438,3.25-8.852,8.05-10.674,14.04
		c-0.858,2.82-1.271,5.729-1.505,8.663c-0.163,2.049-0.314,4.1-0.498,6.147c-0.18,1.998-0.401,3.993-0.593,5.99
		c-0.025,0.263,0.016,0.532,0.031,0.907c0.347-0.139,0.581-0.205,0.788-0.32c1.111-0.619,2.239-1.213,3.318-1.885
		c3.586-2.231,6.568-5.078,8.834-8.668c1.652-2.617,3.054-5.355,4.213-8.22c1.598-3.951,2.889-8.007,4.14-12.077
		c0.127-0.413,0.21-0.839,0.327-1.316c-0.371-0.232-0.675-0.483-1.024-0.627c-0.677-0.279-1.366-0.542-2.072-0.732
		C317.029,323.195,315.417,322.645,314.117,321.441z M341.027,126.046c0.537-2.079,0.684-4.107,0.341-6.166
		c-0.162-0.972-0.468-1.891-0.929-2.771c-0.624-1.19-1.548-2.024-2.808-2.441c-0.832-0.275-1.695-0.484-2.559-0.635
		c-1.542-0.271-3.099-0.46-4.644-0.714c-2.475-0.405-4.838-1.201-7.181-2.071c-1.146-0.426-2.307-0.81-3.471-1.186
		c-0.72-0.233-1.445-0.213-2.153,0.097c-0.358,0.157-0.739,0.265-1.089,0.438c-2.465,1.219-5.042,2.135-7.672,2.922
		c-0.746,0.223-1.484,0.514-2.176,0.872c-1.702,0.88-3.025,2.746-3.319,4.615c0.205,0.089,0.417,0.204,0.644,0.276
		c1.707,0.546,3.011,1.634,3.98,3.098c0.591,0.893,1.037,1.882,1.544,2.83c0.156,0.292,0.3,0.59,0.428,0.844
		c0.187,0.017,0.287,0.044,0.381,0.031c0.242-0.034,0.483-0.077,0.721-0.131c2.508-0.571,4.827-1.595,7.002-2.952
		c0.914-0.57,1.806-1.174,2.715-1.753c0.787-0.502,1.607-0.943,2.522-1.165c1.753-0.424,3.411-0.286,4.845,0.93
		c0.634,0.537,1.256,1.093,1.84,1.684c1.548,1.568,3.068,3.163,4.608,4.738c0.194,0.198,0.444,0.34,0.693,0.528
		C337.07,126.865,338.971,126.271,341.027,126.046z M298.155,220.699c0.024,2.181,1.894,6.962,3.523,9.077
		c1.859-0.203,2.249-0.137,4.087,0.699c0.356,0.162,0.707,0.334,1.058,0.508c3.544,1.755,6.637,4.13,9.454,6.886
		c0.378,0.37,0.77,0.727,1.367,1.289c-0.126-0.647-0.186-1.011-0.269-1.369c-0.099-0.429-0.219-0.852-0.326-1.279
		c-0.095-0.379-0.186-0.76-0.277-1.14c-0.103-0.428-0.205-0.856-0.306-1.285c-0.089-0.381-0.178-0.762-0.261-1.144
		c-0.094-0.43-0.184-0.861-0.274-1.291c-0.08-0.383-0.163-0.766-0.233-1.151c-0.071-0.385-0.132-0.772-0.191-1.158
		c-0.067-0.435-0.122-0.872-0.191-1.307c-0.061-0.387-0.14-0.771-0.197-1.158c-0.065-0.435-0.112-0.874-0.173-1.31
		c-0.054-0.388-0.116-0.774-0.174-1.161c-0.065-0.435-0.137-0.87-0.193-1.307c-0.05-0.388-0.077-0.779-0.124-1.168
		c-0.047-0.389-0.113-0.775-0.158-1.164c-0.051-0.437-0.085-0.877-0.132-1.315c-0.042-0.389-0.094-0.777-0.134-1.167
		c-0.046-0.438-0.089-0.876-0.124-1.315c-0.031-0.39-0.043-0.782-0.074-1.172c-0.035-0.439-0.086-0.877-0.122-1.316
		c-0.031-0.39-0.054-0.781-0.073-1.172c-0.021-0.44-0.035-0.88-0.051-1.321c-0.014-0.391-0.028-0.783-0.042-1.174
		c-0.015-0.391-0.027-0.783-0.046-1.174c-0.021-0.44-0.053-0.88-0.071-1.32c-0.016-0.391-0.024-0.783-0.028-1.174
		c-0.004-0.44-0.006-0.881,0.001-1.322c0.006-0.391,0.023-0.783,0.041-1.174c0.02-0.44,0.062-0.88,0.064-1.32
		c0.002-0.361,0.111-0.747-0.135-1.206c-0.495,0.406-0.905,0.737-1.309,1.074c-2.029,1.696-4.289,2.894-6.942,3.271
		c-1.113,0.158-2.223,0.341-3.331,0.533c-0.321,0.056-0.629,0.182-0.996,0.291c-0.015,0.555-0.062,1.042-0.034,1.525
		c0.112,1.954,0.247,3.906,0.373,5.859c0.06,0.928,0.139,1.855,0.172,2.783c0.048,1.336-0.622,2.221-1.82,2.734
		C299.042,220.386,298.584,220.538,298.155,220.699z M328.904,367.156c0.325-0.36,0.499-0.528,0.644-0.717
		c1.255-1.633,2.42-3.328,3.379-5.151c1.915-3.638,3.053-7.5,3.393-11.611c0.285-3.445,0.005-6.855-0.538-10.24
		c-0.55-3.428-1.269-6.829-1.93-10.238c-0.061-0.315-0.235-0.609-0.383-0.978c-1.037,0.131-2.005,0.235-2.966,0.381
		c-1.077,0.164-2.142,0.188-3.203-0.102c-0.273-0.074-0.562-0.089-0.892-0.138c-0.129,0.259-0.252,0.466-0.339,0.687
		c-0.917,2.323-1.761,4.67-2.32,7.109c-0.505,2.203-0.849,4.425-0.646,6.695c0.188,2.098,0.449,4.187,0.98,6.229
		c1.489,5.728,2.997,11.452,4.501,17.176C328.641,366.482,328.738,366.698,328.904,367.156z M262.082,305.009
		c0.235,0.182,0.365,0.319,0.524,0.4c3.367,1.704,6.782,3.304,10.398,4.41c3.012,0.922,6.079,1.511,9.26,1.303
		c2.614-0.171,5.12-0.797,7.578-1.661c1.893-0.666,3.778-1.353,5.677-2.003c2.56-0.877,5.174-1.492,7.899-1.53
		c0.131-0.002,0.26-0.091,0.482-0.174c-0.09-1.019-0.201-2.029-0.504-3.013c-0.401-1.302-0.804-2.604-1.223-3.961
		c-0.136,0.028-0.33,0.043-0.505,0.108c-4.861,1.821-9.851,1.971-14.912,1.141c-3.069-0.504-5.952-1.584-8.753-2.905
		c-0.526-0.248-1.06-0.482-1.563-0.711C271.644,299.285,266.903,302.123,262.082,305.009z M362.737,233.426
		c-3.691,1.398-7.115,2.946-10.173,5.212c-0.264,0.195-0.489,0.442-0.692,0.629c0.551,1.823,1.117,3.542,1.587,5.286
		c1.117,4.148,1.238,8.33,0.099,12.486c-1.441,5.257-3.925,9.911-8.172,13.484c-0.206,0.173-0.353,0.415-0.554,0.657
		c1.596,1.169,3.161,2.131,5.1,2.313c0.576,0.054,1.136,0.283,1.704,0.429c0.322,0.083,0.646,0.159,0.975,0.239
		c0.194-0.255,0.348-0.442,0.485-0.641c3.056-4.447,5.748-9.109,8.191-13.917c0.488-0.96,0.942-1.939,1.357-2.932
		c0.758-1.812,1.299-3.688,1.586-5.639c0.461-3.136,0.27-6.253-0.177-9.368c-0.361-2.52-0.731-5.038-1.104-7.556
		C362.921,233.929,362.84,233.755,362.737,233.426z M324.406,270.162c0-0.786,0.057-1.472-0.01-2.146
		c-0.286-2.873-0.691-5.726-1.32-8.551c-0.869-3.904-2.296-7.571-4.314-11.021c-2.218-3.792-4.968-7.15-8.184-10.127
		c-1.982-1.834-4.125-3.459-6.58-4.629c-0.202-0.096-0.423-0.152-0.689-0.245c-0.091,0.276-0.179,0.451-0.205,0.635
		c-0.41,2.956-0.838,5.91-1.206,8.872c-0.218,1.752-0.214,3.514-0.041,5.277c0.075,0.766,0.386,1.218,1.126,1.524
		c1.765,0.731,3.427,1.671,4.997,2.768c5.959,4.162,9.646,9.749,10.699,16.999c0.055,0.378,0.175,0.746,0.266,1.122
		C320.833,271.014,322.604,270.883,324.406,270.162z M337.462,328.922c0.241,1.41,0.458,2.762,0.704,4.108
		c0.599,3.276,1.193,6.55,1.463,9.877c0.385,4.748-0.067,9.39-1.615,13.909c-0.126,0.367-0.238,0.739-0.372,1.159
		c2.06,3.072,4.294,5.969,7.302,8.178c0.629,0.462,1.312,0.853,1.989,1.244c0.235,0.136,0.527,0.172,0.862,0.275
		c1.255-2.74,2.426-5.422,3.183-8.27c0.626-2.357,0.763-4.725,0.282-7.129c-0.128-0.639-0.358-1.199-0.703-1.75
		c-0.908-1.452-1.824-2.904-2.629-4.414c-1.363-2.559-2.3-5.298-3.142-8.063c-0.913-2.997-1.766-6.012-2.65-9.018
		c-0.12-0.409-0.164-0.863-0.521-1.128C340.258,328.235,338.939,328.559,337.462,328.922z M288.733,352.94
		c-0.291,4.646,2.847,15.953,5.246,18.965c1.332-0.693,2.663-1.407,4.014-2.081c1.357-0.677,2.719-1.347,4.106-1.958
		c1.387-0.611,2.788-1.198,4.217-1.698c1.429-0.5,2.904-0.864,4.351-1.316c1.437-0.449,2.981-0.426,4.428-0.963
		c0.394-4.543,0.586-9.039,0.775-13.536c0.002-0.04-0.025-0.094-0.056-0.12c-0.035-0.03-0.089-0.037-0.211-0.081
		c-0.28,0.279-0.588,0.579-0.888,0.887c-2.79,2.861-5.877,5.323-9.52,7.022c-1.418,0.661-2.866,1.257-4.306,1.87
		c-0.313,0.133-0.642,0.245-0.975,0.31c-2.013,0.396-2.842-0.616-2.811-2.169c0.007-0.342-0.044-0.686-0.028-1.027
		c0.07-1.515,0.163-3.029,0.229-4.545c0.027-0.622,0.202-1.251-0.016-1.914C294.44,351.37,291.622,352.145,288.733,352.94z
		 M332.99,149.691c-1.124,0.088-2.136,0.169-3.148,0.246c-0.586,0.045-1.174,0.061-1.757,0.129
		c-3.374,0.392-6.737,0.361-10.098-0.157c-3.236-0.498-6.282-1.499-8.986-3.381c-1.324-0.921-2.592-1.924-3.873-2.906
		c-0.582-0.446-1.147-0.918-1.698-1.403c-0.872-0.766-1.871-1.022-2.999-0.805c-1.159,0.223-2.323,0.309-3.505,0.242
		c-0.713-0.04-0.978,0.337-0.751,1.032c0.656,2.005,1.484,3.935,2.586,5.742c1.713,2.809,4.116,4.818,7.106,6.145
		c0.536,0.238,1.092,0.43,1.64,0.641c2.373,0.913,4.763,1.785,7.116,2.747c2.659,1.087,5.451,1.555,8.271,1.888
		c1.807,0.214,3.365-0.314,4.553-1.809c1.799-2.263,3.58-4.535,4.959-7.089C332.61,150.574,332.77,150.17,332.99,149.691z
		 M272.726,229.563c1.95,1.299,3.76,2.695,5.45,4.246c1.664,1.527,3.229,3.152,4.579,4.961c1.374,1.841,2.665,3.743,4.07,5.727
		c2.313,0.208,4.668,0.861,6.986,1.646c1.436,0.486,2.847,1.046,4.269,1.573c0.221,0.082,0.448,0.214,0.666-0.056
		c-0.05-0.764-0.116-1.539-0.149-2.315c-0.103-2.456,0.136-4.891,0.45-7.323c0.168-1.306,0.301-2.616,0.451-3.929
		c-0.333-0.242-0.599-0.454-0.883-0.637c-2.534-1.632-5.292-2.748-8.192-3.53c-2.568-0.693-5.201-0.919-7.845-1.052
		C279.294,228.709,276.034,228.974,272.726,229.563z M368.141,244.851c0.243-0.052,0.4-0.045,0.508-0.114
		c1.57-0.995,3.162-1.959,4.691-3.014c2.023-1.397,3.465-3.285,4.434-5.546c0.735-1.714,1.351-3.47,1.719-5.295
		c0.784-3.883,1.513-7.778,2.256-11.67c0.025-0.13-0.038-0.276-0.075-0.513c-4.199,1.128-8.159,2.737-11.975,4.719
		c-4.521,2.348-11.147,7.007-13.116,9.284c0.516-0.22,0.864-0.364,1.208-0.516c1.296-0.574,2.589-1.155,3.887-1.727
		c1.52-0.67,3.64-0.026,4.482,1.957c0.189,0.446,0.327,0.927,0.403,1.405c0.407,2.561,0.788,5.125,1.175,7.689
		c0.08,0.532,0.158,1.065,0.222,1.6C368.028,243.675,368.079,244.242,368.141,244.851z M306.956,279.486
		c-0.892-0.209-1.661-0.348-2.406-0.569c-3.483-1.032-6.337-3.04-8.673-5.777c-0.95-1.113-1.821-2.31-2.592-3.554
		c-1.418-2.286-2.775-4.613-4.072-6.969c-0.431-0.783-0.947-1.156-1.816-1.213c-1.416-0.093-2.823-0.29-4.246-0.062
		c-1.593,0.256-3.206,0.406-4.783,0.733c-1.768,0.367-3.508,0.874-5.254,1.341c-0.255,0.068-0.478,0.256-0.773,0.421
		c0.232,0.312,0.394,0.553,0.58,0.774c4.26,5.056,9.333,9.059,15.401,11.728c2.236,0.983,4.539,1.815,6.814,2.711
		c3.509,1.382,6.98,2.837,10.119,4.972c0.103,0.07,0.258,0.064,0.475,0.112C306.136,282.595,306.531,281.096,306.956,279.486z
		 M283.093,245.807c-2.834-5.202-10.507-13.122-13.652-14.143c-0.05,0.076-0.144,0.152-0.145,0.228
		c-0.013,1.37-0.058,2.741-0.011,4.109c0.108,3.13,0.246,6.262,0.795,9.353c0.282,1.587,0.659,3.158,1.007,4.733
		c0.582,2.636,1.739,5.07,2.695,7.574c0.171,0.449,0.376,0.885,0.588,1.377c2.015-0.404,3.97-0.799,5.925-1.187
		c1.966-0.39,3.966-0.461,5.956-0.576c0.079-0.602-0.274-0.99-0.465-1.427c-0.898-2.062-1.838-4.107-2.712-6.179
		C282.544,248.414,282.394,247.118,283.093,245.807z M220.334,377.615c0.387,0.625,0.848,0.901,1.27,1.211
		c1.909,1.404,4.005,2.439,6.264,3.155c4.652,1.474,9.425,2.214,14.294,2.343c4.667,0.124,9.289-0.313,13.87-1.211
		c2.89-0.566,5.72-1.321,8.376-2.625c0.607-0.298,1.262-0.529,1.783-1.112c-0.111-0.453-0.223-0.911-0.324-1.322
		c-0.201-0.046-0.296-0.087-0.391-0.087c-3.24,0.006-6.449-0.413-9.655-0.789c-4.528-0.532-9.058-0.864-13.621-0.837
		c-4.217,0.025-8.417,0.269-12.604,0.721c-2.876,0.31-5.747,0.58-8.643,0.47C220.814,377.527,220.672,377.568,220.334,377.615z
		 M300.599,328.899c-0.067-0.077-0.135-0.155-0.202-0.232c-5.122,2.773-10.677,4.591-15.806,7.207
		c-1.395,4.532-1.481,11.314,0.141,14.317c1.935,0.125,10.478-1.836,12.836-2.963c0.037-0.443,0.089-0.925,0.116-1.409
		c0.111-2.053,0.175-4.109,0.331-6.158c0.268-3.535,0.978-6.975,2.405-10.243C300.492,329.252,300.539,329.073,300.599,328.899z
		 M379.703,262.08c0.145-0.651,0.33-1.216,0.39-1.795c0.197-1.899,0.39-3.8,0.506-5.706c0.138-2.253,0.394-4.487,0.827-6.702
		c0.053-0.273,0.193-0.567-0.155-0.9c-0.354,0.045-0.787,0.069-1.206,0.159c-2.249,0.482-4.498,0.962-6.739,1.479
		c-1.429,0.33-2.843,0.729-4.265,1.09c-0.791,0.201-1.192,0.64-1.341,1.504c-0.265,1.539-0.641,3.066-1.081,4.566
		c-1.161,3.963-2.841,7.713-4.812,11.337c-0.2,0.369-0.365,0.757-0.546,1.136c1.981-0.939,3.849-1.973,5.858-2.677
		c2.03-0.711,4.089-1.348,6.162-1.922C375.371,263.077,377.474,262.621,379.703,262.08z M326.362,225.54
		c-0.22,0.445-0.359,0.699-0.474,0.963c-1.25,2.864-1.824,5.88-1.994,8.984c-0.271,4.924,0.169,9.779,1.332,14.576
		c0.911,3.757,1.85,7.513,2.34,11.357c0.309,2.427,0.751,4.841,0.77,7.299c0.001,0.125,0.104,0.248,0.174,0.407
		c0.507-0.061,0.992-0.107,1.473-0.182c0.473-0.074,0.94-0.177,1.466-0.279c-0.131-0.75-0.236-1.42-0.365-2.085
		c-0.72-3.71-1.168-7.453-1.192-11.232c-0.039-6.181,0.962-12.188,3.182-17.974c0.702-1.829,0.699-1.832-0.11-3.598
		c-0.143-0.311-0.293-0.621-0.465-0.917C330.908,230.123,328.759,227.86,326.362,225.54z M349.874,234.677
		c0.367-0.374,0.583-0.567,0.767-0.786c2.929-3.483,6.441-6.293,10.189-8.832c4.737-3.208,9.866-5.612,15.258-7.483
		c0.341-0.118,0.665-0.284,1.25-0.537c-1.994-0.236-3.693-0.442-5.394-0.637c-1.119-0.129-2.241-0.234-3.36-0.366
		c-0.798-0.094-1.541,0.01-2.288,0.344c-0.847,0.379-1.728,0.696-2.619,0.957c-2.678,0.782-5.358,1.559-8.054,2.271
		c-3.572,0.943-6.996,2.227-10.168,4.139c-0.279,0.168-0.526,0.387-0.813,0.602c1.294,0.916,1.296,0.915,1.896,2.412
		c0.31,0.773,0.596,1.556,0.922,2.321C348.226,230.884,349.009,232.677,349.874,234.677z M399.861,295.595
		c-1.295-0.242-2.446-0.451-3.595-0.672c-2.449-0.471-4.905-0.912-7.345-1.43c-2.822-0.599-5.613-1.353-8.447-1.888
		c-5.931-1.121-11.793-0.649-17.571,1.03c-0.315,0.092-0.607,0.265-0.953,0.42c0.116,0.784,0.199,1.512,0.336,2.229
		c0.208,1.089,0.182,2.14-0.341,3.146c-0.03,0.057,0.034,0.162,0.07,0.311c0.175-0.019,0.368-0.006,0.538-0.064
		c3.468-1.194,7.07-1.516,10.699-1.639c4.068-0.138,8.126,0.037,12.172,0.487c3.802,0.423,7.546,1.126,11.208,2.246
		c0.313,0.096,0.647,0.126,0.964,0.185C398.615,298.655,399.44,297.349,399.861,295.595z M314.684,367.384
		c-2.368,0.46-4.575,1.103-6.692,1.997c-2.115,0.894-4.195,1.878-6.253,2.898c-3.94,1.952-5.04,2.641-5.884,3.537
		c0.099,0.201,0.193,0.426,0.314,0.633c1.8,3.084,3.604,6.167,5.409,9.248c0.023,0.04,0.068,0.075,0.11,0.095
		c0.041,0.019,0.092,0.014,0.262,0.036c1.719-1.537,3.544-3.087,5.583-4.345c2.077-1.281,4.193-2.502,6.275-3.739
		C314.277,374.997,314.815,368.791,314.684,367.384z M327.323,388.285c0.199-0.065,0.31-0.071,0.38-0.128
		c2.093-1.694,4.191-3.382,6.268-5.096c0.754-0.622,1.454-1.31,2.177-1.97c0.034-0.031,0.059-0.081,0.072-0.127
		c0.012-0.044,0.003-0.093,0.003-0.19c-0.053-0.082-0.116-0.216-0.211-0.32c-4.534-5.002-9.928-8.836-15.987-11.766
		c-0.236-0.114-0.508-0.152-0.77-0.227c-0.266,1.223-0.977,8.69-0.925,9.566C322.466,381.624,324.169,383.345,327.323,388.285z
		 M349.525,193.532c-0.501,0.598-0.776,1.21-0.972,1.874c-0.264,0.892-0.519,1.791-0.853,2.657c-0.316,0.818-0.65,1.65-1.117,2.386
		c-1.118,1.764-2.741,2.806-4.856,2.861c-0.865,0.022-1.746-0.183-2.604-0.363c-0.66-0.139-1.294-0.399-2.044-0.639
		c0.031,0.527,0.055,0.957,0.08,1.387c0.09,1.515,0.224,3.029,0.257,4.546c0.034,1.567-0.04,3.136-0.05,4.705
		c-0.003,0.53-0.125,1.075,0.13,1.608c0.473,0.112,0.949,0.213,1.418,0.337c1.117,0.296,1.797,0.957,1.794,2.181
		c0,0.115,0.062,0.231,0.142,0.511c0.213-0.386,0.347-0.632,0.484-0.877c0.789-1.409,1.532-2.847,2.379-4.221
		c1.211-1.965,2.651-3.771,4.182-5.493c2.215-2.49,4.485-4.93,6.722-7.401c0.355-0.392,0.818-0.71,0.979-1.243
		C354.152,195.988,352.09,194.334,349.525,193.532z M334.227,146.667c0.265-0.684,0.436-1.035,0.537-1.404
		c0.282-1.039,0.579-2.077,0.789-3.131c0.472-2.361,0.763-4.738,0.426-7.15c-0.29-2.08-0.977-4.013-2.383-5.594
		c-1.401-1.576-3.012-2.938-4.761-4.126c-0.242-0.164-0.515-0.281-0.769-0.428c-1.568-0.909-3.148-0.912-4.763-0.114
		c-1.939,0.958-3.794,2.051-5.409,3.499c-0.652,0.584-1.241,1.253-1.783,1.942c-0.703,0.893-1.072,1.941-1.268,3.23
		c0.394-0.177,0.644-0.282,0.887-0.401c1.054-0.517,2.079-1.104,3.164-1.543c2.008-0.812,4.086-1.359,6.285-1.265
		c2.931,0.126,4.907,1.573,5.763,4.368c0.399,1.304,0.678,2.657,0.881,4.008c0.358,2.384,0.957,4.696,1.806,6.947
		C333.742,145.805,333.923,146.082,334.227,146.667z M338.928,378.173c1.868-1.556,4.722-5.715,5.588-8.133
		c-0.21-0.164-0.438-0.338-0.663-0.518c-0.993-0.795-2.012-1.56-2.97-2.396c-1.595-1.39-2.913-3.039-4.24-4.678
		c-0.2-0.247-0.313-0.634-0.82-0.602c-0.411,0.673-0.834,1.383-1.275,2.081c-0.445,0.704-0.893,1.406-1.367,2.091
		c-0.474,0.684-0.966,1.357-1.478,2.014c-0.506,0.649-1.047,1.272-1.616,1.958c0.837,0.643,1.619,1.219,2.373,1.829
		c0.8,0.647,1.593,1.304,2.352,1.998c0.722,0.661,1.415,1.356,2.086,2.069C337.599,376.63,338.256,377.412,338.928,378.173z
		 M279.425,419.466c-0.386-0.573-0.896-0.489-1.372-0.426c-1.355,0.178-2.705,0.407-4.061,0.573
		c-2.085,0.256-3.783,1.227-5.216,2.721c-0.887,0.925-1.615,1.966-2.193,3.102c-0.854,1.678-0.628,1.766,0.655,2.601
		c1.838,1.196,3.29,2.751,4.441,4.604c0.206,0.332,0.445,0.645,0.638,0.983c0.429,0.752,1.061,0.96,1.868,0.743
		c0.556-0.149,1.118-0.291,1.483-0.747c-0.023-0.113-0.022-0.166-0.044-0.208c-0.068-0.129-0.14-0.256-0.218-0.38
		c-0.832-1.31-1.02-2.711-0.666-4.217c0.328-1.395,0.903-2.684,1.598-3.921c0.789-1.406,1.628-2.783,2.435-4.179
		C279.012,420.3,279.219,419.863,279.425,419.466z M282.505,421.088c-1.079,2.522-2.315,4.857-3.059,7.399
		c-0.178,0.607-0.32,1.232-0.406,1.858c-0.194,1.417,0.202,2.235,1.463,2.898c0.687,0.361,1.425,0.645,2.167,0.878
		c1.855,0.58,3.495,1.498,4.866,2.888c0.184,0.187,0.435,0.307,0.768,0.534c0.209-0.631,0.431-1.123,0.534-1.639
		c0.91-4.527,0.04-8.642-2.905-12.258c-0.184-0.226-0.367-0.47-0.601-0.635C284.458,422.392,283.563,421.803,282.505,421.088z
		 M328.295,139.628c-1.125,0.583-2.162,1.224-3.277,1.669c-1.175,0.469-2.412,0.807-3.646,1.099c-1.188,0.281-2.4,0.513-3.614,0.614
		c-1.262,0.104-2.54,0.064-3.809,0.014c-1.189-0.047-2.356-0.397-3.594-0.408c0.064,0.186,0.069,0.301,0.129,0.359
		c2.278,2.219,4.836,3.977,7.969,4.764c2.103,0.528,4.234,0.747,6.404,0.613c1.759-0.109,3.52-0.165,5.281-0.248
		c0.279-0.013,0.556-0.045,0.957-0.078c-0.588-1.448-1.204-2.77-1.661-4.144C328.977,142.505,328.676,141.076,328.295,139.628z
		 M308.655,139.765c0.147,0.088,0.255,0.18,0.38,0.222c3.052,1.029,6.168,1.57,9.385,1.061c1.204-0.19,2.397-0.492,3.569-0.832
		c0.792-0.23,1.583-0.542,2.293-0.957c0.62-0.362,1.215-0.848,1.664-1.406c0.822-1.021,0.691-2.144-0.289-2.994
		c-0.551-0.477-1.196-0.845-1.79-1.274c-1.136-0.82-2.341-0.864-3.625-0.395c-1.57,0.573-3.067,1.286-4.453,2.223
		c-0.811,0.548-1.611,1.113-2.421,1.663c-1.377,0.936-2.762,1.858-4.36,2.396C308.884,139.515,308.791,139.65,308.655,139.765z
		 M303.579,389.271c0.138,0.284,0.281,0.593,0.436,0.895c0.963,1.873,1.927,3.746,2.896,5.616c0.631,1.218,1.263,2.435,1.913,3.642
		c0.101,0.188,0.301,0.323,0.511,0.54c0.134-0.395,0.247-0.666,0.319-0.947c0.803-3.13,1.658-6.248,2.378-9.397
		c0.502-2.193,0.828-4.428,1.207-6.648c0.076-0.447,0.218-0.925-0.006-1.396C310.146,382.98,305.214,386.916,303.579,389.271z
		 M317.806,382.015c-0.609,3.191-1.142,6.119-1.732,9.036c-0.599,2.959-1.557,5.826-2.47,8.756c0.197-0.041,0.296-0.037,0.364-0.081
		c0.163-0.106,0.318-0.227,0.466-0.354c3.338-2.866,6.675-5.733,10.011-8.601c0.035-0.03,0.057-0.081,0.071-0.127
		c0.013-0.044,0.008-0.094,0.018-0.238C322.705,387.433,320.565,384.618,317.806,382.015z M313.268,128.339
		c-2.082,0.252-3.972,0.481-5.862,0.71c-0.048,0.006-0.096,0.019-0.144,0.03c-1.061,0.259-1.878,0.85-2.349,1.839
		c-0.293,0.616-0.535,1.262-0.735,1.915c-0.394,1.286-0.353,2.615-0.293,3.939c0.012,0.276,0.112,0.548,0.174,0.835
		c2.546,0.17,4.798-0.478,6.855-1.743C311.327,132.335,311.375,131.814,313.268,128.339z M274.502,416.874
		c-1.44-0.696-2.572-1.244-3.704-1.789c-0.439-0.212-0.87-0.448-1.325-0.62c-1.099-0.417-2.22-0.758-3.415-0.718
		c-1.537,0.051-2.153,0.749-2.15,2.015c0.002,0.842-0.249,1.634-0.549,2.414c-0.175,0.455-0.379,0.91-0.471,1.384
		c-0.11,0.567-0.18,1.158-0.148,1.732c0.039,0.705,0.303,0.963,1.101,1.36c0.236-0.36,0.464-0.732,0.716-1.088
		c1.721-2.434,4.009-3.951,7.008-4.313C272.434,417.145,273.303,417.028,274.502,416.874z M261.266,423.943
		c-0.131,0.7-0.249,1.169-0.302,1.646c-0.127,1.155,0.19,2.238,0.667,3.264c0.637,1.373,1.31,2.732,2.015,4.071
		c0.608,1.154,2.208,1.75,3.605,1.413c0-1.117,0-2.234,0-3.485c-0.389-0.308-0.831-0.68-1.297-1.021
		c-0.473-0.346-0.979-0.646-1.451-0.993c-1.186-0.869-1.857-1.988-1.653-3.517c0.011-0.085-0.055-0.181-0.099-0.313
		C262.349,424.721,261.919,424.413,261.266,423.943z M319.426,364.286c1.533,0.714,2.947,1.374,4.362,2.03
		c0.039,0.018,0.102,0.012,0.142-0.008c0.04-0.02,0.065-0.071,0.138-0.159c-0.259-0.847-0.53-1.729-0.798-2.611
		c-0.27-0.89-0.542-1.779-0.804-2.67c-0.262-0.892-0.511-1.788-0.767-2.681c-0.256-0.893-0.489-1.795-0.779-2.677
		c-0.279-0.848-0.336-1.772-0.802-2.61c-0.113,0.143-0.214,0.21-0.217,0.282C319.739,356.847,319.585,360.512,319.426,364.286z
		 M277.375,434.95c-0.358,0.232-0.636,0.429-0.93,0.599c-0.337,0.195-0.674,0.402-1.035,0.542c-1.766,0.68-3.344,0.388-4.73-0.93
		c-0.364-0.347-0.591-0.855-1.201-1.121c0.022,1.015,0.331,1.834,0.697,2.625c0.687,1.488,1.183,1.73,2.761,1.419
		c0.239-0.047,0.474-0.117,0.712-0.172c1.508-0.352,3.004-0.287,4.492,0.123c0.612,0.169,1.226,0.327,1.841,0.482
		c0.331,0.084,0.662,0.195,0.998,0.219c1.145,0.08,2.02-0.388,2.761-1.42C281.543,436.47,279.248,436.24,277.375,434.95z"/>
        <path fill="#1A1A1A" d="M149.341,50.193c0.312,0.672,0.521,1.108,0.717,1.55c1.555,3.493,3.224,6.927,5.084,10.27
		c2.854,5.132,6.349,9.779,10.481,13.942c2.348,2.365,4.752,4.675,7.138,7.003c4.049,3.952,8.57,7.316,13.215,10.517
		c3.308,2.28,6.671,4.481,10.008,6.719c3.179,2.132,6.241,4.414,9.051,7.024c2.818,2.618,5.239,5.561,7.28,8.819
		c2.102,3.358,3.519,6.992,4.362,10.854c0.114,0.52,0.17,1.07,0.142,1.601c-0.038,0.728-0.394,1.332-1.094,1.613
		c-0.642,0.257-1.282,0.108-1.78-0.355c-0.425-0.396-0.813-0.849-1.136-1.332c-0.38-0.568-0.672-1.195-1.002-1.796
		c-2.318-4.236-5.147-8.105-8.409-11.658c-1.796-1.956-3.837-3.649-5.964-5.227c-2.675-1.986-5.392-3.917-8.103-5.855
		c-6.781-4.848-13.396-9.909-19.743-15.318c-3.476-2.963-6.719-6.158-9.797-9.528c-4.063-4.449-7.346-9.419-9.955-14.842
		c-0.204-0.425-0.289-0.938-0.825-1.262c-0.126,0.309-0.247,0.56-0.334,0.823c-2.644,8.052-5.6,15.994-8.47,23.966
		c-2.339,6.497-4.733,12.975-6.711,19.598c-2.986,10.002-5.603,20.098-7.733,30.317c-0.8,3.838-1.38,7.714-1.907,11.599
		c-1.116,8.232-1.414,16.504-1.111,24.794c0.191,5.242,0.655,10.465,1.875,15.592c0.306,1.285,0.504,2.596,0.723,3.9
		c0.072,0.432,0.092,0.881,0.068,1.318c-0.058,1.057-0.875,1.675-1.911,1.471c-0.548-0.108-1.035-0.367-1.342-0.832
		c-0.403-0.61-0.792-1.239-1.096-1.902c-0.718-1.566-1.112-3.24-1.523-4.904c-1.79-7.248-2.911-14.596-3.365-22.052
		c-0.42-6.906-0.524-13.809-0.232-20.722c0.187-4.418,0.744-8.788,1.556-13.126c1.852-9.899,4.595-19.545,8.408-28.872
		c0.963-2.355,2.096-4.642,3.185-6.944c2.178-4.606,4.465-9.161,6.545-13.811c2.059-4.604,3.93-9.293,5.861-13.953
		c2.437-5.883,4.851-11.775,7.276-17.663C148.923,51.169,149.079,50.812,149.341,50.193z"/>
        <path fill="#1A1A1A" d="M143.174,148.386c0.678,0.072,1.358,0.132,2.034,0.219c2.758,0.357,5.474,0.198,8.138-0.637
		c0.186-0.058,0.372-0.119,0.555-0.187c0.037-0.014,0.062-0.061,0.164-0.17c-0.138-0.16-0.269-0.351-0.437-0.499
		c-1.179-1.033-2.383-2.039-3.547-3.088c-1.497-1.349-2.828-2.854-4.012-4.484c-0.748-1.03-1.409-2.109-1.857-3.272
		c0.234-0.328,0.477-0.197,0.683-0.108c1.169,0.503,2.329,1.025,3.496,1.534c2.709,1.181,5.551,1.908,8.45,2.423
		c0.711,0.126,1.444,0.122,2.13,0.175c0.166-0.4-0.068-0.55-0.225-0.716c-4.876-5.157-8.11-11.258-10.259-17.965
		c-0.446-1.392-0.68-2.853-0.972-4.291c-0.113-0.555-0.15-1.133-0.022-1.817c0.58,0.211,0.864,0.62,1.19,0.953
		c1.475,1.509,3.017,2.941,4.688,4.233c1.818,1.406,3.856,2.668,5.61,3.445c0.265-0.324-0.046-0.555-0.169-0.77
		c-3.856-6.684-6.31-13.898-8.006-21.382c-1.414-6.239-2.057-12.563-1.672-18.969c0.02-0.333,0.061-0.665,0.092-0.996
		c0.455-0.004,0.464,0.338,0.58,0.585c1.125,2.392,2.173,4.824,3.389,7.17c5.63,10.866,12.754,20.66,21.313,29.408
		c2.88,2.943,5.805,5.841,8.949,8.504c4.837,4.096,10.01,7.709,15.565,10.77c0.427,0.235,0.847,0.483,1.269,0.724
		c-0.043,0.584-0.547,0.688-0.886,0.912c-5.486,3.62-11.203,6.835-17.142,9.651c-2.169,1.029-4.391,1.933-6.676,2.673
		c-5.557,1.8-11.245,2.67-17.084,2.208c-4.803-0.38-9.336-1.685-13.41-4.352c-0.724-0.474-1.437-0.969-2.036-1.593
		C143.095,148.581,143.134,148.484,143.174,148.386z"/>
        <path fill="#1A1A1A" d="M187.777,295.916c-0.202,1.008-0.32,1.676-0.47,2.336c-0.775,3.401-1.152,6.852-1.378,10.329
		c-0.298,4.607-0.197,9.21,0.076,13.81c0.165,2.786,0.481,5.563,0.727,8.344c0.043,0.484,0.077,0.97,0.114,1.444
		c-0.393,0.151-0.454-0.154-0.542-0.33c-1.789-3.563-3.192-7.268-3.869-11.207c-0.398-2.315-0.646-4.655-0.956-6.984
		c-0.076-0.57-0.103-1.149-0.31-1.802c-0.544,0.344-0.793,0.83-1.091,1.256c-3.384,4.842-6.154,10.012-8.217,15.549
		c-1.796,4.822-3.352,9.72-4.503,14.741c-0.084,0.368-0.205,0.727-0.324,1.143c-0.573-0.23-0.77-0.704-1.043-1.09
		c-2.36-3.333-4.297-6.903-5.849-10.674c-2.733-6.641-4.622-13.519-5.704-20.621c-0.732-4.806-1.114-9.638-1.059-14.496
		c0.086-7.585,1.048-15.042,3.464-22.269c0.088-0.262,0.139-0.536,0.215-0.833c-1.729,0.121-4.684,1.036-7.816,2.566
		c-2.459,1.201-4.849,2.543-7.354,3.867c0.036-0.268,0.026-0.538,0.11-0.774c1.271-3.561,2.859-6.979,4.73-10.261
		c4.305-7.555,9.649-14.278,16.168-20.046c0.989-0.875,2.045-1.676,3.085-2.493c0.302-0.237,0.657-0.407,1.114-0.685
		c-0.024,0.357,0.019,0.607-0.064,0.803c-0.405,0.945-0.814,1.889-1.275,2.807c-2.137,4.246-4.117,8.562-5.828,12.998
		c-0.314,0.815-0.591,1.644-0.894,2.493c0.45,0.242,0.727-0.034,1.009-0.157c2.618-1.144,5.347-1.897,8.161-2.357
		c0.183-0.03,0.372-0.029,0.685-0.051c-0.078,0.316-0.095,0.547-0.189,0.74c-3.135,6.403-4.812,13.233-5.894,20.232
		c-0.36,2.327-0.493,4.678-0.486,7.033c0.008,2.646-0.018,5.295,0.094,7.938c0.285,6.724,1.221,13.359,2.953,19.871
		c0.121,0.455,0.286,0.899,0.418,1.311c0.427,0.026,0.484-0.26,0.597-0.453c0.664-1.143,1.293-2.308,1.973-3.442
		c3.679-6.142,8.119-11.654,13.62-16.266c1.5-1.257,3.098-2.398,4.657-3.583C186.897,296.448,187.195,296.286,187.777,295.916z"/>
        <path fill="#1A1A1A" d="M278.24,89.037c-0.051,0.245-0.063,0.428-0.125,0.592c-1.951,5.15-3.127,10.508-4.21,15.886
		c-0.823,4.083-1.401,8.207-1.758,12.359c-0.079,0.914-0.329,1.236-1.015,1.41c-0.872,0.221-1.666-0.028-2.036-0.751
		c-0.241-0.469-0.411-1.006-0.472-1.529c-0.159-1.361-0.3-2.729-0.338-4.097c-0.051-1.811,0.003-3.626,0.007-5.439
		c0.001-0.472-0.014-0.944-0.022-1.418c-0.52-0.028-0.656,0.339-0.861,0.578c-2.301,2.685-4.356,5.548-6.129,8.61
		c-0.908,1.568-1.779,3.158-2.699,4.72c-0.346,0.588-0.747,1.153-1.188,1.673c-0.527,0.62-1.224,0.951-2.062,0.972
		c-0.881,0.023-1.52-0.327-1.859-1.15c-0.168-0.407-0.308-0.826-0.438-1.246c-1.386-4.491-2.747-8.99-4.159-13.473
		c-0.838-2.662-1.741-5.305-2.964-7.824c-0.127-0.262-0.276-0.515-0.437-0.757c-0.044-0.067-0.169-0.08-0.306-0.14
		c-0.598,1.655-1.205,3.303-1.79,4.959c-0.948,2.685-2.093,5.281-3.49,7.762c-0.359,0.638-0.775,1.247-1.207,1.839
		c-0.196,0.269-0.475,0.493-0.753,0.685c-0.353,0.243-0.811,0.128-1.013-0.25c-0.16-0.299-0.257-0.633-0.381-0.951
		c-0.409-1.048-0.805-2.102-1.234-3.142c-0.126-0.305-0.344-0.571-0.542-0.891c-0.403,0.196-0.432,0.556-0.564,0.839
		c-1.033,2.219-2.018,4.461-3.109,6.651c-0.543,1.09-1.255,2.101-1.941,3.114c-0.268,0.396-0.646,0.735-1.027,1.03
		c-0.395,0.306-0.87,0.269-1.199-0.099c-0.356-0.398-0.657-0.85-0.94-1.306c-1.6-2.582-3.183-5.173-4.781-7.756
		c-0.253-0.408-0.555-0.786-1.005-1.113c0.077,0.446,0.131,0.898,0.234,1.338c0.468,2.009,0.823,4.04,0.884,6.099
		c0.047,1.612-0.045,3.23-0.134,4.842c-0.041,0.744-0.294,1.441-0.962,1.901c-0.479,0.33-1.002,0.191-1.177-0.351
		c-0.105-0.323-0.151-0.667-0.207-1.004c-1.395-8.369-4.045-16.336-7.697-23.979c-1.843-3.857-4.041-7.501-6.628-10.908
		c-0.113-0.149-0.198-0.321-0.381-0.623c0.405,0.029,0.683-0.003,0.926,0.075c2.342,0.756,4.554,1.79,6.607,3.153
		c3.372,2.24,6.353,4.905,8.87,8.088c2.403,3.039,4.623,6.208,6.772,9.429c0.269,0.403,0.545,0.801,0.891,1.307
		c0.169-0.287,0.324-0.466,0.388-0.672c0.942-3.047,1.622-6.155,2.069-9.312c0.481-3.403,0.657-6.826,0.583-10.262
		c-0.006-0.291,0.027-0.583,0.05-0.874c0.003-0.032,0.062-0.059,0.1-0.092c0.343-0.08,0.53,0.187,0.739,0.367
		c1.086,0.939,1.942,2.069,2.682,3.29c1.278,2.108,2.225,4.359,2.89,6.729c0.343,1.222,0.668,2.449,0.997,3.659
		c0.397,0.076,0.419-0.196,0.473-0.417c0.55-2.238,0.97-4.502,1.197-6.795c0.303-3.071,0.565-6.145,0.847-9.218
		c0.009-0.095,0.052-0.187,0.107-0.38c0.212,0.101,0.448,0.153,0.599,0.295c0.643,0.602,1.322,1.181,1.874,1.861
		c0.955,1.178,1.9,2.377,2.717,3.652c2.517,3.932,4.604,8.093,6.172,12.49c1.101,3.088,2.025,6.239,3.054,9.354
		c0.163,0.494,0.145,1.082,0.662,1.495c0.189-0.305,0.369-0.59,0.544-0.878c4.046-6.691,8.625-12.972,14.241-18.451
		c1.791-1.747,3.647-3.419,5.704-4.853C277.265,89.472,277.615,89.109,278.24,89.037z"/>
        <path fill="#1A1A1A" d="M99.816,294.973c2.331-0.743,4.237-1.716,6.184-2.438c0.309,0.254,0.135,0.435,0.023,0.548
		c-0.689,0.694-1.337,1.448-2.108,2.038c-2.549,1.949-5.337,3.466-8.446,4.324c-1.994,0.55-4.032,0.807-6.104,0.716
		c-0.322-0.014-0.639-0.124-1.059-0.21c0.191-0.255,0.284-0.427,0.42-0.554c3.36-3.171,6.258-6.755,9.215-10.286
		c5.221-6.238,10.317-12.577,15.395-18.931c4.284-5.36,8.797-10.526,13.533-15.498c5.06-5.312,10.681-9.941,16.761-14.03
		c2.647-1.78,5.433-3.316,8.263-4.778c0.302-0.156,0.603-0.314,1.015-0.529c-0.383-0.273-0.684-0.499-0.996-0.707
		c-0.619-0.413-1.165-0.898-1.527-1.559c-0.482-0.881-0.53-1.786-0.027-2.662c0.265-0.462,0.597-0.9,0.965-1.286
		c0.506-0.53,1.056-1.023,1.62-1.493c3.388-2.829,6.918-5.47,10.618-7.877c5.828-3.79,12.056-6.715,18.783-8.52
		c2.988-0.802,6.03-1.321,9.138-1.285c0.877,0.01,1.765,0.101,2.623,0.274c0.61,0.123,1.21,0.392,1.754,0.7
		c0.315,0.179,0.56,0.539,0.75,0.867c0.252,0.435,0.034,0.917-0.437,1.052c-0.328,0.094-0.67,0.153-1.009,0.196
		c-11.521,1.465-21.881,5.86-31.327,12.504c-2.683,1.887-5.255,3.933-7.865,5.923c-0.453,0.346-0.953,0.678-1.224,1.346
		c0.567,0.242,1.115,0.442,1.63,0.705c0.562,0.287,1.16,0.559,1.628,0.968c1.198,1.047,1.265,2.461,0.188,3.622
		c-0.461,0.497-1.012,0.93-1.579,1.306c-1.06,0.704-2.152,1.362-3.246,2.013c-5.903,3.509-11.591,7.328-16.979,11.593
		c-4.484,3.549-8.448,7.584-11.838,12.199c-3.336,4.541-6.708,9.056-10.149,13.517c-4.255,5.516-8.835,10.751-13.953,15.495
		C100.287,294.381,100.162,294.564,99.816,294.973z"/>
        <path fill="#1A1A1A" d="M245.099,152.229c-0.164-0.862-0.291-1.733-0.501-2.583c-0.562-2.281-1.259-4.534-1.718-6.834
		c-0.707-3.539-0.778-7.107,0.118-10.638c0.191-0.751,0.485-1.495,0.854-2.176c0.612-1.128,1.613-1.528,2.855-1.276
		c0.742,0.151,1.259,0.576,1.41,1.32c0.106,0.522,0.134,1.069,0.122,1.603c-0.02,0.93-0.155,1.859-0.142,2.787
		c0.046,3.236,0.276,6.456,1.006,9.624c0.559,2.431,1.087,4.87,1.667,7.477c0.212-0.351,0.388-0.564,0.481-0.808
		c0.719-1.879,1.52-3.723,2.628-5.407c0.507-0.771,1.116-1.484,1.743-2.164c0.446-0.483,1.059-0.686,1.741-0.609
		c0.783,0.088,1.146,0.584,0.915,1.321c-0.116,0.372-0.282,0.731-0.454,1.082c-2.254,4.604-3.716,9.472-4.808,14.461
		c-0.701,3.204-1.26,6.442-2.057,9.622c-1.43,5.707-2.545,11.471-3.426,17.282c-0.404,2.664-0.682,5.35-0.666,8.048
		c0.018,3.037,0.122,6.073,0.188,9.109c0.015,0.686,0.06,1.373,0.03,2.057c-0.044,1.005-0.891,1.679-1.904,1.564
		c-0.423-0.048-0.754-0.255-0.893-0.661c-0.158-0.462-0.29-0.936-0.386-1.414c-0.704-3.505-1.287-7.03-1.8-10.569
		c-0.554-3.826-1.132-7.649-2.244-11.373c-0.906-3.035-2.206-5.868-4.034-8.443c-1.162-1.636-2.41-3.213-3.651-4.791
		c-1.211-1.54-2.463-3.049-3.697-4.571c-0.093-0.114-0.188-0.226-0.275-0.345c-0.89-1.227-0.638-2.309,0.705-3.025
		c1.19-0.635,2.357-0.452,3.295,0.638c3.416,3.972,6.986,7.831,9.466,12.512c0.069,0.13,0.13,0.264,0.243,0.496
		c0.499-0.861,0.503-1.602,0.632-2.301c0.438-2.363,0.715-4.745,0.727-7.153c0.024-4.608-1.025-8.933-3.419-12.897
		c-1.216-2.012-2.475-3.998-3.685-6.012c-0.452-0.753-0.881-1.531-1.215-2.341c-0.389-0.942,0.003-1.734,0.938-2.148
		c0.847-0.375,1.752-0.209,2.426,0.455c0.174,0.172,0.337,0.357,0.486,0.55c1.494,1.94,3.007,3.867,4.463,5.835
		c0.551,0.744,0.972,1.585,1.448,2.384c0.099,0.166,0.173,0.352,0.422,0.288c0.033,0.086,0.067,0.171,0.102,0.256
		C245.189,152.382,245.144,152.306,245.099,152.229z"/>
        <path fill="#1A1A1A" d="M178.084,227.118c2.041-1.066,4.138-1.881,6.338-2.357c5.343-1.157,10.701-1.103,16.041,0.051
		c6.244,1.349,10.548,5.162,13.38,10.746c1.738,3.427,2.857,7.078,3.561,10.854c0.404,2.17,0.632,4.363,0.775,6.564
		c0.141,2.161-0.063,4.308-0.257,6.456c-0.007,0.077-0.098,0.146-0.151,0.219c-0.274,0.076-0.316-0.149-0.397-0.312
		c-0.39-0.79-0.761-1.591-1.166-2.373c-1.325-2.557-3.367-4.314-6.081-5.238c-1.666-0.567-3.371-1.02-5.065-1.501
		c-1.036-0.294-2.085-0.54-3.125-0.817c-4.883-1.299-8.905-3.987-12.288-7.678c-1.526-1.666-2.881-3.476-4.014-5.429
		c-1.641-2.827-3.735-5.267-6.103-7.496C179.005,228.311,178.43,227.839,178.084,227.118z M193.436,230.916
		c-0.722,0.791-0.93,1.727-1.033,2.698c-0.529,4.993,3.466,9.266,7.515,9.96c3.245,0.557,6.104-1.223,6.926-4.413
		c0.378-1.468,0.296-2.909-0.125-4.344c-0.032-0.109-0.184-0.182-0.356-0.342c-0.701,1.512-1.687,2.696-3.177,3.379
		c-1.477,0.678-3.012,0.814-4.584,0.421c-1.481-0.37-2.649-1.228-3.596-2.403C193.842,234.43,193.375,232.775,193.436,230.916z
		 M200.884,232.779c-0.021-1.287-1.064-2.309-2.364-2.316c-1.378-0.007-2.405,1.058-2.353,2.442c0.048,1.29,1.133,2.314,2.406,2.271
		C199.833,235.133,200.904,234.023,200.884,232.779z M204.846,231.425c0.014-0.78-0.567-1.413-1.329-1.448
		c-0.792-0.036-1.47,0.657-1.451,1.485c0.017,0.767,0.649,1.385,1.402,1.372C204.213,232.821,204.832,232.188,204.846,231.425z"/>
        <path fill="#1A1A1A" d="M229.56,250.206c0-0.562-0.023-0.784,0.003-1.001c0.393-3.213,0.567-6.441,0.626-9.674
		c0.055-2.998-0.211-5.965-0.94-8.886c-0.348-1.392-0.835-2.729-1.617-3.92c-0.966-1.471-1.968-2.928-3.075-4.294
		c-2.353-2.903-5.077-5.442-8.004-7.76c-3.579-2.835-6.931-5.911-10.002-9.292c-1.485-1.634-2.881-3.338-4.068-5.203
		c-0.574-0.902-1.105-1.829-1.491-2.842c0.823-0.246,2.132-0.24,4.08,0.048c1.347,0.2,2.687,0.449,4.157,0.698
		c-0.179-0.334-0.279-0.597-0.441-0.814c-1.504-2.013-3.468-3.451-5.762-4.417c-1.35-0.569-2.745-1.042-4.143-1.481
		c-2.949-0.926-5.823-2.027-8.55-3.49c-0.733-0.393-1.442-0.83-2.152-1.264c-0.15-0.092-0.352-0.191-0.304-0.527
		c0.268,0,0.542-0.028,0.808,0.004c4.325,0.519,8.668,0.908,12.947,1.773c1.784,0.361,3.507,0.889,5.148,1.682
		c1.527,0.738,2.806,1.771,3.845,3.114c0.935,1.208,1.687,2.525,2.337,3.899c0.544,1.15,1.044,2.321,1.536,3.495
		c0.984,2.351,2.029,4.67,3.362,6.85c0.098,0.161,0.16,0.344,0.276,0.6c-1.021,0.176-1.86-0.371-2.864-0.405
		c0.076,0.378,0.374,0.525,0.599,0.709c2.16,1.769,4.355,3.497,6.477,5.31c1.563,1.335,3.093,2.72,4.53,4.187
		c4.226,4.315,6.36,9.569,6.733,15.557c0.352,5.657-0.98,10.981-3.304,16.093C230.154,249.295,229.927,249.599,229.56,250.206z"/>
        <path fill="#1A1A1A" d="M141.668,222.826c0.4,0.145,0.685,0.213,0.933,0.349c0.296,0.163,0.603,0.344,0.828,0.588
		c0.604,0.656,0.416,1.504-0.436,1.731c-1.756,0.467-3.544,0.779-5.374,0.564c-0.591-0.07-1.133-0.315-1.592-0.703
		c-0.751-0.635-0.904-1.374-0.357-2.21c0.454-0.694,0.99-1.338,1.529-1.971c1.175-1.38,2.395-2.722,3.558-4.111
		c1.955-2.335,3.627-4.871,5.175-7.488c2.045-3.456,4.057-6.933,6.103-10.389c2.374-4.009,4.924-7.899,7.901-11.493
		c3.079-3.717,6.532-7.033,10.533-9.755c1.869-1.271,3.831-2.37,5.951-3.166c0.5-0.188,1.023-0.338,1.549-0.43
		c0.666-0.115,1.255,0.115,1.749,0.577c0.748,0.701,0.805,1.43,0.087,2.169c-0.475,0.489-1.03,0.903-1.561,1.335
		c-1.596,1.298-3.235,2.546-4.79,3.891c-4.285,3.707-7.952,7.982-11.225,12.587c-2.355,3.313-4.584,6.715-6.859,10.085
		c-1.48,2.192-2.935,4.402-4.415,6.594c-2.612,3.868-5.532,7.483-8.87,10.753C141.98,222.433,141.895,222.553,141.668,222.826z"/>
        <path fill="#1A1A1A" d="M102.493,245.346c0.279-0.4,0.549-0.806,0.837-1.2c2.495-3.416,4.547-7.082,6.189-10.978
		c2.264-5.369,4.645-10.684,7.319-15.863c1.892-3.664,3.992-7.194,6.715-10.316c4.329-4.963,9.538-8.678,15.711-11.01
		c0.86-0.325,1.73-0.647,2.806-0.751c-0.182,0.256-0.261,0.426-0.39,0.539c-5.245,4.605-9.368,10.122-12.997,16.033
		c-2.715,4.422-5.383,8.874-8.048,13.326c-1.937,3.236-3.906,6.45-6.122,9.506c-1.758,2.424-3.7,4.69-5.854,6.771
		c-1.595,1.54-3.347,2.863-5.335,3.86c-0.207,0.104-0.43,0.178-0.645,0.265C102.617,245.467,102.555,245.406,102.493,245.346z"/>
        <path fill="#1A1A1A" d="M182.65,155.137c0.659,0.173,1.333,0.303,1.973,0.53c1.153,0.408,2.284,0.878,3.427,1.315
		c3.808,1.457,7.762,2.388,11.738,3.241c2.631,0.565,5.272,1.095,7.884,1.74c2.777,0.686,5.347,1.9,7.785,3.384
		c2.808,1.71,5.098,3.982,6.908,6.708c2.186,3.292,3.742,6.876,4.59,10.748c0.104,0.474,0.173,0.973,0.14,1.452
		c-0.022,0.312-0.199,0.662-0.412,0.9c-0.466,0.522-1.25,0.538-1.674-0.011c-0.596-0.772-1.134-1.596-1.625-2.44
		c-0.936-1.608-1.803-3.257-2.735-4.867c-0.862-1.489-1.895-2.855-3.089-4.1c-2.278-2.375-4.979-4.095-8.034-5.293
		c-2.841-1.114-5.787-1.82-8.782-2.342c-3.425-0.597-6.864-1.116-10.278-1.767c-3.186-0.608-6.212-1.752-9.183-3.036
		c-0.313-0.135-0.614-0.308-0.899-0.496c-1.357-0.898-1.687-2.472-0.82-3.851C180.246,155.865,181.385,155.224,182.65,155.137z"/>
        <path fill="#1A1A1A" d="M204.596,341.464c-0.32-0.43-0.621-0.803-0.887-1.2c-2.44-3.63-3.979-7.621-4.775-11.911
		c-0.902-4.857-0.923-9.756-0.445-14.64c1.092-11.176,5.102-21.254,11.709-30.319c2.455-3.368,5.08-6.596,7.813-9.739
		c2.025-2.329,4.058-4.649,6.084-6.977c0.128-0.147,0.224-0.324,0.537-0.371c-0.032,0.191-0.027,0.398-0.103,0.569
		c-0.538,1.207-1.06,2.422-1.647,3.605c-2.925,5.882-6.195,11.566-9.866,17.016c-2.691,3.995-4.995,8.205-6.708,12.703
		c-2.8,7.352-4.202,14.963-3.971,22.859c0.176,5.992,0.838,11.912,2.319,17.73c0.035,0.139,0.043,0.286,0.051,0.43
		C204.708,341.262,204.669,341.307,204.596,341.464z"/>
        <path fill="#1A1A1A" d="M122.699,236.002c-0.092,0.264-0.177,0.532-0.278,0.793c-1.484,3.837-2.985,7.668-4.453,11.511
		c-1.808,4.733-4,9.258-6.965,13.392c-3.439,4.794-7.265,9.249-11.534,13.319c-1.561,1.488-3.157,2.939-4.737,4.406
		c-0.212,0.197-0.424,0.393-0.603,0.559c0.039,0.418,0.328,0.412,0.544,0.422c0.929,0.046,1.86,0.063,2.791,0.093
		c0.277,0.009,0.553,0.027,0.888,0.043c-0.931,1.184-3.133,2.54-5.451,3.402c-3.16,1.175-7.72,1.809-9.923,1.369
		c0.119-0.472,0.543-0.667,0.854-0.945c4.385-3.927,8.676-7.957,12.509-12.429c4.979-5.808,9.632-11.868,13.816-18.287
		c3.13-4.803,6.394-9.518,9.619-14.257c0.689-1.012,1.465-1.964,2.213-2.934c0.159-0.206,0.372-0.372,0.559-0.556
		C122.597,235.936,122.648,235.969,122.699,236.002z"/>
        <path fill="#1A1A1A" d="M99.819,317.004c-1.129,0.007-2.343-0.891-2.656-1.97c-0.176-0.609-0.07-1.149,0.365-1.634
		c1.111-1.24,2.181-2.516,3.314-3.735c2.376-2.556,4.44-5.347,6.303-8.289c1.806-2.854,3.545-5.751,5.376-8.589
		c1.777-2.756,3.584-5.494,5.465-8.18c2.312-3.302,4.986-6.295,8.127-8.84c0.949-0.768,1.97-1.45,2.976-2.144
		c0.36-0.248,0.762-0.446,1.167-0.615c0.747-0.312,1.439-0.183,2.04,0.364c0.535,0.487,0.614,1.101,0.178,1.704
		c-0.256,0.355-0.564,0.676-0.877,0.985c-0.905,0.896-1.822,1.779-2.737,2.664c-4.295,4.154-7.776,8.939-10.675,14.133
		c-2.89,5.178-5.971,10.229-9.355,15.096c-1.51,2.172-3.054,4.321-4.858,6.261c-0.697,0.749-1.473,1.432-2.262,2.086
		C101.18,316.743,100.54,317.015,99.819,317.004z"/>
        <path fill="#1A1A1A" d="M133.984,184.264c6.017-2.482,11.347-5.491,15.802-10.045c-0.254-0.236-0.443-0.438-0.658-0.606
		c-1.081-0.842-2.214-1.625-3.242-2.526c-0.916-0.803-1.729-1.725-2.565-2.616c-0.226-0.241-0.369-0.561-0.612-0.941
		c1.305-0.418,2.579-0.185,3.811-0.334c1.312-0.159,2.63-0.259,3.944-0.401c1.265-0.136,2.53-0.278,3.791-0.445
		c1.261-0.167,2.518-0.365,3.775-0.558c1.257-0.193,2.513-0.394,3.769-0.599c1.304-0.212,2.608-0.421,3.908-0.654
		c1.252-0.224,2.494-0.501,3.748-0.711c1.227-0.206,2.436-0.54,3.756-0.468c-0.304,0.215-0.591,0.458-0.913,0.641
		c-2.312,1.309-4.781,2.248-7.332,2.955c-2.969,0.823-5.957,1.575-8.934,2.366c-0.309,0.082-0.603,0.22-1.024,0.376
		c1.974,1.547,4.295,1.902,6.507,2.738c-0.161,0.324-0.248,0.607-0.419,0.823c-0.667,0.843-1.319,1.706-2.052,2.49
		c-3.978,4.254-8.909,6.788-14.568,7.984c-2.739,0.579-5.504,0.904-8.308,0.832C135.539,184.547,134.904,184.558,133.984,184.264z"
        />
        <path fill="#1A1A1A" d="M186.859,265.537c0.466-0.035,0.792-0.018,1.098-0.089c3.497-0.807,7.054-1.133,10.622-1.408
		c1.902-0.147,3.812-0.327,5.687-0.664c2.074-0.373,4.069-1.069,5.962-2.026c0.524-0.265,1.047-0.543,1.597-0.744
		c0.574-0.21,1.156-0.185,1.669,0.226c0.753,0.603,0.829,1.331,0.128,1.996c-1.256,1.192-2.71,2.089-4.32,2.733
		c-1.784,0.714-3.638,1.173-5.535,1.415c-2.428,0.31-4.862,0.609-7.302,0.784c-3.234,0.233-6.418,0.746-9.592,1.37
		c-0.525,0.103-1.065,0.159-1.6,0.171c-0.652,0.015-1.252-0.218-1.795-0.572c-1.233-0.803-1.672-2.065-1.146-3.448
		c0.242-0.637,0.597-1.232,0.91-1.841c0.199-0.387,0.415-0.765,0.661-1.217c-0.311-0.219-0.568-0.426-0.849-0.594
		c-0.926-0.551-1.868-1.074-2.789-1.634c-2.841-1.727-4.723-4.222-5.786-7.347c-0.315-0.926-0.574-1.873-0.828-2.818
		c-1.063-3.949-2.576-7.706-4.737-11.19c-0.232-0.374-0.457-0.755-0.656-1.148c-0.132-0.258-0.255-0.534-0.309-0.816
		c-0.16-0.831,0.426-1.466,1.263-1.367c0.6,0.071,1.135,0.322,1.549,0.769c0.265,0.286,0.499,0.603,0.724,0.922
		c2.705,3.845,4.603,8.072,5.928,12.569c0.29,0.986,0.565,1.978,0.887,2.954c0.685,2.074,1.898,3.74,3.823,4.846
		c0.891,0.513,1.781,1.034,2.634,1.606c0.73,0.488,1.475,0.987,2.095,1.6c1.467,1.451,1.423,2.759,0.539,4.086
		C187.229,264.899,187.091,265.15,186.859,265.537z"/>
        <path fill="#1A1A1A" d="M220.223,399.102c0.14-1.361,0.267-2.724,0.43-4.083c0.046-0.384,0.175-0.763,0.306-1.13
		c0.288-0.804,0.899-1.263,1.702-1.479c0.931-0.25,1.648,0.15,1.897,1.097c0.123,0.47,0.163,0.963,0.216,1.449
		c0.19,1.753,0.317,3.514,0.563,5.258c0.446,3.164,1.289,6.225,2.514,9.184c1.858,4.491,4.832,8.147,8.4,11.368
		c0.254,0.23,0.536,0.431,0.775,0.675c0.715,0.732,0.836,1.476,0.408,2.419c-0.359,0.792-0.945,1.355-1.738,1.713
		c-0.767,0.347-1.532,0.362-2.252-0.077c-0.541-0.33-1.063-0.704-1.545-1.115c-5.939-5.067-9.428-11.543-10.952-19.136
		C220.541,403.224,220.343,401.176,220.223,399.102z"/>
        <path fill="#1A1A1A" d="M219.433,330.266c-0.254-1.887-0.231-3.787-0.108-5.689c0.484-7.503,2.028-14.818,3.81-22.098
		c1.337-5.463,2.579-10.95,3.829-16.434c0.326-1.429,0.517-2.888,0.783-4.331c0.049-0.268,0.163-0.524,0.311-0.984
		c0.192,0.407,0.314,0.607,0.384,0.823c1.378,4.231,1.952,8.557,1.747,13.015c-0.23,5.003-1.554,9.744-3.212,14.413
		c-1.178,3.318-2.432,6.61-3.672,9.907c-1.344,3.572-2.659,7.152-3.654,10.841C219.601,329.913,219.506,330.087,219.433,330.266z"/>
        <path fill="#1A1A1A" d="M178.897,283.528c-1.555,0.01-3.01-1.499-2.952-2.97c0.018-0.467,0.185-0.867,0.528-1.172
		c0.292-0.259,0.615-0.484,0.936-0.708c3.925-2.741,8.298-4.392,12.987-5.193c2.411-0.412,4.852-0.651,7.285-0.926
		c3.122-0.353,6.193-0.939,9.2-1.858c0.561-0.171,1.124-0.343,1.697-0.461c0.515-0.107,0.977,0.045,1.286,0.504
		c0.333,0.494,0.358,1.035,0.041,1.52c-0.236,0.361-0.55,0.704-0.905,0.945c-0.644,0.439-1.323,0.84-2.025,1.179
		c-2.574,1.243-5.312,1.991-8.093,2.587c-2.441,0.523-4.903,0.949-7.338,1.494c-1.574,0.352-3.133,0.792-4.671,1.279
		c-2.298,0.729-4.453,1.777-6.446,3.145C179.94,283.228,179.45,283.56,178.897,283.528z"/>
        <path fill="#1A1A1A" d="M192.578,338.734c1.787-0.042,4.119,0.207,6.386,0.905c0.745,0.229,1.462,0.557,2.178,0.871
		c0.264,0.115,0.517,0.289,0.728,0.486c0.519,0.485,0.614,1.162,0.285,1.739c-0.336,0.587-0.947,0.861-1.628,0.699
		c-0.235-0.056-0.461-0.164-0.678-0.273c-1.923-0.963-3.998-1.305-6.11-1.432c-2.854-0.171-5.678,0.125-8.472,0.704
		c-3.718,0.77-7.263,2.007-10.552,3.933c-0.291,0.17-0.614,0.316-0.941,0.388c-0.629,0.14-1.228-0.139-1.52-0.641
		c-0.312-0.536-0.237-1.324,0.246-1.759c0.359-0.324,0.783-0.588,1.207-0.827c2.398-1.356,4.935-2.387,7.578-3.155
		C184.781,339.354,188.343,338.745,192.578,338.734z"/>
        <path fill="#1A1A1A" d="M249.196,196.167c0.22-3.054,0.535-6.162,1.458-9.177c0.59-1.928,1.413-3.753,2.468-5.463
		c0.432-0.7,0.992-1.329,1.541-1.947c0.408-0.459,0.962-0.649,1.591-0.589c0.646,0.062,1,0.474,0.857,1.088
		c-0.111,0.473-0.286,0.933-0.455,1.391c-0.865,2.343-1.601,4.726-2,7.193c-0.32,1.976-0.531,3.97-0.772,5.958
		c-0.106,0.873-0.166,1.752-0.25,2.628c-0.167,1.741-2.375,2.367-3.658,1.633c-0.448-0.256-0.74-0.652-0.772-1.177
		C249.172,197.217,249.196,196.727,249.196,196.167z"/>
        </g>
</svg>
